<?xml version="1.0" encoding="utf-8" ?>
<svg baseProfile="tiny" height="100%" version="1.2" width="100%" xmlns="http://www.w3.org/2000/svg" xmlns:ev="http://www.w3.org/2001/xml-events" xmlns:xlink="http://www.w3.org/1999/xlink"><defs /><path d="M 242.0000000000001,95.00000000000004 C 241.24500633324269,95.94107744451445 240.12694757638872,96.00563822449354 238.9798948216073,96.0002013014489 C 237.83487268439927,95.99966672288963 236.69025452139462,96.00010742433112 235.54542882373647,96.00004709279727 C 234.4004707228481,95.99966711158963 233.25628667749555,96.00115586575446 232.10995906897162,95.99746960063922 C 230.96466763360905,95.99628487882292 229.8583117219331,96.08909882634904 229.07389221540285,96.95913600939969 C 227.94371510928465,96.99444050623144 226.80564116893692,97.01068035876638 225.63698804092772,96.95309552172272 C 224.64185524394128,97.3144258211816 223.8041703664756,98.05586902331501 222.62880008392455,97.98206754067579 C 221.49372796837758,98.0055544393567 220.3443410676002,97.99448238939182 219.20770052731706,98.0141827758031 C 218.0488704643484,97.98031291560449 217.2458161642832,98.80536172737077 216.1970173318933,99.03713075631983 C 215.0307209535895,98.98523561637825 214.23643975869098,99.83146457762204 213.16834074445913,100.01663884581212 C 212.0171377997751,100.00118247801797 210.89598074452803,100.05826330399624 210.1115825833511,100.92835201928824 C 208.9961521014493,100.99925801630229 207.88241573161585,101.07425396164804 207.09675200582873,101.94128733369416 C 205.97423682875592,101.99508936354118 204.86711338766426,102.08605033114237 204.08107936493138,102.95218972727983 C 202.95232197111076,102.99092171279514 201.8520120676235,103.09833201528866 201.0652389542626,103.96268708880821 C 199.93042175947758,103.98678942065 198.83699312001949,104.11081256408883 198.04914613552694,104.97257508335801 C 196.90817678240634,104.9818247911082 195.82632391247262,105.13379431432766 195.03530296219287,105.98789420234705 C 193.91056358784294,106.03632654496221 193.12723640227512,106.90900082409485 192.0220081270734,107.00453712689036 C 190.90276044336596,107.06622758353507 190.12266777846224,107.94671068632273 188.99994769377602,108.00001802543036 C 188.21314417226165,108.86429968717354 187.1160646545127,108.97950883072808 186.28554708552582,109.73825544619672 C 185.27087794894692,110.0524208496523 184.08813047746048,109.96080925743311 183.29022258195855,110.79828258889363 C 182.22533812511037,110.99121748511631 181.30551351563636,111.53435783222548 180.58924562753324,112.56892757678051 C 179.64759072824407,113.05936494214744 178.44612420849884,112.92256156974729 177.5346469263133,113.4858541476057 C 176.61542454936722,114.0304484126515 175.5545123977561,114.23297330205135 174.83640551209422,115.26310331375915 C 173.99707525847,116.00057422645516 172.86802583941017,116.03860120067897 172.07229655537452,116.8813341654907 C 171.33361752973028,117.8617986378109 170.22893030171352,117.9586411441579 169.38272323104198,118.67950995134414 C 168.36354712573143,118.98279457132485 167.45402411302084,119.55080516558722 166.5056517860279,120.0250252471748 C 165.47727036328757,120.30608616683175 164.771167179412,121.36519595349564 163.89447372862676,122.01246375042345 C 162.78345299649186,122.09401765032577 162.00927436342133,122.98877714047214 161.19469616773785,123.78598896531906 C 160.43822084728987,124.72357717533504 159.4047288161309,124.99205961297736 158.432865097146,125.41068105859597 C 157.6840281123284,126.36312374716869 156.85579466338277,127.13371722170567 156.0482153854509,127.94797483224356 C 155.26522004559007,128.76986586359868 154.33241072689634,129.52752888738905 153.95696787761602,130.51577090208744 C 154.00389664769443,131.6848765649728 154.01201874952758,132.8182068757115 153.98856919242303,133.97377240935268 C 154.83233637794825,134.7688935371395 155.01631579164572,135.83763706612282 155.00077446472253,136.9888586225508 C 155.0612563200803,138.10860637035594 155.93142718932214,138.89297105153113 155.99795237295288,140.01021638736387 C 156.08385603302085,141.11943465498013 156.95896472499953,141.90175346082455 157.0086228136119,143.0259851106528 C 157.85859242001266,143.81871687999907 158.0204559768504,144.89647150628508 158.02220115739183,146.0405493364089 C 158.88186391707143,146.82926606979808 159.0159880038374,147.91851076154967 159.03445499210403,149.0556621920714 C 159.9172259288894,149.8348072051047 159.98768440200382,150.95042305747515 160.7952198245304,151.76073164088672 C 161.03902579679908,152.80454460810407 160.98528006663682,153.97160752597557 161.8542510471743,154.75646866804698 C 161.97549973438345,155.85104652490364 162.71144689056047,156.6910079391439 163.05718463456435,157.69259938407177 C 162.95353662817638,158.88033250154942 163.74690989559457,159.69650724167826 164.05224195766561,160.71483526806261 C 163.95588283506788,161.89954923101325 164.79737410012865,162.69579284397508 164.96958309903312,163.7692622484373 C 165.67383346730514,164.6223529029032 165.9879781615135,165.63703061519118 166.5273556885906,166.55841384696933 C 167.08437014240093,167.47249158127636 166.9152223741375,168.68735569610527 167.61325337290424,169.54302189678705 C 167.99022980268887,170.53167559047975 168.470767942518,171.47742294838352 169.0133084778517,172.39751741226735 C 169.35578946922183,173.40036228832344 170.02686733714575,174.26742384671604 170.24507536251443,175.32080081679726 C 171.0326612566549,176.14140797504834 171.10770595906277,177.2453781632945 172.02326974711968,178.0223636511998 C 172.80995573607296,178.9000161506564 173.90073827922978,179.00615852309434 175.0504579879237,178.99422068940265 C 176.16601712600192,179.11889598788318 176.95351103176714,179.99304648947586 177.71665207210907,179.24838758218965 C 178.78854490208204,178.95805145848374 179.95109208838653,179.01586992654916 180.79668401073528,178.29058384298528 C 181.53449493044022,177.31081204337292 182.52655588962276,176.94102767813607 183.72680906917353,177.07508795016986 C 184.57670032823458,176.36306635857983 185.56623011977362,175.98822824141223 186.5668316064894,175.64009621267903 C 187.27131853566368,174.57708646076586 188.16992798356443,173.9827277583018 189.2757519557035,173.888629666526 C 190.03114175036723,172.94850853402855 190.80665486354295,172.05696941490723 191.93633829443735,172.0204730827619 C 192.73366581753808,171.1815986079837 193.81456238226463,171.0273203600264 194.65661709762784,170.29642687975394 C 195.67693088720836,169.99588887415612 196.64010704448066,169.55740842168566 197.33627649472038,168.4743167558611 C 198.28432387678922,167.99931220911722 199.32177190569354,167.74013991644952 200.14597585094725,166.96615086493665 C 201.26425595279093,166.9021244590337 202.02149051634623,165.96645701796078 202.8035325589838,165.09068012933636 C 203.90426226960653,164.98428333092295 205.04465592399322,164.97364376348153 205.8240128023548,164.0913843148449 C 206.93707775736453,164.01476743072598 207.751053196893,163.21608458196826 208.78898203965377,162.95807307663367 C 209.95959424686987,163.0203875492685 210.74608770156902,162.15535732001487 211.83692186380657,162.0250705544828 C 212.68190840741792,161.3012551337862 213.676614797072,160.93889539596256 214.86908291685472,161.05397470913366 C 215.67245810544142,160.22970059078787 216.73266758976663,160.0254793124965 217.61045087212713,159.38084222328973 C 218.576290591625,158.94879217887424 219.73959220658807,158.99345732054252 220.90151565265626,159.0347952681738 C 221.7124160987815,158.2286887286379 222.7514055750753,157.9732378191636 223.90491062708102,157.9942519656758 C 225.04251883948027,157.97688774641134 225.8220047022144,157.0949396935982 226.93396965377144,157.01566716622028 C 227.74575228169383,156.21169040198095 228.79163673929207,155.9728854497752 229.94837188023735,156.00169772098215 C 231.0927518074556,156.00068186816173 232.2368894951443,155.99908118762363 233.3836079934381,156.00371120245967 C 234.51982206481318,155.98298094359717 235.69868573977314,156.06521736012542 236.570306726399,155.4056967040498 C 237.52310463311764,154.9421797817539 238.696416289829,155.01095036040851 239.8360215973587,154.99858461399373 C 240.9814929792421,155.00000234418127 242.1267454347947,154.99894268812398 243.2670727823976,155.00958894361477 C 244.43828662868918,154.94588120592115 245.40567519228344,155.37417288319944 246.26506472088076,156.06322292035418 C 247.44328642948304,155.98253636881694 248.5792306837412,156.00391803440274 249.72595389270816,155.99927664148643 C 250.8703967161836,156.0001406608136 252.01524091794823,156.00003565530767 253.16069801064847,155.99845100120717 C 254.30005710739104,156.01158821183077 255.47508786559007,155.93860641345697 256.41840991740435,156.42501891659677 C 257.3164501339458,157.0207514405684 258.3567446063987,157.27305181061774 259.1777319560592,158.0548064108352 C 260.347995369285,157.99333400138738 261.51290738271416,157.94478101387455 262.45631499045504,158.4309869668754 C 263.3340093410304,159.0758387560102 264.53473510724825,158.94082372230807 265.51188446013595,159.3455698882643 C 266.2342999816082,160.3652979565052 267.11235845233404,161.009270649152 268.20530518770937,161.1344573705767 C 268.99272198231546,161.99725833296648 270.12142505478545,162.03612240659075 270.9133325727297,162.88808385241558 C 271.7199510520341,163.7045029468861 272.48045805832606,164.63237570213585 273.471104122552,165.00426856283013 C 274.4868067518401,165.31713576561526 275.2331181002775,166.27589113986653 276.0577139241285,167.05287232729515 C 276.8715929797942,167.86088609009576 277.64220121143615,168.68956118366282 278.59547363920757,169.4377747166688 C 279.0072155363997,170.41258165937603 279.28192507279795,171.44347369788207 280.2193643852355,172.2000183854788 C 281.0173325708947,173.0142817203629 281.9097629319543,173.7894250985894 281.98795511781464,174.90183842149986 C 282.6423766878412,175.77556865846574 283.6969331495697,176.48355791271092 283.97991788016486,177.51114245893396 C 284.4241171570483,178.47194981214918 285.08436001017236,179.34326897174293 284.9148366586973,180.55828855125256 C 285.49778256140166,181.46162515954708 286.0120303212184,182.39341747059868 286.3323571466385,183.40553446262186 C 287.0666931009905,184.24616325851457 286.9773143106025,185.42798587319956 287.02177946903726,186.55436850904175 C 286.93588922113673,187.7347461221166 287.6258000621262,188.59377640246794 288.0541073656992,189.5611664159871 C 287.9903811770665,190.73236337510312 288.00111500495944,191.872717985565 288.0000349145389,193.01796608117735 C 287.99993554843775,194.16280794684232 288.00002374559676,195.30757212716688 287.99999358347213,196.45238529912987 C 288.0000015244442,197.59718284625956 287.9999993274138,198.74198400275245 288.00000097888596,199.88678517217852 C 288.00000128474966,201.03158602671056 287.9999689713304,202.17637335238587 288.0002201752378,203.32127810994658 C 287.99886454042644,204.465517295808 288.00475282338635,205.61275700981878 287.9841780209559,206.74903535516248 C 288.0323794248342,207.91380173788735 287.21934844717066,208.7218339878295 286.9710603631339,209.76379040356383 C 287.0019359178891,210.92138018460798 286.9982877474192,212.06466977044013 287.02880449342183,213.22211092803263 C 286.77820861148643,214.26311142257882 285.9823213723071,215.0782448415097 285.89740129158747,216.18787049987648 C 285.0169769086753,216.96798748734898 285.00635621454757,218.10838895931806 285.0276572404082,219.2620128406406 C 284.7668288953125,220.2987749101693 283.9559289701628,221.10768987096364 284.0556170148521,222.29378271859903 C 283.7206711437203,223.29984430363407 282.9780334764774,224.13703441745162 282.84938934894507,225.22854898262673 C 281.9939233333479,226.0190040643357 281.9356315409205,227.13965952085601 281.05227838796014,227.91856337205348 C 281.0075375986697,229.0448318378567 280.9310657520881,230.1579568693816 280.0784036877682,230.9495733857379 C 279.1210441198015,231.69782277613712 279.0392771905904,232.80875451262293 278.28757270619474,233.6421890278082 C 278.02293100913965,234.67737155523724 277.4041392370033,235.5658603184521 277.0045424249792,236.54514260694933 C 276.5276232848276,237.49239693846192 275.96563683246933,238.4044152355438 275.75499248574107,239.46196419781037 C 274.71609039295987,240.17643756852124 273.99585159578385,241.02290559810237 273.9533113774361,242.15008557023503 C 273.0966573523151,242.94004856228702 272.1373312248895,243.68748337708726 272.01760972890855,244.78269381726304 C 271.4633365371391,245.69790705149092 270.4033751247755,246.40365736641644 269.9947185741765,247.37918698832434 C 269.74049034735367,248.41868291635492 268.80545521425756,249.17617939044985 268.01013895246007,249.9915493159561 C 267.1074397193293,250.7624397583682 267.01401544041937,251.86854286250744 266.3871594553862,252.75369131937066 C 265.33501246403563,253.46267847346184 265.00197003248996,254.46952848898854 264.682492473503,255.48199725870091 C 263.7295436556543,256.23207364161925 262.948812614553,257.05348496334807 262.13443894074646,257.8609610503364 C 261.3585690282071,258.68438591744416 260.40930415754013,259.43598824124814 259.99106849916814,260.4075500668012 C 259.7276367770398,261.443233782255 258.7708766414763,262.19173146568534 257.98847396441937,263.0124503731299 C 257.1830420228951,263.82363024690073 256.35845266444045,264.6268748587589 255.5876369667044,265.45239325018525 C 254.68960121519234,266.22521536993173 253.98684851545758,267.0789263782259 253.9229146281828,268.1972448025401 C 253.03411372781352,268.9738921228764 252.20516391986888,269.7753305774178 251.4158381236408,270.59318183500784 C 250.59948406073383,271.399837617972 249.78742265765956,272.2082714788578 248.9819541541809,273.019436208171 C 248.19505899277814,273.83829426766994 247.241467969887,274.5881046405556 247.01265254619273,275.638126896284 C 246.55509924667322,276.5934028217088 245.60831418222443,277.34603231463245 244.83737168949534,278.1714981863457 C 244.02190920010995,278.9785232709623 243.21114063140817,279.78749263829707 242.40310696385478,280.59759485812117 C 241.59294557089788,281.4068156757283 240.78366065860297,282.2163997156138 239.9741180226175,283.02587677560126 C 239.16458953485375,283.835359341046 238.35529882112428,284.6449439287364 237.54508246612147,285.45413100750125 C 236.73736981414478,286.2643935976823 235.9255162951914,287.07287731650246 235.11228465304987,287.8807689982536 C 234.33929785957255,288.70594962054537 233.38446707871128,289.45301117905524 232.99592044364124,290.44241656795026 C 232.6957087985855,291.438380530116 231.77164498583093,292.26485427346836 230.95841820968027,293.0087621426541 C 229.8325033371791,293.0597464018632 229.05042264893228,293.93306076028057 228.25274453691696,294.77004499473355 C 227.4331596523683,295.5561625581027 226.62802887599136,296.3754977336967 225.81697375803208,297.18202619249524 C 225.0078723944367,297.99207491874085 224.20031817679248,298.8024662604046 223.38011436740598,299.60727449116257 C 222.60647779020695,300.43223729746626 221.71429278660045,301.2061455456044 220.99077985627866,302.05263592927207 C 220.93002435092833,303.1650750745872 220.05252127998045,303.9458555591228 219.29965217233092,304.8784178025032 C 218.12422343704458,304.94653768154825 218.00503902880277,305.94905615724747 217.27519743299894,306.785507413814 C 216.43582723703204,307.68686001101315 215.44542084666432,307.99746538356004 214.45412457442362,308.3821268204143 C 213.7075586249517,309.33789062300133 212.88231000849896,310.11077437249105 212.07439690979248,310.92395060986314 C 211.26593440166138,311.7358498693612 210.45566312557978,312.54354505709676 209.6464774141192,313.35376339410965 C 208.83689485935392,314.1630593587019 208.02741140821826,314.97258566722473 207.21791817977962,315.78208925048017 C 206.40841848116165,316.59157779616686 205.59892361155013,317.4010775625955 204.78942687072941,318.2105729876249 C 203.97993056243646,319.020069408014 203.17043397725575,319.8295651671675 202.36093920545096,320.63906530597046 C 201.551437240347,321.4485480767168 200.74195471889772,322.25807778944824 199.9324407319213,323.0675315374179 C 199.1229126444053,323.87695124372203 198.31370758262392,324.68715080313945 197.5030671419865,325.4938850514473 C 196.6966663551874,326.31085472955544 195.88214170092527,327.1082116566543 195.07027544521662,327.91198652559507 C 194.3122178962435,328.84566710411076 193.22323116154027,328.9804139542517 192.31862577141212,329.56029674711453 C 191.55762235269378,330.48686536693833 190.7317808562313,331.25690102011384 189.92596813837278,332.07529042223285 C 189.11630885701908,332.88439339859343 188.3064432971304,333.69299837451723 187.49719196772392,334.5030862340014 C 186.68755276650035,335.3122376880845 185.8781786005832,336.1220289939989 185.06871408325037,336.9316021722999 C 184.25824417310642,337.7387481176408 183.4531348554129,338.558835677978 182.63048462689378,339.3365757335037 C 181.8468537398045,340.2085168123042 181.02713201570967,340.9933269029285 179.89809953569974,341.0313947716344 C 179.09929458813122,341.8667024278297 178.30782045423098,342.71970823380616 177.48695265676363,343.501751458551 C 176.68170800110317,344.32151228413295 175.87111324288773,345.12835681956653 175.06174298140155,345.93815755161097 C 174.2523272000562,346.74784838899393 173.44269578002707,347.55701862854215 172.63347691561677,348.3671848654613 C 171.82345970036448,349.1754237129476 171.01421149396052,349.9855191120279 170.20771772245197,350.8022643051982 C 169.38191005607726,351.57238163137635 168.62656425436634,352.51260894709026 167.6903923886327,353.01628352603905 C 166.6247080448454,353.2072873260808 165.87273912477158,354.155667151366 165.05618340495042,354.94812065207685 C 164.24367585938884,355.75034734262334 163.43674700188527,356.56604199360174 162.62617579122616,357.3729438444688 C 161.81699032139613,358.18318974827275 161.00744191571715,358.99256093780207 160.1979350081865,359.8020369943446 C 159.3884642155527,360.6115658456801 158.5789136570516,361.4210294424272 157.7695322678958,362.2305766549393 C 156.9599173366816,363.0400232181776 156.15004502735061,363.8493638190149 155.34327896912131,364.6599911727636 C 154.5236846647123,365.465304755601 153.74004979992938,366.28551329080307 152.89357671785135,367.07969336366995 C 152.04209820625567,367.87180012387995 152.00017627760937,368.9992362001551 151.2308012833088,369.825351350458 C 150.3816277884238,370.61841287962676 149.50369661816163,371.3995625895742 148.93645006915006,372.3094020832885 C 149.0743185677167,373.5113097927365 148.56309970072255,374.4443567122055 147.93856190791826,375.33046539572996 C 147.99972927500977,376.50060245627253 148.0624475569826,377.6713819267932 147.42980730425964,378.5541344615309 C 146.93960166719964,379.49588534582756 147.01195879690295,380.67065735780375 146.99824577788206,381.8097779468628 C 147.00009661106873,382.95534529458905 147.00004510709363,384.1001246684627 146.999978026831,385.2448975904268 C 147.00000659417043,386.3897101309271 146.99999842573044,387.5345074549549 147.00000030497463,388.67930894093 C 146.9999999572147,389.82410950425657 147.00000000163837,390.9689102303769 146.99999999943867,392.1137109384549 C 147.00000001684725,393.2585116371685 146.99999989948526,394.4033123939396 147.00000045951506,395.54811286931124 C 146.99999829320018,396.69291447417345 147.00000462625874,397.8377125584862 146.99999755581814,398.98251619463326 C 146.999919452632,400.12734925305523 147.0006931798558,401.2718294771739 146.99610444481573,402.41853087186206 C 147.0174464353048,403.5544915728995 146.93660227936115,404.7327785132459 147.62409065381712,405.5928151903852 C 148.05399734721584,406.559533953391 147.99154608391672,407.73023002544176 147.99818030288017,408.8722117254785 C 147.99821171850095,410.01701860135125 148.08201973258707,411.12850081020866 148.95708434654267,411.91234619508793 C 149.00549997715166,413.0380641039252 149.76179060191657,413.9399426414749 150.92406244171715,413.9777067752093 C 151.7299238519295,414.78058161466913 152.7753959499106,415.02985007791654 153.93363948207408,414.9961303812677 C 155.08079503040722,414.99051302734273 156.17348426916487,415.11635919062786 156.96057046964134,415.9799432779792 C 158.10057566284905,415.9915200125527 159.24011909136829,416.00421147962464 160.38719105261742,415.9987285022258 C 161.53133878358275,416.0003048367569 162.67629035244784,415.9999406461157 163.82106298051687,416.0000084320197 C 164.96586733510543,415.99999962771847 166.11066799210613,415.9999997496728 167.2554685484272,416.00000011467523 C 168.40026931741812,415.99999996627616 169.5450700076804,416.0000000079348 170.68987071911164,415.9999999984893 C 171.83467142591954,416.0000000002052 172.97947213352558,415.99999999999426 174.12427284104493,415.99999999999267 C 175.2690735485593,416.0000000000033 176.41387425607957,415.99999999999915 177.5586749635977,416.0000000000001 C 178.70347567111654,415.9999999999999 179.8482763786352,416.0000000000001 180.99307708615376,415.99999999999994 C 182.1378777936725,415.99999999999994 183.2826785011912,416.0000000000003 184.42747920870988,416.0 C 185.5722799162285,416.0 186.7170806237472,416.00000000000006 187.8618813312658,415.99999999999994 C 189.00668203878445,415.99999999999994 190.15148274630323,416.0000000000002 191.29628345382184,416.0000000000001 C 192.44108416134048,416.0 193.5858848688591,415.99999999999994 194.73068557637785,416.0 C 195.87548628389652,416.0 197.0202869914152,416.00000000000006 198.16508769893386,416.0 C 199.30988840645256,416.0 200.45468911397126,416.00000000000017 201.59948982148984,416.00000000000006 C 202.74429052900854,416.0 203.88909123652715,416.00000000000006 205.0338919440457,415.9999999999999 C 206.17869265156452,416.00000000000006 207.3234933590832,416.0000000000002 208.4682940666018,416.0 C 209.61309477412047,416.00000000000006 210.7578954816391,416.00000000000006 211.90269618915775,415.99999999999994 C 213.04749689667642,416.0 214.1922976041951,416.0 215.3370983117138,415.99999999999994 C 216.48189901923251,416.00000000000006 217.6266997267512,416.0000000000001 218.77150043426988,416.00000000000006 C 219.91630114178847,416.0 221.06110184930714,416.00000000000006 222.20590255682578,416.0 C 223.35070326434445,415.9999999999999 224.4955039718632,416.0000000000001 225.64030467938179,416.0 C 226.78510538690048,416.00000000000006 227.9299060944191,416.0 229.0747068019377,415.99999999999983 C 230.21950750945643,416.0000000000001 231.36430821697505,416.00000000000006 232.5091089244937,415.99999999999983 C 233.65390963201247,416.0000000000001 234.79871033953114,416.0000000000001 235.94351104704978,416.00000000000017 C 237.08831175456845,416.0 238.2331124620872,416.00000000000006 239.3779131696058,416.0000000000001 C 240.52271387712443,416.0 241.66751458464304,415.99999999999994 242.81231529216163,415.99999999999994 C 243.95711599968035,416.00000000000006 245.10191670719914,416.0000000000001 246.24671741471772,415.9999999999999 C 247.39151812223645,415.99999999999994 248.53631882975512,416.0 249.6811195372738,415.99999999999994 C 250.8259202447924,416.0 251.9707209523113,416.00000000000017 253.11552165982985,415.9999999999999 C 254.26032236734844,416.0 255.40512307486708,416.0 256.5499237823857,415.9999999999999 C 257.69472448990444,416.0 258.83952519742326,416.00000000000017 259.9843259049418,415.9999999999999 C 261.12912661246037,415.99999999999994 262.27392731997907,415.9999999999999 263.41872802749776,415.99999999999994 C 264.5635287350164,416.0 265.70832944253533,416.0000000000002 266.8531301500538,416.0 C 267.9979308575723,415.99999999999994 269.142731565091,416.00000000000006 270.28753227260967,416.00000000000006 C 271.4323329801285,416.0000000000002 272.5771336876471,416.0 273.72193439516565,415.99999999999994 C 274.8667351026843,415.9999999999999 276.011535810203,416.0 277.1563365177216,415.99999999999994 C 278.3011372252404,416.0000000000001 279.4459379327591,416.0 280.59073864027766,415.99999999999994 C 281.73553934779636,415.99999999999994 282.880340055315,415.99999999999994 284.0251407628336,415.99999999999994 C 285.1699414703524,416.00000000000017 286.3147421778711,416.00000000000006 287.4595428853897,416.0 C 288.6043435929085,416.00000000000006 289.7491443004271,416.0 290.8939450079457,416.0 C 292.0387457154644,416.0000000000001 293.1835464229832,416.0000000000001 294.32834713050175,416.0 C 295.47314783802045,416.0 296.61794854553904,415.99999999999994 297.7627492530577,416.0 C 298.9075499605765,416.00000000000006 300.0523506680951,415.99999999999994 301.1971513756137,416.0 C 302.34195208313236,416.0 303.486752790651,416.0 304.63155349816964,415.99999999999994 C 305.7763542056885,416.00000000000006 306.9211549132071,415.99999999999994 308.06595562072573,416.0000000000001 C 309.2107563282444,416.0 310.355557035763,415.99999999999994 311.5003577432816,416.0 C 312.6451584508004,416.0000000000001 313.789959158319,416.0 314.93475986583763,416.0 C 316.0795605733564,415.99999999999994 317.224361280875,415.99999999999994 318.36916198839356,415.99999999999994 C 319.5139626959124,416.0000000000002 320.65876340343107,415.99999999999994 321.80356411094965,415.99999999999994 C 322.9483648184683,416.00000000000006 324.09316552598693,416.0 325.2379662335056,416.0 C 326.3827669410244,416.00000000000017 327.5275676485431,416.00000000000006 328.6723683560615,415.9999999999999 C 329.81716906358025,415.9999999999999 330.96196977109906,415.99999999999994 332.1067704786177,416.0000000000001 C 333.2515711861365,416.00000000000006 334.3963718936551,415.9999999999999 335.54117260117374,415.99999999999994 C 336.6859733086924,415.99999999999994 337.830774016211,416.00000000000006 338.9755747237296,415.9999999999999 C 340.1203754312473,415.99999999999727 341.2651761387774,416.0000000000249 342.4099768462269,415.9999999998583 C 343.55477755406974,416.00000000064074 344.69957826034783,415.99999999764555 345.8443789714259,416.00000000624044 C 346.98917967548084,415.99999999787616 348.133980334879,415.9999998816786 349.27878150005415,416.0000009867935 C 350.42357953097303,415.9999945235372 351.56839257041804,416.00002430176664 352.71314704363925,415.9999126585838 C 353.858075120486,416.0002202206739 355.0027933515291,416.00002106254374 356.14553152960406,415.9950406180606 C 357.3085455969452,416.0390209004859 358.3238140771342,415.72624227668285 359.1487149972099,414.9540589231278 C 360.3151192593988,415.0056669179246 361.4794913994653,415.05587364277176 362.43353697143857,414.5787173864582 C 363.3052473650781,413.9622404762975 364.4703353695238,413.8195503094085 365.0060480185832,412.7803082688109 C 365.1920511927159,411.7331328867931 366.02914151510737,410.9280377936824 365.9840581437734,409.76532741286195 C 366.0049488361506,408.6288256737757 365.9987909796977,407.481578716253 366.0002404938513,406.33735383800706 C 365.99996441808855,405.19244345752963 366.0000020623264,404.0476577044384 366.0000008776698,402.90285652630706 C 365.99999956434476,401.7580552970612 366.00000013150856,400.6132548148522 365.999999968475,399.46845404256726 C 366.0000000061374,398.32365335001015 365.9999999991284,397.17885263970726 366.0000000000385,396.0340519325501 C 366.0000000000258,394.8892512250264 365.9999999999881,393.74445051749274 366.0000000000037,392.59964980998035 C 365.9999999999991,391.4548491024597 366.0000000000001,390.3100483949415 365.99999999999994,389.1652476874228 C 366.0,388.0204469799042 365.99999999999994,386.87564627238555 366.0000000000001,385.73084556486697 C 366.00000000000006,384.5860448573482 365.9999999999999,383.44124414982946 365.9999999999999,382.296443442311 C 366.0000000000001,381.1516427347921 365.99999999999994,380.00684202727365 365.99999999999676,378.86204131975654 C 366.0000000000279,377.71724061222454 365.9999999998465,376.5724399047818 366.000000000677,375.4276391969155 C 365.99999999758285,374.2828384906922 366.0000000059988,373.13803777965006 366.0000000014321,371.99323707404346 C 365.99999985795745,370.8484364265973 366.0000011001553,369.70363519897097 365.9999940847264,368.5588374288097 C 366.0000256214159,367.4140235168918 365.9999106609671,366.2692709432666 366.00020900677373,365.12434531847975 C 366.0001659167653,363.9795626527299 365.9941172710841,362.837294510699 366.04333884949824,361.67188474830834 C 365.700287505966,360.6705703250123 364.968427317203,359.8259706725677 364.8721197934251,358.7348802669697 C 363.9529179504513,357.9511514099559 363.17394681319064,357.06667705729274 362.05778122605966,357.0160423326494 C 361.2486849834163,356.20218251033054 360.19912361964265,355.9745776602144 359.04310308878473,356.0013744938692 C 357.89860027708215,356.0006630154559 356.75421164824957,355.9996788257677 355.6092356540913,356.0000974882038 C 354.4644879786756,355.9999707466174 353.3196632541478,356.0000284326106 352.1749026254538,355.9999317285084 C 351.03004991531503,356.000057266939 349.884859125265,356.0009990095334 348.7442743399555,355.9908208732639 C 347.5737713464552,356.0528716805412 346.6018270093108,355.6355594868818 345.7461176075337,354.9376313357827 C 344.56820816806095,355.01756288550087 343.4323377549016,354.9960032477426 342.28557932389816,355.0007296103311 C 341.1411182199744,354.99990973472603 339.99628034390935,354.99999946753525 338.8514776135882,355.00000435101225 C 337.7066794057166,354.9999983163306 336.56187780883175,355.0000004634508 335.41707733615374,354.9999998964947 C 334.27227657813046,355.0000000184234 333.12747587913066,354.99999999785757 331.98267517075135,354.99999999993565 C 330.8378744631549,355.0000000001228 329.693073755706,354.9999999999549 328.54827304816325,355.0000000000123 C 327.40347234065075,354.9999999999974 326.25867163313086,355.0000000000005 325.11387092561245,354.99999999999994 C 323.96907021809375,355.00000000000006 322.8242695105753,355.00000000000006 321.6794688030564,355.0 C 320.53466809553765,354.99999999999994 319.38986738801907,354.99999999999994 318.2450666805005,355.0 C 317.10026597298173,355.0 315.95546526546326,355.0000000000001 314.8106645579444,355.0 C 313.66586385042575,354.99999999999994 312.52106314290717,355.0 311.3762624353885,354.99999999999994 C 310.2314617278698,355.0 309.08666102035136,355.00000000000006 307.9418603128325,355.0000000000001 C 306.7970596053138,355.0 305.6522588977951,355.0 304.50745819027645,354.99999999999994 C 303.3626574827579,355.0 302.2178567752393,355.0000000000001 301.0730560677205,354.99999999999994 C 299.9282553602019,354.99999999999994 298.78345465268325,355.0 297.6386539451646,355.0 C 296.493853237646,355.00000000000006 295.3490525301273,355.00000000000006 294.2042518226085,355.00000000000006 C 293.05945111508987,355.0 291.9146504075713,355.0 290.7698497000526,355.0 C 289.6250489925339,355.00000000000006 288.4802482850152,355.0000000000001 287.33544757749644,355.00000000000006 C 286.1906468699777,354.99999999999994 285.0458461624592,355.0 283.9010454549405,354.99999999999983 C 282.7562447474212,355.0000000000017 281.6114440399072,354.9999999999904 280.4666433323661,355.0000000000458 C 279.3218426249352,354.99999999982595 278.1770419171502,355.00000000049374 277.03224121000505,354.9999999995573 C 275.88744050513645,354.99999999291737 274.7426397685017,355.00000006587817 273.59783923936305,354.9999996188786 C 272.4530376844798,355.0000017422746 271.3082402591867,354.99999351740564 270.16342992653176,355.0000176368584 C 269.01864019382236,354.9999901352851 267.873956285653,354.9996974499336 266.7279899304326,355.0026184251699 C 265.59011930437526,354.98525246090315 264.4130343473556,355.06615297070925 263.49799204432543,354.49511692214685 C 262.59808724158563,353.949242239237 261.3838353754447,353.95453376679563 260.50127944341045,354.47996617558135 C 259.546609523721,355.1322993154008 258.55287781833505,354.54458460085726 257.7062697892898,353.9741368467575 C 256.4810673420722,353.7804771948384 256.0769877195977,352.8433646340194 256.97392774111626,352.0520403742777 C 257.013667300062,350.91531677706837 257.8085985482614,350.0482612929702 258.9625160028251,350.0082131346849 C 259.7973299664477,349.2713320037576 260.5802634769389,348.3856079266924 261.4013061482212,347.60935316586944 C 262.20781558825274,346.79101928078063 263.01748593901027,345.9822464325458 263.82449540526784,345.1667684254738 C 264.6499012523159,344.3956306525761 265.4028647188412,343.4496769293972 266.3559714969405,342.9868792493116 C 267.4078280973481,342.7624939209286 268.15779815172453,341.8092878314138 268.97642890973617,341.0218440034279 C 269.78793605760717,340.2172021907926 270.5951592873442,339.40221804374306 271.4056808096016,338.5951967109151 C 272.2148623690476,337.78494040882157 273.02441902403746,336.9755896710811 273.8339186938389,336.1661013583785 C 274.6434056238905,335.35658228907664 275.45290680201634,334.5470976178055 276.2624015234049,333.73759735852974 C 277.0718982297453,332.928101891371 277.88139455847653,332.11860551257905 278.69089086518824,331.3091090806271 C 279.50038723083475,330.4996127909571 280.3098835660607,329.69011642784517 281.1193799115168,328.8806200894307 C 281.92887625469405,328.07112374551474 282.7383725979578,327.2616274018074 283.5478689414509,326.4521310586543 C 284.3573652848041,325.64263471516347 285.1668616282093,324.83313837179713 285.976357971601,324.0236420283993 C 286.7858543149928,323.21414568500444 287.5953506583942,322.40464934161486 288.40484700176336,321.5951529982106 C 289.21434334521126,320.78565665483944 290.0238396885564,319.976160311426 290.83333603173435,319.1666639679428 C 291.6428323765403,318.3571676251341 292.45232871488207,317.5476712796481 293.2618250707835,316.7381749414355 C 294.07132139783954,315.9286785912746 294.88081771414903,315.1191822366624 295.6903143162784,314.30968600044054 C 296.4998096345742,313.50018923243755 297.30930877196084,312.6906940463539 298.1188005060159,311.8811957937097 C 298.92829502486825,311.07169869456635 299.7378368913379,310.26222120744836 300.54712967859706,309.45264054834314 C 301.35723298787497,308.6433956184507 302.1655468412217,307.8334094716423 302.975464068848,307.0240874642062 C 303.79252285312333,306.2177235863904 304.5625188553655,305.39186566597346 305.5007066782239,304.635675078736 C 306.01709422192704,303.70476909525973 306.19816514883325,302.63497042141717 307.1446308174195,301.88220863014755 C 307.93878444417555,301.066357125439 308.7402760001721,300.25354509054154 309.5559842026763,299.4466217834391 C 310.3634688884572,298.6362921841795 311.1724846266476,297.8265967675926 311.9824049417443,297.01727603902845 C 312.79922872725643,296.2108148215378 313.56931739615175,295.3849952849056 314.5089562990876,294.6294057547163 C 315.01647963971857,293.69482809810785 315.2048199427191,292.62804049843345 316.15168212814507,291.8754429498165 C 316.94451075030963,291.05904261023596 317.7550038716777,290.24995914579813 318.53115518970304,289.42665084065925 C 319.45921037993037,288.66626317956343 320.0191324088372,287.75338977028935 320.16851109233056,286.6704637394031 C 321.1063006635274,285.91410819092624 321.90599058233636,285.10054989347145 322.71413687051535,284.29049433889793 C 323.49149700523594,283.4676867420287 324.40961584499837,282.70318330980984 325.01916737342935,281.81086711233263 C 325.13834299864595,280.71543056508295 326.05738817795566,279.95131083526803 326.84903351603236,279.13442036337017 C 327.7816835410549,278.3759359451634 327.99009601298934,277.31746251008764 328.4516995472509,276.3638642468994 C 329.51697206915145,275.66031386557546 330.01224001196,274.72065985697674 330.19376151484084,273.6510478178137 C 331.12362860991584,272.8914106722796 331.9142005850471,272.07407559889236 332.83769879167556,271.3118003733866 C 332.985554002067,270.2282432992794 333.52702342774177,269.3077265714856 334.58712310284704,268.60203352686295 C 335.0109360141421,267.63278187511156 335.2253431873239,266.5767915265949 336.23725038073565,265.85113650245023 C 336.995592063056,265.0204512046614 337.0302860245827,263.89002120653976 337.85663200945976,263.0875042131697 C 338.84760142891855,262.3531764790879 338.95830153776467,261.25422925800945 339.6576386133141,260.3991034518537 C 339.9858556414529,259.39025468879186 340.5276857484029,258.46988736007404 341.02836214265113,257.532473605413 C 341.28542410026023,256.49415144710593 342.346114308601,255.78870300935841 343.00724346637327,254.91775096546945 C 343.1170466220497,253.81843221422324 343.98757298080716,253.0342153309053 344.0401698180979,251.91120094673042 C 344.92885776007915,251.13450683749778 344.99537215004597,250.01725729239638 345.82139715870915,249.21460734632532 C 346.0318536214594,248.15698055996688 346.0004596367521,246.99917603820552 346.87907260623854,246.21830873872506 C 346.974587386839,245.11307154873816 347.77554571162636,244.30003864224207 347.97263513889226,243.23687504849732 C 348.66796316228596,242.3800886385664 348.9887376614324,241.36815707905757 349.5235672378087,240.44489003563237 C 350.08309130377995,239.53185178471298 349.92102242300723,238.3199199487397 350.57233013965134,237.44489973073325 C 351.0778175302735,236.50947875601884 350.91746169552295,235.29825648694091 351.6257197946881,234.44682588975706 C 351.988552709094,233.45231549626067 352.48298919431835,232.51231708665415 353.01504305523486,231.58790030424 C 353.3487712720118,230.58133435025687 354.0649949997196,229.73320322444835 353.9961627092867,228.55989124870314 C 353.9398416256271,227.39176158448498 354.50913587477675,226.48277027594528 355.0807939129382,225.5747580808726 C 354.92020559174784,224.36343951275816 355.5351719241577,223.47336620052664 356.0789077117117,222.55378823056043 C 355.91982538732015,221.3430934667447 356.55976684247804,220.46336518907736 357.06028179251047,219.52588456203262 C 356.9888697881115,218.35150403377557 356.99797545130076,217.21047501544433 357.0060458245597,216.06901716598293 C 357.03458298927706,214.93603693912192 357.90443862839624,214.151542234633 358.00398794967776,213.04797620611424 C 357.99058071082897,211.89762203843048 358.12851627656545,210.8099561129735 358.98931822303064,210.02171124619787 C 358.9899907176411,208.87718909506742 359.00438639376495,207.73835127183926 358.99879882937597,206.59123611936755 C 358.9999629390822,205.44691760188923 359.00117402237174,204.302618541448 358.9967287809094,203.15597655476097 C 359.00127866962885,202.01306047272254 359.0625487188715,200.8936386487797 359.9347529999864,200.11011677961784 C 359.9992118245438,198.9920157960187 360.0032081536584,197.8488705361776 359.99877710117937,196.70223344478498 C 360.00032912243114,195.5580811406469 359.999950009809,194.41309854834125 359.9999283097584,193.26837930937322 C 360.00019612069997,192.12345554834923 360.0001648413303,190.9786689910892 359.9943736212117,189.83626720747102 C 360.04132237857,188.6720195849475 359.71270204557084,187.66333791612303 358.94904636421353,186.83485373543124 C 359.0174965901061,185.6617000180247 358.9954796047992,184.5260190437709 359.00087075637924,183.37898524831377 C 359.00013961210374,182.23448739063704 358.9994438564462,181.08997487455287 358.99833145795606,179.94563493757502 C 359.0257511571675,178.78947661876668 358.79900790636214,177.7385960409083 357.97421614078223,176.9354352688263 C 358.0170868882232,175.77287691628862 357.9823239116785,174.6424755051233 358.0635020951423,173.46404969304518 C 357.54551285910094,172.53380715225822 356.9328614842633,171.64277495320368 357.0204890726414,170.46167771014075 C 356.97935488341557,169.33391534167677 357.0507125999776,168.1595573001781 356.28042157875484,167.33382158062417 C 355.9641218819278,166.32003649730572 355.99326045739326,165.16316619664113 356.00565332420416,164.0132321956126 C 355.16525824002906,163.2165345297109 354.9711435785472,162.15213874763361 354.99807488733614,160.99618272676204 C 354.1482875048084,160.20337547821993 353.97459090261617,159.13052225906745 353.98844083858876,157.97998472023085 C 353.10684965528657,157.20035103730444 353.02205588404144,156.09067305984044 352.20822757949514,155.282971073508 C 352.022960045957,154.21491069104815 351.3463711537726,153.35036227882324 350.9306777885705,152.37774740095978 C 351.06602247160316,151.17688509013402 350.26739525813093,150.36288660571574 350.0264171286262,149.31790230767325 C 349.3988870098184,148.43303308616234 349.0071478348773,147.45049605781713 348.51423992236266,146.509864492663 C 347.9888705095923,145.5826789211698 347.6272068566609,144.58768420371266 346.9751348772194,143.7129805537221 C 346.73491188925203,142.66768346581338 345.9720983319247,141.83885047930187 345.83529715764905,140.75071467351668 C 344.98602275115553,139.95769494334405 344.9428097638692,138.83079364123006 344.06366818764,138.05014529783156 C 343.2567148377335,137.23959561204614 342.32312708527513,136.48149961326274 342.00299047262183,135.46930383251325 C 341.6316526851995,134.47831627278492 340.7013620887297,133.71885454721806 339.8875234516383,132.91115684084772 C 339.03937345681777,132.1176713641852 338.9977372958664,130.99011691913685 338.2257004323488,130.16510435379098 C 337.349139350838,129.38338711837397 336.57243778134256,128.5603067909034 335.75227688602234,127.75522771550472 C 334.945051037929,126.94479105963428 334.1355286499356,126.13530587185082 333.32576607019496,125.32591680630588 C 332.51641628986323,124.51637121858943 331.70688095329945,123.70686075801947 330.8973744556243,122.89741519516149 C 330.08785968446404,122.08796112041281 329.27863038367246,121.2778181057091 328.46798797128804,120.47108999521376 C 327.66180888446553,119.65358454854234 326.84617405831733,118.85890795863473 326.0374956897824,118.04743682930535 C 325.27352853803416,117.12802328798995 324.17530364286426,117.01557933441369 323.2745995451747,116.42627798749793 C 322.5667433875234,115.3714005297512 321.5785715847614,114.99326490345042 320.53889368888525,114.73947598590613 C 319.81906894667407,113.71349324676399 318.97192274344485,112.99489170560977 317.84488736251876,112.95200241320995 C 317.0561813393076,112.09231379686551 316.3123044981537,111.12439796120908 315.2029458601612,111.03883323628054 C 314.3607363716197,110.30831341157112 313.34588543885195,109.9945869029401 312.37461962850745,109.5756366006372 C 311.6781679755095,108.4932262325359 310.73837479274187,107.99829428589344 309.69558587278993,107.75201604482794 C 308.8722234029634,106.97599549192617 307.7772061989968,106.85580748246858 306.98841692754587,105.996319845154 C 305.8696478757981,105.93347386874078 305.09366185701174,105.04307644520138 303.9711045945692,104.98937601842407 C 303.18866121984286,104.11456803117196 302.08423553651124,104.01709410019835 301.2636592492952,103.23434710745133 C 300.23464882837936,102.95480462714352 299.06010180111593,103.02661859570196 298.257189406698,102.2012271933978 C 297.21186775257985,101.96106351350556 296.04286025066057,102.01950388484974 295.2428984960181,101.18698900798147 C 294.19027771870435,100.96444697030185 293.025604952823,101.0124223631133 292.2320850155554,100.16435556337242 C 291.16194742640954,99.98410285038764 290.01087830066547,99.9992361506823 288.891231540974,99.93850914869049 C 288.10693434105707,99.06817669135559 286.9895297695162,99.0020365683214 285.878377147686,98.92080290350371 C 285.09339317076706,98.0521284725214 283.9690118363257,98.00283174510335 282.82615107848306,97.99814829228475 C 281.68478839642233,97.98984816459598 280.5115477089195,98.0585083499876 279.56296717636116,97.58479094238731 C 278.68757821328853,96.9343734550829 277.50861820246996,97.0168413083909 276.3722885924438,96.9963902699364 C 275.2256361157499,97.0008608361935 274.08142993547966,96.99942552044752 272.9372040233741,96.99803784156568 C 271.78040228193,97.02701090043071 270.73278332226283,96.79239340675244 269.9278225402391,95.97194724958676 C 268.7650583147335,96.01531501833871 267.62856945053466,95.99524845346805 266.48132010989093,96.00115997676768 C 265.3370947327693,95.99977100632029 264.19218717628905,96.00002896253258 263.04739667996995,96.00000431051646 C 261.9025733180532,96.000059003071 260.75805037376074,95.99938842332337 259.6114824660497,96.0036548219952 C 258.47526598507886,95.98293066584117 257.2964662653901,96.06501154212928 256.4265056883868,95.4014887715546 C 255.47176869688076,94.94263437064234 254.2987345153318,95.01079600655892 253.15899815253803,94.99856959683943 C 252.01359338399413,95.0000279291589 250.86878129805072,95.00005539910686 249.72401305272336,94.99997702844395 C 248.57920013321004,95.00000651080717 247.43440274036604,94.9999985084748 246.28960129810008,95.00000028231135 C 245.14480073088805,94.99999994358103 244.0,95.0 242.0000000000001,95.00000000000004 " fill="none" stroke="black" /></svg>