<?xml version="1.0" encoding="utf-8" ?>
<svg baseProfile="tiny" height="100%" version="1.2" width="100%" xmlns="http://www.w3.org/2000/svg" xmlns:ev="http://www.w3.org/2001/xml-events" xmlns:xlink="http://www.w3.org/1999/xlink"><defs /><path d="M 398.0000000000001,159.00000000000006 C 397.2475618293599,159.94019470871487 396.1329119923512,160.0059331000324 394.98862278867375,160.00011573035889 C 393.84656292463694,159.99968046268074 392.7048674327194,160.00012486711432 391.5629137449062,159.9999459315149 C 390.42109717400604,160.00009802542675 389.27904354041357,159.99967779937157 388.1376275402656,160.00079695662643 C 386.9954712517582,160.00012889968312 385.84598629436437,159.98176787092075 384.77812948498115,160.16047462415614 C 383.98651840975367,161.00609757533843 382.8364374838628,160.9862977513481 381.70655721802444,161.01526663482437 C 380.5342991152681,160.9419263696695 379.5797717786744,161.39423467313063 378.71536694941636,162.06411795607616 C 377.54024593014367,161.98386599903975 376.40465871592835,161.99905709034488 375.2696578347875,162.01566371491074 C 374.10566050478803,161.9622667193811 373.29493921876553,162.76175354048257 372.26535450021333,163.0328572944628 C 371.10867184706746,162.9971194909977 369.9682817305286,163.0007153503747 368.8170534203875,162.97814549576609 C 367.75881859026896,163.18008176183966 366.9630369861234,164.01563616554552 365.809243471061,163.98687335842496 C 364.67336152379914,164.00135290121196 363.53742245698174,164.01569454519338 362.35994785168583,163.92976052885948 C 361.4811770356719,164.56496125174232 360.52110183451776,165.00387582533918 359.54069137410147,165.3936967402309 C 358.68458977028234,166.08362578264283 357.47502884463466,165.92022853654885 356.55016741026856,166.44415666350784 C 355.6657476718763,167.06571968137237 354.4881042001283,166.97937798535926 353.36350405856655,167.02109421647543 C 352.1897230565473,166.94407734726605 351.3573141920275,167.6912057222241 350.3600531614417,168.04034576207914 C 349.2048937054963,168.00828528195353 348.05058776072394,167.97828536007762 347.2621070103956,168.83146558408615 C 346.17918342538974,168.97379792327243 345.3347573197096,169.69191411163874 344.3373856363034,170.04078701195414 C 343.1813112007213,170.00651757558018 342.03143007007003,169.98720009996646 341.23340291210707,170.81733325719154 C 340.18133884662683,171.0341670669448 339.0211199111437,170.98989192270082 338.22700250008637,171.82946404393098 C 337.1687955957927,172.03146772890972 336.01154939812983,171.9943694086287 335.21887003886536,172.83741329400053 C 334.1564604282443,173.02927074836487 333.002036584295,172.9989861926971 332.21073236706053,173.84534996460803 C 331.14410372201246,174.02702176883855 329.9925882643839,174.00375867887067 329.20232137681666,174.85262678613313 C 328.13214080870296,175.02572348952586 326.98351972414423,175.009448034278 326.20591842233875,175.88889357046182 C 325.1002450601579,175.97630308905127 324.29285821653514,176.7838399662169 323.2290818102827,176.97239768403085 C 322.3770309150107,177.67210600195455 321.3662139271298,177.98851906585662 320.4455638122827,178.52261421751388 C 319.535941846136,179.0833336753313 318.32666407955315,178.92062003569217 317.4513635346687,179.56419873420083 C 316.5223605369528,180.07812824275118 315.3142196552314,179.91815928596336 314.4544615318439,180.59926070924226 C 313.4852738974266,181.01617592286854 312.47160248645616,181.32569779983538 311.75740393312327,182.3582111112734 C 310.8934794254112,183.02925399300943 309.720796088138,182.95488712091708 308.6993738830545,183.2456969256166 C 307.88830525455506,184.04434518779922 306.70547853068484,183.94549001421572 305.69858563442074,184.2713766733191 C 304.8707096856998,185.029448475076 303.7520576507113,185.08552470575188 302.99349577063157,186.0109354720855 C 302.23062214144176,186.9259367552398 301.1070098511087,186.97003787019023 300.30121330791735,187.78141407222577 C 299.23808815599546,187.97154405707715 298.38425036753296,188.6669384332257 297.3734988325031,188.98350951428856 C 296.46584441967644,189.54897906601582 295.51218058122873,190.00337203841195 294.54324127932773,190.42088677976744 C 293.6575733494975,191.0394363969338 292.58273819567376,191.2012959363785 291.86497863488046,192.22521221530997 C 291.0411075839499,192.99295269562813 289.9190580772948,193.04082670412836 289.14395077392066,193.92629328514965 C 288.0291191395942,193.99159277891718 287.2350465617212,194.8312731370292 286.159880903457,194.9923347681713 C 285.2610512321971,195.5791091306735 284.5634170303376,196.65161232409034 283.5584515191578,196.98215210240414 C 282.5863817793703,197.39210929815806 281.70597509262956,198.0233606797458 280.6637185841405,198.2638720266014 C 279.8410750080678,199.03457589336884 278.7327735913729,199.11564072710806 277.9714652426437,200.03442093157915 C 277.1566412186522,200.82400286703086 276.4057035260841,201.76782005027047 275.3466620309321,201.96780885464239 C 274.45190571218666,202.564417160208 273.500069436648,203.02322225925644 272.47617260975164,203.3080578007165 C 271.77173202874525,204.36412893474784 270.89830875957847,205.01223978657424 269.7888694227784,205.09055739613495 C 269.015757148263,205.98084042901704 268.2038498262702,206.77746429672956 267.44821634438716,207.70994274772355 C 266.4260564175829,207.998977229096 265.4357171845225,208.36480186295518 264.73077195847355,209.41973433904172 C 263.83566662177026,210.01536791223236 262.73702833818356,210.12036094394483 261.9737305221834,211.03358510957972 C 261.1699469440389,211.84656945061437 260.3450122118329,212.63348830757042 259.5799090325364,213.4653096381707 C 258.67590054288326,214.23047171843353 257.9888515790513,215.0882252860046 257.89232436814893,216.19020166162557 C 257.0174518064261,216.96965829801178 257.02130786468604,218.11378719239704 256.87111119648506,219.1855297427394 C 256.0135930031487,219.97692216767433 256.0648919998178,221.09857808286336 256.9249550973999,221.87868030523316 C 257.00297633624797,222.9838913067996 257.06187546097345,224.10126669063226 257.9274955386867,224.88471975803358 C 258.0007022916473,225.99634955810697 258.0696474737124,227.10967469830697 258.93750584849,227.8920728255123 C 258.99912516144894,229.00842761274362 259.0080412725509,230.14661392919055 258.96079770230654,231.30806251499558 C 259.26548123215997,232.3237379995044 260.05271869777897,233.13953314655225 259.94007231169417,234.32807237596822 C 260.2976532480764,235.32183707340442 261.0320348593161,236.15952582010772 261.1041789364666,237.27152233520567 C 262.04006428352614,238.0257455018753 262.9114621322762,238.80668026496113 263.01500739767073,239.90566998197755 C 263.0239096786591,241.04386210671717 263.8870334997039,241.8282240842943 264.00936333010634,242.9194329797201 C 264.00375517054226,244.06363552573274 263.97020294179737,245.2194128841878 264.2185500748383,246.25842370376697 C 265.0156173641894,247.07014719265493 265.1030296641024,248.17581940277393 265.9818385008302,248.95368443412923 C 266.0321802524773,250.07471176810446 266.9176425585304,250.84982084222827 266.9901447631961,251.9616690160151 C 267.81034921876176,252.7638087768621 268.01975618979685,253.81894913966514 268.0022802381176,254.9680674861272 C 268.05347057129836,256.08874332612254 268.9354111820497,256.86531113420284 268.99507541906297,257.98247696830447 C 269.82196391959735,258.78184810707387 270.02854950384284,259.83815712655 269.99754061951137,260.99288099725527 C 270.74747624922304,261.8241270587831 271.71848813376187,262.5638003372429 272.05538206036744,263.56613387402274 C 271.9324196228678,264.75894615355884 272.6385228941477,265.60834817241994 273.0697856489671,266.5715928606885 C 272.9310284407554,267.770947548468 273.6489640785412,268.6154484406472 274.06981478270745,269.5830059415086 C 273.9275688588665,270.78380570261703 274.69347325417675,271.6084372848595 274.9841003726223,272.6299351610671 C 275.52187871595714,273.54905964796836 276.078394554666,274.46042281016116 275.9392596174086,275.6599339584342 C 276.4472445776399,276.591399268686 277.4449373847632,277.32002094715455 278.0495246387958,278.2114722771576 C 277.93444254359224,279.401020412038 278.3607884162934,280.36630173956706 279.0257278416485,281.2327543816838 C 279.20228221902767,282.30150273436493 280.04256203141955,283.09532701009834 279.9461902037247,284.27712509864125 C 280.26425696508863,285.28725710113946 281.0203537765775,286.1159511202873 281.1345196940205,287.2105416061836 C 281.9982045865932,287.99467119105407 282.05502704929364,289.11301405131076 282.94469538004716,289.8863807744288 C 283.0015898113461,291.00469409819993 283.8665548121096,291.7882880331486 283.9768483137993,292.8844975346766 C 284.76209857550236,293.70101225323305 284.9925821281591,294.74773038578974 285.5304749251755,295.6651795785142 C 286.466238901194,296.4254643099499 287.2381832494511,297.23324858153023 288.0465078225758,298.05638186721234 C 288.8324822483163,298.9155098748512 289.93422239973995,299.0111303908156 291.0652156966441,299.03747393413465 C 291.84806888566743,299.9042918354027 292.9479972050394,300.00548990682137 294.0911906145863,300.0019299786388 C 295.2354570703783,300.00120084874897 296.37004458567344,299.9864634143446 297.54503563013515,300.0655558233212 C 298.46307404535384,299.52540133636217 299.37392468331456,298.967560902143 300.4371223612533,298.77762464653284 C 301.1527014442606,297.74843752909726 301.9855538151407,297.00238096543774 303.1057239203295,296.9499696564437 C 303.8861752894505,296.07740482042726 304.9956224440402,295.99910605995655 306.1071547435581,295.92584126817036 C 306.88572631028177,295.0487381580783 308.0064899917936,294.99775989278646 308.7919878022574,294.1373782149419 C 309.88202973171593,294.0122310794243 310.7470325026941,293.3437913554995 311.5286814575813,292.47411771827393 C 312.30289302016945,291.5864886277021 313.1967414684195,290.9876885290514 314.26442934129733,290.80857392701296 C 315.0635478271392,289.98107546835433 316.18577292609183,289.93362537715984 316.9611301064358,289.04876205250855 C 317.77164489333904,288.248776698433 318.5228066373065,287.3055004231338 319.5480970335663,287.0240292580333 C 320.47984010185706,286.51671486502687 321.4028300327575,285.9882685290193 322.40145110783214,285.6424119270147 C 323.26598103391365,284.9728306545169 324.31968135254306,284.75994710930763 325.132667286282,283.965927631437 C 326.2531104262251,283.91417551063444 327.00961044684965,282.9837869752406 327.7739007442721,282.0722058317466 C 328.89751353889926,282.02810593427 329.7066220783829,281.224725598602 330.7577086720628,281.00553196317105 C 331.6835801275876,280.48404224299213 332.39501343147225,279.4448530288331 333.3305497957023,278.946696462329 C 334.5164655363004,279.0530091819915 335.4996749419079,278.6699455185406 336.22116631530014,277.65503863219794 C 337.087863569306,276.9906897521695 338.18890274674305,276.89209232192025 338.96875763127446,276.01808741571745 C 340.11257442023714,276.02276427538015 341.18477285518225,275.85453913345845 341.97596681323466,275.00790917233485 C 343.0977168600961,274.95931220393913 343.87802662991055,274.08640548795603 344.98263236451004,273.99641848838 C 346.09822110183813,273.93294680294713 346.87601128732643,273.05395727231235 347.9960951592859,273.0013378018707 C 348.78070443967636,272.1388110226319 349.8753654048757,272.0248152258953 350.69191558087306,271.2394005900248 C 351.74338913062275,271.0211411491858 352.62135132067755,270.38398823054547 353.5735984281108,269.9261749669203 C 354.77475584261845,270.06928434244844 355.6176931189202,269.34757380200443 356.58684995023174,268.9305842231019 C 357.7873762256987,269.07216989419817 358.6099222519444,268.30123052131546 359.63605677513283,268.021797258895 C 360.53827694588216,267.44320828624325 361.49475923378355,266.9956196527431 362.4668887059007,266.5858066635891 C 363.3382957489272,265.93282822009024 364.5083245997358,266.000786594959 365.6757351431197,266.0624238165323 C 366.5542957149342,265.42671551925184 367.49629882644496,264.94417106173773 368.6590162885394,264.9944781828126 C 369.82428352073305,265.050940993442 370.6540968325037,264.2975463998349 371.6565681649726,263.96098514145064 C 372.8117392760774,263.9930737596198 373.9626888508642,264.01497068755657 374.76208187917405,263.1881350330473 C 375.81087109769527,262.9633950433507 376.9735851953462,263.0136940419407 377.75599654480015,262.14586098802573 C 378.8480091186412,262.02547140895336 379.684022131253,261.2870442171995 380.68931410487596,260.95729258894386 C 381.8524431881435,261.0085934514372 382.9903391433114,260.99897615385237 384.10653442406834,260.9369687937909 C 384.8878845696358,260.0665737670604 386.0022824372854,260.0002270678989 387.14279280385585,259.996921517779 C 388.2864475833026,260.00120725187077 389.4276875551962,259.99966312481723 390.56973844405826,260.0000767245071 C 391.71158037502397,259.9999858552096 392.8534665535046,260.0000018088627 393.99534536913194,259.999999987015 C 395.1372249120578,259.99999992102204 396.2791045282096,260.0000000318114 397.42098408157494,259.9999999910215 C 398.5628636564101,260.0000000020638 399.704743225657,259.999999999615 400.84662279609853,260.0000000000506 C 401.98850236633865,259.99999999999915 403.13038193659946,259.99999999999716 404.2722615068588,260.0000000000077 C 405.41414107713814,259.9999999999617 406.55602064731283,260.00000000017076 407.69790021790493,259.9999999993723 C 408.83977978720395,260.00000000169456 409.9816593585591,259.99999999905424 411.1235389403494,259.99999997122 C 412.26541839536077,260.00000024945786 413.40729865370446,259.99999858827977 414.54917499042904,260.00000639472745 C 415.6910670554579,259.99997622969033 416.83290961508646,260.00006558126086 417.9748363519419,259.99995171103 C 419.11711704498174,259.99898331497724 420.2547932182199,260.00913121307843 421.42214808295694,259.9476284116495 C 422.3939108499963,260.35832670517544 423.24420188607814,261.0622836990232 424.42076215711313,260.97855708086206 C 425.54500792769363,261.0211288392077 426.7219806999251,260.9364063550639 427.5871260549026,261.6045018507749 C 428.5338924910057,262.0755466254563 429.7397238100594,261.9211534461838 430.57762594202245,262.6550199003789 C 431.58126023401275,262.98877352611436 432.5175971097107,263.4849974869753 433.4170958283256,264.0701566262793 C 434.59631387577326,263.9800135682576 435.72207710716395,264.0189218521344 436.88795030927537,263.96099610071116 C 437.7034318877195,264.74899055928756 438.7199624226307,265.0516099004596 439.9008621162794,264.9574069893714 C 440.69951229615026,265.78603603865736 441.7553123052698,265.99385048260893 442.6852087743245,266.50562296053494 C 443.3806895292578,267.58332503472747 444.3530369904218,267.992611751766 445.3598153312128,268.31877497225463 C 446.20851093376876,269.0265836833407 447.27794121744597,269.20149173368117 448.08089254836466,270.01973688563606 C 449.18671579554086,270.1067845505316 449.9648782233544,270.98487540842746 451.0908804576745,271.0232066913108 C 451.89042958086577,271.8496655140233 452.67774164613417,272.7056670585343 453.4936676229185,273.49258917510167 C 454.3078738754388,274.28366112080766 455.0985025279329,275.13165808657953 455.8943659380337,275.96701642158996 C 457.02053846021613,276.00493589155724 457.8404278849505,276.78235207412393 458.6207813900382,277.65475587138275 C 459.4423224522973,278.4295130749762 460.24369858688146,279.24823727451457 461.0539810694288,280.05261942901666 C 461.86610618121375,280.8581177760688 462.63603832887685,281.6813073414955 463.5843722467409,282.4302484569212 C 464.0101414117368,283.39580867435575 464.26074674123885,284.43387550554957 465.2190343164967,285.17882249276636 C 465.99823116177214,285.9979476231893 466.77667558016526,286.81738488587825 467.7351364055781,287.5622570891599 C 467.9907642950779,288.59825207789805 468.4088339385979,289.56696154157834 469.3660221140998,290.31236078373064 C 470.1213346040871,291.14137967788093 470.9315357092321,291.9476629620109 471.86849456071866,292.701441468546 C 471.96239591911274,293.8044258226706 472.7034178521837,294.6393640582303 472.98425925781487,295.6649153094063 C 473.5485352911071,296.5730640937551 474.08290006081245,297.4936025291504 473.9164750238481,298.70441760684054 C 474.6258424526369,299.55246756739166 474.98864986782877,300.5440673857509 475.4786757667821,301.4829715827516 C 476.01281421408555,302.4036037639547 476.3569051458568,303.40295620358677 477.0296425707947,304.26617880852257 C 477.22637745371156,305.32656812208774 478.05243817877516,306.12628213668376 477.9427174978203,307.31360950106915 C 478.27621954924757,308.3173479985502 479.04514386617524,309.1407286883015 478.98323103559653,310.308253392673 C 479.0045704520959,311.44129388720717 478.9989573747537,312.58549847023016 479.00026795339915,313.72683518104185 C 478.99977142192705,314.86892042137276 478.999917972054,316.01073928858386 479.00512143632614,317.15046351337224 C 478.96089659176766,318.3106616140435 479.2718219266131,319.32375169372625 480.0469648486949,320.1445565528837 C 479.9828130565572,321.3130086654984 480.0046455277335,322.44584493010115 479.99897015844766,323.590075315279 C 480.00018304615577,324.73145249104834 479.99997856174645,325.87341676140403 479.9999994253284,327.0152876897218 C 480.0000012152267,328.15716652087394 479.99999952590997,329.29904677180815 480.0000002321196,330.4409261559601 C 479.99999950418515,331.58280555038755 480.00000165277646,332.7246859835058 479.9999959717724,333.8665632052559 C 479.9999987658673,335.008443932376 480.0000968784202,336.15036414215405 479.9992536887888,337.29189445187023 C 480.00402134259804,338.4357488489872 479.98243338860266,339.56868639592295 480.0625588750454,340.7437550293597 C 479.36896119479036,341.598337033629 478.946223455776,342.56511289906337 479.00959899864125,343.73324347870204 C 478.9988645199292,344.87067668229577 478.99997496064935,346.0130162121635 479.00003560136986,347.15492090063356 C 479.00017937150255,348.2968600224336 478.99892175975367,349.4382186728521 479.0047077230842,350.58249486759627 C 478.98335847471503,351.7155312896365 479.0410601047207,352.88131165761695 478.2500569646457,353.6955469993794 C 477.96352040356936,354.71873923992706 478.00704306245063,355.87864648576726 478.00215620553683,357.0185018536175 C 477.91627131288914,358.124806736541 477.03989466186107,358.9036792121993 476.99057351919646,360.02512929625703 C 476.1180787602703,360.8056097042717 476.0191165883662,361.90649780076814 475.2358340531593,362.72393112177673 C 474.9717152022484,363.75640908191224 474.99505111716593,364.90795470462257 474.9783655705466,366.04292289517855 C 474.11425400340596,366.82687573492666 473.9928470601872,367.91846690274014 474.0061712512005,369.0658655336268 C 473.88846550601886,370.1589897878645 473.02154726272204,370.9417800642835 472.97282752944955,372.06347926026797 C 472.08853479697916,372.83907278763195 472.0137179957902,373.9499622241475 471.1761244228678,374.74489917674754 C 471.0275329052778,375.8252301251694 470.28163035502746,376.6581467429082 470.01722280823503,377.69050512129405 C 469.429179993826,378.58880938257107 468.9207258035641,379.5200803313803 469.0754085264538,380.7260315833273 C 468.3899716604674,381.58399390754636 467.92586316823025,382.53363344591037 468.0772578732393,383.73822275625787 C 467.3551849546163,384.581009930603 466.98860608691035,385.571047562181 466.6412631606858,386.56905298160564 C 465.5711989760771,387.2676974539922 464.99195679205656,388.1696470557335 464.82822760365633,389.243707775603 C 463.98746403172356,390.03733167162045 463.9530278447565,391.1649473062034 463.0840979709549,391.9469043379847 C 462.15312104241667,392.7031606381888 461.9705313517104,393.76940908220996 462.01925633302227,394.931471200557 C 461.3228854733845,395.78490451631467 460.2919089928477,396.4997396458501 460.02521433225877,397.5311506706828 C 459.540263085708,398.47215685753275 458.9650014530216,399.37575525762253 458.77534498044247,400.4390765447495 C 457.74854522385937,401.1556417299925 457.0023673413851,401.98844430139013 456.96703046428314,403.1156868579037 C 456.13804070038236,403.9141876248887 455.16296224464105,404.65217647440403 455.0166216348043,405.73343977934496 C 454.50725436924415,406.66433251998217 453.45045157250024,407.3684700390784 452.98574809860287,408.31786312796936 C 452.807032594914,409.3857163127961 451.81376702215147,410.1161718117809 451.01800219325355,410.92843479745306 C 450.98626868914454,412.0571699199306 450.2019918434649,412.8741913840562 449.2009983635298,413.60144587907996 C 449.01795140193946,414.66750491530314 448.5352134483225,415.60942787808426 447.58741632017336,416.35871702355377 C 446.8356711397002,417.1892135444789 446.012739887678,417.99022382932293 445.1062910374542,418.75663999298354 C 445.01489155827096,419.86066065725134 444.39625968482954,420.7462945290778 443.3480485938914,421.4539907907456 C 442.9955604012922,422.449865118575 442.7229972740093,423.478844694455 441.6920218644371,424.1936819856162 C 440.99284737860955,425.045952270331 440.9364717008272,426.1644892906424 440.06679090747133,426.94613815636944 C 439.2635066949488,427.7551490881492 438.3317871437695,428.5117366888042 437.99935210733076,429.51423795401945 C 437.6574065999525,430.5220022704108 436.68472303513414,431.23947964618037 435.93589691319653,432.1010299964706 C 435.1611813386189,432.9636161677108 434.00770267421404,432.99210346188494 433.95614452017844,434.1177886124695 C 433.0675944427321,434.8844803313315 433.0009750740032,435.9942107819148 432.2471968784807,436.8246231072842 C 431.3617557514384,437.5986793786941 430.59324831023025,438.4226071334735 429.7686921114719,439.2231148780563 C 428.96903946844685,440.03347363609487 428.18204076399456,440.8481602310708 427.2345089264002,441.60585555142376 C 427.00759680590943,442.63047592232454 426.58312341664043,443.70756810204347 425.48676947864357,443.9988360076436 C 424.3957975435012,444.3114323146652 423.99431023506276,445.39672671100703 423.7487978842744,446.41341910349485 C 422.79501146431153,447.168918962051 422.01278750309837,447.9852938118231 421.2361043028034,448.8036346733655 C 420.27965860778255,449.55819094797545 420.0021044865004,450.56170829607 419.6358577506029,451.6587846068823 C 418.5535622054754,452.0046446053953 417.44995613272255,452.26436322044617 416.98948544369154,453.3277721889418 C 416.7923018582347,454.3651677543269 415.8492891795567,455.1244754357935 415.0576678942658,455.9375129030174 C 414.2601794931059,456.7486085160719 413.4359078444518,457.5494349120233 412.66289489296145,458.37096932769515 C 411.7924450900798,459.1523396840555 411.00767508792046,459.9691503335841 410.97096625077245,461.0958245389913 C 410.1420816720895,461.89436873357516 409.2887676776428,462.6827940245163 408.50969381816003,463.5019699691045 C 407.6913825304302,464.3048960816824 406.88740281892655,465.1137527733809 406.0801764222563,465.92126632615975 C 405.2635674055717,466.7249328516946 404.49550421273244,467.5485068157099 403.5739380857369,468.3091363343259 C 402.98001004077935,469.2041421473141 402.8597714433568,470.30004239686167 401.9302885657836,471.0509423939423 C 401.11758043174507,471.8423443653595 400.38361280967797,472.795214043807 399.3075201963047,472.9812911750847 C 398.4097715020452,473.49555923864943 397.5308966129065,474.3794092662272 396.98091467190346,475.26745342611605 C 396.8130973605516,476.32833552924325 395.8895515196492,477.1190739586314 395.1067090666442,477.96279889376945 C 393.98526683118956,478.0033664717873 393.1625071478342,478.7759800015907 392.3865936442577,479.651459166617 C 391.55536334389546,480.4219435530472 390.7753301445627,481.2495342645385 389.9415232999321,482.0441750833661 C 389.0656582098791,482.8231907796213 389.0104785731888,483.9425375359032 388.29216601771975,484.7850988319242 C 387.4047600761263,485.56818629028277 386.62170641514007,486.35832964192275 385.8273162819447,487.22753654237727 C 385.00821205614113,487.9978976419421 383.8653859319665,488.03093189932275 383.03317819854175,488.858372907673 C 382.9995549301268,490.0018253767901 382.2369948435522,490.83081218655536 381.34857975419123,491.57637766039926 C 380.6189433802116,492.5242252341029 379.69130639824783,493.02009997530655 378.54564051127846,493.18451804632383 C 377.986021591084,494.20350039411613 377.86462056894726,495.27610131342993 376.9453446518922,496.043859445154 C 376.1372264487119,496.85104639890255 375.3441882450991,497.66358238880736 374.52884465642524,498.46820642123606 C 373.7241596552218,499.2766111690681 372.9160909728405,500.08381568718477 372.108696897716,500.8912594953448 C 371.3013246431648,501.69871106164135 370.49385667371365,502.50612859299736 369.6864398735521,503.31356452652005 C 368.8790053235636,504.12099367297765 368.07157481993517,504.92842444585415 367.2641465541996,505.7358591085259 C 366.456705361836,506.54327293362115 365.6493048275956,507.3507535966624 364.841816847626,508.1580899518596 C 364.0343989205967,508.96554197545714 363.22736608890807,509.77363000967927 362.4179427667913,510.577770007522 C 361.6168149133359,511.39561046815913 360.7960788120308,512.1810667315136 359.9976337203119,513.0033379345451 C 359.2557980175782,513.9191029401674 358.07264592815073,513.9571771209287 357.9976782688507,515.0156074600691 C 357.2203399052124,515.8236486592692 356.3979561981782,516.7302063581338 355.38777536311477,516.9920080282565 C 354.4196181254522,517.4242746706675 353.673125679971,518.3733679220283 352.8492084391415,519.1424728946208 C 352.04399726122136,519.9550635755114 351.2373239724372,520.7642553088612 350.42919052204917,521.5700526260861 C 349.6220600843219,522.3781816320363 348.81454163836287,523.1854086409782 348.00712558453364,523.9928736793927 C 347.1996970500833,524.8003097042911 346.39226314266364,525.6077332387277 345.58483381610523,526.4151674222244 C 344.77740257067506,527.222597144948 343.9699718732872,528.0300281416985 343.16254108968553,528.8374589380281 C 342.3551102887849,529.6448896941422 341.5476795084029,530.4523204979605 340.7402487185173,531.2597512796735 C 339.93281793173566,532.0671820686221 339.1253871445197,532.8746128565708 338.31795635494956,533.6820436388391 C 337.51052557565384,534.4894744459039 336.70309476667455,535.2969051813109 335.89566401253563,536.1043360491126 C 335.0882332492761,536.9117668948952 334.2808020836292,537.7191967692295 333.47337290538485,538.5266314415779 C 332.66593751921425,539.3340511266658 331.8585149700368,540.1415018029971 331.05108434895925,540.9489329920378 C 330.24358696839715,541.7562030094252 329.43647150213576,542.5643950494973 328.628074090315,543.3694921992139 C 327.8225916223669,544.1816266459607 327.01421235476664,544.9867675997003 326.1955328089244,545.7670414820118 C 325.44899427031635,546.7214791623913 324.4192699678612,546.9922459310203 323.445172072226,547.39730672542 C 322.69697449585897,548.347739134341 321.8743662936907,549.1185284012688 321.0685826891042,549.9299358398592 C 320.26210498213646,550.7396675670677 319.4538621257276,551.5451378465556 318.6469754609457,552.3538822622623 C 317.83898620337857,553.1599647835133 317.03169120748464,553.9677234007114 316.22750597175275,554.7829896430688 C 315.4036886881533,555.5508599292066 314.64833531664755,556.4840167204547 313.7277180009994,557.0181910563831 C 312.6536982600222,557.1820191765801 311.9012538665417,558.1221988620296 311.08902888368914,558.9180554378501 C 310.27751298856555,559.7156239028823 309.47295886740676,560.5299995770392 308.6644032534353,561.3347147929777 C 307.85728027085054,562.1428886870397 307.04981081215004,562.9502261137643 306.24229894219894,563.7574611506724 C 305.4351966113116,564.5656849023426 304.6267912482752,565.3707628561261 303.82132244559824,566.1829302937566 C 303.0129073063924,566.9879846457789 302.1942918014504,567.7684131365004 301.4477269163569,568.7227872108376 C 300.41738960305645,568.9920740403697 299.4439663634057,569.3987635983971 298.6957067945412,570.3490463441906 C 297.8730718380046,571.1197710203588 297.0673138623377,571.931240332635 296.26080618587696,572.7408997070869 C 295.45265019453177,573.5465796973891 294.64551475060557,574.3547235071119 293.83799962386007,575.1619506814228 C 293.0305816092072,575.9694123050647 292.2231705735288,576.7768907774417 291.4156520814009,577.5841098270008 C 290.6084917811935,578.3921936283522 289.80048679968684,579.1982381886553 288.99346705383607,580.0066613182408 C 288.18876064537005,580.8206693383148 287.3651650772831,581.5890748930502 286.61306006711885,582.5300739223047 C 285.6720959353228,583.0151266987368 284.61388663353097,583.2171245956428 283.86464297692186,584.1650315434567 C 283.04962360198226,584.9541418600016 282.2393890931563,585.7548038652136 281.4344046059358,586.5681405437834 C 280.626162773578,587.3736132955607 279.8185135349095,588.1805166950248 279.0113049888965,588.9884840207102 C 278.2068451986938,589.8030874300739 277.3831241098785,590.5711899502335 276.62956923242467,591.5086886926307 C 275.6981279786428,592.0167317251411 274.6323547072625,592.200468606662 273.88177306158434,593.1451453161127 C 273.0680066071886,593.9372804366284 272.2571679008799,594.7364842310036 271.4524541232202,595.5504724224536 C 270.64385725074203,596.3550941005358 269.83686765752753,597.1635783425203 269.0293515756061,597.970806644487 C 268.22100998553947,598.7761162044261 267.41817810669426,599.59425375284 266.5960915265369,600.3675671298396 C 265.82001081364047,601.2479773106107 264.9897042847903,602.0021560264292 263.87135455161774,602.0474659541516 C 263.0905070587238,602.9032176877049 262.1710720680392,603.6934469409654 262.0171800566748,604.7539516964835 C 261.46477150619893,605.6790007687739 260.5105815202964,606.3927852393814 259.8031579315445,607.3168621568767 C 258.9178076571307,608.005625480735 257.944751534186,608.142249953734 257.8721156299212,609.3301110313854 C 256.9270591668724,610.0539702546234 256.1237120073824,610.8636525976284 255.32191025874872,611.6764158473594 C 254.54372233498975,612.4942235877031 253.63896274533911,613.2619544875387 252.98263905390016,614.1318337076539 C 252.89469196297344,615.2373060754529 251.9931209543908,616.0057349134433 251.20173564622118,616.8198111221155 C 250.25504364766923,617.5695594443541 250.03128534509838,618.6187547091238 249.45547538024425,619.5221261136822 C 248.99739466994305,620.4742623920596 248.58344368236672,621.4446778598846 247.9751540462932,622.3345956092821 C 247.72173213651809,623.3715043882839 246.93254420615554,624.1864916142691 247.0669519437639,625.3840446923766 C 246.6698174162184,626.3614257552276 245.9442987872136,627.2027856696056 246.0176152669116,628.3750339201022 C 245.99450998104197,629.5073429675938 246.00559839193784,630.6538155080334 245.98535170836954,631.7873086273673 C 246.02246540198394,632.9445611928734 245.19563183414573,633.7439550855108 244.97487809835337,634.7943954644622 C 245.00161607204438,635.9473502660567 245.00056522919044,637.0887945629561 244.99970421199328,638.2303174882117 C 245.0000913955367,639.3723574351811 244.99997756103798,640.5141898534837 245.00000452581173,641.6560805935918 C 244.99999930855117,642.797958000632 245.0000000460057,643.9398378803701 244.9999999957717,645.0817174425678 C 245.00000019993774,646.2235969102192 244.99999871792693,647.3654771027722 245.00000616831403,648.5073535844734 C 244.99997561629476,649.649245810395 245.00007526384496,650.7910841051722 244.99988070979242,651.9330442623778 C 244.99937515738887,653.0751332393 245.00755463655872,654.2136247583553 244.9525012182972,655.3783082011157 C 245.32388721634376,656.3663546541106 246.05710415113091,657.2045258258216 245.98227200521256,658.3774018858232 C 246.00436607379498,659.5101297932296 245.99911627525162,660.6541839012472 246.00013619084777,661.795641008636 C 245.9999901303011,662.9375810791563 245.99999734073336,664.0794576627593 246.00000149354625,665.2213355128684 C 245.99999953117845,666.3632158959692 246.0000001084954,667.5050952270979 246.00000000979253,668.6469748382431 C 245.9999998991369,669.7888544543391 246.00000016938728,670.9307339126591 246.00000083497653,672.0726132072244 C 245.99998968075192,673.2144973977121 246.00006524288955,674.3563456691448 245.99968249297862,675.4983837794362 C 246.00127113478462,676.639605313439 245.99599444119292,677.7836705593475 246.00692829592492,678.9210211836688 C 246.0284393148969,680.0539906078826 246.89372618790372,680.8374567305252 247.00730259423517,681.9322911410425 C 247.0012006326853,683.0766975568671 247.00693907338982,684.2162106792741 246.95023330146435,685.3815083949238 C 247.33936332373767,686.3626209772341 248.03462953919245,687.2155654303377 248.14349375384748,688.3166500946321 C 249.08505783361633,689.0613269835302 249.89397410955874,689.855334693236 250.62834700306988,690.8129930944558 C 251.71222818767012,690.9657356867924 252.5901791603629,691.600063585889 253.5445869567972,692.0538053796942 C 254.70616058843652,692.0060571874815 255.86818413488845,691.9574616193399 256.68648562943827,692.7386401165268 C 257.70479737401894,693.0369633820196 258.86356176721927,692.996199175682 260.00383393342634,693.0000798619781 C 261.15317304700494,692.9820709352492 262.2213276023029,693.1600588609416 263.012890461086,694.0057982187913 C 264.1622382871683,693.9877682542019 265.2971551914708,694.0045776168821 266.4414488998763,693.9987493717997 C 267.5826945319983,694.000279833862 268.7247108819089,693.9999496185761 269.8665670597696,694.0000060928263 C 271.0084491180771,694.0000000861511 272.1503288545693,693.9999996848343 273.292208244255,694.0000001207819 C 274.43408787836427,693.9999999666387 275.57596743168585,694.0000000075349 276.7178470056384,693.9999999986234 C 277.85972657525514,694.0000000001792 279.00160614559,694.0000000000009 280.1434857159277,693.9999999998165 C 281.28536528553616,694.0000000013927 282.42724485951277,693.9999999924221 283.56912441279843,694.0000000334051 C 284.71100404673115,693.9999998796884 285.85288343862595,694.0000003103029 286.9947631596526,693.9999999463224 C 288.1366452982124,693.9999937459014 289.27850116172345,694.0000509790596 290.42051844212904,693.9997185173605 C 291.56176260221315,694.0012525332279 292.7060503181525,693.9954387552723 293.841047207088,694.0120550178735 C 294.98982735135354,693.9953955585243 295.7810074324285,694.8420590216349 296.85012912126876,695.0177120857311 C 297.9993528656782,694.9999816808975 299.14156215796345,694.9991856615158 300.28297068933693,695.0003228499861 C 301.42502148051494,694.9999094861272 302.5668549869685,695.000020693996 303.7087447171448,694.999996165791 C 304.85062249382315,695.0000004958832 305.99250227182193,694.9999999943603 307.1343818483916,694.99999997913 C 308.2762614064855,695.0000000085047 309.41814098126866,694.9999999975882 310.5600205503002,695.0000000005566 C 311.70190012083503,694.9999999998956 312.8437796910474,695.0000000000138 313.9856592613144,695.0 C 315.1275388315757,694.9999999999994 316.2694184018364,695.0 317.4112979720979,695.0 C 318.55317754235904,695.0000000000001 319.69505711262013,695.0000000000001 320.8369366828814,694.9999999999998 C 321.9788162531426,695.0 323.12069582340376,695.0 324.2625753936649,694.9999999999999 C 325.40445496392624,694.9999999999999 326.5463345341875,695.0000000000001 327.68821410444843,695.0 C 328.8300936747097,694.9999999999997 329.971973244971,695.0000000000001 331.11385281523195,695.0 C 332.25573238549316,694.9999999999998 333.39761195575454,694.9999999999999 334.53949152601564,695.0000000000001 C 335.68137109627673,695.0 336.82325066653806,694.9999999999997 337.96513023679927,695.0000000000001 C 339.10700980706036,694.9999999999999 340.24888937732163,695.0 341.3907689475829,694.9999999999999 C 342.532648517844,695.0000000000001 343.6745280881051,694.9999999999998 344.8164076583663,694.9999999999998 C 345.9582872286276,695.0 347.1001667988888,695.0 348.2420463691498,694.9999999999999 C 349.3839259394112,694.9999999999999 350.52580550967235,695.0 351.6676850799333,695.0 C 352.8095646501948,694.9999999999998 353.95144422045604,695.0000000000001 355.09332379071697,695.0 C 356.2352033609782,694.9999999999999 357.37708293123956,694.9999999999998 358.5189625015007,695.0000000000002 C 359.6608420717617,694.9999999999998 360.8027216420231,694.9999999999998 361.9446012122842,695.0 C 363.0864807825453,694.9999999999999 364.2283603528066,694.9999999999999 365.3702399230678,694.9999999999999 C 366.51211949332907,695.0 367.6539990635901,695.0 368.79587863385126,694.9999999999998 C 369.93775820411264,695.0000000000001 371.07963777437374,695.0 372.2215173446348,694.9999999999998 C 373.3633969148962,694.9999999999999 374.5052764851575,695.0 375.64715605541846,695.0 C 376.7890356256797,694.9999999999998 377.930915195941,695.0 379.07279476620215,695.0000000000001 C 380.21467433646325,695.0 381.35655390672457,694.9999999999999 382.4984334769857,695.0000000000001 C 383.64031304724676,695.0000000000001 384.7821926175082,694.9999999999999 385.9240721877694,695.0000000000001 C 387.0659517580304,695.0 388.20783132829166,694.9999999999998 389.34971089855287,694.9999999999999 C 390.491590468814,695.0000000000002 391.63347003907506,695.0 392.77534960933633,694.9999999999998 C 393.91722917959765,695.0 395.05910874985864,695.0 396.20098832011985,694.9999999999999 C 397.3428678903813,694.9999999999998 398.4847474606424,695.0 399.6266270309033,694.9999999999999 C 400.76850660116463,694.9999999999998 401.91038617142596,695.0000000000001 403.0522657416871,695.0 C 404.1941453119483,694.9999999999999 405.33602488220936,695.0000000000002 406.47790445247074,694.9999999999999 C 407.6197840227319,695.0 408.76166359299293,695.0 409.9035431632544,694.9999999999999 C 411.0454227335154,695.0 412.1873023037766,694.9999999999999 413.32918187403783,695.0 C 414.47106144429904,694.9999999999999 415.6129410145601,695.0 416.75482058482163,695.0 C 417.89670015508267,695.0000000000001 419.0385797253436,694.9999999999999 420.1804592956049,694.9999999999997 C 421.3223388658662,695.0000000000002 422.4642184361272,694.9999999999999 423.60609800638883,695.0 C 424.7479775766498,695.0000000000001 425.8898571469109,695.0 427.0317367171723,695.0000000000002 C 428.17361628743316,694.9999999999999 429.31549585769454,695.0000000000002 430.45737542795575,694.9999999999999 C 431.599254998217,695.0 432.74113456847806,695.0000000000001 433.88301413873944,695.0 C 435.02489370900025,694.9999999999998 436.1667732792614,694.9999999999999 437.30865284952296,695.0000000000001 C 438.450532419784,695.0 439.5924119900452,695.0 440.73429156030653,694.9999999999999 C 441.8761711305675,695.0 443.01805070082855,694.9999999999999 444.1599302710901,695.0 C 445.30180984135114,694.9999999999999 446.44368941161235,695.0 447.58556898187385,695.0000000000002 C 448.72744855213483,695.0 449.8693281223959,694.9999999999999 451.011207692657,694.9999999999998 C 452.1530872629184,695.0000000000002 453.2949668331795,695.0 454.43684640344094,694.9999999999999 C 455.5787259737019,695.0 456.7206055439631,695.0 457.86248511422434,695.0 C 459.00436468448544,694.9999999999999 460.14624425474665,695.0000000000002 461.2881238250079,694.9999999999997 C 462.4300033952692,695.0 463.57188296553034,695.0 464.71376253579155,695.0 C 465.8556421060525,695.0000000000001 466.99752167631357,694.9999999999997 468.139401246575,695.0000000000001 C 469.2812808168362,694.9999999999999 470.4231603870973,694.9999999999999 471.5650399573588,695.0 C 472.7069195276198,694.9999999999999 473.84879909788094,695.0000000000001 474.9906786681421,694.9999999999998 C 476.1325582384034,695.0000000000002 477.2744378086645,695.0 478.4163173789259,695.0000000000001 C 479.55819694918705,695.0 480.70007651944803,694.9999999999999 481.8419560897094,695.0 C 482.9838356599703,694.9999999999998 484.12571523023166,695.0000000000001 485.2675948004927,694.9999999999997 C 486.4094743707542,695.0000000000001 487.55135394101524,695.0000000000001 488.69323351127656,694.9999999999999 C 489.83511308153754,695.0000000000001 490.97699265179864,694.9999999999999 492.1188722220602,695.0000000000002 C 493.26075179232106,694.9999999999999 494.40263136258244,695.0 495.54451093284376,695.0 C 496.68639050310486,695.0000000000001 497.82827007336584,694.9999999999999 498.9701496436271,695.0 C 500.1120292138885,695.0000000000002 501.25390878414936,694.9999999999999 502.39578835441085,695.0 C 503.537667924672,695.0 504.6795474949331,695.0 505.8214270651944,695.0 C 506.96330663545535,694.9999999999998 508.1051862057165,695.0000000000002 509.2470657759779,694.9999999999999 C 510.38894534623904,695.0000000000001 511.5308249165003,695.0000000000001 512.6727044867615,694.9999999999999 C 513.8145840570226,694.9999999999998 514.9564636272837,694.9999999999998 516.0983431975452,695.0000000000001 C 517.2402227678062,695.0 518.3821023380673,695.0000000000001 519.5239819083288,695.0 C 520.6658614785898,695.0 521.8077410488507,694.9999999999999 522.9496206191122,695.0 C 524.0915001893734,695.0000000000001 525.2333797596344,694.9999999999999 526.3752593298959,695.0000000000001 C 527.5171389001571,695.0 528.659018470418,695.0 529.8008980406795,695.0000000000001 C 530.9427776109404,694.9999999999998 532.0846571812016,695.0 533.226536751463,695.0000000000002 C 534.3684163217241,695.0000000000001 535.5102958919853,695.0000000000003 536.6521754622464,694.999999999999 C 537.7940550325084,695.0000000000033 538.9359346027675,694.9999999999948 540.0778141730232,694.9999999999708 C 541.2196937433715,695.0000000003446 542.3615733130503,694.9999999978485 543.503452886238,695.0000000103907 C 544.645332444439,694.9999999587023 545.787212054347,695.0000001286231 546.9290915451274,694.999999787981 C 548.0709709321796,694.9999990027743 549.2128536581481,695.0000125276526 550.3547117491222,694.9999204707274 C 551.4967003983559,695.0003879664433 552.6381262098738,694.9984432261876 553.7815177861777,695.0049234517736 C 554.9202329254847,694.9913611869049 556.0562141944049,694.9661542582829 556.8712770795671,694.0461801315525 C 557.6123673080563,694.6322272733313 558.6484880614006,695.0550853013075 559.8051581603157,694.9916758840856 C 560.9449741613779,695.0005544519524 562.086957704974,695.0002355812098 563.2286421971653,694.9993277072747 C 564.3721872178072,695.0035465948224 565.5056759417893,694.9832308337242 566.6817357957647,695.0657633867318 C 567.5573406443525,694.4229156603741 568.499253565286,693.9401548824055 569.6708479752295,694.0118925965093 C 570.8070669653796,693.9982267957845 571.9497262024353,694.0001090712468 573.0915778764304,694.0000417239415 C 574.2334313103289,693.9999786254045 575.3753224531328,694.0000065638948 576.5171986397472,693.9999983950779 C 577.6590790082815,694.000000322273 578.8009584247818,693.9999999510629 579.9428380166677,694.0000000032693 C 581.0847175858537,694.0000000006731 582.2265971572839,694.0000000034956 583.3684767158528,693.9999999752678 C 584.5103563456737,694.0000001190581 585.6522356724496,693.9999995312326 586.7941160320036,694.0000014367532 C 587.935994093783,693.9999977949567 589.0778693786136,693.9999874490125 590.2198152815074,694.0001475901498 C 591.3612521311433,693.999078768034 592.5053561022322,694.0044489465704 593.6380692687005,693.9823192906703 C 594.8100789701801,694.0550598605987 595.6437753632778,693.3110398640588 596.6380901305292,692.9547868870532 C 597.8011651482508,693.0059573024187 598.9409821791314,693.0009777477964 600.0863226206749,693.0093325632322 C 601.1765697835615,692.8846879507092 601.9610141962659,692.0217611190889 603.1022303964371,692.0201894583915 C 604.1793384559113,691.8634150222648 604.9684255729159,691.0118819664517 606.0957582539577,690.9748459512771 C 606.8984181638107,690.1478758300233 607.6471995322244,689.2756470645564 608.6190898093582,688.5607113165825 C 608.9917109136132,687.5651607683491 609.3641813916321,686.5792944683946 610.0666703779787,685.7278053120535 C 609.9828403794249,684.5513044042652 609.999359861096,683.4162406198367 610.0158635252799,682.281202875255 C 609.9596370207474,681.116032521595 610.7527174131715,680.3026578246801 611.0347862577182,679.2776148782445 C 610.9960314359738,678.119682552762 610.9998514585556,676.9793852859326 611.0002406235719,675.8376669129226 C 610.9999114968318,674.6956510140512 611.0000239806229,673.5538180360511 610.9999946724373,672.411926325955 C 611.0000009497719,671.2700493558481 610.9999998879165,670.1281693457528 610.9999999973352,668.9862898208139 C 611.0000000062095,667.8444102542284 610.9999999976637,666.7025306804279 611.00000000064,665.560651111399 C 610.9999999998566,664.4187715408135 611.0000000000258,663.2768919706226 610.9999999999969,662.1350124003495 C 611.0000000000001,660.9931328300896 611.0,659.8512532598282 611.0,658.7093736895669 C 610.9999999999999,657.5674941193058 611.0000000000001,656.4256145490448 611.0,655.2837349787834 C 611.0000000000002,654.1418554085226 611.0000000000002,652.9999758382613 610.9999999999999,651.8580962679998 C 611.0,650.7162166977388 611.0,649.5743371274775 611.0000000000001,648.4324575572163 C 610.9999999999999,647.290577986955 611.0000000000001,646.1486984166944 611.0,645.0068188464327 C 610.9999999999998,643.8649392761714 611.0,642.7230597059105 610.9999999999999,641.581180135649 C 611.0000000000001,640.4393005653881 610.9999999999999,639.2974209951267 611.0000000000001,638.1555414248656 C 611.0000000000001,637.0136618546046 610.9999999999998,635.871782284343 611.0,634.729902714082 C 611.0000000000001,633.5880231438209 611.0,632.4461435735598 611.0000000000001,631.3042640032984 C 611.0000000000002,630.1623844330373 611.0,629.0205048627763 610.9999999999998,627.8786252925146 C 611.0,626.7367457222535 611.0000000000001,625.5948661519926 611.0000000000002,624.452986581731 C 610.9999999999991,623.3111070114704 611.0000000000028,622.1692274412082 610.9999999999981,621.0273478709486 C 610.9999999999633,619.8854683007015 611.0000000003337,618.7435887302871 610.9999999980771,617.6017091609607 C 611.0000000088187,616.4598295862502 610.9999999667674,615.3179500334073 611.0000000942006,614.1760704103617 C 610.999999910434,613.0341909162191 610.9999987088106,611.892311843688 611.0000122047643,610.7504266832028 C 610.9999287112084,609.6085816972088 611.0003300396331,608.4665358907725 610.9987434822436,607.3253134960704 C 611.0036313194393,606.1814093112803 610.9960039449253,605.0426891124636 610.9540423160568,603.9181906696584 C 610.08409202426,603.1366565470843 609.9973567588504,602.0307034073438 610.0076273094726,600.8845664529596 C 609.896850303645,599.788608299622 609.0149596885441,599.01199474016 608.1946420838626,598.2095754629738 C 607.4030219041714,597.3973728707538 606.590817760844,596.5860598312186 605.7792384877501,595.7934202145437 C 604.9771973132986,594.9720601874926 604.1956340652181,594.1021364218469 603.1032413798708,593.9827533762029 C 601.9626140016694,593.9797235633371 601.1778993383733,593.1174517018984 600.0887330911984,592.9901889245614 C 598.9433793787751,592.9985763517838 597.8004936490273,593.0010054663909 596.6591686939068,592.9996664900581 C 595.5171155415323,593.0000855596518 594.3752788941589,592.9999819333229 593.2333906029099,593.0000029879164 C 592.0915123883241,592.9999997149854 590.9496327151766,592.9999999633775 589.8077530993834,593.000000073302 C 588.6658736940565,592.9999996751151 587.5239933295532,593.0000015925856 586.38211713836,592.9999934347935 C 585.2402258722377,593.0000216711011 584.0983736065501,592.9999557520296 582.9565144237419,592.9999065323618 C 581.8138903539384,593.0017039132551 580.6775443900921,592.9883446055998 579.506285083391,593.0592735637716 C 578.5617208182301,592.5829122781353 577.688452024442,591.9344284985742 576.5124213027851,592.0168766714434 C 575.3790131129757,591.9964249498651 574.2354066146509,592.000594123018 573.0937969125561,591.9999426036305 C 571.951896204338,591.9999936351732 570.8100118792248,592.0000051144013 569.668135146617,591.999998263699 C 568.5262546702046,592.0000004513422 567.3843753268812,591.9999999034659 566.2424957098895,592.0000000162828 C 565.1006161470559,591.9999999983519 563.958736576173,591.9999999998533 562.8168570057957,592.000000000133 C 561.6749774356084,591.999999999954 560.5330978653235,592.000000000012 559.3912182950683,591.9999999999975 C 558.2493387248056,592.0000000000005 557.1074591545448,592.0 555.9655795842837,592.0000000000001 C 554.8237000140225,591.9999999999999 553.6818204437612,592.0 552.5399408735001,592.0000000000001 C 551.3980613032388,592.0 550.2561817329777,592.0000000000001 549.1143021627163,591.9999999999999 C 547.9724225924556,592.0000000000003 546.8305430221943,592.0 545.6886634519325,591.9999999999998 C 544.5467838816717,592.0 543.4049043114105,591.9999999999999 542.2630247411493,592.0000000000001 C 541.1211451708881,591.9999999999999 539.9792656006273,592.0000000000005 538.8373860303657,591.9999999999999 C 537.6955064601042,591.9999999999999 536.5536268898434,592.0 535.4117473195821,592.0 C 534.2698677493211,592.0000000000001 533.1279881790599,592.0 531.9861086087988,592.0000000000003 C 530.8442290385375,592.0 529.7023494682759,592.0 528.5604698980148,592.0 C 527.4185903277536,591.9999999999998 526.2767107574925,592.0 525.1348311872313,591.9999999999999 C 523.9929516169705,592.0000000000003 522.8510720467092,591.9999999999999 521.7091924764475,591.9999999999999 C 520.5673129061865,592.0 519.4254333359255,592.0000000000001 518.283553765664,591.9999999999998 C 517.1416741954031,592.0000000000001 515.999794625142,592.0000000000003 514.8579150548821,591.9999999999966 C 513.7160354846081,592.0000000000265 512.5741559144186,591.9999999998547 511.432276343831,592.0000000006422 C 510.290396774796,591.9999999976818 509.1485172010855,592.0000000060095 508.0066376338545,591.9999999986945 C 506.8647581123203,591.9999998810569 505.72287808869805,592.0000009755666 504.5810011594881,591.9999945995048 C 503.43910937941564,592.0000240765971 502.29727618046047,591.9999121263613 501.15526354854745,592.0002333656053 C 500.01352148669537,591.9999013909409 498.87335110890746,591.9957750352908 497.71490829080204,592.0357622528719 C 496.6925229367496,591.7472776954754 495.87758384679813,590.957973553824 494.7113569399306,591.0167532240661 C 493.57836685561284,590.995292106539 492.43409052882555,591.0010783886503 491.29274060617047,590.9997997062163 C 490.15076728295884,591.0000260458607 489.00889864569365,590.9999996512738 487.86701937688036,590.999998923514 C 486.72513917795084,591.0000004412532 485.58325984242236,590.9999998745589 484.44138020818957,591.0000000289996 C 483.29950065219793,590.9999999945501 482.15762107937826,591.0000000007273 481.0157415094248,590.9999999999834 C 479.87386193916836,590.9999999999725 478.73198236889124,591.0000000000118 477.5901027986358,590.9999999999967 C 476.4482232283728,591.0000000000007 475.3063436581122,591.0 474.16446408785094,591.0000000000001 C 473.0225845175896,591.0 471.8807049473287,591.0 470.7388253770675,591.0000000000002 C 469.59694580680633,591.0 468.4550662365449,591.0000000000001 467.3131866662837,591.0000000000001 C 466.1713070960227,591.0 465.02942752576155,591.0 463.8875479555002,591.0 C 462.74566838523924,591.0000000000001 461.603788814978,591.0 460.4619092447163,591.0 C 459.32002967445555,591.0 458.17815010419434,591.0000000000002 457.036270533933,590.9999999999998 C 455.89439096367255,590.9999999999972 454.75251139340435,591.0000000000283 453.61063182318793,590.9999999998347 C 452.4687522527091,591.000000000767 451.3268726833107,590.9999999970714 450.18499311037954,591.0000000085123 C 449.04311354437664,590.999999990263 447.90123399583155,590.9999998971937 446.75935416169324,591.0000010281105 C 445.61747625917343,590.9999938805556 444.47558856785116,591.0000286855432 443.3337415088914,590.9998893496293 C 442.1917597029351,591.0003275081606 441.0500544062956,590.999580611747 439.9089111059761,590.9964251291551 C 438.7574469193067,591.0375025771248 437.69089592591547,590.7291943390248 436.93625651104776,590.0119071679197 C 436.1448963692881,590.8981339877162 435.02795584683906,591.0036073925344 433.8860715142735,591.002977123675 C 432.7420943122315,591.0004693711585 431.6068687137902,590.9895334702508 430.4352495289148,591.0497977476441 C 429.50303000297004,590.6028913525346 428.6593880846216,589.7077824961508 427.9713852651131,588.8795663652367 C 427.98537075624876,587.7024981411139 428.19617845558554,586.6648797116417 429.1200647951918,585.9002948586877 C 429.91764124925623,585.0897845099574 430.7126234478805,584.2700387049665 431.5423593894624,583.5039993353473 C 432.3009553414031,582.5834842506068 433.1935067149998,581.9803344747374 434.28730813061895,581.8644779868529 C 435.04667837141403,580.9409437134044 435.8541562112069,580.1336265949799 436.66757991512236,579.3406733395136 C 437.4716560912147,578.5251385955103 438.2803068361518,577.7206548718162 439.08738557117454,576.9123737182299 C 439.8947420515779,576.1047635531652 440.7032537426848,575.2999424675303 441.50636097177994,574.4820731258176 C 442.32571602553327,573.7034315579332 443.1130877693028,572.8475714539393 443.9143398405672,572.0252231565784 C 445.04136340648273,571.9893556885413 445.8551201303757,571.1971400184212 446.63732360170536,570.3291971714676 C 447.4595774760432,569.5561332132299 448.25802355434524,568.730525100053 449.0723643769,567.9352519497692 C 449.89011250557155,567.144834258652 450.6016063791918,566.1788825567658 451.78036902861027,566.0599229816387 C 451.9939163906145,565.1777155531468 452.6194835026433,564.2861300504414 453.486730100302,563.4081239235701 C 454.4258486600817,562.9897035617395 455.4600849558597,562.7142577764731 456.2032734890519,561.7574982445628 C 457.0229887457709,560.9786122376944 457.8312003946479,560.1729378035218 458.63646752097264,559.3608573818746 C 459.4455997903826,558.5560386682018 460.2509999238327,557.7471405619484 461.0605558053873,556.9407188189829 C 461.87238870387705,556.1350905845865 462.6427644070336,555.3124495752201 463.5917846511223,554.5630867006671 C 464.0094728135349,553.595636759556 464.2663953905268,552.5539649805426 465.22797920088317,551.8258564113939 C 466.00397788620626,550.9944610009828 466.7704120350679,550.0933378626875 467.8832910599878,550.0168874968356 C 468.7474839970194,549.347869901397 469.5152676561013,548.4437509498916 470.33812327130016,547.6739369670134 C 471.14143644575387,546.8564644828548 471.9493958857276,546.0503229298788 472.757031336521,545.2433912586694 C 473.5642813199044,544.4355195411632 474.37178829956264,543.6282745650886 475.17919712313875,542.820790214013 C 475.98663148744254,542.0133681495691 476.7940629090987,541.2059389088381 477.60149289031335,540.3985061552762 C 478.4089240491721,539.591076273655 479.21635472152593,538.7836452055884 480.02378553106047,537.9762144720627 C 480.8312163197726,537.1687836877512 481.6386471036787,536.3613528917825 482.44607789299147,535.5539221087478 C 483.25350867959344,534.746491319773 484.0609394674385,533.9390605327768 484.8683702554633,533.1316297455884 C 485.6758010377976,532.3241989560122 486.4832318447094,531.5167681766914 487.29066258101005,530.7093373680174 C 488.0980934452119,529.901906612478 488.9055242998641,529.0944758529699 489.71295416128504,528.2870446809006 C 490.5203888254834,527.4796155037751 491.32780866526787,526.67218016899 492.13525863123465,525.8647573478038 C 492.94269174693164,525.0573275274726 493.7499585592988,524.2498286292491 494.5581507834378,523.4427141219757 C 495.3632746146439,522.6343250875005 496.1752711478398,521.8287907870274 496.9808256107293,521.0205806252736 C 497.760333636627,520.2015514800389 498.71518153850616,519.4553537636261 498.9928301301167,518.4280165903641 C 499.3916782901365,517.4534647941828 500.3375797919677,516.696957202515 501.1173625587242,515.8887299209495 C 501.93235504878794,515.089220349837 502.6550308592208,514.139178708818 503.8408300556758,514.0570032198697 C 503.9937686382576,513.1040124566462 504.6680712332997,512.2159950684699 505.58030500975366,511.4720877837602 C 506.3450241347023,510.6387953382107 507.164625803402,509.8386830309788 507.97021089612224,509.0301503402267 C 508.77511065276735,508.221585143671 509.59360883170154,507.418829248847 510.3670351434803,506.5972733133456 C 511.24670673111063,505.81977759961467 512.0020040519117,504.99075031443647 512.0447059862995,503.86655858296535 C 512.8966194840265,503.0775530657174 513.740299996688,502.28513740503286 514.5219568998434,501.46703053013795 C 515.3395047051577,500.6637910079054 516.1441546193313,499.8552071274083 516.9519417570605,499.04792397909205 C 517.7601048152753,498.24080611210144 518.564538864713,497.4320881020886 519.38089823245,496.6284972907912 C 520.1702582434417,495.8132933042692 520.9871447303353,495.0099299968715 521.8958444636175,494.2460616341333 C 521.9795028119795,493.13432064118206 522.6542691542343,492.30098128020984 523.4606240767278,491.3687871621834 C 524.5155044739518,491.03120526565266 525.0272422163174,490.46906929147536 525.3932630408875,489.4033379868086 C 526.3627006036123,488.69439948606674 527.1307190608512,487.86239761239074 527.9438406472052,487.05832032170866 C 528.7217643163143,486.2391130858602 529.6748904800387,485.49166359205094 529.9984310502006,484.48393244399506 C 530.3487316781795,483.4871220619966 531.3011649831662,482.73976498731685 532.0773517871937,481.91938982991303 C 532.8899741364219,481.11410959577944 533.6646369881229,480.29310614078355 534.6140405515615,479.54448224538334 C 535.0067301906915,478.56526010162787 535.2876579513667,477.539744608446 536.2480151706969,476.7956580273873 C 537.0220645091238,475.97440019023287 537.8059361134552,475.15721086960014 538.7613445689904,474.4110744393524 C 538.9875114929503,473.3628762763018 539.4396695231314,472.40828669449 540.3929645191411,471.66127484051316 C 541.1459245807313,470.8312815396892 541.9635076294478,470.02805595657276 542.8813326965774,469.26635197700256 C 542.9796402847229,468.1651927430353 543.6165382323445,467.28712494052644 544.492632259058,466.50813539804415 C 545.3638896382671,465.72714245056903 546.0193795584573,464.8567756952496 546.1071371370239,463.7512465042316 C 547.0176045465363,462.9864948830892 547.8382866744572,462.1845529806101 548.5980741500647,461.3573876872669 C 549.5188598227309,460.5969100306626 550.0590288336256,459.6787757906878 549.9413630977685,458.48815747680806 C 550.3515043581701,457.516163979094 551.2794637709421,456.7586577829348 552.054530321679,455.9378212897305 C 552.8463185577149,455.12391114536285 553.7924749365305,454.3739423793331 553.9886035406922,453.31330193688495 C 554.4535330499604,452.36400247490974 555.5126720212429,451.66083263099176 556.016329134909,450.72757466799703 C 556.1663067281407,449.64781785090446 557.1435763312026,448.9107366043263 557.9689283025399,448.11072901432453 C 558.0035471921611,446.98318905765876 558.7555751910245,446.1528096838111 559.7711351497908,445.43158882187396 C 559.9832641056962,444.3775759421208 560.4388048948997,443.4243875449619 561.3505413461216,442.6601615781068 C 562.1817910316284,441.8625969013009 562.9872866205499,441.0543645284026 563.0325121754145,439.9312179963324 C 563.9173866053554,439.1558654159496 563.9877606695522,438.04313573751796 564.8290449716123,437.24972753498196 C 564.9737497389752,436.1677866419024 565.7160661362103,435.33338459094796 566.0023975133937,434.3101073604492 C 566.4532990128369,433.35499730655147 567.5225273097984,432.6560065981649 568.0158788103486,431.7184799104489 C 568.1699090207608,430.64040174235544 569.154459217137,429.9063362162703 569.976518204439,429.1049646276205 C 570.0098675247641,427.97689879813385 570.8849819860095,427.1975035063494 570.9781577697778,426.0942186094097 C 571.7876735072786,425.28765143657586 571.973572323258,424.22277367712235 572.6696530918089,423.36922020170203 C 573.0074982020274,422.36728065807483 573.4141592607864,421.3938456136406 574.4559236613153,420.6834789868761 C 575.0482250787721,419.7869386967382 574.9347374434678,418.59805100877236 575.3616522180608,417.63300532812525 C 576.0254826562012,416.7660933284576 576.2045401951177,415.6983818192608 577.0413365453737,414.90311464622 C 576.9587545330827,413.72702848645963 577.1826743146503,412.67789952660746 578.1136578286686,411.9216459541987 C 578.946187453402,411.12461144557915 579.0009351093136,410.0054090969049 579.0723283866266,408.89310159036904 C 579.950641964215,408.1150314159611 580.0019721740481,406.9944135147723 580.8679963931631,406.21125292141244 C 580.9770108628996,405.1145286230108 581.7614342071606,404.29756784058463 581.9961226703199,403.2528994146966 C 582.5073424204877,402.32277399830787 583.5452996860233,401.6108304045952 584.0571980286818,400.6809860704195 C 583.9272106213094,399.48526395308676 584.4370816937994,398.55457989611284 585.0616194228055,397.67139232341964 C 584.9997345134149,396.5038791843824 584.9388128044594,395.3367650160292 585.5532777620153,394.44940516479073 C 586.0798183320798,393.5256258397896 585.9176784778798,392.31658574291765 586.5972211446576,391.4561819614472 C 587.0164375045983,390.48794749304204 587.3238093875295,389.47338552538326 588.3558667180633,388.7589980985759 C 589.0288411890773,387.89587368133937 588.9544408366764,386.7231764760682 589.2491886457566,385.70338544580795 C 590.0375125096883,384.88804031152966 589.9933481352729,383.7278672584119 589.9509237713527,382.56841494123984 C 590.3673207912957,381.5990126639706 591.0599643706566,380.7440354581717 590.9967428139722,379.5759686616975 C 590.9403647240724,378.41073652197895 591.4899721276203,377.49651179224793 592.0825669180709,376.60009302118306 C 591.9142696391655,375.38850243548876 592.5418884454211,374.50659108677917 593.0057722181195,373.55685846653444 C 593.3720456792515,372.5666943314112 594.0656797734299,371.71212741028336 593.9972194447853,370.5418906434131 C 593.9382587491801,369.37558875338505 594.5266442792476,368.477426449582 595.0652235931776,367.5586337355645 C 594.9814421200161,366.3820507428439 595.01826424669,365.25542339684637 594.9657503632556,364.0917918638538 C 595.7732131115774,363.2843743150586 596.032101951606,362.2497300134845 595.9947506513424,361.09237902808195 C 595.9943325432587,359.9503262717815 596.0964438552564,358.85074259182164 596.963860043151,358.0681585708086 C 596.9962931605979,356.9397132376639 596.9779795451211,355.790247919496 597.1978986738318,354.73946183497196 C 598.0241687864406,353.93983455153693 597.9857365666442,352.78203583460413 598.0013900238151,351.64664013860113 C 598.0152486879981,350.5105010150005 597.9341795707007,349.33504151686526 598.5625130215711,348.4534261836475 C 599.0611885096914,347.5181047637888 598.9875342437624,346.345716597653 599.0019254740312,345.2097980701484 C 598.9998832735199,344.0670725927383 599.0001319763683,342.92529603857 598.997997506984,341.7825323421415 C 599.0127168498343,340.64674972331795 598.9382766922358,339.4740360301945 599.443941555848,338.54160970445696 C 600.0661610466176,337.65746188604527 599.9837031719436,336.48142714576966 600.003299166961,335.34766450241307 C 599.9994914105786,334.20420770781595 600.0000369080424,333.0625540900024 600.0000099123037,331.9206633377401 C 599.9999944264639,330.778777353034 600.0000017562172,329.6369008188562 599.9999995632958,328.4950203402571 C 600.0000000893098,327.35314098787893 599.9999999859901,326.2112613748184 600.0000000010929,325.0693818108188 C 600.0000000002216,323.9275022402112 600.0000000001284,322.7856226696663 599.9999999983143,321.6437431003159 C 600.0000000084206,320.5018635258199 599.9999999662382,319.3599839730433 600.0000001064244,318.2181043447128 C 599.9999998157318,317.0762248948601 599.9999992516664,315.93434555824274 600.000009948468,314.79246155722143 C 599.9999359863702,313.6506126230639 600.0003147407253,312.5085761676123 599.9987277126347,311.3673539659104 C 600.0040702851663,310.2232614296483 599.9925384809102,309.08615848910847 599.974838930652,307.95161031261205 C 599.1107626303885,307.16764286484533 598.9917055246549,306.075078362476 598.9982717187286,304.9304789855764 C 599.0010192198462,303.7874613630895 598.9999015821742,302.6460447335099 598.9989060318993,301.5045775336746 C 599.004720351238,300.3602895934872 598.9849940290175,299.2265809334259 599.0265004418026,298.06750884406364 C 598.2063202260599,297.265359042753 597.9718419961705,296.22060353539314 598.003742996623,295.0655101380915 C 598.0092369573831,293.92135489477215 597.8862966998549,292.8303988465408 597.0232088596644,292.046021965206 C 597.0049528139933,290.91170429665675 597.0256513000628,289.76125113274526 596.7815741539665,288.72047162666246 C 595.9680549013889,287.91556276407033 596.0151357516323,286.75418166711034 595.9988497916946,285.6190479623318 C 595.9841375215949,284.4832624138789 596.0655282093547,283.3076697168968 595.4118716160048,282.4365435727361 C 594.9457872793666,281.4877224559197 594.9941437878624,280.32581296401065 595.0482673839186,279.16151466621875 C 594.2876215412193,278.33470492016625 593.9570734804907,277.32974283967485 594.0091988049724,276.16627225307036 C 593.997032063395,275.02943231218035 593.9483216351522,273.90772926192625 593.0818503603398,273.12475384509935 C 592.9963498742376,272.0182897357709 592.9340858985174,270.90220074870024 592.055797219679,270.12412026089294 C 592.0014118725474,269.00476783900774 591.1690925510438,268.2076462199388 590.9706984711341,267.1479441682707 C 590.9973881804901,265.99500935841843 590.1409397950458,265.20788232488076 589.9880888901013,264.12931567246864 C 590.0015417684456,262.98186373754396 589.9178540064904,261.87464877328966 589.0405274527903,261.0961697602012 C 588.9908953105988,259.97484849636487 588.124842784784,259.19169962802397 588.0086429727587,258.097951595849 C 587.3547701026534,257.22691503645297 586.3389035773221,256.50582115854513 585.9414090867828,255.52858919723394 C 586.0741407515974,254.33173037124973 585.4404290374376,253.45234278762837 584.9222613840224,252.52509528699505 C 585.0782587394269,251.31859949643075 584.4263355485369,250.44675535346195 583.9288526582119,249.51093994342196 C 584.0567240949478,248.3160942898245 583.5429955369981,247.38700805564417 582.5045623881603,246.67526157924934 C 581.9964010729858,245.74386931760682 581.7588363602309,244.7003922733097 580.9768178486485,243.88243537657254 C 580.865080148378,242.78683907719184 580.00097066429,242.002885374615 579.9437289803366,240.88471608618036 C 579.0542526851704,240.1112696607861 578.9976451791981,238.9928376872307 578.1395680001641,238.20638532208858 C 578.0089804495976,237.11859688634863 577.3744011150761,236.23956868284768 576.3523794722764,235.52102433807298 C 575.9444349845216,234.54812090733506 576.0608963801542,233.3580014475101 575.539363189314,232.43214799812236 C 574.6528994934779,231.6574537132274 573.8192615512969,230.86087828472643 573.0149179866385,230.05216872775415 C 572.9816139283352,228.92408415012412 572.1825906262852,228.11317086822396 571.1898051400966,227.38251651086932 C 571.0144684883246,226.31326375975272 570.5464810105977,225.36523094978688 569.4867698797897,224.66229810210413 C 568.987317313607,223.72729855851736 568.812216191494,222.65794824782213 567.8856694220417,221.8998569156411 C 567.0976215569098,221.08439745891664 566.1713647017347,220.3261860403096 566.0183345444023,219.2476936366674 C 565.4633933313704,218.33567824316515 564.5336132554304,217.57892619037705 563.7659535893189,216.75502166511853 C 562.9501735900141,215.9510492344676 562.1427331355086,215.1436224512334 561.3363537213779,214.33575617101596 C 560.5283366836065,213.52856821533533 559.7211185728265,212.72104933715298 558.9136267301326,211.91364383567415 C 558.106182712668,211.1062185235798 557.2989397057092,210.29871000864975 556.4907599790076,209.49158922360715 C 555.6853903043733,208.68330529829294 554.8745071715728,207.87730350870999 554.0659427535398,207.0703419546273 C 553.29133536986,206.24932487563117 552.3367046133493,205.5028232262343 551.9999155607944,204.5005582041777 C 551.6642070915124,203.4972346017295 550.7088311879274,202.75248412152308 549.9350827869961,201.92928391831705 C 549.1281819933073,201.11837626781846 548.3023864706655,200.3483645404908 547.555090858896,199.39981902003512 C 546.5833283031657,198.98779542132064 545.541698820568,198.74605843352077 544.8249174439653,197.71967539385338 C 543.9824098542008,196.99694651939117 542.8603490613508,196.94909847637732 542.0735139975191,196.09194587085057 C 541.2660552846083,195.28458296320457 540.5095956905201,194.35409649517405 539.5150142900184,193.99848737317745 C 538.5099299329921,193.66823448795935 537.7544632184735,192.73535134091134 536.9452761652234,191.9321605520939 C 536.163421129542,191.06298443797152 535.0447326344838,191.0069962298302 534.1928921737838,190.30677987788198 C 533.4779302320206,189.27610954917188 532.4485433061113,189.00452828150094 531.4530514734902,188.6511170199272 C 530.7456416879631,187.60221417317862 529.8592178691719,186.98548943339426 528.7569647908316,186.88982261916928 C 527.9891364832089,185.98678298788286 527.1779229877884,185.18848446538647 526.408934979916,184.28824459817272 C 525.4107286525913,183.94138670652407 524.2160206590584,184.0689258024665 523.3862575745377,183.31540994955174 C 522.3774954130274,182.99403609595598 521.3978871193106,182.6022785793388 520.7015783038219,181.52657562016992 C 519.7799143951347,180.99492798335007 518.723957083672,180.78749330084938 517.9165892564415,179.97991051405086 C 516.8084408512058,179.89847627797232 516.0312637216089,179.0180066994894 514.8893571796149,179.01807181501303 C 513.7946863450346,178.90409984506877 513.0165638773203,178.0259125146901 512.260397923641,177.09471747034692 C 511.14328441640583,177.03492690510205 510.32687268275413,176.24917803984243 509.27721250267825,176.0265407373432 C 508.4086354143081,175.36673017893185 507.4138137038783,175.0117010992731 506.4900034247456,174.48523525909303 C 505.5520729210033,173.9928586566692 504.57124079586487,173.60405573046904 503.6891758767504,172.97680767596734 C 502.65393595860377,172.7193567815447 501.822597088662,171.96964521116413 500.73547999604625,171.8374368949238 C 499.9505799970804,170.9756119724118 498.7814736525298,171.04134322016128 497.74129407791355,170.7958177113818 C 496.93994324044945,169.97370862628472 495.76975844837307,170.04204347667675 494.73307739161,169.78807179864867 C 493.9300911585509,168.9699109077766 492.7571899816798,169.0448036911806 491.72718746567193,168.7747085894842 C 490.918358681243,167.9706528653684 489.7614573125321,168.00691869491706 488.6037037913289,168.04524180256968 C 487.62098185003555,167.66100129615947 486.77657027786455,166.94285002079818 485.6092124985561,167.00435985862546 C 484.4451101835801,167.05801031030882 483.51845165368763,166.53842075574255 482.63318275212,165.91890779913263 C 481.42472540755386,166.07964076481204 480.51483441927274,165.51957078387989 479.6213056292009,164.91999896212053 C 478.41271992374806,165.08104181839312 477.5110671178858,164.50108310573688 476.6016923801445,163.93976678574944 C 475.435988211276,163.99728445482478 474.2679605334823,164.0604115706606 473.4080435469243,163.3796936770027 C 472.44633884163864,162.94471307437937 471.2772615285406,163.01037423400192 470.1405313350187,162.99794253884076 C 468.99782694019376,162.9999338414887 467.8484693631692,163.01798734683652 466.77992249091034,162.84094655275317 C 465.9885193754788,161.99482154221107 464.839478700592,162.0121099781201 463.70442298817215,161.99563572797211 C 462.56066778850044,162.0001638979318 461.41701849125235,162.00443639682578 460.2838532579199,161.98339812642567 C 459.11812272880206,162.0409794347722 458.30427851258696,161.24903203409676 457.2800906627234,160.96489908653382 C 456.12199480520866,161.0040486671512 454.9817386544301,161.00012938581963 453.839968302019,160.9998657106049 C 452.6983162366192,160.99931646528302 451.5544694470195,161.00406575289014 450.42157526216977,160.98237311356692 C 449.24681255216365,161.06176003551238 448.39528975335924,160.36077677993413 447.42472013351266,159.94719797427317 C 446.2570147477126,160.0095470084063 445.1198180593419,159.9982415314358 443.97750219481213,159.9992948389768 C 442.8266865578927,160.02086841229672 441.76534476428736,159.82643301961056 440.9709791027573,158.98746022803846 C 439.8184456530724,159.01318096823474 438.6839518091626,158.9953502475095 437.5396351870641,159.00123381110785 C 436.39837811300697,158.99973097232888 435.25636776332567,159.00004670177847 434.11450966586506,158.99999486185246 C 432.9726280790809,158.99999973016935 431.83074825564864,159.00000034137852 430.68886887769935,158.99999987709677 C 429.54698924288044,159.00000003295276 428.405109689273,158.99999999274698 427.2632301154787,159.0000000012762 C 426.1213505458064,158.9999999998544 424.97947097548723,158.99999999999454 423.8375914052202,159.0000000000088 C 422.695711834964,158.99999999999676 421.5538322647013,159.000000000001 420.41195269444034,158.9999999999998 C 419.27007312417874,159.00000000000003 418.12819355391787,159.0 416.98631398365666,159.0 C 415.8444344133954,159.0 414.70255484313435,159.0 413.5606752728734,159.00000000000006 C 412.41879570261176,159.0 411.2769161323506,159.0 410.1350365620897,159.00000000000003 C 408.99315699182824,158.99999999999997 407.8512774215672,159.0 406.7093978513061,159.0 C 405.5675182810449,159.00000000000006 404.42563871078363,159.0 403.2837591405223,158.99999999999997 C 402.14187957026104,159.0 401.0,159.0 398.0000000000001,159.00000000000006 " fill="none" stroke="black" /></svg>