<?xml version="1.0" encoding="utf-8" ?>
<svg baseProfile="tiny" height="100%" version="1.2" width="100%" xmlns="http://www.w3.org/2000/svg" xmlns:ev="http://www.w3.org/2001/xml-events" xmlns:xlink="http://www.w3.org/1999/xlink"><defs /><path d="M 391.0000000000001,159.00000000000003 C 390.2551202549247,159.93753773840643 389.1505979891867,160.00682162582314 388.0144871245503,159.99984388936278 C 386.88119086640666,159.99966121407007 385.7484218961725,160.00075152439973 384.61337062258775,159.99633186702647 C 383.48864679042083,160.0168448587895 382.32121496800613,159.93425164127396 381.4499171588818,160.56658917492447 C 380.52216917474044,161.06264393045072 379.3557347928608,160.98245874740275 378.2369193283642,161.01723580052675 C 377.083632791619,160.96879232351813 376.281084945494,161.76710695025417 375.26439835570955,162.0484449178181 C 374.0948011880784,161.96062409451417 373.2956272354553,162.76708402070068 372.2726359501165,163.03320110675048 C 371.12429643377413,162.9967007934922 369.99250831843733,163.00015909701784 368.8520765657036,162.9827498139111 C 367.78838647247386,163.1506112859784 367.00585196465977,163.997242385493 365.86941460207134,163.98947641324847 C 364.7426232814017,164.00499804622822 363.60530085506593,163.9950953410813 362.48113933123886,164.01696586526452 C 361.31419353582936,163.93554602073692 360.44214571463255,164.56607286507005 359.5212141065666,165.07858380816353 C 358.32236356571445,164.92013909448397 357.458232699781,165.56977915958657 356.5263501172564,166.05585211162096 C 355.37250433179923,166.00605848878743 354.2120404095254,165.94028727029357 353.3884491755383,166.68779866465442 C 352.3783268576341,166.98498418641876 351.46411145975884,167.51370949524218 350.5586508202659,168.0635706604877 C 349.400269261427,168.00282671204047 348.2415991737956,167.941386193469 347.3968753618467,168.6378790315067 C 346.43405987871523,169.04927335537215 345.28323872524254,169.00678184009678 344.12965452998606,168.95761975187358 C 343.31867103623614,169.73556892370638 342.3092190230605,170.03437270423683 341.1650114834292,170.0078478651942 C 340.02395633563503,169.98893357327782 339.24672936616355,170.84837820384217 338.1643585417463,170.97114040132146 C 337.34155540202863,171.7205544235559 336.31716667621527,171.98329778985973 335.4213594481813,172.55646435197278 C 334.50572889103364,173.08177316408768 333.30559925858626,172.92024045013162 332.44748033588166,173.58439463011365 C 331.5091403545144,174.0548780422843 330.35526426638074,174.00501126231828 329.1981179046901,173.94724934357833 C 328.36275167514407,174.66633338396412 327.39598104477886,175.06817913773654 326.2057056374344,174.9304366276707 C 325.386145605799,175.68768020542197 324.38431522401527,176.0048842318266 323.4124660117439,176.39446920428375 C 322.7065077259547,177.42597165756612 321.8282865211352,178.04159463543166 320.6553551450776,177.94572432092488 C 319.663703111393,178.28750105335266 318.8482720596214,179.0547128702899 317.6684744052178,178.942265893477 C 316.6743221251176,179.27800649709943 315.86151130820423,180.05154412056808 314.6829485188154,179.94207837162142 C 313.6903423538799,180.28155162744352 312.86708651638855,181.0298727405732 311.75609536534716,181.0835393573569 C 311.00146722240083,181.99754238141173 310.248161467454,182.91473793250964 309.13721121340905,182.96850328337686 C 308.3168531469136,183.72382023454588 307.3131107805424,184.0364083218281 306.1678814446615,184.00741664842147 C 305.02664965157834,183.98807589705262 304.24586385221255,184.83892875222008 303.1736826414611,184.98629085320636 C 302.2933935803963,185.59692158447942 301.5286662014764,186.4865428960773 300.7403412550315,187.31919464011736 C 299.9022283766283,188.03164768358135 298.73639630955853,187.95291661711616 297.72457119532817,188.24599122489585 C 296.9111609034907,189.01808158787222 295.8151090629584,189.10781489069976 295.0435906242127,189.98104113356328 C 293.92598167113744,190.018730962923 293.12907339953597,190.8306607269601 292.33507383211753,191.64961272408442 C 291.58235378692626,192.5682223036178 290.626852191253,192.99727391377886 289.62967361390236,193.32570838953484 C 288.78802647245413,194.0296289672227 287.7177832923064,194.181669887976 286.9359107705391,195.02989916318492 C 285.7748888077224,194.96278071563347 284.72570171731746,195.16565553388918 283.9575662779827,196.04704905970826 C 283.1480060597152,196.82843432218147 282.4055054409431,197.77171578197462 281.3528363170632,197.96618422095463 C 280.4660472851336,198.56112266632755 279.51547153934285,199.00206624024463 278.55238571211834,199.41280829537735 C 277.6770998007029,200.03551668712282 276.6162391249653,200.21021337826915 275.8710702135703,201.14704376046288 C 275.061181489082,201.9276339578393 274.31086595819875,202.85213239852985 273.2233046038192,202.9621182944773 C 272.38429613796205,203.67372762246424 271.38166005962165,203.98507898553862 270.4646688377572,204.52548768494688 C 269.5616714809582,205.03009144915038 268.4324786243323,205.26640082825278 267.9863416981301,206.3177010631158 C 267.8250824832706,207.43559062802177 266.8216393949909,208.00797090817002 265.76994174013794,208.16319018819848 C 264.9805823477575,209.00697282814136 263.8580018113527,209.03490017321377 263.07051624629383,209.87454874153045 C 262.37539644829394,210.86330143818157 261.1897023273127,210.93838555989063 261.00670785221604,211.84543661207167 C 260.3720798615675,212.74867757102695 259.49450143556646,213.49623012792387 258.6249665380104,214.27755282587813 C 257.9872294131203,215.1446376417022 257.8496869312503,216.22120054042313 256.9993134464198,217.00207258858939 C 256.9494234860894,218.11468245332497 256.07454331441016,218.88562444960056 255.99867295879187,219.98720389790685 C 255.99984633900408,221.1186836776505 255.9779777602071,222.2644198396564 256.16802309297657,223.31740197957663 C 257.0975251671837,224.0661294159614 257.93499070018163,224.8524363258637 258.00726396173627,225.95569180581526 C 258.0431039390328,227.07406762887769 258.90575986980843,227.84996472164488 259.0061551660599,228.94160081318495 C 259.0012223250854,230.07686462780222 259.0061340499312,231.20805069880555 258.9556115920069,232.36219838601005 C 259.29921120109634,233.35309535651126 260.0603526971807,234.1710408184889 259.9360440397991,235.35575174170503 C 260.312150748935,236.33318383349615 261.0327007914484,237.16794282506024 261.1041964996175,238.27154892464796 C 262.0319191510202,239.02049421187513 262.9032182330768,239.79281090676378 263.0191842875001,240.8779967858067 C 263.0081099405958,242.0158045220489 263.8588838666842,242.79662301490947 264.016358088897,243.8646156479046 C 264.0002546967393,245.00450648289635 263.9823515873731,246.14514278516455 264.14733361612474,247.21002558286762 C 264.9958519217297,247.99177838432402 264.979362411834,249.13182915451966 265.10126558173357,250.21455579981077 C 265.9768007336949,250.98511785709383 266.90031656964965,251.735805664335 266.9679924886139,252.84099397241383 C 267.695706890641,253.67278538911972 268.0622317375659,254.6541864181366 267.9425027507988,255.83700037982467 C 268.70056199813376,256.6562225500561 269.0614628825179,257.6399531006315 268.9401663344121,258.823416367486 C 269.68801979835473,259.64686591161313 270.0646522308791,260.6240802415915 269.9339093246771,261.81145631808454 C 270.7025354892994,262.62630152786306 271.0032687475176,263.6349543252123 271.40712165025633,264.60089356725405 C 272.4484352011206,265.3027879633629 273.0344266939297,266.19328293116604 273.00010911368184,267.34071832989247 C 272.9446002422553,268.4969314488292 273.40620204327774,269.43895031398984 274.07769662298836,270.29402874357334 C 273.92420084437583,271.49082936840165 274.4048147220727,272.42497317355486 275.07131425680785,273.28212061851195 C 274.9438690232773,274.46813075426 275.2910355471392,275.4575502632344 276.28316846219036,276.1798159457031 C 277.00215315534155,277.0152233262212 277.06727569301603,278.1214692794603 277.9479083329595,278.8899198880871 C 278.00042400882984,280.00138777446426 278.8369846733748,280.78809359302517 279.016116177399,281.8471154861594 C 279.0010170116002,282.9865903569836 279.0589217680556,284.095826013214 279.93665675772445,284.8654768682608 C 279.9926508566886,285.97550394378715 280.829125650405,286.76224534258415 280.9925754911377,287.82776275953364 C 281.5607985420288,288.72561786243205 282.6260309519779,289.41760391339443 282.99163354983,290.39938893379764 C 283.3256269561339,291.3942563899985 284.06924574865405,292.21947943217083 283.9429038937698,293.4049548369084 C 284.2724871407251,294.4020959287153 285.1829419152183,295.15718186659814 285.96803932973756,295.96546452544874 C 286.761470278701,296.777044247376 287.58461181258104,297.5346057811994 288.33072182613347,298.46531531897523 C 289.2384741240288,299.0106926445554 290.29067450086325,299.2060864977954 291.0815337610621,300.0327037028805 C 292.23492968565597,299.9838984346006 293.3595539261341,300.0052200337839 294.49477601523836,299.9975907111342 C 295.62977563658956,300.00492320025614 296.7548432785364,299.9846171693993 297.90816995177113,300.03325987444526 C 298.71301168201427,299.240460659316 299.72560022648577,298.9492424845873 300.8979004193266,299.0435869303576 C 301.6911828137786,298.2229039867533 302.7340459710286,298.00476157860146 303.66611811621556,297.51914633316346 C 304.3567727072974,296.4506974619243 305.30256352260636,295.9982019630426 306.3331022665995,295.7503060522587 C 307.133413824776,294.94659254941695 308.3130196212736,295.0585763401875 309.30594206682827,294.7198666533589 C 310.12964783409194,293.97263176677643 311.23434065117686,293.90375962673653 311.9955049873038,293.0055363689042 C 312.8015715908625,292.2157167740871 313.5517077925563,291.2908692445391 314.56445731111705,291.000026346231 C 315.5523263961171,290.64911676778286 316.25248056906713,289.60360194656687 317.129920120244,288.9860918898763 C 318.2271302084101,288.89915484419515 318.9919349218621,288.0097202346733 319.79904094162316,287.2224100125495 C 320.5440995820102,286.2853041656307 321.5675718107014,286.0203481795448 322.5016018269222,285.53945959106414 C 323.37603363911717,284.91468821013177 324.5797838890701,285.0849618679739 325.4703418949305,284.4991225624978 C 326.38658231566467,283.97528609132434 327.42493260457053,283.74624891999053 328.17035811034646,282.81002876446917 C 328.9786991264279,282.02570008721096 329.73538118834784,281.1166556621984 330.8329309941354,281.03053876740637 C 331.66871676140556,280.3124675806841 332.64565253551496,279.93516265480275 333.8316873293921,280.0626674183227 C 334.63966262773687,279.27745582034476 335.65981183705003,279.0044773558085 336.60205988190637,278.54342884351587 C 337.3539845082777,277.6228989530793 338.15294363394145,276.81592038873464 338.9558881897667,276.0185635039369 C 340.0877214077482,276.01521408782827 341.1676009123029,275.8864373121484 341.94617394506975,275.0302423658481 C 343.0725846223883,275.0138017785284 344.1564684815641,274.8946923700835 344.9346583386901,274.03757235595367 C 346.05694986065345,274.01118724790945 347.1431995798078,273.8977895307114 347.9192841659736,273.03558694287756 C 349.0349968920275,272.99331921652475 349.8526306580902,272.2314252223035 350.58155777081214,271.2553744225136 C 351.587175973934,270.9473150057555 352.7695624939665,271.0660120570808 353.61011212440417,270.35944185342686 C 354.56526000261135,269.9295362937623 355.75703239007794,270.0708928335416 356.60003934524264,269.37025513657096 C 357.54973872473687,268.92719573741863 358.7448420767979,269.07659393709747 359.57964882053903,268.3561591784937 C 360.5606142083299,267.98858260061246 361.55338218623035,267.6494999958453 362.2572341864417,266.61291251935495 C 363.1256331871734,265.97357664316814 364.27041870018616,266.0014968333877 365.4234719364363,266.0493770731766 C 366.3905014129511,265.6481562292891 367.2299508989331,264.93893004196946 368.3973611444367,265.0214711682131 C 369.51289330113735,264.97876750887895 370.6824944470842,265.0665979366866 371.55206738098195,264.4300961858708 C 372.4812904652447,263.93760263706423 373.6476942997538,264.01771407223526 374.7660955931405,263.9819371216008 C 375.9201665011966,264.0322742384661 376.7111597044454,263.2060642361897 377.7619790721514,263.00713008400544 C 378.6805323406418,262.4888773212531 379.38408673312404,261.4515713561464 380.31206764603564,260.95607894041706 C 381.4683752748086,261.0118159787719 382.59512134189623,260.996185093981 383.73194444459494,261.00488232523105 C 384.8585259458685,260.98885414341953 385.99694616804635,261.00140716217686 386.78084979515967,260.1580814090433 C 387.84074410706444,259.98105611022197 388.9820285038259,260.0005238581034 390.1153212719302,260.0006981076962 C 391.2481257816381,259.9996935972461 392.3815111607757,260.0000914296512 393.51468459199714,259.99997757452235 C 394.6479163898925,260.0000046290094 395.781134750448,259.99999924288846 396.914355685337,260.00000007175805 C 398.04757625077804,260.000000008702 399.18079683589553,259.99999999314866 400.314017431275,260.00000000236986 C 401.4472380215897,259.9999999993633 402.5804586134723,260.00000000014455 403.7136792049632,259.99999999996993 C 404.84689979653075,260.000000000012 405.980120388095,259.9999999999946 407.1133409797084,259.999999999865 C 408.24656157072013,260.0000000011891 409.3797821656099,259.9999999931496 410.5130027410938,260.0000000319604 C 411.64622339795545,259.9999998743075 412.7794437721155,260.0000003991581 413.9126648483836,259.9999992289684 C 415.0458859076175,259.99999809990356 416.1790926573469,260.000031517038 417.312414869382,259.99978618350895 C 418.44509206156755,260.0010980656483 419.58071767866886,259.9952918203683 420.70500302646695,260.0168634070411 C 421.863896051832,259.95488466916925 422.67677729706986,260.7282522636214 423.6804190215764,261.0410833218585 C 424.8340326946354,260.99185006792493 425.96273972540195,261.00274676760705 427.0843475098956,261.0307825639234 C 427.8858107806245,261.83171558728986 428.62717143001555,262.777749174225 429.6482065759108,263.04858879864895 C 430.82561800592674,262.9419026771159 431.6463158894646,263.696399237372 432.6344713603783,264.0466174190632 C 433.79164226379334,263.98879625135936 434.9170149158675,264.0077428533023 436.0441753066049,264.0223734723191 C 436.82422249001405,264.8750095041458 437.89755590522486,265.0195899375005 439.0318018411871,265.0171145371381 C 439.8123013700382,265.86865851047156 440.8826979273279,266.0203291460293 442.0208547985115,266.0084119128139 C 442.8289573882545,266.79331620177066 443.62655718144913,267.6035764874907 444.3792130070862,268.5223410982436 C 445.31330943761515,269.00306936667 446.33249935711166,269.278363683701 447.15578283108164,270.02661823012033 C 448.23681407475914,270.1526137688047 449.0165399755999,271.00602617802883 450.1359020074983,271.0394796257329 C 450.9182049710699,271.8866634983387 451.69825988551503,272.7393718297263 452.52855787845675,273.4703118606173 C 453.2785535941453,274.39654053493473 454.1561875530701,275.01193321648196 455.23307554450884,275.15514961377386 C 456.0114833050687,276.0044592678799 457.1508006496483,276.03104388976425 457.9691107776718,276.86284756824597 C 457.99982328691294,277.999274453541 458.75281663213786,278.8233159362944 459.63790287760776,279.5619723409753 C 460.3618404725506,280.4999980455893 461.27195273172293,281.0215611394856 462.4113791762511,281.1585846580093 C 463.0150191132633,282.14539642412865 463.0886774018936,283.23508348525047 463.9939358994698,283.99652145303486 C 464.9215129487367,284.7244233169395 464.9501539432009,285.9084214225837 465.97863745128313,285.9973627315694 C 466.7933674038816,286.74050946030036 467.6991264115581,287.5634940386494 467.9783903555602,288.55542697778554 C 468.4753609390414,289.4890992040128 469.03515251038107,290.3869608546579 469.2235103257471,291.4486842532604 C 470.25328632611195,292.1408065644502 470.99681762775083,292.97253537077773 471.05683371864524,294.0385899184891 C 472.2674488709566,294.0552102779678 472.9950521222162,294.95729790360343 473.03663397629094,296.0750486206995 C 473.9027838290828,296.8503595076783 474.00508335738203,297.9429224316724 473.9930063463516,299.08107051315415 C 474.10641772350715,300.16725724290063 474.96796289406063,300.94363545158643 474.9882952452236,302.06843620794183 C 475.082841803419,303.1624952886332 475.93328805692676,303.94344914494206 476.73014630777595,304.74660007767005 C 477.6337694658043,305.50552783679274 478.04928836781727,306.466634815405 477.98493080221124,307.6265131923379 C 478.0176775767677,308.74616962391593 477.96391381709856,309.9016598942019 478.7614098113068,310.7045468289543 C 479.03443647989104,311.72467607153646 478.995799857368,312.87390047614355 478.9999601168516,314.005397831803 C 479.00021504043104,315.13851283055885 478.99991484197966,316.27185776838866 479.0000243983033,317.4050329802335 C 478.99999419229687,318.5382660835308 479.0000011589172,319.67148378942215 478.99999982120573,320.8047049350803 C 479.00000001353607,321.9379254469742 479.0000000033364,323.07114604275887 478.99999999802657,324.2043666365182 C 479.0000000006438,325.33758722699406 478.9999999998327,326.4708078188899 479.0000000000368,327.6040284103654 C 478.9999999999934,328.7372490019431 479.0000000000009,329.8704695934998 479.0,331.0036901850602 C 478.99999999999983,332.1369107766199 479.0000000000017,333.27013136818056 478.9999999999899,334.4033519597354 C 479.00000000004513,335.5365725513183 478.99999999982793,336.66979314278814 479.0000000005184,337.8030137346341 C 478.9999999991868,338.93623432564243 478.99999999589903,340.0694549158404 479.0000000499736,341.2026755297987 C 478.99999968224074,342.3358959690387 479.0000015752759,343.46911734471934 478.9999934437351,344.60233456808464 C 479.0000226035265,345.7355672380256 478.9999445794208,346.86875551094283 478.9999959738759,348.00199739078295 C 479.00119949180544,349.13571649579177 478.99048399520007,350.26449858333024 479.0525880820376,351.42344352993695 C 478.64745571187495,352.3888527992191 477.940090874595,353.22907328163194 478.01707321866445,354.39418100416793 C 477.99872305010734,355.51980070704275 477.98904130449847,356.6490109882511 478.0368840508102,357.802048694237 C 477.45193789578525,358.69297665485794 476.41226351216403,359.3955500173068 476.00255173798945,360.3590624329611 C 475.70725824673406,361.36996846575386 474.93482933829364,362.1832385056048 475.06468483826444,363.3702470961214 C 474.68803590521395,364.34745407055095 473.9480173811025,365.1741500534148 474.020297741442,366.33730557612125 C 473.97971612576293,367.4537401704292 474.0672337537378,368.6231101811385 473.47987686637583,369.5135962068556 C 472.93776113268166,370.4207209839026 473.0048101896089,371.58715835172126 473.03207390614995,372.71171556112137 C 472.5608710860877,373.7658542374196 471.3327000948969,373.9433510175515 471.0132224041638,374.66596183649716 C 470.39374657067464,375.6021987593236 470.00192302152095,376.54864019241893 469.54528764609523,377.49826511598394 C 468.9333116442085,378.37599752081485 468.9989994824266,379.5367919468689 469.06453344203635,380.6970722128032 C 468.4010771263499,381.5555026836391 467.9808416740861,382.5146470919938 467.68939546427856,383.5271487542368 C 466.6354654788011,384.2238164584722 465.9924153016434,385.09067711745774 465.884908368265,386.17936685756064 C 465.0176551818684,386.95335942510155 464.97129323295115,388.0673762690648 464.0917685994077,388.83628582901645 C 464.0154685255185,389.93790189538737 463.2024285143425,390.73435028751936 463.00517993405305,391.78586784199945 C 462.4766439869226,392.7001616760307 461.40476454833276,393.3893952669707 461.00809428592413,394.3583096558921 C 460.684331345804,395.35742324733553 459.9733526563259,396.19614682171516 459.81436901050785,397.2635142373656 C 458.98545764834944,398.0533884919312 458.91591637755965,399.1578041900919 458.0353216808852,399.9262705326395 C 457.9908319150992,401.0410629171126 457.20192965387616,401.8475111833346 456.3750346878735,402.6382093203606 C 455.4628147604669,403.39361588460224 454.99863840378697,404.33448027075167 454.70481960724265,405.34637334120043 C 453.9722826726329,406.17539355646886 453.83509318664284,407.2552434932097 452.98722682836154,408.0330228858122 C 452.96824418114926,409.18060129764604 452.1241923432467,409.9836193841339 450.98983663734765,410.012174490064 C 450.96773664055405,411.1592437107516 450.12269673033586,411.93216727493433 449.14330453234635,412.6517773694892 C 449.0408119179993,413.7470225867391 448.3598803020635,414.59716637700296 447.9908853215543,415.5779830757776 C 447.6165256899654,416.55602765689 446.65386362002806,417.2905723228089 445.9035335541113,418.11293807835614 C 445.1077265732014,418.9164919253575 444.1646075600562,419.65958807519024 444.0373166203249,420.7385495847474 C 443.3684702180483,421.60258158325814 442.98455145083,422.5537619855135 442.65055797868126,423.6547245173933 C 441.57146588419135,424.00606805668446 440.4664345819411,424.2438426467698 439.9992907063428,425.2958452615237 C 439.75150149832126,426.30457861071056 438.97050731866784,427.1215417627929 438.9120236915935,428.22946720130494 C 438.0125647386499,428.99049204272137 437.19438281732874,429.78487264781364 436.4175692195711,430.59624427496914 C 435.59721896952027,431.38970246782105 434.81795193331146,432.2001286471257 434.0045910553335,432.9964461159209 C 433.10475904121995,433.7569443441296 433.01852297290486,434.85444450551404 432.38088803747496,435.72354813614714 C 431.47752837698346,436.482584806376 430.7075997546891,437.2968906880882 429.90765084444945,438.0987613625422 C 429.11749239554035,438.90468738951955 428.18438125466247,439.651403464762 428.01767429383233,440.71556374406214 C 427.5010213643646,441.63482011204894 426.57313554346536,442.38355736384057 425.8060284821263,443.19933123800195 C 425.0010290986957,443.99891950755995 424.2242789579554,444.80888699263335 423.2809109219076,445.55986918254655 C 423.0010138262053,446.5539205684429 422.6484374379502,447.64666977027866 421.5783402976994,448.00669243669404 C 420.4780582920866,448.2418767236725 419.9870897792105,449.28402045892517 419.8245028552733,450.32802653894873 C 418.89635089496215,451.08431650244023 418.1026724122751,451.88831905375537 417.31549542778237,452.6947827087358 C 416.49656906823014,453.4892758248259 415.72502383676783,454.3026329838886 414.88324793651924,455.08739072852006 C 414.04240241150586,455.87249081102505 414.00232761888213,456.98876478973045 413.2610607544898,457.8210341408689 C 412.3576289831781,458.54624502462707 411.67914798800894,459.507920728522 410.68161868173155,459.9926886969294 C 409.9485644782933,460.32782927441036 409.753599002315,461.46925497152506 408.7857511175583,462.1693090484776 C 408.0117431616088,462.98730299619643 407.2079623249274,463.78852267242877 406.43976252500187,464.60233642806486 C 405.51525348905534,465.35316015320933 404.9814142106782,466.2651032418061 404.82772682438855,467.3346943841651 C 403.89722618586103,468.0824786929022 403.10375676333354,468.88703411316214 402.3143410683945,469.6932689655924 C 401.5054676184376,470.4914426005524 400.7069406073339,471.29390269667743 399.90495791242034,472.0949311242534 C 399.1036970661696,472.8962586088549 398.30244736513356,473.69759072676607 397.50110207552564,474.4988831688943 C 396.6998057220898,475.300196102941 395.898498260033,476.1015040363755 395.0971940207693,476.90281333923974 C 394.2958389752419,477.70410462117667 393.4947249371489,478.50548136256265 392.69289131467605,479.3066028749645 C 391.89240172684856,480.10820112655045 391.09167279496296,480.9097144812185 390.2812927265756,481.7078044660799 C 389.5177947861928,482.5225240840992 388.6127306531222,483.28702853551755 387.9787757510053,484.1478775972059 C 387.90737821928127,485.2943399083243 386.98533783489955,486.0022154937908 385.8745379589603,486.0446150710663 C 385.0873295181869,486.8856723004996 384.2996624066674,487.7254364490668 383.48901814788434,488.50042360948595 C 382.6912548469374,489.311724662292 381.8890522222687,490.1105104094855 381.08782510116583,490.91204628846026 C 380.28658390591994,491.71354248972386 379.4852287128322,492.51471730919206 378.6839389236586,493.3160765148474 C 377.88262629911907,494.1173713432233 377.08131879208025,494.918680598815 376.28001115323855,495.71998948283004 C 375.47870294959466,496.52129677455923 374.6773950778829,497.32260500206826 373.87608708875956,498.1239128985721 C 373.0747791264541,498.9252208706805 372.27347116316975,499.7265288400293 371.47216319709054,500.5278368014983 C 370.67085523269753,501.32914476772174 369.86954726769596,502.1304527322292 369.068239302837,502.9317606971391 C 368.2669313380028,503.733068662118 367.4656233729908,504.5343766265968 366.66431540850357,505.33568459255423 C 365.8630074429623,506.1369925555396 365.06169947798446,506.93830052011407 364.26039151884993,507.73960850116237 C 363.4590835280539,508.54091639295024 362.657775638511,509.3422245701906 361.8564675388661,510.14353215511204 C 361.0551595667308,510.9448400995077 360.25385269490846,511.7461511459055 359.4525396922847,512.547444908351 C 358.6512465543546,513.3487946733309 357.84991145922896,514.1500261526073 357.0486047079862,514.9513375389427 C 356.2475047248982,515.7532318459467 355.4452182047094,516.5517810682097 354.64682724771706,517.3613126600894 C 353.84006475140706,518.1472432129376 353.0395109053859,518.9506771892592 352.27772779094244,519.8634135906816 C 351.21475614254666,519.9861281592162 350.19631671712096,520.5284143538465 350.01847586277336,521.6633612501004 C 349.5547613125328,522.5944263727642 348.6092982767792,523.3183451669249 347.864809713959,524.1888668824405 C 347.05676584153576,524.9836096087629 345.9303040724536,525.0137487250357 345.0584174200786,525.7863445572652 C 345.01351583586285,526.9282712469787 344.31714874252293,527.7738358551195 343.415197524516,528.506196025655 C 342.68936507738636,529.432542355715 341.8046790839616,530.0226827745496 340.65937591449836,530.1150309843318 C 339.99203753255,531.0656351699907 339.93214190715094,532.1575592426265 339.06752409678654,532.9342154810295 C 338.29127071197587,533.8472146626702 337.2222274413446,533.9793201798608 336.3568509802543,534.5626365634993 C 335.47161133733573,535.4246845396017 334.9844386969407,536.3311032938545 334.7780001708109,537.3650725128748 C 333.8574433268474,538.1567011380557 333.07698489452525,538.9752638292841 331.96013759999636,539.0097012531545 C 331.14532415242815,539.7906365960558 330.40844316471544,540.6681448901115 329.4623630482708,541.3908948676449 C 328.9803686134502,542.3152374927798 328.81669894703566,543.4524970226495 327.8076967451671,544.0139741807468 C 326.7387936069572,544.1248825568225 325.97480745350293,545.0314757130685 325.1748101950873,545.8368180696035 C 324.37208939587043,546.6319386639567 323.5582469135502,547.4055455405903 322.79175317979707,548.2874155461734 C 321.95579861936875,549.0081649789382 320.8496574342727,549.0589325192655 320.0767929535238,549.9190844370853 C 319.16353312654866,550.6978244073013 319.0200957540071,551.7616022481993 318.4518098322962,552.6332377284884 C 317.58354641978883,553.5141943421148 316.6888759810435,554.0180957545263 315.6263070478033,554.2033844709804 C 314.8840797525498,555.142220051645 314.0763247136126,555.9285206372468 313.275010970475,556.7298136090783 C 312.4597346887017,557.4986129589277 311.70519114205933,558.4087597237864 310.8217810700127,559.0188244507613 C 309.7454887579504,559.125894426821 308.9711021045929,560.028763916992 308.09055665538585,560.8062866803854 C 308.01147466471156,561.8840518086387 307.3854295047432,562.8602271919444 306.2418226301861,562.9773274428934 C 305.34199169027073,563.5260764558416 304.6173956177852,564.459826694479 303.7256040490303,565.1956938613969 C 302.99383520459577,566.0279882206939 302.9588733042799,567.1662254185555 302.1184558357508,567.9737636515442 C 300.98532678571246,568.0038228329934 300.1719703383073,568.7710657169412 299.3931186281882,569.636275760414 C 298.5843356577444,570.4145086940719 297.7776305381716,571.2050471939248 296.9831662097873,572.0219436607093 C 296.21971363181535,572.9113486465563 295.1119222414202,572.9821199593595 294.2865270895722,573.6595368712343 C 293.3800513367558,574.4952797108195 292.99464786186184,575.4467928134568 292.69850079125234,576.4390302744798 C 291.7809133648224,577.2521276819374 290.981581798616,578.0042496348555 289.8637097617333,578.044887044482 C 289.08144122281914,578.8905132251949 288.29691310112906,579.7309049726148 287.4828965193053,580.5025302073267 C 286.6891906920438,581.321808579487 285.8816537059146,582.10817614264 285.07763567572465,582.9029321497766 C 284.3293220595283,583.8321713359096 283.25784112556346,583.9812330368154 282.3481230117312,584.5207881624394 C 281.59842899691176,585.4467993396187 280.78106864737947,586.2091394136025 279.98263699735804,587.0175678680566 C 279.1803868488788,587.8175069385866 278.3858355965272,588.6295472696694 277.56004498586015,589.3906943245645 C 276.81435301029927,590.2836276403394 275.9636871189296,591.0035668062002 274.950261368769,591.1019587096081 C 274.9044659387669,592.2856871780134 273.9831686351126,593.0112040359295 273.1632237445155,593.7828387768627 C 272.43256957128125,594.7380831308172 271.4238508146856,594.9978855707112 270.3344646221712,595.3584861086143 C 270.0032616174503,596.4639913522282 269.69946300493075,597.4241747561251 268.78631040742937,598.2486113376101 C 267.9875277616868,599.0029022200378 266.8694204516807,599.0425189679079 266.08570927756506,599.8847815588651 C 265.3015022728109,600.7258906663369 264.48850091069386,601.4999815265334 263.69162847139216,602.3116180584639 C 262.88920518067334,603.1103217925183 262.0880010178146,603.911865859748 261.286729072984,604.7133489023089 C 260.4855620866431,605.5146020827419 259.68372479977114,606.315734335982 258.88330465755604,607.1173988913312 C 258.0824582898789,607.9188991499597 257.27202778775853,608.7164292181066 256.5096786071941,609.5338738683071 C 255.59949250056445,610.2900832514174 254.9806309302834,611.1669629325432 254.88467854950017,612.2604387557169 C 253.9769538460403,613.0176674610937 253.16188252411428,613.8132744565846 252.41636480351488,614.6376914978052 C 251.47643345900246,615.3815797785106 250.9805232744817,616.3093876459994 250.81959267609292,617.3759486010904 C 249.83406749114084,618.1009512949881 249.02358474400893,618.8984589406161 248.99296073922184,620.0189946540587 C 248.15287626690673,620.8042408636464 247.97245958209822,621.8627304174804 247.9966540393438,623.0059726813656 C 247.12576650490013,623.7784598448573 247.0243167635961,624.8696585776702 246.27333180206114,625.6918110130239 C 245.96387561565717,626.6968506552147 245.99346518065215,627.8423276459004 246.00794287385463,628.9815450943366 C 245.1716794225609,629.768374022654 244.9784007927672,630.8215359844361 245.00108027998652,631.9641507271897 C 245.00061222036265,633.0971774421055 244.99970279824322,634.2300213386897 245.00009178014366,635.363403051828 C 244.99997695519824,636.496576081338 245.00000487651278,637.6298082382856 244.99999917000804,638.7630264661336 C 245.00000008910266,639.8962474383951 245.00000000559785,641.0294679953657 244.99999999356788,642.162688581943 C 245.00000000234428,643.2959091771381 244.99999999935335,644.4291297674591 245.00000000014936,645.5623503593488 C 244.99999999997135,646.6955709508348 245.00000000000418,647.8287915424083 244.9999999999998,648.9620121339664 C 244.9999999999999,650.095232725526 245.00000000000014,651.2284533170863 245.0,652.3616739086461 C 245.0,653.4948945002056 245.0,654.6281150917657 245.0000000000001,655.7613356833256 C 244.9999999999999,656.8945562748855 244.99999999999986,658.0277768664453 245.00000000000387,659.1609974580036 C 244.99999999997243,660.2942180495764 245.00000000014572,661.427438641065 244.9999999993612,662.5606592329494 C 245.00000000235147,663.6938798232707 244.999999993349,664.8271004185594 245.00000000735247,665.9603210043191 C 245.00000007895716,667.0935415662191 244.99999921400337,668.2267625160547 245.00000472063385,669.3599808266936 C 244.99997737953527,670.4932127433075 245.00009129273877,671.6263861504725 244.99969848875102,672.759769446775 C 245.0006592956598,673.8925920590742 245.00075963289316,675.0257710895901 244.9799772976419,676.1676000064487 C 245.16340708948806,677.2248414889732 246.0044272911722,678.0097001082765 245.98717538891216,679.1500666631808 C 246.01416479121573,680.2721079500762 245.9460646912465,681.433536118657 246.35535872002265,682.3972238666204 C 247.07088178899446,683.2340597070645 246.9302289043838,684.4255620032133 247.3517897489643,685.384046896347 C 248.06553171284347,686.2219010042556 247.94441798260488,687.4041876478036 248.27005619750372,688.4087330991748 C 249.1877740547123,689.1474717133092 249.97097355845978,689.9600666651781 250.71869679271703,690.8825231790142 C 251.82114106962453,690.963224562124 252.64407382397337,691.7108885756444 253.66503072875443,691.9826058409673 C 254.56300054342748,692.550393409468 255.4849131688322,693.0605976289797 256.6415273766405,693.0041091659386 C 257.7988559006673,692.9459097618952 258.6316195591959,693.671276401349 259.6082524373957,694.0493128364942 C 260.7653838131833,693.9915870528707 261.8947429923609,694.0009093341278 263.0283177093903,694.0000543989647 C 264.16158757562243,693.9999354392911 265.29477164701905,694.0000236068327 266.4280047075427,693.999993504068 C 267.5612220349031,694.0000013845485 268.6944431312531,694.0000001658759 269.82766430815633,693.9999987527324 C 270.9608838002292,694.0000014071286 272.0940985799801,694.000015438077 273.22738897954355,693.9998469066475 C 274.3601657742354,694.0009183270661 275.49558807177567,693.9956029386273 276.6196421079251,694.0177329610193 C 277.78444117579625,693.9414957752296 278.6203360751788,694.6593034937257 279.591322291937,695.0509719216548 C 280.7493773063309,694.991016321236 281.87843725752344,695.0010609956388 283.0120874826567,695.0000237684388 C 284.14534263744156,694.9999403254325 285.27852896429005,695.000023047764 286.4117618080686,694.9999934682912 C 287.54497905552785,695.0000015416639 288.67820041182216,694.9999996954313 289.8114208581155,695.0000000461359 C 290.94464147011513,694.9999999967902 292.077862060746,694.9999999990329 293.2110826516818,695.000000000539 C 294.3443032435368,694.9999999998271 295.4775238350065,695.0000000000447 296.6107444265888,694.9999999999902 C 297.7439650181441,695.0000000000018 298.87718560970467,695.0000000000001 300.01040620126446,695.0000000000001 C 301.14362679282436,695.0 302.27684738438427,695.0000000000001 303.41006797594406,695.0000000000001 C 304.54328856750396,695.0000000000003 305.67650915906387,695.0 306.80972975062366,695.0000000000001 C 307.9429503421835,695.0000000000001 309.0761709337435,695.0000000000002 310.2093915253034,694.9999999999999 C 311.34261211686317,695.0 312.47583270842307,695.0 313.6090532999829,695.0 C 314.7422738915427,695.0 315.8754944831026,695.0 317.0087150746624,695.0 C 318.1419356662225,695.0000000000001 319.27515625778227,695.0 320.4083768493421,695.0 C 321.5415974409019,695.0 322.67481803246187,695.0000000000002 323.8080386240217,695.0 C 324.94125921558174,695.0 326.0744798071415,695.0 327.2077003987013,695.0000000000001 C 328.3409209902613,695.0000000000002 329.4741415818211,695.0 330.607362173381,695.0 C 331.74058276494094,695.0000000000002 332.87380335650084,695.0000000000002 334.0070239480605,694.9999999999998 C 335.1402445396204,695.0 336.2734651311804,695.0000000000002 337.4066857227401,694.9999999999999 C 338.5399063143001,694.9999999999999 339.6731269058599,694.9999999999999 340.8063474974198,695.0000000000001 C 341.9395680889796,695.0000000000001 343.0727886805396,695.0000000000001 344.2060092720994,695.0 C 345.33922986365934,695.0000000000001 346.47245045521925,695.0000000000001 347.6056710467791,695.0 C 348.7388916383389,695.0 349.87211222989885,695.0 351.0053328214587,695.0000000000001 C 352.1385534130185,695.0 353.27177400457845,695.0 354.40499459613824,695.0000000000001 C 355.53821518769826,695.0000000000001 356.671435779258,695.0000000000001 357.804656370818,695.0 C 358.93787696237774,695.0 360.0710975539377,695.0000000000001 361.2043181454976,695.0000000000001 C 362.3375387370575,695.0 363.47075932861725,695.0000000000001 364.603979920177,695.0 C 365.737200511737,695.0000000000001 366.8704211032968,695.0 368.0036416948569,695.0000000000001 C 369.1368622864166,695.0 370.2700828779766,695.0000000000002 371.4033034695364,695.0000000000002 C 372.5365240610963,695.0000000000001 373.66974465265616,695.0 374.802965244216,695.0000000000002 C 375.93618583577586,695.0 377.0694064273358,695.0000000000001 378.2026270188956,695.0000000000001 C 379.3358476104555,695.0000000000002 380.46906820201554,695.0000000000002 381.6022887935752,694.9999999999999 C 382.7355093851352,695.0 383.86872997669496,695.0000000000001 385.0019505682548,694.9999999999999 C 386.1351711598148,694.9999999999999 387.2683917513746,695.0000000000001 388.40161234293447,695.0000000000001 C 389.5348329344943,695.0000000000001 390.6680535260542,694.9999999999999 391.80127411761396,695.0 C 392.934494709174,695.0 394.06771530073377,695.0000000000002 395.2009358922937,694.9999999999999 C 396.33415648385363,695.0 397.4673770754135,695.0 398.6005976669734,695.0000000000002 C 399.73381825853306,695.0 400.867038850093,695.0 402.0002594416528,694.9999999999999 C 403.13348003321283,695.0000000000001 404.26670062477257,695.0 405.3999212163326,694.9999999999999 C 406.53314180789226,695.0000000000001 407.66636239945245,695.0000000000001 408.7995829910121,695.0 C 409.9328035825719,695.0 411.066024174132,695.0000000000001 412.1992447656919,695.0 C 413.3324653572515,695.0 414.46568594881154,695.0000000000001 415.5989065403714,695.0 C 416.7321271319316,695.0000000000002 417.8653477234912,695.0000000000002 418.9985683150509,695.0000000000001 C 420.1317889066109,695.0000000000002 421.26500949817085,695.0000000000002 422.39823008973065,695.0000000000001 C 423.5314506812906,695.0 424.6646712728504,695.0000000000001 425.7978918644102,695.0000000000001 C 426.9311124559704,695.0000000000002 428.06433304752994,695.0 429.19755363908973,695.0000000000001 C 430.33077423064975,695.0000000000003 431.46399482220977,695.0000000000002 432.5972154137697,695.0000000000001 C 433.73043600532947,695.0000000000002 434.86365659688926,695.0 435.9968771884491,695.0000000000002 C 437.1300977800088,695.0 438.26331837156874,695.0000000000001 439.39653896312876,695.0000000000005 C 440.5297595546886,695.0000000000002 441.66298014624863,695.0000000000001 442.7962007378085,695.0000000000001 C 443.92942132936827,695.0000000000002 445.0626419209281,695.0000000000001 446.19586251248836,695.0000000000003 C 447.32908310404787,695.0 448.46230369560766,695.0000000000001 449.5955242871676,695.0000000000002 C 450.72874487872724,695.0000000000001 451.8619654702875,695.0000000000002 452.9951860618473,695.0 C 454.1284066534071,695.0 455.26162724496703,695.0000000000003 456.3948478365267,695.0000000000001 C 457.5280684280868,695.0000000000002 458.6612890196465,695.0000000000003 459.7945096112064,695.0000000000001 C 460.9277302027662,695.0000000000002 462.06095079432635,695.0000000000001 463.1941713858861,695.0 C 464.32739197744604,695.0 465.46061256900583,695.0000000000002 466.59383316056557,694.9999999999999 C 467.7270537521256,695.0000000000001 468.86027434368543,695.0000000000003 469.9934949352453,695.0000000000002 C 471.1267155268055,695.0000000000001 472.25993611836515,695.0000000000001 473.393156709925,695.0000000000002 C 474.5263773014848,695.0000000000005 475.65959789304446,695.0000000000001 476.7928184846046,695.0000000000002 C 477.92603907616433,695.0000000000002 479.0592596677243,695.0000000000002 480.1924802592842,695.0000000000001 C 481.32570085084404,695.0 482.45892144240406,695.0000000000001 483.5921420339637,695.0 C 484.72536262552336,695.0000000000001 485.8585832170836,695.0000000000003 486.99180380864345,695.0000000000003 C 488.12502440020336,695.0000000000002 489.25824499176315,695.0000000000002 490.39146558332305,695.0000000000001 C 491.524686174883,695.0 492.657906766443,695.0000000000002 493.7911273580027,695.0000000000002 C 494.9243479495624,695.0000000000001 496.0575685411222,695.0000000000002 497.19078913268237,695.0000000000003 C 498.32400972424216,695.0000000000001 499.45723031580195,695.0000000000001 500.59045090736186,695.0000000000001 C 501.723671498922,695.0000000000002 502.85689209048155,695.0000000000002 503.9901126820414,695.0000000000001 C 505.12333327360125,695.0000000000002 506.2565538651614,695.0000000000003 507.3897744567211,695.0000000000001 C 508.52299504828096,695.0000000000001 509.6562156398409,695.0000000000002 510.7894362314006,695.0 C 511.9226568229608,695.0000000000001 513.0558774145203,695.0000000000001 514.1890980060803,695.0 C 515.3223185976402,695.0000000000005 516.4555391892002,695.0000000000003 517.58875978076,695.0000000000001 C 518.72198037232,695.0000000000001 519.8552009638796,695.0000000000001 520.9884215554397,695.0000000000002 C 522.1216421469994,695.0000000000002 523.2548627385593,695.0000000000002 524.3880833301192,695.0000000000002 C 525.521303921679,695.0000000000002 526.654524513239,695.0000000000002 527.787745104799,695.0000000000002 C 528.9209656963587,695.0 530.0541862879186,695.0 531.1874068794787,695.0000000000003 C 532.3206274710383,695.0000000000001 533.4538480625981,695.0000000000001 534.587068654158,695.0000000000003 C 535.7202892457177,695.0000000000001 536.8535098372778,695.0 537.9867304288376,695.0000000000001 C 539.1199510203976,695.0000000000001 540.2531716119576,695.0000000000003 541.3863922035172,695.0 C 542.5196127950771,695.0000000000001 543.6528333866371,695.0000000000002 544.7860539781967,695.0000000000001 C 545.9192745697566,695.0000000000001 547.0524951613166,695.0 548.1857157528766,695.0000000000001 C 549.3189363444365,695.0000000000001 550.4521569359963,695.0000000000003 551.585377527556,694.9999999999999 C 552.718598119116,695.0000000000002 553.8518187106758,695.0000000000003 554.9850393022356,695.0000000000003 C 556.1182598937958,695.0000000000001 557.2514804853556,695.0000000000001 558.3847010769156,695.0000000000001 C 559.5179216684753,695.0000000000005 560.6511422600345,694.9999999999992 561.7843628515964,695.000000000003 C 562.9175834431527,694.999999999995 564.0508040347084,694.999999999985 565.1840246263704,695.0000000002316 C 566.3172452171937,694.9999999984524 567.4504658126623,695.0000000078893 568.5836863870296,694.999999966383 C 569.7169070420059,695.0000001194841 570.8501274538525,694.999999685618 571.9833482449346,695.0000001673066 C 573.1165709382333,695.0000052413529 574.2497705445661,694.9999545785334 575.3831176504613,695.0002600111577 C 576.5157302193561,694.9987921145927 577.6514103651416,695.0047300037618 578.7764919904246,694.9850808009933 C 579.927548495182,695.0281405045325 580.7245884763352,694.2165287154812 581.7555497737793,693.9696529407479 C 582.9026474657932,694.0031552248705 584.0346620028405,694.0002435517098 585.167679910487,693.9997542294573 C 586.3010388385496,694.0000882033179 587.4342128831856,693.9999758291034 588.5674458316031,694.000005661197 C 589.7006634563245,693.9999984986143 590.8338852424864,694.0000013826397 591.9671047721044,693.9999988188838 C 593.1003191273907,693.9999837631752 594.2336104250647,694.0001544629799 595.3663883975762,693.9990858851608 C 596.5017852629468,694.0043398793808 597.6260167457322,693.9826382325964 598.78987347367,694.0566004714786 C 599.6278273607273,693.3437632014196 600.5896355125236,692.9299381199899 601.7821841671052,693.073165265705 C 602.6006728318903,692.3133559771836 603.6115892906008,692.0180259351051 604.5213018130268,691.4787188477743 C 605.4460022169475,690.9745056376049 606.4688871763659,690.711668315986 607.2090750649455,689.7537139246741 C 608.0190735296459,688.9811897107928 608.8020394737363,688.1740791690919 609.721142627133,687.4174474961371 C 610.0392961885437,686.4177335621846 609.9940142777034,685.2654518083331 609.9979647719942,684.1339201073316 C 610.0001574945901,683.0016018819854 610.062174305318,681.894069170409 610.9278863799867,681.1194384753204 C 611.0017241403209,680.0168026140033 611.0026430879801,678.8839626646519 610.9988518118763,677.7491716684063 C 611.0003413191106,676.6165680535785 610.9999165074483,675.4831714985153 611.000017183714,674.3499926086082 C 610.9999972031436,673.2167637407898 611.0000002607081,672.0835444157201 611.0000000337931,670.9503237301684 C 610.9999999742366,669.8171031139394 611.0000000088622,668.6838825367219 610.9999999976272,667.5506619405082 C 611.0000000005343,666.4174413501526 610.9999999999006,665.2842207583305 611.0000000000133,664.1510001668172 C 610.9999999999995,663.0177795752517 610.9999999999997,661.8845589836918 611.0000000000002,660.7513383921322 C 611.0,659.6181178005719 611.0000000000002,658.4848972090122 611.0000000000002,657.3516766174524 C 611.0000000000001,656.2184560258924 610.9999999999999,655.0852354343328 611.0000000000001,653.9520148427728 C 611.0000000000002,652.818794251213 611.0000000000001,651.6855736596532 611.0,650.5523530680932 C 611.0000000000002,649.4191324765332 611.0000000000001,648.2859118849733 611.0000000000001,647.1526912934135 C 611.0,646.019470701854 611.0000000000001,644.8862501102941 611.0000000000001,643.7530295187339 C 611.0000000000001,642.6198089271741 611.0000000000002,641.4865883356142 611.0000000000003,640.3533677440545 C 611.0000000000002,639.2201471524942 611.0000000000001,638.0869265609343 611.0000000000002,636.9537059693748 C 610.9999999999999,635.8204853778147 611.0,634.6872647862551 611.0000000000002,633.5540441946952 C 611.0000000000001,632.4208236031352 611.0000000000003,631.2876030115755 611.0000000000002,630.1543824200155 C 611.0,629.0211618284554 611.0000000000002,627.8879412368957 610.9999999999999,626.754720645336 C 611.0,625.6215000537761 611.0000000000003,624.488279462216 610.9999999999992,623.3550588706565 C 611.0000000000031,622.2218382790952 610.9999999999945,621.0886176875387 610.999999999987,619.9553970959821 C 611.0000000002242,618.8221765043238 610.9999999984747,617.6889559134885 611.0000000078495,616.5557353180459 C 610.9999999662894,615.4225147437005 611.0000001209829,614.2892940880652 610.9999996749602,613.1560736812513 C 611.0000002283057,612.0228528604919 611.0000049590114,610.8896303094391 610.9999555579423,609.7564301801618 C 611.0002575767886,608.6230844901957 610.9987935300114,607.4904703174759 611.0047634435541,606.3547769442386 C 610.9847794807375,605.2298338556517 611.0300220941043,604.0778734440622 610.2192394990539,603.2804874272848 C 609.9732502361124,602.2491666982565 609.9939117779702,601.1073710354707 609.9880977963589,599.9765555045938 C 609.121795596753,599.2017938575357 609.0119140470331,598.1151619595387 608.3593483241295,597.2445649157846 C 607.4371902163318,596.527136833968 606.7231671022367,595.5950702270384 605.8337245600209,594.9868545087883 C 604.7592872314542,594.8481434355095 603.9809992983328,593.9901810789196 602.8301604815367,594.0327795120907 C 601.7801420103835,593.8318547330769 600.9928193853804,592.9968025412884 599.8536573678036,593.0111455758134 C 598.7268605205697,592.9956381898118 597.5913180721534,593.0012433211309 596.4587346248301,592.9997052086044 C 595.3253676647146,593.0000585529426 594.1921750386748,592.9999910421446 593.0589504658466,593.0000006532149 C 591.9257300712214,593.0000001778005 590.7925096010542,592.9999998847488 589.6592889123829,593.0000001191888 C 588.5260685497144,592.9999995665988 587.3928470498341,593.0000017594767 586.2596296766134,592.9999939897191 C 585.1264006155425,593.0000144369284 583.9931844687005,593.0000037064298 582.8601037982236,592.9996659070537 C 581.7256689435887,593.0025973974382 580.5994186437802,592.9857696245581 579.4337450694729,593.0641180556454 C 578.5219305323039,592.5295965563439 577.6354778646456,591.933846087702 576.4682234463323,592.0160110138305 C 575.342983717979,591.9967435056374 574.2081990418828,592.0005195397371 573.075212319339,591.9999549299871 C 571.9419761824133,591.9999924598194 570.8087503406924,592.0000051348293 569.6755325920876,591.9999982713291 C 568.5423110950129,592.000000457435 567.4090907351227,591.9999998981356 566.275870093632,592.0000000186791 C 565.142649510815,591.9999999975718 564.0094289182341,592.0000000000366 562.8762083266474,592.0000000001014 C 561.7429877351475,591.9999999999571 560.6097671435637,592.000000000015 559.4765465520161,591.999999999985 C 558.3433259604304,592.0000000000473 557.2101053689498,591.9999999998561 556.0768847772241,592.0000000002564 C 554.9436641854073,592.0000000008765 553.8104435993603,591.9999999875671 552.6772229687449,592.0000000818552 C 551.5440025824608,591.9999995862757 550.4107810943657,592.0000017507041 549.2775637827724,591.9999938321645 C 548.1443340449855,592.0000159131092 547.011122473906,591.9999941357435 545.878018267286,591.999713157643 C 544.7436776854671,592.0024170533163 543.6171281099457,591.9863117959208 542.4520894908102,592.0631273096219 C 541.5334446659712,591.5450955834484 540.6534248139754,590.93381492399 539.4860002812841,591.0163905425558 C 538.3609848942393,590.9965814265324 537.2261127284872,591.0005686793475 536.0931512859892,590.9999430381683 C 534.9599093292646,590.9999946182386 533.8266845082208,591.0000048291156 532.6934666233235,590.9999982946538 C 531.560245133601,591.0000004630101 530.4270247775211,590.9999998945116 529.2938041340058,591.0000000199426 C 528.1605835518543,590.9999999972293 527.0273629591013,591.0000000001097 525.8941423675498,591.0000000000897 C 524.7609217760444,590.999999999959 523.6277011844617,591.0000000000126 522.4944805929085,590.999999999997 C 521.3612600013471,591.0000000000008 520.2280394097874,591.0 519.0948188182273,591.0000000000001 C 517.9615982266678,591.0000000000001 516.8283776351078,591.0 515.6951570435481,591.0000000000002 C 514.5619364519882,591.0000000000002 513.4287158604282,591.0000000000003 512.2954952688683,591.0000000000002 C 511.16227467730835,591.0 510.0290540857486,591.0000000000001 508.8958334941887,591.0 C 507.76261290262886,591.0 506.6293923110691,591.0000000000003 505.4961717195092,591.0000000000002 C 504.3629511279494,591.0000000000001 503.2297305363891,591.0000000000002 502.0965099448294,591.0000000000002 C 500.9632893532695,591.0000000000002 499.83006876170987,591.0000000000002 498.6968481701498,590.9999999999999 C 497.56362757859,590.9999999999999 496.43040698703027,591.0000000000005 495.2971863954705,591.0000000000001 C 494.1639658039101,591.0000000000003 493.03074521235044,591.0 491.89752462079144,590.999999999998 C 490.76430402922176,591.0000000000219 489.6310834377243,590.9999999998715 488.49786284585895,591.0000000006083 C 487.36464225555625,590.9999999975739 486.23142165972865,591.0000000078772 485.098201078206,590.9999999836451 C 483.964980491261,590.9999999725031 482.83175965382367,591.0000005661037 481.69854094205846,590.9999960278778 C 480.5653101097455,591.0000207512436 479.4321354770817,590.999909796653 478.2987414598632,591.0003284832302 C 477.1660336708883,590.9990904682752 476.0320816446063,591.0008563079015 474.8942221632666,591.0120555785212 C 473.8173320413077,590.8760617948365 473.0388087739165,590.0197467042904 471.9105780935719,590.0076999929598 C 470.78221136375663,589.9959817341063 469.6468010248301,590.0012682518962 468.5142395330732,589.9996770442131 C 467.38085645362975,590.0000693246651 466.2476695725124,589.9999879404587 465.1144434157493,590.0000013760477 C 463.98122337330665,590.0000000503616 462.8480028378443,589.9999999149297 461.7147821977521,590.0000000320973 C 460.58156162321563,589.9999999909996 459.4483410270546,590.0000000021066 458.31512043653794,589.9999999995879 C 457.1818998447823,590.0000000000613 456.04867925324953,589.9999999999961 454.9154586616887,589.9999999999986 C 453.78223807012785,590.0000000000009 452.6490174785681,590.0000000000001 451.51579688700883,589.9999999999993 C 450.3825762954472,590.0000000000036 449.24935570389306,589.9999999999882 448.1161351123176,590.0000000000271 C 446.9829145207611,590.0000000000188 445.84969392950035,589.9999999992815 444.71647333547395,590.0000000053667 C 443.58325275779595,589.99999997112 442.4500321024708,590.0000001284267 441.3168117575824,589.9999995198967 C 440.18359040458347,590.0000013983404 439.0503711310101,589.9999981469133 437.9171554587233,589.9999860112385 C 436.78386802206745,590.000150915763 435.6510850699013,589.9990712746155 434.5156570556715,590.0045169094903 C 433.3917590580869,589.9815183947194 432.2258137655815,590.0622490926395 431.39035142194393,589.3329935444115 C 430.4124761988466,588.9888275730352 429.36473396420996,588.6381483340754 428.9112456858718,587.5280404127603 C 429.3366311904516,586.5463138486788 430.231507059271,585.7889025101958 431.01749649917207,584.9833395470597 C 431.83392101005535,584.208610325341 432.53641565786035,583.2406186973037 433.6804050802779,583.0539460212989 C 434.0037618086143,582.303738224751 434.5157473822923,581.3565122771639 435.4047449201963,580.5125040319056 C 436.29066079008766,579.9805916871338 437.33897207443886,579.8042516175773 438.1241122356545,578.8849303074699 C 438.96173565081483,578.1085024005176 439.00095950985906,576.9955395860965 439.7556890527082,576.1687288184279 C 440.6447289332366,575.4371124247035 441.3587685367848,574.4921865750764 442.2890442365615,573.9828669600237 C 443.35113021109316,573.8149365225248 444.0967163454855,572.8778793206782 444.90143305571894,572.0850016251869 C 445.722212230774,571.3294925526844 446.4580925758576,570.375582265966 447.43950624944966,569.9956957338514 C 448.4294694233496,569.7079858565154 449.2409966078628,568.7859737103258 450.0019695283281,567.9925541639482 C 450.03329795801113,566.8548698663941 450.8587371560303,566.032507215657 451.99487124715444,566.0012521931387 C 452.8136844490181,565.2493077546253 453.58964068086397,564.3765098004792 454.40279500964687,563.608607193638 C 455.2004719772198,562.79706130983 456.00242896401613,561.9975827034268 456.8038183293527,561.1964981918516 C 457.6049851635522,560.3948270915005 458.40640001026475,559.5937057318913 459.2075884799979,558.7923096036048 C 460.00897446422607,557.991037475985 460.8107452128506,557.1898924597441 461.6093234705718,556.3876268729529 C 462.4197412437578,555.5895102839337 463.20097197829637,554.7811702389239 464.0184490913665,553.98552539513 C 464.9062637923995,553.2145155183597 464.98763923449434,552.1308414319303 465.5982229788052,551.1407535422655 C 466.75162823474557,551.0411447183799 467.59817037086924,550.3649304281547 468.55669797242444,549.9838783940428 C 469.6587608617749,549.6561337271218 469.99962261078537,548.5526513979846 470.2794295313602,547.5538006312918 C 471.22973331117873,546.8209054881019 472.0012978114548,545.9982366051073 472.76657997500433,545.1024721138493 C 473.8497597330588,545.0135722211601 474.83962845454283,544.4163724328079 474.9786058509095,543.2757414051861 C 475.4958660326793,542.3643546176293 476.43743360137387,541.6414501967007 477.1698826003323,540.754826692627 C 477.9969918594739,540.0006486546963 479.1099535262041,539.9615953357245 479.8867029433711,539.124296267815 C 480.80071937136665,538.3273508221866 480.9909941712424,537.3133593152811 481.4491220604409,536.2538040412958 C 482.5714847463785,536.011694621245 483.53237242015314,535.6282556266227 484.258237816374,534.6768877851767 C 485.10795332512964,533.9220618153389 485.9525220900557,533.1342080165724 485.9964914751382,532.023664716094 C 486.69781422075664,531.097103619209 487.84277702758,531.0211989381535 488.7155717661315,530.3985448841138 C 489.44161956278003,529.4756130565429 490.35479159203214,528.7542902633805 491.0156903043191,527.8854243970235 C 491.0918208982489,526.7941951612512 491.9772870871143,526.0220240451192 492.7587723407371,525.1248077032171 C 493.81579613115844,525.0131945484018 494.82357210977335,524.4444274542208 494.98001290359747,523.3058773088826 C 495.46809399221553,522.3833166301403 496.42221480833547,521.6654699414313 497.13959858809005,520.775839224566 C 497.96423232279017,520.0048695123309 499.0316375713631,519.9434420461251 499.1016680771869,518.7911822910891 C 499.9818331942058,518.0397621769943 500.01983116759357,516.9250551517388 500.83638815190534,516.1443852382805 C 501.6332788522915,515.2265397578409 502.6634077740244,515.0149861930098 503.57224733508394,514.5326740940467 C 504.43313131475475,513.6463730890956 505.02053170354554,512.7827180083345 505.15113844279284,511.7128142484493 C 506.06097749084387,510.9361499654451 506.83187751640077,510.06752312028647 507.9377029129498,510.0117117993356 C 508.7503653610686,509.29451455936385 509.6608535283357,508.4675772755238 510.00187695792965,507.5017396597244 C 510.3311386056221,506.49897618792903 511.28073043766483,505.76137068291 512.0501301646119,504.9463548765384 C 512.851521653639,504.1450824046874 513.6566583655855,503.34542225736766 514.456449880896,502.5434518690186 C 515.2567803987695,501.7417507735173 516.0599973289327,500.9412309493098 516.8659218053481,500.14183524199814 C 517.6297079984613,499.32498555695844 518.5702090346324,498.5813330783 519.012100573533,497.6311500095611 C 519.23814069839,496.59155829179514 520.1823840765139,495.8494561177513 520.96324631359,495.03967925454424 C 521.7589539857518,494.23605157230156 522.5634789399556,493.4360761282087 523.3708074208995,492.6372619426891 C 524.1562375526912,491.82937716400033 524.961920527748,491.02988138768853 525.8738494634656,490.27439412945415 C 525.9803150826299,489.1852730406011 526.5838382197144,488.30203992156413 527.4949788777027,487.5462261322883 C 528.2637483707731,486.73144033001626 529.0654245423428,485.93028483198094 529.8508195075224,485.1223853958132 C 530.7897339828021,484.37807671978845 530.9846902080628,483.32560733727377 531.4650949655976,482.3913880800528 C 532.3985105216702,481.64476383650884 533.1657638070257,480.8294228119802 533.9715322855081,480.02994015962133 C 534.7445621803904,479.21644471573023 535.6937030194193,478.47875327385407 535.9933486316044,477.4633143947971 C 536.3726230011621,476.51546196823375 537.2526490610944,475.66690440443426 538.1090542396284,474.99309893982087 C 539.0488660936112,474.84014249408517 539.1917937021688,473.68803945998945 540.0236401451996,472.92564589638096 C 540.0640548141042,471.80384093811216 540.9454058561562,471.03706075447 541.7951564426876,470.28272917910044 C 542.4662465186872,469.29995204971914 543.5930328756282,469.04488123354105 543.9981014273653,468.4019670272562 C 544.5461869489723,467.4278948943685 545.0232144828078,466.51862723428917 545.3140410734101,465.4999065829966 C 546.2814810143609,464.769694891213 547.0417644117081,463.95091124001294 547.8220776598704,463.1409012670909 C 548.7807592086626,462.4048528297004 548.9647369797538,461.3477785281953 549.5657083017918,460.4636449989563 C 550.00118116983,459.5103770893251 550.4176351818186,458.5515447962756 551.0335873974382,457.66866512476156 C 551.2222724771897,456.63446799094015 552.1366569944076,455.835743534159 552.9137626908313,455.01730481859823 C 554.0175918355533,454.9761775247955 554.0725175482644,453.83462026519965 554.9602684835762,453.0816982035642 C 555.0096802242367,451.97159600588276 555.867825576527,451.1883944257297 555.9958434987429,450.1233825535835 C 556.5745178089819,449.1244547335075 557.826688835473,449.06171638225703 557.9958997323599,448.14499071433266 C 558.5974134769451,447.22903776439716 559.6645359403834,446.55973647981125 559.9821894014567,445.5506129986171 C 560.3842367563553,444.58556197431164 561.0357803527345,443.7216575432516 561.1818640999498,442.6490585813674 C 562.1136786992853,441.90176962274796 562.8934668869557,441.09155097846576 563.8250148780494,440.34419319564773 C 563.9622319158931,439.26780813384266 564.6350398862392,438.4132741016911 564.990805773082,437.42741640913226 C 565.4852883665069,436.4990172497271 566.034477642427,435.5932782915014 566.2364515763005,434.5437180454564 C 567.2686541475816,433.83804975699996 567.9989282512674,433.0073186036128 568.0549729995167,431.8973125068722 C 568.9368387178555,431.12937265604455 568.9938334517391,430.0197600562461 569.8415260523943,429.2376652366004 C 569.9740633953985,428.15934341003396 570.7157913624844,427.33335660203244 571.0038405477499,426.31944988964017 C 571.4355552858915,425.3650513976951 572.5092630669592,424.6765751310787 573.0024560481324,423.74764176118805 C 573.2314035908373,422.70925434688866 574.0209278819899,421.9030654245473 574.1142881520635,420.8085159230387 C 574.9857428151121,420.0362636719067 575.0301968261011,418.92145653460057 575.8939171770392,418.1460006264968 C 576.0106165233314,417.0611184868914 576.0250234316588,415.9338654321525 576.8085702814249,415.1252005725203 C 577.8013221063101,414.4031912508987 577.9617329517841,413.33641500708603 578.5747296634934,412.4571059672059 C 579.0025845358622,411.50110866650886 579.4101876494635,410.5367228126681 580.0668380010073,409.6754957024547 C 579.9989758105875,408.5141656712507 579.934974144779,407.3544347216983 580.5537766200366,406.47753050782035 C 581.0250174880272,405.5395042749266 581.272959725311,404.5089847207348 582.3158046423065,403.8077246372462 C 583.0046135393918,402.95981803274225 583.0825108311118,401.85886355588525 583.9603411306489,401.08925217985563 C 584.008057231616,399.97579624445984 584.8555857233766,399.1936334486848 585.0129403374274,398.12559127236676 C 584.9989931807185,396.9865935793416 585.0694832203051,395.8825709181907 585.936475458184,395.1084702700323 C 586.000130591518,394.00161649801413 585.9904960598946,392.86440515278883 586.1108827654491,391.78105036739896 C 586.9871720839718,391.010800696134 587.780805238825,390.2063137208631 588.6769567309881,389.4442912312981 C 589.0621407460161,388.4706190827722 588.9263699041489,387.28116036713624 589.602897130558,386.4281665280695 C 590.0588547346001,385.48380975997105 589.9838378551289,384.3195161595274 590.0157925839934,383.1995316500451 C 589.9788229111731,382.05099771860637 590.803832615256,381.2595073355672 591.0225923573688,380.21689999609185 C 591.0049483687026,379.07637102513195 591.0265300500679,377.95208985869255 591.903614116545,377.1821693828087 C 591.97985165562,376.08052741389577 592.791608350763,375.28354745481124 592.9759536716276,374.2266851953135 C 593.6432487703553,373.3698672837515 594.0493378797532,372.4048543088364 594.0064920191476,371.2538863807223 C 593.9642008935797,370.10314823138395 594.7565162301722,369.2981153979172 595.0349949685769,368.2802444766369 C 594.996377204,367.1310278832409 595.0000141307083,365.9993137560488 594.9837152697763,364.8593419552397 C 595.1457257370945,363.7932282964894 595.9944403281305,363.01155679912057 595.9888667450876,361.87602755387337 C 596.0138307110791,360.7531473755979 595.9444984260639,359.59120841127407 596.3592861073315,358.62979850280067 C 597.0257199922077,357.7726238647815 597.1969427252877,356.71032605145007 598.0309918054377,355.92257990057334 C 597.9916805096188,354.7730760371306 597.9579367208407,353.62587831061296 598.313002465019,352.639730765826 C 599.0547878011483,351.8137677208606 598.9823081221855,350.6505250632775 599.0045747336136,349.5265276041592 C 598.9989811094256,348.39099005759795 599.0002600700092,347.2582992288576 598.9997794006622,346.12487953753515 C 598.9999370335481,344.9917242396543 599.0047076216892,343.8604796904031 598.9636227235994,342.71024117684584 C 599.2494021774689,341.69539431092636 600.0391272993556,340.88928857539844 599.9837478789526,339.73312907683123 C 600.0047487691296,338.60860733880475 599.9988527659151,337.4729445427498 600.0002328574535,336.3402956038222 C 599.9999629812626,335.2069632258839 600.0000031686801,334.0737592804975 600.000000553301,332.9405376056121 C 599.9999996296812,331.80731663147634 600.0000001242256,330.67409624476335 599.999999967194,329.540875588159 C 600.000000007292,328.4076550132085 599.9999999986663,327.2744344180757 600.0000000001726,326.1412138271396 C 599.9999999999981,325.0079932355073 599.9999999999936,323.874772643945 599.9999999999967,322.7415520523925 C 600.0000000000355,321.60833146081325 599.9999999998334,320.47511086933775 600.0000000006459,319.3418902774415 C 599.9999999980014,318.20866968697703 600.0000000035141,317.07544909313384 600.0000000125416,315.9422284978344 C 599.9999998253772,314.8090079838006 600.0000011451202,313.6757868455852 599.9999942245967,312.54256912060015 C 600.0000243948007,311.40933603213244 599.9999142545375,310.2761610621634 600.0002200633689,309.14281380043803 C 599.9999286878766,308.00971390055906 599.9959525584138,306.8781402757484 600.033867378571,305.72921485146406 C 599.7645045789201,304.7075679847187 598.965215482575,303.90542377712194 599.0157466405941,302.7512724945881 C 598.995266149839,301.62653520006296 599.0010882118675,300.4909030314498 599.0000976231996,299.35809275515095 C 598.9989441903648,298.2253499311147 599.0021789813513,297.0907894452567 599.0046470313763,295.9565465539037 C 598.9126291737341,294.8614410069601 598.0477320477023,294.0864725350601 598.0018370558336,292.9722622715771 C 598.0181546955332,291.8322826923476 597.8270547379252,290.7782182949976 596.9967058977492,289.9889394545398 C 596.9440076226803,288.8775472032271 596.0685349251728,288.10695927646225 595.9997612066768,287.00222569183825 C 595.9966160617422,285.8703078619659 596.0037740144958,284.7341223492968 595.9856021053421,283.60842880896246 C 596.0640557386962,282.44271165844964 595.5354907880584,281.52842983803913 594.9376237150034,280.6428538966351 C 594.9993758894252,279.48405471692365 595.0623767701861,278.32473830611093 594.4362975728245,277.45084820921795 C 593.9384610859269,276.52383824237546 594.0116737147487,275.3602919870207 594.0021304978106,274.23102432534535 C 593.9912312825832,273.10231833655155 593.9851406341345,271.9716205741828 593.1183335618582,271.19744322792076 C 593.009979861782,270.10910420846585 592.3724107615949,269.2399733851532 591.3605973342461,268.52585963779256 C 590.9403409968345,267.5667149208618 591.0761306350075,266.377248419541 590.4808039749329,265.4906202046266 C 589.9347458603552,264.58358428996837 590.0194562322497,263.41527551349617 589.9795958068584,262.29856565073527 C 590.0479818470124,261.13701863386694 589.2553323854886,260.3321241994777 589.0007591275798,259.3043513039611 C 588.5515436123525,258.35720187123684 587.4799380310775,257.6678548449557 586.9984388634155,256.7340777389129 C 586.7590111940822,255.70003133519836 585.9766166893327,254.89088915863186 585.8851632751994,253.79554981153134 C 585.0124276460178,253.0238281539449 585.006306426084,251.89314305469955 585.0261187874285,250.75171591436816 C 584.7842507622794,249.71868033912963 583.967642201573,248.92371008856432 584.0382063900998,247.76126085309832 C 583.8267612399626,246.71562371042344 582.9429627497279,245.94848443992353 582.1611800167955,245.13908885917326 C 581.221913524506,244.3949251874023 581.0286056735378,243.34177532942618 580.462898671103,242.4428782506042 C 579.9164493096976,241.5360043956886 580.08544984377,240.33278149086775 579.4154076857742,239.4771014485111 C 579.0018804225729,238.51516945778005 578.5888892681193,237.553015403535 577.9598060404937,236.68036961671893 C 577.8177995428797,235.60597004241572 576.813782611225,234.88862688079954 576.0176591478204,234.08517142510547 C 575.985136470229,232.96542216768873 575.1187400254936,232.19107473394132 575.0109406700153,231.10250609740382 C 574.3476698588704,230.24402127158254 573.4329824473298,229.4896766101511 572.7037390392597,228.658518531511 C 571.8378574061738,227.88395785063597 571.0223835780473,227.08851757697983 570.987600345568,225.96970467028805 C 570.1243373535285,225.19405919643833 570.0085432991295,224.10880241774618 569.3795056714256,223.2361352097611 C 568.3319770847859,222.53682646103044 568.000941746594,221.5406965444702 567.700560819187,220.53202277220382 C 566.7495075691503,219.79241918503484 565.980820991609,218.97788119463087 565.2039147674374,218.16780458702578 C 564.2562793590256,217.41868420544688 564.0043039852998,216.4132125832874 563.623687666867,215.32955559971796 C 562.5466167308263,214.99594360000484 561.4513968526724,214.73683144959975 560.9888412381537,213.68303786594177 C 560.804530643965,212.64875541398544 559.8712695653506,211.89426793034292 559.0820345741528,211.08867615366177 C 558.2904863212809,210.2839051682449 557.4822418797086,209.48505851211212 556.6836086071896,208.68280132366687 C 555.8816133504467,207.88173750708728 555.0803735964317,207.08040547694844 554.2791143999581,206.27907738907265 C 553.4777665302888,205.47779565663322 552.6764858266436,204.6764442043414 551.8751516612892,203.8752019830539 C 551.0738357181239,203.07391770826263 550.272743851264,202.2719944899483 549.4704941932199,201.47336970247704 C 548.6718576108563,200.6644490573977 547.8659767611198,199.87617276705825 547.0635126045036,199.07815970088055 C 546.3034098056487,198.15942603483825 545.2545855130621,198.00813788495446 544.2009088781323,197.53571397774596 C 544.058652695643,196.29319477133174 543.2937015146041,195.99365496210646 542.303767399184,195.5178201328682 C 541.6450230690077,194.43785634141102 540.6840556597351,194.00265831845363 539.6675291238306,193.72482477990528 C 538.8477731368009,192.9667611254218 537.7437850909264,192.89639721319844 536.9882724595789,191.9844575471348 C 536.1931418675168,191.1682295980592 535.3712185267124,190.4167043556103 534.6159942406849,189.5041343518749 C 533.7151576687781,188.94311150887046 532.5351562528847,189.0560500901018 531.5540754437892,188.68875226432345 C 530.8023067921426,187.76784578052388 529.990549052447,186.99176581057006 529.1773500226017,186.21916541671166 C 528.4426863390856,185.25696392270802 527.4033898941652,185.03021097456124 526.4962364929355,184.4844364975439 C 525.5689511148299,183.98726491229465 524.5748203933069,183.65147226165374 523.7429505529951,182.92394719096202 C 522.5526483547713,183.06175437993116 521.5718380176147,182.69380347670645 520.8104318256861,181.79616411043006 C 520.004732143901,181.00545868809087 519.2332842491874,180.1320621368681 518.1664554057144,179.97177827820673 C 517.0177333197926,180.00920219613238 516.2427846096003,179.14425736111764 515.1577628287696,179.02789513856442 C 514.3334719374744,178.28207286636595 513.3185320117801,177.9965180786662 512.3646280103313,177.56360953486148 C 511.6760094851476,176.4902451963561 510.74693922402247,175.99738269985718 509.7082031724506,175.76927684198418 C 508.90284411212065,174.97774908670817 507.80354019599554,174.89586698888257 507.0331845125613,174.01983360637587 C 505.8996628128041,174.02056054586942 504.8296139454254,173.8680505125927 504.0489001220434,173.01702389202933 C 502.93414023772834,172.97245580222724 502.16261939881866,172.09923535387276 501.06758411711803,172.0070478609264 C 500.2121796349448,171.33634044179882 499.5001780428043,170.31942782067134 498.5144637559244,169.96331609937698 C 497.3698243333809,169.99088359600384 496.2094695135587,170.0563914178797 495.3755482143549,169.33381900706522 C 494.3994082318237,168.95459287036132 493.25036842083847,168.99278384444366 492.0995936678191,169.0351633391163 C 491.29635295278,168.23852144590936 490.2743637265913,167.96998517506904 489.13161582529057,167.99298613545693 C 487.9962547917728,167.998153619462 487.2219193627579,167.13172819271128 486.13373452207367,167.02300227215494 C 485.3059560665844,166.28559972473306 484.3154390934482,165.94108271373443 483.136154630499,166.052290736778 C 482.32826498060626,165.26687236514584 481.32011907560207,164.96491536055274 480.17535552543075,164.99278252778242 C 479.03340613963593,165.01385570120783 478.24367064928197,164.18460931140373 477.1973010095029,163.97493256570928 C 476.0524532029105,164.0030031459325 474.91640904446047,164.00981983941335 473.83308189857587,163.88936640619062 C 473.0559976144152,163.02957730281412 471.93251582124526,163.00606576365885 470.803581802841,162.99571706061022 C 469.6667593011988,163.00441284078235 468.54202952344707,162.9839142029314 467.37479728943833,163.06602557140985 C 466.484429552445,162.47972691625327 465.57715631211886,161.934241756523 464.40871844356474,162.01926378427248 C 463.2915587006975,161.98048946553536 462.1317624584873,162.04464876176382 461.32052690207337,161.26730812303356 C 460.3142656236063,160.96080122749484 459.16287639952697,161.0046641865336 458.03134483095425,161.00058652433034 C 456.89339840819974,161.0119956900941 455.8166689725164,160.8756139754223 455.0381154848685,160.0193718430309 C 453.909702001423,160.00776645742522 452.78136796503094,159.9959692696654 451.6459449569406,160.00128637352321 C 450.513425636063,159.99959335633127 449.379866591056,160.00041045523344 448.24729344789006,159.9988473765391 C 447.1125261303499,160.0025815033789 445.97949898924026,160.00211447267793 444.8778535705205,159.92588526217367 C 444.1031755168688,159.06028700446836 442.99470935035885,159.00052453578334 441.86294592789096,158.99700661839896 C 440.72799384240193,159.0011868145256 439.5954057618207,158.99965979794266 438.4620106975827,159.00008101224805 C 437.328830361559,158.9999838267866 436.19560203645955,159.0000024972027 435.0623825578674,158.9999998102609 C 433.92916190691193,158.99999995365457 432.7959412847679,159.00000002749152 431.66272070831303,158.9999999910247 C 430.529500112069,159.00000000233334 429.39627952168746,158.99999999948892 428.26305892987773,159.00000000009163 C 427.1298383383605,158.99999999998877 425.99661774679606,159.0 424.86339715523604,159.00000000000057 C 423.7301765636764,158.9999999999998 422.5969559721164,159.00000000000009 421.46373538055667,159.00000000000006 C 420.3305147889967,159.00000000000003 419.19729419743686,159.00000000000009 418.06407360587673,159.00000000000006 C 416.9308530143169,159.00000000000003 415.79763242275726,159.00000000000006 414.66441183119736,159.00000000000003 C 413.5311912396375,159.0 412.3979706480776,159.00000000000006 411.26475005651776,159.00000000000003 C 410.13152946495785,159.00000000000006 408.99830887339795,159.00000000000006 407.8650882818378,159.00000000000003 C 406.73186769027814,159.00000000000003 405.59864709871846,159.0 404.4654265071586,159.00000000000003 C 403.3322059155985,159.00000000000003 402.1989853240387,159.00000000000006 401.06576473247884,159.00000000000006 C 399.93254414091894,159.00000000000003 398.7993235493589,159.00000000000003 397.666102957799,159.00000000000003 C 396.5328823662393,159.00000000000003 395.3996617746795,159.00000000000003 394.2664411831198,159.0 C 393.1332205915596,159.0 392.0,159.0 391.0000000000001,159.00000000000003 " fill="none" stroke="black" /></svg>