<?xml version="1.0" encoding="utf-8" ?>
<svg baseProfile="tiny" height="100%" version="1.2" width="100%" xmlns="http://www.w3.org/2000/svg" xmlns:ev="http://www.w3.org/2001/xml-events" xmlns:xlink="http://www.w3.org/1999/xlink"><defs /><path d="M 399.00000000000006,159.00000000000003 C 398.245364554813,159.94095398525096 397.1277833938027,160.00567950095584 395.9811180204193,160.00018951669904 C 394.836510250988,159.99966702780932 393.6923070884461,160.00012134635924 392.5478542025148,159.99997277931544 C 391.4034670144346,159.99998282091545 390.25911685963376,160.00008226876014 389.11461428788664,159.99981374954638 C 387.970203576865,159.99976700174162 386.82836164034165,160.00592182416977 385.66400390673056,159.9577187039005 C 384.6583959578606,160.29277146697757 383.82873271394544,161.05259232298363 382.65394317687793,160.9792046013301 C 381.5267409782569,161.02070287755154 380.3459339128549,160.9327875573809 379.459492227349,161.55553312964858 C 378.5245655990934,162.06122569555907 377.3501276761177,161.9886868454145 376.20960820746575,161.99803438771335 C 375.0685023208812,162.00596619188624 373.935888692068,162.0344001199454 373.15111977193567,162.90260546130182 C 372.0493947936788,163.00561118845806 370.9049137869216,163.00539473173478 369.74465575288843,162.96708916178846 C 368.71045241154474,163.23310654053412 367.89882415697235,164.03646771240912 366.73286934791463,163.98440891093665 C 365.59535105074536,164.00100192213213 364.45711629246347,164.01586524319225 363.2801765317039,163.93728642233918 C 362.4123756639629,164.60503490966832 361.4623283433864,165.07422289510532 360.25641103361806,164.92568608243107 C 359.4065805697621,165.63681896254081 358.4324469817084,166.04785755436745 357.27120965693075,166.00718776742454 C 356.108342063496,165.96258216377873 355.29528426775784,166.76249211798321 354.26115617566825,167.02869116449853 C 353.1071432381784,167.00546259132565 351.9670263016755,167.01578193219763 351.17748171811587,167.87245780213837 C 350.09333477248555,168.0179006540614 348.95242909553303,168.02631580704315 348.16470748697134,168.88739272794766 C 347.07273778963014,169.0139497865952 345.93766945744005,169.03645753647058 345.1532242712304,169.90544444065398 C 344.0496846690769,170.0040692781879 342.89987320192444,169.99098395168522 341.8108338179491,170.12461541260222 C 341.02372693242427,170.98717640620004 339.8747869092162,170.976194931487 338.80011553268537,171.14451383084057 C 338.0083237317766,171.9957644381796 336.8543744526632,171.97268954992236 335.7864767167013,172.15736146420448 C 334.99262141534484,173.00363034077682 333.8338861360092,172.96900102587335 332.7730117506101,173.17062880833763 C 331.9767359541229,174.01105409273734 330.8134442658847,173.96542463366563 329.75952947883087,174.18385437284374 C 328.96073192069656,175.0181915860744 327.7920755590418,174.95961065968245 326.7531915821114,175.2143279845141 C 325.9398453206963,176.01354152096906 324.8305223775254,176.09820413818304 324.0512188975789,176.97960421936025 C 322.9279879094579,177.0306898458301 322.1506207195801,177.916764544752 321.0369140818614,177.9908439871354 C 320.2298459323579,178.80521422651324 319.1807839175261,179.03535959420492 318.01811282561135,178.9912283871943 C 317.2226126997165,179.833526306058 316.1598318748208,180.03055153643373 315.00228112206696,179.9987819216691 C 314.2177680705776,180.86760498457338 313.12379949312816,180.98933631975416 312.2424521213732,181.6243806533701 C 311.5207364675806,182.644810045476 310.5479573153576,183.05911853465454 309.3481889847136,182.92542667077657 C 308.4613148345793,183.54712818107333 307.53736495640254,184.07932096589496 306.3259585302735,183.91753225405697 C 305.4603064116476,184.59046828064226 304.49324462773905,185.01857971794647 303.47103497589865,185.31355242455334 C 302.76738166232894,186.37758816339334 301.88416283840314,187.0081144117974 300.79424847401964,187.13963348314644 C 300.005491324739,187.99821038760325 298.8852568647691,188.05653027297524 298.1098118550007,188.94724552518664 C 296.9888719196575,189.0038622423442 296.2045129246629,189.87305723052785 295.1037309008952,189.97833945120001 C 294.287980035103,190.77174775915574 293.23661880502095,190.99634233020754 292.30661023219926,191.5139081322471 C 291.6102647183454,192.59558646027213 290.62949390185645,192.99060136519356 289.6276812116037,193.3348166930969 C 288.7700075729856,194.02701447432392 287.70329660760416,194.21455150623703 286.89638266688104,195.02929403854398 C 285.77025719877014,195.073391772166 285.0056947130673,195.99037976156916 284.2456540025819,196.91828428202854 C 283.12169323681684,196.96760806941202 282.3099159417667,197.77060942574425 281.24945528368966,197.9732360343206 C 280.38592751713657,198.65130070049125 279.38789944467726,199.0046529039993 278.41940402895887,199.42930324794582 C 277.6589275670299,200.35615577135724 276.85841629416626,201.18635571125168 276.0465726482441,201.98919688240747 C 274.9217740717982,202.03649801589717 274.14263484184556,202.91829463171538 273.0305046067463,202.99617984652082 C 272.18014920032266,203.70604540515137 271.4651540974779,204.7426996318383 270.42177634270075,204.98656804632648 C 269.4508377034564,205.4053197932907 268.6882572870087,206.32709333137925 267.8839161195427,207.1480463841222 C 267.0817880667955,207.97434287927484 265.9523668781584,208.01048331561972 265.1305413934343,208.7892107633112 C 264.4031051300586,209.795938999133 263.33584778229334,209.98184798546094 262.3913964296734,210.46603602934152 C 261.63933881519057,211.4082050710346 260.80907519819567,212.17698628243633 260.00555179515186,212.99388112096656 C 259.2247889805697,213.81564767312065 258.2572180278511,214.55820984432333 258.0313524089617,215.6093750222911 C 257.46244319775684,216.5185035083738 256.9939194844402,217.46750311650402 256.60114489639005,218.45530852031743 C 255.94225046009748,219.3110060074236 255.95862564611102,220.52250745112255 256.4228067224669,221.45262389222805 C 257.0810014107812,222.33204104694806 256.92126424823846,223.54121472988615 257.4542644391008,224.46523486732627 C 258.07935080108064,225.3505649791146 257.9200516371076,226.56096598787 258.4764996346457,227.4748616064124 C 259.0658550143653,228.37513658805872 258.980233891561,229.55499289194742 259.0197980828579,230.68299632208613 C 258.95345847122854,231.85486641663792 259.722320763254,232.6807845795607 260.05676464939745,233.6866447313288 C 259.94939381333825,234.87551053561867 260.76703020745117,235.68122579945856 260.99402410284034,236.7315931968989 C 261.49725906416097,237.66753779829756 262.53566824829227,238.3818059783889 263.0567328601295,239.31036529673898 C 262.92800486726355,240.50807752468828 263.43164700495004,241.4438534681227 264.0661069437036,242.3254429041556 C 263.9788769622782,243.50596609295454 264.0223469159116,244.63235159605082 263.9402336436458,245.810755374521 C 264.71934119483194,246.63242980771935 264.97543275993485,247.67074455569139 265.5906155283965,248.5603188571032 C 265.9949844419402,249.53721511635834 266.4726182391416,250.4837640671569 267.01786414030084,251.4023071675153 C 267.3336233869698,252.41590675254707 268.0779919703052,253.25197053737205 267.92588626727405,254.45936612992895 C 268.3869848200295,255.41276420323393 269.07411942771375,256.2725350770022 268.9259965789747,257.47828091729417 C 269.4016474148204,258.42565123757976 270.0769900167074,259.29030652007674 269.9190598114435,260.50011470045234 C 270.4485544886276,261.4251821714052 271.01509944536076,262.33490291407924 271.30279967179706,263.3601249258385 C 272.03056915588223,264.20306428269606 272.18241643478564,265.2845584278118 273.0351791482317,266.0757238938633 C 272.95269287067373,267.2542821761845 273.2306399811321,268.283544060857 274.03840445342684,269.0933484086765 C 273.9478440646068,270.2752510973864 274.2646222430884,271.2884286270423 275.02082633222216,272.11958998484823 C 275.13787945786663,273.215496340135 276.00083338784174,274.00244046608316 276.0544330021125,275.1246301263612 C 276.9349758202449,275.90428869628744 276.9950847118563,277.0237821256097 277.0922492347406,278.1279266098965 C 277.9649335194806,278.9108402909344 278.01367198996354,280.03504350289813 278.8906308678481,280.8161865894837 C 278.9837148678827,281.92202128167105 279.770067722509,282.7406946119645 280.04543155989046,283.77102652325385 C 279.97311629948865,284.945371832545 280.8351881927113,285.73268130784516 280.9695573060446,286.82141515267836 C 281.72046529180665,287.65477019049206 281.9764752993456,288.69311883321234 282.609682965183,289.5752264188696 C 282.99170745944576,290.5613796641329 283.49506118798826,291.4972675748218 284.01102064335436,292.42796211394455 C 284.37466811173175,293.4216336272742 285.03805739080934,294.29146926657694 285.19214277426386,295.37100991441014 C 286.148611729741,296.12138335826353 286.9405191299985,296.93825371640656 287.75139064414714,297.72655452969707 C 288.5209052628823,298.6450496153157 289.4900298068058,299.0633545518562 290.692277588854,298.9246084274992 C 291.56104768351037,299.5894613434624 292.51164750308885,300.0583567830011 293.6840735695263,299.9875368035284 C 294.82509559081285,300.0050402012717 295.9674832316212,299.99690621989737 297.09193124273617,299.94877026557197 C 297.87672043516505,299.0806805863838 298.9865689918498,298.99734108873133 300.10352978034837,298.93111947609026 C 300.8851478084428,298.0553055187666 302.0061963819757,297.9989502210227 302.8404118621004,297.2501195645141 C 303.57545608496207,296.2618679709364 304.5889570407725,295.9458706989084 305.78455682721267,296.0694987917816 C 306.6114083730223,295.3028898997219 307.6387357448144,295.0202724604494 308.5457560797299,294.4472081430365 C 309.49470616084864,293.9753711870844 310.52226743273536,293.69331843420406 311.2290878136206,292.63692867221914 C 312.10392011295227,291.9861555624011 313.22071684726006,291.9195362731115 313.99056974277005,291.0153204628152 C 314.7527688520653,290.0926267780358 315.86718051368774,290.0202494139224 316.73437112634633,289.3510276404966 C 317.52031915477573,288.4856689183825 318.2956579641856,287.59469727582507 319.1887930570874,286.98811101847133 C 320.25892823189054,286.8088407593846 321.061831162066,285.98441479101444 322.1719002151673,285.9015534425137 C 322.9509353218135,285.0195054508746 324.0740320551804,284.96809570475705 324.8508626318701,284.08072550699865 C 325.96576657965215,284.0095366268084 326.76294682823374,283.1712948829215 327.8395357986115,283.0076054646399 C 328.74017674833703,282.4191399486269 329.439609465185,281.3449147879398 330.4488782322911,281.0187000218979 C 331.4196750848477,280.59960583798056 332.3062960634561,279.97729311755256 333.3466281954301,279.7260719482678 C 334.17426454022296,278.9613577249107 335.2901442308318,278.89252449628646 336.0381671841663,277.93560654352444 C 336.81646971987067,277.05178996918255 337.9467354735204,277.0176877690607 338.74206091707686,276.17496812972587 C 339.8238718466893,276.02388563625095 340.67367460514737,275.312685869394 341.66290543804297,274.9380952508189 C 342.8550135660693,275.0532937496467 343.677191142805,274.2754008944122 344.68393599585386,273.94309286082284 C 345.8735846429,274.05235364731186 346.6751254312087,273.22463917757335 347.7388331822253,273.0298517448099 C 348.6017749278481,272.3503722989617 349.6068813311741,272.01410869783047 350.52476870191595,271.4672797253374 C 351.47179799523076,270.99080557755383 352.45854531998066,270.61021923993144 353.31550124926025,269.91628875508553 C 354.5272240927767,270.0788413660717 355.45587460786174,269.55799692262565 356.33608472416284,268.9202070114691 C 357.5483008937583,269.0839506169652 358.4548471527643,268.50974177870705 359.38410703746433,267.99036848365057 C 360.39010202682806,267.65625011898317 361.2506407873515,266.9709693539176 362.31512849992333,266.77806491491924 C 363.1193784475676,265.956890934391 364.28498872104296,266.0081179533876 365.44628693715174,266.04893474500835 C 366.41539741551856,265.6257692936507 367.2691914232822,264.9242052549979 368.47633129406694,265.07569359105844 C 369.42042666561696,264.5921363295595 370.294548772469,263.93964866342293 371.4643336891,264.0009541625441 C 372.6343002366315,264.06269815744855 373.529132841847,263.4602100573449 374.45873761613876,262.94166939941783 C 375.62494825069166,262.9943458182703 376.7959624678982,263.05861911151305 377.6245349014424,262.2961648063154 C 378.6536785549105,262.01793226047926 379.56340786047576,261.45140797639476 380.4937221716287,260.934580291981 C 381.6724319496801,261.0174323125851 382.8030896148203,260.9842762704991 383.96088225335035,261.01662984918494 C 384.75870536640673,260.1799401174317 385.81956457334536,259.9782756909223 386.9732810906568,260.0007886424811 C 388.1176390356938,260.0007080019301 389.2616074725949,259.99968700555434 390.4061661573666,260.0000909935929 C 391.55051101130124,259.99997874832496 392.69491282455414,260.0000040150156 393.83930228643146,259.9999994628477 C 394.98369386152075,260.0000000124249 396.12808521215095,260.0000000201102 397.2724765477683,259.9999999915509 C 398.416867899713,260.0000000024097 399.56125924593204,259.99999999944544 400.7056505936514,260.0000000001029 C 401.85004194105045,259.9999999999869 402.9944332885028,260.0000000000001 404.13882463595024,259.9999999999998 C 405.2832159833935,260.00000000000693 406.4276073308599,259.9999999999608 407.57199867821873,260.0000000001734 C 408.7163900259941,259.99999999938046 409.8607813725443,260.00000000154586 411.00517272051553,260.0000000002798 C 412.14956408292494,259.9999999641574 413.2939552997959,260.00000027939575 414.43834738741094,259.99999849247166 C 415.58273539564107,260.00000655405444 416.7271389834558,259.99997700319227 417.8714980930024,260.00005483236885 C 419.01589849939825,260.00003296213146 420.1609071075914,259.9985427628662 421.30017668875394,260.01090780049344 C 422.4730170109058,259.9422258999258 423.4262133611647,260.40381145519444 424.2981717180542,261.06152287583615 C 425.4681048604497,260.9998595280639 426.6401017135802,260.93321394184665 427.521774715804,261.56747213396847 C 428.4862692574104,262.0017814424568 429.46170831371995,262.40966835511426 430.33387559081103,263.0668753977719 C 431.5062987332001,262.9992006582452 432.67621610536685,262.9375753831735 433.5562366714884,263.5758229089438 C 434.5019519163318,264.05546945036883 435.6671257431075,264.00529610691393 436.833626378268,263.9519195646614 C 437.6668525021293,264.70313886758015 438.66327159916307,265.06037548138306 439.85586818368864,264.94399774425085 C 440.666581409815,265.7495679902095 441.70831822925754,265.99739794395657 442.6575929977604,266.46845103508747 C 443.35426883041765,267.54933190297845 444.3132341532421,267.99698992643727 445.33702484743816,268.28814565915445 C 446.1753217543065,269.0271230089501 447.2589302024139,269.17386590897223 448.0537255279086,270.01786536641225 C 449.1837578510871,270.05253111813727 449.96189317885916,270.93675136813306 450.71374877204056,271.8844165019 C 451.8191512261907,271.97854403925476 452.7079471639538,272.5956058140339 453.46852811220066,273.52220660840027 C 454.30470565783946,274.2662991558887 455.092902781611,275.1262302264727 455.8896294828484,275.96556853029387 C 457.01797682387974,276.00430113620564 457.8402015223502,276.78214384710725 458.62239113443644,277.65617819520844 C 459.44564454196046,278.43287382461085 460.2487720330623,279.25337140141323 461.0609840369532,280.0594364772567 C 461.8745174795314,280.86688939791475 462.6466247868342,281.6916772652342 463.59855240205155,282.44164510738386 C 464.00792338627883,283.4165089120233 464.27884474002667,284.4486723924728 465.23379754029713,285.1975124844746 C 466.01672795455005,286.01760284923694 466.82993311957364,286.82515354499526 467.6057182177105,287.648204281003 C 468.5466104904209,288.4028652398117 469.01714063501527,289.3523566345622 469.21482455778096,290.41486461705415 C 470.225302750919,291.14070219352027 470.992681821704,291.96723472220094 471.02615725661997,293.0977600904976 C 471.843153851203,293.9037403680524 472.836531307807,294.636661300412 472.96420760821024,295.72816739264147 C 473.6074019248615,296.60613893088936 474.07589815355084,297.55647278649286 473.92345825423627,298.7640068076827 C 474.68056087386975,299.59479598196936 474.9801002132899,300.6151140725641 475.5424645934085,301.5265664667703 C 476.00269436407797,302.48032440139815 476.42391279773864,303.4502413609015 477.02385255089376,304.34612952598485 C 477.2892320316355,305.3805970933329 478.0703860792104,306.2014238399717 477.9306786258596,307.4036839093611 C 478.3477667795173,308.37531168685774 479.05837255231626,309.22536048571095 478.98264318983547,310.4011199621673 C 479.0040997016508,311.53662373141924 478.9992944248179,312.6830054897012 478.9998602810083,313.8271624518397 C 479.0001988343363,314.97141356590663 479.00376657530904,316.11432710665565 478.96563921583964,317.2745113234922 C 479.24687375555334,318.3024115103819 480.040930722323,319.117893692896 479.98329846112017,320.28615710456364 C 480.0047078052184,321.4216804113235 479.9989265508447,322.5684664327399 480.000196708618,323.7123316636099 C 479.9999754092362,324.85681467626455 479.9999999539331,326.0011958569635 480.0000011494781,327.1455867091596 C 479.99999955087515,328.2899787191228 480.0000001223847,329.4343698278255 479.99999998103186,330.57876124297445 C 479.9999999732594,331.7231525598784 480.0000000764637,332.867543954732 480.0000000337382,334.0119352839952 C 479.9999980531926,335.1563258110367 480.0000147869042,336.3007240898505 479.99992114635086,337.44507665009763 C 480.00033965776834,338.5896413506531 479.9988223941426,339.73340422692786 480.00272151125836,340.87941064156547 C 480.00245464016604,342.0236914473867 479.91762959306965,343.1329471098973 479.0467738359754,343.9166181918851 C 479.00403460935695,345.0433063720213 478.99635316866954,346.184515962557 479.0011955028059,347.33091307047675 C 478.9999811014674,348.47480139641925 478.9987976072586,349.6187025245139 479.00415458434367,350.7653128045228 C 478.991885222988,351.90462201609466 478.9778403860011,353.04319580158017 478.11366264323516,353.82963300767244 C 477.99100450027044,354.9232176887679 477.99587097989956,356.06962479807834 478.03114895788895,357.22862876246165 C 477.7726552570283,358.2659485132239 476.9824510531777,359.08302656239186 476.8872707416857,360.1879929339479 C 476.0115546779162,360.96965081099347 475.96134308977156,362.0932438376428 475.08296359449304,362.8737984852348 C 474.9985882493862,363.98324042040866 475.01274411834544,365.1334953207657 474.85124837392425,366.21099294060775 C 473.99893895902846,367.00234616906664 474.0068681225303,368.1500218835743 474.0335417907926,369.3054618261738 C 473.7335769485451,370.32560366772674 472.94817786984567,371.14467206490104 473.04566652054245,372.3294445336441 C 472.78898903028403,373.36751658347004 471.8231308795261,374.1118363855445 471.0165657373824,374.92213751217815 C 470.97709998532696,376.05018160987447 470.09543131744647,376.8293738375659 470.0137624460097,377.93993683084005 C 469.2140359104686,378.7530706010762 468.9595736745528,379.79206023929515 469.01828612655504,380.9607710806416 C 468.181818064117,381.7586860121347 467.96953342662806,382.8151461836501 468.00784898667916,383.9754083557201 C 467.2763029023979,384.81678339355705 466.2532373373202,385.5374071087519 466.0328323178524,386.5905037079202 C 465.4779134171172,387.5050401206654 464.993031291424,388.44858671549804 464.60973204913637,389.43421031834185 C 463.959037242292,390.30907505182836 463.817474158736,391.394829050135 462.80176090025844,392.1184981904383 C 462.01209718006436,392.935800115267 461.9698463648273,394.06269060202123 461.0845303799691,394.8403720615543 C 461.01272052440487,395.9550187929146 460.17052861422826,396.7505628290456 460.02616767114995,397.83515791599245 C 459.2793344957378,398.67020083335353 458.9984423120538,399.69824282875396 458.5377461968461,400.6518075971491 C 457.466502647108,401.35247533768995 456.9848474043253,402.2973585511882 456.8193179142194,403.37318533886065 C 455.8256607958574,404.10599043153337 455.0177354084681,404.9157281261382 454.98025991386737,406.04459661546485 C 454.10360871904913,406.8258671485476 454.0094985978139,407.9312768074222 453.2969477846605,408.780519944181 C 452.43501831267645,409.5678884145232 451.54390389018687,410.3431680825487 450.9768996149239,411.25269856925814 C 450.84514258627155,412.34251436849934 449.8669947904959,413.08174363293074 449.032641302661,413.88053444990305 C 448.99738439818964,415.01032190935064 448.2181724018039,415.8319530799308 447.3816380829818,416.62984056713105 C 446.47184930441273,417.3973850636 445.98061862075065,418.3383019996202 445.7946242051084,419.4056519375826 C 444.7861802243004,420.1323321112853 444.0097737917246,420.95512538444575 443.9732998944849,422.0844087489832 C 443.14530019039626,422.8858313893558 442.3258083615236,423.69077810702964 441.4000683951577,424.4517154051775 C 440.99283865033107,425.4274266693145 440.70789100099944,426.45378883584624 439.7707907367927,427.21002054454425 C 438.97143460819285,428.02330774236924 438.08207319658527,428.7993135313228 438.01359152205055,429.91533884028513 C 437.3156325063321,430.7706260983708 436.41963873408287,431.5438846691543 435.63862298301257,432.3647687134426 C 434.8360438347399,433.1767208662265 434.02102898686036,433.9835220217693 433.1095196668211,434.7503540066105 C 433.01827574530944,435.85695044001363 432.3695171745715,436.7326200006977 431.45776043439787,437.4993373450973 C 430.6889054145047,438.32529219611894 429.8661479895579,439.1288281146794 429.05742219225635,439.9382234584447 C 428.28117253153994,440.76159860975247 427.3218786227477,441.5062502856894 427.0055884363265,442.5259115146086 C 426.62717480920344,443.4853088936189 425.7387405766582,444.34343223577895 424.8661245519652,445.00733955660206 C 423.9400980884588,445.18615046629117 423.8430891957613,446.37333778566915 422.87881412180616,447.0891936396381 C 422.07983275193044,447.905034938007 421.3166387624111,448.73552271887996 420.3531094557009,449.4792923224361 C 419.99815707943935,450.4771794282752 419.67842444451327,451.48901725576405 418.7217389599413,452.2371804735599 C 417.9442621137898,453.059520903556 417.13448557751605,453.8684919902391 416.32183134364175,454.67627201727817 C 415.51398369013765,455.48604128616256 414.70597527491117,456.29574481253803 413.8939323677025,457.10377692012474 C 413.0825843263088,457.9120969096754 412.3075158603488,458.7354443917491 411.3517009259442,459.4839242232344 C 410.9982201652987,460.481899057405 410.6750021374423,461.49240906557185 409.71811677053927,462.24044565042703 C 408.94105038371544,463.0629653942979 408.1311794354368,463.87189686949944 407.31769628879573,464.67933542206544 C 406.51331112706276,465.4905280761549 405.6960361815781,466.2964236169385 404.8985378948869,467.11043224740916 C 404.0965502103904,467.92259921250707 403.16106391320284,468.680026551451 403.0189621743426,469.7640542971997 C 402.4528354019302,470.6819519178459 401.512048982194,471.40650818911 400.7730166404272,472.3191215199106 C 399.9164740608395,473.01502572041716 398.76293540921563,473.06783084273695 398.00607135182594,473.9660149526528 C 397.96907297866596,475.0963707781002 397.1382460091955,475.90092317734246 396.270961034352,476.6589886397738 C 395.5483710592587,477.6222186515849 394.55453813747454,478.00485243893024 393.5352235160819,478.29854343878077 C 392.7808246877943,479.252879479166 391.9653205577929,480.03500159789513 391.17592455142244,480.8517437020022 C 390.2263225605365,481.60614316188077 390.01428864333786,482.6612319082398 389.53664666815536,483.60811424636125 C 388.5927886114981,484.361396959066 387.8225803904843,485.1868010094316 387.00683833203084,485.9932936611609 C 386.1966443146795,486.8020905600794 385.3888117117227,487.61186821641843 384.57895892893663,488.4208068390143 C 383.76995627838147,489.23009854385464 382.96070807859684,490.03928826565055 382.15150034801957,490.84849479537115 C 381.34229910121326,491.65770401797204 380.5330891864913,492.46690964056006 379.7238833492893,493.27611695664905 C 378.914676224443,494.0853237379456 378.1054693570794,494.89453062618156 377.2962624966323,495.70373751729 C 376.4870556006163,496.51294439362624 375.67784872373903,497.3221512779098 374.8686418402702,498.1313581594588 C 374.0594349583201,498.9405650416366 373.25022807627465,499.74977192375627 372.441021194145,500.5589788059458 C 371.63181431192805,501.3681856877497 370.8226074300746,502.177392570497 370.01340054783486,502.9865994522946 C 369.2041936641943,503.7958063307122 368.3949867904187,504.60501323294744 367.585779880626,505.4142200482279 C 366.77657306136564,506.22342708207367 365.96736611794836,507.03263381617836 365.15815900858297,507.8418401496487 C 364.34895369503715,508.6510508186106 363.539741107947,509.4602439276834 362.73054857769904,510.269485458257 C 361.9213221409581,511.07864513131443 361.11208771966545,511.88778552795964 360.30316712468624,512.6976835683466 C 359.49280787196284,513.504108381696 358.68677950672196,514.320988882343 357.87220694191376,515.1172418605149 C 357.0614612567387,515.9227337433986 356.30247323473293,516.8531796786622 355.21073482785823,516.980295121891 C 354.31092470671086,517.5707664355253 353.54931675781353,518.4948873077549 352.72380989862194,519.2647425641311 C 351.91835648609987,520.0830111234296 351.1089396551544,520.8917111442167 350.29938715956234,521.7000836415742 C 349.4903989239518,522.5098183830321 348.681110270004,523.3188278504656 347.87192446393857,524.1280856146515 C 347.06271516800837,524.9372866692869 346.2535070769756,525.7464906328026 345.4443011723695,526.5556998748191 C 344.63509388824093,527.3649057863735 343.82588712029514,528.1741129441035 343.0166802200124,528.9833197823436 C 342.20747333445917,529.7925266561442 341.39826645641637,530.6017335480764 340.58905957289824,531.4109404267901 C 339.77985269019484,532.2201473074708 338.9706458090941,533.0293541920204 338.1614389314551,533.8385610849282 C 337.3522320190921,534.6477678940041 336.5430252463249,535.4569750400939 335.7338180910096,536.2661812626312 C 334.924611574255,537.0753890267907 334.1154052465665,537.8845972473956 333.3061928264119,538.6937907594867 C 332.4970080644862,539.5030510444487 331.68774055456845,540.3121115580863 330.87863470491254,541.1215623541204 C 330.06946301717477,541.9308542029639 329.2592815118498,542.7377081364939 328.4544589088739,543.557499604754 C 327.6321422943487,544.3350567930712 326.84855723492984,545.206120227018 326.02992482504226,545.9925718721382 C 324.90112368126256,546.0302099532715 324.1017889586055,546.8632503366259 323.3109684664511,547.7168458907335 C 322.4902943667973,548.4983684607295 321.68534476053776,549.3178533159397 320.87505498022574,550.1244458505265 C 320.0659711304539,550.9339497589793 319.25675981024574,551.743145926576 318.44781655793633,552.5529892673296 C 317.6376827774858,553.3599584188979 316.8303414201048,554.1736690761128 316.0203669085968,554.9810227369227 C 315.1996662618795,555.762481216638 314.45145119909614,556.7189353761634 313.42030813589906,556.9923409199149 C 312.44416375431797,557.3985250267367 311.69415504229585,558.3506489339434 310.8696868840826,559.1230118363088 C 310.0622294181889,559.9364421827781 309.25389827410413,560.7477632835087 308.4439778481047,561.5552475182869 C 307.6350803548658,562.3652013312087 306.82575419183786,563.1741202437123 306.01657704411343,563.9833989109821 C 305.2075906026519,564.7931379838988 304.3972085555334,565.5995077667102 303.59187193700853,566.4180582916604 C 302.77394752813586,567.2062192024333 301.9729836433594,568.0353264405036 301.19644166043753,568.923393365251 C 300.07835613926966,568.9869012478227 299.2251613930598,569.6899120318467 298.4523038290132,570.5868739306114 C 297.62803347630836,571.3597143777182 296.82313417942214,572.1793206904995 296.01322876472994,572.9868411657789 C 295.20389837181494,573.7957498664318 294.394849909564,574.605339207917 293.5855651893163,575.414358172143 C 292.77639314694443,576.2236491648245 291.9671698638244,577.0328164513967 291.1579188020076,577.8419166742622 C 290.34901680219946,578.651859607364 289.5387026169918,579.4583932233214 288.7322817251892,580.2743260810191 C 287.9192749278998,581.0743591563704 287.1047402764654,581.8707036655237 286.3510529324577,582.8139465695001 C 285.2762643030493,582.9819823953668 284.3525633797132,583.5147762103411 283.59553436010987,584.4499515957734 C 282.7698842533143,585.2194610218413 281.9640058449552,586.036703550426 281.15504876126175,586.8465134992649 C 280.3442498958909,587.6518769937954 279.53943457328074,588.4716860384264 278.719635100414,589.2553201442404 C 277.9250504110995,590.099828122559 277.1347596223322,590.9547024938286 276.00837689717787,590.9981791539028 C 275.1780453640619,591.7563866188789 274.3983741238434,592.6368988378181 273.5752747932777,593.4125664176303 C 272.7704638356598,594.2323859190325 271.96036595715674,595.0394418299784 271.1511382161166,595.8485986252595 C 270.3420750837315,596.658150589783 269.5327193031271,597.4670052320419 268.7237484769282,598.2767635437646 C 267.91423417833875,599.0852543760282 267.10466684288525,599.8936222295248 266.2995777429338,600.7124144447288 C 265.4735185085063,601.4823927244313 264.711417009852,602.4012506078344 263.81987539674304,603.0186369422876 C 262.7364079772764,603.1341800664201 261.9514894567319,604.0468456261556 261.0715110516439,604.8272578706697 C 261.01052013294026,605.9391334625226 260.2935577972877,606.7879649249028 259.40002349282696,607.5609461029017 C 258.62698543697445,608.3856882502498 257.80684926179646,609.1902055027024 256.9997072395842,610.000295851086 C 256.19255264751985,610.8103563678495 255.37244654205892,611.61504311701 254.599347655051,612.4392090653845 C 253.705842644447,613.2134976767464 252.98928548923215,614.0610815019229 252.92921398684146,615.1805903996175 C 252.04883731895893,615.960317798895 251.2486959839392,616.7732797560775 250.301836313089,617.5254689838681 C 250.0248826801496,618.5551423812714 249.50843794260217,619.4856153140163 248.98957955677884,620.4150884811737 C 248.6311933210143,621.4110313891833 247.9712519445417,622.282066068132 247.75981831165507,623.338878737283 C 246.9423935381062,624.1446816573292 247.06084998748648,625.3381392725607 246.70321492561553,626.3343933276133 C 245.94988351459494,627.1667445863523 246.01709295917735,628.3389750029291 245.9958601005667,629.4745713828165 C 245.99966886227412,630.6205404974434 246.00400434229246,631.7667272254058 245.99199443699226,632.90614488031 C 245.9771315878125,634.0443810161041 245.1122934930274,634.8305651989624 244.9917468045412,635.9249736922902 C 244.99837541530223,637.072004521087 244.99905225392396,638.2184916433108 245.0124194540781,639.3561144048161 C 244.9382863569867,640.5318798786668 245.44911262160238,641.4628487104383 246.07002173603541,642.3547079603512 C 245.96691587942067,643.5245536928538 246.06866649784766,644.6950005791982 245.40637739936417,645.5692219205914 C 244.94218181833952,646.5197111309272 245.01102260011544,647.6929300550146 244.99855317651105,648.832029709499 C 245.0000033273637,649.9771193018413 244.99898762288151,651.1219351218527 245.00939460871666,652.2619536512415 C 244.94648519254545,653.4324273272421 245.36908908953617,654.4017624763159 246.06276115136478,655.2588281391627 C 245.98247548140793,656.4364744393988 246.00396532333582,657.5719645261457 245.99928068314395,658.7182962882212 C 246.00008779615456,659.8623533231425 246.0000009654904,661.0067806365302 245.99999559468318,662.1511742086076 C 246.0000016876062,663.2955630323181 245.99999953719094,664.4399552704839 246.00000010256946,665.5843463837464 C 245.99999998391286,666.7287377803418 245.99999999677135,667.8731291224631 245.99999999647451,669.0175204700332 C 246.00000014528197,670.1619117558416 245.99999891791913,671.3063036116786 246.00000571598565,672.4506921432773 C 245.9999755664572,673.5950959790541 246.00008385869234,674.7394424704379 245.99981147192557,675.8839466440538 C 245.99977838875884,677.0283516949821 246.0058775248995,678.1702167002984 245.95783707739886,679.3345070307643 C 246.29205093737644,680.3404626010623 247.05169376094946,681.1701992961914 246.98335752583264,682.342897705716 C 246.99998921440186,683.4803934182568 247.01764476434522,684.6174995171425 246.93993136826197,685.7939856680122 C 247.6957368126725,686.6258992412216 247.99969292891237,687.6426407882169 248.44367488939983,688.6115608668816 C 249.41110268757438,689.3272735394743 250.15108133517234,690.221785893704 250.98013878399814,690.9960763010387 C 252.10255554598825,691.0489537675993 252.88338630036486,691.9270083661172 253.99755151525676,692.0001936964319 C 255.14798803670607,691.9856080770926 256.2211439552111,692.1575710326221 257.013978206899,693.0063101408053 C 258.16620159215324,692.9874016427027 259.3031344343026,693.0054083279788 260.4519946194612,692.9946195098966 C 261.58672014961894,693.0179548803144 262.7637456588301,692.9391690394024 263.6134622144249,693.650576919603 C 264.5920393548158,694.0508878265995 265.7610440678708,693.991465905621 266.9015525098025,694.0008400687636 C 268.0462563772889,694.0000855786469 269.1907127412145,693.9999286149822 270.3350644867855,694.0000242223681 C 271.4794684572038,693.9999937478194 272.6238566687354,694.0000013185888 273.7682486517951,693.9999997840839 C 274.91263990166743,694.0000000196494 276.05703125611564,694.0000000027474 277.20142260551216,693.9999999980413 C 278.34581395187973,694.0000000006465 279.4902052996627,693.9999999998357 280.63459664702737,694.0000000000343 C 281.77898799449076,693.9999999999945 282.9233793419353,694.0000000000005 284.06777068938237,694.0 C 285.21216203682934,694.0 286.35655338427614,694.0000000000001 287.5009447317234,693.9999999999999 C 288.6453360791698,694.0000000000009 289.7897274266183,693.9999999999972 290.9341187740624,694.0000000000045 C 292.0785101215012,694.0000000000246 293.22290146907415,693.9999999997087 294.3672928156806,694.0000000018155 C 295.51168416733054,693.9999999912817 296.6560754976467,694.000000034217 297.8004668999065,693.9999998968386 C 298.9448581498809,694.0000001411354 300.0892491286648,694.0000010651204 301.23364550283003,693.9999884665863 C 302.3780042662984,694.0000701322676 303.52255591576795,693.9996683650658 304.6663037347379,694.0012812494913 C 305.812705293923,693.9962430276871 306.95385760314394,694.0043610745098 308.0815588932193,694.046178115473 C 308.8668015662971,694.9203412987692 309.9723356777249,695.000225346992 311.09465709099055,694.9479549187212 C 311.8787963157011,694.0743136719225 312.99324082144415,693.9993038040876 314.1366959723307,693.9969574015507 C 315.28279044979985,694.0012259801492 316.4265554738633,693.9996562171157 317.5711151329298,694.0000780587669 C 318.71546965962614,693.9999857748354 319.8598673835054,694.0000017549967 321.0042580351714,694.0000000118698 C 322.14864933986655,693.9999999241832 323.2930407691845,693.9999999587517 324.43743190293804,694.0000003920704 C 325.58182414429626,693.9999982558033 326.72621222547065,694.0000061365794 327.87061220072724,693.9999853080018 C 329.0150008872888,693.9999917318647 330.1592289542606,694.0003859257961 331.30498069402233,693.9971016482259 C 332.4418028718878,694.0153752400831 333.61988048775385,693.9340493940006 334.5191440691225,694.5258401713817 C 335.4407210718185,695.0637615843707 336.6171923369666,694.9863138119764 337.754960689414,695.0023031363273 C 338.90040094693467,694.9997708434015 340.04470657300146,694.9999777931205 341.1890808384912,695.0000190326131 C 342.33348275593295,694.9999935143876 343.4778707219075,695.0000016779849 344.6222629113202,694.9999996452996 C 345.7666540877001,695.0000000582924 346.9110454615172,694.9999999946289 348.05543680703664,694.9999999992823 C 349.19982815397,695.0000000005226 350.3442195017051,694.9999999998269 351.48861084906207,695.0000000000441 C 352.6330021965311,694.9999999999908 353.77739354397374,695.0000000000015 354.9217848914212,694.9999999999999 C 356.06617623886814,695.0 357.2105675863151,695.0 358.35495893376196,694.9999999999999 C 359.499350281209,695.0 360.64374162865596,695.0000000000001 361.788132976103,695.0000000000001 C 362.9325243235499,695.0 364.07691567099675,695.0 365.22130701844384,695.0 C 366.3656983658908,695.0000000000001 367.5100897133376,695.0 368.65448106078463,695.0000000000002 C 369.7988724082316,695.0 370.9432637556784,694.9999999999999 372.0876551031255,694.9999999999999 C 373.23204645057234,695.0000000000001 374.37643779801937,695.0 375.5208291454663,695.0 C 376.6652204929132,695.0 377.8096118403604,695.0 378.954003187807,694.9999999999999 C 380.0983945352544,695.0000000000001 381.242785882701,695.0 382.3871772301483,695.0000000000001 C 383.5315685775951,695.0000000000001 384.675959925042,695.0 385.820351272489,695.0 C 386.9647426199358,695.0 388.1091339673829,695.0 389.2535253148297,695.0 C 390.3979166622769,695.0000000000002 391.5423080097236,694.9999999999999 392.68669935717077,695.0 C 393.8310907046176,695.0 394.97548205206476,695.0000000000002 396.1198733995114,694.9999999999999 C 397.2642647469585,695.0000000000001 398.4086560944052,694.9999999999999 399.5530474418523,695.0 C 400.6974387892993,695.0 401.8418301367462,694.9999999999999 402.9862214841934,695.0000000000001 C 404.13061283164024,694.9999999999999 405.27500417908715,695.0 406.41939552653423,695.0000000000001 C 407.5637868739811,695.0 408.7081782214279,694.9999999999998 409.85256956887497,695.0 C 410.99696091632205,695.0000000000001 412.14135226376897,695.0 413.28574361121576,695.0 C 414.4301349586628,695.0 415.5745263061098,695.0 416.71891765355633,694.9999999999998 C 417.86330900100364,695.0000000000001 419.00770034845067,695.0 420.15209169589747,695.0 C 421.2964830433444,694.9999999999998 422.44087439079163,695.0000000000001 423.5852657382385,695.0000000000001 C 424.72965708568546,695.0000000000001 425.8740484331323,694.9999999999999 427.0184397805792,695.0 C 428.1628311280262,694.9999999999999 429.3072224754731,695.0 430.45161382292014,695.0000000000001 C 431.59600517036705,694.9999999999999 432.74039651781413,695.0 433.884787865261,694.9999999999999 C 435.02917921270796,694.9999999999999 436.17357056015504,695.0 437.3179619076017,694.9999999999999 C 438.4623532550489,695.0000000000002 439.60674460249584,695.0000000000001 440.7511359499428,695.0000000000001 C 441.89552729738966,695.0000000000001 443.0399186448365,694.9999999999998 444.1843099922838,695.0000000000001 C 445.32870133973046,695.0 446.47309268717737,694.9999999999999 447.61748403462457,695.0 C 448.7618753820715,694.9999999999999 449.90626672951834,695.0000000000002 451.0506580769653,695.0 C 452.1950494244124,695.0 453.33944077185936,695.0000000000001 454.48383211930616,695.0000000000001 C 455.62822346675324,695.0000000000001 456.77261481420027,695.0000000000001 457.917006161647,695.0000000000002 C 459.0613975090939,694.9999999999999 460.20578885654095,694.9999999999999 461.350180203988,695.0 C 462.49457155143483,695.0000000000001 463.6389628988818,694.9999999999999 464.78335424632877,695.0 C 465.92774559377557,695.0 467.07213694122265,695.0 468.2165282886696,694.9999999999999 C 469.3609196361168,695.0000000000002 470.5053109835635,695.0000000000002 471.64970233101053,695.0 C 472.79409367845767,695.0000000000001 473.9384850259045,695.0000000000001 475.0828763733513,695.0000000000002 C 476.22726772079824,694.9999999999999 477.3716590682454,694.9999999999999 478.51605041569206,695.0000000000001 C 479.66044176313915,695.0000000000002 480.8048331105863,695.0 481.94922445803326,695.0 C 483.09361580548,695.0 484.23800715292697,694.9999999999999 485.38239850037405,695.0000000000001 C 486.52678984782074,695.0 487.67118119526793,695.0000000000002 488.8155725427148,694.9999999999999 C 489.9599638901618,695.0 491.10435523760873,695.0000000000001 492.24874658505576,695.0000000000002 C 493.3931379325026,694.9999999999999 494.53752927994947,695.0 495.6819206273965,695.0 C 496.82631197484346,695.0 497.9707033222903,694.9999999999998 499.1150946697373,695.0 C 500.25948601718443,695.0000000000001 501.40387736463134,694.9999999999999 502.5482687120785,695.0000000000001 C 503.69266005952505,695.0 504.83705140697214,695.0000000000001 505.98144275441916,694.9999999999999 C 507.1258341018661,695.0000000000001 508.2702254493131,695.0000000000001 509.41461679676,695.0000000000002 C 510.559008144207,694.9999999999999 511.70339949165384,695.0 512.8477908391008,695.0000000000001 C 513.9921821865479,695.0000000000001 515.136573533995,695.0000000000008 516.2809648814388,694.999999999993 C 517.4253562289049,695.000000000039 518.5697475762641,694.9999999998277 519.7141389240385,695.0000000006179 C 520.8585302705853,694.9999999984445 522.0029216186117,694.9999999998435 523.1473129806435,695.000000035055 C 524.2917041993633,694.9999997242797 525.4360962796927,695.0000014936141 526.5804843104306,694.9999934863708 C 527.7248878599237,695.000022944716 528.8692468168399,694.9999447470572 530.0136494334115,694.9999719531306 C 531.1586434190725,695.0014268504802 532.2979833475946,694.9892316464029 533.4705506796173,695.0572544904985 C 534.4254833329135,694.5998607415701 535.2945113331766,693.9350748142183 536.4728803250392,694.0171041041845 C 537.6086633268814,693.9963217194756 538.7548353961063,694.0006207621432 539.8989438052441,693.99993768864 C 541.0433585661258,693.9999942136718 542.1877544136564,694.0000050778345 543.3321429384865,693.9999982634345 C 544.4765351917137,694.0000004501811 545.6209263131966,693.999999904656 546.7653177066464,694.0000000157164 C 547.9097090469772,693.9999999985369 549.0541003949522,693.9999999998118 550.1984917425349,694.0000000001394 C 551.3428830899052,693.9999999999536 552.487274437376,694.0000000000118 553.6316657848173,693.9999999999976 C 554.7760571322654,694.0000000000006 555.9204484797119,694.0000000000002 557.064839827159,694.0 C 558.2092311746061,694.0000000000001 559.3536225220529,694.0000000000002 560.4980138694993,693.9999999999997 C 561.6424052169467,694.0 562.7867965643939,694.0000000000002 563.9311879118405,694.0000000000001 C 565.0755792592879,694.0 566.2199706067347,694.0000000000001 567.3643619541817,694.0000000000001 C 568.5087533016285,693.9999999999999 569.6531446490756,694.0000000000001 570.7975359965225,694.0 C 571.9419273439694,694.0000000000003 573.0863186914163,694.0000000000005 574.2307100388609,693.9999999999942 C 575.3751013863249,694.0000000000352 576.5194927336885,693.9999999998341 577.6638840814709,694.0000000006438 C 578.8082754278627,693.9999999980969 579.9526667770596,694.0000000023211 581.0970581326836,694.0000000220629 C 582.2414493774893,693.9999997742643 583.3858413772468,694.0000013490811 584.5302295527478,693.9999936913266 C 585.674633492162,694.0000240910252 586.818986222754,693.9999308616897 587.9634347253475,694.0000688464196 C 589.1081837503974,694.0009323565404 590.2485014849603,693.9910977850644 591.4181211400336,694.0520043075143 C 592.3928578993506,693.6424218997936 593.2456074114035,692.9383362257672 594.422849872615,693.0176458287898 C 595.558212309472,692.9958481166685 596.7047692829093,693.0010763764749 597.8483271916461,692.999064344973 C 598.9931838339589,693.0001876064397 600.1444081436581,693.0166828755896 601.2184082068051,692.8467527223281 C 602.0099876220187,691.9949796910975 603.170174725206,692.0331756367883 604.224927024704,691.8162193259433 C 605.0274365404192,690.9915017248529 606.1566090646476,690.9508327978103 606.9425337024821,690.0828568669222 C 607.7039585950546,689.2271475729849 608.6799407042245,688.5077350199851 608.982050625612,687.4810755622211 C 609.4356010109581,686.5261887996456 610.0694970045898,685.6437910223343 609.9829771815415,684.463665342573 C 610.0045190811562,683.3281729874269 609.9959254909396,682.1802265408077 610.0036861060768,681.0390491552281 C 610.0489296289556,679.9133982962286 610.9200470423931,679.1298356058822 611.0019963064168,678.0193887647843 C 611.0027907534301,676.8753264881615 610.9988154634782,675.7292885212196 611.0003391660991,674.5855283122485 C 610.9999217030327,673.4409640458864 611.0000145784626,672.2966111687135 610.9999981103324,671.1522129999416 C 611.0000000219679,670.0078224443201 611.0000000788069,668.8634311204167 610.9999999680715,667.7190397271016 C 611.0000000089735,666.574648396597 610.9999999979586,665.4302570445875 611.0000000003731,664.2858656981406 C 610.9999999999538,663.14147435052 610.9999999999999,661.9970830030924 611.0000000000023,660.852691655646 C 610.9999999999992,659.7083003081979 611.0000000000005,658.5639089607519 611.0000000000001,657.4195176133044 C 611.0,656.2751262658572 611.0,655.1307349184104 611.0000000000001,653.9863435709638 C 611.0,652.8419522235163 610.9999999999999,651.6975608760695 611.0,650.5531695286231 C 611.0,649.4087781811758 611.0,648.2643868337286 611.0000000000001,647.1199954862817 C 611.0000000000001,645.975604138835 611.0000000000001,644.831212791388 610.9999999999999,643.6868214439407 C 610.9999999999999,642.5424300964936 611.0000000000002,641.3980387490474 611.0,640.2536474015999 C 611.0,639.1092560541529 611.0000000000001,637.9648647067064 611.0000000000001,636.8204733592595 C 610.9999999999999,635.6760820118118 611.0,634.5316906643651 611.0000000000003,633.3872993169188 C 611.0,632.2429079694712 611.0,631.0985166220244 611.0000000000002,629.9541252745778 C 611.0000000000001,628.8097339271307 611.0,627.6653425796839 611.0000000000003,626.5209512322363 C 610.9999999999991,625.3765598847901 611.0000000000032,624.2321685373417 610.9999999999945,623.0877771898978 C 610.9999999999831,621.9433858424557 611.0000000002556,620.7989944948964 610.9999999983171,619.6546031482519 C 611.0000000083508,618.5102117966488 610.9999999661856,617.3658204666676 611.0000001073165,616.2214290607621 C 610.9999998139779,615.07703783482 610.9999992303935,613.9326467291028 611.0000101743284,612.7882508485126 C 610.9999347977074,611.6438907232033 611.0003183467853,610.4993405039207 610.998730381552,609.355606915716 C 611.0039324221132,608.2090608043079 610.9938543007551,607.068843967314 610.9656273618955,605.9361446450433 C 610.0970819134461,605.1515169534365 609.9947809255632,604.0494992688559 609.9985983268101,602.9035234469072 C 609.9921964496542,601.7618247436757 610.0530429566609,600.591970036208 609.6362771719447,599.6217289245127 C 608.9666660142108,598.7510799861159 608.8281892263893,597.6804544714109 607.8969847743687,596.8909206271479 C 607.1134103493965,596.0413755870494 605.9911046000593,595.9982471853968 605.157909986553,595.2454463182164 C 604.4225804389542,594.2604788244962 603.4075164246791,593.9471980968871 602.2144125239796,594.0649838286861 C 601.3748554798972,593.3290045173354 600.3865792535502,592.9521283181286 599.2191810970046,593.0076684603143 C 598.0782333349922,592.9993553898732 596.9336233734681,592.9998831404554 595.7891526856814,593.000074673916 C 594.6448022549795,592.999975897862 593.5003984203258,593.0000060429039 592.3560100896242,592.9999987602569 C 591.2116181455624,593.0000002005299 590.0672268921362,592.9999999735563 588.9228355617232,592.9999999324322 C 587.7784438676,593.0000007693812 586.6340548271322,592.999995199842 585.4896519244686,593.0000230966035 C 584.3453077641535,592.9999091767886 583.2007649936603,593.0002747443599 582.0566459351064,592.9996173808225 C 580.9132471812201,592.997221047986 579.7551101506634,593.0304060625729 578.7166413254843,592.7746864727535 C 577.9073212181737,591.9657529404559 576.7421113804851,592.0160132219453 575.6063192754564,591.9952528142727 C 574.4594956792754,592.0011247821539 573.3156598049269,591.9997837514663 572.1711664584801,592.000029998834 C 571.0267879843168,591.9999989199779 569.8823965958434,591.999999019026 568.7380046626637,592.000000433109 C 567.5936135467466,591.9999998741459 566.4492221349986,592.0000000293829 565.3048308020212,591.9999999944514 C 564.1604394519679,592.0000000007415 563.0160481048354,591.9999999999831 561.8716567573933,591.9999999999721 C 560.72726540993,592.0000000000118 559.5828740624892,591.9999999999968 558.4384827150402,592.0000000000007 C 557.294091367594,592.0 556.1497000201468,592.0 555.0053086726995,591.9999999999999 C 553.8609173252531,591.9999999999999 552.7165259778062,592.0 551.572134630359,592.0 C 550.4277432829119,592.0000000000001 549.2833519354652,592.0 548.1389605880183,592.0000000000002 C 546.994569240571,592.0 545.8501778931243,591.9999999999999 544.7057865456775,592.0000000000001 C 543.5613951982306,592.0000000000001 542.4170038507832,591.9999999999998 541.2726125033365,592.0000000000001 C 540.1282211558895,592.0 538.9838298084426,592.0 537.8394384609956,592.0 C 536.6950471135488,592.0 535.5506557661018,592.0 534.4062644186544,592.0 C 533.2618730712078,592.0 532.1174817237609,592.0000000000001 530.9730903763137,591.9999999999999 C 529.8286990288666,592.0 528.6843076814199,592.0000000000001 527.539916333973,592.0 C 526.3955249865262,592.0000000000001 525.2511336390791,592.0 524.106742291632,591.9999999999999 C 522.9623509441852,592.0000000000001 521.8179595967383,592.0000000000001 520.6735682492913,591.9999999999994 C 519.5291769018431,592.0000000000032 518.3847855544026,591.9999999999873 517.2403942069336,592.0000000000423 C 516.0960028595373,591.9999999999153 514.9516115121382,591.9999999997959 513.8072201632219,592.0000000034712 C 512.6628288265205,591.9999999765879 511.5184374226905,592.0000001176506 510.3740463148942,591.9999995180767 C 509.2296541525617,592.0000015568123 508.0852645812687,591.9999971131105 506.9408758853473,591.9999904793465 C 505.7964252967302,592.0001386928728 504.65245234856087,591.9990919135481 503.50590385580864,592.0044888040936 C 502.3705461602608,591.9818878089649 501.19606719898076,592.0571630156363 500.3563858677446,591.3049943097858 C 499.36855270907466,590.9762901023986 498.1816056482299,590.9423556917482 497.2964044055971,591.786805438996 C 496.5695013247142,591.6165762030887 495.6142053399268,590.918845431 494.4463715918778,591.0189885262811 C 493.3072669315155,590.996404439548 492.16192075738564,591.0004833434589 491.01764536699056,590.9999879889821 C 489.87325537208585,590.9999822110859 488.7288581003457,591.0000075189479 487.5844690161532,590.9999978505989 C 486.4400770495481,591.0000004955676 485.2956858396732,590.9999999078758 484.15129446787574,591.0000000118987 C 483.0069031232429,590.9999999998771 481.8625117758847,590.9999999994981 480.71812042827264,591.0000000002025 C 479.57372908088655,590.9999999999433 478.4293377334234,591.000000000013 477.2849463859799,590.9999999999976 C 476.14055503853217,591.0000000000003 474.9961636910856,591.0000000000003 473.8517723436386,591.0000000000001 C 472.7073809961918,591.0 471.56298964874446,590.9999999999999 470.4185983012976,591.0000000000002 C 469.27420695385103,591.0000000000001 468.12981560640355,590.9999999999999 466.98542425895675,591.0000000000001 C 465.8410329115098,591.0000000000002 464.69664156406293,590.9999999999999 463.55225021661585,591.0000000000001 C 462.407858869169,591.0000000000002 461.2634675217222,591.0 460.119076174275,591.0 C 458.974684826828,591.0 457.8302934793808,591.0000000000011 456.6859021319376,590.999999999992 C 455.54151078447046,591.000000000042 454.39711943711086,590.9999999998226 453.25272808935375,591.0000000006002 C 452.1083367426629,590.999999998706 450.9639453955263,590.9999999979267 449.8195540293985,591.0000000447475 C 448.6751628247324,590.9999996868943 447.5307707122595,591.0000016042904 446.38638267218283,590.999993314975 C 445.2419798209106,591.0000221471969 444.0976151783222,590.9999552163829 442.953246984092,590.9998971871039 C 441.8080982324091,591.0017954814678 440.6692772369795,590.987834419017 439.495579245425,591.0612861303923 C 438.55045388748385,590.5651454666304 437.67837687501435,589.9472353847499 436.4683166745657,589.9554384274421 C 435.54401931091223,590.4375902604149 434.65340321388925,591.0673592898651 433.4755130780695,590.9837472726047 C 432.3391333097562,591.0024430872348 431.19282234217724,591.0019961286944 430.04933821553226,590.9969226322502 C 428.9082347873642,590.9713556191728 428.0592073294157,590.167231634345 427.9972100293697,589.029987412481 C 427.9878080439462,587.8814892047662 428.108144610487,586.785254274485 428.9909776277139,586.0072464461997 C 429.8123642454454,585.2047313133514 430.60158513537925,584.3784116592218 431.4327441883474,583.6076185717754 C 432.2059853167443,582.7161598622429 433.0502357248687,581.9906568202624 434.1721634971582,581.93651630238 C 434.95384472370284,581.0608178226615 435.7523489943151,580.2257574713781 436.57099583253915,579.439353952706 C 437.3761971094694,578.6204710664117 438.1866027848917,577.8141599618916 438.9955899303788,577.0044223116074 C 439.8045628680719,576.194650598243 440.61497643251556,575.3883569619082 441.42022379925976,574.5695909371804 C 442.2385745219352,573.7824592475176 443.0381194996038,572.9499264629249 443.8175729743831,572.0688885012914 C 444.9380031730101,572.0110411709786 445.78571148450203,571.2947849618132 446.56009428027824,570.4015052982534 C 447.38419203614734,569.6282481653448 448.1889112912419,568.8082071935844 448.99895900252386,568.0010302524374 C 449.8090190797522,567.1938831637368 450.6137320931955,566.3738271333723 451.437786985675,565.6004664837926 C 452.21243539095195,564.7078281411227 453.05921958491194,563.9893408248972 454.1800243636063,563.9323982728142 C 454.95998984343817,563.0525963762198 455.75929402462424,562.2194762534957 456.577695443896,561.4324962519986 C 457.3829960200072,560.6137667586797 458.19327150350995,559.8073330868955 459.0023393054274,558.9976607045234 C 459.81200121172134,558.1885917559532 460.61844732358577,557.378331382225 461.4372199152191,556.5730090969425 C 462.2238593258651,555.7545605524405 463.0582679974077,554.9556851711075 463.9351064325202,554.174210722573 C 463.99040709925333,553.0533959135562 464.7107010253858,552.20091738818 465.6180146447214,551.4649462153244 C 466.3404363415648,550.5163268605273 467.27164915911135,549.9822691309338 468.3461624325511,549.8173673675044 C 469.1009155848648,548.8753631963319 469.91507333602584,548.0782300875104 470.7281703613332,547.2785101674946 C 471.5345890276505,546.4625036134408 472.3448943460013,545.6559755075205 473.15380190623523,544.8460386637707 C 473.9630509390086,544.0369345752371 474.77227025481307,543.2277580153986 475.5814648881426,542.4185212619642 C 476.39067711023483,541.609327402561 477.19988239753735,540.8001166311624 478.00908956706786,539.9909104499873 C 478.8182964772693,539.18170363638 479.6275033075576,538.3724966278924 480.4367102151069,537.563289807805 C 481.2459170889193,536.7540829054886 482.0551239728139,535.9448760276887 482.8643308549501,535.1356691455485 C 483.6735377364862,534.3264622627771 484.4827446201135,533.5172553815357 485.29195149850057,532.7080484977928 C 486.1011583862464,531.8988416180431 486.91036527275185,531.0896347377558 487.7195720891736,530.2804278283578 C 488.5287792508714,529.4712210623807 489.33798532809834,528.6620138459424 490.1471936844682,527.8528075761985 C 490.9564004382964,527.0436006408023 491.7655960796231,526.2343890895747 492.5748577200135,525.4252049525676 C 493.38389281319616,524.6159267139951 494.19346103832635,523.8068699239739 495.0024251308312,522.997562193646 C 495.8098387794672,522.1876104509864 496.62952616350515,521.3827568851182 497.402850502833,520.5586453679603 C 498.29658608295483,519.7845494143712 499.0112588449873,518.9360758867878 499.0701748579719,517.8166445387933 C 499.95197622141234,517.0374303112833 500.7784951014968,516.2284681575884 501.5934729689196,515.4558426466388 C 502.32463920014294,514.5063247004691 503.31663923438055,514.0066240587548 504.05081547629675,513.6606332769786 C 504.26175940933706,512.5149070794067 505.2408512548755,511.8086829955233 506.01811865417625,510.98011819953456 C 506.82501140469253,510.1695308427022 507.6401940971558,509.3638039115315 508.4441259161432,508.5519042807407 C 509.26064214557596,507.74589353106836 510.06156979652286,506.93322027286337 510.8554779030144,506.11767752627424 C 511.8016819190532,505.3652205717667 511.9829403099061,504.2959070613008 512.4983830239429,503.3650194971462 C 513.4364446781891,502.60918581155096 514.2061601008805,501.7836210919253 515.022891101906,500.9775307903806 C 515.8325793600726,500.16852330006856 516.6403930920629,499.358739358116 517.4509175750678,498.5500782432298 C 518.2581777060637,497.74006499071686 519.0696683716025,496.9318040826059 519.8828154229867,496.1242292720485 C 520.6554996835246,495.2998942247555 521.6083042339645,494.55016744438734 522.006836436797,493.57085354039765 C 522.2872863146989,492.542628335943 523.2438686503177,491.79446636543605 524.0247300695472,490.97351840816805 C 524.8328911389038,490.1638783362306 525.643720814203,489.355343637067 526.4605641925918,488.54929989528335 C 527.2459822470789,487.7302393581379 528.0871997634287,486.93429171486844 528.9490634334643,486.146895988467 C 528.9955026619867,485.0217403993002 529.7433596475906,484.18712155800586 530.6278564424459,483.4091007788635 C 531.4004239632687,482.5847173763902 532.2258552200492,481.78223085030857 533.0276759927457,480.96996454150514 C 533.8156768853571,480.1519738509399 534.7679498531464,479.40202688183234 534.9866506734083,478.34822438024014 C 535.4534631492261,477.39719309136194 536.4069771052957,476.64776015643093 537.1599116553822,475.8152445112092 C 537.9840143435266,475.01220767397984 538.8953485866201,474.245303329877 538.9809816354069,473.1363823526249 C 539.6444688624671,472.26681641308784 540.515263368352,471.4831199600184 541.396158274487,470.70360722971776 C 542.0208085621115,469.81795450314513 542.1292675180475,468.718488326208 543.0549299747928,467.9575189225242 C 543.8698365678231,467.1506729379778 544.6265484993711,466.3197219353877 545.5852633339202,465.5724432748591 C 546.0083211044284,464.603288193624 546.2706402999319,463.5675530146253 547.2078254552143,462.8113564689511 C 548.0039462226089,461.99672914064587 548.9013566884948,461.2240573791844 548.986773491794,460.1150468301187 C 549.6275683547182,459.23608140559406 550.6774738426582,458.5265751504615 550.9953224184633,457.5138409938939 C 551.335410211859,456.5103186228693 552.2664849098051,455.75159104289406 553.0730335450946,454.94128307889736 C 553.9407894004466,454.1563279755661 553.9944244601694,453.03415299727493 554.7059937027408,452.18450328066854 C 555.7352315154324,451.4664361941455 555.9937049072819,450.42910803111556 556.3658469385967,449.4388629601682 C 557.4174301709755,448.7300516495365 558.0173283689068,447.83414627171584 558.1099693232798,446.7281280640016 C 559.0462358128912,445.97155099454693 559.9349870902921,445.19529247977596 559.9862135661124,444.07211983336657 C 560.7044628031583,443.22523706106796 561.5560342392536,442.43357815178115 562.4611140631035,441.66408314240306 C 563.0084524290891,440.7464067693545 563.2406227534159,439.6981835190244 564.0238358858072,438.8782096732426 C 564.1393026141516,437.78164621067873 565.0018090459931,436.9945167249346 565.0606512637179,435.8744986221093 C 565.9483985915427,435.0978242578077 566.0038212495277,433.97638972696126 566.7612333093275,433.14572872698835 C 567.778036666826,432.4225111204833 567.9889328003827,431.3654758118079 568.4118757887131,430.3962731862382 C 569.4799823283118,429.69430605355234 570.0043650031689,428.7671211219044 570.2252954391205,427.7142421573698 C 571.021317487281,426.89957393821913 571.1244221369313,425.79788993500074 571.9949960737607,425.014102119237 C 572.0495540925416,423.89230944310566 572.9366791383679,423.11537732116045 573.0004036795052,421.9973815429086 C 573.7452922475703,421.1615331428113 574.7360766405618,420.4275381283288 575.0543720113568,419.4149890403055 C 574.9298510845958,418.2190194361951 575.6947166161644,417.3914457653156 575.978273135821,416.36450737400963 C 576.5601031406077,415.46111790554085 576.9998791679386,414.49888775302105 577.441623544075,413.53747291727166 C 578.0218923919944,412.63343679645567 578.3048460340071,411.6062486850532 579.0742616304462,410.7805597127528 C 578.9246308857307,409.57418928149673 579.385825526905,408.62083100931784 580.0207878301638,407.73944965947635 C 580.2446352020854,406.6877789293809 581.0254037240425,405.86679249280263 581.1475717554193,404.7730048008403 C 582.0050666572569,403.98379947140046 582.069105706735,402.8659339667688 582.9589950547287,402.0901468562722 C 583.0120387355283,400.9677269208105 583.8881950833954,400.1862514154096 583.9825961163984,399.0809622561344 C 584.7766079237407,398.2654613679729 585.0257897458085,397.2242845107234 585.0039432458221,396.0708440466918 C 585.0316591640952,394.9379330084871 585.8953785594791,394.15130594869277 586.0108290765057,393.05473577118136 C 586.0470177387143,391.92533425842527 586.9251089127675,391.1446601842711 586.9957617795875,390.0295342124817 C 587.7141510907151,389.1827094607678 588.7132113511174,388.4521424228073 589.0554727641711,387.44952039452403 C 588.9301725848319,386.25322801342736 589.636562601106,385.4014329910458 590.0538374363955,384.4298825396128 C 589.9864969759723,383.25759786016204 590.0108187520201,382.1232809222154 590.0102625006962,380.9786591679257 C 590.8638855246248,380.18785005414395 591.0206646049589,379.10839872806804 591.0196550323639,377.9635892019601 C 591.8780828782517,377.1747703105982 592.0172742421444,376.08803391384083 592.031084262037,374.9493628639303 C 592.9139368206779,374.17066101984807 592.985833916211,373.0560504244661 593.7983221801395,372.24820273520754 C 594.0218567885519,371.1964024542244 594.0027699864596,370.0441050944886 594.0452084465473,368.9172923327762 C 594.9161041525018,368.1336377981481 595.0027913518385,367.02515346435064 595.0066466136348,365.88235901862606 C 594.9638413816193,364.72023716353783 595.2506127218572,363.6946303945175 596.0422364825025,362.87814034502645 C 595.9804962597087,361.70817535995445 596.0196287286051,360.5799932118536 595.9330979577169,359.39975964554196 C 596.5108883084278,358.49469689756785 597.0603462002455,357.5778984608647 597.0033912339468,356.40991559393245 C 596.9416292589137,355.23994159878777 597.6469746330584,354.3877138714687 598.0511048284861,353.4107187319325 C 597.9924595201239,352.24203570239223 597.9985243640076,351.1001564955356 597.9952122283484,349.95439321657807 C 598.0948183719585,348.85126008471013 598.9638035995641,348.0668142040394 598.9941587841281,346.93499638572706 C 599.0038963475749,345.79463846912455 598.9987145616495,344.6481007556697 599.0004044765477,343.5044093938929 C 598.9995936921526,342.35968220855347 599.0010765764634,341.21590509189934 598.9982501062556,340.07034298215865 C 598.9914928911804,338.92315270458374 599.1134285125607,337.8292687452489 599.9779305174802,337.04296585293827 C 599.9918529270404,335.90434135635195 600.004174334373,334.7650537029298 599.9987264627464,333.61840577316923 C 600.000307883496,332.47466947164435 599.9999394014831,331.33012549395033 600.0000088019531,330.18576289311903 C 599.9999995434503,329.04136771067493 599.9999997631961,327.89697645425144 600.0000001132568,326.7525852517834 C 599.9999999660473,325.6081938434918 600.0000000086836,324.463802513072 599.9999999960621,323.31941116288925 C 600.0000000069313,322.17501981241253 599.999999994216,321.03062847004423 599.999999901849,319.8862371608579 C 600.000000905139,318.74184539784295 599.9999947764861,317.59745658896423 600.000023859162,316.45305319507906 C 599.9999111913204,315.3087085161798 600.0002423595536,314.1641799943594 599.9998561442965,313.01994862251024 C 599.995917369063,311.8771887691836 600.0355689608899,310.7163731946324 599.7463948318656,309.6917616933148 C 598.9571897382452,308.8742697991393 599.0168758732702,307.70515564507934 598.9953130009973,306.5696959317716 C 599.0010499708649,305.42292825359885 598.999832451809,304.27904121905704 598.9999665732284,303.1345943166991 C 598.999980383532,301.9901972488372 599.0013851117034,300.84522404393044 598.9893864369069,299.7058027103142 C 599.0568085092398,298.53348422610395 598.6035836180755,297.57682477538253 597.9343803999051,296.7096264768853 C 598.0214072205611,295.52918744003233 597.9784618265442,294.40258465722866 598.0605317426475,293.22419883746915 C 597.3368631695773,292.3795608276509 596.9555006528318,291.3931350068205 596.9927051165363,290.2333330659265 C 597.0278492239768,289.0743845525401 596.2103286934337,288.2686212963626 595.9727287538468,287.2226470663114 C 596.0016283224331,286.0662851256097 595.9980766352398,284.923364935167 596.0287626866251,283.76626300906065 C 595.78176804955,282.7241801901237 594.9693922158052,281.9162859307581 595.0072312712412,280.75622113336203 C 595.0457324944788,279.59588205708224 594.6544012950591,278.6135853998146 593.9383854993342,277.7657775058303 C 594.0215104222027,276.5869546879598 593.9788747217491,275.4602236258823 594.0637582422823,274.28067237300843 C 593.3956642795644,273.41301460585873 592.9246858411173,272.4637089152022 593.0782296729925,271.2557176301739 C 592.3393088457968,270.41739731087114 592.0112642763303,269.4088864731599 591.5106513952593,268.4718557705512 C 590.9153841113045,267.5740322053554 591.0806632474296,266.36117999814815 590.4630066726897,265.4726303808475 C 589.921544349035,264.552520071372 590.0787991985034,263.3429916325265 589.4479254754549,262.45991673731123 C 588.9211754026567,261.5337124139979 589.0823319929713,260.322567821177 588.4059221761067,259.4583545935979 C 587.9834146270617,258.48897160317034 587.6750709514212,257.47230038804554 586.640492071299,256.75644564409026 C 585.9699421693365,255.88980516028403 586.0461642996362,254.71384157271365 585.7470909638906,253.69333045707683 C 584.9529403386558,252.87788706916936 585.0547082712095,251.6913420638438 584.7285574732498,250.68204680029055 C 583.9505037503948,249.85993585710543 584.0446472544547,248.67654899346732 583.7926240507344,247.6365490750339 C 582.8283769217833,246.89156196587732 582.0178877526564,246.0828862244391 581.9793233298308,244.9544687839519 C 581.0970082144713,244.1755443235732 581.0168827576758,243.06434202702258 580.1853983941685,242.26436277984126 C 580.0281253863068,241.18511604524585 579.2858468250342,240.34818654493642 579.0227449456227,239.31277556422762 C 578.3954554503953,238.42821603323802 578.0074865287557,237.4445266749131 577.5100066552139,236.5061982380947 C 576.9882977128073,235.5779058102039 576.629828630185,234.5819972184704 575.9625422120557,233.71400495539976 C 575.8068177479488,232.63411679297903 574.8624439166808,231.88089789439337 574.0732940500322,231.06338312445706 C 573.1534167241095,230.30001744112673 573.0147413076304,229.21306733195303 572.4601809322178,228.2983824131564 C 571.4014784552093,227.59251999020435 570.9900145794933,226.6185625605056 570.7664060008365,225.56679291900102 C 569.749422152505,224.84365007424717 569.0017284237383,224.00896360975656 568.9593287607429,222.88213477776262 C 568.1118480770908,222.08878142333296 567.2988666691407,221.28113800101593 566.3692295954813,220.5218149375634 C 565.995553094094,219.53220546493185 565.6854060933298,218.51628121152578 564.7276719339332,217.7685963420617 C 563.9498577356327,216.94638618454246 563.1404484278121,216.13726314986823 562.3274472708966,215.3296279081358 C 561.5203777904647,214.51953568414004 560.7104155566802,213.71064168187527 559.9013905062618,212.9013594781738 C 559.0921694949619,212.09215844482395 558.282944922849,211.28295894325305 557.4737623863927,210.47374175230286 C 556.6645098600668,209.66455441998409 555.8553800404255,208.85531444929626 555.0461693226795,208.0461092128375 C 554.2363690234474,207.23715724643006 553.4300286497804,206.42671898814817 552.6118713058842,205.62135698934307 C 551.8213628153694,204.80411776879447 551.0001106717041,204.00008521505285 550.0957868481685,203.23173807580034 C 550.0181468084089,202.11553147887585 549.3345445630049,201.281391058892 548.490524021852,200.3663262396735 C 547.5269249573836,199.99537428858395 546.5069645722294,199.6804102752 545.7642254142594,198.71626387514914 C 544.9381293330829,197.94663831065515 544.1225499135841,197.1528391603267 543.3710402621466,196.20447018295775 C 542.3063954401515,196.01188326883684 541.3580011341929,195.5387186097233 540.6531970282898,194.47745466198495 C 539.713123719202,193.9841891042052 538.6349681050785,193.824281536368 537.8993775842814,192.83734916343207 C 537.0921438521576,192.02337866238366 535.9618090203691,191.98944322864668 535.1481061534793,191.19109061425772 C 534.3476416387263,190.36077778925448 533.5822099948964,189.44588813372997 532.6296057895239,188.98287301407754 C 531.5717319697947,188.77400122531452 530.8483699313572,187.7575465573338 530.0163322409785,187.00345812218424 C 528.8864595822333,186.96840690701208 528.0852963387881,186.13978096334407 527.3506624238411,185.1505390125184 C 526.2513587444422,185.0416877528209 525.3975206469702,184.34023015614028 524.3880928616934,184.01439929392282 C 523.4688580499491,183.47082333177144 522.5311750233403,182.97178530014793 521.4935867914005,182.71393977018712 C 520.7884140630047,181.65357222322646 519.9177674427197,180.99269399028344 518.8184566335127,180.88385994346586 C 518.0347575865933,180.013071699688 516.9106427320048,179.96411991563178 516.1282888535623,179.09008414787368 C 515.0228444687365,178.99605786250044 513.8946061831608,178.95706092145684 513.0900942993977,178.13651931065877 C 512.3472269300767,177.1671546770483 511.26498778091945,177.01710599700613 510.33595302138286,176.49718920172637 C 509.617898961638,175.4679199396103 508.69132773734475,174.94205564413463 507.4912798225856,175.0764224837745 C 506.5673128103949,174.5442710641216 505.65419568891355,173.9859256911676 504.6337106131835,173.6867894895255 C 503.7853661088057,172.9720691858901 502.71515118677183,172.79299145364953 501.9085045835988,171.97760351140298 C 500.79917832698385,171.89294889354966 500.0198977334417,171.01149355970426 498.8697630078716,171.02535930106333 C 497.7971087012795,170.85217076410743 497.0047118371142,170.0023809086871 495.84947410342716,170.02856640145043 C 494.78482875987214,169.83604251731046 493.9887368222824,168.99517335826522 492.8397215909819,169.00633640137542 C 491.68212863609904,169.03820790109256 490.6755627604122,168.7054677779283 489.8341480597649,167.97401744814238 C 488.74520769760636,167.84014692741135 487.95691227882344,166.98045530692485 486.7974690110204,167.01679385718867 C 485.66703971574526,166.98308648147574 484.4904825554067,167.0607416232035 483.5478989172396,166.57353471446956 C 482.67393458731516,165.92066614113375 481.46433180042294,166.0781004826646 480.53841042068063,165.55066732366026 C 479.65495575166824,164.92071045566306 478.44452232502925,165.08015013893552 477.5296659830887,164.52600361560195 C 476.628399661174,163.9390478816099 475.4595268821532,163.9981512857421 474.28891272316747,164.06145875300183 C 473.420258933378,163.39576940164878 472.46338868279577,162.9430534263675 471.29089779632574,163.0108917145738 C 470.15193629095614,162.99778291618793 469.0065451576923,163.00019661266697 467.85514708778686,163.01711233705467 C 466.78263033540253,162.84359171486446 465.9896121572029,161.99530184421215 464.8382317269478,162.01217498271663 C 463.7006969935192,161.99562165216193 462.55443099223066,162.00014746689038 461.4082551789139,162.00445554859417 C 460.2724790508765,161.9836565690536 459.105658770549,162.03780480300398 458.29322189674764,161.23639581063713 C 457.26019205348666,160.96754535690553 456.1009977695678,161.0032828068992 454.95784781925175,161.00028580910885 C 453.8136327369793,160.99986026733345 452.6694964437352,160.99924451201807 451.5230239787269,161.00426877426034 C 450.3877460720232,160.98226698201717 449.2119598447763,161.05806092662007 448.3698513210242,160.32828563398354 C 447.38126147951454,159.95214752531083 446.21390654211496,160.0075865356143 445.07292234138936,159.9993609557913 C 443.9283849245163,159.99971359858125 442.7830073704122,160.0020945120679 441.6447913999228,159.9871858332637 C 440.4693916447012,160.06204675186146 439.53709749880085,159.5499988113457 438.64794357528825,158.93380116085788 C 437.4694881050765,159.01603922802732 436.3330513281541,158.9968351959843 435.1871577627237,159.00046187101321 C 434.04296795910244,158.9999753011763 432.8985714161909,158.99998784413722 431.75417260268205,159.00000586880498 C 430.60978441442063,158.99999824185645 429.46539216488327,159.0000004196956 428.32100102499976,158.99999991859295 C 427.1766096390715,159.0000000114946 426.03221829658685,158.9999999995154 424.8878269490837,158.99999999965004 C 423.7434356014262,159.0000000001589 422.5990442540644,158.99999999995342 421.4546529065933,159.000000000011 C 420.3102615591518,158.99999999999793 419.1658702117041,159.00000000000028 418.0214788642573,159.00000000000006 C 416.87708751681066,159.00000000000006 415.73269616936324,158.99999999999994 414.5883048219162,158.99999999999997 C 413.4439134744695,159.00000000000009 412.2995221270223,158.99999999999997 411.1551307795754,159.0 C 410.0107394321285,159.00000000000003 408.86634808468176,159.00000000000003 407.7219567372345,158.99999999999997 C 406.5775653897876,159.0 405.43317404234074,159.0 404.28878269489377,159.00000000000003 C 403.1443913474468,159.00000000000003 402.0,159.0 399.00000000000006,159.00000000000003 " fill="none" stroke="black" /></svg>