<?xml version="1.0" encoding="utf-8" ?>
<svg baseProfile="tiny" height="100%" version="1.2" width="100%" xmlns="http://www.w3.org/2000/svg" xmlns:ev="http://www.w3.org/2001/xml-events" xmlns:xlink="http://www.w3.org/1999/xlink"><defs /><path d="M 392.0000000000001,161.00000000000009 C 391.2464489405582,161.94060948033655 390.130281865512,162.00578645786806 388.98478092855123,162.0001452281281 C 387.84158024647763,162.00005730493416 386.697250446271,161.99724344942953 385.56154922930614,162.01526083661108 C 384.3847772807105,161.93412470647328 383.484667055649,162.52090906148138 382.5663821018159,163.0638157397963 C 381.3915381013529,162.98733408818745 380.2528292770239,162.99809046888103 379.1142520289661,163.0091645027925 C 377.9728536839881,163.0134278062579 377.1858547107435,163.87328687945922 376.0997990638743,164.01115927527772 C 374.9523628042719,164.00084576336872 373.8111560153501,164.00557152406358 372.6474554165926,163.95599242398345 C 371.64863954151656,164.30448026004336 370.8162321869858,165.05471380329809 369.6416993909062,164.97898346553265 C 368.5159210542229,165.0209568048681 367.336150182428,164.93258063366997 366.4548061056405,165.5646704783544 C 365.5153061892778,166.05635970640515 364.3510064842878,166.00533423593356 363.18400304469986,165.94778137272564 C 362.35091350895453,166.69636798484032 361.34995864987445,167.03969185670826 360.19337746121175,167.007300533035 C 359.0403348585428,166.9834521116597 358.2432460010551,167.81895204947838 357.1828916948284,168.0188729704471 C 356.03279508453386,168.00213680381648 354.9092133250329,168.0494131495766 354.1255112043473,168.9172315289388 C 353.0180912767904,169.00352598857057 351.89965610347576,169.06322729250115 351.1167371923126,169.93293650691507 C 350.00139351134897,170.00010133360698 348.85228753460837,169.98575676793797 347.7787482180306,170.1538462580973 C 346.9884682142208,171.00578422280952 345.8294497861611,170.96750888272922 344.77279176356006,171.17635342175763 C 343.97507567336754,172.01033908587314 342.8247384883864,171.9930221205717 341.6693451342255,171.96349848306303 C 340.6585330946105,172.28302501599626 339.83654846637427,173.0584212464283 338.64373661711215,172.9385613705621 C 337.6523153333119,173.30490132916844 336.82199663322456,174.06017733030745 335.6277749988036,173.93691393199086 C 334.64208374931,174.3170874171331 333.80786180078917,175.0629401429668 332.6117056816293,174.93500648535704 C 331.6317748210673,175.32908677958258 330.79394255167034,176.06622341979252 329.59387987213,175.92885849113043 C 328.6319940256296,176.3665033030363 327.76168743654335,177.0252400002238 326.6939458438687,177.2073264340608 C 325.8977202385876,178.0449104470643 324.71307102099274,177.94475690727398 323.7052532203828,178.27151217262272 C 322.8733192015892,179.02288844943345 321.7745693199341,179.13011425146786 320.99323668654824,180.00365307920515 C 319.8354519119281,179.96835604199003 318.7753194657884,180.16881258058976 317.98035922641793,181.00945145713615 C 316.81882023181646,180.96509093112616 315.7687728941895,181.18989507547545 314.9655795632361,182.01065751066176 C 313.83761204976156,182.04734570969745 313.0539409095833,182.91523888262083 312.29570596016697,183.84454045225672 C 311.2310300358098,184.0340280641234 310.06282741566,183.97358012293986 309.25933337558274,184.79361658208137 C 308.21885108704623,185.0415127976694 307.0485602542162,184.9760234651122 306.2625744546075,185.8383285558462 C 305.17446690280866,185.9712472149551 304.3381712049396,186.7120934669871 303.3155317853684,187.00306617882305 C 302.356565215919,187.44775874897775 301.6606897392459,188.52760940345303 300.714386650757,189.00287432108925 C 299.6720686869659,189.24633882458167 298.86264295707673,190.05205491773154 297.67897001130234,189.95425830661074 C 296.64058421479973,190.2072159017007 295.8936421821096,191.16378098405588 295.08699222885525,191.97619839480348 C 293.95762251193537,192.0095013752638 293.1343286181107,192.78173675895533 292.41252448119485,193.79899009021815 C 291.33708002283373,193.96248016124568 290.4473437965168,194.57430956471876 289.48960550201156,195.02196745290212 C 288.467667889783,195.31463447754265 287.7659752405264,196.38044123507188 286.8827884026984,197.00808226106005 C 285.79415822286694,197.13973918448428 285.0064511481257,197.9978887494487 283.88704917245764,198.05525598602563 C 283.11250904403175,198.9451933713596 281.9930072108757,199.00231953063465 281.2063302627287,199.862956041194 C 280.11498021951786,199.98804663355963 279.24985184436014,200.65928464504293 278.46839969430124,201.53253493400385 C 277.6895066466206,202.41196344264768 276.7996075461344,203.02339963307264 275.69840939554933,203.12471479113788 C 274.95128824844255,204.0808474529048 274.1694543119749,204.95317602763177 273.0400617733091,204.98642391223765 C 272.2461324273765,205.82955157811713 271.1681641116124,205.98694854024419 270.2839060000712,206.6120031505274 C 269.5073565188266,207.49709007316508 268.72387695751434,208.36544428499118 267.8523624915885,209.02126723295666 C 266.7413952868039,209.09898714236022 265.98295694438974,210.02781006867775 265.21193556059296,210.9263067413366 C 264.092865930311,210.98430600748017 263.23565196351024,211.67593801160237 262.4674480415887,212.57520343993306 C 261.63517254426284,213.34360182667345 260.8482160637382,214.16915553594671 260.03405940060054,214.9738393863438 C 259.11159641568787,215.73461043270046 259.0312346191376,216.8447382748804 258.2863713881525,217.67919050460347 C 257.9583978440105,218.68691749791392 258.00623452343683,219.84891818984218 257.999657534446,220.9902785560201 C 257.98364140879465,222.13995674716747 258.1498469899863,223.21456377070263 259.00229432205737,224.00452982907208 C 258.96923555179575,225.16139189285124 259.1702592366904,226.22128369838217 260.00746055122966,227.01766984132465 C 259.9932551090736,228.16671807182195 259.9636027438892,229.32216484822118 260.2822907780491,230.3333241659181 C 261.04812058197666,231.15927135097027 260.9945307058168,232.324633265603 260.9431362116709,233.48908582585582 C 261.42829476985196,234.43129083405069 262.0348841240146,235.3231975599285 262.1974285571529,236.39903371431424 C 263.1960917822787,237.12853812532296 263.98041681684913,237.94682432178854 263.9852408046651,239.08799042370444 C 264.12236130366966,240.17435751643157 264.9813089021119,240.96173403488308 264.9946657354146,242.09936571647276 C 264.97332785758937,243.2513684179543 265.22435301103354,244.29055465799505 266.040216993923,245.0957769943245 C 265.9470769878158,246.27752111114773 266.2654050833951,247.28882955976846 267.02076704631344,248.119112653321 C 267.13673297027935,249.2142422579352 267.9999486293013,249.99985088780966 268.0525763238544,251.1212160460634 C 268.9320214666832,251.9001022036348 268.99673422346484,253.0164615652113 269.0802090785332,254.12504941121878 C 269.9456068281876,254.90975418955895 269.99341409708217,256.03311603349687 270.0966747644452,257.13350832770936 C 270.9674000190005,257.916006381266 271.01551626693316,259.03924024189564 271.89297056435316,259.818951034636 C 271.98404558990336,260.9243907869538 272.77113443291705,261.7415321764789 273.0453251448809,262.7711229280009 C 272.97283615518205,263.9443131137511 273.83119998290294,264.7319314379526 273.9743657307213,265.815794506633 C 274.67923587076217,266.6669919980103 275.06511814008456,267.65031859167175 274.93939763725626,268.84555799210557 C 275.75051347906833,269.65274707286557 275.972388943233,270.7040075095448 276.61617653793,271.58050621962786 C 276.996533455805,272.5661214887956 277.4662422007701,273.51472601935984 278.086867322253,274.40081893998627 C 277.9133572555022,275.6158534259366 278.5463104206148,276.49683990369454 279.0063565774545,277.44944680930706 C 279.37050363179344,278.44177642379975 280.0826424332214,279.28996313704016 279.917477414849,280.5015409908131 C 280.4489297088825,281.42457050574615 281.0148647248269,282.3333168103773 281.3020827497281,283.35751146969085 C 282.02782238318514,284.2000645393475 282.1961607038188,285.27350076176634 283.01869076480597,286.0759619577605 C 283.10684470950645,287.1826114569477 283.98538029917967,287.9618744339831 284.0371946871522,289.0835755580669 C 284.9256750315,289.85871478931784 284.9922699601261,290.9743035521048 285.84378614752785,291.76464213211443 C 285.9743574857502,292.8540529250454 286.7383006631991,293.67870129227117 286.99289839453064,294.7226000068577 C 287.51961097029533,295.6159176155133 288.40583488533395,296.5053383208123 289.30843413468665,297.0082208287766 C 290.3518048379793,297.26461631296826 291.1629882099636,298.0612776621946 292.357606625668,297.9359630840974 C 293.34808450498406,298.3157140761005 294.178801285236,299.045177994358 295.3732321200587,299.0278511428967 C 296.35783787386976,298.6955329372661 297.1939880893135,297.93739928978977 298.3830754177157,298.0509930846074 C 299.40469252500395,297.75659372969665 300.14197245421167,296.7770439691586 300.96597982130635,296.0064796325359 C 302.08971868631835,295.95958181844094 302.8723455954957,295.0891666062169 303.97659711047766,294.9952218723235 C 305.0951037205003,294.9356930186469 305.8738050827141,294.05580176642707 306.9945881360863,294.00176876375247 C 307.78412962633024,293.14804786693077 308.8694946867773,293.0085082507785 309.75650630447217,292.3901010596252 C 310.46271872982607,291.3352060072469 311.46593519673354,290.99734213953315 312.49051509508877,290.71105415792516 C 313.2046950110514,289.6753943290234 314.06426471834527,288.99073650619783 315.1810883414547,288.92714457590483 C 315.9603374948605,288.0485757825429 316.77261337555626,287.2497405621254 317.5238176119656,286.30346534979526 C 318.5514360060754,286.024512945817 319.48258005002333,285.5126508572571 320.4088542801004,284.98903199800395 C 321.40587844642283,284.6362185943711 322.2744677300371,283.97333595502266 323.3260353682717,283.75220214101944 C 324.14301111815354,282.9647134085321 325.26248593258464,282.9075220202846 326.0176651524282,281.97084326687127 C 326.7894414224021,281.0742333369782 327.9072400808752,281.0129953502846 328.7772760025042,280.35360520405095 C 329.48395054169606,279.2998257927697 330.513667012334,279.0259385936009 331.4575206857625,278.54476026490545 C 332.3687183673927,277.9847433979181 333.3811450384969,277.66911493022434 334.23578584238453,276.97255768194543 C 335.2976986539335,276.7763993256623 336.10956292167447,275.9765703836669 337.2086528742534,275.87016558546884 C 337.99245785889775,275.0025955416711 339.11222231488017,274.9461034099849 339.88693120575874,274.056573453253 C 341.0059389808817,273.99825453237395 341.80211480928506,273.1605503473571 342.86758441530884,272.9729788525345 C 344.0176953839703,272.9897496833288 344.7961181712359,272.1091858656235 345.90364887642045,272.02315884684293 C 346.71079433570486,271.2119376934734 347.77767415892595,271.02777076413383 348.62808732416164,270.32100709328466 C 349.64347465216883,270.01252628363903 350.56117547857707,269.468209396973 351.47600148800933,268.91695208817436 C 352.68682766029286,269.08030238699536 353.5538333011772,268.4135964958904 354.5035438717079,267.9465579676128 C 355.66586706024486,267.9928117052573 356.83398986272255,268.0530669495343 357.6497015238848,267.262526436916 C 358.69484546814755,267.02588445380525 359.57540066840266,266.3918900926975 360.55718616967846,266.0022872972364 C 361.50921131153905,265.54083663845466 362.3927336904498,264.9140056802994 363.605753941034,265.0826529527107 C 364.5009643367354,264.4840393632088 365.41904161828666,263.94063131965436 366.5854877755256,263.9968387842565 C 367.7538625333716,264.0577023026008 368.61088556398306,263.366896258387 369.57265801413763,262.92897768348524 C 370.77434572174184,263.0702657769381 371.6139080998847,262.3373059887272 372.5988654436356,261.95536069838755 C 373.75758388313307,261.9929118020119 374.9161096043706,262.02999764259977 375.7263854042181,261.22633379987207 C 376.7571356368737,260.9549423229869 377.9314453121381,261.03013399945445 378.73225748835506,260.20362294820853 C 379.7796316220144,259.97236511858574 380.9357438143492,260.0036241849634 382.0813530264297,260.009526813966 C 383.1726767248248,259.8843726195885 383.9583440331341,259.0212986228398 385.096068381018,259.0081655057614 C 386.2341268359789,258.99583899452 387.3795394078404,259.00126689203347 388.5220606499257,258.99971450202094 C 389.6653311322516,258.9999709378179 390.8086143111827,259.0002580263997 391.9515343004591,258.99966829664015 C 393.09358481629704,258.99697947023583 394.2509303180118,259.03121604288964 395.28642080769094,258.7712683197833 C 396.09558882225224,257.96493046545 397.2599359603686,258.01606845535645 398.3944754807896,257.9952585823228 C 399.54008401154323,258.0011017952384 400.6826451593545,257.99987202607326 401.826053426769,257.99977884121785 C 402.96900946104626,258.0002179198781 404.1107570294362,258.0036387361306 405.2693803680152,257.96631999852144 C 406.2982904950889,258.24215262037364 407.11127718066774,259.0392722303394 408.2775478084627,258.98348847583173 C 409.4119153515178,259.00472565777216 410.5574903281956,258.99890567455583 411.7001162509812,259.00020534432184 C 412.8433768627407,258.99997273783646 413.98652959809976,259.00000056827804 415.12969300480563,259.00000263578255 C 416.2728640720853,258.9999862090243 417.4159916357095,259.00007480938257 418.559325479404,258.99966540559683 C 419.701844642682,259.00122281432164 420.8468547569638,258.99676653535056 421.98820076459396,259.00115619235095 C 423.10606603085847,259.06223337361126 423.88840665309385,259.9333387009975 425.00414105048714,259.9995602547868 C 426.1438263029545,260.00795932942503 427.306462743669,259.9609493341249 428.3234759442555,260.2655049401387 C 429.1405825435905,261.05267777410137 430.3297483466546,260.9416202324156 431.329053419086,261.2889270415859 C 432.1573640237693,262.0490510138843 433.3292718086681,261.97965801371237 434.45518093612765,262.0213155961821 C 435.6367950183309,261.9284895214177 436.5170010893119,262.56332675515387 437.47762719570005,263.00401284872436 C 438.4595243229724,263.39334615519056 439.3163445977311,264.0846416953335 440.52949061126344,263.9156908043071 C 441.44205828293144,264.4724002227654 442.3611724297353,265.01330505216436 443.378387123991,265.31737420942807 C 444.2217580264115,266.04113940667577 445.3273265418862,266.13190357046585 446.06533939905415,267.1100255894679 C 446.8549424250335,267.9635979232395 447.9853312816167,267.9944404829022 448.77144512461075,268.8564364495683 C 449.8656332001286,268.97467542582206 450.68871625022933,269.74741983145975 451.7296001813834,269.9943463954924 C 452.65764042356864,270.5137017269572 453.4065430720706,271.4655334546168 454.24167272994134,272.20919479823016 C 455.03687107479595,273.0492588142456 455.8150076797932,273.9305134642966 456.93419783470586,273.98839226339715 C 457.7823463903838,274.7006215871873 458.55544583506946,275.59404492972385 459.37866518618694,276.3664359404348 C 460.1827110311261,277.18519003954617 460.99175650125443,277.99179662631127 461.80007194307785,278.7999197590827 C 462.60901696718975,279.60831585238793 463.41489066721215,280.4175323792742 464.22898730314034,281.2235319816756 C 465.03165466068737,282.0342115611091 465.8192877510505,282.85112721596926 466.77088550005436,283.6001280458295 C 466.9847498176482,284.65470625587926 467.4644949746961,285.59915369482206 468.3770574296844,286.3643221568076 C 469.2102682153273,287.16235922804145 469.99491498496707,287.98051215495207 470.0292030145264,289.1094738512087 C 470.85518335181,289.91050585628614 471.83430884882836,290.6481030591653 471.9838093533316,291.72934218575597 C 472.48822885556086,292.6635690498913 473.5557705156986,293.3645430789628 474.00025350388194,294.3235964601058 C 474.27321918133197,295.3536946375381 475.0628141340053,296.16979796245346 474.93262726217586,297.36688739350245 C 475.3361892168701,298.34289082170415 476.02305866350406,299.2015444444229 476.1979326663979,300.2722735238118 C 477.01849503420783,301.07554972538605 477.1061156045423,302.18242035990477 477.98486513859336,302.9615946480657 C 478.03399520983737,304.08440856933026 478.9095430286907,304.86490905134895 479.00265867195594,305.9695035521336 C 478.98902068279324,307.1183168553023 479.1374615163561,308.1999949119246 479.99434209509104,308.9882276179726 C 479.989349394156,310.1334599255068 480.00427151270503,311.27044324471854 479.99976790811365,312.41547296191396 C 479.9956298750275,313.56035125443395 480.01700969758434,314.6946597050639 479.9547823246287,315.86359938998703 C 480.73623716271754,316.6830744607626 481.03753140774927,317.70143856129954 480.9953533537591,318.862073546391 C 480.9999753306059,320.0033233239902 481.00022397379905,321.1463845957013 480.9999128292435,322.28967773909034 C 481.0000241616351,323.4327958867975 480.9999945471451,324.57597241661546 481.00000098937704,325.7191340112486 C 480.99999987864487,326.8622987344256 480.9999999989236,328.0054629476972 481.00000000596395,329.1486272078342 C 480.9999999980592,330.29179147455864 480.99999999858244,331.43495573541486 481.00000000884376,332.5781200034101 C 480.9999999681851,333.7212842495217 481.00000007838116,334.86444855828466 481.0000000213738,336.00761279776293 C 480.9999981300183,337.1507762774318 481.00001444530847,338.2939472985404 480.99992222311,339.43707336194916 C 481.00033855191947,340.5804100740826 480.99880503635677,341.7229391342324 481.00291543318417,342.86780597943914 C 481.0010352321532,344.01019143776614 480.9258393720673,345.1222085557784 480.05486635318977,345.9046039819922 C 480.0025009013507,347.0260777647348 479.99654177890267,348.16677367849115 480.00145279871003,349.31197215259454 C 479.9985541968716,350.45393577549527 480.0048076336742,351.59969029692434 479.9837825126373,352.73414566973423 C 480.03647429943396,353.89913558554525 479.2337253955397,354.7097903654663 478.9668156384168,355.7423969872304 C 479.00552860433544,356.9015966858476 479.0049377357987,358.0445162031802 478.90803771876085,359.1475431650231 C 478.04058998569053,359.9313988124296 478.0125746045062,361.06295872468206 477.8855576720998,362.15351085172244 C 477.02264072069494,362.93924321034285 476.9762704772222,364.06320028970003 476.1125190826286,364.84858701063473 C 475.98801810265377,365.9401812792944 475.95762425350114,367.0707559978569 475.0885768317192,367.85394903250346 C 474.9968123714716,368.9591032116192 475.0109414109807,370.10811991450134 474.86002218241146,371.18877138629915 C 474.00696264544445,371.9785868196698 473.9526412501711,373.0992504241145 473.06312748296244,373.87396602091303 C 473.0025738996874,374.99204816856457 472.1419493422604,375.778730067861 472.02487189061435,376.87339926263513 C 471.2400646378693,377.69148571779357 471.0211582186341,378.7439759731499 470.38236728736456,379.6225443689911 C 469.9265444135781,380.5769006157229 470.0686767682288,381.7789380277653 469.342654272167,382.62137392640267 C 468.9319146218517,383.5944042557318 469.0691923596806,384.79443081964644 468.3047896235605,385.62096910232447 C 467.99565895062966,386.63608724814515 467.59065416524004,387.6114930363047 466.512778845816,388.3081867235461 C 465.99630527509373,389.2374206290398 465.7721172677941,390.28772317898915 464.9785171331806,391.1021675032251 C 464.8749565696274,392.20243557636843 464.00516320639736,392.9853196319505 463.9498926384696,394.10559007620895 C 463.05992015425244,394.8801156662014 463.000432114049,395.9986391762441 462.1457564833782,396.78778520168447 C 462.0083912869063,397.8740509374018 461.3859777871996,398.75940308751336 460.33165118273826,399.46585097186875 C 459.9978894505337,400.4707665988826 459.70709678803854,401.49348059733256 458.6725926864556,402.2081392312204 C 457.98928755346793,403.0682692409918 457.9363931638526,404.18952393053365 457.05403358826425,404.9672028905294 C 456.1051293936692,405.7173181668296 456.036845390476,406.83219826970793 455.2768574413351,407.6605652170276 C 455.00490272100393,408.6910821466091 454.5082400939878,409.62852201366934 453.5935113689855,410.39279323297507 C 452.75477509155064,411.18854155470143 451.9959690096546,412.01739804746296 451.9577046271638,413.14471268437364 C 451.10587422600236,413.9350372424649 450.1399810406997,414.6781154484028 450.0233160426838,415.77295548706445 C 449.4357085398684,416.67272475314024 448.54791786602425,417.44815407857965 447.6876366696154,418.2349782026668 C 446.9855200068963,419.08731622169444 446.91746796746713,420.2022924071097 446.0281210975296,420.97707713502143 C 445.2296136570905,421.7894887866299 444.2935252751877,422.54491254635985 444.00687039326016,423.5693404696393 C 443.6033077064264,424.54534359457904 442.6783195939263,425.3053652364417 441.8600678922889,426.1095985472827 C 441.02863784773274,426.9083732097573 440.99109855449774,428.03598818847144 440.2030921901381,428.8527495282115 C 439.3234802893777,429.63156661238577 438.58379696424726,430.46834401034965 437.6732083266979,431.2343301100279 C 436.9858245014144,432.0927706701335 436.91437642852685,433.2063401724322 436.0237356129232,433.9805889305002 C 435.22579801977054,434.7932366205831 434.290158639022,435.54884636268076 434.00597701662554,436.5742987436011 C 433.60694762181674,437.55217961957965 432.6539774752608,438.3006107234337 431.883279037767,439.1245412412182 C 431.07130240879474,439.931373772262 430.2519007002586,440.73513073464846 429.48479157300244,441.56054799341297 C 428.5582781158709,442.3199378168419 427.9804314622902,443.22375015905095 427.8464006396405,444.31139703762756 C 426.91414079380064,445.0684066289189 426.11076905998584,445.8788034242399 425.3174542163218,446.6933659198549 C 424.4912292765113,447.49429660731425 423.7136632498282,448.31538247650025 422.85919393446255,449.1046139605634 C 422.02909757736484,449.9039410544833 421.9920652654892,451.03176603175933 421.2053840510224,451.8490762671996 C 420.33532766108664,452.63185136931247 419.5586554720352,453.4533074933633 418.7397417933492,454.2572665670489 C 417.9337289225834,455.0665694148065 417.12529680737407,455.87487021891593 416.31689623772627,456.6831832140488 C 415.5079691132551,457.4912819629322 414.7015451822096,458.3004062806257 413.8901191230362,459.10747980191246 C 413.0798270412357,459.91501823970344 412.30539531758154,460.7372608779749 411.35065869633144,461.4855712114613 C 410.9978133501211,462.4810138425622 410.67807083823095,463.4987062709299 409.7141856566627,464.2233729410861 C 408.9475123096833,465.07259603630297 408.15954363598576,465.9402440360014 407.04497680643846,465.9938267237464 C 406.1019465918926,466.68705700390274 406.02167210578864,467.84299539571487 405.3870444383374,468.7131685525632 C 404.4751910631026,469.48478796060493 403.7045621082951,470.30650419565404 402.8868394663466,471.1115147927174 C 402.079396469597,471.920171908785 401.27170472085953,472.72874076955 400.46289329062927,473.5369125198575 C 399.6547385010774,474.34531695791674 398.8463538286801,475.15364037003735 398.03802082296147,475.9619817123825 C 397.2296425979357,476.7703046226195 396.42150533834314,477.57872759808413 395.6125229917411,478.38680034696773 C 394.80554459903874,479.1957032314454 393.9962725011831,480.0036560131033 393.18127245903725,480.8092362050775 C 392.41200228186403,481.63375832819946 391.4701259625991,482.3867846455171 390.98494503436706,483.32898038800937 C 390.7813239336765,484.3878020295962 389.8321441925008,485.1378031707711 389.04259183251816,485.95392413815586 C 388.2407807574908,486.76496737951237 387.42643166736883,487.57081720497195 386.62066029986937,488.3802200394759 C 385.8115693577991,489.18824786117113 385.0033585130795,489.9966402311254 384.1950371435338,490.80498682019754 C 383.386671793923,491.61331519213036 382.57834497475784,492.4216595238963 381.7700018466589,493.2299971002807 C 380.9616634373831,494.03833663126574 380.153324253258,494.8466758412974 379.3449849412593,495.65501499836284 C 378.5366457974903,496.46335422510924 377.7283065749351,497.27169341922666 376.91996737710406,498.0800326235759 C 376.1116281744144,498.8883718259108 375.30328897157386,499.6967110282686 374.4949497692449,500.5050502304449 C 373.6866105671329,501.31338943389255 372.878271363993,502.1217286346049 372.0699321612922,502.9300678364342 C 371.2615929658047,503.7384070556756 370.453253732173,504.54674618282303 369.6449146224597,505.3550856091402 C 368.8365752412116,506.16342437991244 368.02823609346325,506.9717637144032 367.2198980721849,507.7801057684328 C 366.41155280914364,508.5884303393006 365.6032330916915,509.3968165826759 364.7948516446431,510.2050537976232 C 363.98654573053886,511.0134733652279 363.1783940091679,511.82226518702095 362.3689000104835,512.6278164647193 C 361.5645847282673,513.4458702699513 360.74661034451293,514.2309480869998 359.94957027319526,515.066565805052 C 359.16771035874206,515.9388316636848 358.0462600995813,515.9912539064742 357.2045344374943,516.7189910652481 C 356.4296112753772,517.6080037254496 355.60666519821353,518.3810788128413 354.80268419096546,519.199939629235 C 353.99356685815025,520.006400258783 353.18514494174417,520.8145397720579 352.37694997353685,521.6232271867519 C 351.56854061296576,522.4313970124947 350.760224063301,523.2397909035832 349.95188013176903,524.0481186890011 C 349.1435409162064,524.8564578597804 348.33520231233797,525.6647985072617 347.52686277666703,526.4731369054181 C 346.7185236955624,527.2814764003025 345.91018445757373,528.0898155176534 345.1018452479272,528.8981547034881 C 344.2935061566264,529.7064941648503 343.4851665045718,530.5148323205711 342.676828556869,531.3231744438154 C 341.8684871843221,532.1315085947437 341.06014760254294,532.9398469141839 340.25182753405704,533.7482306560988 C 339.44340006147877,534.5563643858956 338.63532815591395,535.3653257942265 337.82645807278533,536.1724292280808 C 337.0183475513946,536.9813007476173 336.2132141384869,537.7971022935373 335.3877977364297,538.5656896882955 C 334.6353901832582,539.5042249542493 333.6997838926031,540.015604792369 332.65423470293166,540.2062185787955 C 331.8556818429973,541.1317216720553 331.0263618162877,541.9188117659271 330.98907922089467,543.0443278170213 C 330.19645907465303,543.8639049746822 329.3132450157801,544.6088436463334 328.59318551664575,545.5690459039049 C 327.6252790473361,546.0111392500822 326.58198928666894,546.248224794447 325.8328952565271,547.2010467162122 C 325.01499950301786,547.986080112666 324.2049149817826,548.7901629595099 323.3987558387888,549.6038187393948 C 322.5894154801289,550.4097163614747 321.7813841920953,551.2188065613079 320.97298758573163,552.0270056988795 C 320.16465775239453,552.8353674474131 319.35624574870184,553.6435311185871 318.54819555215835,554.4525679259765 C 317.7391333643132,555.2591617265273 316.93172351513584,556.0697445775024 316.1250265995821,556.8820486115314 C 315.3015346074119,557.6538057444237 314.5525491431139,558.6054375459383 313.57584387516465,559.007305109772 C 312.546818963671,559.282861880368 311.7994772975747,560.2384621623476 310.9796185869811,561.0189908119823 C 310.1705055047018,561.8254617032321 309.364041431686,562.6383278685735 308.55477176136475,563.444420722848 C 307.7466968278031,564.2533979268119 306.9383513276537,565.0617219252499 306.13014135364864,565.8703731127437 C 305.3207107449313,566.67607742736 304.5166042698609,567.4946353376353 303.6970409268616,568.2758770677243 C 302.90600112514903,569.1259807180348 302.1104416277448,569.9651728577089 300.9833416102448,570.0039553772915 C 300.1615062289401,570.7797119216897 299.3802918369611,571.6535362094351 298.5585129978375,572.4294292587334 C 297.7545664945662,573.2483733750952 296.9452910130793,574.0544521999755 296.1369607733126,574.8628130402363 C 295.32873471820415,575.671425404512 294.520326480458,576.4795979409931 293.7120248217665,577.2880277820732 C 292.9036576093082,578.0962993623605 292.09529818888626,578.9045897542883 291.2872370911092,579.7136003607907 C 290.47773522392595,580.5191326422523 289.6726903286212,581.3354250056702 288.8585141709474,582.1296725516354 C 288.0497915579792,582.9370861191917 287.28997086647246,583.8625593687665 286.19557211691273,583.980289732917 C 285.30204430563066,584.5829654405444 284.540170693448,585.5034825011807 283.715802019646,586.2731231364745 C 282.9109832645206,587.0899614505804 282.10206465425875,587.8969018388123 281.29731615994666,588.7139097775274 C 280.4730646633236,589.483833303552 279.70973963163345,590.4008463275392 278.82282258836244,591.0194818409383 C 277.72424958419225,591.127134663076 276.96241500753104,592.0477459636861 276.1549267747833,592.8581395883386 C 275.34029212326163,593.651280234945 274.53534909655644,594.4678185209466 273.7258417477617,595.2733375939357 C 272.9177710249733,596.0823249284826 272.1094149076231,596.8906232489328 271.30107096642394,597.69895150662 C 270.49266575924867,598.5071293556581 269.68454625324654,599.316004480029 268.87582937779615,600.1234226074054 C 268.0673723665445,600.9314745113561 267.2626151438618,601.7485491567364 266.438116241309,602.5174793960653 C 265.6780238956995,603.4434791067762 264.7745179329904,604.0198256334028 263.68253970598676,604.1533307982401 C 262.93419151270183,605.0894697131205 262.1371673653687,605.8978275823622 261.1888069592149,606.6383408992737 C 261.0179625908758,607.7155967650718 260.4935571181765,608.6404369065865 259.5581773961564,609.3966836933505 C 258.78887445548037,610.2210280957287 257.9732686706669,611.0263891653449 257.1661063520625,611.8352174565988 C 256.34858562113214,612.6397486572713 255.57668522329328,613.4631838261565 254.6772833290441,614.2338027871914 C 253.9858683058135,615.0905737504586 253.91536805112904,616.2045358283806 253.02547035166728,616.9790924041571 C 252.22941961221002,617.7925216565505 251.28253506257894,618.5434734950317 251.02725202236326,619.5808960614592 C 250.48931221604116,620.5012383608472 249.9875954904642,621.4365847518059 249.63988316452023,622.435721853675 C 248.91881030197894,623.2802079576505 249.0775552675638,624.4891265384474 248.5841265495673,625.4279059344831 C 247.9360145094543,626.302613400625 248.01697182108975,627.4793112801718 247.99516540939516,628.6134430317954 C 248.0048112440391,629.7606027304191 247.99136562800243,630.8981976369964 247.98116716933473,632.037137560195 C 247.11880401688094,632.8230993098521 246.9902688665628,633.9130225704428 246.99848823071414,635.0595914056422 C 247.00103256392967,636.2038095660612 246.9996609101465,637.3464056715558 247.0000861844979,638.4897460890538 C 246.99998203651205,639.6328672126396 247.00000289744963,640.776040116617 246.99999974874726,641.9192030754757 C 246.99999995855904,643.0623674254766 247.000000027601,644.2055317171688 246.99999999098262,645.3486959650955 C 247.00000000228565,646.4918602328703 246.99999999952195,647.6350244948234 247.00000000008689,648.7781887581397 C 246.9999999999747,649.9213530212118 246.99999999992608,651.0645172843303 247.00000000098802,652.2076815469862 C 246.9999999936272,653.3508458131286 247.0000000313148,654.4940100606115 246.99999987392002,655.6371743889038 C 247.00000039866615,656.7803384346302 246.99999931021807,657.9235031485964 246.99999716064102,659.0666683021185 C 247.0000375789711,660.2098158225638 246.99975878413284,661.3530955719755 247.00118154501078,662.4956704790557 C 246.9952571644739,663.6412888223482 247.01492543018713,664.7763058198973 246.97466940174957,665.9361455010608 C 247.7981972555009,666.7381853265412 248.02615021621696,667.7869519264262 247.99816094605544,668.9416709953437 C 247.99922597045395,670.0842660652278 248.00290377222,671.2277482356424 247.9838518066146,672.3667131905198 C 248.07669275083578,673.5314827669949 247.46361231317175,674.5134074272349 247.14579898509152,675.2404335046423 C 248.04463256397247,676.1041865776992 247.97770960206498,677.263464353745 248.0198992726552,678.3937938325373 C 247.93420464378195,679.5711415187509 248.4836265493617,680.4871000728833 249.06534756196467,681.3891759739979 C 248.98616299018445,682.5651584262667 248.9980296146524,683.7034216705239 249.0123142456948,684.840613820422 C 248.99555950146024,685.9907730515173 249.86051844109664,686.7745288432446 249.98601722276558,687.8688848196626 C 250.64543529615014,688.7179509151889 251.51220899215767,689.5929676013623 252.43000006220026,690.0670401064039 C 253.63849848646225,689.9221492246628 254.5237667889696,690.5412849611047 255.45181470675664,691.0619109240286 C 256.6254668779133,690.9880732456177 257.7645308321598,690.9980198888121 258.9035592164316,691.0079973511965 C 260.04129764824097,691.0210970307791 260.82686018461015,691.8844239360076 261.91838877198575,692.0090836171295 C 263.06464239844956,692.0016252260052 264.20891377407787,691.9989524169796 265.3515032112095,692.0003401711357 C 266.4948445707819,691.9999126219489 267.63796257807104,692.0000242934541 268.78114664222915,691.9999764894341 C 269.92428635088197,692.0000357691024 271.06740348184985,692.0001495561207 272.21144223091966,691.9980383602174 C 273.34858904087184,692.0125657772039 274.52242314787475,691.9385222240835 275.4570047044247,692.4420854230989 C 276.341671213683,693.066154206252 277.5189842520502,692.9837117698492 278.65404157676295,693.0032836504387 C 279.7987732497148,692.9994995883023 280.9417160689622,693.0000342010402 282.0848901507376,693.0000104966466 C 283.2280611066895,692.9999943386588 284.3712222964897,693.000001758246 285.5143874666552,692.9999995683827 C 286.6575515150429,693.0000000867293 287.80071581950426,692.9999999868596 288.94388007679396,693.0000000008728 C 290.0870443401315,693.0000000002848 291.23020860340625,692.9999999998488 292.3733728664184,693.000000000047 C 293.51653712953646,692.9999999999885 294.65970139262504,693.0000000000024 295.80286565572004,692.9999999999997 C 296.946029918814,692.9999999999998 298.0891941819081,693.0 299.23235844500226,693.0000000000003 C 300.3755227080961,692.9999999999997 301.51868697119045,693.0000000000001 302.66185123428437,693.0000000000001 C 303.8050154973786,692.9999999999998 304.94817976047267,693.0000000000002 306.0913440235667,693.0000000000001 C 307.23450828666085,693.0 308.3776725497549,693.0000000000002 309.52083681284887,692.9999999999999 C 310.66400107594313,693.0 311.80716533903717,693.0000000000002 312.9503296021313,692.9999999999999 C 314.09349386522535,693.0000000000003 315.2366581283194,692.9999999999998 316.37982239141354,693.0000000000001 C 317.52298665450763,693.0 318.6661509176016,693.0 319.8093151806956,692.9999999999995 C 320.9524794437898,693.0000000000002 322.09564370688383,692.9999999999999 323.238807969978,692.9999999999998 C 324.38197223307196,693.0000000000002 325.52513649616606,692.9999999999999 326.6683007592602,693.0000000000002 C 327.81146502235435,693.0000000000002 328.95462928544833,692.9999999999998 330.09779354854254,693.0000000000003 C 331.2409578116365,693.0 332.38412207473067,693.0000000000001 333.52728633782465,693.0000000000002 C 334.6704506009187,692.9999999999997 335.8136148640129,693.0000000000001 336.95677912710687,693.0 C 338.0999433902009,693.0 339.24310765329517,692.9999999999999 340.3862719163892,693.0000000000003 C 341.52943617948324,692.9999999999999 342.6726004425774,693.0 343.8157647056715,693.0000000000001 C 344.9589289687654,692.9999999999997 346.10209323185967,693.0000000000002 347.24525749495365,692.9999999999999 C 348.38842175804785,693.0 349.5315860211419,693.0000000000002 350.674750284236,692.9999999999998 C 351.8179145473301,693.0000000000002 352.9610788104242,693.0000000000001 354.10424307351826,693.0 C 355.2474073366124,693.0000000000003 356.3905715997063,692.9999999999998 357.53373586280054,693.0000000000001 C 358.6769001258946,693.0000000000001 359.8200643889887,693.0 360.9632286520827,692.9999999999998 C 362.10639291517674,693.0000000000002 363.2495571782709,693.0 364.39272144136487,692.9999999999999 C 365.535885704459,693.0000000000002 366.67904996755306,692.9999999999999 367.82221423064715,693.0 C 368.9653784937413,693.0000000000001 370.1085427568354,693.0 371.2517070199295,693.0000000000003 C 372.39487128302346,692.9999999999999 373.5380355461176,693.0 374.68119980921176,693.0000000000001 C 375.8243640723057,692.9999999999999 376.96752833539995,693.0000000000002 378.1106925984939,693.0 C 379.25385686158813,693.0 380.39702112468206,693.0000000000001 381.54018538777626,693.0 C 382.6833496508701,692.9999999999999 383.8265139139644,693.0000000000001 384.96967817705837,693.0000000000002 C 386.11284244015263,692.9999999999999 387.2560067032466,693.0000000000003 388.39917096634076,693.0 C 389.54233522943485,693.0000000000002 390.68549949252895,693.0000000000002 391.82866375562287,692.9999999999998 C 392.97182801871713,693.0000000000003 394.114992281811,693.0 395.25815654490526,693.0 C 396.40132080799924,693.0000000000001 397.54448507109333,692.9999999999999 398.6876493341874,693.0000000000001 C 399.8308135972816,693.0 400.9739778603756,693.0 402.1171421234697,693.0 C 403.26030638656385,693.0000000000005 404.4034706496579,693.0 405.54663491275204,693.0000000000001 C 406.68979917584585,693.0 407.83296343894006,693.0 408.9761277020342,692.9999999999995 C 410.11929196512824,693.0000000000001 411.26245622822216,692.9999999999998 412.4056204913164,693.0000000000002 C 413.5487847544105,693.0 414.6919490175044,693.0000000000001 415.83511328059865,692.9999999999999 C 416.9782775436927,693.0 418.1214418067869,693.0 419.26460606988076,693.0 C 420.40777033297485,693.0 421.5509345960691,693.0 422.6940988591633,693.0 C 423.8372631222571,692.9999999999999 424.9804273853513,692.9999999999999 426.12359164844537,693.0 C 427.26675591153963,693.0000000000002 428.40992017463356,692.9999999999999 429.55308443772765,693.0 C 430.6962487008218,693.0 431.8394129639159,693.0 432.9825772270098,693.0 C 434.125741490104,693.0000000000003 435.26890575319817,693.0 436.41207001629226,692.9999999999999 C 437.5552342793862,693.0 438.69839854248016,692.9999999999998 439.8415628055744,693.0000000000002 C 440.9847270686687,692.9999999999998 442.12789133176244,693.0000000000001 443.2710555948567,693.0 C 444.4142198579507,692.9999999999999 445.55738412104506,693.0000000000002 446.700548384139,693.0 C 447.843712647233,692.9999999999999 448.9868769103272,693.0 450.1300411734211,693.0000000000001 C 451.2732054365151,693.0 452.4163696996093,693.0000000000001 453.5595339627036,693.0000000000002 C 454.7026982257975,693.0 455.8458624888915,693.0000000000001 456.9890267519856,693.0000000000001 C 458.1321910150796,692.9999999999999 459.2753552781737,693.0000000000002 460.4185195412679,692.9999999999999 C 461.561683804362,692.9999999999999 462.70484806745617,693.0000000000001 463.84801233055,693.0 C 464.99117659364424,693.0000000000002 466.1343408567385,693.0 467.2775051198324,692.9999999999999 C 468.42066938292635,692.9999999999999 469.5638336460203,692.9999999999998 470.70699790911465,693.0000000000002 C 471.8501621722088,692.9999999999999 472.9933264353028,693.0 474.136490698397,693.0 C 475.27965496149096,693.0000000000001 476.42281922458517,693.0 477.56598348767903,693.0000000000002 C 478.70914775077324,693.0 479.8523120138675,693.0 480.9954762769615,693.0 C 482.1386405400554,692.9999999999999 483.28180480314927,692.9999999999999 484.4249690662437,693.0000000000001 C 485.56813332933797,693.0 486.71129759243183,693.0000000000001 487.85446185552587,693.0000000000001 C 488.9976261186199,692.9999999999999 490.14079038171406,693.0000000000002 491.2839546448082,693.0 C 492.4271189079023,692.9999999999999 493.57028317099633,693.0 494.7134474340901,692.9999999999999 C 495.8566116971843,692.9999999999999 496.9997759602786,693.0000000000002 498.1429402233727,692.9999999999998 C 499.2861044864665,692.9999999999999 500.42926874956066,693.0 501.5724330126548,692.9999999999999 C 502.715597275749,693.0000000000003 503.85876153884294,692.9999999999998 505.00192580193703,693.0 C 506.1450900650312,693.0 507.28825432812533,693.0 508.43141859121914,693.0 C 509.57458285431346,693.0000000000001 510.71774711740755,692.9999999999999 511.86091138050193,693.0 C 513.0040756435956,693.0 514.1472399066897,692.9999999999999 515.2904041697839,693.0 C 516.433568432878,693.0000000000001 517.5767326959718,692.9999999999998 518.7198969590661,692.9999999999999 C 519.8630612221601,693.0000000000001 521.0062254852543,692.9999999999999 522.1493897483484,693.0000000000002 C 523.2925540114426,692.9999999999999 524.4357182745366,693.0 525.5788825376308,693.0000000000002 C 526.7220468007245,692.9999999999999 527.8652110638187,693.0000000000002 529.0083753269131,692.9999999999998 C 530.1515395900071,693.0000000000001 531.2947038531008,692.9999999999999 532.437868116195,693.0 C 533.5810323792892,693.0000000000002 534.7241966423832,693.0 535.8673609054774,693.0 C 537.0105251685716,693.0000000000001 538.1536894316655,693.0 539.2968536947595,693.0 C 540.4400179578537,693.0000000000001 541.5831822209478,692.9999999999999 542.7263464840419,692.9999999999999 C 543.8695107471358,693.0 545.0126750102299,693.0 546.155839273324,693.0000000000001 C 547.2990035364181,693.0000000000001 548.442167799512,692.9999999999998 549.5853320626063,693.0 C 550.7284963257002,693.0 551.8716605887945,693.0 553.0148248518884,693.0000000000001 C 554.1579891149827,692.9999999999999 555.301153378077,693.0 556.4443176411709,692.9999999999999 C 557.5874819042649,693.0 558.7306461673588,692.9999999999999 559.8738104304531,693.0000000000001 C 561.0169746935474,693.0 562.1601389566412,693.0 563.3033032197352,692.9999999999994 C 564.4464674828307,693.0000000000027 565.5896317459185,692.9999999999877 566.7327960090356,693.0000000000431 C 567.8759602720696,692.9999999998985 569.0191245351746,692.9999999999245 570.1622887994612,693.0000000028033 C 571.3054530527984,692.9999999792486 572.4486173698651,693.0000001095501 573.5917813931267,692.9999995305429 C 574.7349465233452,693.000001623967 575.8781085550524,692.9999962369226 577.0212730621139,692.9999968259119 C 578.1644829869273,693.0001070630536 579.3072771118825,692.9992134705393 580.4524808922225,693.0041373007347 C 581.5866089896708,692.9823220670809 582.7623282178066,693.0609167052069 583.6117232318006,692.3516949998217 C 584.5879431891374,691.9486557927013 585.7559908394439,692.0087296035873 586.8951661777963,691.9990994873767 C 588.0386733851597,691.9999274280832 589.1818966910313,692.0000699699664 590.3250202108071,691.9999716068211 C 591.4682079736699,692.0000283406735 592.6113218727961,691.9999067496047 593.754651810678,692.0003067298508 C 594.8974240541651,691.9993602967237 596.0403463474236,691.9987761211739 597.1938183791906,692.0236616462868 C 598.2487528865051,691.8106531888774 599.048169150272,690.9807762854015 600.2021308575202,691.0068213982589 C 601.3605468387137,691.0437986331183 602.3498674083065,690.6714426200749 603.2035520055243,689.9746778014629 C 604.2808272965308,689.805962191618 605.0738399026018,688.9759687653765 606.2357866998237,688.9425134048267 C 606.9937388544943,688.043039308074 607.0401961670498,686.9174511225275 607.914227057963,686.1350169638938 C 608.0022375031788,685.0267911036144 607.9885372410968,683.8779543948227 608.1398393184629,682.7975379887381 C 608.9957620496186,682.0088805766217 608.9891156634117,680.8629638840727 609.0044777390868,679.7261614285595 C 608.9987294846741,678.5806166741004 609.0002922269906,677.4380995804468 608.9999456428073,676.2947917884484 C 609.0000070605157,675.1516529599146 608.9999999104906,674.0084857358221 608.9999997073321,672.8653213885949 C 609.0000001193174,671.7221572961142 608.9999999662693,670.5789929696392 609.0000000077358,669.4358287237175 C 608.9999999985665,668.2926644568262 609.0000000001845,667.149500194402 608.9999999999983,666.0063359312305 C 608.999999999992,664.8631716681343 609.0000000000033,663.7200074050451 608.9999999999991,662.5768431419489 C 609.0000000000002,661.433678878855 609.0,660.2905146157614 609.0,659.1473503526671 C 609.0000000000002,658.0041860895732 608.9999999999999,656.8610218264785 609.0000000000001,655.7178575633847 C 608.9999999999999,654.5746933002906 609.0,653.4315290371966 609.0000000000003,652.2883647741028 C 608.9999999999999,651.1452005110084 609.0000000000001,650.0020362479144 609.0000000000001,648.8588719848201 C 609.0,647.715707721726 609.0,646.5725434586323 609.0,645.4293791955383 C 609.0,644.286214932444 608.9999999999999,643.1430506693496 609.0000000000001,641.9998864062558 C 609.0,640.8567221431618 609.0,639.7135578800676 609.0000000000008,638.5703936169741 C 608.9999999999967,637.4272293538778 609.000000000012,636.2840650907902 608.9999999999701,635.1409008276787 C 608.9999999999977,633.9977365645964 609.0000000006648,632.854572301779 608.999999994756,631.7114080362353 C 609.0000000285017,630.5682437871292 608.9999998750309,629.4250794604199 609.0000004451178,628.2819154336337 C 608.9999988899021,627.138750525884 608.9999998284043,625.9955866518101 609.0000254214413,624.8524329973336 C 608.9998011304173,623.7091757629472 609.0010767865253,622.5665402744551 608.9952924728492,621.4209783446692 C 609.0167066539856,620.2866905138917 608.9586949802554,619.119479723305 609.7506612573554,618.3044873257719 C 610.0352750702237,617.2788304453177 609.995304643091,616.1199803737604 609.9992096304851,614.9783544928819 C 610.021097263686,613.8264597936629 609.825184132398,612.764136775527 608.9864690668421,611.9684871599017 C 609.0133758698317,610.8141697075024 608.9953294161649,609.6784859138351 609.0012496735633,608.5328676330819 C 608.9996398409054,607.3903706676844 609.0003657959442,606.2469054772732 608.9993192689402,605.1041750367663 C 608.9987741079998,603.9612367629752 609.0244680260042,602.8074214288193 608.8040635274391,601.7556189683014 C 607.9857009802491,600.9513381853329 607.9412822891586,599.8270862753325 607.062905356206,599.0478389372807 C 606.2303192081491,598.2422028491325 605.4289282753894,597.4658020636227 604.66399572189,596.5323596996205 C 603.7476885583785,595.9901719182951 602.6932184837809,595.7750047050587 601.8878964568046,594.9597309451531 C 600.7248455478807,595.0076956486437 599.5646088824531,595.0489296235075 598.5949840269521,594.6299627682423 C 597.7389663745332,593.9367314496178 596.562302649992,594.0176059739118 595.4280822708907,593.9960136159448 C 594.2829658735612,594.0007264656699 593.1401398188497,593.999909961735 591.9969384432281,593.9999995589379 C 590.8537722055402,594.0000043260097 589.7106104324065,593.9999983147372 588.5674452776854,594.000000467307 C 587.4242812518565,593.9999998945013 586.2811169371304,594.0000000191508 585.1379526829428,593.9999999976484 C 583.9947884188829,593.9999999999801 582.8516241557326,594.0000000001161 581.7084598927053,593.9999999999552 C 580.5652956295874,594.0000000000124 579.4221313664993,593.9999999999973 578.2789671034042,594.0000000000005 C 577.1358028403101,593.9999999999999 575.992638577216,594.0 574.8494743141221,594.0000000000001 C 573.7063100510279,594.0 572.5631457879336,594.0 571.4199815248397,594.0 C 570.2768172617456,594.0 569.1336529986517,594.0000000000002 567.9904887355576,594.0000000000002 C 566.8473244724651,593.9999999999965 565.704160209358,594.0000000000277 564.5609959463371,593.9999999998513 C 563.4178316829134,594.0000000006463 562.2746674210292,593.9999999977263 561.1315031547135,594.0000000055032 C 559.9883388929186,594.0000000023663 558.8451746880831,593.999999861718 557.7020099320403,594.0000010518016 C 556.558848433971,593.9999943764423 555.41567175778,594.0000243443078 554.2725529225454,593.9999146717528 C 553.1292685731137,594.000204585818 551.9861452091615,594.0001058465559 550.845213770329,593.9947153319413 C 549.6833434828916,594.0398756696088 548.6715887112965,593.7226250930064 547.8478366869135,592.9514957343239 C 546.6774063133448,593.0173219480239 545.5433264046734,592.995390376371 544.3978368645676,593.0010040916692 C 543.2551603211286,592.9998266322634 542.1119165015325,593.0000186986496 540.968759510824,593.0000011415572 C 539.8255962587222,592.999998700806 538.6824312665278,593.0000004610105 537.5392672450408,592.9999998777193 C 536.3961029202962,593.0000000265561 535.2529386700929,592.9999999954346 534.1097744049068,593.000000000486 C 532.966610142001,593.0000000000324 531.8234458789343,592.9999999999652 530.6802816158207,593.0000000000124 C 529.5371173527334,592.9999999999968 528.3939530896374,593.0000000000006 527.2507888265438,593.0 C 526.1076245634497,593.0 524.9644603003554,593.0 523.8212960372614,592.9999999999999 C 522.6781317741671,592.9999999999999 521.5349675110734,592.9999999999998 520.3918032479794,593.0000000000002 C 519.2486389848851,593.0000000000001 518.105474721791,593.0 516.962310458697,593.0 C 515.8191461956029,593.0 514.6759819325088,593.0000000000001 513.5328176694147,593.0 C 512.3896534063206,592.9999999999999 511.2464891432266,593.0000000000001 510.1033248801324,592.9999999999999 C 508.96016061703824,593.0 507.8169963539445,593.0 506.6738320908501,593.0 C 505.5306678277559,593.0 504.387503564662,593.0 503.244339301568,593.0 C 502.10117503847414,593.0000000000001 500.9580107753796,593.0000000000001 499.8148465122855,592.9999999999999 C 498.6716822491916,593.0 497.52851798609754,593.0000000000001 496.38535372300333,592.9999999999999 C 495.2421894599095,593.0000000000002 494.0990251968153,593.0 492.9558609337211,592.9999999999999 C 491.81269667062713,593.0 490.66953240753287,592.9999999999999 489.52636814443923,593.0000000000001 C 488.3832038813449,593.0 487.2400396182506,593.0 486.09687535515656,593.0 C 484.9537110920626,593.0 483.8105468289687,593.0000000000001 482.66738256587445,593.0 C 481.52421830278035,593.0 480.3810540396862,593.0 479.23788977659206,593.0 C 478.0947255134981,592.9999999999999 476.9515612504042,593.0 475.80839698731006,593.0 C 474.66523272421574,593.0 473.52206846112153,593.0 472.37890419802784,593.0 C 471.2357399349337,593.0 470.0925756718397,593.0000000000001 468.9494114087452,593.0000000000001 C 467.8062471456513,593.0 466.6630828825573,592.9999999999999 465.5199186194631,593.0 C 464.3767543563693,593.0000000000002 463.23359009327515,593.0000000000001 462.0904258301808,592.9999999999999 C 460.94726156708674,593.0000000000001 459.8040973039929,592.9999999999997 458.66093304089793,593.0000000000023 C 457.5177687778096,592.9999999999887 456.37460451469116,593.0000000000468 455.2314402516789,592.9999999998483 C 454.0882759884031,593.0000000002882 452.9451117250753,593.0000000008522 451.8019474677399,592.9999999869492 C 450.6587831634402,593.0000000864286 449.51561911464273,592.9999995690704 448.3724539446806,593.0000017584441 C 447.22929276131714,592.9999943233165 446.08612174610346,593.0000106243752 444.9429480388439,593.0000334246087 C 443.8000035005134,592.9995029621017 442.65527789289996,593.0032723812251 441.520205313667,592.9837373282573 C 440.34289898858253,593.0661635575673 439.45779667467286,592.4431468987673 438.5236917599403,591.9384329878943 C 437.34980356356186,592.0126071132098 436.2126792253052,591.9980254808683 435.06863369916965,592.0001529668584 C 433.9255171657607,592.0000375574966 432.78239098057236,591.999948584435 431.6391141615428,592.0002003923347 C 430.49646397810227,591.9990597489037 429.3511951584234,592.0037267839591 428.2149064303601,591.9884801859189 C 427.0583807869137,592.0181091830466 426.2349239132792,591.2732068246544 425.37247651229444,590.4619357286898 C 424.8818307466233,589.459672397547 425.5149120451942,588.5168928097899 426.02226765688965,587.605682376091 C 426.26310015774663,586.559147373732 427.2227059860034,585.8110685985033 428.00527242768413,584.9947134776174 C 428.8208492368951,584.2097348907226 429.57383078097376,583.2578572034722 430.6128491197564,583.0104861527628 C 431.57657779053835,582.5763627613549 432.3267042684609,581.6278773065833 433.1507591199572,580.8573732908785 C 433.95697461738825,580.0439213008135 434.764602215315,579.2338689235227 435.57360471596826,578.4271265905259 C 436.38166374287874,577.6181129039317 437.19007615379024,576.8099498785057 437.99840757689765,576.0015919921667 C 438.8067994157429,575.1933798781241 439.61482930965195,574.3842939193685 440.4242233220703,573.5785012627674 C 441.2301191566173,572.7642632453567 442.0410057222083,571.9620739222831 442.8574529066467,571.1733091203107 C 443.6071374987134,570.2233651592766 444.6638125795806,570.0145618100138 445.60864091008204,569.5357364757938 C 446.3612959103534,568.5929638375115 447.1857603618852,567.8235541817199 447.99141998191556,567.0087460313889 C 448.7993896865536,566.1995161531246 449.6079956261261,565.3918133064452 450.4170986492072,564.585343509729 C 451.22317159661134,563.7714753264557 452.03379400718126,562.9687047858201 452.85059155387364,562.180993667456 C 453.60055795160866,561.230295777078 454.6521933549669,561.0133467769464 455.6101033136523,560.5468512996144 C 456.3312508595652,559.5919125284898 457.2183919591123,558.8444298172783 457.9949542549887,558.0195906741372 C 458.0275847659348,556.8772326065966 458.8479298004237,556.036409823798 459.9939359645252,556.0014694773658 C 460.8194380446147,555.2415128892993 461.60319391813414,554.3638725652743 462.42312928535995,553.5882232897272 C 463.2278027150428,552.7695501669026 464.03687873246736,551.963288067389 464.84523738322576,551.1550036903107 C 465.6534734227593,550.3463736686127 466.4618676073891,549.5381894625549 467.27018801612036,548.729797280086 C 468.0785315135096,547.9214701852183 468.8868705006648,547.1131303758698 469.69520929175667,546.3047900138121 C 470.50354874994,545.4964515323052 471.3118878577004,544.6881120629457 472.1202270841657,543.8797729282189 C 472.92856628408106,543.0714337186462 473.73690548500696,542.2630945119216 474.5452446886145,541.454755312759 C 475.35358389058916,540.6464161089923 476.1619230931636,539.8380769069156 476.9702622955882,539.0297377044176 C 477.77860149802694,538.2213985019597 478.5869407004763,537.4130592995303 479.3952799029179,536.6047200970797 C 480.2036191053625,535.7963808946379 481.0119583078062,534.9880416921939 481.8202975102504,534.1797024897496 C 482.62863671269434,533.3713632873058 483.43697591513825,532.5630240848618 484.24531511758204,531.7546848824178 C 485.0536543200262,530.9463456799739 485.86199352247024,530.1380064775301 486.6703327249139,529.329667275086 C 487.47867192735833,528.5213280726424 488.28701112980093,527.7129888701976 489.09535033224694,526.9046496677545 C 489.90368953469266,526.0963104653114 490.7120287371118,525.2879712628574 491.5203679396588,524.4796320604559 C 492.32870714181155,523.6712928578912 493.1370463447697,522.8629536556604 493.9453855472555,522.0546144532342 C 494.7537247453881,521.2462752490042 495.5620639680617,520.4379360549394 496.37040310860993,519.6295968268577 C 497.1787424359834,518.8212576761614 497.9870815762389,518.0129184479578 498.79542006213416,517.2045789487097 C 499.6037631683526,516.3962413632624 500.41208944923704,515.5878968085333 501.2204577560407,514.7795696615095 C 502.0287696493346,513.9712191472454 502.83699899645785,513.1628344412379 503.6460761660094,512.3548009147784 C 504.45176323491785,511.5453631626546 505.26666853648834,510.73974372752076 506.0664911926604,509.9278768561067 C 506.8603482403231,509.11353894873974 507.80483339126744,508.3615932446269 507.9827681337256,507.29213196507646 C 508.5003275780204,506.36334784314363 509.4378151141615,505.6085036320748 510.20520865795066,504.7832041824959 C 511.0223349192281,503.978504698994 511.837132648511,503.17284070595974 512.6056744347072,502.34801687395867 C 513.5513483935702,501.59656359020846 514.0131318761973,500.6446763084984 514.2359882196363,499.5938221653179 C 515.1876328751688,498.84484202510527 515.9744211757544,498.02757614683014 516.7781455321592,497.2173254125684 C 517.589253268194,496.41013297428583 518.4042369605446,495.60454600967626 519.1934454202386,494.7882825941271 C 520.0175683926783,493.9864812432806 520.9130454179569,493.21423570885054 520.9846122749431,492.10071540853636 C 521.6679634489673,491.24060446958686 522.5700953345098,490.4711154685336 523.3390437322257,489.6464600605385 C 524.1618329585514,488.84410625396305 524.9677379961394,488.0347587874227 525.746278552766,487.21407658174087 C 526.7027026811932,486.4670761640224 526.9946033924986,485.4448211344172 527.3787430378015,484.4607727222527 C 528.3316572424948,483.7123184465206 529.104471793459,482.88926445163537 529.916229894038,482.08234140316705 C 530.7246800632207,481.27404816465145 531.5417251848285,480.4693150719982 532.3202058019627,479.6486080385656 C 533.1849329757921,478.8636254986242 533.9860648051801,478.0523009045113 534.0218372497508,476.92395407311795 C 534.8393423760853,476.1194115206609 535.6955699919664,475.3309083485432 536.4848990049815,474.5146948678145 C 537.2767211179952,473.6995140629178 538.1237815715815,472.90721372784907 538.9642662078514,472.11218960006414 C 539.0034362692979,470.98525010766014 539.7760825869386,470.1621264282504 540.6608155624225,469.3854305626806 C 541.40031546918,468.5485771903391 542.3058136275237,467.78048254513476 543.0117555270839,466.9297289910862 C 543.0745578974332,465.8125783215399 543.9569584683677,465.0349163423725 544.7575022768121,464.22334818200966 C 545.6929956933375,463.46767797955147 545.9948560209068,462.449548358079 546.3826613780465,461.4670183334729 C 547.3078742724599,460.7070897993273 548.1260843574327,459.90283925029973 548.9689486443747,459.10880080609684 C 549.0072800047419,457.9815139123311 549.8748567148527,457.19771168896364 549.9882824819645,456.10152991693013 C 550.6717348173702,455.2414608803967 551.5412299042521,454.4584532747057 552.4238819163326,453.68089544587133 C 553.0233256236968,452.78602889624693 553.1332509908981,451.6883972110964 554.0928641473204,450.94271773202394 C 554.9514535206266,450.15519283186285 554.9946169299509,449.029907438309 555.7100834026637,448.183099091636 C 556.7359463871677,447.4648611898599 556.9937576269234,446.428485838805 557.3653319000387,445.43923267906405 C 558.4158653247889,444.73121360822773 559.0171968012227,443.8371289981545 559.1081917247029,442.73165606647314 C 560.0407543735466,441.97477190029247 560.9300873936934,441.19998143560963 560.9882156925123,440.08089470224377 C 561.657670548279,439.2150277198051 562.7092590100326,438.50744565960434 562.9727315262661,437.4734152860465 C 563.4657093947783,436.53444914204005 564.0152753155717,435.61892253675677 564.333266096844,434.6074743679752 C 565.0418873951685,433.7578306572336 565.1430602174343,432.65657354926554 566.1305103990144,431.92242454354977 C 566.9699700950699,431.1269758716274 567.001293583169,429.9967862221247 567.8708084130244,429.21378679424123 C 567.9755891712314,428.11402414227257 568.7729722361331,427.30114675906725 568.9726675642462,426.2406990092201 C 569.6649001767535,425.3842668825436 569.9853571369467,424.3738402385184 570.5401628132362,423.4604840110249 C 571.0269880843206,422.51896937772005 571.2936459056748,421.4862584007438 572.355104269929,420.78276458801827 C 573.0076070791844,419.9098758380042 573.1205242203,418.8134833861844 573.9888660264273,418.02999807596404 C 574.0373545961793,416.9069184360813 574.910224070477,416.1253085474227 575.0043674106677,415.02113973264255 C 575.06576140225,413.90340569351036 575.9456394637397,413.12469885671976 575.9987822995575,412.0035470769645 C 576.8624841128253,411.2181398187721 576.9751907448809,410.1216601712448 577.766481225867,409.30625915715194 C 577.9729260228395,408.24860712884526 578.6588593239037,407.3895657419351 578.9843828918619,406.3812377555616 C 579.5441563996633,405.4699392712559 580.0022824241955,404.5165370207991 580.4274893745855,403.54949924337194 C 581.0192979311117,402.6514701107198 581.313979169465,401.6303668131283 582.028186236175,400.7830368034081 C 582.2081182215302,399.7144028089529 583.0220909238612,398.9083970785658 583.1092663329514,397.8013420522223 C 583.9883758231945,397.0223168627978 583.993221534383,395.8811597589971 583.9712433906645,394.72889185069937 C 584.2384941495882,393.69642647650596 585.0455408856459,392.88755191695594 584.9437341614055,391.70221792794047 C 585.2810680322211,390.69878192918634 586.0220002781487,389.86252185115495 586.1497196119352,388.7722606682924 C 587.0053404484287,387.9835061599228 587.0616479907371,386.86366524451705 587.9431973346157,386.0856506755583 C 587.9925753175045,384.96293944265955 588.0936964640313,383.8616609298997 588.9593394972992,383.0770577513587 C 588.9968888018615,381.9494469194721 588.9788669744945,380.7988177710639 589.1936732431178,379.74462917771643 C 590.0219156917894,378.94453416979513 589.9924590090615,377.7891685492126 589.9592925869058,376.6322663042462 C 590.3109400562123,375.6347591921132 591.065826142795,374.8042789841284 590.9297228880359,373.60473890702997 C 591.3580773424859,372.63900486847194 592.0246565147909,371.77194673894223 592.2049415812576,370.70345899547186 C 593.0363801723996,369.90468787310925 592.991845150668,368.7430766000134 592.9531749802318,367.58389462786545 C 593.3545985996517,366.60700547219176 594.0615874455328,365.7566855775083 593.9832941360675,364.58109116379063 C 593.9994708636482,363.4446275206553 594.0163191130669,362.3084420309725 593.9542758963096,361.1395786260442 C 594.7329432428256,360.318948938454 595.0392515208208,359.302661718373 594.9921536542344,358.1399888801799 C 595.0000083443759,357.00007813627076 595.0687592558731,355.88539143314426 595.9396433373067,355.1029591678349 C 595.9983395155131,353.9841076578132 596.008632888679,352.8452070494871 595.958674231013,351.6813492328297 C 596.2790242569239,350.67087829517465 597.0486943027103,349.84652180359757 596.9826675905522,348.67600838084866 C 597.0046792431334,347.54196164278426 596.9986595068956,346.3963039232983 597.0013266751363,345.2542444374626 C 596.9974562023215,344.10947697203574 596.9964124737252,342.96588038240196 597.0875447598454,341.86046434818877 C 597.957079275284,341.07747307434084 597.9954088420625,339.95018543764616 598.0037155925262,338.81046194325376 C 597.9987413302182,337.66523727324875 598.0003256616984,336.52272926174106 597.9999309131936,335.3794014884624 C 598.0000114618063,334.2362705896963 597.9999989045205,333.09310112520416 597.9999998730265,331.94993726327834 C 598.0000000993931,330.8067730939484 597.9999999665188,329.66360877581604 598.0000000086358,328.5204445301671 C 597.9999999981737,327.37728026273965 598.0000000003016,326.2341160005269 597.9999999999716,325.0909517372963 C 597.9999999999966,323.9477874742127 598.000000000004,322.8046232111202 597.9999999999907,321.66145894802867 C 598.000000000043,320.51829468491417 597.9999999998255,319.3751304219098 598.0000000005663,318.2319661585092 C 597.9999999989193,317.0888018960968 597.9999999968522,315.9456376338591 598.0000000485585,314.8024733493476 C 597.9999996779551,313.6593092397624 598.000001606994,312.5161441776341 597.9999934377462,311.3729832983538 C 598.000021207914,310.2298075324794 597.9999601503524,309.0866685602552 597.9998765045077,307.9435389444048 C 598.0018494168436,306.7995574742638 597.9878064674455,305.66220999126597 598.060646330488,304.4888744690181 C 597.5673785980247,303.5500283905916 596.9339078882701,302.669256286844 597.016826035205,301.4917462027225 C 596.9953493888628,300.3574778578176 597.0044736338466,299.21053420870487 596.9935871471605,298.07187927604275 C 596.9676914242453,296.9394413725875 596.1008339212658,296.1553412438721 595.9935187600356,295.0566283760083 C 595.9950345826167,293.91283623864274 596.0317052666018,292.7544824809007 595.774014609375,291.7180571829267 C 594.9674052312628,290.9090014637841 595.0071375068378,289.74937955328295 595.0464574369985,288.5899284418446 C 594.6503336194501,287.61084403635806 593.9387237181511,286.76243824550113 594.0180419846115,285.5864192806952 C 593.9945934892698,284.45296770238895 594.0054258125523,283.3053165440793 593.9872242348629,282.16969162132074 C 594.0080086691853,281.0179181636441 593.1617322199088,280.2252930833572 592.9845976598651,279.1555003573983 C 592.9995516312632,278.0061419565397 592.9353930034046,276.88955306724785 592.0627749469384,276.1078390379137 C 592.0006997221526,274.9903871748132 592.015466820387,273.8411061793538 591.8388071012412,272.77111676785483 C 590.9899657041943,271.9795541237212 591.0340748929999,270.81811923639845 590.8197908750163,269.76371431975303 C 589.9844620104589,268.9665546014005 590.036634467364,267.8017797990741 589.8089274526847,266.7529348697074 C 588.9790104918472,265.9535334674359 589.039415358611,264.785348689295 588.7980725530673,263.74215188943805 C 587.9736104954424,262.9404909922744 588.0447495615431,261.76785996318694 587.7688374115626,260.7389822546381 C 586.9836037728427,259.9210724143334 586.8901089440245,258.8166349773477 586.013799643775,258.03644991125043 C 585.9621048983748,256.9146983128046 585.0746310709247,256.13913774529163 585.006336172922,255.02426215519122 C 584.1851785659208,254.22123250976276 583.9668704465855,253.16849443047366 584.0047848816114,252.00962549418188 C 583.1579319191724,251.21723921346614 582.9752513512428,250.14974371919027 582.998917596225,248.99677657645415 C 582.2490181659025,248.16423082781537 581.2332019604394,247.44183141390272 581.0354903091695,246.38056199820383 C 580.4531313086427,245.47861873129781 579.9983609912903,244.52382650141584 579.5786502389817,243.55451212420198 C 578.9799290034954,242.65934631692684 578.6929111209784,241.6350687534149 577.9709871622214,240.79093518504027 C 577.8024016849591,239.71760131304734 576.9748504106329,238.91722001133832 576.9363336394185,237.79000991726002 C 576.0344509342821,237.02041770230312 575.0940688418723,236.26677245569815 575.035030707196,235.14806258868416 C 574.2599614738655,234.32594251381366 574.006952928309,233.28757782168563 573.4897971857522,232.3586264810174 C 572.5823205711752,231.5913513392173 571.732071559143,230.80037174830105 570.9940272793397,229.9629154355332 C 570.9163589734767,228.85192243809422 570.0344927047963,228.0740391436867 569.9883377428949,226.94999289178295 C 569.1845772430034,226.13975712864357 568.3528846511357,225.34109121682596 567.4370505518136,224.57727785855582 C 566.9884142733454,223.61994482657218 566.7419104201002,222.5788858026848 565.8049385049007,221.82382801439286 C 565.0113032272789,221.00939824688646 564.1073215102386,220.24067547133356 564.0174732643707,219.13472756966215 C 563.3631308755731,218.2626008021538 562.4539985310323,217.4960114701497 561.6839320617629,216.67181922780392 C 560.8655981454326,215.86761989261794 560.0584517635949,215.05878659589797 559.2506714685289,214.25021657210553 C 558.4418234310748,213.4420849588087 557.6338353084126,212.63360998183512 556.8251184164418,211.8254079800789 C 556.0169331193499,211.01701366222926 555.2105253075085,210.20798909375048 554.391844229583,209.40331936492288 C 553.6174657254059,208.58293066427566 552.7333920996479,207.80146247149457 551.9931852925192,206.96894772337401 C 551.9526389875056,205.8206024844028 551.0919134461806,205.0208048619388 549.9502706731038,204.9898207819751 C 549.0636820363922,204.2209405193157 549.0130693371561,203.07026188452522 548.3076235168637,202.21842501761842 C 547.398134765911,201.47967362735506 546.6752397789371,200.53736683740487 545.7540489753723,199.98200996664428 C 544.6756040714374,199.82946319115013 543.9157877283219,198.9026855606164 543.0994841276956,198.113657436737 C 542.3404579460833,197.18637531176907 541.2691427691952,197.01285979776247 540.3346242409999,196.50915726625587 C 539.6307953023288,195.44850172695573 538.6792272549417,194.98594937292017 537.6110491176615,194.8049164766053 C 536.8808653908167,193.8078933970289 536.0659431492095,193.015447040125 534.936946674552,192.9812429713956 C 534.1307646046637,192.16769599026972 533.3290312303088,191.3434089071114 532.5660038137107,190.42567737726696 C 531.6054932578377,189.9847123199092 530.5556933185393,189.759310903195 529.8356293229975,188.7378564990131 C 528.9982402844472,187.99964980488403 527.8704936683137,187.9624283124919 527.0749970252579,187.12308442899698 C 526.3383845988174,186.14158147113932 525.2366650150614,186.04152516419396 524.3888135292552,185.32857705212297 C 523.3751685224221,185.01588990706807 522.461923404303,184.46081598902 521.5208515070736,183.97292185849798 C 520.4875651433969,183.7076531435187 519.7838911273927,182.64662982846264 518.9116924870394,181.99246094710463 C 517.8148518978736,181.88062570524932 517.031587384859,181.01175084751117 515.908592043671,180.96305876270765 C 515.1273724003605,180.08924715279792 514.0227992953446,179.99607985557742 512.8954365569122,179.9579316004327 C 512.0909680718812,179.14024765951388 511.3544042869624,178.15862727063538 510.2599195702966,178.04110444943822 C 509.403745097899,177.3482498044761 508.39883473903933,177.0144753538215 507.47984441677687,176.4732715855356 C 506.53700362635993,175.98964794093624 505.54736733762417,175.61899862303662 504.6954863495198,174.91577859006316 C 503.48274817598883,175.08374486822765 502.5658293461379,174.5375400748672 501.6508022113105,173.98676832572437 C 500.63263691640435,173.6849941214416 499.784743677519,172.97214681022092 498.71569245477565,172.79322210305807 C 497.91015934508806,171.97810839342338 496.80240534747725,171.89262045024594 496.0236940453915,171.01275316893341 C 494.88111195235473,171.01134768608534 493.7482742462072,170.9864171722521 492.5775886635126,171.05285951528592 C 491.6032319930688,170.64532193567769 490.7572952445859,169.9277512387927 489.5540411032975,170.07282103769023 C 488.59925872285953,169.61802694167628 487.73646726249314,168.94114711881053 486.5680298953417,169.00216178938925 C 485.40016758927305,169.0617881397022 484.49347874692984,168.4908859717571 483.57870565718156,167.93950090353968 C 482.4123120782624,167.9955814328488 481.2413387234918,168.06271851913166 480.4018811359524,167.329505744024 C 479.389504279281,167.01375701365112 478.4645541345735,166.4869415295406 477.54917683521484,165.93701515235787 C 476.3813217822307,165.99662399217664 475.21376574481536,166.05551094455333 474.37029828066176,165.331978867951 C 473.3852757602318,164.95019092803375 472.2165823890417,165.01182364703493 471.08153133512434,164.99223662740542 C 469.94680395941026,164.97186817946843 469.1622893932514,164.10601121698588 468.0660245159172,163.99278608381724 C 466.92067965677467,163.99805050837142 465.7761962677702,164.00123516003472 464.63407079915066,163.9987272883255 C 463.48848999678506,164.0045613302091 462.3545256856454,163.98235068142833 461.1817736647248,164.05378184765289 C 460.3495756161293,163.3030429951699 459.3502042093463,162.95589633129183 458.1860866494081,163.00648206470945 C 457.0457566759596,162.99963948420697 455.90248620017644,162.99989590432048 454.7594970860952,162.999473057199 C 453.6146217305951,163.0036039996922 452.4799879816986,162.98300951662256 451.3027544368955,163.06526003858443 C 450.4316758863922,162.40838702111955 449.4818416340167,161.94164708722906 448.309728231584,162.01153649203937 C 447.1723743800585,161.99750891762795 446.02784326785843,162.00080878327708 444.87921506364796,162.0139999040239 C 443.7998331925378,161.86001558825586 443.01077321777,161.00513221288364 441.86530710904145,161.01068935983278 C 440.72840986221945,160.99555944415272 439.5828823238047,161.00126489548379 438.44036287765977,160.9997081696602 C 437.2970551611936,161.00005449673668 436.1539164289396,160.9999928598363 435.0107491613999,161.00000011320913 C 433.8675848261091,161.0000002875075 432.7244207311208,160.99999988166428 431.5812564050998,161.00000003358315 C 430.4380921591166,160.99999999227452 429.2949278922271,161.00000000143734 428.15176362980554,160.99999999981318 C 427.0085993666331,161.00000000000244 425.8654351035368,161.00000000000776 424.7222708404475,160.99999999999687 C 423.57910657735164,161.0000000000009 422.43594231425766,160.9999999999998 421.2927780511635,161.0 C 420.14961378806976,161.0 419.0064495249757,161.00000000000003 417.86328526188174,161.00000000000006 C 416.72012099878714,161.0 415.5769567356934,160.99999999999997 414.43379247259924,161.00000000000003 C 413.2906282095051,161.0 412.14746394641094,161.00000000000006 411.0042996833174,161.00000000000009 C 409.8611354202228,161.0 408.71797115712866,160.99999999999991 407.5748068940345,161.0 C 406.43164263094076,161.0 405.2884783678468,161.00000000000003 404.1453141047524,161.0 C 403.0021498416582,160.99999999999994 401.8589855785644,161.0 400.7158213154702,160.99999999999997 C 399.57265705237626,161.00000000000003 398.4294927892822,161.0 397.2863285261879,161.00000000000006 C 396.1431642630939,161.0 395.0,161.0 392.0000000000001,161.00000000000009 " fill="none" stroke="black" /></svg>