<?xml version="1.0" encoding="utf-8" ?>
<svg baseProfile="tiny" height="100%" version="1.2" width="100%" xmlns="http://www.w3.org/2000/svg" xmlns:ev="http://www.w3.org/2001/xml-events" xmlns:xlink="http://www.w3.org/1999/xlink"><defs /><path d="M 249.0000000000001,95.00000000000003 C 248.24684383359983,95.94044337042881 247.13123560206276,96.00585004949434 245.98616988307535,96.00014006284373 C 244.843277213396,95.9996762813042 243.70076105847878,96.00012148681003 242.55799643280966,95.99996683085654 C 241.41531268484337,96.00000743095033 240.27260844501052,95.99999855930194 239.12990865895335,96.00000044001897 C 237.98720796895995,96.00000013844101 236.84450435535052,95.99999277862952 235.70182941465106,96.0000546413461 C 234.55898535129245,95.99970820584535 233.4169289700667,96.00126340323285 232.27186735400687,95.99556332192554 C 231.1354453291529,96.01072105888082 229.99022524112158,96.00463839239082 229.20120485908927,96.85849788703693 C 228.1233115699854,97.01495649162857 226.97500838832337,97.00143057868101 225.82249648967942,96.97774392411597 C 224.76242702017143,97.17723303570921 223.9664456657812,98.01428725648158 222.81244379399186,97.98700348854081 C 221.67576839379703,98.00154952331195 220.53851391329943,98.01469753456216 219.3622946170606,97.93377615919472 C 218.47132832586044,98.54151645729932 217.54273746453762,99.05842300793527 216.37770820417043,99.0045167689324 C 215.21009063675447,98.94436180394898 214.36931816029704,99.67328069035278 213.37991047889244,100.0433624491269 C 212.22214778260312,100.00699924767278 211.0662875585322,99.97522902045033 210.26043369392573,100.78844889316402 C 209.22249604143852,101.04136893756882 208.05287727661567,100.97638265466455 207.2526585726951,101.80320700873226 C 206.20729133648473,102.03819045134992 205.04100638981572,101.9812527174473 204.24291744775795,102.81321877148838 C 203.1923383280414,103.03561961426006 202.02920792063892,102.9862976118377 201.23316058780955,103.8231925465676 C 200.17735431322896,104.03297392117352 199.01751104291895,103.99158776970114 198.22311814001915,104.83247685160465 C 197.16279096550687,105.03134380828166 196.0058055284177,104.99685707653025 195.22491131819834,105.87033488537722 C 194.12644871363864,105.97713476962669 193.29487516744524,106.72826183823321 192.28770594998758,107.05546345577923 C 191.10319574760283,106.95452606235014 190.30811351457018,107.79375095409803 189.23828740448084,107.96968545167658 C 188.38382679363718,108.66555825840143 187.375235439254,108.98932653369455 186.45039853316223,109.51529593396197 C 185.54359827216666,110.08480964744024 184.33097391520664,109.91599868074056 183.4655381517843,110.58537512526082 C 182.50199631374784,111.01790255389673 181.48210725204748,111.31439575096087 180.7664612154841,112.34539658556825 C 179.9059686994056,113.02670708486828 178.73348802615985,112.95481154383539 177.71315459025303,113.25023192666337 C 176.89207401582428,114.0266912700137 175.76978710920767,114.07597420112346 175.00579811018056,114.99026480010548 C 174.24680274889477,115.91661110704878 173.12549948703372,115.9682687666665 172.30908255501438,116.75598713878072 C 171.26649123808502,116.99767224334748 170.32671075192798,117.48756465009271 169.63139496834887,118.5676470566635 C 168.66608362929702,118.9959025331049 167.64807253295194,119.29692953454769 166.81234434602405,120.03802642403578 C 165.70148752466957,120.11490397193306 164.9557404583691,121.0732345681096 164.17438079657362,121.94558887423497 C 163.0499328327843,121.98965408285838 162.21106428144068,122.72317408764748 161.41991198553598,123.57186314412814 C 160.64921212351186,124.47002683616417 159.73427331668128,125.01974074956532 158.65692527997754,125.17818123173116 C 157.9044777557435,126.11905434834561 157.0923750771018,126.91617422113855 156.27253253801783,127.71095732686254 C 155.49992298918886,128.53928489873311 154.59780584395781,129.30651057562775 153.96036424946527,130.1849817162164 C 154.01000872109785,131.35128451970306 154.01258303541834,132.4791679897973 153.93584409033872,133.65707415891563 C 154.54877182915018,134.54498076201168 155.0792326585043,135.46830120591437 154.92008405971592,136.67686046477266 C 155.57720208712283,137.5473903998076 156.05444732938668,138.49240319097055 156.00679365951999,139.65484369038072 C 155.94537167897153,140.8229858502246 156.72537657179063,141.64259786212384 156.98079503088576,142.67950061302815 C 157.5626251212471,143.58119926914074 158.07989463880358,144.50963978250613 157.92381188995319,145.71699193939384 C 158.6026706818277,146.5784999858401 159.075201989025,147.52547167486813 158.92063026308026,148.7321979451825 C 159.648529916388,149.57339260181323 159.99084166630826,150.5743029975116 160.47316841261681,151.51721728277118 C 161.08642329776941,152.40589935722517 160.91345635251955,153.62024517686558 161.5498031477895,154.4993622689678 C 162.00580140809402,155.45318217020696 162.3736720591936,156.44350572239816 163.08171128502664,157.29292683744163 C 162.9228071401558,158.5014476544404 163.41927850089738,159.4385030485662 164.0782525402911,160.30824762927548 C 163.91781524416277,161.51740349830953 164.46206867393934,162.43466691145025 165.0133680881636,163.34901178210438 C 165.3144208300668,164.36701221903493 166.02791835499053,165.2141724313575 166.20533606300606,166.28338418107938 C 167.02184350252674,167.08787628182236 167.103564080033,168.19672712126217 167.9848935384912,168.97436904801356 C 167.9752402677187,170.1210683533032 168.15256589267287,171.19031564255693 168.99511579393848,171.9840224189695 C 169.05048294973278,173.10377474887196 169.93952007244036,173.87818520334298 169.99884050545262,174.9963741822352 C 170.85450440511204,175.78344270896258 170.98740493062755,176.87445719580307 171.65001325249196,177.72008385151807 C 172.51288217776104,178.60430521591604 173.44158504278693,179.05024795837613 174.61483733708573,178.98907458204195 C 175.75136307374905,179.00217187837285 176.8946590028144,178.99911148662187 178.03706538263606,178.99879133252614 C 179.19045791640923,179.0246697438191 180.24102858415353,178.80219970055748 181.04667615878097,177.98849863477176 C 182.15766368015719,177.91193492309358 182.9341408111037,177.02779405050626 184.05620940375718,176.9779841475792 C 184.83589977309703,176.10160000980773 185.9391278024642,176.0063049034597 186.799563069298,175.3248561874051 C 187.5113089950922,174.28443965689056 188.53755373054327,174.0032904119557 189.5391305734372,173.66258760826204 C 190.24490237582225,172.60774826343803 191.13237540185233,171.99157447721626 192.21657526132347,171.85034128033223 C 193.00623681403863,170.99802970864644 194.12466844001435,170.93943930672663 194.90016071098327,170.05292006287814 C 196.01967083881,169.99693339475434 196.85158909833675,169.24663853775223 197.56733091559508,168.21586893819773 C 198.63562297693534,168.0362309193237 199.53511481348306,167.44907310842393 200.4820125343455,166.97636322637314 C 201.5092894522694,166.69770589200056 202.2245724903543,165.66582870154335 203.08175003019778,164.97651514165776 C 204.2511107429739,165.0408784318109 205.28321289699517,164.77387024786645 206.08982218163345,163.9624741204389 C 207.26930295027537,164.0512693867155 208.2836116986733,163.74130412159408 209.11093216899894,162.979909219546 C 210.20781739320842,162.86930120226177 210.99166791036401,162.00296054971483 212.11329778786921,161.95209141001368 C 212.8925359654013,161.07461558459306 214.00473417357952,161.00097638088684 215.11404554195687,160.9203677293808 C 215.89419304517986,160.04508721037624 217.0160841375464,159.99484869913604 217.80932841938863,159.15118660069723 C 218.87947109681724,158.9760163642822 220.0261731741803,158.98567686951642 220.81176395235045,158.12353757871279 C 221.89955192065773,157.9909668428491 223.04760181924772,158.003881276369 224.15045401815257,157.90767881032096 C 224.9334609380283,157.03930153377968 226.0651094508938,157.01261951944147 227.157444895628,156.89102736283985 C 227.9432319543311,156.02936193516078 229.07650500504505,156.00660190211994 230.21491017715306,155.99623190631795 C 231.35930873669247,156.00033122652655 232.50358188089783,156.00412777371344 233.63727654722516,155.98238558882025 C 234.8100671661852,156.05502947731028 235.64438056069798,155.31051653009254 236.6396776625253,154.95465445535402 C 237.80400801032985,155.00686958765135 238.94367154460363,154.999544289712 240.0864951053011,154.9998654750955 C 241.2293598123379,154.99992454852378 242.37156200153916,155.0009206240094 243.51653095996323,154.99550524373157 C 244.65007389381276,155.01759927116532 245.82208263688446,154.9468458981065 246.65284619744574,155.6999277837205 C 247.65315668139547,156.04368815372013 248.81659536330727,155.99362186100345 249.9565127151422,156.00034113884936 C 251.09931265160452,156.00010123492046 252.24181849897388,156.00057132480188 253.38635242525982,155.99614519940837 C 254.51994434611177,156.01813541179794 255.69899977660907,155.93036700264625 256.5568560308339,156.618042001065 C 257.5436295343028,156.99448322793796 258.49602870760106,157.45391142890634 259.3829586012987,158.07139645260244 C 260.56400878809876,157.97881227573183 261.6892476807831,158.0209684820109 262.86073677536166,157.95146682373058 C 263.6725915166532,158.75019929796218 264.7127736937415,158.99770058243485 265.6595663806693,159.470664029649 C 266.35518074890183,160.55002562232747 267.3123768018262,160.99787306041102 268.3376171184227,161.28144749618383 C 269.16859126519176,162.03402099823353 270.2750081918295,162.1216204482393 271.03593198852366,163.0433070053805 C 271.8510345434273,163.83418415733072 272.6069733046392,164.76801242360256 273.65889926237105,164.98687307797846 C 274.6063913664002,165.4595353509642 275.3558520650876,166.40427187748404 276.18476887266627,167.1712631963127 C 276.9877880176397,167.98661517507728 277.7682112438145,168.8069741331161 278.7244649105694,169.55242601913807 C 278.9904624359234,170.58540301003157 279.408815308912,171.55471213462178 280.33135880646273,172.3153254058214 C 281.15105166091155,173.11848706731436 281.97493063729326,173.9199270559273 282.0104463835118,175.04791673107434 C 282.78663108048573,175.8691110517102 283.80069651734226,176.5917720444273 283.9664882027505,177.66579940746004 C 284.5525054742531,178.5657636793036 285.0815846741592,179.48931246097632 284.9168343533133,180.70025484393915 C 285.6209005580426,181.55132163805462 285.9938448961167,182.53954360034967 286.4506145765594,183.49304396889187 C 287.07134201632414,184.37863080988467 286.97893277060933,185.5596085378234 287.0203281193998,186.6851625880111 C 286.95262606643604,187.85590626162505 287.7294114996042,188.67685176522724 288.0387827314635,189.69140657026267 C 287.99498986684847,190.85224673378755 288.0000539535741,191.99284968546905 288.00021151665686,193.13548498591388 C 287.99991413576765,194.2783087289295 288.00002426758533,195.42096368323635 287.9999943981755,196.5636765868325 C 288.0000011554142,197.70637448072748 287.9999995498839,198.84907534896567 288.0000000855096,199.99177602334603 C 288.0000061489857,201.13447909674022 287.99994927972807,202.27715611231397 288.0002811803458,203.4199941527052 C 287.9987473380021,204.56205938013673 288.0045556747515,205.70716583692322 287.9880512235372,206.84303003449236 C 288.003569440818,207.99215845562657 287.15547703324717,208.78356764334134 286.9828558045406,209.85476615433274 C 286.99986697110194,211.00451297531004 287.00174729090077,212.14799239434805 286.9925726890408,213.28689271490398 C 287.0385638814511,214.44864345562578 286.71275290732234,215.4563886964474 285.72073217982273,216.1881808220376 C 284.992080965987,217.02906417210286 285.00318544409976,218.176364362616 285.0381023664344,219.33352799047898 C 284.7154307733652,220.34257360551297 283.94075076448365,221.16439120441072 284.0655186473279,222.35877231870907 C 283.6709470915811,223.33803599406775 282.97664726502273,224.19314815462968 282.8098587231893,225.26676264362965 C 281.98217405826995,226.0666249951276 281.90942493314594,227.17919188592612 281.0267198149035,227.9562640194497 C 281.0194320386659,229.09594588876826 280.86722061515144,230.17559841787613 280.013744505803,230.96477760329842 C 279.9792655690339,232.09319652514807 279.16740443945855,232.89961319959014 278.16547493951214,233.6273009772465 C 278.0416914928413,234.71872875991383 277.3676170962577,235.58221856787617 277.0101342716789,236.57684489869587 C 276.50244041967846,237.5092517847396 275.96781954122036,238.4305051312302 275.7411902131213,239.47933275497581 C 274.6916375242475,240.18729436189489 273.9951934022209,241.04151832619203 273.9124970444017,242.14996493830026 C 273.0328456437749,242.9283019630758 272.9876623239604,244.0522869842915 272.1828030037926,244.86160390315126 C 271.3510750378102,245.65979146451193 270.43860695907523,246.42453537614347 269.9832593730581,247.37862479549614 C 269.77042240832435,248.4331654032088 268.75205970690223,249.15404632593115 268.0026682599983,249.98633879017785 C 267.9618434415305,251.11212916172778 267.11903959578694,251.90572894338865 266.305790015259,252.71157050364295 C 265.37879173556075,253.4702958047266 264.99383902002666,254.45354374483077 264.6986312503855,255.4739652008799 C 263.73638646285326,256.21809105020566 262.96458598012714,257.04110125560294 262.176906389136,257.85753382246133 C 261.22307143822024,258.6051460987026 261.0147583289724,259.66155187569336 260.537378135667,260.6065568341961 C 259.5969521383994,261.35958064297125 258.82326040838836,262.18209362157637 258.01120048399764,262.9882808077025 C 257.227715488324,263.80482967106417 256.280929979171,264.5642351166064 255.99538951754533,265.564423452579 C 255.66911850191042,266.68366484852294 254.45806125949684,266.95943562014025 253.9786940379849,267.5374441525533 C 253.6003525696088,268.5986204016389 252.6341122116739,269.309705797476 251.864780382398,270.1420529740912 C 251.05123507844007,270.94672656392305 250.27238440454866,271.76639346771054 249.3185155342801,272.51434993322897 C 249.00245122211174,273.52599998790413 248.64371470991318,274.52013688993236 247.68933495926768,275.2675087146381 C 246.91567359782394,276.0897509978488 246.10545905552146,276.8968495349195 245.29443609679487,277.70361314999707 C 244.48837602593667,278.5124328588066 243.67962910526654,279.32013941880876 242.87180828991697,280.12822966687065 C 242.06377536451888,280.9362320349591 241.25574977127448,281.74423738996995 240.4477620776711,282.55225872155 C 239.63970286199321,283.3602495192921 238.83177914765173,284.16829845622703 238.0237360427804,284.97629612180503 C 237.21517658105282,285.7840719617661 236.4100236194846,286.59331121221476 235.59275869968266,287.3973472403776 C 234.8049678535858,288.2140451499394 233.98043615200743,289.0149594128506 233.0853344101893,289.78555721818066 C 233.0164101267417,290.9032972266236 232.3186375074076,291.7305692120006 231.47986949854882,292.6467991357901 C 230.51139314546282,293.0027838121772 229.4982580651886,293.3311978418108 228.7557861752249,294.2885134764362 C 227.93147761613406,295.06276549814737 227.11977226063414,295.8699972425134 226.35026027770485,296.69741990040035 C 225.39752376964324,297.44157710027196 224.9938073891359,298.4230152838916 224.71274060239517,299.42542156158663 C 223.7836313046418,300.2437486218985 222.98162278958816,301.00469518800327 221.832241433064,301.03988993553867 C 221.02272538554706,301.8896282995422 220.99071528529632,303.02955989321646 220.1882047637749,303.8198191173882 C 219.42211811984708,304.77279299316297 218.2826341178716,304.943998931193 218.00099423505387,305.75305465970706 C 217.43368508862292,306.6786806844318 216.550147780077,307.54382810724644 215.63359470756893,308.0155650242711 C 214.57961178485118,308.245514408562 213.8346783022257,309.20013580221075 213.01656408828813,309.9846652390696 C 212.20664276056235,310.78823717553945 211.40097352074636,311.601692122743 210.59188998190368,312.40721130882156 C 209.78420995261723,313.21599263348133 208.97613507042416,314.02385621240956 208.16812010793782,314.8318590610543 C 207.3601188170019,315.6398936861674 206.5521023685443,316.447893080831 205.74409276357477,317.2559083822696 C 204.93608106403093,318.06391881432074 204.12806974304561,318.87193012570026 203.32005857448846,319.67994180225634 C 202.51204681133612,320.4879520492024 201.7040366178872,321.2959660828002 200.8960235731509,322.1039732337511 C 200.08801099947542,322.9119815217368 199.28001931908722,323.7200402505816 198.47192428900414,324.5278494712158 C 197.6641530877905,325.33644048388516 196.85570743312286,326.143403221883 196.04770731810828,326.9514415877528 C 195.24312008859928,327.7677193880974 194.41871052279762,328.53614183532613 193.66141634637108,329.46659516582815 C 192.7474963378374,330.01892028823937 191.6675750365591,330.1704828383348 190.91319101153476,331.1079618958205 C 190.10137673463993,331.90679206035014 189.28887868205496,332.703971444335 188.4838349776606,333.5191472168203 C 187.67470878839956,334.3244669989722 186.8669640537236,335.13312190751924 186.05891300893308,335.9410373180335 C 185.2511396324333,336.7496230791009 184.4419656828906,337.55482755773346 183.63751231130706,338.3714285196968 C 182.82242979861937,339.1623684650501 182.0174319248318,339.9776548824078 181.252247981301,340.8890606301628 C 180.14781749487068,340.9814527730616 179.27162864718818,341.6248689757239 178.50633457149826,342.5360088409268 C 177.6824174647964,343.30562018959296 176.8784624318366,344.12342424742036 176.07001639580417,344.93038606472135 C 175.26174792195596,345.7377765550558 174.45395434049937,346.54631353704235 173.64579713106474,347.3539726434329 C 172.83793637947028,348.1623474623619 172.029885107399,348.9702623241717 171.22101186479694,349.7761927735791 C 170.4173903697534,350.594802063164 169.595333710441,351.3689049291622 168.81753407765785,352.2498537087991 C 167.98672820921155,353.0028341154541 166.86219192552312,353.0466865698145 166.07371704992724,353.90186303335634 C 165.28017151137553,354.7447978361981 164.46165153208452,355.52743899244246 163.65779054614276,356.3454701307336 C 162.84865119263304,357.1507580743554 162.04079522189505,357.9591444428856 161.23283317788994,358.76727514331276 C 160.42477568968235,359.57517292364605 159.6167814787046,360.38323204552376 158.80877095315793,361.1912316928385 C 158.0007563444126,361.9992437243384 157.19271047867528,362.80724100255054 156.38489802940836,363.6153342827095 C 155.57621328534827,364.42306685577705 154.76975818389178,365.2317227178227 153.96013654235358,366.0390670312741 C 153.14691175648147,366.84491886105224 152.37636054662076,367.6684466627638 151.43096452427898,368.4195513744934 C 150.98564662238036,369.37779522474756 150.76541280060553,370.42927195401205 149.764144608262,371.1572336542243 C 149.00501769558514,371.98549355651056 149.02246998708281,373.135423097419 148.8513236544718,374.207232530377 C 148.00112915381487,374.9977710026254 148.02881767864793,376.1519405302094 147.83706056100516,377.2152126964759 C 146.99580740498914,378.0094547949405 147.01182616491403,379.15879054762956 146.9955205482374,380.29473710513486 C 147.00122800792664,381.43980177742054 146.9997250562881,382.5818797995441 147.0000494212734,383.72471472099596 C 146.99999406432374,384.86739235647246 146.99999989931328,386.01009533848 147.0000003126937,387.15279607478027 C 146.99999988107894,388.2954964611014 147.00000003279973,389.43819708887565 146.9999999920324,390.58089763772375 C 147.00000000359884,391.7235982051662 146.99999999426757,392.86629877288254 146.99999999817865,394.0089993364682 C 147.0000001352344,395.15169984478325 146.99999896080706,396.29440089630566 147.00000558621744,397.437098717092 C 146.9999756883392,398.57981166608386 147.0000859319857,399.72246656744585 146.99978899063757,400.86529012777095 C 146.99993999187015,402.0079281470464 147.00504814972362,403.14851287627454 146.96104097284123,404.30944153160584 C 147.27164265095902,405.32348845410405 148.04693452461348,406.14504900086865 147.98361527346577,407.3139932488319 C 148.00033572085425,408.4496811833073 148.01737806434383,409.58570709727144 147.93657289442106,410.7604893916929 C 148.66320524361754,411.6104656785016 149.0110307068969,412.58465182704185 149.37092917526385,413.693551967656 C 150.50289789379852,413.9791811200448 151.44430571880415,414.4081036834267 152.32122148700427,415.0695222900248 C 153.5002861471599,414.9782163048195 154.62547488978572,415.02135304698567 155.80058935143666,414.94292462244283 C 156.6374163090109,415.6814104509971 157.6288479247201,416.04658752675107 158.79385178014405,415.99274570571134 C 159.93332028110675,416.0005481516662 161.07619271089595,416.0001332573167 162.21898041419382,415.9999228990919 C 163.3616389256292,416.0000244197441 164.50435212424316,415.9999939214319 165.647049657049,416.0000012415595 C 166.78975081673298,415.99999980613063 167.93245129535944,416.0000000148257 169.07515186512785,416.0000000034971 C 170.21785243249866,415.9999999979568 171.36055299645932,416.0000000006488 172.50325356187068,415.9999999998382 C 173.64595412686577,416.0000000000332 174.78865469195733,415.9999999999948 175.9313552570307,416.00000000000034 C 177.07405582210657,416.0 178.21675638718241,415.9999999999999 179.3594569522581,416.0 C 180.50215751733384,416.0 181.64485808240954,415.99999999999994 182.78755864748533,416.0 C 183.93025921256108,416.0 185.0729597776367,416.0 186.21566034271254,415.99999999999994 C 187.35836090778818,416.0 188.50106147286385,416.00000000000006 189.6437620379397,416.00000000000006 C 190.78646260301534,415.99999999999994 191.92916316809107,416.0 193.07186373316682,415.99999999999994 C 194.21456429824255,416.0 195.35726486331828,415.99999999999994 196.49996542839398,415.99999999999994 C 197.64266599346976,416.0 198.7853665585455,416.0 199.92806712362113,416.0 C 201.07076768869695,415.9999999999999 202.21346825377267,416.00000000000006 203.35616881884837,415.99999999999994 C 204.49886938392407,415.99999999999994 205.64156994899986,415.99999999999994 206.78427051407564,415.99999999999994 C 207.9269710791513,416.00000000000006 209.06967164422704,416.0 210.2123722093027,416.0 C 211.35507277437844,415.99999999999994 212.49777333945417,415.99999999999994 213.64047390452998,415.99999999999994 C 214.78317446960568,416.0 215.9258750346814,416.00000000000006 217.0685755997572,415.99999999999983 C 218.21127616483292,416.00000000000006 219.3539767299086,415.99999999999994 220.49667729498435,415.9999999999999 C 221.6393778600601,416.00000000000006 222.78207842513586,416.0 223.92477899021154,416.0 C 225.06747955528732,415.9999999999999 226.21018012036302,416.00000000000006 227.3528806854387,415.99999999999994 C 228.49558125051445,415.99999999999994 229.63828181559023,416.0000000000001 230.78098238066585,415.9999999999999 C 231.9236829457417,416.0 233.0663835108173,415.9999999999999 234.20908407589314,416.0 C 235.3517846409688,416.0 236.4944852060445,415.99999999999994 237.63718577112047,416.00000000000006 C 238.77988633619603,416.0 239.92258690127196,416.00000000000017 241.06528746634746,415.99999999999994 C 242.20798803142327,416.00000000000006 243.35068859649888,415.99999999999994 244.49338916157464,416.0 C 245.63608972665048,416.0 246.77879029172618,416.0 247.921490856802,416.0000000000001 C 249.06419142187755,415.9999999999999 250.20689198695334,416.0 251.34959255202907,416.00000000000006 C 252.4922931171048,416.0 253.63499368218066,416.00000000000006 254.7776942472562,416.0 C 255.9203948123321,416.0000000000001 257.06309537740776,415.99999999999994 258.2057959424835,416.00000000000006 C 259.3484965075591,416.0000000000001 260.49119707263486,415.99999999999994 261.6338976377108,416.0 C 262.7765982027864,415.99999999999994 263.91929876786224,416.00000000000006 265.0619993329378,415.99999999999994 C 266.20469989801364,416.0000000000001 267.34740046308923,416.0 268.4901010281652,415.99999999999994 C 269.6328015932409,416.0 270.7755021583165,415.99999999999994 271.91820272339226,416.0 C 273.0609032884679,415.9999999999999 274.20360385354377,416.0000000000001 275.34630441861947,416.00000000000006 C 276.48900498369517,415.9999999999999 277.631705548771,416.0 278.7744061138466,415.9999999999999 C 279.91710667892244,416.0 281.059807243998,415.99999999999994 282.20250780907384,416.0 C 283.3452083741494,416.00000000000006 284.48790893922524,416.0 285.63060950430093,415.9999999999999 C 286.7733100693768,416.0000000000001 287.9160106344523,415.99999999999983 289.05871119952815,416.0 C 290.20141176460373,416.00000000000006 291.34411232967955,415.99999999999994 292.4868128947554,415.99999999999994 C 293.62951345983106,415.9999999999999 294.77221402490693,416.00000000000006 295.91491458998246,415.9999999999998 C 297.0576151550582,416.0 298.2003157201338,415.9999999999999 299.3430162852098,415.99999999999994 C 300.4857168502856,416.0 301.6284174153612,415.99999999999994 302.771117980437,416.0000000000001 C 303.9138185455125,415.9999999999999 305.05651911058845,416.00000000000006 306.19921967566404,416.0 C 307.34192024073997,416.00000000000006 308.4846208058156,416.0 309.62732137089125,415.99999999999994 C 310.77002193596707,416.0 311.91272250104265,415.9999999999998 313.0554230661185,416.0 C 314.1981236311941,416.0 315.3408241962701,415.99999999999994 316.4835247613458,416.00000000000006 C 317.62622532642143,415.99999999999994 318.76892589149725,416.0000000000001 319.91162645657283,415.9999999999999 C 321.05432702164865,416.0000000000001 322.19702758672423,416.0 323.33972815180016,416.00000000000006 C 324.48242871687586,416.0 325.6251292819515,415.99999999999994 326.7678298470274,416.00000000000006 C 327.91053041210296,415.9999999999999 329.0532309771788,416.0000000000001 330.19593154225447,416.0 C 331.3386321073303,415.99999999999994 332.481332672406,415.99999999999994 333.6240332374817,416.00000000000006 C 334.7667338025575,416.0000000000001 335.9094343676331,415.99999999999983 337.0521349327088,416.00000000000006 C 338.1948354977845,415.99999999999955 339.3375360628613,416.0000000000023 340.4802366279314,415.9999999999886 C 341.62293719303113,416.0000000000469 342.76563775802407,415.9999999998467 343.90833832328696,416.0000000002988 C 345.0510388885671,416.00000000079257 346.1937394480122,415.99999998719636 347.336440053884,416.0000000857018 C 348.479140405307,415.9999995698202 349.6218418808306,416.0000017681702 350.7645393192575,415.9999942186251 C 351.90724698324806,416.00001135952664 353.0499549136706,416.00002914375034 354.1924451000051,415.9995211673221 C 355.33667550067486,416.00321507867375 356.4713496491825,415.9838346489148 357.64830460816233,416.06654464401225 C 358.5353311578181,415.44922304380435 359.4680620997139,414.94251087852984 360.6325645541766,414.9944645844029 C 361.80007846777244,415.0566294443629 362.63610173846723,414.3021522553976 363.6345967316344,413.99601464051193 C 364.6894531405517,413.5806796146478 365.05601397878183,412.48824516238244 364.9261917582604,411.31024102692805 C 365.58864219469814,410.43712843431075 366.0583197338668,409.4908386447147 365.9886104155892,408.3189301781243 C 366.0016389799557,407.18168852491715 365.99991934421655,406.0382674399375 365.99995413313945,404.89558145126927 C 366.0000216880139,403.75290919139246 365.9999935177577,402.61019682310166 366.00000155214747,401.4674996244003 C 365.9999996963449,400.32479828175155 366.00000004384316,399.1820978622759 365.9999999977921,398.039397277905 C 365.9999999987915,396.8966967132483 366.000000000575,395.7539961489195 365.9999999998278,394.6112955835308 C 366.0000000000414,393.46859501854453 365.999999999992,392.32589445344814 366.000000000001,391.1831938883762 C 366.0,390.04049332330004 365.9999999999999,388.8977927582243 366.0,387.7550921931484 C 366.0,386.61239162807277 366.00000000000006,385.4696910629971 366.00000000000017,384.32699049792143 C 366.0,383.1842899328456 366.0000000000001,382.04158936777 365.99999999999983,380.89888880269433 C 366.0000000000019,379.75618823761766 365.99999999999,378.61348767254697 366.0000000000472,377.4707871074472 C 365.99999999981935,376.3280865424671 366.0000000005256,375.1853859770955 365.9999999994053,374.04268541248905 C 365.99999999357226,372.8999848498554 366.00000006398255,371.7572842552989 365.9999996201384,370.6145838760605 C 366.00000177475226,369.47188240884884 365.9999931943711,368.32918543637516 366.00001985087954,367.18647371023013 C 365.99997708244854,366.0437910522793 365.99976102665903,364.9011809496746 366.0023961899308,363.75737704280834 C 365.98574034727704,362.6216502722806 366.06672532950654,361.445041328068 365.5136182618282,360.5334500366578 C 364.97476093409347,359.6085285115776 364.73514074103207,358.58922234243613 363.8027413149173,357.77335312941915 C 363.00189436201174,357.0004011691022 361.8819359398807,356.9433276290797 361.1037277969189,356.0649755903992 C 359.9876991692017,356.00126524147794 358.8469542150766,355.9965945634397 357.7022887722565,356.0012873746037 C 356.5602750204989,355.9996470208176 355.4173929155456,356.0000806241066 354.2747345751719,355.999979692307 C 353.13201864704644,356.0000166102286 351.9893225363343,356.0000058744866 350.8467775945535,355.99963016792304 C 349.7027543943405,356.0028232902643 348.56749139095535,355.98486742843176 347.39130521076027,356.0657088544713 C 346.489051997763,355.48521759608184 345.5740460290208,354.9355142135222 344.3987626879143,355.01417599331717 C 343.26296283182654,354.9975162080881 342.1191177271837,355.00027937103334 340.9765278653735,355.0000121097087 C 339.83383957879596,354.9999824667916 338.6911291096901,355.0000063772359 337.5484318964567,354.9999982851726 C 336.4057304646932,355.00000037754165 335.2630300834594,354.9999999337083 334.1203294878183,355.0000000074991 C 332.97762892572155,355.00000000030735 331.8349283609653,354.99999999953616 330.69222779562733,355.0000000001693 C 329.5495272306407,354.99999999995447 328.4068266655418,355.0000000000101 327.26412610047106,354.9999999999983 C 326.1214255353944,355.0000000000003 324.9787249703187,355.0000000000001 323.83602440524305,355.0 C 322.6933238401673,355.00000000000006 321.5506232750916,355.00000000000006 320.4079227100159,355.00000000000006 C 319.2652221449402,355.0000000000001 318.1225215798644,355.00000000000006 316.9798210147888,355.0 C 315.83712044971287,354.99999999999994 314.69441988463734,355.00000000000006 313.5517193195615,355.0 C 312.4090187544858,355.00000000000006 311.26631818940996,354.9999999999999 310.1236176243343,355.0000000000001 C 308.98091705925856,354.99999999999994 307.8382164941828,355.0000000000001 306.6955159291072,355.00000000000006 C 305.55281536403146,355.00000000000006 304.41011479895576,355.0000000000001 303.2674142338799,355.0 C 302.1247136688043,355.00000000000017 300.9820131037285,354.99999999999994 299.8393125386528,355.00000000000017 C 298.69661197357703,355.00000000000006 297.55391140850134,355.00000000000006 296.41121084342575,355.00000000000006 C 295.26851027834977,354.99999999999994 294.12580971327407,355.00000000000017 292.98310914819837,355.00000000000006 C 291.8404085831228,355.0000000000001 290.6977080180469,355.00000000000006 289.5550074529712,355.00000000000006 C 288.41230688789545,355.0000000000001 287.2696063228197,355.00000000000006 286.12690575774405,355.0000000000002 C 284.9842051926683,355.0 283.84150462759266,354.9999999999999 282.698804062516,355.00000000000205 C 281.55610349744563,354.99999999998937 280.41340293234595,355.00000000004644 279.2707023673572,354.99999999983845 C 278.1280018020526,355.00000000038557 276.9853012370485,355.0000000002143 275.8426006762735,354.9999999899359 C 274.69990007531175,355.00000007570173 273.5571997105203,354.99999959703354 272.4144982486745,355.0000017402626 C 271.271800960401,354.9999939088923 270.1290917389094,355.0000145972315 268.9863941657232,355.00000744678664 C 267.84385396677965,354.99962418090263 266.699808541838,355.0028383190664 265.56462917923216,354.9848630753185 C 264.3882019836163,355.0654677934042 263.4880202251337,354.48449538785974 262.5691293930032,353.9315125977893 C 261.4037202692463,354.0309013790505 260.23323106965717,353.9401592945459 259.3974393919863,354.6301286693542 C 258.380153794587,355.10493186736613 257.4693414127585,354.5308247196265 256.5334024172212,353.6321793640999 C 256.0691322439045,352.8652491328866 256.97426393285133,352.0520943608425 257.0134803154736,350.9153985177241 C 257.8069804222265,350.04934707245945 258.9594302108911,350.0087557773464 259.7937271594937,349.2763908473063 C 260.57467813977917,348.39049858323494 261.3946565549307,347.61690032526377 262.1989504506507,346.798260149692 C 263.0077142084536,345.9923626122158 263.81651521692413,345.1862882378401 264.6200822987152,344.36749310634684 C 265.4430338854984,343.5955773444085 266.2159614318249,342.7028577726096 267.06290385283467,341.9888361801988 C 268.18182750841714,341.9314334499272 268.96031956259606,341.05215640092746 269.7584335802186,340.2202509106523 C 270.5756893742308,339.4345577062645 271.37973710246456,338.61697744503573 272.1889107675863,337.8117722766973 C 272.99672336605795,337.00328120636846 273.8047071142403,336.1952033275424 274.61275890769934,335.3872897243674 C 275.4207510628713,334.57923214178754 276.2287684485473,333.77123547096693 277.036778546787,332.9632212067378 C 277.8447898326336,332.155209809642 278.6528013222434,331.34719890447354 279.46081254951457,330.5391873659644 C 280.26882389906143,329.7311761226547 281.0768352104092,328.9231647871237 281.8848465291749,328.11515346950216 C 282.6928578482965,327.3071421527391 283.5008691663013,326.4991308332797 284.308880484889,325.6911195152281 C 285.11689180328034,324.883108196702 285.9249031217151,324.075096878281 286.7329144401468,323.26708555985573 C 287.54092575858317,322.45907424142337 288.34893707699274,321.6510629229854 289.1569483954646,320.8430516045712 C 289.9649597138864,320.035040286137 290.77297103202693,319.22702896758614 291.58098235190994,318.4190176497569 C 292.38899366573855,317.61100632941964 293.19700499393474,316.8029950150339 294.0050163055315,315.99498369377255 C 294.8130275768272,315.18697235581783 295.6210391732659,314.37896115254165 296.4290495404584,313.5709494400952 C 297.2370630863991,312.7629390443292 298.0450719860378,311.954926724002 298.85307634011156,311.1469125208402 C 299.66113980820796,310.3389228035083 300.4689575192917,309.53083129028863 301.27746340534065,308.72302482847294 C 302.08477810349314,307.9147249604752 302.89193900092204,307.1063613861316 303.70949790465176,306.30230480701954 C 304.4786977470218,305.4782172488288 305.3940911643193,304.71468505210487 306.01929099636175,303.83095073665453 C 306.12240723900015,302.7309623177805 307.0402121498848,301.96842899440577 307.85180760537077,301.1619022741528 C 308.64409148444616,300.34737643703966 309.46024285572656,299.5427368388976 310.2659025509677,298.7337514462482 C 311.07391986721115,297.9257426121929 311.8809079831143,297.11730746939827 312.69858561058476,296.3133000672697 C 313.4680993616732,295.4893425343272 314.3804647193809,294.72455607425354 315.0187609938187,293.8462464828622 C 315.1143449974118,292.7431381084206 316.02727063387994,291.9785837234082 316.8399223595887,291.172494524607 C 317.6415381605149,290.3618340960872 318.42146763184485,289.5421908957308 319.3159161954231,288.76998305653444 C 320.01380996107866,287.91635955428893 320.07770447631293,286.80012496398456 320.96619076622744,286.0254474701739 C 321.80142939106076,285.22871407132214 322.54897206259085,284.3956558192466 323.4930287090548,283.64399632078465 C 324.01765436536397,282.71860281772115 324.1869882816166,281.64604265732703 325.13228652460333,280.8948974449839 C 325.9289958529089,280.0822046889615 326.69485793428646,279.25673458489973 327.6536109604848,278.51116252624143 C 328.0057285982712,277.5143138622877 328.30158035820847,276.4941591086299 329.3436925445525,275.7831155446522 C 330.01104146613847,274.9168399537325 330.08161203700126,273.8033706762125 330.9666362487507,273.02725914267205 C 331.7657808962932,272.21557512890627 332.69832359905627,271.459146398807 333.00032114121836,270.44153731149817 C 333.35444091472704,269.4455179593143 334.4063761219642,268.738543223814 335.0168856860104,267.84872400012466 C 335.1011556699124,266.74092920528193 336.0288832996218,265.98250600662016 336.932567448394,265.21412367206756 C 336.9746559785711,264.0888567470115 337.7866280675632,263.2824860334647 337.99468436651244,262.225965209151 C 338.5220069824712,261.3016888233514 339.6000906736102,260.60554514451866 339.9914161428301,259.62493689609585 C 340.3299893199069,258.62247793282097 341.0399399430153,257.7738485444521 341.134341718105,256.67025047493064 C 342.112895475805,255.93288014780532 342.96437684989246,255.14287471598482 342.99507902782557,254.01289140940332 C 343.85788943324013,253.22757861600684 343.97403741735496,252.13298812119382 344.7544426317577,251.31354198007054 C 344.9793483987015,250.26400043391885 345.6097556602931,249.38242310641286 346.0761662236754,248.43291612232403 C 345.9244611875,247.22737727378419 346.6867918914117,246.40044442528222 346.97942386696286,245.37895599326373 C 347.5460763232412,244.4709705607305 348.00236190515517,243.5172696719989 348.4244412899078,242.54940011248573 C 349.0239494865413,241.65502397320938 349.2870312207837,240.62129543046953 350.0694858467766,239.8026981834215 C 349.9320915015638,238.60308701716542 350.337436440287,237.6282858231481 351.0637797906266,236.7864465247226 C 350.94684080497126,235.5953082458184 351.2628279124745,234.58349382620534 352.2291029369359,233.84103748124394 C 352.9945073547584,233.0153778067306 352.9771576779932,231.86549077023597 353.15139051315884,230.79495980849674 C 353.99857627934153,230.00317507762318 353.9934838976759,228.8583651789968 353.96789895854465,227.70506698514032 C 354.2558775229942,226.68165104713233 355.05071667058763,225.868183636895 354.9427998189193,224.68078244824966 C 355.28210625951624,223.67862721266968 356.0449215559034,222.85189508894317 355.99411356997865,221.68814916702044 C 355.94703024907335,220.52594605186414 356.4007847394778,219.57119675070174 357.0662116214581,218.70412502490993 C 356.9785401154521,217.5251097330128 357.021542143936,216.4002211913447 356.9395391522812,215.22355387497046 C 357.66229263334577,214.38022760400384 358.04482170606457,213.39597576885026 358.0072659222017,212.237719088753 C 357.9705417763044,211.07980688438005 358.78367137672,210.27391562776367 359.02891764358304,209.23279939254368 C 358.9975447416402,208.0771037459928 358.9995641038341,206.93523962812577 359.00031815799673,205.79285140249462 C 358.9996692971996,204.64988207059042 359.0011997703328,203.5078154476602 358.9952486138711,202.3626498353059 C 359.01508518787523,201.2281658400457 358.9732525943152,200.06813766459797 359.79424601563204,199.26550354625218 C 360.0269508075222,198.2191929414561 359.99798947062783,197.0644953716787 359.9994990314286,195.92241782030524 C 360.0002493315134,194.78006360716887 360.0001561949901,193.63708664369065 359.9988284139792,192.495030480006 C 360.0047273121264,191.34986388318688 359.9853905987255,190.21517728100372 360.02296567298725,189.0569119593024 C 359.1962816576794,188.25663525125617 358.9748698637733,187.20564636851046 359.00159134130854,186.05187741603868 C 359.0005777264222,184.90959670357685 358.9996605967971,183.7672760256715 359.00034655069726,182.62429132934736 C 358.99876897103746,181.48224421911556 359.0047066778233,180.33708417537085 358.9859258301635,179.20216289210651 C 359.0189566600693,178.04578050930772 358.18740214475815,177.2475211023262 357.9757007597827,176.19251012208062 C 358.00221849689433,175.0388255506498 358.0129762954666,173.89166895950424 357.86815870819777,172.80895380314536 C 357.0105547917489,172.0214844114071 357.01086290671424,170.87865622093392 356.98641929133305,169.74608053286238 C 357.05421173600047,168.57529941777912 356.63704406777487,167.605395358666 355.94095665134034,166.75102364207484 C 356.0033487100369,165.58247944010247 356.05951813662085,164.41651273674503 355.5136278190448,163.4999273447773 C 354.9187853588001,162.60361859421036 355.07996409521024,161.39415561054736 354.49337541923256,160.49442803059625 C 353.9190295863424,159.58962929899607 354.0856295300365,158.37792077775163 353.44659448114436,157.49991719675876 C 352.9995123166317,156.54240412771904 352.5965597112029,155.56661199680576 351.9740191228666,154.68177618654667 C 351.73398172996696,153.63850236508654 350.93483290366146,152.82682008222116 351.06844161174746,151.628776978205 C 350.6606426208087,150.6549922858984 349.9770237949636,149.79545590998114 349.8000808382161,148.72604751735653 C 348.9812403182774,147.92252180106013 348.8923544871697,146.81663895273195 348.01438505758205,146.0376052327405 C 347.9627312041346,144.91630039431166 347.0744968745379,144.14151853511999 347.00791693412975,143.02639628434332 C 346.157115690536,142.23610913324825 346.02569002179536,141.14784686260867 345.26387726372263,140.32069947391565 C 345.0059436778903,139.28483849828314 344.48888718528633,138.35630974495712 343.57822383436854,137.59081829058724 C 342.7353652506905,136.79724118203438 341.99189122829216,135.9624976403074 341.95007053351634,134.83711977419978 C 341.08556842387645,134.05250770763908 340.12958030532747,133.30579038666684 340.0220649693275,132.20762413211722 C 339.42729354151,131.311285957894 338.50655489413913,130.5499678320779 337.73716227499904,129.72596011417411 C 336.9203130661648,128.9216095840661 336.112746273358,128.1134141573034 335.3055816096951,127.30505193434267 C 334.49704349436826,126.49725965765525 333.68922805612294,125.68916492020081 332.88116557461836,124.88117855180928 C 332.07315858263337,124.07316698855112 331.26516905898745,123.26510940042006 330.4570726862546,122.45729860298516 C 329.649306136747,121.64869829416119 328.84083131072845,120.84180544783223 328.03293180530005,120.03352426641226 C 327.22811470229345,119.21780145085066 326.40401350500906,118.44863451465822 325.6471746517424,117.5170819461637 C 324.72740575754875,116.97887728023018 323.64466820159544,116.83411377087808 322.9085803548604,115.85246383144728 C 322.10675372895435,115.0295213444611 320.97822644401793,114.99530401933089 320.1492522440537,114.23790157380401 C 319.425171585509,113.22726371797934 318.37237021478205,113.01022786373538 317.4017739981207,112.59473121165037 C 316.7003740169528,111.52933735689612 315.7794418191629,110.9939411568894 314.7208769261216,110.79081967638528 C 313.91588969254695,109.97550757128062 312.78973688798277,109.93555774342705 312.02034482948835,109.03431128388951 C 311.2672206756017,108.09379062841593 310.1484111895219,108.0361124614837 309.3302423839198,107.25262348634251 C 308.2812665809242,107.02635189459849 307.41064662828984,106.36949118998376 306.41627495984795,106.01139355603857 C 305.49094617537327,105.48661165523416 304.55280241038355,104.99276785419065 303.5711754678142,104.60390173019508 C 302.6881595849725,103.9769674484051 301.6529556242563,103.71744768825128 300.81977896049995,102.97019088780728 C 299.734807702164,102.83082001253015 298.945839783197,101.97683386084016 297.79002083102876,102.00850444887539 C 296.6341805705545,102.04022647971185 295.63628296955204,101.69064119997422 294.80652111566076,100.93514031924163 C 293.609264966225,101.06684915090699 292.6339832478931,100.66266430050102 291.7883090933619,99.94557911178168 C 290.62127919713777,100.0043153130029 289.45659485974494,100.05738883428343 288.525122374988,99.54743913802373 C 287.64280341213936,98.9188223425346 286.43307406484416,99.08064413763837 285.5228937910322,98.51929049694229 C 284.6219886879411,97.93554461329873 283.44681247322694,98.01394776710256 282.3091770192443,98.0017195072067 C 281.17230154280907,97.98765649920907 280.0207117994529,98.00911687397173 279.227194806162,97.16611315921111 C 278.16126187717884,96.98077969100552 277.01047440697545,97.00030320704177 275.8675433259131,97.00085972186315 C 274.7256212290085,96.99898033344647 273.58084584235485,97.00398939583957 272.4470238995378,96.9825545055674 C 271.270746794128,97.06361544461944 270.410835985795,96.38090057859085 269.4487656051541,95.94482073755434 C 268.2790406681009,96.010063342897 267.14102688267764,95.99874845589629 265.9978097261127,95.99999561807589 C 264.8550826796229,96.0000595498647 263.7124164331283,95.99997669748079 262.5697035308135,96.00000648221058 C 261.42700625932184,95.99999853079495 260.28430497447454,96.00000026847717 259.1416045345005,95.99999996645525 C 257.9989039555543,95.99999999994166 256.85620338980243,96.00000000157381 255.71350282563486,95.99999999938161 C 254.57080226023155,96.00000000017235 253.4281016952433,95.99999999996082 252.2854011301483,96.00000000000738 C 251.14270056507624,95.99999999999851 250.0,96.0 249.0000000000001,95.00000000000003 " fill="none" stroke="black" /></svg>