<?xml version="1.0" encoding="utf-8" ?>
<svg baseProfile="tiny" height="100%" version="1.2" width="100%" xmlns="http://www.w3.org/2000/svg" xmlns:ev="http://www.w3.org/2001/xml-events" xmlns:xlink="http://www.w3.org/1999/xlink"><defs /><path d="M 239.00000000000009,95.00000000000004 C 238.25437287870008,95.937809875623 237.14883926005095,96.0067286041592 236.01191916368063,95.99987367250587 C 234.87777661516702,95.99972433455841 233.74387664499244,96.00016063252693 232.6096079943299,95.9997068570611 C 231.47614683531768,96.00120253888915 230.3396517489996,95.99537367226789 229.21339869090318,96.01427124908605 C 228.06322512284765,95.97541960634156 227.2645426244114,96.78514247092522 226.23771726793305,97.04407975346518 C 225.0723105598162,96.9684520573869 224.2772432478591,97.78690275419935 223.24377039636346,98.02979156411267 C 222.0960179479763,97.99678502130766 220.9630427941951,97.99945402355578 219.83170605794848,98.0060785156367 C 218.67820477458835,97.95919305747226 217.67499799813217,98.27515063622593 216.85955793388442,99.04441715815472 C 215.7042924893063,98.99327263805169 214.55254241204472,98.95061496540103 213.5907534082589,99.3665638926584 C 212.74955738794733,100.0736500361463 211.55479302340885,99.92714668777576 210.60566377820257,100.37365897589227 C 209.75488949114526,101.05762113789875 208.59549159035618,100.99649998596524 207.43867879993505,100.94161984254245 C 206.51920798119028,101.45973390606065 205.64294354676002,102.08215740857244 204.4397812283965,101.91537960618145 C 203.54374435569895,102.49006822006719 202.62667837770752,103.01398808274766 201.61483361368374,103.30909171476351 C 200.79144406744732,104.05916648946189 199.630354778263,103.9939619647255 198.4755525841593,103.94393583020046 C 197.54331810085324,104.43123568162947 196.67621597448255,105.07577895252135 195.48588127433626,104.9399697600033 C 194.5138103934077,105.33109604001605 193.78433498042088,106.30789958890384 192.94415613556566,107.01744141117383 C 191.7882452896035,106.96473875429623 190.74902592911175,107.19375426425472 189.95684262078447,108.01916756174404 C 188.8022705976635,107.96969710912721 187.73757944862425,108.13721828171651 186.97559331013366,109.03553399617059 C 186.2008273482567,109.90299648768058 185.11480928968132,110.01902994602432 183.97800687766335,110.01245912953038 C 183.20640894013215,110.88756990838188 182.1086458914322,110.97524845227679 181.30409237588614,111.77079742772966 C 180.2538017621307,111.97308456790445 179.3983204175732,112.64568288786623 178.40656506527694,112.9892866501016 C 177.48561704187094,113.50383442624793 176.57047330144079,114.03239498049207 175.5274294318961,114.25217731070795 C 174.82365019352,115.291016908078 173.98412007674295,116.00212490220157 172.87681593146172,116.06676918165813 C 172.1063898592367,116.94470906279679 170.9954888725365,117.00066986135377 170.16341972732513,117.72978900577374 C 169.45678791209178,118.76174902873983 168.40790799627592,118.96742221236784 167.49645008661912,119.50497113089024 C 166.58059488344995,120.0315684785406 165.5347125247993,120.24557846342638 164.83080843352823,121.28142362632488 C 163.993920126012,122.00081240032543 162.89038738689905,122.06416016334258 162.1311367816443,122.94832117305685 C 161.0027143537846,122.99784204431775 160.97943333327788,124.14802222155834 160.15864352093655,124.97386323972866 C 159.01474501102712,124.99420053905565 158.22918667497507,125.84139953381128 157.17138518470261,125.99263172614509 C 156.16958170099406,126.56326752767616 156.01754474334066,127.7088637412591 155.53863628056675,128.62705184858066 C 154.5084230979329,129.34294709978283 153.95931619561307,130.24638745251534 154.0082368630701,131.40484352475508 C 154.01427490255497,132.5239671026118 153.93488037874758,133.6938633162686 154.58227988962028,134.55901128873347 C 155.05549155308537,135.49738427024695 155.00536582951085,136.65217249760116 154.94707738525594,137.81040808137388 C 155.68343458935226,138.6394769539302 156.04425580740522,139.62410183183243 156.0025407604505,140.7754612498149 C 155.98046465054358,141.91868619793706 156.66160428121933,142.7706296083081 157.66174526297152,143.49043834607642 C 158.03872177221774,144.46837025183063 158.00823796791363,145.615077748107 157.94314910802916,146.77611912725882 C 158.64729884684527,147.6185314462304 159.06466573959318,148.57973310947028 158.9482605978627,149.7620303886169 C 159.5228438597589,150.65811089953687 160.52755383700574,151.37602709142024 161.0414560491415,152.2972425161304 C 161.0044692056473,153.44664365904552 160.93239594704764,154.61057807095224 161.53403162528255,155.4954531041302 C 162.00489654084265,156.43449516076993 162.3761880306171,157.41478188082186 163.02872657104277,158.27857225811695 C 163.22975520388704,159.32938416267731 164.05140286936592,160.12312724685535 163.94505122644244,161.30126023044002 C 164.25797181819348,162.30572496813377 165.04299277653163,163.11463933109377 164.95887453123018,164.2835629401148 C 165.18363678716986,165.32454405442496 166.10935835995275,166.07517831770195 166.94110413935167,166.86473863015644 C 167.00450523534204,167.97255771808963 167.0512981661813,169.08725608099456 167.913014610576,169.86440188833714 C 168.00663714299773,170.95970342597738 168.03211387175108,172.08323407860115 168.8277115498656,172.88778180397242 C 169.81464188699817,173.61293694767403 169.96159284133478,174.68650875233268 170.58928116299103,175.55884110426842 C 171.014232318357,176.52192621094088 171.35065602430268,177.4939919128206 172.27632370775513,178.308482263769 C 173.08592363513006,179.02429296542797 174.23466761227496,178.99543346135295 175.38573793853723,178.95889266828863 C 176.35940271735922,179.30201619461897 177.20906488506776,180.08837249991439 178.27932935329036,179.7669187318045 C 179.06225586093282,178.97479883811516 180.22238586371373,179.03203558719244 181.28183957385045,178.85494615369032 C 182.03765489467406,177.94068179538522 182.80683347831285,177.05972230380652 183.92530833132608,177.0221321687485 C 184.7223133066223,176.20834178155735 185.77222921381133,176.00516146469687 186.6917514197151,175.48716880827632 C 187.38192101873673,174.41547403784665 188.34613772661638,174.00538567749132 189.3539729735237,173.70060230342224 C 190.18219682595824,172.9621985467161 191.28766188341618,172.89311430196452 192.03052155679123,171.94862321427004 C 192.7969817734923,171.0611088800713 193.91588546018224,171.02446835128495 194.71508351928773,170.21599016022876 C 195.76154503102444,170.00445875004687 196.6852147768024,169.49648179311453 197.374808823429,168.42339610867631 C 198.33581644855772,168.0055607664669 199.34410296681705,167.7018667692683 200.17651701505292,166.97357906969077 C 201.2503478951646,166.82812315981303 202.03699030426833,165.9893329482706 203.14413331220416,165.92429962917743 C 203.9122599809842,165.04080846622836 205.02601835120836,164.99174604449166 205.81164027709943,164.150492168537 C 206.87263216768355,163.9740401960149 208.0141257903327,163.99193659683831 208.7867876476066,163.119394347459 C 209.88067086683031,163.02234906662278 210.70401071951557,162.27215432107923 211.70226470969192,161.94423965851766 C 212.87898716746335,162.04718599088017 213.68695924544522,161.2598901552243 214.69293909321755,160.95062736285195 C 215.86253807885538,161.03637611217798 216.72793123540913,160.38770702317657 217.44790780104793,159.38797122819454 C 218.40410531882694,158.95852325958484 219.55257061248955,158.99325076312357 220.71519122922948,159.06215223960578 C 221.57549037406594,158.40118511847305 222.51885133826835,157.94074696799873 223.68358781519518,158.01475658326146 C 224.80690001201054,157.9887591379745 225.95118412781193,158.01339238750091 226.79204774500454,157.30550372548163 C 227.51603364750406,156.31544745836402 228.5022348538078,155.9584344497348 229.6570515778617,156.008496821969 C 230.7870561518525,155.9986524428119 231.9217279381999,156.0000874402974 233.05572847549033,155.99990585326418 C 234.1906228704436,156.0016085130307 235.31883868685077,155.989308525362 236.4837783320488,156.05403825674333 C 237.41696236272557,155.6230088768991 238.302827114204,154.88932517137772 239.34132760781623,155.30871830296368 C 240.14499620208662,156.04387397125086 241.30754739038264,155.9841535891396 242.4320035334799,156.0043422656914 C 243.56862861377854,155.99900509354515 244.70214488569658,156.00018903536872 245.83632833317608,155.9999734793204 C 246.97039583253215,156.00000116496395 248.1044763245895,156.00000168721508 249.23856126111272,155.99999162010616 C 250.37261896792364,156.0000470323436 251.50681077960706,155.99977878462596 252.64043659450846,156.00087694668372 C 253.7760447268709,155.997189377394 254.9066579008911,156.00556070304958 256.0378979795616,156.01241854717523 C 256.85323662932797,156.781929905326 257.5858026443755,157.75127208076094 258.6018989463274,158.036111592381 C 259.75519965483664,157.9897103643448 260.88075443065924,158.01029374469317 262.0159466785168,158.0076102082077 C 262.7993638295299,158.85418690346853 263.8635854988804,159.02284143736597 265.0062506185324,159.0021168224044 C 265.83217220965145,159.74607747899174 266.54788681090037,160.75610975342607 267.5941517399745,160.96809594163184 C 268.5041586743966,161.5091485432076 269.424291384174,162.02541673714018 270.4535383822636,162.27959879653605 C 271.1970300748367,163.21983481295698 272.00588137081917,164.00698399744024 272.77653504526035,164.89755569899606 C 273.8581009054957,164.9864976785474 274.84313393714586,165.59854143920765 274.9832218681321,166.71784325946982 C 275.47336819300796,167.74629646465448 276.57028431352245,167.99512269780593 277.6440310749191,168.3475427468764 C 278.0004064425366,169.44066810828045 278.2833734759574,170.4341545876375 279.20968861065296,171.1930903784505 C 279.9986375826861,171.99887923142524 280.89485755634206,172.761550625962 280.98152857109477,173.85993491431404 C 281.62997033436636,174.72537615920783 282.50675971537885,175.49630907782557 283.34859345096345,176.28167962838816 C 284.0388879472179,177.1298336178047 283.94990680901265,178.3007711382305 284.2569977705842,179.30765073519166 C 285.0435734457173,180.11592106464994 284.958770366678,181.28512834732834 285.18348903987123,182.32612751314176 C 286.11191625955706,183.07564105872277 286.9459353286126,183.86425973969364 287.0018258175421,184.9751898318375 C 287.0020042135816,186.1091966284888 286.99690787742054,187.24538829075908 287.0136008265249,188.37255453554468 C 286.9374059623021,189.53819617244267 287.44748029772035,190.46099715536852 288.0661238882424,191.33882728122728 C 287.98347519388363,192.50714217975357 288.0034717684934,193.6329400274461 287.99941712281344,194.76870017552298 C 288.0000599437194,195.90251467571275 288.00000505354217,197.03661814153094 287.999993071329,198.17070192753764 C 288.0000166934139,199.30478703126477 287.9999215180559,200.4388300932589 288.0003375960662,201.57308265798991 C 287.99878141965365,202.70651886318632 288.0033008427796,203.84247154150762 287.9975216957586,204.9741584334952 C 287.9498297788424,206.08848448541394 287.08460602167213,206.8641777613707 286.9959380807699,207.96153098836228 C 286.9977840222,209.09637629304927 287.0004845748707,210.23157558930373 287.00336325666996,211.36684866905625 C 286.9824506160692,212.492267060405 287.07056235661935,213.66284482905547 286.42119082062896,214.5279470225395 C 285.9986136476756,215.48699051706342 285.5987644807577,216.45544825993284 284.9333497590379,217.3139051483041 C 285.00227818813903,218.47653692918118 285.0611559337479,219.63500558064473 284.4753190875105,220.5264247043056 C 283.9240502319031,221.43216235850952 284.0610031078093,222.62297078782623 283.5881849268763,223.56120377545759 C 282.5987340147504,224.28544047906297 281.959989433008,225.15494450112334 282.052575201551,226.32737547284697 C 281.72337457024497,227.3250967973286 280.95047209681894,228.13903080115412 281.04352554535035,229.31165549227177 C 280.8055738880784,230.34717337935106 279.85908843625947,231.08920695932912 279.0299500331236,231.87984727837625 C 278.999499122976,233.00131478911683 278.1462271040949,233.7819586372132 278.0085460716718,234.85900997701233 C 277.4104499648038,235.74535114865552 276.34701600347717,236.43894306989625 276.0156305810307,237.4357594242565 C 275.62757548804666,238.40910243250485 274.9597475007918,239.26655971356195 274.8479127891507,240.35431694996657 C 273.8642256529198,241.08094108771806 273.03141996324626,241.8700623669443 273.0028961157617,242.99232809317544 C 272.15078692945787,243.77345360229592 272.01315180785576,244.85052395897995 271.37930632422183,245.72205725392024 C 270.5032975157001,246.49328321538258 269.6403898722348,247.26993585709405 268.9817461442112,248.13119738288523 C 268.89962541234536,249.23126255270432 268.0058992496412,249.99514974577522 267.21611716400736,250.8020919853007 C 266.2896293138665,251.55240884308725 266.0003239483252,252.5666553277817 265.64663900962074,253.55423491980804 C 264.60065492597005,254.25505481782994 263.985384731704,255.13428224836787 263.9002610264962,256.23310355117275 C 263.0048560347631,256.9962953461577 262.18261188026577,257.7897913154018 261.4392039587295,258.6159425916171 C 260.50019009674145,259.36107025811907 259.98251081979976,260.2807227151064 259.8176974622584,261.3465288711725 C 258.88365044938564,262.09372700505145 258.09176115840233,262.89980774200467 257.30308536919114,263.7070554096736 C 256.4839930639507,264.5024833982123 255.71168527210625,265.3149626178017 254.8668830542985,266.1017872387019 C 254.0371766413389,266.8939563528671 253.99872389832447,268.00981769724257 253.29691078907612,268.9323983863862 C 252.07529959793385,268.95409630628205 252.00034597877507,269.99729601307166 251.2534436947858,270.832744543549 C 250.36840404548724,271.58409538450286 249.60775534268095,272.4107324591241 248.78845739201103,273.2030197322186 C 247.9926685084656,274.0079644580314 247.21614384469194,274.8208440150755 246.26593155835883,275.5588968446457 C 246.01220322879942,276.5943980661562 245.58234000646948,277.52068860310044 244.71157116827686,278.383959302594 C 243.82682829292236,279.0062752722309 242.9400040455325,279.2085667801006 242.83326640532854,280.38354723671364 C 241.87737302666682,281.0922319955389 241.0880381428558,281.90176594790995 240.29836439270403,282.7110947207299 C 239.48807642313994,283.50794182814366 238.68934235874286,284.3117846881273 237.88661954906505,285.11321241014286 C 237.0847789626855,285.91517430790395 236.2829212622252,286.717125843292 235.48096314760082,287.5190165790946 C 234.67906327296487,288.3209425785195 233.87714290705875,289.12285617072325 233.0752272030395,289.9247725856443 C 232.27331133373323,290.726688900486 231.47139497679464,291.5286049200721 230.66947891311912,292.33052111722543 C 229.86756274427188,293.13243725069856 229.0656466000054,293.934353399055 228.26373045450083,294.7362695466619 C 227.46181430663603,295.53818569283976 226.6598981602464,296.3401018399107 225.8579820133175,297.1420179866552 C 225.05606586651797,297.94393413347797 224.25414971971009,298.7458502802957 223.45223357289078,299.5477664271064 C 222.65031742607917,300.3496825739223 221.84840127926392,301.15159872073485 221.0464851324502,301.9535148675492 C 220.24456898564011,302.75543101437 219.4426528388066,303.5573471611517 218.64073669205143,304.35926330806274 C 217.83882054512566,305.1611794546926 217.03690439833485,305.96309560154475 216.23498825229686,306.76501174963875 C 215.43307210168052,307.56692789018143 214.6311559665002,308.368844056183 213.8292397969272,309.17076016546054 C 213.02732365766477,309.97267632472955 212.2254076563186,310.77459271146427 211.42349077203247,311.57650764196256 C 210.62157692399666,312.37842758016063 209.8196561506664,313.180336096443 209.01774207880447,313.98225566548376 C 208.21585310780551,314.78421663347757 207.41379406971652,315.5858971091429 206.6123317286537,316.3885617195893 C 205.8094771061921,317.1889300347814 205.00808492556638,317.9917103611159 204.21122691763836,318.8019689165325 C 203.38165293713314,319.5582688881251 202.66924076342963,320.50780429413345 201.6775681794359,320.9917227632934 C 200.95160412069126,321.33767355904996 200.73327967442788,322.44608043227146 199.81159606437427,323.2252242492266 C 199.01016164352495,323.9984635063822 197.95811555032583,324.07189811191154 197.9194670189441,325.2367424233775 C 197.0178105286214,325.98375843493886 196.24082704258916,326.87815594617484 195.1622098284713,326.9822666912117 C 194.28336261424934,327.6052480670195 193.52833156208385,328.51614626342166 192.7094116178873,329.2785176549211 C 191.91160679943917,330.0900231091162 191.1095207120142,330.8915836973217 190.30633984236087,331.6901156874083 C 189.50822746252805,332.50264394354144 188.69675819363292,333.2776572615395 187.90898023349595,334.11944167030526 C 187.1201154380941,334.9581718364945 186.00697622683992,334.99886422923225 185.09091847090764,335.7201101425763 C 185.01669114625295,336.8481274369729 184.41331511564448,337.8294234798548 183.29807527976405,337.9847219606919 C 182.2640871875223,338.4598634260129 182.00362632959164,339.55488333306204 181.66393103521705,340.63141472111573 C 180.57586753938222,341.0030439392711 179.57409828997487,341.2658207085563 178.82271186485747,342.2102642411975 C 178.0123841730507,342.98845384829417 177.20902483141793,343.7862929026197 176.40891294943646,344.59333241715376 C 175.60640185571145,345.3934606789485 174.8041803136081,346.1947458859711 174.00256981518092,346.99738138846465 C 173.2035516402914,347.80629129899177 172.38537547661878,348.5689560749416 171.63668718693827,349.4993739070979 C 170.71731489613117,350.0177262724 169.6519120126763,350.18352937136365 168.90486412676876,351.11790867662666 C 168.0985996940055,351.909326623883 167.29223320527916,352.7005056998783 166.49336355291013,353.5097479029824 C 165.69020693484228,354.3087478151143 164.88873808482703,355.1116196821454 164.0868961395655,355.9136368883932 C 163.28324244035866,356.7126919888287 162.4885798003584,357.52649460126963 161.66656406985305,358.29550112628783 C 160.89770900420547,359.1515428444353 160.11019980781538,359.97704453594906 158.98905993987088,360.0112429332648 C 158.9690041735364,361.17864392717894 158.12192022868226,361.9756604250163 156.9871054869474,362.0024781365606 C 156.08214022488107,362.73262605412657 156.02114091794914,363.8827713390909 155.33996615666118,364.6976494889534 C 154.54187746456614,365.6308006678403 153.4963628121956,365.970028944491 152.9711187219468,366.51009059216483 C 152.6206556472546,367.57670840620455 151.6813266724787,368.28993414513667 150.8755317310269,369.0981162795733 C 150.03540239159062,369.88352124096815 149.99920939667675,371.002330316977 149.164887579956,371.79086850150617 C 148.97305301414198,372.84543662622417 149.00278789587048,373.99183972799636 148.26216711419738,374.81914415225197 C 147.28528811188713,375.548589811422 146.96096360728228,376.5483303002362 147.00746029195247,377.70167065488874 C 146.99894295386096,378.832223329129 147.00004892685513,379.96676213138744 147.00003138525435,381.1008355560889 C 146.9999850950774,382.23489707267385 147.0000045606672,383.3689858263402 146.9999988643762,384.5030641575564 C 147.00000023768382,385.63714541711255 146.99999996033696,386.77122599294165 147.00000000400016,387.90530670173774 C 147.00000000036582,389.0393873909421 146.99999999965124,390.1734680813702 147.00000000022592,391.30754877221597 C 146.99999999940704,392.4416294631415 147.00000000242562,393.5757101526345 146.99999999130395,394.70979084794334 C 147.00000002334176,395.8438715253873 146.999999984164,396.9779522323221 146.99999963801577,398.1120330663807 C 147.00000322630441,399.24611227109364 146.99998135814255,400.3802020179399 147.00008700127535,401.5142389592696 C 146.9996585127687,402.6484970974509 147.0010773475256,403.78199021431675 146.99798181239714,404.91735284111434 C 146.99426713826207,406.05297186837333 147.09335520331538,407.1460175919517 147.9577361946123,407.9220649324296 C 147.99743957032558,409.039707583941 147.9807020529786,410.1803073443228 148.1787382782937,411.2356803473765 C 149.00798080567537,412.0224957431163 149.03504845659126,413.1661558271263 149.8759942560128,413.97731365586264 C 151.01207971686932,414.0052203498493 151.78563950927733,414.87072331987866 152.87816407871694,414.97774957077587 C 153.69927024182988,415.7318938877548 154.70633591001234,416.0393237298883 155.85877012433545,415.9948905208833 C 156.99070917216187,416.0000753599309 158.12473297387066,416.0002130861212 159.2589386302943,415.99991054870287 C 160.39297155428184,416.0000261901906 161.5270656746669,415.99999367743976 162.66114322537203,416.0000012792774 C 163.79522452783922,415.9999997982367 164.92930512831657,416.0000000166875 166.0633858245859,416.0000000032294 C 167.19746651748616,415.99999999792806 168.33154720705662,416.0000000006872 169.46562789812532,415.99999999982 C 170.59970858874496,416.00000000003973 171.73378927947465,415.9999999999929 172.86786997018174,416.00000000000097 C 174.00195066089245,416.0 175.13603135160272,415.9999999999999 176.27011204231323,416.0000000000001 C 177.40419273302354,415.99999999999994 178.53827342373395,415.99999999999994 179.6723541144443,415.99999999999983 C 180.8064348051547,416.00000000000017 181.940515495865,416.00000000000006 183.07459618657546,416.0 C 184.20867687728568,415.99999999999994 185.34275756799602,415.99999999999983 186.47683825870658,415.9999999999999 C 187.61091894941683,415.9999999999999 188.74499964012722,415.9999999999999 189.87908033083758,415.9999999999999 C 191.013161021548,416.0000000000002 192.14724171225825,416.0 193.28132240296873,416.0 C 194.4154030936791,415.99999999999994 195.5494837843894,415.9999999999999 196.68356447509987,415.9999999999999 C 197.8176451658102,416.0000000000001 198.95172585652057,416.0000000000001 200.0858065472311,416.0000000000001 C 201.21988723794124,415.9999999999999 202.3539679286516,415.9999999999999 203.48804861936208,416.0 C 204.62212931007235,415.99999999999994 205.75621000078272,415.99999999999994 206.8902906914932,415.99999999999994 C 208.02437138220358,416.00000000000017 209.15845207291386,416.0 210.29253276362434,416.00000000000006 C 211.42661345433456,415.99999999999994 212.56069414504503,415.99999999999994 213.6947748357554,415.99999999999994 C 214.82885552646562,415.99999999999994 215.9629362171762,415.99999999999994 217.09701690788646,415.9999999999999 C 218.23109759859685,416.0000000000001 219.3651782893072,416.0 220.4992589800176,415.99999999999994 C 221.63333967072793,416.0 222.7674203614383,415.9999999999999 223.90150105214866,415.99999999999983 C 225.0355817428591,416.0000000000002 226.16966243356939,416.00000000000006 227.30374312427975,416.0 C 228.4378238149901,415.99999999999994 229.57190450570056,415.99999999999994 230.70598519641092,416.0 C 231.84006588712123,415.9999999999999 232.97414657783165,416.0 234.1082272685421,416.0 C 235.2423079592524,416.0000000000001 236.37638864996268,416.00000000000006 237.51046934067318,416.0 C 238.64455003138337,416.00000000000006 239.77863072209388,416.0 240.91271141280416,416.0 C 242.04679210351452,415.99999999999983 243.18087279422494,416.0 244.31495348493542,416.0 C 245.4490341756456,415.99999999999983 246.58311486635597,415.99999999999983 247.71719555706636,415.9999999999999 C 248.85127624777675,416.00000000000006 249.9853569384872,416.0 251.1194376291974,415.99999999999994 C 252.25351831990793,416.00000000000006 253.38759901061832,415.9999999999999 254.52167970132865,416.0 C 255.65576039203899,415.99999999999994 256.78984108274926,415.99999999999983 257.92392177345977,416.0 C 259.0580024641701,415.99999999999994 260.19208315488044,415.99999999999994 261.3261638455908,416.0 C 262.46024453630116,415.9999999999999 263.5943252270116,416.0 264.7284059177221,415.9999999999999 C 265.8624866084324,415.99999999999994 266.9965672991426,415.9999999999997 268.13064798985295,415.99999999999994 C 269.2647286805635,416.0000000000001 270.3988093712739,416.0 271.53289006198406,416.0 C 272.66697075269457,415.99999999999994 273.8010514434048,415.9999999999999 274.93513213411535,416.0000000000001 C 276.0692128248258,415.99999999999994 277.20329351553585,416.0 278.3373742062465,416.00000000000006 C 279.4714548969567,415.9999999999999 280.60553558766713,416.00000000000006 281.73961627837764,416.0 C 282.8736969690877,415.9999999999999 284.00777765979814,415.9999999999999 285.14185835050847,416.00000000000006 C 286.2759390412191,416.0000000000001 287.4100197319293,415.9999999999999 288.54410042263964,416.0 C 289.6781811133501,416.0 290.8122618040604,416.0 291.9463424947709,415.99999999999994 C 293.0804231854811,415.99999999999994 294.2145038761915,415.9999999999999 295.348584566902,416.00000000000006 C 296.4826652576124,415.99999999999994 297.6167459483227,415.99999999999994 298.7508266390331,415.99999999999994 C 299.8849073297433,415.9999999999999 301.0189880204537,415.99999999999983 302.1530687111641,416.00000000000006 C 303.2871494018746,416.0000000000001 304.4212300925848,415.99999999999994 305.55531078329517,416.0 C 306.6893914740057,416.00000000000006 307.8234721647159,415.99999999999983 308.95755285542634,416.00000000000006 C 310.09163354613673,416.00000000000006 311.225714236847,415.99999999999994 312.3597949275576,416.00000000000006 C 313.4938756182678,415.9999999999999 314.6279563089781,416.0 315.7620369996886,415.9999999999999 C 316.8961176903989,415.99999999999994 318.0301983811093,415.9999999999999 319.16427907181964,415.99999999999994 C 320.29835976253014,416.00000000000017 321.43244045324036,415.99999999999994 322.56652114395075,416.0000000000001 C 323.70060183466126,416.00000000000006 324.8346825253715,415.9999999999999 325.9687632160818,416.00000000000006 C 327.10284390679226,415.9999999999999 328.2369245975026,416.0 329.3710052882131,416.0 C 330.5050859789235,415.99999999999994 331.63916666963377,416.00000000000006 332.77324736034416,415.99999999999994 C 333.9073280510544,415.99999999999994 335.04140874176494,416.0 336.17548943247516,415.9999999999999 C 337.30957012318544,415.99999999999983 338.4436508138958,415.9999999999998 339.57773150460645,416.0000000000003 C 340.71181219531644,415.9999999999991 341.84589288602785,416.00000000000233 342.97997357673677,415.99999999999847 C 344.1140542674317,415.9999999999609 345.2481349583,416.00000000034345 346.38221564805207,415.9999999980231 C 347.51629634337945,416.00000000920113 348.65037701541144,415.9999999639815 349.7844577677343,416.00000011314216 C 350.91853832552954,415.9999997913607 352.05261884179816,415.99999936904493 353.18670370468794,416.0000094697063 C 354.3207544555684,415.99993698670664 355.4549933071357,416.0003198871242 356.5883817821205,415.9986440635635 C 357.72499442988635,416.00477381926174 358.8520483640637,415.9877623534458 359.9926774426066,416.0036157098608 C 360.7684984757543,415.13769178748544 361.8553342243543,415.02659374937014 362.68406017111664,414.27048880580435 C 363.68091747946414,413.9961414788764 364.75380296837363,413.5618543493195 364.9708447279753,412.4194970580256 C 365.4668973820402,411.5131187006486 366.06868887744673,410.62029523302436 365.98371092023285,409.452477102845 C 366.0032285668368,408.3261451912587 365.99950923750237,407.1905878746987 366.00003458772323,406.05671575538565 C 366.00001010409915,404.92262534433354 365.9999943344611,403.78853839285597 366.0000018197517,402.6544606739108 C 365.99999953255957,401.520379075153 366.00000010097494,400.3862986101117 365.99999998231146,399.2522178722903 C 366.00000000205023,398.1181371894164 366.00000000006185,396.9840564979165 365.99999999987875,395.8499758071334 C 366.000000000046,394.71589511648955 365.99999999998704,393.5818144257557 366.000000000003,392.4477337350517 C 365.9999999999994,391.31365304433984 366.00000000000006,390.17957235362985 365.9999999999999,389.04549166291935 C 365.9999999999999,387.911410972209 365.9999999999999,386.7773302814985 366.0,385.64324959078834 C 365.99999999999994,384.509168900078 365.99999999999983,383.3750882093676 365.99999999999994,382.2410075186573 C 365.99999999999994,381.10692682794684 365.99999999999994,379.97284613723644 366.00000000000074,378.8387654465259 C 365.9999999999944,377.7046847558181 366.00000000002956,376.570604065093 365.9999999998705,375.4365233744492 C 366.00000000047424,374.30244268348565 365.999999998677,373.16836199352883 366.000000001298,372.03428130171983 C 366.0000000171612,370.9002006043594 365.9999998354935,369.76611998980474 366.00000097496934,368.6320388214217 C 365.9999953741557,367.4979604785953 366.00001845357076,366.3638701128996 365.99994029433935,365.2298221868588 C 366.0001218283438,364.0956653963512 366.0002302394981,362.9615392592418 365.9955741222118,361.82941043193887 C 366.0307298408362,360.6805923202136 365.78497047844724,359.64938403690167 364.87266125029504,358.89105233277695 C 364.0818684639909,358.0832199243368 363.27626971980334,357.30626550477604 362.51837144663233,356.3867050796422 C 361.56621350461484,355.9514102921826 360.407215211315,356.0108505581588 359.2785184006896,355.99800745818425 C 358.14349379198853,356.00025914862067 357.00952337979265,355.9999960825544 355.8754453936095,355.99998963571795 C 354.74135986077147,356.0000011413646 353.6072723162505,356.00001775843276 352.4732351262047,355.9999127187078 C 351.33897827768646,356.0003380059143 350.20546730454004,355.9989625851407 349.07023339364224,356.0017467050917 C 347.93388050364894,356.00723227940864 346.844444220909,355.89945114419857 346.0677114196513,355.0367370229978 C 344.94682927109875,355.00487292351676 343.81627725215566,354.99635395627956 342.68016970814045,355.001247213017 C 341.54674324670333,354.99966776383275 340.412494177975,355.0000742643267 339.27844990497135,354.9999863442054 C 338.14436281988856,355.00000178158655 337.01028287914716,354.99999997100116 335.8762022067681,354.9999999267455 C 334.7421214729185,355.00000003089275 333.6080407987574,354.99999999093876 332.47396010338673,355.00000000219023 C 331.3398794137674,354.9999999995561 330.2057987228441,355.00000000007014 329.07171803216517,354.9999999999942 C 327.937637341453,354.9999999999988 326.80355665074177,355.0000000000007 325.6694759600318,354.9999999999998 C 324.53539526932127,355.0000000000001 323.40131457861077,354.9999999999999 322.2672338879007,354.99999999999994 C 321.1331531971903,355.00000000000006 319.9990725064798,354.99999999999994 318.8649918157696,354.9999999999997 C 317.7309111250583,355.0000000000017 316.59683043435285,354.9999999999899 315.4627497436198,355.00000000004513 C 314.3286690529992,354.9999999998281 313.19458836200454,355.00000000051443 312.06050767182876,354.9999999992238 C 310.92642698260477,354.99999999563516 309.79234626883147,355.0000000513145 308.6582657331785,354.99999967697255 C 307.5241842501167,355.00000158987785 306.39010693585965,354.9999934383988 305.2560142910423,355.00002229816613 C 304.1219645538687,354.99994756971836 302.98787244235467,354.99997514197673 301.85323952052255,355.00130834584036 C 300.72382452076505,354.9900443714644 299.56326630015786,355.05396678323933 298.60226237223446,354.63612251518765 C 297.75711013158997,353.93858753248276 296.59026256966945,354.0176937573547 295.4652590167869,353.99577960810376 C 294.3290813233773,354.00084222046 293.19540318241303,353.9998703794039 292.0612647944025,354.0000096730077 C 290.9271870884481,354.00000246717076 289.79310801622154,353.9999985598046 288.6590265353841,354.00000046734 C 287.52494608828596,353.9999998792082 286.39086533666847,354.0000000262508 285.25678465875325,353.99999999536044 C 284.1227039658934,354.0000000005502 282.98862327540587,354.00000000001137 281.85454258471316,353.9999999999694 C 280.7204618939852,354.0000000000117 279.586381203281,353.99999999999676 278.45230051256937,354.0000000000001 C 277.31821982185755,354.0000000000023 276.18413913115256,353.9999999999927 275.05005844043274,354.0000000000093 C 273.9159777496872,354.00000000007293 272.7818970594548,353.9999999992162 271.6478163656232,354.000000004813 C 270.5137356906114,353.9999999766601 269.37965493389027,354.0000000950404 268.2455744729109,353.99999968305355 C 267.11149321058167,354.0000007081629 265.9774125350668,354.0000006809122 264.84334363035464,353.9999795445581 C 263.7091680497503,354.0001497148183 262.57561539491604,353.9992027646371 261.4391324658252,354.0035108053826 C 260.31422870502183,353.9870534095303 259.152523447107,354.0365937724118 258.33709835029714,353.38440072348953 C 257.3746897046627,352.4932495823177 257.11930969503413,351.7228911097468 258.1056092082967,350.91419786147645 C 258.897742296737,350.11375545684314 259.67554429279323,349.30132961982 260.51518998476706,348.54330488915554 C 261.2424316342715,347.6247559286258 262.1489478106761,346.9945823065833 263.0571922289242,346.81044041190745 C 263.15987041598834,345.6525608791445 264.09487065523336,344.9047816970124 264.8684231482758,344.0511051765417 C 265.97788653652304,344.00435898993896 266.8073465520562,343.2664744049338 267.57559370342324,342.3862879658877 C 268.3927528957222,341.6198073266529 269.1900999785109,340.8072694571992 269.99279571873376,340.0071656436286 C 270.794832590309,339.2055302678442 271.5965805730625,338.4032225188495 272.3985785064685,337.6014986778655 C 273.2004616675995,336.7995012171636 274.0023883119258,335.99761258855546 274.80435064599885,335.1958264657104 C 275.6060042777701,334.3931702639089 276.40878553511885,333.59369409991695 277.20881473119374,332.7864555784389 C 278.01218484857344,331.98864056835987 278.822523124394,331.21048033300053 279.57390178070847,330.2660154097291 C 280.575580481472,330.0030189693488 281.66372540315757,329.63163161844295 282.0036446638675,328.55516006329236 C 282.263926857515,327.46010463924205 283.2977397998926,326.9846908571567 284.41339332929283,326.829688687255 C 285.0162715597121,325.84827495939754 285.0937372387511,324.7213040188203 286.0064712608619,323.99883963929693 C 287.13835976496784,323.964118414992 287.9644753010649,323.1372929309492 287.9990307314429,322.005387530824 C 288.72233610787043,321.0932292827418 289.849367801438,321.0162309805988 290.83031447976845,320.4123740517171 C 290.98466817046955,319.29673152235904 291.4608458501059,318.2626285186258 292.55666950914804,318.00503767821453 C 293.63022888285036,317.65577454002874 294.0078349790231,316.58998695876693 294.2402709765019,315.48929920178267 C 295.26319143186134,314.9826670170383 296.3836793066005,314.8535185054452 297.0130207527209,313.87808756462664 C 297.08985151007437,312.79017542048524 297.9765575025158,312.01831961904315 298.79581044252245,311.22254978829415 C 299.5772374512629,310.4133699742064 300.388352060919,309.61471398860704 301.1875489809361,308.8118357520503 C 301.98991307379106,308.01007736688035 302.79176407805903,307.2081274228881 303.59434610986415,306.4065054006955 C 304.39383476496806,305.6035414915495 305.2009617927399,304.8038679621718 305.99952676638276,304.0005100661779 C 306.7751936989868,303.1873023814977 307.725534087101,302.4492332985833 307.9889453488259,301.41779410465074 C 308.4080654814813,300.48677665217957 309.28137903716316,299.6265697848944 310.1598442020822,298.9932407873757 C 311.05993438472296,298.80225932523706 311.15960118365615,297.62540536268676 312.1130956482561,296.91527823373417 C 312.90422514740595,296.1068415096734 313.6937986879406,295.2973204574842 314.501500846564,294.49944054990067 C 315.30769393415403,293.69868130069176 316.0989096204364,292.89248847463153 316.89191586972333,292.08687167402815 C 317.82468219116384,291.33910447506 317.98046335755197,290.26967126677 318.51915302489493,289.35813616031436 C 319.4149106733558,288.5971632834585 320.2496329040387,287.80427794642515 321.0036256320414,286.9859975559123 C 321.0301525226786,285.84455908231985 321.8523369703785,285.0217598656118 323.00168247262303,284.998108821209 C 323.0330467582207,283.8626692501754 323.87893860291643,283.0870140973597 324.69214426616577,282.2989264733393 C 325.60822911742633,281.5382997252757 326.00715403473214,280.57148896029975 326.28589176988964,279.5523876054143 C 327.2147361336416,278.8032912579792 328.0045755109156,277.99628662893986 328.9048166985223,277.2346951723202 C 328.9703051378079,276.12889397975965 329.7429388203648,275.3072583766529 330.0068518226864,274.3053607053541 C 330.4184817058671,273.225003412064 331.67202305805364,273.05824967399366 331.9868404146399,272.3317256739632 C 332.6026242008225,271.39345951496273 333.01337515775225,270.45389739066064 333.3715672635832,269.46257671998274 C 334.3045179944835,268.71718921010995 335.1065602484515,267.9147861054068 335.9528635565983,267.13129306373736 C 335.9973050652283,266.01564447648957 336.71242396671175,265.1777712168505 337.745366515962,264.4715551096076 C 337.96981992337436,263.4304437842451 338.48555353658975,262.5099874679708 339.03358006403096,261.60290660919577 C 339.23108212893277,260.5506339933179 340.26052574440234,259.84296279503747 340.9978328464295,259.0142847080726 C 341.0515382189347,257.90244951097736 341.9338779065829,257.13384588556494 341.9925869011529,256.0240832566835 C 342.839372889005,255.24075280656086 342.972538288453,254.16183103034786 343.7252631477637,253.33953918509764 C 343.97698537254087,252.30972525384158 344.5979489536749,251.43285610017665 344.9949713609138,250.46322747511067 C 345.4648251183202,249.52376658304996 346.01582105130956,248.61791588059606 346.3322830628947,247.6149180470602 C 347.0306355257992,246.77010441780166 347.19520528525993,245.70419075341638 348.03626087293526,244.91848669383086 C 347.96202040767594,243.75365459553308 348.16324883339144,242.70292544788919 349.0767475327004,241.94722830764277 C 349.9249724076227,241.1644938640673 350.01079050874193,240.06596019473773 350.03331430677747,238.94120916664983 C 350.8953269074822,238.1641857860878 351.00714830538067,237.07642303495064 350.99670849572556,235.93801803349243 C 351.0682975721192,234.83359050914194 351.9213818804594,234.0528689087939 352.8380021379741,233.298464760292 C 353.0368513015059,232.2467500899832 352.9656110815318,231.08316073397302 353.7787802416269,230.28590573787747 C 354.0269633367633,229.25462585112444 354.00646978676787,228.11205645406483 354.01049295506914,226.9796422142285 C 354.8822057896048,226.20663680207755 354.97782244475974,225.11216182672104 355.7426405097738,224.2948791512876 C 356.0332411262732,223.28116917716522 356.0061558032207,222.13586937830516 356.0002897615419,220.99935889357403 C 356.8448996839419,220.21512708763652 357.0179489124216,219.15272573432068 356.99976690898694,218.01111381119665 C 357.0035534869759,216.87860157244418 356.964155714039,215.72820178985617 357.25057697129336,214.7127606684524 C 358.02098196013037,213.89779217263833 358.1108084779127,212.80091884385425 358.9845258658613,212.0287437449132 C 358.99079747944904,210.89726084160887 359.0044233718412,209.7688241803268 358.9986244661765,208.63234150424321 C 359.0004242100696,207.49900629186217 358.9995880921266,206.36457926975982 359.00111646228373,205.23113165069776 C 358.9977324751789,204.09564926663174 358.9958503628361,202.96078897946197 359.0850305533384,201.8636479332024 C 359.9502015316513,201.08793279552634 359.9974544752069,199.973424914891 360.003310690907,198.84176994578195 C 359.9987805404739,197.70581282411771 360.0003374742931,196.57237693248695 359.99992161589773,195.43812445902708 C 360.00001665674597,194.30408134193758 359.9999930938328,193.16999625150106 360.0000049625132,192.035912502485 C 360.00006042642406,190.9018088011223 359.9994151532475,189.76799531636553 360.0034781905366,188.6322316924068 C 359.9834605906142,187.50644255368508 360.0661211396876,186.33812274477276 359.44684465666586,185.46055477157174 C 358.93751456750306,184.53744551175302 359.01333422812615,183.3719592892748 358.9977252057313,182.24434406734477 C 359.00020648478284,181.10923559719774 358.9999619954529,179.9752561772836 359.0013906412998,178.84058372208779 C 358.98978220531757,177.71131140299917 359.05424505193304,176.5505293269516 358.63137117044187,175.59160873312828 C 357.9267294162836,174.74940021360442 358.07242363891277,173.55497099992178 357.62828830101427,172.60485718969827 C 356.9389587410774,171.7563061516584 357.02115435415885,170.58817892324208 356.9787253543228,169.47167289970173 C 357.06601400912905,168.3014360643292 356.41539322432425,167.4368513266469 355.93897509781374,166.50010948529763 C 356.0171432232715,165.3336504968773 355.9826005576632,164.2138778467423 356.0266248767439,163.06156168599463 C 355.18269456831945,162.27704837473138 355.02524356853456,161.20818602354112 354.34869558829075,160.35434068184387 C 353.9302720244929,159.3935767060749 354.0660818599106,158.20324173963118 353.33193216924474,157.37325580760623 C 352.93848627733,156.40214574138773 353.049645855937,155.22202124562767 352.4634323251315,154.33075814984187 C 351.4588233217489,153.61280013314703 350.9581330414338,152.686112147242 350.9953538880738,151.53661407648832 C 351.06631639540035,150.37313975521795 350.46102756057695,149.48977789590833 349.9747573563421,148.55711695535035 C 349.7306715732572,147.52413974460546 348.7157185871922,146.8104667613983 347.99226646040177,145.97604939769067 C 348.0298841073816,144.8263887532163 347.8232420921548,143.77788721008608 346.99548920255785,142.9866882970235 C 346.96576430973334,141.8648324710626 346.12941293883335,141.07703715079998 345.1475342839209,140.35168089349335 C 345.0431239008771,139.2549817397348 344.34862966887323,138.4386138911901 344.0289316377429,137.3489428976902 C 343.35199343809734,136.98324454062936 342.21215713175553,136.55981383250185 342.03820719988636,135.40449228904228 C 341.5020882032475,134.51367435476422 340.9723649482305,133.59126460213014 340.7381509407002,132.55586174193428 C 339.779505114935,131.81832599847976 339.0047783231144,131.00520664395643 338.20902371309904,130.20033062338925 C 337.38924685242193,129.40813608942662 336.6297224902573,128.5810333585573 335.7419175784588,127.83103573162495 C 334.9992339624959,126.99323359249209 334.91567491001337,125.95608424454059 333.7521289449016,125.90788764968664 C 333.0042964361196,125.0043088097622 332.0972087893813,124.2571783105373 332.0470334504887,123.09190779814328 C 331.0181705817127,123.00234387178516 330.20587769304177,122.24961066892547 329.28753202148255,121.463927455309 C 329.04505867980265,120.36756263441647 328.35525451847025,119.98745269819894 327.34659524926764,119.53397108381301 C 326.6405689116829,118.57116008022032 325.80378526349284,117.83243951667312 325.0103455646411,117.01356473708564 C 324.2504713185182,116.11070238893835 323.15567510773496,116.01532612464466 322.2687118996405,115.41885323174257 C 321.5689658013434,114.37020113056381 320.5892057414799,113.99766309166131 319.56769993442316,113.72587785376626 C 318.8171544535578,112.79994391824955 318.0095755195205,112.0116986182564 317.2504483991635,111.10648057274386 C 316.14824642569573,111.02951859104029 315.31933085679594,110.29278480425785 314.3292625827798,109.94510808028548 C 313.1561222053434,110.03940650480033 312.2821783150416,109.41138071340504 311.5760399079515,108.37823664824064 C 310.5942297287486,108.0106231142537 309.60871161058526,107.6519613367405 308.76100009891184,106.96060498086726 C 307.66934746478404,106.85817459123938 306.93342022979334,105.89694711853583 306.1451109909945,105.0621809898495 C 305.0395470299895,104.9933355142405 303.9229976035935,104.95101129816715 303.15265777034267,104.0728631868987 C 302.0435076532585,104.01267545793272 301.2552163995883,103.17786590930493 300.18514090333014,103.02334370079632 C 299.3384201442204,102.32959545664366 298.36858124876557,101.93308068702915 297.1807301992704,102.06289381646081 C 296.3604959403067,101.3052015044354 295.3698397638557,100.95894409693376 294.2217333273568,100.99280524263916 C 293.07349244428013,101.02699097109537 292.271918512474,100.22424864416809 291.2497570035921,99.9540518375082 C 290.0823598102886,100.03448498991929 289.28206950860533,99.22864370574023 288.26240750191283,98.9524125669954 C 287.092641024782,99.0385656765557 286.29322420554524,98.23061561920842 285.2683509863959,97.9669654602531 C 284.1189048072815,98.00406103074992 282.9864233644498,98.00020010483193 281.8545579009971,97.99485207314284 C 280.702861900845,98.03737919210256 279.689994383744,97.74474470443657 278.88156672955506,96.9585487270385 C 277.72242007743097,97.01906331103712 276.6040663017684,96.98109517943438 275.4351457457549,97.06520605476092 C 274.52278155253356,96.52993507952102 273.63557255210884,95.93393409666717 272.4675103208629,96.01597279269834 C 271.3413860784784,95.99676422724227 270.2057551731688,96.00050677635181 269.0718983769302,95.99996624728192 C 267.93779182568045,96.00002868014676 266.8039222851971,95.99951891840436 265.66833748310273,96.00315016450749 C 264.5420946549279,95.98422789047426 263.3741231890366,96.0660474595555 262.4836496552221,95.47792775748604 C 261.57424777902366,94.9355051163133 260.40747381173503,95.01443366802755 259.28047288000795,94.99734161787127 C 258.14514686630747,95.00034809352383 257.0112129049196,94.99999385760331 255.87713552278788,94.99998586998746 C 254.7430465006053,95.00000598394139 253.60896901671347,94.99999824199631 252.4748874215831,95.0000004254592 C 251.3408069428621,94.99999991367162 250.20672621072603,95.0000000136821 249.0726455261608,94.99999999884649 C 247.93856483505988,94.99999999978918 246.80448414420502,95.00000000013823 245.6704034535709,94.99999999995393 C 244.53632276283656,95.00000000001207 243.4022420721323,94.99999999999733 242.26816138142053,95.00000000000047 C 241.1340806907105,94.99999999999987 240.0,95.0 239.00000000000009,95.00000000000004 " fill="none" stroke="black" /></svg>