<?xml version="1.0" encoding="utf-8" ?>
<svg baseProfile="tiny" height="100%" version="1.2" width="100%" xmlns="http://www.w3.org/2000/svg" xmlns:ev="http://www.w3.org/2001/xml-events" xmlns:xlink="http://www.w3.org/1999/xlink"><defs /><path d="M 225.00000000000003,96.00000000000003 C 225.00540865263403,97.03923036967484 224.975864026263,98.0742374925937 224.27998565016023,98.88499114577505 C 223.26303466618407,99.02287377710942 222.22058074193143,98.99484738944331 221.18286226689537,99.00111782563707 C 220.14409176301984,98.99976987770518 219.10554566425364,99.0000439085373 218.0669533295516,98.99999211617167 C 217.02837218505377,99.00000209588332 215.98978837425082,99.00000198195612 214.95116727798123,98.99996377928639 C 213.91286289457653,99.00025330229423 212.87266429017333,98.99858398477492 211.8423312077446,99.00711604161577 C 210.76442472217363,98.96645541224571 209.91878757215156,99.16548919804706 210.04674629943418,100.3052845516666 C 209.8663415492842,101.29207025896284 209.05421593842578,101.98329801703164 208.01836016529313,102.00134619239114 C 206.9796338101581,102.0003836033698 205.94090472970524,101.99968144794522 204.9026980565365,102.00039912082964 C 203.8623207675424,101.99841637664065 202.8325965605108,102.00762172441314 201.75241181388984,101.96459155943718 C 200.9171049562996,102.17424781422773 201.0479459629608,103.31587249119673 200.86097662019816,104.30126564356293 C 200.0445284322283,104.98655546628106 199.00801109129236,105.00055856347382 197.96914546806394,105.00025113771116 C 196.93337392093161,105.00242038744622 195.8761613072359,104.98352823203338 194.94088395030514,105.09010614516404 C 195.03356149173104,106.20468356912369 194.91385132118762,107.20604692086049 194.14405424162294,107.9488313966251 C 193.11491051213844,108.00948048341344 192.07464576728904,107.99837993649601 191.0363670647001,108.00022197654764 C 189.99773645586018,108.00000896895304 188.95874087160067,107.99956911976733 187.92363636460524,108.00318500984912 C 186.86423504717223,107.98165150109784 185.93794905084474,108.09764420572772 186.0351108291118,109.21558445203655 C 185.90910831675197,110.21539912545951 185.13460541436172,110.95299167733577 184.10433585483338,111.00831339898393 C 183.0650133492343,110.99918055965946 182.02526108382483,110.99925010795604 180.9858763794876,110.99831796305016 C 179.97562471161328,111.02758151050018 180.01741927101222,112.1008693101841 179.9551250268131,113.11870280708166 C 179.23212492085892,113.90696782739798 178.2112562003274,114.01828827526452 177.17077031096375,113.99719648899895 C 176.12819822424134,113.99711831340228 175.10315693348107,114.01032085156194 174.03072147164463,113.97545969140873 C 173.99668082325869,114.98173472214253 173.99276213283778,116.02082772894784 173.3180824030405,116.84336516299682 C 172.3406521107488,117.05153204097496 171.1979391274012,116.91382512684437 170.9497208921443,117.72299311449274 C 171.04472944188817,118.8148029342677 170.5137380232762,119.71385207000715 169.54185343096108,120.04358649515574 C 168.49682773793563,119.99018387790078 167.45321502056018,119.99699940947201 166.44149409730574,120.02173153823891 C 165.29964166018274,119.91570931906372 164.92918097726843,120.59672149258084 165.058939116692,121.71734926508518 C 164.58708775256673,122.62798996522166 163.66468406609653,123.06275471443978 162.53613562250158,122.92096303708009 C 161.9066097381658,123.35417036465161 162.06224037355588,124.5010798756245 161.75198704145964,125.46132894265203 C 160.866643795472,126.02845928600945 159.82306110340954,125.9914794756207 158.78324108144287,126.00017662750942 C 157.75763587504895,126.01061780688562 156.66035753905473,125.9507839270763 155.90784241578194,126.2451306013598 C 156.05710611648718,127.39758665609335 155.8114358162587,128.36499520436143 154.97060993599138,129.00949806190638 C 153.91819258731306,128.9849361068739 152.95547314965637,129.06626581606702 153.0153985010563,130.1617559170716 C 152.99314182815957,131.18392753502744 153.01144163518222,132.2165362795912 152.95511785719106,133.30612326584918 C 153.21907558771616,134.08952513882085 154.36747933391652,133.9466240575459 155.34559018475403,134.16681114606376 C 156.00096465689117,135.00347283933252 155.99718156496132,136.04262725849762 156.00136260374003,137.08056802368964 C 155.99940904599165,138.11953761835412 156.00065084111134,139.15745836885847 155.99762764521,140.19879251090538 C 156.01056206080085,141.2249211341586 155.95369205013588,142.31848791304304 156.22841173977062,143.09039726941793 C 157.37793526725858,142.9456841207712 158.35454522619366,143.17263204777865 159.00362301872926,144.01328707216393 C 158.99656325960748,145.05293391173765 159.00150639976184,146.09075808749603 158.99936808669412,147.12976470492427 C 159.00069310309388,148.16763669381876 158.99749268516035,149.20913530056714 159.01105834049474,150.23465492092564 C 158.95188228247244,151.3304515482209 159.2379745620926,152.09126110118453 160.38830799944546,151.94477874973083 C 161.3635891176333,152.1784291050154 162.0061659931394,153.02313498592056 161.99615066291196,154.06306170027432 C 162.00051085157608,155.10204483780447 162.0053773167559,156.134142070853 161.9711250468304,157.2064503395915 C 162.14474681270048,158.07660439552765 163.27946000373518,157.95636425264146 164.26989005651532,158.12074262438523 C 164.97510429086248,158.92229513793293 165.00330091818319,159.95659240621626 164.99991524799952,160.99568733757783 C 164.99980864205517,162.03430728278582 165.0002960486626,163.07262845838693 164.99873049938887,164.112626977183 C 165.0064307458988,165.1438012150941 164.96909392058384,166.21848123433804 165.15324999062727,167.07858903911216 C 166.2901130675799,166.95507053729716 167.2791366393768,167.12594954579228 167.9786039634694,167.93192315653073 C 168.0023968674763,168.96700875113683 168.00005531531212,170.00592566773994 168.00148972320255,171.04285768042482 C 167.98764604182466,172.09508414642266 168.0725664024442,173.05137372178783 169.17803995718572,172.97037487118746 C 170.18351313340642,173.07477350676763 170.9387395531189,173.83279930145363 171.01151885093566,174.8602728303508 C 170.9986019095784,175.89987734002298 170.99837888393367,176.94084699998308 171.00286375799467,177.97462548213267 C 171.00826765289662,179.00782835999993 172.06133861056938,178.99335067908726 173.09043910792516,179.00282933894408 C 174.13284729930945,178.9990030459752 175.1701287455606,179.00032920297454 176.20907286092995,178.99985546693492 C 177.2477858518658,179.00024279144478 178.2852963180911,178.99905870152884 179.32860278691783,179.00396243619542 C 180.34744037453615,178.9835378764122 181.46694826338498,179.06721745699377 182.0938050046451,178.64438534255427 C 181.93744958556962,177.49354613378955 182.2510166064314,176.53524622524475 183.1377910576979,175.97082541824398 C 184.18148711599096,176.00866465189637 185.22135042664692,175.99984812821643 186.2466926352851,175.98917069710956 C 187.3449492817583,176.05000643367697 188.09246386093156,175.75055263693034 187.94254181353455,174.59780692701534 C 188.19109246556272,173.63107985681114 189.03362234155387,172.98923170439787 190.08670909832114,173.0159791756956 C 191.0483952717917,172.9310209999544 190.97177962083322,171.8311809647271 191.07119119420904,170.82350684043655 C 191.82542204641356,170.06455131260373 192.85221864822987,169.98775097016585 193.8919436553795,170.00154283998407 C 194.93303634702312,170.00178496258283 195.96586183381646,169.99619997082098 197.00417865502038,169.99588866091133 C 196.99067279392992,168.9469978759542 197.02846901639916,167.92092825224373 197.72900767255766,167.11423648808773 C 198.74523870747927,166.9775476059532 199.7863207885661,167.0037557914689 200.82962476743495,167.00338978568288 C 201.85043250764542,166.9861243373777 202.94187761266778,167.04056127729638 203.01235983259878,166.06792739120695 C 202.99408836383645,165.0187509171098 203.63564213839214,164.17208453261873 204.63827596322065,163.9678244915002 C 205.6809570101533,164.0062285029137 206.72517033089824,164.00388743384934 207.7391222518373,163.9803239989036 C 208.86330596446345,164.06840299378607 209.0352308400712,163.19220359417506 208.96827525853317,162.1167860566473 C 209.54606496346022,161.23760067506169 210.5311160776833,160.959515824423 211.5773417855265,161.01019030892718 C 212.61388042057405,160.99737170084114 213.65346559980927,161.00104398770597 214.68998905803457,160.99827416273666 C 215.7355887808665,161.00568017275498 216.74967154992748,160.98030946434866 217.87156514250108,161.0664623447216 C 218.03302396913602,160.18008061254682 217.9704121114171,159.10728307727217 218.55457797825215,158.2309681495484 C 219.54142542600434,157.96015456060962 220.58752544716427,158.00999102674908 221.62410287092848,157.99743141022037 C 222.66367465112174,158.00102475789475 223.70021757603874,157.9982938561963 224.74571854668443,158.00559245291498 C 225.76031795166764,157.98075742957894 226.8796787792214,158.0642909396828 227.03081252077365,157.16798804984626 C 226.97262434705763,156.097781390263 227.56312650580116,155.22440050363505 228.55174732964215,154.96083043385056 C 229.5976778536248,155.00975401181293 230.63443851497533,154.99760933368995 231.67346820750984,155.0005756537309 C 232.71194565331245,154.9998641929597 233.75055501716105,155.0000312627977 234.78913355199467,154.9999930215803 C 235.8277191014213,155.0000014952359 236.86630310858263,154.9999996979131 237.90488743932053,155.00000005550467 C 238.9434717067614,154.99999999155443 239.98205598517418,155.00000000068027 241.020640262144,155.00000000020006 C 242.059224539144,154.9999999998136 243.09780881616544,155.00000000035294 244.13639309348022,154.99999999838772 C 245.17497736911042,155.00000000784817 246.2135616528072,154.99999996352076 247.2521458998942,155.00000016302093 C 248.29073030755254,154.99999929316598 249.32931402926522,155.00000299148215 250.36790061853486,154.9999875928165 C 251.40647544011648,155.00005056306554 252.44509776650696,154.99979716697965 253.4835311866737,155.00080182394382 C 254.52270517984954,154.99687450929747 255.55901602042923,155.0120148451677 256.60624174646034,154.9544656494052 C 257.5638956283469,155.3319836463331 258.05331376850035,156.24469994448808 257.93700773413747,157.35391311232382 C 258.2584742417082,158.0838151605107 259.4000314250843,157.9773240179522 260.4108554201234,158.00608345423433 C 261.4568417065934,157.9982119810866 262.4933475949159,158.00122026683312 263.5330232240914,157.99674558997063 C 264.5691968981781,158.01209059484466 265.61646230989584,157.95444874175786 266.57185806021494,158.33911501308498 C 267.0543414274029,159.25485941580507 266.93548467131757,160.3638100962623 267.26689608641834,161.09290480378834 C 268.41624444349316,160.94139918387603 269.38186115769844,161.20020732665049 270.01480698218677,162.0471353258306 C 269.9807470195558,163.10446432841164 270.0797390324462,164.05032088603946 271.18270967735816,163.98402673274532 C 272.2010295428783,164.00363362415501 273.24471608688657,164.00446916514954 274.28625444728044,163.97460907935758 C 275.2988400421563,164.13028242308508 275.9825571792246,164.94960923813755 276.003172940556,165.9822035679178 C 276.0122611235646,167.01139919518138 277.0692527895608,166.98787725309572 278.0928534638806,167.03393553096728 C 278.8933443877918,167.7422968981766 279.02099607814216,168.76020010939345 278.99658309303146,169.80106823264663 C 278.99676600172376,170.84414182405268 279.01272312364506,171.86632197403813 278.9646611347642,172.95157431528327 C 279.9491283878892,173.00930878772138 280.99498584721476,172.99832160470794 281.8271733365189,173.65747831860233 C 282.0544955026226,174.63039688771585 281.9105673416504,175.77647114309968 282.6898611145703,176.05588296467468 C 283.7883416787497,175.95119797014283 284.6941053445218,176.46380047208484 285.0444660639163,177.42984356672162 C 284.98979247178005,178.4751150336893 284.9972556737898,179.51847524565983 285.0213883627069,180.53064980636074 C 284.915973669513,181.67195444889472 285.5644725643367,182.07499673789596 286.689071270771,181.94035996890037 C 287.6158893322033,182.3828767000443 288.04501181129,183.32390373701466 287.98778112763824,184.37108163550383 C 288.0032635342909,185.4073411116994 287.99914120805,186.44654438730979 288.000222818424,187.48496625234725 C 287.99994298640325,188.52359254829173 288.0000143837098,189.5621661044873 287.9999964245968,190.60075307822737 C 288.0000008745875,191.63933668707048 287.999999789878,192.67792112699073 288.00000004944064,193.71650536505845 C 287.99999998865565,194.75508965122876 288.00000000252106,195.79367392618954 287.9999999994645,196.83225820369222 C 288.0000000001024,197.87084248063726 287.999999999995,198.90942675770225 287.99999999996936,199.94801103473472 C 288.00000000003433,200.98659531178836 288.0000000002583,202.02517958886497 287.9999999974237,203.06376386548226 C 288.0000000161249,204.10234814533337 287.99999991416286,205.1409324070659 288.00000041938694,206.17951675997216 C 287.99999805967434,207.21810068268638 288.00000863708163,208.25668654800748 287.99996266712117,209.29526392231145 C 288.00015759815403,210.3338774697302 287.9993477870936,211.37234014748967 288.0026528287601,212.41142070164963 C 287.9893770540019,213.44801152024684 288.0419235343621,214.49448605055042 287.745660648467,215.4749375269001 C 286.8595451914888,216.0367103624489 285.7776973667452,215.95933870772632 284.92701449253246,216.15773306516428 C 285.02099016132166,217.2871906145249 284.9940793919036,218.2997888693592 285.001777787085,219.3456539979373 C 284.998895672481,220.38212956471602 285.00282264677054,221.4217543328649 284.9891731230504,222.4581695361739 C 285.0424573246902,223.50478635838994 284.73880867636336,224.48330993193554 283.85002148299384,225.03858847615646 C 282.76555156398155,224.95717288895358 281.9255474985789,225.16643531173852 282.02079428091554,226.29761974947453 C 281.99614460729236,227.31027126313919 281.9929518420158,228.35454974040562 282.0351057029687,229.3977686753205 C 281.8066735454233,230.3950709497594 280.9482066294112,231.0155523906206 279.89039901034016,230.9799497595871 C 278.9482921086238,231.08293520883257 279.0162753443279,232.1875480605256 278.9963307253826,233.20550827976862 C 278.99542689410777,234.2492516354215 279.0258173851017,235.29085431921956 278.8672995358886,236.30288907834694 C 278.04618093061487,236.98410676497048 277.0126508592046,237.00225761575038 275.9864238174439,237.01477193870207 C 276.0131675529682,238.07449156674133 275.96318500472574,239.09589355931303 275.24568232740626,239.8876863585692 C 274.2558700755243,240.04122859503934 273.1259578382013,239.92824915070022 272.97530121205335,240.8207243828948 C 273.00436117273273,241.88794019289236 273.00047059572,242.92129823151768 272.99746315696075,243.96020213540547 C 273.00024579938594,244.99911476353262 272.3436616482074,245.83488358013344 271.3638196956181,246.05290852477705 C 270.2197206035401,245.91140656521043 269.9445470191029,246.69473682331818 270.0495760780188,247.79400736434567 C 269.5227460165147,248.68746326832866 268.5864524068357,249.065201347619 267.4413989267489,248.91088830610036 C 266.9232263640132,249.443480983428 267.0186073384991,250.5751908772043 266.99841053092246,251.5908767520003 C 266.988997180841,252.63298635340976 267.04456803973665,253.67868908391142 266.614203652942,254.61951592669064 C 265.68561892889994,255.05970017487738 264.5636687382611,254.9249834781842 263.9057306561729,255.32930546280755 C 264.0626270296987,256.47910481564065 263.7606474510387,257.4347282161534 262.89488682223623,258.0300377249096 C 261.82253392541645,257.9672138499814 260.9293413115694,258.12644460149977 261.04069926187617,259.25213351535456 C 260.8891566981213,260.2435398598872 260.09842916660386,260.96214768432895 259.0775608457894,261.0136775187619 C 258.01634697104487,260.9851445677445 258.00172133350446,262.00953637942587 257.9845585133335,263.04313227100255 C 257.29657291978674,263.85704017739465 256.31638401325256,264.04880463098056 255.1736056974193,263.91695531039085 C 254.96491663239468,264.75299004504654 255.00693117004596,265.8328943447729 255.0004950713385,266.8630648764725 C 254.9944360926683,267.9022298915859 255.0140947209699,268.9434908570414 254.3940001478385,269.80123341224686 C 253.42232602790872,270.0578674142957 252.27441540467757,269.90716462505736 251.93370069561612,270.6271861005814 C 252.05655410449646,271.7397357008759 251.56846862586087,272.6461942987316 250.64138175805812,273.06378528352866 C 249.5087246728079,272.9177907692461 248.9071628455163,273.37928118693617 249.06443486303365,274.5264966442973 C 248.72909400544202,275.47431117051184 247.85042554535212,276.0396879333587 246.76604310002426,275.9569770044247 C 245.9195653813186,276.1658935127817 246.04711460547355,277.302423334296 245.86395355947806,278.2858929271387 C 245.05464411607562,278.9801543388538 244.0237834343583,279.0042723849839 242.99113587829595,279.00937607445167 C 243.011264428158,280.0635480639359 242.96704040740815,281.0869694333854 242.25468750723908,281.8826963972023 C 241.2653870795083,282.0424612927293 240.136516586072,281.92649901066613 239.96450510548715,282.8077349835361 C 240.0327312545431,283.88324918266346 239.4451863696622,284.75250499255316 238.49155833406002,285.0631882144203 C 237.342320437201,284.9060031380797 236.92267345719955,285.5488558287649 237.06204136642563,286.6752335784203 C 236.62012213822126,287.5955986900326 235.70624678472586,288.05976331623685 234.5862703367641,287.92773924588016 C 233.9058854447779,288.30911950389543 234.06149389395932,289.4591037758744 233.77347624779102,290.4179960547657 C 232.91340201821856,291.0254967643596 231.84608559396474,290.97155452737707 230.93429387491233,291.1108066997242 C 231.03777867096355,292.230910188313 230.89923013324676,293.2257156518773 230.11665673915323,293.9541027180239 C 229.09976798704398,294.01744115616077 228.02796892376327,293.97611547651843 227.9975858569662,294.98670386360976 C 227.99136522946355,296.0247760464926 227.31441246394874,296.8459645794336 226.33621814666003,297.0509852593877 C 225.19424958747314,296.9145127145266 224.95022082801174,297.727631147359 225.0452975150512,298.8200705833343 C 224.50077759479166,299.70693904305995 223.5584473663283,300.0650154141337 222.41412286843433,299.9091133002477 C 221.9139280675973,300.47225469219285 222.06473817248647,301.6099860556692 221.66973356655737,302.54304467402835 C 220.7704052327616,303.05284178657905 219.66530807584982,302.93976442699113 218.90886038241302,303.24285518890804 C 219.0563732079991,304.3905758790507 218.8152618141209,305.3603000374638 217.97604133267225,306.0077745429042 C 216.92552451892288,305.98631328806675 215.95517057914904,306.0617133283013 216.0268924554085,307.1578904667661 C 215.93134377235694,308.16472369849083 215.17816394914232,308.9245788975366 214.17404301391207,309.0294034045159 C 213.0719367123458,308.95003504901933 212.98308981262915,309.9081829830185 213.0119742704988,310.96232371603344 C 212.37306576683062,311.80632680274897 211.40571127438656,312.0576733079488 210.25702470815585,311.9078141613213 C 209.93697825556146,312.64787506410454 210.054618362078,313.75638619144524 209.5547309253536,314.65903337539146 C 208.6243700455643,315.0643773004745 207.4888711992375,314.91561518197176 206.9081204063979,315.398097528255 C 207.0648189603414,316.5438611539656 206.71714085958592,317.48871718058905 205.8339689141574,318.0428255482733 C 204.74519549479385,317.95328530428037 203.91666907182872,318.18113106626623 204.04926589910826,319.3207990168818 C 203.85427700440258,320.30139678346677 203.0384462347988,320.98634253730694 202.0037169179995,321.0006717287278 C 200.98277705854443,321.0192563689353 201.0146490121984,322.08325019348115 200.9601207946786,323.10309074914943 C 200.23899206389376,323.89175655954375 199.24672249108434,324.0399660766053 198.122399869677,323.93055682350104 C 197.9683210142705,324.8285566058831 198.0289053838111,325.8996202010188 197.430473733735,326.763956749299 C 196.4739804388103,327.06233238496884 195.32419897787585,326.9058217867189 194.9253589524673,327.5691097040172 C 195.06088684906734,328.69208203087396 194.6068726791975,329.60896167169767 193.68944034788976,330.06108081999884 C 192.5659224593667,329.9249272189211 191.9058320379317,330.32702730719456 192.06247678343723,331.4767448971904 C 191.76217033514058,332.4327898918486 190.897051805048,333.0295215478886 189.82528962329468,332.96772031335723 C 188.92989307763216,333.12459010649957 189.04036501946928,334.24965921194087 188.89034814237073,335.2414599810104 C 188.10056190253408,335.9612229111243 187.08016498356187,336.0141227834707 186.01767239393303,335.9840563093005 C 186.00124141487595,337.00687541311993 185.98538692842905,338.04098987628544 185.29895603724754,338.85579763507707 C 184.3179498056737,339.04896653184414 183.17861382466833,338.916994173815 182.9542103709424,339.74882894739113 C 183.04118758190486,340.8353547922568 182.49602911033472,341.7289204038035 181.51978969423243,342.04269224263396 C 180.47498828232185,341.9905332273547 179.4311962260734,341.9968105546364 178.41971777003351,342.02190685823297 C 177.27791374701462,341.9159000192476 176.93299228029372,342.62233133529026 177.05686610734185,343.7380604117547 C 176.57023370308903,344.6441534274136 175.64363762120107,345.0637545684651 174.5113616650177,344.9180761671838 C 173.9070550663133,345.37681094682955 174.0643717501948,346.52419174653556 173.7306641283323,347.47239674084994 C 172.85260163434566,348.0392556715514 171.76880322807804,347.9574698002118 170.91997680413408,348.1639033592157 C 171.0468209095955,349.2999838501806 170.8652193798429,350.2838355375258 170.0567866767297,350.97931661396944 C 169.0264304212876,351.00474394871094 167.9922800179018,351.0081057256159 168.0108106705911,352.0609311055248 C 167.967938406896,353.0848331823636 167.2567606846369,353.88148137267035 166.2678503734028,354.04278333089934 C 165.1384143680861,353.92599186956835 164.9640020915238,354.8049769990649 165.03322017695655,355.88108014116 C 164.44712657538298,356.7509762567429 163.49387966379618,357.0632900464161 162.34473770502024,356.90604753001696 C 161.92232970250316,357.54618363713155 162.06217986525337,358.6729994513434 161.62186578385155,359.5938198313588 C 160.70846787917804,360.0595742614367 159.58897168647866,359.9281222488371 158.9059138713406,360.3067685090114 C 159.06135264991937,361.45676283436444 158.7749597444625,362.41603066156677 157.91556460656722,363.0249461421926 C 156.8488356201501,362.9720632190859 155.93490741220506,363.1090123067489 156.03742832977727,364.2284206976729 C 155.90039005697844,365.2236273399961 155.11878502392977,365.9531425445869 154.10235362779684,366.0178742767836 C 153.0293696797491,365.97510121396607 152.99709603916025,366.9840243431579 152.99212806097788,368.0226267478236 C 152.31609645911226,368.84458732777915 151.3395465959444,369.051399584977 150.19314349500988,368.91366556704173 C 149.9608709701502,369.72673048158856 150.0079639481162,370.811596209216 150.00044526666377,371.84048673143127 C 149.99345678339142,372.8798043793645 150.01870393603525,373.9218282955507 149.41286996357218,374.78759973446 C 148.4456818331737,375.05955164932726 147.29309770649795,374.905863499296 146.9421826275304,375.60328624868686 C 147.0137484328205,376.7110806165634 146.99680456151881,377.73327875965435 147.0007220645132,378.7756515881847 C 146.9998426990054,379.81338544558355 147.00003256713765,380.8521533409151 146.99999376465624,381.89070009272854 C 147.00000103620332,382.92929140196276 146.99999988022566,383.9678745610791 146.99999999393955,385.00645894809287 C 147.0000000105759,386.04504324122473 146.99999999509876,387.0836275032999 147.0000000017831,388.12221178680716 C 146.9999999994175,389.1607960615626 147.0000000001791,390.19938033934113 146.99999999994535,391.2379646161628 C 147.00000000002385,392.27654889326084 146.99999999995805,393.3151331703301 147.00000000015874,394.3537174471892 C 146.9999999993532,395.39230172500834 147.00000000260792,396.4308859989045 146.99999998963597,397.4694702884924 C 147.0000000406061,398.50805451624313 146.99999984310247,399.5466389842884 147.00000059777503,400.5852225315001 C 146.99999775571527,401.62380955705186 147.00000829278073,402.66238364387425 146.99996990290026,403.70100504713116 C 147.00010694764626,404.7394567904839 146.99962977434646,405.7785025338729 147.00123839649518,406.81553113924423 C 146.99605423587414,407.85912893162737 147.01164249479146,408.8826380632572 146.9702735933755,409.96122951542714 C 147.96666537394069,410.0060786110944 149.00885852672826,410.0030257499524 149.83593993559728,410.670557132768 C 150.05291319791198,411.6459374184205 149.91231694954206,412.7901974754435 150.70723966435818,413.05329192835393 C 151.80389587293888,412.95197397717976 152.69487826779786,413.4856861414188 153.065231052973,414.4238420713059 C 152.90995612527706,415.57016133616537 153.45509172427606,416.0758877739029 154.58554709109103,415.9808896630969 C 155.60106511425425,416.00474102425267 156.64535347606494,415.9988427892568 157.68255042409666,416.0002773388576 C 158.72146583572078,415.99993493343146 159.7599728014731,416.00001487617027 160.79857464797993,415.99999670869363 C 161.83715506838644,416.00000069659865 162.8757401526741,415.99999986187777 163.9143242724042,416.00000002454533 C 164.9529085765168,415.99999999655415 165.99149285007528,416.0000000001573 167.03007712713566,416.0000000001394 C 168.06866140439033,415.9999999999204 169.1072456813265,416.0000000000309 170.14582995840942,415.9999999999894 C 171.18441423543916,416.0000000000032 172.22299851248624,415.99999999999886 173.26158278952786,416.0 C 174.30016706657136,415.9999999999999 175.3387513436143,416.00000000000006 176.37733562065716,415.9999999999999 C 177.41591989770018,415.9999999999999 178.45450417474316,415.99999999999994 179.49308845178615,415.9999999999999 C 180.5316727288291,416.0 181.57025700587207,415.9999999999999 182.60884128291502,415.9999999999998 C 183.64742555995795,415.9999999999998 184.68600983700105,416.0 185.724594114044,416.00000000000006 C 186.763178391087,416.0 187.80176266812987,415.9999999999999 188.84034694517288,415.9999999999999 C 189.87893122221584,415.99999999999994 190.9175154992589,415.99999999999994 191.95609977630176,415.99999999999994 C 192.99468405334474,415.9999999999997 194.0332683303877,415.9999999999999 195.07185260743074,415.9999999999998 C 196.11043688447378,415.99999999999994 197.14902116151666,415.99999999999983 198.18760543855973,415.99999999999994 C 199.22618971560257,415.99999999999994 200.26477399264564,415.9999999999999 201.30335826968854,415.99999999999983 C 202.34194254673145,415.9999999999998 203.38052682377457,416.0 204.41911110081756,416.00000000000006 C 205.45769537786052,415.99999999999994 206.4962796549035,416.0 207.53486393194646,415.99999999999994 C 208.57344820898942,415.99999999999994 209.61203248603243,416.0 210.65061676307528,415.9999999999998 C 211.68920104011835,415.9999999999999 212.7277853171612,415.99999999999983 213.76636959420426,415.9999999999999 C 214.8049538712473,415.99999999999994 215.84353814829024,416.0 216.88212242533316,415.9999999999999 C 217.92070670237626,416.0000000000001 218.95929097941925,416.0 219.99787525646218,416.0 C 221.0364595335051,416.00000000000006 222.07504381054804,415.9999999999998 223.11362808759097,415.9999999999999 C 224.15221236463393,415.9999999999998 225.190796641677,415.99999999999994 226.22938091872007,416.0000000000001 C 227.26796519576297,415.99999999999994 228.30654947280593,415.99999999999983 229.3451337498489,416.0 C 230.3837180268919,415.99999999999994 231.42230230393486,416.0 232.46088658097779,415.99999999999983 C 233.49947085802074,415.9999999999999 234.53805513506373,415.9999999999999 235.5766394121067,415.9999999999998 C 236.61522368914976,416.0 237.65380796619272,416.00000000000006 238.6923922432358,416.0 C 239.7309765202785,415.99999999999994 240.7695607973215,415.99999999999983 241.8081450743646,416.0 C 242.84672935140762,416.0000000000001 243.88531362845035,415.9999999999998 244.92389790549356,416.0 C 245.96248218253652,416.00000000000006 247.00106645957956,416.0000000000001 248.03965073662252,415.99999999999994 C 249.07823501366533,415.99999999999994 250.11681929070843,415.9999999999999 251.15540356775128,415.99999999999983 C 252.19398784479432,415.9999999999999 253.23257212183722,415.99999999999994 254.27115639888015,415.99999999999994 C 255.3097406759232,415.9999999999999 256.3483249529663,416.00000000000006 257.3869092300094,416.0000000000002 C 258.4254935070522,416.0 259.46407778409514,415.9999999999999 260.5026620611381,415.99999999999994 C 261.5412463381812,415.99999999999983 262.57983061522395,415.9999999999999 263.61841489226697,415.99999999999994 C 264.65699916931004,416.0 265.6955834463529,415.9999999999998 266.7341677233962,415.99999999999994 C 267.7727520004389,416.0000000000001 268.8113362774819,416.0000000000001 269.8499205545249,416.0 C 270.88850483156796,416.0 271.92708910861074,415.9999999999998 272.96567338565376,415.9999999999999 C 274.0042576626967,415.99999999999994 275.0428419397397,415.99999999999994 276.08142621678286,416.0000000000001 C 277.12001049382553,415.9999999999998 278.1585947708688,416.0 279.19717904791173,416.0000000000002 C 280.2357633249548,416.00000000000006 281.27434760199753,415.9999999999999 282.31293187904043,415.9999999999999 C 283.3515161560835,415.9999999999998 284.3901004331265,415.9999999999999 285.4286847101693,415.99999999999983 C 286.46726898721244,415.99999999999994 287.50585326425534,415.99999999999983 288.54443754129846,415.9999999999999 C 289.5830218183415,416.0000000000001 290.6216060953844,416.0000000000001 291.66019037242734,415.99999999999994 C 292.6987746494702,415.9999999999999 293.73735892651325,415.99999999999983 294.7759432035562,415.9999999999998 C 295.8145274805991,415.99999999999994 296.8531117576422,415.99999999999983 297.8916960346852,415.9999999999999 C 298.93028031172815,415.9999999999999 299.9688645887711,415.99999999999994 301.00744886581407,416.00000000000006 C 302.04603314285697,415.99999999999983 303.08461741990016,416.00000000000006 304.12320169694294,416.00000000000017 C 305.1617859739861,416.0000000000001 306.2003702510289,415.99999999999994 307.23895452807193,415.99999999999983 C 308.27753880511494,415.9999999999998 309.3161230821578,415.9999999999999 310.3547073592007,415.99999999999983 C 311.3932916362439,415.99999999999994 312.43187591328683,415.9999999999999 313.4704601903297,415.9999999999999 C 314.5090444673728,416.0000000000001 315.5476287444158,416.0000000000001 316.5862130214588,416.0 C 317.6247972985017,415.9999999999999 318.66338157554463,415.99999999999994 319.7019658525876,415.99999999999983 C 320.74055012963055,415.99999999999983 321.7791344066736,415.9999999999999 322.81771868371646,416.0 C 323.85630296075925,415.9999999999998 324.89488723780255,416.0 325.93347151484556,416.0000000000001 C 326.97205579188847,416.0000000000001 328.01064006893137,415.9999999999999 329.0492243459744,415.9999999999999 C 330.08780862301745,415.9999999999999 331.12639290006035,415.9999999999999 332.1649771771031,415.99999999999983 C 333.20356145414615,415.99999999999983 334.2421457311892,415.9999999999999 335.2807300082322,415.99999999999983 C 336.3193142852752,416.0000000000001 337.3578985623182,416.0000000000001 338.39648283936117,416.0 C 339.4350671164042,416.0 340.47365139344697,415.9999999999998 341.5122356704903,416.0000000000002 C 342.5508199475319,415.9999999999988 343.5894042245802,416.00000000000415 344.6279885016036,415.99999999998386 C 345.6665727787187,416.0000000000588 346.70515705549866,415.9999999997866 347.74374133347936,416.0000000007563 C 348.7823256072674,415.9999999973905 349.82090989523823,416.0000000086907 350.85949413727496,415.99999997249137 C 351.8980785185379,416.0000000802637 352.93666252448503,415.99999979992754 353.97524729752627,416.0000003128318 C 355.0138319463027,416.0000006972358 356.0524054553953,415.9999895622624 357.0910683481676,416.00007085758926 C 358.12920596436805,415.99960897242283 359.17005489071926,416.0019508117404 360.1979020253643,415.99084769651057 C 361.2851376091805,416.0411572709912 362.0876297681363,415.7977981177592 361.9474571293584,414.6500645645759 C 362.16131809015366,413.6751583586877 362.986655514573,413.0045933847766 364.02767948469415,413.0050433024796 C 365.0278224633161,412.9642763652669 364.98879002649625,411.8879462102787 365.00384953491357,410.86392506105824 C 364.9987824240967,409.8204406916303 365.00036589510984,408.7833876923773 364.9998939001452,407.7443469779254 C 365.0000299478171,406.70589426424976 364.99999172792434,405.66727302709035 365.00000224348537,404.62869891900203 C 364.9999994012798,403.5901118934363 365.00000015743126,402.551528347621 364.99999995918387,401.5129438788652 C 365.0000000104361,400.4743596513851 364.9999999973691,399.43577536170574 365.0000000006534,398.3971910878388 C 364.9999999998402,397.35860681000963 365.0000000000382,396.32002253315795 364.99999999999096,395.28143825606935 C 365.0000000000019,394.2428539790369 364.9999999999995,393.2042697019916 365.0,392.16568542494923 C 364.99999999999994,391.12710114790616 365.0000000000001,390.0885168708632 365.00000000000006,389.0499325938202 C 364.99999999999994,388.0113483167773 365.0,386.9727640397344 364.99999999999983,385.93417976269103 C 365.0,384.8955954856482 364.99999999999994,383.8570112086055 364.9999999999999,382.81842693156227 C 365.0,381.77984265451937 364.99999999999994,380.74125837747647 365.0,379.70267410043334 C 365.0,378.66408982339067 365.0000000000003,377.6255055463473 364.999999999999,376.5869212693054 C 365.0000000000035,375.5483369922576 364.99999999998505,374.50975271523333 365.00000000005764,373.4711684381181 C 364.9999999997789,372.43258416135353 365.00000000083537,371.3939998832542 364.99999999688964,370.35541561015674 C 365.0000000113855,369.3168313186182 364.99999995912606,368.2782470938349 365.00000014332477,367.2396626325932 C 364.9999995122928,366.2010789865818 365.00000159299316,365.1624926288386 364.999995105647,364.1239148391415 C 365.0000135400246,363.08531212772135 364.9999702816866,362.0467711090161 365.00002072803227,361.00813638562715 C 365.00030736136347,359.96926547525334 364.9972587088932,358.93372985068083 365.01664557958895,357.8757587029406 C 364.90954759936125,356.9442724061346 363.7977851111618,357.0174506172467 362.78186038539985,356.9947910661699 C 361.7365641713268,357.0015030022885 360.69990549156967,356.9995774089496 359.66078227002527,357.00011633676337 C 358.62234580163835,356.99996859725906 357.5837217293213,357.0000081109423 356.54514782705434,356.99999886493845 C 355.5065615720444,356.99999638381735 354.46797493938425,357.00001610906276 353.42940227051196,356.999937775469 C 352.3907733904918,357.0002350740701 351.35235565011277,356.9991259313133 350.31316039060187,357.0031948881677 C 349.2767750654984,356.9885505909386 348.23045636061977,357.04005932631384 347.3148175127906,356.5421391554229 C 346.9364590909893,355.5986960170434 347.08731645580906,354.45764127366283 346.5722573010256,353.92150699039445 C 345.4384715791199,354.0199488214111 344.42401242498204,353.9950025480043 343.3794029170562,354.0012328605932 C 342.34230012438877,353.99970095070705 341.303357826498,354.00007115756523 340.2648583715104,353.99998344840856 C 339.2262544671083,354.0000037438274 338.18767460044546,353.9999991833303 337.1490893697862,354.00000016940487 C 336.1105052880366,353.99999996746425 335.0719209742672,354.0000000054406 334.0333367031066,353.9999999993581 C 332.9947524254676,353.9999999999745 331.95616814834835,354.000000000053 330.917583871381,353.99999999997493 C 329.87899959430507,354.000000000009 328.840415317274,353.99999999999693 327.8018310402272,354.0000000000008 C 326.7632467631853,353.99999999999955 325.72466248614205,354.0000000000001 324.6860782090993,354.0000000000001 C 323.64749393205614,354.0 322.60890965501324,353.9999999999999 321.5703253779702,353.99999999999994 C 320.53174110092715,353.9999999999999 319.4931568238844,353.99999999999994 318.4545725468413,353.99999999999994 C 317.41598826979816,353.99999999999994 316.3774039927554,354.0 315.33881971571236,353.99999999999994 C 314.30023543866935,353.99999999999994 313.26165116162645,353.99999999999983 312.22306688458343,354.0 C 311.1844826075407,354.00000000000017 310.14589833049763,354.0000000000001 309.10731405345456,353.99999999999994 C 308.06872977641166,353.99999999999994 307.03014549936836,353.9999999999999 305.99156122232574,353.99999999999994 C 304.9529769452827,353.99999999999994 303.9143926682396,353.99999999999994 302.8758083911967,353.99999999999994 C 301.83722411415386,353.99999999999994 300.79863983711084,354.00000000000006 299.7600555600679,354.00000000000006 C 298.72147128302475,354.00000000000006 297.68288700598174,353.9999999999999 296.64430272893895,353.99999999999994 C 295.60571845189577,353.9999999999999 294.5671341748529,353.99999999999994 293.5285498978098,353.9999999999999 C 292.4899656207669,353.9999999999999 291.45138134372417,354.0 290.41279706668115,354.00000000000006 C 289.374212789638,354.00000000000006 288.335628512595,354.0000000000001 287.2970442355521,354.0 C 286.2584599585091,353.9999999999999 285.2198756814661,353.9999999999999 284.18129140442306,353.9999999999999 C 283.1427071273804,353.9999999999999 282.10412285033715,353.9999999999999 281.0655385732942,353.99999999999994 C 280.02695429625123,353.99999999999983 278.9883700192082,354.0 277.94978574216555,354.00000000000006 C 276.9112014651223,354.00000000000045 275.8726171880796,353.999999999998 274.83403291103537,354.0000000000098 C 273.795448633998,353.99999999995333 272.7568643569295,354.0000000002096 271.718280079999,353.9999999990854 C 270.6796958024751,354.00000000389116 269.6411115274429,353.999999983789 268.60252724214547,354.0000000663236 C 267.5639429984398,353.9999997329942 266.52535858877354,354.0000010590497 265.48677483186447,353.9999958584068 C 264.44818854310705,354.00001597285575 263.409611938315,353.99993926063235 262.3709988261634,354.0002275730543 C 261.33252121997003,353.99916100758713 260.29354929075504,354.00303700952986 259.2563446709999,353.9892422865427 C 258.2129749131831,354.03709067774724 257.28627645811395,353.5350623654941 256.9678528325166,352.5605519640829 C 256.9698173167784,351.5074749338206 257.24683229109445,350.52837577675245 258.13815605806775,349.9638985173318 C 259.2169635529543,350.0397698456186 260.0780236416189,349.84599572131185 259.9546280613463,348.71215811181395 C 260.12854938274825,347.7264327859572 260.9325558472023,347.0249184108321 261.96042537993816,346.99292677647907 C 263.00189217976947,346.9980853895709 262.9914674263174,345.9521267715519 263.02765457622604,344.92580774241736 C 263.732935642945,344.12462082714126 264.7199134357086,343.95564291832045 265.85203950072406,344.076429767185 C 266.03849284138306,343.2087558606683 265.96440651341436,342.12972388324687 266.54324165769304,341.2566775300511 C 267.49458424584276,340.93624344312116 268.6431672969493,341.09366218265313 269.07933900816363,340.4670851639987 C 268.937180035898,339.3381351121794 269.36949087171587,338.41506900906575 270.28048841728446,337.9414183002173 C 271.39755623004277,338.0699354120593 272.0938687445648,337.7048644516912 271.939388631607,336.5549099841946 C 272.21770186040845,335.5937767051868 273.07367636109956,334.9778573221037 274.1374869913009,335.02540226239154 C 275.0619292437876,334.89981303288465 274.9643424667465,333.78399808602035 275.0938931888705,332.7867820532735 C 275.87063153818167,332.0516982501217 276.88480233370854,331.97999076403454 277.96354031100844,332.0298228286488 C 278.0053482311297,331.0293422312685 278.00408342222687,329.9880664882016 278.67341715697233,329.1619652042425 C 279.6493671739665,328.9474811936978 280.793215732289,329.0872797409386 281.0526101709725,328.28884065800986 C 280.95252428555494,327.1929973102048 281.48797348537056,326.3027394404908 282.42790350937724,325.93490808294126 C 283.5707057221191,326.08980610013754 284.0875270476535,325.54323563786585 283.9350376662827,324.4035539743626 C 284.32031908850166,323.46800239374204 285.2164617532289,322.94896126558467 286.3182909712953,323.0575547129358 C 287.08994605448237,322.7702464800396 286.94493415783404,321.62368573226826 287.1764725314902,320.65173549887135 C 288.0110923188082,319.99633057544736 289.05825217061465,320.0106783860238 290.03971438476907,319.94759249373493 C 289.97552392638926,318.8573421706348 290.0624523794616,317.8479201907531 290.80924995861903,317.08191545397676 C 291.81086515792174,316.9683009136886 292.9181825223075,317.0544962786389 293.01994798251604,316.1081433056776 C 292.98424485881196,315.0505632699567 293.6150060768063,314.2021797720053 294.5801353855034,313.94119513932486 C 295.72948223542164,314.0929617189695 296.06556604813755,313.3684453111482 295.94384772031606,312.25679999806044 C 296.43437896981436,311.35110530694794 297.3621656575873,310.9360777869674 298.4954306390648,311.0826780455734 C 299.0926576112332,310.61680974775385 298.93547156403713,309.46987368385055 299.27338720276856,308.52267349368026 C 300.153006387461,307.9596386904361 301.238308424034,308.043798065141 302.08106986511245,307.8309559246979 C 301.9524265561552,306.6937339140393 302.13804934079366,305.71086576707717 302.94873465305244,305.0185336887945 C 303.9803942155305,304.9964735241735 305.01065000308506,304.9886031511833 304.9880228628509,303.93233027533955 C 305.03438394901474,302.9096635620138 305.7485832364673,302.11539541316387 306.73850006347857,301.9580503904448 C 307.86646175620234,302.07268727415516 308.03470074041707,301.1879174852862 307.96804787263045,300.1133320374723 C 308.55787609479046,299.24509085435955 309.51210409199336,298.9369778073295 310.6614819808534,299.094057265903 C 311.07677890847054,298.4469268497802 310.9381837641644,297.3212459229312 311.3826317937934,296.40160144736393 C 312.29725671323223,295.93994560845897 313.417985022443,296.07285958402736 314.0941491165764,295.68716452041724 C 313.93828874818615,294.5372082288537 314.22886855536956,293.57890856979975 315.09000858442494,292.97364366834347 C 316.1582503868278,293.02924683756453 317.0666643447527,292.8863507716539 316.96164611213686,291.76516405843813 C 317.102731172434,290.77101471199364 317.88687490747594,290.044421023262 318.90391604330443,289.9831784493381 C 319.97507884980206,290.0224109867538 320.0010607934197,289.0089785386941 320.0008695894234,287.97033606134875 C 320.00088890461234,286.93043073729297 319.99129050836734,285.8910716957984 320.0487357867132,284.8611380992579 C 320.78845501768404,284.0887058482375 321.78997963548494,283.9656983513543 322.9034507817727,284.06038385593854 C 323.02432938010713,283.1316005300332 322.9790979241641,282.0690208198631 323.5980390355142,281.214559284144 C 324.55996928500366,280.93972734747365 325.7098558210952,281.0937347129909 326.0690939874201,280.39171878399446 C 325.9418132644637,279.27570737696396 326.4193027490108,278.36583273077997 327.3422515142094,277.936810474327 C 328.4755423107751,278.0804946549334 329.0825644140232,277.63607938890084 328.9793056938885,276.49681693897537 C 329.00238801509414,275.4837554938896 329.0105954424378,274.4407658590544 328.95490346800227,273.3952576037431 C 329.3306481422112,272.43675586580207 330.24415942085034,271.94692502569296 331.3505513813466,272.06243661614764 C 332.0922381512874,271.74403498246085 331.9423781990845,270.59526221985675 332.193087598689,269.62779346466255 C 333.03676354951295,268.9882989800288 334.09066195669567,269.01669552232255 335.0496370339521,268.92875327829694 C 334.97074269054514,267.8270253619282 335.0750589015227,266.8227440338719 335.83461904956056,266.06914059577326 C 336.84043495168714,265.9728387603416 337.9393445987115,266.0454690335944 338.00954050531095,265.0748993548144 C 337.99912613362824,264.02606888467244 338.0001187449147,262.9883676933909 337.9962253156176,261.9493845849041 C 338.02732837243633,260.9153871988294 338.7365438312344,260.1169740931015 339.7281457304583,259.9573316586496 C 340.86115265697225,260.0751074179045 341.0275736668928,259.1979525420601 340.9949422903263,258.12723293319544 C 340.9994970468388,257.0947391789874 341.00345356194043,256.05578465318837 340.99563370860506,255.0161647145056 C 341.6427509217844,254.17424794483364 342.6190351850841,253.94542789319365 343.76887040749796,254.09066649512056 C 344.04661312379704,253.32194476383864 343.99008064300335,252.22787685228712 343.999734854494,251.20140706949792 C 344.0080628846851,250.1617334698525 343.97387709857026,249.1185151408737 344.5518530281984,248.23833264618804 C 345.5130312327314,247.93821900797215 346.6649494396886,248.0942834282864 347.0640967424953,247.444404051396 C 346.9852545729543,246.32866878617708 347.0005484388583,245.30817808439758 347.0104411270686,244.26732873867843 C 346.96087634964545,243.22218652362454 347.46461546436007,242.30868633445485 348.4096453303406,241.9363812972436 C 349.55186482952263,242.0881655306688 350.07767561241855,241.56287961980584 349.98030556793316,240.43014736933864 C 350.0049760168736,239.41535675012267 349.9985571247514,238.37080820433042 350.0011590245507,237.3338396209868 C 349.99679001330117,236.29430446995104 350.01114845964145,235.25794582074977 349.9615835430286,234.21190268897914 C 350.4730364625261,233.30176859097452 351.41950642899906,232.93627435594405 352.5631965415825,233.0891367009633 C 353.07640696221165,232.5516261306701 352.9815212241293,231.42039125292408 353.0015418299449,230.4045441988342 C 353.01102185691934,229.36248732343952 352.95549490434854,228.31677707923342 353.3896224802902,227.37717220363697 C 354.31806559185367,226.93989417535184 355.4440673171065,227.07613255343048 356.0840091493424,226.6643340890322 C 355.9779678406046,225.52319874852392 356.00569663718306,224.51143167539175 355.9985512285923,223.46593271689545 C 356.00034866867213,222.42910390674882 355.9999725072113,221.39009075554333 355.9997878856061,220.3515706870047 C 356.00085036548404,219.31312363294796 355.9969360128529,218.27395690140457 356.0107195766353,217.23744109190068 C 355.96364896208115,216.19178909058274 356.4896634891498,215.2877879921477 357.4393975662651,214.9362945131259 C 358.58547474459465,215.0908181777095 359.07437586447867,214.52905152618737 358.9813724019488,213.4005251592968 C 359.0045941672761,212.3843982622982 358.99888594531416,211.34029365946742 359.0002649935276,210.30304303683843 C 358.99993838678364,209.2641429038874 359.00001392909684,208.22563168254928 358.99999696365916,207.18703099851618 C 359.00000062920515,206.14845026636107 358.99999987935354,205.10986526414914 359.0000000201089,204.0712811232282 C 358.9999999976528,203.0326968244685 358.9999999998937,201.9941125495926 359.00000000020094,200.95552827284675 C 358.9999999999062,199.91694399551875 359.0000000000341,198.87835971859954 358.9999999999887,197.83977544151267 C 359.00000000000347,196.80119116448392 358.9999999999988,195.76260688743665 359.0000000000005,194.72402261039466 C 358.99999999999926,193.68543833335235 359.00000000000307,192.6468540563057 358.9999999999875,191.60826977927772 C 359.0000000000501,190.5696855021741 358.9999999998004,189.53110122537248 359.00000000078165,188.49251694738084 C 358.9999999969787,187.45393267401545 359.0000000115131,186.41534838291668 358.99999995676546,185.37676415881901 C 359.00000015979333,184.33817968543136 358.99999941989404,183.2995961239328 359.00000206206954,182.26100929168592 C 358.9999928585209,181.22243391524054 359.0000239022287,180.183819616348 358.9999237762981,179.14533216941444 C 359.000225239549,178.10645635231424 358.99942311935683,177.0686477922652 359.0010004534705,176.02853810183743 C 359.0012286584199,174.98973313161292 358.9743758133539,173.9771213551491 357.9029044211589,174.01679820748762 C 356.88445966255955,173.9564512675315 356.094802723356,173.2350897677418 355.9810120390058,172.21506459854288 C 356.00407484807164,171.17301774011852 355.9991759842709,170.1351675653379 356.00014832095627,169.09644168488498 C 355.99998620839574,168.0578706344356 355.9999891639185,167.01930423367196 355.99994943233196,165.98075717007885 C 356.0006038520935,164.94153930506516 355.99606766934966,163.90734232487347 356.02131022943365,162.8443462206088 C 355.8895500658375,161.93335734769423 354.7662734345933,162.0376499198347 353.7692082030224,161.90089934358087 C 353.0405258308002,161.11856329259427 352.99299519794397,160.08730205172432 353.0009963738788,159.04750672331477 C 352.99994627101216,158.00909173685818 352.99988191418265,156.97057691904178 353.00074245085597,155.93121034110712 C 352.9955964985523,154.89757724771144 353.02311659100144,153.8323882896107 352.881672414399,152.9307936653949 C 351.7554566137157,153.0391061809325 350.7598983377843,152.8959736273441 350.0366165031646,152.10904341734377 C 349.9940725128629,151.0767827892251 350.0004296995088,150.03765922532926 349.9999652392917,148.99890356088568 C 350.0055836218064,147.95483921805666 349.955968803098,146.96431487043333 348.86912525681754,147.0223003703066 C 347.8562217199309,146.94400941064836 347.08030447632785,146.20720903547243 346.9843519935155,145.1836478963005 C 347.0022333056631,144.143510989477 347.0024595434881,143.1015191519178 346.99231117144893,142.07333795006545 C 347.01288670482325,141.01476481867795 345.9870174363398,141.00233911522741 344.95421187326815,140.98352570427483 C 344.14144668958306,140.29426567808946 343.9516375722625,139.3124305114246 344.0821631705336,138.17400648939255 C 343.24489984145396,137.95531383505747 342.15966742681445,138.04027876110115 341.2674657483414,137.4917056757061 C 340.95755073369423,136.51443515947147 341.0093768142293,135.46969189160083 341.0032327304401,134.42585991428945 C 340.97806661747813,133.41442094383487 341.08398683679644,132.2727091373533 340.37143790742954,131.93394551342558 C 339.2569268819265,132.05631701337745 338.35196263670497,131.56611391478273 337.9360401960047,130.6385263286491 C 338.08260537519976,129.5053645482241 337.61755716090045,128.90730776621226 336.4705720265577,129.06451081120596 C 335.5232519716173,128.7270901669581 334.95976736889867,127.84765310844742 335.0436493060152,126.76252765425015 C 334.8315624898691,125.91905091861513 333.69447192965407,126.04748568471167 332.7114883151975,125.86233617343262 C 332.0187849315695,125.05191460841345 331.9963299768338,124.02040888416735 331.98899311653054,122.98969142717904 C 330.9331217962554,123.01184045574993 329.91031039054786,122.96589053511283 329.11576134104826,122.2520453983535 C 328.9579517022954,121.26224713550432 329.07284496762344,120.13410918276725 328.1887527321637,119.96514658830479 C 327.11398883129584,120.03210256553145 326.24555211711777,119.44271317725702 325.9369455954042,118.48859861105475 C 326.09404581580054,117.33925232296025 325.4477404082618,116.92309826655803 324.32191161585735,117.06192339280116 C 323.40219840583677,116.61754141020272 322.939897290583,115.70403757469072 323.0731521736232,114.58039126913835 C 322.6862186337833,113.91581278267975 321.5446063616367,114.02156457971003 320.53266450244166,113.99713246799895 C 319.48918164076287,113.98996333027397 318.4440131449658,114.04412688972316 317.4750700996131,113.70374290693596 C 316.95310383556426,112.8020269965157 317.05338525396184,111.70474353494606 316.78816832791983,110.91948423437351 C 315.6501013034037,111.02174952176851 314.63853106942275,110.99633003022582 313.5943339319313,110.9918491173653 C 312.5503925376537,111.03879050210652 311.5614150595799,110.77490453384199 310.97228229067497,109.90035771598333 C 311.0310376694556,108.83084056442684 310.879023357907,107.93087363338509 309.755046513092,108.03977539552935 C 308.76255187887443,107.89247549983845 308.0405860753341,107.10447343213072 307.98496946335104,106.08549783433821 C 308.01811631415995,105.01953747544219 306.9982384832274,105.00020508279614 305.96111113923376,104.99888684290505 C 304.92089267380885,104.99895599384321 303.8814478038722,105.0095847163264 302.8522727023003,104.94738903333702 C 302.08431650595816,104.202614917999 301.9670459456893,103.20055148735588 302.057966136766,102.08737752008705 C 301.1193972193052,101.9840539476616 300.06290501733304,102.00257822366119 299.0270699153881,101.99972258532091 C 297.9882561972317,101.99995381088738 296.94956805145824,102.00031246642571 295.9113614084394,101.99804566310094 C 294.8708476913039,102.01079161487485 293.842860953666,101.94310389427923 293.0796679132895,101.19325055752117 C 292.96864458706966,100.18958597902788 293.0548248374071,99.08008367118494 292.1075213613709,98.98577483713646 C 291.05310830528106,99.00214238497102 290.0167537578311,98.99983675830913 288.9780640775568,98.99994574117675 C 287.9393911900763,99.00003748454496 286.9008579286463,98.99998394176636 285.86225303615873,99.00000961676534 C 284.823679331626,98.9999769582775 283.78507483987295,99.00009974782995 282.74657261360693,98.99955685154099 C 281.70763348167094,99.00191904742707 280.670556008046,98.99188452158468 279.62570226973054,99.03363698298145 C 278.6254276037404,98.82068166060886 277.9907281465415,97.97013100943659 278.0149397820348,96.91808470517572 C 277.9337314040417,95.95543110751365 276.8375576116841,96.01498080597797 275.81798569013586,95.99532132402851 C 274.77352858417345,96.00139404732492 273.7366809500799,95.99959829399369 272.69759907652076,96.00011282727866 C 271.65915392852014,95.99996896267959 270.6205315241127,96.00000838779117 269.5819575165765,95.99999776873963 C 268.54337051604267,96.00000058493016 267.5047869509044,95.99999984879433 266.46620249035504,96.0000000385469 C 265.4276182599588,95.99999999031243 264.3890339712278,96.00000000239821 263.3504496970687,95.99999999941602 C 262.3118654193261,96.00000000013956 261.27328114244966,95.99999999996734 260.23469686536794,96.00000000000742 C 259.1961125883338,95.99999999999835 258.15752831128873,96.0000000000003 257.1189440342462,95.99999999999993 C 256.0803597572033,95.99999999999997 255.04177548016037,96.0 254.00319120311735,96.00000000000001 C 252.9646069260742,96.0 251.92602264903138,95.99999999999997 250.8874383719884,95.99999999999997 C 249.84885409494532,95.99999999999997 248.8102698179023,95.99999999999999 247.77168554085938,95.99999999999997 C 246.73310126381642,95.99999999999996 245.69451698677355,95.99999999999997 244.65593270973054,95.99999999999997 C 243.61734843268755,96.0 242.57876415564468,96.00000000000001 241.54017987860158,95.99999999999999 C 240.50159560155868,95.99999999999999 239.46301132451558,95.99999999999996 238.42442704747253,95.99999999999997 C 237.38584277042983,96.0 236.34725849338673,95.99999999999994 235.3086742163437,95.99999999999996 C 234.2700899393008,95.99999999999997 233.23150566225792,96.0 232.19292138521493,96.00000000000001 C 231.15433710817186,95.99999999999999 230.11575283112882,96.0 229.07716855408592,96.00000000000001 C 228.03858427704293,95.99999999999999 227.0,96.0 225.00000000000003,96.00000000000003 " fill="none" stroke="black" /></svg>