<?xml version="1.0" encoding="utf-8" ?>
<svg baseProfile="tiny" height="100%" version="1.2" width="100%" xmlns="http://www.w3.org/2000/svg" xmlns:ev="http://www.w3.org/2001/xml-events" xmlns:xlink="http://www.w3.org/1999/xlink"><defs /><path d="M 375.0,160.0 C 375.00022193296195,161.02231015209816 374.9990568622613,162.04445461915878 375.00514072188895,163.0674650098829 C 374.973410889395,164.0858845514732 374.2859212619572,164.88304607288362 373.2834690749721,165.0247373276687 C 372.2575019307326,164.9939260409505 371.2361210177638,165.00147706260384 370.2136183292503,164.99964480268886 C 369.19138722968694,165.00008429454138 368.1690911576471,164.99998031314638 367.1468104090211,165.00000450691417 C 366.1245261089631,164.9999989945614 365.10224261417693,165.00000021662763 364.07995894153305,164.9999999553752 C 363.05767530810164,165.0000000092833 362.03539166270946,164.99999999639527 361.01310802740693,165.000000003401 C 359.9908243919806,165.0000000089097 358.96854062461836,164.99999988222524 357.94625787386485,165.0000007746097 C 356.92396926478904,164.99999579482633 355.90171057288666,165.00002080275107 354.8793090684806,164.99990266153247 C 353.8575602075068,165.00043870214463 352.8329192959954,164.99807587514033 351.82080083445805,165.00826501575585 C 350.7554363780773,164.96508265123126 349.92565119743335,165.15800542571185 350.02227969511284,166.27516556148106 C 349.9877301339528,167.27006037095012 350.02802868897254,168.30363458639496 349.8730468982816,169.30199144197863 C 349.0682392482808,169.97940246088476 348.04894229184436,170.00363582867854 347.02615396675594,169.9994900332765 C 346.0039348154704,170.00001977565688 344.9816516797674,170.00002380400045 343.95936332022217,169.99998628168265 C 342.93708305763283,170.00000632218234 341.9147928625842,169.99999335561893 340.8925371801734,170.00002356752248 C 339.8701251802995,169.99989420486938 338.84841602675493,170.00047026221063 337.8236246865518,169.99795658746538 C 336.8120729488884,170.00871380667883 335.74458615703963,169.96340409854002 334.9242427983548,170.16578731985283 C 335.0226492027103,171.28465644975697 334.98743782599934,172.27914287080452 335.02886863974504,173.31292334802797 C 334.8682535113897,174.31028306525627 334.05943148074834,174.9823199048786 333.0396778866179,175.00291001975853 C 332.01700147080544,174.9996740472078 330.99475460759214,174.99997502709107 329.97245759852996,175.00001523383406 C 328.95032573366177,175.00012218794373 327.92713845199194,174.99923612162382 326.90947104789103,175.00385609533294 C 325.86518065521017,174.9817998393425 324.946044178121,175.08518307121616 325.01695154350926,176.17732573377782 C 324.9911545151429,177.17834978778296 325.0190812160969,178.20927591642396 324.91820693100834,179.2166320471193 C 324.15679750017745,179.94580021900725 323.1429939019202,180.01172430379188 322.11896693103876,179.99740348416606 C 321.09706677144817,180.0005534610446 320.074702112755,179.99988852546562 319.0524347457364,180.00002053919448 C 318.03014770640965,179.9999965791781 317.0078652230998,180.0000005897677 315.9855839112586,180.00000282941923 C 314.96327073144533,179.99997307998225 313.94117956780957,180.00016609000053 312.91785493424203,179.9991226123624 C 311.90071042169166,180.00427386552875 310.85441179572297,179.98020226946124 309.9435135710658,180.09184258198934 C 310.0176107276415,181.18710618377202 309.99078152454405,182.18735696187355 310.01998473742145,183.218589249556 C 309.9140415420947,184.22514346832355 309.14813661395647,184.94943155287626 308.13371425966443,185.01087986866 C 307.10982262884164,184.99762850974915 306.0878703242596,185.00048228080152 305.065568515088,184.9999436095947 C 304.0431554875295,184.99991334014388 303.0211665378523,185.00019232431214 301.998736229678,185.00004711338931 C 300.9731289304572,184.9967157874244 299.9787825512755,185.02471846895017 300.0084608394166,186.07629207402786 C 299.9953318463946,187.08745682567567 300.0099749673804,188.11471050107403 299.95675181454067,189.12929247262457 C 299.24362535087596,189.90521114126545 298.23712737202374,190.02049979198677 297.21175724794824,189.99508035477018 C 296.1901840968923,190.00114366492505 295.1678338920705,189.99981201889193 294.14522110746594,189.99977609085332 C 293.1241566372359,190.000931246679 292.0979233472514,189.99698708704375 291.0877727505266,190.00914558086714 C 290.0309364026923,189.97451206000386 289.9950184117177,190.96107833986588 290.00064777416617,191.98866134105728 C 290.0008427767365,193.01067703428262 289.99091824556893,194.0315783526834 289.335845724734,194.8524636540722 C 288.34217098713214,195.0315100987736 287.3077289323556,194.98655808432358 286.3142639277147,195.02363838896278 C 285.19110614445844,194.92049233452963 284.95738467411036,195.7104107252527 285.01284204107435,196.7849731184649 C 284.9880011177115,197.79325300809407 285.03391253155456,198.82370756561184 284.51947488109283,199.721435593962 C 283.5557824790584,200.0431045750764 282.52687933722956,199.9886580660165 281.50630276345356,200.0029452755004 C 280.4837027402121,199.9993354615106 279.46100394705866,199.999777435037 278.44071568543586,200.00155493517215 C 277.4107895290516,199.99395186399335 276.4172502722385,200.022749244431 275.28749535416785,199.91502841004393 C 274.9395320244315,200.5902898687672 275.018116224114,201.6876740573506 274.9847801869449,202.6894267995886 C 275.04276894171153,203.72294606392353 274.59983534514515,204.64812707176156 273.65932716811295,205.0450976947559 C 272.6245468452222,204.98365609067662 271.6262661523185,205.02087779830097 270.516734297574,204.9299010642308 C 269.91561439735324,205.35279985828433 270.0248800278775,206.48101269715391 269.9834385710161,207.4738313727932 C 270.04277789323834,208.50970663788266 269.7528653367599,209.4802295852871 268.8697396693316,210.02710692929298 C 267.8431722374114,209.99189446921054 266.82215123320583,210.00236232898175 265.7995520992152,209.9993629057021 C 264.7771376718759,210.00000168760775 263.75580921990206,210.0007410930467 262.7294899965978,209.9967570794456 C 261.72364516253157,210.0132176824349 260.6350714382104,209.94677600807987 259.91539689499933,210.25000922145605 C 260.02497800140605,211.3793880961984 259.9849576693465,212.371474403264 260.0367025019794,213.4069134799642 C 259.81601703434285,214.392411893757 258.96971688691303,215.00779285810594 257.94542182462186,214.99604462776523 C 256.92730724024653,215.00427588735295 255.88673955837825,214.98454682712082 254.95171479419952,215.0722809251753 C 255.0146778609956,216.15737405877888 254.99564270327204,217.16069158455136 255.00130558617582,218.18852008333707 C 254.99945880172828,219.20940508768433 255.00085169433532,220.23122379393982 254.99688302520428,221.25720612250313 C 255.012607128175,222.26387536637796 254.94904327143274,223.34955326871133 255.2375679987224,224.0839184225628 C 256.36616444772255,223.97520672745333 257.35843066382904,224.01473050749846 258.3935978203426,223.96437902608173 C 259.38134133812434,224.1759133415126 260.0045797346572,225.01765148603923 259.9973771588855,226.04081192216572 C 260.0010463517674,227.0626488948745 259.99963545917166,228.0851043142985 260.0001182836681,229.10732905445352 C 259.99996283558585,230.12963219844917 260.0000134242304,231.1519070840538 259.9999862448451,232.17420537240366 C 260.0000458143115,233.19643323131967 259.99981122509365,234.21894986067176 260.00078185040985,235.24026545670253 C 259.9967926511903,236.2665288322256 260.0130359050856,237.27260744077867 259.94745202402885,238.36032072709776 C 260.2462596850623,239.0844147463238 261.37542157037734,238.97507671237105 262.36757615415877,239.01493468185973 C 263.4028561272922,238.96368128965184 264.38938019524414,239.1812667775775 265.00677667031215,240.02655966248585 C 264.99683564625747,241.05005345935257 265.00117918832956,242.07180834047676 264.9996030486423,243.0942838791794 C 265.00012615169976,244.11650370369344 264.99996090171766,245.13880808842845 265.00001403883107,246.16108248294455 C 264.99998552101243,247.18338161811832 265.0000481562498,248.20560653352788 264.99980257388324,249.22813410343576 C 265.0008139171259,250.2494090834047 264.99667444588965,251.27582237619345 265.0134689052279,252.28135107583392 C 264.9458764539361,253.3710682089027 265.2550367679461,254.08482666576614 266.3846567951265,253.9749691281908 C 267.3767277227896,254.01512917239458 268.4121107498574,253.96300287282898 269.39739127014946,254.18667507408327 C 270.00890035514954,255.03547689391954 269.996314008708,256.0592918211722 270.0013025611163,257.0809728999844 C 269.9995939494472,258.10344131107763 270.0000316215069,259.12578021896434 270.0004158715732,260.1475282246444 C 269.99802151995874,261.17224630865195 270.0085109521884,262.18405176427626 269.9641504087488,263.25059549996837 C 270.1623187128646,264.0751444054312 271.2804451223036,263.9775115936763 272.2751086805541,264.012433437281 C 273.308798860767,263.97150299947947 274.3066036880118,264.1296107319243 274.9810331732858,264.9366558375614 C 275.0032306209982,265.95620800439883 274.99959247760154,266.97893453092126 274.9999941747417,268.0011692710095 C 275.00003014840973,269.0234485122089 274.9999846979747,270.04573785946064 275.00000678652077,271.0680177839836 C 274.99999294824573,272.0903084306727 275.000024799881,273.11256257911765 274.9998895689786,274.134980408755 C 275.00048787028356,275.1566673765807 274.99789006116004,276.1815426518943 275.00896364287917,277.19277877135465 C 274.96247144480327,278.2614452722781 275.1701573724372,279.0764962566943 276.2899213886525,278.9771568089455 C 277.28419505379014,279.0127209812886 278.3180860501899,278.97066905388715 279.31488196753514,279.13443727157295 C 279.9839101878842,279.9454703907291 280.00251394423765,280.9654712451476 279.9997735012139,281.9880876018209 C 279.99995120163277,283.01034841315226 280.0000175006624,284.0326464775108 280.00013591072434,285.0547602233723 C 279.9991769986183,286.0780218244065 280.00408642851835,287.095400050653 279.980914142792,288.14080394641985 C 280.08887043605415,289.0553773720872 281.1827667813443,288.9826782264694 282.18335613659565,289.0090537454469 C 283.2144536727654,288.9804162756861 284.2213662978272,289.08410068608777 284.94782762772786,289.84801502355737 C 285.0112533212027,290.86216566235277 284.99753100819055,291.8861144669453 285.0005070839427,292.9080525127595 C 284.99993928032507,293.93035534011784 284.99990607114853,294.95277883936006 285.0002280815004,295.9747222299622 C 284.9999013283185,296.99733488885914 284.9972992791921,298.02222063050954 285.0223883103322,299.01941506303507 C 286.07174589294704,298.99234120934034 287.0837170474821,299.0026536623558 288.1095118452255,298.9991425169202 C 289.13067282308765,299.0002651769215 290.1533011933788,298.99992044654954 291.17548194955236,299.00002334070837 C 292.1977956350497,298.99999325505024 293.22007072155833,299.00000198323704 294.2423564528894,298.9999991712682 C 295.264640887357,299.0000013429551 296.2869186927511,298.99999511117204 297.30922660285586,299.00001954284795 C 298.33141283565527,298.99992187619716 299.3540840664564,299.0003103874375 300.37483524589663,298.9987743114625 C 301.4031430156229,299.00481264068833 302.4018737612376,298.9812042267663 303.51577117675265,299.0730339512974 C 304.082787825903,298.6169311102432 303.975565328131,297.4906447586045 304.0167584447283,296.4972091585386 C 303.9560828232255,295.461363720803 304.266220306984,294.4958419480605 305.1586099051942,293.9688826209296 C 306.1857806683401,294.0090560328764 307.2066612320038,293.9974167436037 308.2292845531799,294.00068128302627 C 309.2517255736932,294.00001372232134 310.27292893443763,293.9991614380174 311.2997141117878,294.0036097562644 C 312.30385535949296,293.9854421327471 313.39861043444176,294.0580796111911 314.0855089954665,293.7220179679302 C 313.9747871395301,292.59168573919584 314.01560863529573,291.5997375003324 313.9612563920793,290.56401211710613 C 314.20126888812484,289.58257836678604 315.05825508286296,288.98577581413747 316.0839371571142,289.005843792892 C 317.10020593738193,288.99405653795947 318.14702277223,289.0205053839452 319.0567815192944,288.90714914521914 C 318.98231300397566,287.81169506839416 319.00926385739876,286.8114824420694 318.979900802893,285.78022854662515 C 319.08649340101016,284.77377261758335 319.85296760796683,284.05011060716856 320.8674673077581,283.98922703551716 C 321.8913425711284,284.0023436055291 322.9132989646023,283.9995248046984 323.9356004510273,284.0000551606716 C 324.95801056012107,284.0000845568828 325.9800124379257,283.9998180091705 327.0023902248974,283.9999107065559 C 328.02820809871423,284.0034530707428 329.02171224594645,283.97460619790996 328.9914112675001,282.9224176193229 C 329.0047247836386,281.91140737800043 328.9899133416868,280.8841011579256 329.0436893209734,279.86960047191815 C 329.7574523063277,279.09423776386245 330.76405466141335,278.97961091077894 331.78940771244635,279.00488991015516 C 332.8109853415914,278.99886419424536 333.83333480004035,279.00018625810276 334.8559458895538,279.0002228301573 C 335.87701871836595,278.9990754350045 336.903217020576,279.0029846861255 337.9135117519705,278.99097062466575 C 338.96975823289864,279.025012899055 339.0048027213698,278.0375787741082 338.99941724007226,277.0102167194659 C 338.9990640827935,275.9881353337664 339.00939898419716,274.96727373310097 339.6645562768901,274.1462547404041 C 340.6606738159394,273.97025845924946 341.687474218757,274.00743797096345 342.7086642999281,273.9981792974618 C 343.7310900696441,274.000347327565 344.75380466923104,274.00028075880147 345.77431881042787,273.9986286556712 C 346.8029112747008,274.00492302239076 347.8031715925368,273.98285477281365 348.90108608013,274.05866225546737 C 349.0219680477834,273.1566609760625 348.99358639350055,272.10796149665043 349.0063343098042,271.09222219639 C 348.98412448802657,270.06621427352417 349.5748700603921,269.2055584141839 350.5574708956534,268.9623862122593 C 351.58551049250804,269.00966939023715 352.6063159516655,268.99752700829043 353.62897741280227,269.00062919760217 C 354.6511643512156,268.9998403150305 355.67347504297175,269.00004220464973 356.69574224814124,268.99998186389774 C 357.7180651937412,269.00003219487047 358.74021156674576,268.999891898887 359.7629870289718,269.0003855425865 C 360.78352150479765,268.99863209327293 361.81195570412433,269.00479718820463 362.812911839494,268.98341940067485 C 363.90787406516955,269.05626930384256 364.02032777389803,268.1458685690453 363.99411884605564,267.0992206048189 C 364.00576702307427,266.08288201690686 363.98602845264077,265.0572934420416 364.5827725073794,264.1999545054125 C 365.5667212584453,263.9630002253728 366.5946644773101,264.0094916895285 367.61549774920826,263.9975777805857 C 368.6381512825317,264.00061484686825 369.660340459479,263.9998443355874 370.6826505103492,264.0000410750261 C 371.7049179746949,263.9999822438851 372.7272404479484,264.0000317574046 373.74938882487027,263.99989356410055 C 374.77215527283545,264.00037814674704 375.7927295206043,263.9986645700221 376.82099145963895,264.004656996763 C 377.82268281358233,263.98401616134186 378.9145439129372,264.05375762815055 379.01870206711396,263.13509187389286 C 378.9946506812619,262.0904749333264 379.00518328429854,261.0735413689674 378.9880018509874,260.04838052505534 C 379.59070511859875,259.194404844065 380.57597416592307,258.96363511916246 381.6038178392733,259.0093089563293 C 382.62467973521154,258.9976297880904 383.64732495713156,259.00060005632525 384.6695171715804,258.99984901716135 C 385.69182378600397,259.00003773616857 386.71410169355136,258.99999063762715 387.736386754723,259.0000023037579 C 388.7586700469263,258.99999943839475 389.78095377279374,259.00000013543996 390.8032373933938,258.99999996774767 C 391.82552103925457,259.0000000075641 392.8478046791356,258.99999999825934 393.87008832040874,259.0000000003911 C 394.8923719613646,258.9999999999151 395.9146556023907,259.00000000001756 396.9369392434019,258.99999999999665 C 397.9592228844162,259.00000000000057 398.9815065254299,259.00000000000006 400.00379016644354,259.0 C 401.0260738074573,259.0 402.0483574484712,259.00000000000006 403.07064108948487,259.00000000000006 C 404.09292473049857,259.0 405.1152083715124,259.0 406.137492012526,258.99999999999994 C 407.1597756535397,259.00000000000006 408.1820592945535,259.0 409.20434293556707,259.0000000000002 C 410.2266265765811,258.99999999999903 411.24891021759413,259.0000000000041 412.2711938586106,258.9999999999831 C 413.29347749961386,259.0000000000685 414.31576114066945,258.99999999972465 415.33804478151603,259.000000001099 C 416.360328423194,258.99999999564153 417.3826120615856,259.00000001718183 418.4048957128904,258.99999993264413 C 419.4271793137304,259.00000026265815 420.4494631107786,258.99999898088674 421.47174614870687,259.000003935036 C 422.4940321096611,258.99998487748684 423.5163068678617,259.00005784687625 424.53862436319855,258.99977974474484 C 425.560779576123,259.0008347392638 426.5835481234815,258.9968513931077 427.60400974510407,259.0118186832154 C 428.6331052128261,258.95586176695264 429.5810916944864,259.33288930967 430.04112272233635,260.25237628657663 C 429.98542835608583,261.2851436047733 430.0169007609006,262.28844212608084 429.94368935772485,263.38051403599263 C 430.26292357109764,264.0844955310716 431.3922125647068,263.9772379428881 432.3857031883337,264.0060988498676 C 433.41569329545786,263.99837414258656 434.4359246682799,264.0004315430614 435.458752324946,263.9998851026935 C 436.48089190813926,264.00003390677244 437.5032155546854,263.99997688797947 438.5254803895128,264.0000603960369 C 439.54780069230736,263.9997776936855 440.569954552546,264.0008390206402 441.5927249139804,263.996842003539 C 442.61318405100377,264.01182938904594 443.64227405785556,263.9559174093137 444.5882354669816,264.3395603860265 C 445.04172923352684,265.2614531321962 444.98519095087414,266.29444104758437 445.01734558559,267.29722795157903 C 444.9421653202404,268.39107574841125 445.2717813658213,269.0853460740134 446.4016970787004,268.97482906342753 C 447.3937310638287,269.0154866502142 448.4293788592094,268.96170224209163 449.411764744825,269.197293774758 C 450.0128237261313,270.0518903304802 449.9945707739919,271.07726687553446 450.0055646142129,272.09394854930736 C 449.98065220225044,273.13937567326616 450.08809396695204,274.0547697783616 451.1812052129946,273.98377670694595 C 452.18260066400774,274.00470772144484 453.21092847073936,273.9986764887187 454.2315023788069,274.00027667253346 C 455.25420736984734,274.00032333363356 456.2766210904688,273.99827593201394 457.29786549022145,274.0070838301966 C 458.3244667728348,273.97154095622943 459.3222683402208,274.1383106971188 459.98621643727506,274.9531364932445 C 460.0021540433285,275.9731692074327 459.9997783932514,276.9960794401623 459.9973985236735,278.020727179049 C 460.0216854317851,279.018902239651 461.07031793705346,278.9921382927783 462.0822312678604,279.00440503083377 C 463.10923132232557,278.9905385468043 464.1241882636046,279.04122945462 464.90265869257735,279.7514125130489 C 465.0210093359468,280.75742516874544 464.9949433634651,281.7828738944084 465.0011799129379,282.8044264012817 C 464.9998040334025,283.8267800882379 464.9997712435214,284.84940053316393 465.00096157269144,285.8704270656403 C 464.99685881500477,286.8968193270362 465.0096740590038,287.9063145237358 464.9723502990599,288.9658348343886 C 465.95488456795334,289.0058105926232 466.9834903520444,288.99905398098485 468.00519374729396,288.999592822514 C 469.02639709418105,289.00752431208383 469.8495081672847,289.6593508015275 470.0319760981652,290.6523827050218 C 469.9864064114255,291.6869249082349 470.023795694977,292.680224518876 469.91989419891956,293.8040967051196 C 470.704050469093,294.0435988111011 471.7798545275417,293.98686191412287 472.7877798131399,294.01221181241755 C 473.81841488433685,293.9654566857846 474.71775410922737,294.4761411905194 475.0432574091634,295.4388134504837 C 474.9886049310853,296.4677417319482 475.0029627211635,297.48830949345376 474.99932947122204,298.51091307630026 C 474.99978092727184,299.53360854338985 475.00154919340446,300.5539041705732 474.9939648629124,301.58381217490876 C 475.0227280625625,302.57738537413877 474.9150012571213,303.7071462944544 475.5840389991904,304.06133461266944 C 476.6825233123057,303.98164065675695 477.6839978131002,304.01530986957863 478.71750285627445,303.9570561026655 C 479.6448095225265,304.3953688429087 480.04379621750644,305.33650348481734 479.98818582597886,306.3655567688986 C 480.0031695087279,307.38601639498876 479.9991540672658,308.4087888494186 480.0002246642992,309.43094216299573 C 479.99994061778256,310.45326038196305 480.00001562236696,311.47553489241204 479.99999590903474,312.49782093319715 C 480.0000010663297,313.5201039463958 479.99999972335667,314.5423877508943 480.00000007142773,315.5646713495361 C 479.999999981649,316.586955001479 480.0000000046905,317.6092386396878 479.9999999988078,318.6315222814177 C 480.00000000030144,319.6538059222496 479.99999999992446,320.6760895633092 480.0000000000191,321.69837320431157 C 479.99999999999534,322.72065684532805 480.00000000000125,323.74294048634124 479.9999999999998,324.76522412735494 C 480.00000000000017,325.78750776836864 480.0,326.8097914093824 480.0,327.83207505039616 C 480.00000000000017,328.8543586914099 480.00000000000006,329.87664233242356 480.0000000000001,330.8989259734374 C 480.00000000000006,331.9212096144512 480.0000000000001,332.9434932554649 480.0000000000001,333.96577689647864 C 480.0000000000001,334.98806053749246 480.00000000000006,336.0103441785062 480.00000000000017,337.03262781952003 C 480.00000000000006,338.0549114605336 480.0,339.07719510154726 480.00000000000057,340.09947874256125 C 479.99999999999824,341.1217623835746 480.0000000000085,342.1440460245896 479.99999999996317,343.16632966559774 C 480.0000000001587,344.1886133066354 479.9999999993304,345.21089694754824 480.00000000278936,346.2331805889831 C 479.99999998851507,347.25546422825914 480.00000004682767,348.27774787637156 479.9999998107077,349.3000314886416 C 480.00000075933974,350.3223152451355 479.9999969749488,351.3445984254624 480.0000119751225,352.3668838924985 C 479.99995287166865,353.3891603386467 480.00018445959347,354.4114721716503 479.9992817679794,355.433645924928 C 480.00278272366677,356.4563557492458 479.9892702772568,357.4769944739651 480.04117821812355,358.5055970460705 C 479.7547738692796,359.4782339043081 478.87268525430886,360.0270841787043 477.8440404148997,359.9902238207319 C 476.832463907321,360.01003385994824 475.76938477952996,359.9665784387805 474.9280289714193,360.14827078613774 C 475.0202293097394,361.2625379407717 474.9943691833085,362.25902228192376 475.00155419836693,363.28847398858863 C 474.9995740316175,364.30878233287024 475.0001166469158,365.33160645840667 474.9999655593974,366.3537427677789 C 475.00002067681737,367.3760679514534 474.9999496529007,368.3983335885919 475.0001884243139,369.4206487969231 C 474.9992700207773,370.4428199725179 475.0028220266754,371.46553618734924 474.9891400126027,372.4861542236266 C 475.04159841514456,373.5148238176053 474.74876050156774,374.48588555472395 473.863705024212,375.0284740138354 C 472.83470714955916,374.98978135524794 471.82374486160404,375.0105576109616 470.75852850629946,374.9648822402126 C 469.92650402771994,375.15592457953215 470.02056936547376,376.2720547357066 469.99430353947486,377.2681245599482 C 470.0015335218968,378.29766075349437 469.9997166898787,379.31797263932026 469.9995359999507,380.3407118575663 C 470.00226866591424,381.3631986848526 469.99094734475,382.38413905782255 470.03549622327716,383.41183634717896 C 469.8128199613361,384.39880551547384 468.96334304721825,385.0092923748391 467.9387582075452,384.99561063445555 C 466.92104867779324,385.0046506367254 465.87907123975344,384.98341348936515 464.9497332234733,385.07685678398616 C 465.0151493776349,386.16440406654004 464.9955452441116,387.16712388729553 465.00126650022975,388.1951401575477 C 464.9997291750558,389.2157853256954 464.9997021681683,390.23847818168895 465.00161953179526,391.260879317318 C 464.99330131666215,392.28218262418073 465.0270574086264,393.30856654418966 464.87001804072037,394.3081016893073 C 464.0619567906953,394.98131932256854 463.0428402997141,395.0034998732063 462.01907331089564,394.9989324133475 C 460.9971864490113,394.99965419896114 459.9881132605029,395.012934444826 460.00605089391985,396.05286195123324 C 459.99636910591573,397.0669610201924 460.0079967220663,398.09325136894114 459.9644402825955,399.1091590193041 C 459.2624713451507,399.89451076626864 458.26001073146756,400.02401777037204 457.22746490427056,399.989201229279 C 456.23021104391887,400.0201819372867 455.122845026654,399.93367441634575 454.9729388802907,400.80638763424196 C 455.00617671739116,401.8618341767365 454.99863547704746,402.8765836079841 455.00026461540415,403.9005269192734 C 455.00003044320107,404.92247175037846 454.99976115172944,405.9447847066847 455.00057730456524,406.96715646886537 C 454.9992742761917,407.9892831223483 454.9969130893427,409.0112790785614 454.3549884035196,409.84112237261286 C 453.3634364879333,410.03322662697934 452.32872350132976,409.98600197586 451.3358204377988,410.02420097485185 C 450.2101019527364,409.9183351535992 449.9535447353503,410.6854879959424 450.0140004184174,411.764908613435 C 449.98716929277685,412.77177122638705 450.0363649149492,413.80303506768735 449.5358964249076,414.7062112837255 C 448.5784033554153,415.04507870465363 447.5426321938293,414.9831275937969 446.5479691840282,415.0235524041206 C 445.4259025019173,414.9204025241505 444.9224745727671,415.440138379755 445.0201200628154,416.5598425750308 C 444.99481712475733,417.5568649909878 445.00127589537686,418.5856593679281 444.9998855929926,419.60630371243644 C 444.9992379186605,420.6288840635134 445.00313095363975,421.6515461931829 444.9883637955968,422.6720563065107 C 445.0427171668467,423.70095041565094 444.6166127505056,424.63308350131 443.6802066222166,425.0444634169653 C 442.6459400723509,424.98398591084066 441.64651939429666,425.02001441781306 440.5408505269851,424.93290556591205 C 439.9148298662563,425.33087760920915 440.0251060813137,426.46020689667256 439.9836236166086,427.4526195342943 C 440.0418648596337,428.4886037865084 439.76603877099785,429.4620109894124 438.89082304989273,430.0241524762306 C 437.86284041158706,429.99114466035104 436.8500289599795,430.00897460186087 435.7913335085278,429.9699991265744 C 434.93109061845075,430.1331243384237 435.0208574987792,431.2434461173138 434.9887466373358,432.2399866930362 C 435.0252351777944,433.2728638010943 434.8882506499429,434.27406127567855 434.0970965000019,434.9689463958145 C 433.08034796189156,435.0068169222409 432.05467321393854,434.997009598062 431.0387100999424,435.0045141844397 C 430.0061804410192,434.9940703392694 430.00139423466396,436.01154748367793 429.99826000021494,437.031308407678 C 430.00462486826035,438.0557565161973 429.97715907526765,439.0740424435761 429.29602198313364,439.87599804815864 C 428.29735310540525,440.027515670653 427.26384195008836,439.98791826483784 426.2686695066044,440.02201588328023 C 425.15274604412326,439.92667163352945 424.96623069293355,440.7628504170169 425.0079556529579,441.826764631553 C 424.99816838677333,442.83927118054663 425.00037924482297,443.86380376382505 425.00003243436447,444.8855993020941 C 424.9996300610141,445.9079312623065 425.0011440194714,446.9303788994626 424.9969641487702,447.9521576671481 C 425.00625767889284,448.97557194735566 424.3874621661409,449.8200196417143 423.40063713633367,450.0361528382038 C 422.36540434845386,449.98511534117785 421.3731484241348,450.02488672570576 420.2443971600341,449.91572396711797 C 419.9470074307187,450.6421513874991 420.0159368535039,451.729853528939 419.98594703456934,452.7343555759101 C 420.03978412074645,453.76672460244 419.56530766915455,454.68027181979835 418.61520538136926,455.04546544340036 C 417.57980496524067,454.98324869380383 416.58360760085293,455.0224643645133 415.466832485546,454.9242868415624 C 414.91835559662235,455.39986225095726 415.0241237984132,456.5243919809804 414.9831556151112,457.5183140909156 C 415.04451074681657,458.55421714806664 414.7228120801998,459.5162896637442 413.82678784021306,460.033631931005 C 412.7963266480438,459.98809936433366 411.7878772011175,460.0126807400089 410.7140099242228,459.95794060027373 C 409.9208460779506,460.18840594029035 410.0235453519759,461.3111403213293 409.98664539678026,462.30470389971896 C 410.031244012394,463.3390877033502 409.85412857031156,464.33312303339386 409.03450983525954,464.99002548515284 C 408.01378033585655,465.0010918336434 406.9915888228482,465.00047953842574 405.964590978681,464.99548432890265 C 404.97567870565746,465.0291198652292 405.00926348594146,466.0844726238092 404.9949686867242,467.0946913223396 C 405.01071271028746,468.1222969075575 404.95380926831524,469.1362198081742 404.23623071946724,469.9081712656939 C 403.2310409153926,470.02123532652394 402.1993697245247,469.9902855663489 401.200044967588,470.0184390078647 C 400.10105655209327,469.94034467775225 399.97751556402136,470.8399754726659 400.00658521530215,471.8892625411522 C 399.99347560182036,472.90480827754874 400.01650611197095,473.9310001763503 399.4269338967872,474.79196236614536 C 398.4471195759488,475.039468706431 397.41133023020143,474.9842025469969 396.41928898359464,475.0252392221174 C 395.28914322381536,474.91438156404365 394.9392705014566,475.5884322590046 395.0181926276466,476.6859746401004 C 394.98474228498543,477.6876756738389 395.0428618843117,478.72122253203213 394.60117149191484,479.64684666181154 C 393.66105567247615,480.0450631747598 392.62630411969195,479.98367823532396 391.62793509469594,480.02080956305093 C 390.51871182929057,479.9301412121983 389.9155347933355,480.35098096298833 390.0249089165801,481.4793106274966 C 389.9834260836151,482.47205929663915 390.04280636402365,483.5080691595483 389.753495629544,484.4782720279979 C 388.8718885599254,485.0272899329058 387.84312509509004,484.99016034634667 386.83160913756916,485.0100879692049 C 385.768425319716,484.9664241530405 384.9275079088341,485.1489586334203 385.0217961435631,486.2636446666629 C 384.9880792826932,487.259125443857 385.02706834971156,488.29250070394806 384.8784584343703,489.29168634000916 C 384.07861556619264,489.9755716917554 383.06062760076395,490.00505264563 382.03593093980254,489.9980092912733 C 381.01694819743756,490.0020324210549 379.99638931712803,490.00370231910364 380.0039163700554,491.0333509209215 C 379.99725416720355,492.0500404133988 380.00637663998066,493.07547781028035 379.9706120310889,494.09253747315086 C 379.2784236874437,494.8858574923293 378.27771478021793,495.02569128706847 377.2447105743713,494.9885784148491 C 376.2484461542432,495.02110081941174 375.13699079586604,494.93016137731536 374.96911755914766,495.7856774402269 C 375.0092504158227,496.84547891974717 374.9908950304434,497.85797066610195 375.02495387645894,498.88614977254326 C 374.4660406858071,499.76296202881315 373.49341312768354,500.0421089432691 372.45741868215424,499.98357035393065 C 371.4649321165051,500.02506498680384 370.3358151952419,499.9149762378759 369.9322063386258,500.53536653177025 C 370.0202215790519,501.6419392138116 369.98388161328694,502.64106609150554 370.0447143623681,503.6755638582456 C 369.63601868597794,504.6123331765119 368.70676199811163,505.0435768156268 367.67288896524406,504.9844328235343 C 366.6720319209011,505.0188628617712 365.57152574872237,504.93694771388 364.9143706189681,505.3037433206076 C 365.0252380379759,506.4338116492844 364.9839734887525,507.4259289519266 365.04037442791383,508.46180912879174 C 364.7829098126507,509.439418810731 363.91680074645274,510.01936610553696 362.8899551257329,509.9926135386753 C 361.875371404108,510.0074323828532 360.8227854075038,509.97487633615145 359.9368098693503,510.11214485554285 C 360.0193618540547,511.2154703894882 359.98972294182397,512.2137255452728 360.02266287169994,513.2458462292299 C 359.9012661905206,514.2496668067753 359.12240845963015,514.9593257880945 358.1074550009207,515.0093153726812 C 357.080509339248,514.995677027141 356.0683617400636,515.0076640499021 355.02068135114354,514.9818659775743 C 354.9976570735096,515.9812916451895 354.99968225748523,517.0056221694512 355.00230849233145,518.0286358046092 C 354.98563994428247,519.0485250399491 354.320051076254,519.8620043503723 353.32432421337097,520.0299514246908 C 352.2902336767166,519.9870764497239 351.29615089386624,520.0230619048294 350.17562617150776,519.9226853734891 C 349.9606210176389,520.7312564972052 350.0118684458293,521.8017434529535 349.98871125622566,522.811160943032 C 350.0317858192703,523.8411077919072 349.50432915398966,524.73267506456 348.5395976808236,525.0440556191976 C 347.5036352788911,524.9832105106545 346.51013980016404,525.0244191096862 345.38419841513,524.9172947076025 C 344.9260271398769,525.4831677773608 345.0219742756178,526.5976909443531 344.983350575332,527.594538505263 C 345.0454487567359,528.6297581745532 344.66979481753253,529.5767858059629 343.7523147582296,530.0408991575969 C 342.7195478478649,529.9855269249497 341.7159542956347,530.0166736030126 340.6250610332072,529.9444945107389 C 339.91507490939927,530.25836253446 340.0250618202069,531.3878388301218 339.98478336421806,532.3799347110199 C 340.03732214610204,533.415446655051 339.8110001915778,534.3997844498856 338.96151480054067,535.0097532412841 C 337.93680508573055,534.9954734076251 336.9192202169561,535.0047633233481 335.87687697693667,534.9830853137227 C 334.94896379538164,535.0781778173059 335.01619314105625,536.1665612735827 334.99156190786744,537.168515858209 C 335.01813478597353,538.19913387845 334.9224974008199,539.2071188716337 334.16583407763096,539.9413422121125 C 333.1542529370734,540.0137728071824 332.12531244466453,539.9934972522732 331.1188740540998,540.0124152106894 C 330.04845090751775,539.9635083152197 329.9905391341925,540.9283447098626 330.0022346233503,541.9614407176014 C 329.998614282861,542.9817805099325 329.99883856995405,544.0042369465117 329.36105844795554,544.8366662777654 C 328.37085961559694,545.0339085317754 327.33592737731766,544.985794137278 326.34321540267933,545.0243716065121 C 325.21674946836936,544.9177048303906 324.9522377753784,545.6769258542496 325.01438996292734,546.7579999245478 C 324.98690981286165,547.7643907625802 325.0371091480203,548.7958838336968 324.54174486339264,549.7011559113282 C 323.58566363611453,550.0452015266012 322.5499683661696,549.9831374834732 321.5549682507939,550.023350933159 C 320.43407967283,549.9211251373398 319.9209447410931,550.4320492064259 320.0234013749498,551.5531736155021 C 319.9831347048157,552.5481045693542 320.04517227502936,553.5838150802084 319.7024454486365,554.5402589881061 C 318.79770435357693,555.0369229930551 317.766269113313,554.9869750058756 316.75975843512026,555.0142911291697 C 315.67910447209664,554.9525697668919 314.9178595005124,555.2150518151948 315.02433092087847,556.3413359537866 C 314.9858412437067,557.3340882281612 315.0337567262033,558.3689913375802 314.8377123283827,559.359423383404 C 314.00602110431504,559.9983441996574 312.9836633208407,559.9987544195009 311.9632117923365,560.0021301330844 C 310.93048681736667,559.9908392498717 309.9641815228097,560.047270729357 310.01224066218384,561.1168611027341 C 309.9935817144684,562.1235080368575 310.0135913003708,563.152373251086 309.94209762632954,564.1640969715279 C 309.2088379788767,564.9216753983678 308.20101181917545,565.0183177507485 307.17032857047633,564.9914844015672 C 306.1685414624262,565.0163353527204 305.07948470244474,564.9484174221626 304.9827639782801,565.8747125535414 C 305.0048666520387,566.9174523998666 304.995360722697,567.9349326576812 305.0101474651117,568.9596960890254 C 304.40207544958963,569.8105834099504 303.4156291042174,570.0357691518244 302.38788910165806,569.9908694237922 C 301.3669608755713,570.0022906547972 300.34447082224534,569.9995300245729 299.32173126214514,569.9997172803163 C 298.3014260870224,570.0015389244074 297.27185562583355,569.9942751202389 296.27594632926264,570.020701708387 C 295.15909094892805,569.925909476065 294.9641854307102,570.7540782997195 295.0107777493416,571.8201790071065 C 294.9895826870639,572.8308615008234 295.0290993540393,573.8600974431739 294.48831027729585,574.7455797928005 C 293.52016491232683,575.0433276436034 292.4841602006017,574.9833278290694 291.4911538913709,575.024745406345 C 290.36363102974184,574.9161219606017 289.92850753255703,575.5050275064223 290.02127311265775,576.616351896254 C 289.9835349276244,577.614118908202 290.04526892880546,578.6490626535266 289.6557069042635,579.5918760870454 C 288.73315341206137,580.0421787043787 287.6998931426384,579.9850239275371 286.6974777715737,580.0176218223056 C 285.60244494524255,579.9412401761875 284.9145370309606,580.2772308018731 285.02520077773045,581.4072577417404 C 284.9844112907943,582.3992839458457 285.0386760888857,583.4349801469025 284.7993371558513,584.4165648147609 C 283.9427120362664,585.0140136282515 282.91707651938134,584.994218720872 281.90074285561906,585.0058856481477 C 280.85414730836004,584.9796720315928 279.9434850009128,585.0921195017913 280.01762005585834,586.1872483690162 C 279.9907647064663,587.1875281498629 280.0200494717192,588.2188092593017 279.91375332720787,589.2250952357437 C 279.14759732118057,589.9491227724333 278.1345521646177,590.0118790823541 277.1064207782975,589.994395565376 C 276.0977113193065,590.0105188127719 275.03634790176346,589.970827644003 274.99362872536585,590.9507347865804 C 275.001146922934,591.9800167736721 275.0001178759133,593.0015106357965 274.99350754302657,594.0229152252867 C 274.3438707360456,594.8475127548952 273.3512748190488,595.0322861439972 272.3166673072658,594.9863063740531 C 271.32347260684696,595.0238963651864 270.19914431961865,594.9195113942412 269.95574026787574,595.6997779104248 C 270.0133431687038,596.7764233881969 269.98762266560414,597.7840784878238 270.03504467945845,598.8149476303945 C 269.52610028059325,599.7145742206964 268.5662819393283,600.0448235036223 267.5304456675777,599.9831323461924 C 266.53613516948786,600.0238490115886 265.41290750367574,599.9193415813306 264.9229374898415,600.4534281194652 C 265.02284332375564,601.5719547111643 264.9831881142969,602.5676441188428 265.04540502481353,603.603176248038 C 264.68883807951806,604.5557550451429 263.7786128804075,605.0387623626248 262.746589561326,604.9863211968106 C 261.7413248439063,605.0153146905187 260.6563004051315,604.9491187360961 259.91641986043857,605.2330224625058 C 260.02470944954945,606.3609849058956 259.9853665076555,607.3533738267507 260.03531366658297,608.3885627526878 C 259.8266362575223,609.37650310354 258.9873069972361,610.0033739223995 257.96393269061025,609.9973206409242 C 256.9446674667379,610.0032313405114 255.90798597540623,609.9876433893893 254.95738684775066,610.059897988215 C 255.01400361261608,611.137888136339 254.9927101079357,612.1424339066555 255.01549950264635,613.1720678016148 C 254.93404650149984,614.1822662172923 254.19078420074865,614.9301579269288 253.18133200895423,615.0164006533643 C 252.1513373946804,614.9923092983084 251.14776515327688,615.0147874184461 250.0659114023215,614.9543722301419 C 249.98648389549098,615.8974112931746 250.00264469966928,616.9358195300035 249.99954498686722,617.9550059453501 C 250.00005179253722,618.9778053880984 249.99999998014576,620.0000306513781 250.0001116420452,621.022324389408 C 249.99911099634005,622.0444914870889 250.00513422263785,623.0675058644681 249.97334141004634,624.0858469395889 C 249.28531094682864,624.8824700364787 248.2850175458367,625.0263160515055 247.2518862720206,624.9883411776678 C 246.2560718763047,625.0214584989662 245.14272701716556,624.9287841448918 244.96844276302275,625.777170457159 C 245.0073699606388,626.8382897532304 244.99831284979723,627.8515375824209 245.0003763553899,628.8758798764154 C 244.99991895574445,629.8977071934208 245.00001657468252,630.9200882238085 244.99999688335575,631.9423522198023 C 245.0000004968101,632.964639465773 244.99999995242794,633.9869225636845 244.9999999913606,635.0092062435392 C 245.00000000761295,636.0314899007673 244.9999999966536,637.0537735308471 245.0000000012173,638.076057176414 C 244.9999999995955,639.0983408158097 245.00000000012733,640.1206244573541 244.99999999996126,641.1429080982022 C 245.00000000001143,642.1651917392658 244.99999999999665,643.1874753802649 245.0000000000009,644.209759021283 C 244.99999999999972,645.2320426622955 244.99999999999997,646.2543263033095 244.99999999999997,647.2766099443232 C 245.00000000000006,648.298893585337 245.00000000000003,649.321177226351 244.9999999999999,650.3434608673645 C 245.0,651.3657445083782 245.0,652.3880281493921 245.0,653.4103117904058 C 245.0,654.4325954314193 245.0,655.4548790724334 244.99999999999997,656.477162713447 C 244.99999999999997,657.4994463544607 244.99999999999994,658.5217299954744 244.99999999999997,659.5440136364882 C 245.0,660.5662972775019 244.99999999999991,661.5885809185154 245.00000000000003,662.6108645595292 C 244.99999999999963,663.6331482005435 245.0000000000011,664.6554318415557 244.99999999999577,665.677715482575 C 245.00000000001552,666.6999991235691 244.99999999994358,667.7222827646542 245.00000000020367,668.7445664054087 C 244.99999999927118,669.7668500473526 245.00000000258134,670.7891336850639 244.9999999909701,671.8114173376619 C 245.00000003111197,672.833700938628 244.99999989484203,673.8559847155911 245.00000034657222,674.878267905937 C 244.9999988971297,675.9005529929848 245.00000333029521,676.9228322112581 244.9999907904087,677.9451283626693 C 245.00002125138246,678.9673816143421 244.9999738993948,679.9897124959891 244.99988255698995,681.0120872646037 C 245.00129823789277,682.0329585538794 244.9917525541819,683.0647654306409 245.04459710760594,684.0343276377438 C 246.11245086318135,683.9881449941067 247.11952367401486,684.0062323893743 248.1482339704233,683.9868077670441 C 249.16026571506188,684.0562475206558 249.9198542855011,684.7873766573633 250.01872089125064,685.7948503405378 C 249.99131472010941,686.8256757868626 250.01664393657913,687.8270999266923 249.94723199338168,688.9176170048823 C 250.86993677566232,689.0179503089638 251.91356913933106,688.9948940733376 252.93077380255718,689.0049180571401 C 253.95577062217302,688.9889108419278 254.80746028338098,689.5950737202539 255.03774663058792,690.5785756048231 C 254.98466288582935,691.6141693004787 255.0251220842322,692.6061539071414 254.91484415514893,693.7361342994094 C 255.618239979265,694.0556740210412 256.70993028224996,693.9861037552017 257.7149159410939,694.0034425117975 C 258.74147766584235,693.9991543438572 259.7627123686827,694.0002057545651 260.78525067334886,693.9999504906247 C 261.80747319098657,694.0000117580795 262.8297713045216,693.9999972514438 263.8520515749793,694.000000629945 C 264.87433598486666,693.9999998592591 265.89661945516866,694.0000000303731 266.91890313270153,693.9999999937677 C 267.9411867663218,694.0000000011787 268.9634704087012,693.9999999998097 269.9857540495059,694.0000000000191 C 271.00803769053607,694.0000000000028 272.0303213315553,693.9999999999973 273.0526049725651,694.0000000000011 C 274.0748886135805,693.9999999999995 275.09717225459383,694.0000000000001 276.1194558956076,693.9999999999998 C 277.1417395366214,693.9999999999998 278.1640231776351,693.9999999999999 279.1863068186489,693.9999999999999 C 280.2085904596626,693.9999999999999 281.2308741006765,694.0 282.25315774169013,693.9999999999998 C 283.2754413827038,694.0 284.29772502371765,694.0 285.32000866473135,694.0 C 286.34229230574516,693.9999999999999 287.3645759467588,693.9999999999998 288.38685958777256,693.9999999999999 C 289.4091432287863,693.9999999999999 290.4314268698001,693.9999999999998 291.4537105108139,693.9999999999999 C 292.4759941518276,694.0 293.4982777928412,693.9999999999999 294.5205614338549,694.0 C 295.54284507486864,693.9999999999999 296.56512871588245,693.9999999999999 297.5874123568961,693.9999999999998 C 298.6096959979099,693.9999999999999 299.63197963892367,694.0 300.6542632799374,693.9999999999998 C 301.6765469209511,694.0 302.6988305619649,694.0 303.7211142029786,694.0 C 304.74339784399234,693.9999999999999 305.76568148500616,693.9999999999999 306.7879651260198,693.9999999999998 C 307.81024876703356,693.9999999999999 308.83253240804737,693.9999999999998 309.8548160490612,694.0 C 310.87709969007494,693.9999999999998 311.89938333108864,694.0000000000001 312.92166697210234,693.9999999999998 C 313.94395061311604,693.9999999999999 314.9662342541298,693.9999999999998 315.98851789514356,693.9999999999999 C 317.0108015361575,694.0000000000002 318.0330851771711,693.9999999999999 319.05536881818466,693.9999999999999 C 320.0776524591985,694.0 321.0999361002122,694.0 322.122219741226,693.9999999999999 C 323.14450338223963,694.0 324.16678702325345,693.9999999999998 325.1890706642672,694.0000000000001 C 326.21135430528096,693.9999999999998 327.23363794629466,694.0 328.2559215873084,693.9999999999999 C 329.2782052283222,694.0 330.3004888693358,693.9999999999997 331.3227725103497,693.9999999999999 C 332.34505615136345,693.9999999999999 333.36733979237715,693.9999999999999 334.389623433391,694.0 C 335.41190707440455,693.9999999999999 336.43419071541825,693.9999999999999 337.4564743564321,694.0000000000002 C 338.4787579974458,693.9999999999999 339.5010416384595,693.9999999999999 340.52332527947334,693.9999999999998 C 341.54560892048704,693.9999999999999 342.5678925615009,693.9999999999999 343.59017620251456,693.9999999999998 C 344.61245984352837,693.9999999999998 345.6347434845421,694.0000000000001 346.65702712555566,693.9999999999999 C 347.67931076656953,693.9999999999999 348.70159440758323,693.9999999999999 349.72387804859693,693.9999999999998 C 350.7461616896108,694.0000000000001 351.7684453306245,693.9999999999999 352.79072897163803,694.0 C 353.813012612652,694.0000000000001 354.8352962536656,694.0000000000001 355.8575798946794,693.9999999999998 C 356.87986353569323,694.0000000000001 357.9021471767068,693.9999999999997 358.9244308177207,694.0 C 359.9467144587343,693.9999999999997 360.9689980997481,694.0 361.99128174076174,693.9999999999998 C 363.0135653817758,694.0000000000002 364.03584902278936,693.9999999999998 365.05813266380306,694.0 C 366.0804163048171,693.9999999999999 367.1026999458306,693.9999999999999 368.1249835868445,693.9999999999999 C 369.14726722785815,693.9999999999999 370.1695508688718,693.9999999999999 371.1918345098857,694.0000000000001 C 372.2141181508992,694.0 373.2364017919131,693.9999999999998 374.25868543292677,694.0 C 375.2809690739404,693.9999999999998 376.30325271495417,694.0 377.32553635596787,693.9999999999999 C 378.3478199969817,693.9999999999999 379.3701036379955,694.0 380.3923872790092,694.0 C 381.41467092002284,693.9999999999997 382.4369545610366,693.9999999999998 383.45923820205047,693.9999999999998 C 384.48152184306423,694.0 385.503805484078,693.9999999999999 386.5260891250916,694.0 C 387.54837276610533,694.0000000000001 388.57065640711903,693.9999999999998 389.59294004813285,693.9999999999998 C 390.61522368914666,694.0000000000002 391.63750733016036,694.0000000000001 392.6597909711742,694.0 C 393.68207461218765,693.9999999999999 394.70435825320175,694.0000000000001 395.72664189421533,694.0 C 396.74892553522915,693.9999999999999 397.7712091762426,694.0000000000001 398.7934928172568,694.0000000000001 C 399.81577645827036,694.0 400.8380600992841,693.9999999999998 401.8603437402976,693.9999999999999 C 402.88262738131186,694.0000000000002 403.9049110223253,694.0 404.927194663339,693.9999999999998 C 405.9494783043528,694.0000000000002 406.9717619453666,694.0000000000002 407.9940455863803,694.0000000000002 C 409.01632922739407,693.9999999999999 410.0386128684076,693.9999999999999 411.06089650942135,693.9999999999998 C 412.08318015043534,694.0000000000001 413.1054637914491,693.9999999999999 414.12774743246274,694.0 C 415.15003107347616,693.9999999999999 416.17231471449037,694.0000000000002 417.1945983555038,693.9999999999999 C 418.21688199651777,693.9999999999999 419.2391656375312,693.9999999999999 420.26144927854534,694.0000000000001 C 421.2837329195586,693.9999999999997 422.30601656057263,693.9999999999999 423.3283002015861,694.0000000000001 C 424.35058384260014,694.0000000000002 425.3728674836139,694.0000000000001 426.3951511246276,693.9999999999999 C 427.4174347656412,694.0 428.439718406655,694.0 429.4620020476689,694.0000000000001 C 430.4842856886826,693.9999999999998 431.50656932969616,694.0 432.5288529707102,694.0 C 433.55113661172373,693.9999999999999 434.5734202527376,693.9999999999999 435.5957038937512,693.9999999999999 C 436.6179875347653,694.0000000000001 437.6402711757788,694.0 438.6625548167925,693.9999999999999 C 439.6848384578062,694.0000000000002 440.70712209881975,694.0000000000002 441.7294057398338,694.0000000000001 C 442.75168938084727,694.0 443.7739730218612,693.9999999999999 444.79625666287467,694.0 C 445.8185403038889,694.0000000000002 446.8408239449022,693.9999999999999 447.8631075859161,694.0 C 448.88539122692964,694.0 449.90767486794385,694.0000000000001 450.92995850895727,693.9999999999998 C 451.9522421499713,694.0000000000001 452.9745257909848,694.0000000000001 453.9968094319987,694.0000000000001 C 455.01909307301213,693.9999999999998 456.0413767140261,693.9999999999998 457.0636603550398,694.0000000000001 C 458.08594399605346,693.9999999999999 459.10822763706756,694.0000000000005 460.130511278081,693.9999999999999 C 461.15279491909473,694.0 462.1750785601085,694.0 463.1973622011224,694.0000000000001 C 464.21964584213623,693.9999999999999 465.2419294831496,693.9999999999998 466.2642131241635,694.0 C 467.2864967651774,694.0000000000002 468.30878040619075,693.9999999999999 469.33106404720456,693.9999999999999 C 470.35334768821843,694.0000000000002 471.37563132923236,694.0000000000001 472.39791497024567,693.9999999999997 C 473.4201986112598,694.0 474.4424822522732,694.0 475.46476589328734,694.0000000000002 C 476.4870495343008,694.0000000000001 477.5093331753146,693.9999999999999 478.5316168163281,693.9999999999999 C 479.55390045734225,694.0000000000002 480.57618409835584,694.0 481.59846773936954,693.9999999999999 C 482.6207513803832,693.9999999999999 483.6430350213972,694.0000000000002 484.66531866241075,694.0000000000001 C 485.6876023034246,693.9999999999998 486.7098859444381,694.0 487.7321695854522,694.0 C 488.75445322646584,694.0 489.77673686747954,693.9999999999998 490.79902050849324,694.0000000000001 C 491.821304149507,694.0000000000001 492.843587790521,694.0000000000002 493.8658714315345,693.9999999999999 C 494.88815507254805,693.9999999999998 495.91043871356163,694.0 496.9327223545758,694.0000000000001 C 497.95500599558926,693.9999999999998 498.977289636603,694.0 499.99957327761666,694.0 C 501.02185691863104,694.0000000000003 502.0441405596443,693.9999999999997 503.0664242006581,693.9999999999999 C 504.08870784167163,693.9999999999999 505.1109914826859,694.0000000000001 506.1332751236991,693.9999999999998 C 507.15555876471313,693.9999999999998 508.1778424057267,694.0000000000001 509.2001260467407,694.0000000000002 C 510.2224096877545,694.0000000000002 511.24469332876805,693.9999999999999 512.2669769697816,693.9999999999999 C 513.2892606107956,694.0000000000001 514.3115442518096,694.0000000000002 515.333827892823,693.9999999999999 C 516.3561115338367,694.0 517.3783951748507,694.0 518.4006788158645,694.0000000000001 C 519.422962456878,693.9999999999997 520.4452460978915,693.9999999999999 521.4675297389055,694.0000000000001 C 522.4898133799195,694.0000000000001 523.5120970209326,693.9999999999998 524.5343806619469,694.0 C 525.5566643029603,694.0000000000001 526.5789479439743,694.0000000000002 527.601231584988,694.0000000000001 C 528.6235152260015,693.9999999999999 529.6457988670152,694.0 530.6680825080292,694.0000000000001 C 531.6903661490428,694.0 532.7126497900565,693.9999999999999 533.7349334310702,694.0 C 534.7572170720845,694.0000000000001 535.7795007130978,694.0 536.8017843541116,694.0 C 537.8240679951252,694.0 538.8463516361395,694.0000000000001 539.8686352771527,693.9999999999999 C 540.8909189181666,693.9999999999999 541.91320255918,694.0000000000001 542.935486200194,694.0000000000001 C 543.9577698412081,694.0000000000002 544.9800534822215,693.9999999999997 546.0023371232351,693.9999999999999 C 547.0246207642491,694.0 548.046904405263,694.0000000000003 549.0691880462764,693.9999999999999 C 550.0914716872902,694.0000000000001 551.1137553283038,694.0 552.136038969318,694.0000000000001 C 553.1583226103312,693.9999999999999 554.1806062513454,694.0000000000001 555.2028898923588,693.9999999999998 C 556.2251735333729,694.0000000000002 557.2474571743862,693.9999999999998 558.2697408154003,694.0000000000001 C 559.2920244564137,694.0000000000001 560.3143080974277,694.0000000000002 561.3365917384413,694.0 C 562.3588753794551,693.9999999999999 563.3811590204687,693.9999999999999 564.4034426614828,694.0000000000001 C 565.4257263024965,694.0 566.4480099435101,693.9999999999998 567.4702935845238,694.0 C 568.4925772255376,694.0 569.5148608665513,694.0000000000002 570.537144507565,693.9999999999998 C 571.5594281485788,694.0000000000001 572.5817117895929,694.0000000000001 573.6039954306065,694.0 C 574.6262790716202,694.0 575.6485627126337,693.9999999999999 576.6708463536476,694.0000000000001 C 577.6931299946613,694.0 578.7154136356746,693.9999999999998 579.7376972766888,694.0000000000001 C 580.7599809177023,694.0000000000001 581.7822645587164,694.0000000000002 582.8045481997299,693.9999999999999 C 583.8268318407439,694.0000000000001 584.8491154817564,693.9999999999991 585.871399122774,694.0000000000027 C 586.8936827637765,693.9999999999917 587.915966404824,694.0000000000254 588.9382500457397,693.9999999999272 C 589.960533687007,694.0000000001811 590.9828173275345,693.9999999996938 592.0051009685023,693.9999999996478 C 593.0273846171644,694.0000000073145 594.0496681998844,693.9999999488832 595.0719521755749,694.0000002843487 C 596.0942341107547,693.9999985744937 597.1165258849962,694.0000067268934 598.1387723884291,693.9999695017718 C 599.1612204958725,694.000134355881 600.1827923447913,693.9994208859534 601.2081013864964,694.0024534181028 C 602.2177132787102,693.9897517995261 603.2924253296552,694.0423037934186 604.0798127638178,693.8069015903859 C 603.9762810603211,692.6831391935332 604.0135140602463,691.6898260672666 603.9682742289235,690.655317036783 C 604.148894720592,689.6619434718488 604.9708065835799,689.0083616407763 605.9918473559679,688.9993584797836 C 607.0137196798069,688.9992151064333 608.0417717674333,689.005361923673 609.0264890657747,688.9675829049613 C 608.9906089898495,687.9095035654476 609.0030754179388,686.8996570358319 608.9990405043383,685.8733479699275 C 609.0002896614536,684.8523105484466 608.999914624315,683.8296527522513 609.000024706427,682.8074789344745 C 608.9999929540107,681.7851636157153 609.0000019854698,680.7628889849217 608.9999994461504,679.74060281056 C 609.0000001531562,678.7183198748895 608.9999999579711,677.6960360391499 609.0000000114549,676.6737524514938 C 608.9999999968973,675.6514687959568 609.0000000008355,674.6291851588721 608.9999999997763,673.6069015168018 C 609.0000000000597,672.584617876071 608.9999999999844,671.5623342349817 609.0000000000041,670.5400505939879 C 608.9999999999989,669.5177669529688 609.0000000000005,668.4954833119565 608.9999999999999,667.4731996709423 C 608.9999999999999,666.4509160299287 608.9999999999999,665.428632388915 609.0,664.4063487479013 C 609.0,663.3840651068874 608.9999999999999,662.3617814658737 609.0,661.3394978248601 C 609.0000000000001,660.3172141838465 609.0,659.2949305428324 608.9999999999998,658.2726469018187 C 609.0000000000001,657.250363260805 609.0000000000001,656.2280796197916 609.0000000000002,655.2057959787776 C 608.9999999999999,654.1835123377638 608.9999999999999,653.1612286967498 609.0,652.1389450557365 C 609.0000000000001,651.1166614147226 608.9999999999999,650.0943777737089 609.0,649.0720941326949 C 608.9999999999999,648.0498104916815 609.0000000000001,647.0275268506676 608.9999999999999,646.0052432096539 C 609.0,644.9829595686402 608.9999999999998,643.9606759276263 609.0000000000002,642.9383922866126 C 608.9999999999998,641.9161086455987 609.0,640.8938250045853 609.0,639.8715413635714 C 609.0,638.8492577225579 609.0000000000002,637.8269740815441 608.9999999999999,636.8046904405304 C 609.0,635.7824067995164 609.0,634.7601231585029 609.0,633.7378395174889 C 608.9999999999998,632.7155558764752 609.0,631.6932722354616 609.0,630.6709885944479 C 609.0000000000001,629.6487049534339 608.9999999999999,628.6264213124201 608.9999999999999,627.6041376714065 C 609.0000000000001,626.5818540303931 608.9999999999999,625.5595703893787 608.9999999999998,624.5372867483652 C 608.9999999999999,623.5150031073514 609.0000000000001,622.492719466338 609.0000000000001,621.4704358253241 C 609.0,620.4481521843102 608.9999999999998,619.4258685432966 609.0,618.403584902283 C 609.0000000000002,617.3813012612694 608.9999999999998,616.3590176202553 609.0000000000002,615.3367339792414 C 608.9999999999989,614.3144503382292 609.0000000000044,613.2921666972103 608.999999999985,612.2698830562151 C 609.0000000000539,611.247599415133 608.9999999998079,610.225315774365 609.0000000006776,609.203032132482 C 608.9999999976419,608.180748494503 609.0000000080731,607.1584648430583 608.9999999729308,606.1361812371874 C 609.0000000882435,605.1138974808608 608.9999997236085,604.0916142044823 609.0000008137429,603.0693294733337 C 608.999997853571,602.047048792492 609.0000043878645,601.0247586171851 608.9999982950745,600.0024810689614 C 608.999947260499,598.9802484625224 609.0004323943378,597.9574796876702 608.9974576793728,596.9381707616216 C 609.0131139192296,595.9002308807508 608.9357260909046,594.9553350680617 607.8549711910853,595.0138063268676 C 606.850634391449,594.9958594854903 605.8229959159949,595.001214319931 604.8022766261598,594.9996499687518 C 603.7795434465601,595.0000995073383 602.7573872782211,594.9999720346634 601.7350678886478,595.0000077832229 C 600.7127941788758,594.9999978519812 599.6905078014272,595.0000005884157 598.6682249089428,594.999999839888 C 597.6459410645131,595.0000000432977 596.6236574784448,594.9999999883778 595.601373822684,595.0000000030236 C 594.5790901855602,594.9999999995293 593.5568065437108,594.9999999988266 592.534522902149,595.000000005328 C 591.5122392642411,594.9999999792892 590.4899556110597,595.0000000793799 589.4676720165477,594.9999996973485 C 588.445388198878,595.0000011485248 587.4231052257603,594.9999956619776 586.4008190716875,595.000016305933 C 585.378544839554,594.9999390150771 584.3562261547717,595.0002268881118 583.3340723160146,594.9991606052588 C 582.311310738423,595.0030866970711 581.2907754914552,594.9887242149649 580.2621416850579,595.0408887352661 C 579.3395136752091,594.5880694096265 578.9547724177337,593.6432755152563 579.0164961997743,592.6083749936572 C 578.978516936993,591.610907830815 579.072262826128,590.498388458938 578.6302560450521,589.9171801196959 C 577.5036061319208,590.0217924017117 576.5087579565823,589.9942922657556 575.479295480117,590.0014880230016 C 574.4588815728252,589.9996138819839 573.4361132436968,590.0000997125945 572.4139546435913,589.9999743769429 C 571.3916389047713,590.0000065504094 570.3693634603239,589.9999983345225 569.3470777377372,590.0000004210019 C 568.3247946222426,589.999999894244 567.302510849399,590.0000000263846 566.2802272412257,589.9999999934672 C 565.2579435920939,590.000000001604 564.2356599530696,589.9999999996099 563.2133763115731,590.0000000000938 C 562.1910926706752,589.9999999999778 561.1688090296336,590.0000000000051 560.1465253886265,589.9999999999987 C 559.1242417476112,590.0000000000002 558.1019581065981,590.0 557.0796744655845,590.0000000000001 C 556.0573908245705,590.0 555.0351071835569,590.0 554.0128235425432,590.0 C 552.9905399015296,590.0000000000001 551.9682562605153,590.0 550.9459726195021,590.0 C 549.923688978488,589.9999999999999 548.9014053374744,590.0000000000001 547.8791216964605,590.0 C 546.8568380554468,590.0 545.834554414433,589.9999999999999 544.8122707734193,590.0000000000001 C 543.7899871324054,590.0 542.767703491392,589.9999999999999 541.7454198503782,590.0 C 540.7231362093647,590.0000000000001 539.7008525683505,590.0 538.6785689273368,590.0000000000001 C 537.6562852863232,590.0000000000001 536.6340016453096,590.0000000000001 535.6117180042955,590.0000000000001 C 534.5894343632818,590.0 533.5671507222681,590.0 532.5448670812544,589.9999999999999 C 531.5225834402405,590.0000000000001 530.5002997992269,590.0 529.4780161582134,590.0 C 528.4557325171995,590.0000000000001 527.4334488761859,590.0000000000001 526.4111652351718,589.9999999999999 C 525.3888815941584,589.9999999999999 524.3665979531447,590.0000000000001 523.344314312131,590.0000000000001 C 522.3220306711169,590.0 521.2997470301034,590.0000000000002 520.2774633890896,590.0 C 519.2551797480759,590.0 518.232896107062,590.0 517.2106124660485,590.0000000000001 C 516.1883288250348,590.0000000000001 515.166045184021,590.0 514.1437615430068,590.0 C 513.1214779019936,590.0000000000001 512.0991942609796,590.0 511.07691061996593,590.0 C 510.0546269789519,590.0 509.0323433379385,590.0000000000001 508.0100596969246,590.0000000000001 C 506.98777605591084,590.0 505.9654924148968,589.9999999999999 504.94320877388355,589.9999999999999 C 503.9209251328699,589.9999999999999 502.8986414918559,590.0 501.8763578508423,590.0000000000001 C 500.85407420982835,590.0 499.83179056881494,590.0 498.809506927801,590.0000000000001 C 497.78722328678737,590.0000000000001 496.7649396457735,590.0 495.74265600475997,590.0 C 494.72037236374604,589.9999999999999 493.6980887227323,590.0000000000001 492.6758050817183,590.0 C 491.653521440705,590.0000000000001 490.63123779969095,590.0 489.6089541586773,590.0 C 488.5866705176633,590.0 487.56438687664996,589.9999999999999 486.54210323563615,589.9999999999999 C 485.5198195946225,590.0000000000001 484.4975359536084,590.0000000000001 483.4752523125949,590.0000000000001 C 482.4529686715811,590.0 481.4306850305675,589.9999999999999 480.40840138955355,590.0000000000002 C 479.3861177485398,589.9999999999999 478.3638341075262,590.0 477.34155046651244,590.0 C 476.31926682549874,589.9999999999999 475.29698318448493,590.0000000000001 474.27469954347146,590.0000000000001 C 473.2524159024574,590.0000000000001 472.2301322614436,590.0 471.20784862042996,590.0 C 470.1855649794164,589.9999999999999 469.16328133840267,590.0 468.1409976973889,590.0 C 467.11871405637487,590.0000000000002 466.0964304153614,590.0 465.0741467743477,590.0000000000001 C 464.05186313333377,590.0 463.02957949231984,590.0 462.0072958513065,590.0000000000001 C 460.9850122102925,590.0 459.96272856927897,590.0000000000002 458.94044492826475,589.9999999999999 C 457.91816128725145,590.0 456.8958776462375,589.9999999999999 455.8735940052238,590.0000000000001 C 454.8513103642099,590.0 453.82902672319636,589.9999999999999 452.8067430821827,590.0000000000001 C 451.78445944116913,590.0 450.7621758001552,590.0 449.73989215914133,589.9999999999997 C 448.71760851812786,590.0000000000014 447.6953248771146,589.9999999999949 446.67304123609796,590.0000000000206 C 445.65075759509585,589.9999999999186 444.6284739540349,590.000000000321 443.60619031320806,589.9999999987377 C 442.5839066714625,590.0000000049351 441.5616230332982,589.9999999808047 440.5393393812445,590.0000000742949 C 439.5170557827999,589.9999997138134 438.49477197841514,590.0000010972547 437.47248896147795,589.9999958125107 C 436.4502029475072,590.0000159069538 435.42792828722924,589.9999398571724 434.4056108193625,590.0002263063941 C 433.38345396427724,589.9991526702896 432.3606975603628,590.0031560744885 431.3401671848559,589.9883092443391 C 430.3114193849327,590.0430483976511 429.37513505168323,589.6264875992881 428.95761575103626,588.6913499496877 C 429.00952790737375,587.662209442177 429.0053259588548,586.6429926374415 428.9674122516648,585.6151203551101 C 429.1711429366763,584.6246996802383 430.0106902756466,583.9971576947067 431.0339374856262,584.0025235931794 C 432.05334408892304,583.9968899364935 433.08958820647257,584.0120070117578 434.04191047961945,583.941487195698 C 433.98617881377277,582.8643653115929 434.0071976551813,581.8596026228465 433.9847062625214,580.8300492079817 C 434.0650733244838,579.8196834177944 434.807269818755,579.0707399163339 435.8165548197777,578.9833936836673 C 436.8466125612067,579.0077796568885 437.85002790383885,578.9850435428748 438.93254682247533,579.0462809896176 C 439.01425109630264,578.1050664243907 438.9961268650116,577.0660342229078 439.00347310382324,576.0474688952539 C 438.9938702530039,575.0235245391011 439.61368304336054,574.1798784330183 440.60013460798285,573.9638225771691 C 441.63546914394203,574.0148885263899 442.62770638318466,573.9751191911648 443.7564145986925,574.0842329829154 C 444.0528437086502,573.3568472066612 443.9841069005971,572.2693339523141 444.0140272590734,571.2647781347097 C 443.9602852155886,570.2324331097884 444.43536667504515,569.3191189325605 445.3856462095988,568.9545366547102 C 446.4210564758018,569.0167562938535 447.4172169862445,568.9775080177122 448.5341194329953,569.0758113889628 C 449.08157779194283,568.5992170794522 448.97589475464173,567.474775574442 449.01684669327636,566.4808270148133 C 448.9554651980835,565.4449281588423 449.2777685872835,564.483013538527 450.174050270092,563.9662647151525 C 451.2045408545975,564.0119352442047 452.2129338763629,563.9872720839913 453.286998374182,564.0422156769326 C 454.079253877006,563.8108389939604 453.9764283656852,562.6879849259684 454.01337912144834,561.6944492376568 C 453.9686814018838,560.6600490412131 454.14633665538037,559.6661143756123 454.9663107120746,559.0097237413336 C 455.9870885710688,558.9989780867414 457.00923121686264,558.9994734514615 458.0363884710559,559.0046453160004 C 459.02467249466395,558.9703759013829 458.99064567226736,557.9145878435722 459.0050722586057,556.9044785053334 C 458.98920502838484,555.8768351118525 459.04651875464083,554.8629735685126 459.76455674277014,554.0914298108337 C 460.76982519674584,553.978848477221 461.8014693240629,554.0096809286666 462.80085956491513,553.9816172868208 C 463.8995829812141,554.0594395583904 464.02233097214526,553.1590200885923 463.9934643426595,552.1099246816287 C 464.00647270215217,551.094322931829 463.9836664932127,550.0681699453651 464.57379871940896,549.2075123213673 C 465.5537399042108,548.9605861256575 466.5895231936489,549.0157832487516 467.5815619359563,548.9747623146412 C 468.7117047890328,549.0856118377302 469.06059148214007,548.4105768064068 468.9818472946772,547.3132103779471 C 469.0152385487659,546.311459253311 468.9571837107432,545.2779321794452 469.3994845172968,544.3525233976303 C 470.3397933385125,543.9549198306548 471.3745590207708,544.0163326438973 472.3728846836938,543.9791569398388 C 473.4822594345818,544.0699766762374 474.0844273166607,543.6481268350929 473.97510164604824,542.5198497140263 C 474.0165814971749,541.527084006933 473.95715507591933,540.491073978883 474.247062011738,539.5210151643178 C 475.12894614470025,538.9725783908183 476.1577431033351,539.0098813990871 477.1692019714508,538.9898632238727 C 478.2325839666641,539.0337335430869 479.07263900653123,538.850333125847 478.9781653353126,537.7354685265433 C 479.0119492623958,536.7400308947878 478.97285179013636,535.7066346986293 479.1219790780379,534.7075397461243 C 479.92219969372087,534.0241437859955 480.94024102843025,533.9950238862709 481.96489356822974,534.0019461087527 C 482.98401413311063,533.998080646313 484.0040270825768,533.9958586298665 483.9959763010098,532.9656926521764 C 484.0027895594446,531.9491336189675 483.9935450547895,530.9236536936352 484.0296835915014,529.9066492677447 C 484.7223538002904,529.1137145225447 485.72315022769783,528.9743898976651 486.7561319641477,529.0113917487116 C 487.7524449317526,528.9789420143301 488.8637008434583,529.0696750661854 489.03072514899173,528.2133138280067 C 488.9907987333752,527.1537097269891 489.0090607687398,526.1411609503966 488.9751877508729,525.1130167057295 C 489.5346772688035,524.2364882841288 490.5074444217619,523.9579340392804 491.5434372282025,524.0164203559057 C 492.5359101967293,523.974927337369 493.6650665662817,524.0850511322815 494.06767005591786,523.4636565979575 C 493.9798136861499,522.3572423879998 494.0161054701325,521.3580702461902 493.955309485362,520.3235880362803 C 494.3646179745655,519.3870171954412 495.29408425567135,518.9563851097215 496.32797565830055,519.0155842153173 C 497.3287840913641,518.9810986768905 498.4294609064847,519.0631859039648 499.0856241409497,518.695396899131 C 498.9747636191726,517.5653404358105 499.0160390961636,516.5732167656165 498.9595744952323,515.5373320191798 C 499.21762379288083,514.5598533811783 500.0840303744759,513.9804719075928 501.11091355234873,514.0074356119309 C 502.12544077897877,513.9925180943544 503.1782209128699,514.0252788504109 504.06338793491096,513.8871976827232 C 503.9805864709829,512.783629707099 504.0103093618484,511.78543421076773 503.9772539818788,510.7532880093791 C 504.09914259905486,509.7495489660346 504.87840050331283,509.0403569504697 505.89341317252416,508.99076578257535 C 506.92031944601325,509.00428106416473 507.9325833463126,508.9924322232162 508.97980144684135,509.01776137814545 C 509.0022184886798,508.0177342936817 509.00036398220436,506.9935562837368 508.9976191466965,505.9704953618292 C 509.01462226839266,504.95065607470485 509.68071542742774,504.13753961239735 510.67653951230426,503.970125152871 C 511.71061213560705,504.01289765065974 512.7047277881491,503.97696838302085 513.8251136198521,504.07719934888274 C 514.0392217909597,503.2677344319848 513.9881793795522,502.1974455752111 514.0112517698913,501.1879712967148 C 513.9683268183696,500.1580552209398 514.4963731294866,499.2667518833596 515.4612577598897,498.9559735256527 C 516.4972229018449,499.01678538154664 517.4906949492815,498.9755649169532 518.6167131410881,499.0827627024519 C 519.0738675941002,498.51587337066445 518.9780554174097,497.4014861986953 519.0166424894787,496.404599459106 C 518.9545553318303,495.36939108103945 519.3308214847935,494.422545888051 520.2485285603296,493.95903969952474 C 521.281318042634,494.0144965418091 522.2848589930325,493.9832838864734 523.3759370593529,494.05565090802844 C 524.084956428926,493.740814060917 523.9749300164094,492.6113039560182 524.0152339565467,491.6192136366217 C 523.9626162484087,490.5836926804785 524.1895083686466,489.5994737511656 525.0393125586754,488.9900524730919 C 526.0640638558682,489.00458341642934 527.0815940827893,488.9951873530498 528.12412242314,489.01706343474996 C 529.0512888276838,488.9212194541144 528.98374110876,487.83252468307865 529.0084739136244,486.83064753474156 C 528.9817806521718,485.799999359764 529.0778821681597,484.79208766041063 529.8349686816636,484.05830893259565 C 530.8466116080472,483.9863106145902 531.8755301888082,484.00646500354475 532.8820233474063,483.9876613071262 C 533.9521912730213,484.03619355088347 534.0090456632544,483.0706324381473 533.9984995830249,482.0378263563945 C 534.000166973643,481.0172084045499 534.0000114897135,479.9947699148365 534.0000204122458,478.9724597726245 C 533.9997398654107,477.95016523105545 534.0014894801316,476.92808443281143 533.9925218464061,475.90471282512084 C 534.0362594693196,474.88791639679886 534.7398091683428,474.1038917514295 535.742853735609,473.9763072617932 C 536.775230890507,474.0106815876925 537.7727457363272,473.97998345165234 538.8791507868759,474.0657071475783 C 539.0271661186223,473.19042503826097 538.9919182975249,472.1352825709919 539.0080202648817,471.1214418029376 C 538.9785544756332,470.09410936998734 539.5510534763579,469.22412743351657 540.5269251254576,468.95897263726584 C 541.5628587397665,469.0161844198037 542.5550761056785,468.9747974058323 543.6849256610495,469.08551003910395 C 544.0647846754617,468.44139942787433 543.9806392349719,467.33867947132063 544.015781566131,466.33845328688653 C 543.9559556487563,465.30434541571947 544.3791735242858,464.3723639936539 545.3133096123411,463.9556289929918 C 546.3476113015796,464.0159412560338 547.3472841361148,463.9802430709449 548.4519686030497,464.06616979124425 C 549.0846484450348,463.6756220993022 548.9775230470298,462.5464609240728 549.0059275133668,461.5525306923229 C 548.9984919792148,460.5227682184133 549.0001977014691,459.50241991965544 549.0007021329126,458.4797457051302 C 548.9969505656098,457.4571230731649 549.011645059065,456.4365977121045 548.9560874063009,455.4075588224504 C 549.3038803616415,454.45101078554353 550.2122690711589,453.962190392097 551.2438903529732,454.0133444557616 C 552.2497879747436,453.9851832251325 553.3327034672532,454.0492222788823 554.0829359090699,453.77569738762134 C 553.9754598746566,452.648481652664 554.0144097407322,451.65593381872213 553.965427960303,450.62087736667206 C 554.1679887605428,449.63172169142683 555.0036598086471,448.99901101885484 556.0265484590699,449.001997221894 C 557.046390161967,448.99730157866196 558.08114435811,449.01080103969826 559.0394066410472,448.94626534220276 C 558.9868286939287,447.87223764078345 559.0068731550334,446.8667013481936 558.9854225740212,445.83743271621057 C 559.0620324563008,444.82648981981566 559.8004962965736,444.07389814462107 560.8091709229919,443.98267432457044 C 561.8395108947367,444.00809332058407 562.84217384416,443.98444584668744 563.9276754270555,444.04857727524205 C 564.0150845212655,443.1135019674265 563.9969509863856,442.0731254388211 564.0005576906827,441.054445640592 C 563.9999250636803,440.031517348196 563.9999942650102,439.00932288381983 563.9999361585525,437.98702849912337 C 564.000693326332,436.9648335369465 563.9956355249104,435.9419362447684 564.0235399086112,434.92310120834344 C 564.7061939654051,434.1222917993382 565.7055130560971,433.97280833596267 566.738874467673,434.01197376592074 C 567.7342040301028,433.97811023619215 568.8495555569776,434.0728616924504 569.0332641546779,433.23388176641083 C 568.9921789411621,432.1706058283502 569.0017960876254,431.1579294134766 568.9996295755864,430.13344168634467 C 568.9999674656801,429.1116346901656 569.000360860294,428.0893043451126 568.9988956549784,427.06686194074274 C 569.0028734393973,426.04505875335167 568.9944015694934,425.02174444897963 569.6149601647733,424.178366191986 C 570.6021469629881,423.9640561608609 571.637367059022,424.0148254858532 572.6295783156387,423.97514423075023 C 573.7584487820212,424.08415689849016 574.0516878266553,423.35450486692906 573.987203794834,422.26788422632023 C 574.0031282224043,421.26150425926414 573.9992890970765,420.235330584248 573.9999940780501,419.2139633363017 C 574.0006213337276,418.1915568117847 573.9977140620471,417.16896640791737 574.0077804539164,416.1478971935037 C 573.974253349092,415.12153474752256 574.5272176207701,414.2413505129278 575.4992161655802,413.95763170157517 C 576.5351080961539,414.01648109625194 577.5276805264202,413.97500850972733 578.6566990333312,414.0847862243035 C 579.068009125312,413.473030403368 578.9826543856376,412.36558788629804 579.0043851778473,411.3650020531337 C 578.9989504524488,410.33722928148694 579.000055723666,409.31629599029066 579.0007442288619,408.2937919809283 C 578.9970630053546,407.27113577120144 579.0106374880577,406.2504859581365 578.9620209125579,405.2222886926174 C 579.4435707518896,404.31065521988046 580.3968226613096,403.9547074291327 581.4322266569051,404.01678285731515 C 582.4278923562574,403.9771615616186 583.5466504490535,404.0770734546436 584.0798826194793,403.58711753787117 C 583.979155420113,402.46434357742186 584.0054138498737,401.4682565918007 583.9986005039169,400.4391757188871 C 584.0003602717959,399.41864736163154 583.9999067113993,398.3959125265373 584.0000278243668,397.3737448529447 C 583.999977799088,396.35142938721856 584.0000615979023,395.32916245216325 583.9997789063447,394.306842764248 C 584.0008051655442,393.28468446087527 583.9970855685681,392.2619479196831 584.0104603585562,391.2412924623851 C 583.9628260281178,390.2132101253379 584.4508953185381,389.3041935439074 585.4059870621523,388.95479624834405 C 586.4414817320973,389.01681521998574 587.4367775460686,388.9768889196137 588.5568048432339,389.0780459526162 C 589.079058803288,388.57712100310584 588.9794137799715,387.45542204267906 589.0053214991334,386.45900279322206 C 588.9986832856983,385.430029899236 589.0001267947927,384.4094376064931 589.0007589924862,383.38684229476166 C 588.9968570928512,382.3641827952792 589.0117314886076,381.3436846943876 588.9567402969618,380.314713232043 C 589.3715012561694,379.3787380691691 590.3041714571415,378.95607755879206 591.3381458972121,379.01574745316736 C 592.3383719752694,378.98065453888563 593.4412407570907,379.0647601263118 594.0848424213415,378.6851326486952 C 593.9774220365507,377.55568123641393 594.0059793662763,376.5618877687409 593.9984239193018,375.53206644829123 C 594.0004135083008,374.51176771793024 593.9998920121693,373.48896380546483 594.0000280648459,372.46681590362414 C 593.9999927599847,371.4444970163049 594.0000017861357,370.4222224727073 593.9999998348553,369.39993653705807 C 593.9999989488176,368.3776533145269 594.0000043329017,367.3553701949874 593.999983867157,366.33308409650175 C 594.000059336918,365.31080963415695 593.9997832940132,364.2884923916258 594.0007855865489,363.2663307625809 C 593.9971758738062,362.2436076990247 594.0100551016716,361.2228918904156 593.9646037859184,360.1950753053656 C 594.4656546351789,359.291408742378 595.4243313462222,358.9550837132428 596.4599794472825,359.0168437881356 C 597.4545859872443,358.9763874668756 598.5769621285893,359.0798387087384 599.0772570554155,358.5569712988223 C 598.9799568009443,357.43761621801633 599.0051750338913,356.44049150587125 598.9986704425796,355.41171856997033 C 599.0003398233742,354.3911003839771 598.9999136173196,353.36839153918953 599.0000218307124,352.3462158570901 C 598.9999945175344,351.3239049671294 599.0000013674082,350.3016281598811 598.9999996615323,349.279342817003 C 599.0000000830674,348.2570595965328 598.9999999798107,347.2347758525053 599.0000000048519,346.2124922364738 C 598.9999999988494,345.1902085894719 599.0000000002686,344.1679249498736 598.9999999999385,343.14564130853086 C 599.0000000000138,342.123357667592 598.9999999999972,341.10107402656183 599.0000000000008,340.07879038555143 C 598.9999999999999,339.056506744537 599.0000000000001,338.0342231035233 599.0,337.0119394625099 C 599.0000000000002,335.98965582149583 599.0000000000001,334.9673721804822 598.9999999999999,333.9450885394683 C 599.0,332.9228048984549 599.0,331.90052125744097 599.0000000000001,330.8782376164273 C 598.9999999999998,329.85595397541357 598.9999999999999,328.83367033439976 599.0000000000002,327.8113866933863 C 599.0000000000002,326.78910305237224 598.9999999999999,325.7668194113585 599.0000000000001,324.7445357703449 C 599.0000000000001,323.7222521293312 599.0000000000001,322.69996848831715 598.9999999999999,321.6776848473035 C 599.0,320.65540120628987 599.0,319.63311756527617 599.0,318.6108339242621 C 598.9999999999998,317.5885502832486 598.9999999999999,316.5662666422347 599.0,315.54398300122136 C 599.0000000000001,314.5216993602074 599.0,313.49941571919356 598.9999999999999,312.47713207817975 C 599.0,311.45484843716645 599.0000000000005,310.432564796152 598.9999999999989,309.4102811551397 C 599.0000000000042,308.3879975141205 598.999999999984,307.36571387312745 599.0000000000596,306.3434302320379 C 598.9999999997804,305.32114659130275 599.0000000008047,304.2988629492674 598.9999999970727,303.2765793119768 C 599.0000000105659,302.2542956575016 598.9999999622053,301.2320120647345 599.000000133782,300.20972825254745 C 598.9999995323421,299.1874452115598 599.0000016098851,298.1651594978887 598.9999945646985,297.1428828854936 C 599.0000178862796,296.12057597774236 598.9999432049497,295.09836684243527 599.0001709207219,294.0758560211541 C 598.9995302294418,293.05421156474813 599.0010682729582,292.03039349713487 598.9987905524496,291.0103822202624 C 598.99330017667,289.99357604896556 597.9601304854791,290.0046420911866 596.9443349423408,289.99695976134217 C 595.9186219875533,290.00689583962765 594.901847436158,289.96866600664214 594.1106600953224,289.2737024482911 C 593.976415062516,288.270274767231 594.0057591496286,287.2444189701945 593.9986083773886,286.2230058170734 C 594.0003321544099,285.20051233499265 593.9999218820855,284.1782786371256 594.0000180396881,283.1559832929403 C 593.9999959356282,282.13370233458926 594.0000008677048,281.1114181197937 593.9999998857354,280.0891345145793 C 593.9999998254034,279.06685112923884 594.0000005407521,278.044566736997 593.9999989385079,277.02228470073265 C 594.0,276.0000000000031 594.0000159571645,274.9777004393027 593.9998769290416,273.9555554995409 C 594.0007094111841,272.93244133404426 593.9963768381444,271.91448007745294 594.0172960332428,270.87132643564706 C 593.9185682288851,269.94754404782987 592.8282770993093,270.01656107654685 591.8267935705388,269.9913709582589 C 590.7960469410818,270.01856413208725 589.7882401244186,269.9205584753941 589.0563050537315,269.1617393473757 C 588.9877909003907,268.14829612747275 589.0027236220013,267.12419466743137 588.9994134421182,266.10231401088635 C 589.0001200314002,265.079944277488 588.9999772534525,264.05767823743423 589.0000040392883,263.03539078655785 C 588.9999990199385,262.013108699695 588.9999982137323,260.99082611061243 589.0000228987789,259.96851794537207 C 588.9998497072497,258.94640701920827 589.0008157901954,257.9231595960312 588.9959643707732,256.90571595539734 C 589.0188831619829,255.86056742317422 588.9119773481142,254.94494505053362 587.8184789053386,255.0172377862546 C 586.817790944004,254.9909937689537 585.78673244396,255.01946864130116 584.7797176593442,254.91642977102978 C 584.0526348409369,254.15308803818652 583.9886393114688,253.13901596533177 584.0024970482978,252.11505069922723 C 583.9994857648861,251.09311682509485 584.0000619951882,250.07081349684947 584.0000959381567,249.04838756043125 C 583.9997618594739,248.02645593132692 584.0001400599174,247.00379258740722 584.002533542659,245.97912107413828 C 583.9782842143633,244.9810300622792 582.929504508791,245.00788005531393 581.9176375912396,244.99558716620297 C 580.8906217062164,245.00947525533286 579.8756777111134,244.95871742824713 579.0972742250507,244.2484564470269 C 578.9790039690345,243.24243097118693 579.0050530529404,242.21698429890574 578.9988210370416,241.19543125165777 C 579.0001957565629,240.17307765644148 579.0002286308489,239.15045741067757 578.9990392179045,238.1294298892385 C 579.0031378372793,237.1030417760881 578.9903397442105,236.0935294636625 579.0275932010235,235.03407929214103 C 578.0449517003334,234.99421143917925 577.0163731116245,235.00093812239953 575.9946614262522,235.00041860782085 C 574.9734660140384,234.99243487916812 574.1504135152039,234.34052244245885 573.9680361477901,233.34747346063034 C 574.0135896224298,232.31293385963647 573.9762083491049,231.3196300178662 574.0800904253092,230.1957761715203 C 573.2957815766647,229.95642712765465 572.2200102740422,230.013130287675 571.2120756362914,229.98779374552944 C 570.1814452944964,230.03452691022545 569.2821484413678,229.52374318031698 568.9567464817337,228.56104383468303 C 569.0113937020584,227.53211619498117 568.9970377303977,226.51154820641872 569.0006703732251,225.4889447156909 C 569.0002191629296,224.46624916297682 568.998450660429,223.4459537234355 569.0060354612505,222.4160452641116 C 568.9772714455651,221.42247287486094 569.0849977906488,220.29271241500675 568.415798150987,219.93868603041653 C 567.3173327337885,220.0183608278583 566.3158877936609,219.98466353172466 565.2822474964478,220.04304509595545 C 564.3557465532526,219.60386229313343 563.955010248117,218.66454266218105 564.0162759845753,217.62984992973176 C 563.9793290603155,216.63130166301903 564.0693711243315,215.52270483459193 563.6526779779068,214.91538514469053 C 562.5241399386421,215.02495065594405 561.5314592951607,214.98345822128093 560.4954509640967,215.04264535389177 C 559.5246589744629,214.75578166259257 558.9732566665303,213.87531658531245 559.0096667604096,212.84669149655488 C 558.9901127376152,211.83494103374576 559.0329282083126,210.7725709390341 558.8539410825542,209.92812093109075 C 557.7400005112711,210.02163543573917 556.7443394088307,209.98819729283395 555.7110510353535,210.02673948741838 C 554.711494755757,209.8802501036312 554.0256034987111,209.0819632671912 553.9946319033719,208.0641955862192 C 554.0021734125471,207.03931861355292 553.9975064846212,206.02089770078288 553.9980880782291,204.99811284527257 C 552.97058117633,205.00347219471726 551.9533515637867,204.99743429614088 550.9280897827198,205.00605596056474 C 549.9108043287364,204.97181994939183 549.1159060870433,204.2816153202697 548.9739759452902,203.281267729802 C 549.0115434026599,202.24817211653001 548.9787257576021,201.25210394881728 549.0705007090462,200.1398415648612 C 548.2184665438886,199.9684711124271 547.1578536965478,200.009452131795 546.1455962810336,199.99071489784023 C 545.1172747652299,200.02552981521822 544.2393005522922,199.4689868633019 543.9577170074925,198.49693527937856 C 544.0164668235619,197.460934956549 543.9749682413229,196.46839050900425 544.0849051294205,195.33944335718746 C 543.4686430046811,194.93170180754146 542.3614232797556,195.02036545942482 541.3624812772999,194.98382966233368 C 540.3279203869015,195.0448085981183 539.3903392291965,194.6386283149273 538.9565835453529,193.7102403777576 C 539.0154972558659,192.67643031210915 538.9812908519848,191.67542500980366 539.0625211539442,190.57541563825887 C 538.6997013693754,189.91500811984812 537.5699876549259,190.02268754661168 536.5763534990301,189.9939856615044 C 535.5464741219669,190.00154056210096 534.526167436039,189.99978586049212 533.5034767442199,189.99932143854647 C 532.4808683640711,190.0029856740763 531.4603120839811,189.9885361685586 530.4313518895611,190.04345001910463 C 529.4701069819345,189.71264065789182 528.9646179047365,188.81110281895982 529.0124983413831,187.7802145410431 C 528.9864522162017,186.77281307099148 529.0449667459437,185.69515189886295 528.7973581620377,184.91960451986327 C 527.67286581286,185.02205121366248 526.678577057187,184.99400212525325 525.6486823292393,185.00158420698537 C 524.6284330102164,184.9997309083673 523.6056967596267,184.99945337882872 522.5831645491351,185.0025641435541 C 521.5623861701604,184.9899142462211 520.5341287798516,185.03906275503664 519.5550529743521,184.7800558998859 C 518.9796205936675,183.911225712034 519.0076937678136,182.88420077318128 518.9922438071924,181.86997102922538 C 519.0261546418685,180.81609969163623 518.8834693975787,179.93551361591003 517.7785556184255,180.01970057761167 C 516.7806910412264,179.98950952046698 515.7484023592659,180.02321460001306 514.7451266214724,179.89853955820294 C 514.0385777823376,179.11703085854384 513.9912222317947,178.10168921690425 514.0040443723016,177.0749981720532 C 513.9929790190918,176.06209519343605 514.0156409886082,175.01745446439114 513.0122364428659,174.99853106750749 C 511.98889122469586,174.99959534830788 510.96589852959,175.00030279918116 509.94404779527605,174.99989110171353 C 508.9216037321608,174.99992964669178 507.89929799942286,175.00056092788446 506.8773910346122,174.9973200061 C 505.85331863778873,175.01205987354624 504.8397631057485,174.94433838739718 504.08015450089533,174.21324320090517 C 503.9812785598836,173.20557258112387 504.0086951324998,172.17477107721754 503.98331905987703,171.17342865914057 C 504.05291645614864,170.0825690221755 503.1305428641321,169.9824293043068 502.0870440841084,170.0036944543529 C 501.06917226715035,169.99927222137964 500.0460351059803,170.0001277789939 499.0238960316859,169.9999828158352 C 498.00159498743665,170.00000030689768 496.97931058917527,170.00000154017727 495.95702906729093,169.99999505529263 C 494.9347410171529,170.00002598093522 493.9124769171195,169.99986745846988 492.89009977776476,170.00063483835868 C 491.86824752555174,169.99709133760655 490.8440377877618,170.01291352255666 489.8311258881376,169.9406122175748 C 489.0760790793246,169.20470501871057 488.98218400721794,168.1962564510189 489.00831194179824,167.1657750542203 C 488.9840213226153,166.16360463933873 489.0502176494795,165.07607805374695 488.1197989502651,164.9840012988101 C 487.07827500674847,165.00328695413398 486.0598921007284,164.99937702441295 485.03688613887476,165.00010104789172 C 484.01471368713385,164.9999895965261 482.99242104777755,164.99999861607887 481.9701346247214,165.00000140468086 C 480.9478530150234,164.99999936856636 479.92556851279795,165.00000023186723 478.90328518031566,164.99999992231088 C 477.8810014374851,165.0000000257773 476.8587178291861,164.9999999865731 475.836434174613,165.00000002848137 C 474.8141505533983,164.9999998863562 473.79186683962604,165.00000047809766 472.7695834996974,164.9999980064778 C 471.7472986154206,165.0000082189996 470.725020059048,164.9999664504755 469.70271580794866,165.00013575551432 C 468.68051504641494,164.99945492785045 467.6579004955573,165.00217324339317 466.6369294907222,164.9913903688609 C 465.6094701228844,165.03390726262447 464.6196501187067,164.82521346587325 463.99573476258837,163.98379855195964 C 464.0029321331619,162.96025496953237 463.9965635638695,161.94121310932783 464.01296824975424,160.90374040833004 C 463.93766199203367,159.95634483311812 462.8582957931165,160.01356194478123 461.8536144316284,159.99591817354633 C 460.8260610306087,160.00120035531583 459.8053208519243,159.99965325477058 458.78259276863315,160.00009874467787 C 457.76043536612815,159.9999722086021 456.73811627282845,160.00000774445556 455.71584249267494,159.99999786035153 C 454.69355613173286,160.00000058669133 453.6712732354389,159.99999984021585 452.64898939186935,160.00000004324917 C 451.62670580561553,159.99999998836014 450.6044221498807,160.00000000311599 449.5821385128034,159.99999999917003 C 448.5598548707426,160.00000000021998 447.537571230006,159.99999999994196 446.51528758891925,160.0000000000153 C 445.49300394792454,159.999999999996 444.47072030690606,160.00000000000102 443.4484366658935,159.99999999999974 C 442.4261530248794,160.0000000000001 441.4038693838655,159.99999999999994 440.381585742852,160.0 C 439.35930210183824,160.00000000000003 438.33701846082454,160.00000000000003 437.3147348198109,159.99999999999997 C 436.2924511787969,160.0 435.27016753778355,159.99999999999997 434.24788389676957,160.00000000000003 C 433.2256002557557,159.99999999999994 432.20331661474205,160.0 431.1810329737285,160.0 C 430.1587493327145,160.00000000000003 429.1364656917009,160.0 428.114182050687,160.0 C 427.0918984096735,160.0 426.06961476865973,160.0 425.0473311276459,160.00000000000003 C 424.02504748663216,159.99999999999997 423.0027638456186,160.0 421.9804802046046,159.99999999999997 C 420.95819656359083,160.00000000000003 419.93591292257685,159.99999999999994 418.91362928156354,159.99999999999997 C 417.8913456405497,160.0 416.8690619995359,160.00000000000006 415.84677835852204,159.99999999999994 C 414.82449471750846,160.00000000000003 413.80221107649464,160.00000000000003 412.7799274354809,160.00000000000003 C 411.75764379446696,159.99999999999997 410.7353601534534,159.99999999999997 409.71307651243995,159.99999999999997 C 408.69079287142614,160.00000000000003 407.66850923041244,160.00000000000006 406.6462255893985,159.99999999999994 C 405.62394194838487,159.99999999999997 404.60165830737117,160.00000000000003 403.57937466635735,160.00000000000003 C 402.5570910253435,159.99999999999997 401.53480738432995,160.0 400.51252374331597,160.0 C 399.4902401023023,160.0 398.4679564612884,159.99999999999997 397.44567282027504,160.00000000000003 C 396.423389179261,160.00000000000006 395.4011055382473,160.00000000000003 394.3788218972335,159.99999999999997 C 393.35653825622,160.0 392.3342546152062,159.99999999999997 391.3119709741925,160.00000000000003 C 390.2896873331785,159.99999999999997 389.267403692165,160.0 388.2451200511512,160.00000000000003 C 387.22283641013746,160.00000000000006 386.2005527691235,159.99999999999997 385.17826912810995,159.99999999999994 C 384.1559854870966,160.00000000000006 383.13370184608243,160.0 382.11141820506884,159.99999999999997 C 381.0891345640549,159.99999999999997 380.06685092304156,160.00000000000006 379.04456728202734,160.00000000000003 C 378.0222836410138,160.0 377.0,160.0 375.0,160.0 " fill="none" stroke="black" /></svg>