<?xml version="1.0" encoding="utf-8" ?>
<svg baseProfile="tiny" height="100%" version="1.2" width="100%" xmlns="http://www.w3.org/2000/svg" xmlns:ev="http://www.w3.org/2001/xml-events" xmlns:xlink="http://www.w3.org/1999/xlink"><defs /><path d="M 189.00000000000006,166.00000000000003 C 189.69917143931266,165.0836340613769 190.74293758594223,164.9842427779111 191.82839191700037,165.01089593551197 C 192.91169849826076,164.97975524511642 193.81694149406803,165.606420532983 194.03021545199243,166.65340058865797 C 193.99395359729218,167.73861637967548 194.00074962882627,168.81914826895976 194.00070347839954,169.89891255544558 C 193.99929423012367,170.98150263542306 193.99035152310023,172.07206696925076 194.09342989766856,173.0419742669085 C 195.20546012114468,173.06607338229574 195.92261751007845,173.90806083593344 196.77124591073465,174.66801829097312 C 197.03847954314162,175.6187007932483 196.99209081416328,176.72258181315163 197.00111593094317,177.79930033354876 C 197.0007593280405,178.87960207496977 196.99863993882667,179.96294642238726 196.99353643987354,181.04936201881452 C 197.07889867074994,182.03830894684634 198.18922642461638,182.05793473642936 198.90955853491866,182.8914523290626 C 199.7579732317727,183.65500204874502 200.04034352208672,184.59850874133122 199.99152499568166,185.70359578695948 C 200.00125467703683,186.77997701962374 200.0008350919709,187.86023088219912 199.9980314170174,188.94434288085432 C 199.99657330534853,190.02681808434647 200.06492813368968,191.03405960736032 201.1727359598008,191.05022627948264 C 201.8966358148628,191.87472609954568 202.74448983990078,192.64206030108443 203.04212087654807,193.5783596839108 C 202.99097078253067,194.68460432986404 203.00139566761064,195.76065110733109 203.00089927828083,196.84087176798005 C 202.99746889757216,197.92568993378808 202.99944648115647,199.00445070071842 203.05153726369085,200.0292031012869 C 204.15598200537713,200.04295712788223 204.88384240370596,200.85789177841102 205.73080364639154,201.62918797388576 C 206.04380179015578,202.55825848081713 205.990430827196,203.6656061148376 206.00153811162008,204.7413230391666 C 206.00095239793058,205.82152429103166 205.9969511278893,206.90698890336924 206.00214103517354,207.98227597968452 C 206.03874563617936,209.0237149125482 207.1389575602876,209.0361370381759 207.87117130039013,209.84095912220744 C 208.71692262591628,210.61637984796909 209.04537643420883,211.53821002009892 208.98990778473348,212.64659980897096 C 209.00168121754328,213.7219932587191 209.00099496195247,214.80218800990838 208.99647685536186,215.88824111179179 C 209.00465543339394,216.96029558162073 209.02657282658248,218.0175705250645 210.12165562347764,218.02977576691117 C 210.85861550387224,218.8239378874754 211.7028547530602,219.60363070420692 212.0468349802023,220.51821918968406 C 211.9894043094714,221.62758407980147 212.00182419645938,222.70266220797956 212.00102747291132,223.78286248836503 C 211.9960448507038,224.86944786692646 212.0069941063152,225.93850471466808 212.01503832328402,227.01074547621445 C 213.10407064511193,227.02388217935265 213.84617653160421,227.80683259902762 214.68856155973586,228.5909638467459 C 215.04827210648045,229.49822669347967 214.9885307885153,230.60879851005868 215.00339499516073,231.68245285532234 C 214.99627352454883,232.7664810807966 215.00950547639985,233.84210337052255 214.98046118775744,234.93452517395957 C 215.66641489034174,235.73726822763587 216.4614443965962,236.46287566809804 217.3158138047018,237.25065364185255 C 218.0000349210759,238.005031589138 217.31088661589908,238.72332873035162 216.4142519931199,239.72609624905323 C 215.7377632832828,239.8007389922531 214.91948127830014,238.96595832966074 213.82661067260736,239.0148754921162 C 212.7505402248695,238.99504713942326 211.66805877362134,239.00145233406474 210.5875934127922,238.999607774459 C 209.50655717973905,239.00009919914748 208.4256710485914,238.99997641337157 207.34474786540943,239.00000524290684 C 206.2638332704919,238.99999892963888 205.18291682414346,239.00000019234508 204.1020007399644,238.99999997307 C 203.02108459528867,239.000000001345 201.94016845763437,239.00000000088806 200.85925232020278,238.99999999952018 C 199.77833618227766,239.00000000017135 198.69742004456643,238.99999999994787 197.61650390678423,239.0000000000145 C 196.5355877690228,238.99999999999636 195.45467163125568,239.00000000000088 194.37375549349002,238.99999999999972 C 193.29283935572403,239.00000000000003 192.21192321795817,238.99999999999997 191.13100708019232,239.00000000000003 C 190.05009094242638,239.0 188.96917480466044,238.99999999999994 187.88825866689456,239.0000000000002 C 186.8073425291283,238.99999999999852 185.72642639136467,239.00000000000782 184.64551025358745,238.99999999996163 C 183.5645941158727,239.00000000017087 182.4836779778906,238.99999999928642 181.4027618409834,239.00000000280022 C 180.32184570002124,238.99999998972115 179.2409295732312,239.00000003463387 178.16001340211645,238.99999989817195 C 177.0790973429428,239.0000002197678 175.9981811567988,239.00000002180712 174.91726399945475,238.99999584973745 C 173.83635693363172,239.00003297173308 172.75538594453226,238.99980852246344 171.67475162205335,239.00096169835206 C 170.59252389842834,238.99559474610152 169.51728124370135,239.01881039176655 168.41332338690646,238.9245246803579 C 167.49063716466122,239.50478431232827 166.80624387000128,239.94641446724836 166.01582524946045,239.01629808825027 C 165.09220237720427,238.2210363822502 165.36850123460516,237.49953744318904 166.30833560720794,236.7095554811826 C 167.04959503808635,235.95842401219141 167.88298471890084,235.22327285175754 168.0189760304383,234.19632138151948 C 167.99713597385167,233.10674006032255 168.0003196589969,232.0271142318773 168.00139172022946,230.94673977580243 C 167.9865756642081,229.8584727783296 168.09085689155066,228.82908100191028 168.9111329777997,228.092321081549 C 169.6199091492188,227.19114682241525 170.69961295627064,227.04975837876736 171.0524962171058,226.34564509981337 C 170.99016997864013,225.1974274992615 171.00137114052828,224.12872796809657 171.0001198640301,223.0462179150174 C 171.0007988287629,221.9657046563425 170.9887463192686,220.87882366859083 171.08095509709554,219.84349442627098 C 171.896030840175,219.10688192573937 172.60634732655095,218.20392591975923 173.67964060883995,218.04813151242314 C 174.0560823071221,217.36878060794857 173.98916612689445,216.2156083368967 174.00161434617385,215.14826640718726 C 174.00015232972314,214.06546381397166 174.000344028919,212.9847519397327 173.99080182671838,211.89910945947776 C 174.07140556797543,210.85807382329767 174.88080890773796,210.12130078662727 175.59293794422788,209.21699536009245 C 176.65937975824193,209.04626120651776 177.0595839567799,208.391825086556 176.98816566515333,207.233793036097 C 177.0018632802431,206.16781004927188 177.00017526540813,205.08470355795464 176.99991691668475,204.00381352287633 C 176.99279848143271,202.91936587345725 177.06218484035435,201.87280510386836 177.86546835310708,201.13557870583793 C 178.5796814347801,200.2303499522851 179.6388485323373,200.04417108809238 180.06298472544475,199.41476065542682 C 179.9871730354949,198.25198640898938 180.0021166990158,197.18735757761465 180.00018918132642,196.10393758792642 C 179.99951916814848,195.02289023407138 179.99472645481939,193.93958802254795 180.05330088884918,192.88769348712995 C 180.8500171509388,192.14972090254255 181.56657079716373,191.24397993979687 182.61806650655052,191.04188567322527 C 183.0662678681391,190.43756924743667 182.98619273731515,189.27019330290318 183.00237334988452,188.20690767002168 C 183.00019458851028,187.12316634533235 182.99915028589632,186.04198178132413 182.99657591817703,184.95977101870093 C 183.04476168813102,183.9027441922626 183.83446327590372,183.16373259592098 184.5535990303251,182.2578755660807 C 185.5970532562986,182.03942947799086 186.06941663992234,181.4602327954802 185.9852292698748,180.28841856509823 C 186.00263198068993,179.2264590045299 186.00019199673216,178.14239027096872 185.99880948077816,177.06108772226798 C 185.99833704599186,175.97990997551085 186.03657514358935,174.91796240273598 186.81881425074602,174.17761877221292 C 187.54076154037728,173.2720283153357 188.57582297175432,173.03682424270337 189.07243461617392,172.48274370632237 C 188.9842126031054,171.30662862756714 189.0031430021421,170.24613997584595 188.9994389447916,169.16122684997168 C 189.00011836277045,168.08104386110853 189.0,167.0 189.00000000000006,166.00000000000003 " fill="none" stroke="black" /><path d="M 150.00000000000003,47.000000000000014 C 149.08668318069755,47.686340419473204 148.98482558019157,48.708471522874035 149.00613072546304,49.78220112672365 C 148.98969111938698,50.838844742128735 149.02435334883182,51.9205549337546 148.35394307734092,52.678884103431294 C 147.60153780005973,53.547516099086344 146.6994013575988,53.99804810120697 145.91025336073736,54.24131667844479 C 146.02416679137676,55.42881720393452 145.9939771462565,56.46059753203698 146.00057477414265,57.532967158218106 C 146.00343466812095,58.59779830497376 145.9859683509354,59.6539193788156 146.04975024933523,60.750090461644284 C 145.50661524849932,61.55914172569176 144.7125522799463,62.3862411917225 143.90520806953694,63.00783370146138 C 142.93778174726265,63.088126208698085 143.02219562676223,64.24261314136551 142.9857093654413,65.27345969525402 C 143.0389512572258,66.3690919038377 142.79064593363165,67.31081780530054 141.95462867239473,68.05264861381274 C 141.25663757060073,68.90469414300985 140.1584656381013,68.94854299828425 139.97299384920868,69.81378792445436 C 140.00399137606803,70.91179898597314 139.99974264615497,71.97170409778172 140.00013882141403,73.03655554823324 C 139.99745849585315,74.09984893800628 140.0167944334389,75.17394261258217 139.9016090048666,76.1816100349451 C 139.0904448960261,76.90615428287461 138.39304258878227,77.79665817187117 137.336649116733,77.95335621513676 C 136.93817483111312,78.59313011908719 137.01332450217464,79.73880890736466 136.997534726099,80.7861327744386 C 136.9998095505282,81.85364514158161 137.00152082339875,82.91871050069939 136.99858363786876,83.98182694593893 C 136.9841052548711,85.03916867337738 136.23832696191934,85.77326010668398 135.51493713241928,86.66197219689778 C 134.5398191835384,86.97855523879036 133.91251122527368,87.38290752725376 134.02511883040134,88.5662581426287 C 133.9806560657585,89.59325725229107 134.0536638899915,90.6977649845366 133.55066609877514,91.52281091522642 C 132.74634807705158,92.33697569090528 131.96351360467392,93.00432179473512 130.95551618664973,93.05208517043492 C 131.01724936969316,94.18325051802273 130.99449866355704,95.2231494754239 131.00106688009166,96.29519476292364 C 131.00227085846808,97.35908445523897 130.98831604190013,98.41702752212755 131.0487757143305,99.51151725723892 C 130.69371261813598,100.40453960261279 129.8612078263614,101.17252866858462 129.13994370269324,101.96348322918936 C 128.05033228824942,101.9712761853299 127.99728402894077,102.97860990462347 127.99839606516015,104.04433319038618 C 128.00072058421262,105.1115087325835 128.00093890327668,106.1754106503889 127.99334024357047,107.2364348271965 C 128.03244309056464,108.32031850992003 127.82036916689317,109.28095239900426 126.98616860945775,110.01558818919813 C 126.29126392222992,110.88123606890916 125.19884791381303,110.94685805624302 124.9635342343279,111.7595917679354 C 125.00861070453942,112.87089585527013 124.99383222378515,113.9239787124387 125.00247374406078,114.99330819499109 C 124.28365601309673,115.73488353864543 123.54997362385659,116.61783608878574 122.6028287535372,116.98674468967819 C 121.91016923756987,117.32483042519698 122.02290728521078,118.51106747640316 121.99461799799764,119.54488048442207 C 122.00031060157086,120.6163091326009 122.00344082631564,121.68144815257055 121.98710550475903,122.73807665791027 C 122.04155224503629,123.82962455272019 121.43740718801834,124.6134318702801 120.66188316735064,125.4608004995708 C 119.81296755576847,126.00681717194595 118.91957797029355,126.15219451589782 119.02580570626934,127.32972075259315 C 118.98301519828749,128.3555269475996 119.04664213581773,129.4565171791673 118.73293343068502,130.3672470583701 C 117.89753809317715,131.12434768311329 117.18784065462128,131.94281346933715 116.0899209862207,131.95883427852758 C 115.98833712484098,132.9139528187298 116.00034284992144,133.99144909806793 116.00041903192357,135.05612041192535 C 116.00057987188424,136.1202799904505 115.99500917482466,137.18225613037288 116.02632393083026,138.262279394302 C 115.85430746081198,139.24225533231674 115.0265312178357,139.9711074016486 114.33287500297914,140.84976905549138 C 113.25120402969632,140.94738184052545 112.9536862613188,141.6934738304415 113.00899374290499,142.81773376081657 C 112.9986248949535,143.8709512966031 112.99985146921486,144.93710105029072 112.99996517875093,146.00158224003115 C 113.0060981064753,147.069157151812 112.95031229357622,148.10604372679066 112.1697422783739,148.83254626250545 C 111.46062647168621,149.72622228038026 110.44518259894409,149.96594491545562 109.92154665506135,150.47630806272747 C 110.02198657755851,151.64641604433436 109.98205765779284,152.67815675099644 110.04848713141092,153.77861706527338 C 109.48238134246222,154.57694911657495 108.69547984847708,155.41213494446038 107.87398592635616,156.00821589406257 C 106.93083574225851,156.10905555161526 107.02177053185068,157.2717415522818 106.99383053000341,158.3060051520565 C 107.0009744097508,159.37879651742793 107.00281633824042,160.4429646042405 106.98673915571061,161.49984372811886 C 107.05251757994834,162.59698353744145 106.63025107298819,163.4591958181644 105.80780145578088,164.24712777712102 C 105.06283304975025,164.98775749070188 103.99967416958202,165.0002603703937 104.00827503920546,166.0740808200786 C 103.99615688117366,167.1254955868581 104.00099046651191,168.19550916867965 104.00154228844164,169.25926794107284 C 103.99087321583377,170.31882064704337 104.04093605634732,171.40814317123846 103.76492579130708,172.33824494782672 C 102.92747769765444,173.08580823026304 102.22485123030867,173.9233777282626 101.1254392035589,173.95228536977635 C 100.97978231730222,174.8605815536789 101.00330904060775,175.94953518093212 101.00106409130494,177.01172875473412 C 100.9730930461883,178.06218025741782 100.21438472024845,178.79297768833138 99.49687488857333,179.6846702797144 C 98.5068887655285,179.97399756274274 97.91608152167515,180.41481366202908 98.02032743892312,181.5918912966233 C 97.99552103582248,182.62945601304244 98.00006651462101,183.6996294239992 98.00313347881675,184.7649475201302 C 97.98961203522296,185.82291388039656 98.0276191667741,186.90630848883163 97.3674017848592,187.6683975103856 C 96.61118518064237,188.53386697957689 95.71767683674162,188.99986028381207 94.91105885805315,189.22631542137847 C 95.02422664743584,190.41300781656204 94.99389347684905,191.44463840779088 95.00062377869256,192.5171392032535 C 95.0034033808438,193.5819033156519 94.98588935844212,194.63800994992042 95.05072479396127,195.734701734478 C 94.51961424375123,196.54887763388226 93.72220396042019,197.37197732581492 92.92226146761182,198.00719947313763 C 91.94236639958959,198.07718110554086 92.02123719448038,199.22578246987885 91.98631257643176,200.2579620202024 C 92.03730258434409,201.35239167147768 91.80113483310772,202.29993478220712 90.96578889491548,203.0393317286634 C 90.26919913207728,203.89660756429853 89.1725065307237,203.94762352818987 88.9699386497956,204.79461819786644 C 89.00475513539666,205.8967534502599 88.99958387604475,206.95564730027502 89.00007388839846,208.02067380806346 C 88.99789632837083,209.084189397742 89.01501075444921,210.15718474039124 88.9099563256769,211.16981693115957 C 88.10288327762213,211.89415673103508 87.40410726356923,212.78592252102285 86.3535029035985,212.95502926307265 C 85.93542615331742,213.57429161275883 86.01412684605157,214.72380309255885 85.99732137311508,215.77002499774983 C 85.9998185644762,216.83781123640466 86.0017579439131,217.90294748263943 85.9973722157484,218.96535450741698 C 85.98972684177872,220.02608738700067 85.25149074668238,220.76223283754246 84.52503181063418,221.64931918455838 C 83.55802094287039,221.9809919101862 82.91133663314595,222.36575543385663 83.0255746686518,223.5509063046161 C 82.98053262069217,224.5772224152008 83.05412020567897,225.68215108346445 82.56344352873495,226.51254622623398 C 81.75607885476452,227.32265593949955 80.9799332167749,228.00260676018064 79.96143266748477,228.04259752217365 C 80.01609314059027,229.1661290278939 79.99469652836042,230.20749604917376 80.00106982934541,231.2793058901903 C 80.00215798904213,232.3431574004098 79.98868253592632,233.40133766834546 80.04774175583724,234.49513075317583 C 79.70541114252981,235.39406888732833 78.87156305235149,236.15851362204486 78.15397638640276,236.9578757241576 C 77.06127696848493,236.96718301626672 76.99482485140618,237.96008288474533 76.99891752008679,239.02902796675727 C 77.00064440984201,240.0955352454726 77.0008310394874,241.1594969016704 76.99382206427866,242.2207997400517 C 77.03070580927842,243.30358307234877 76.83038423444512,244.2698756741203 75.99766838446928,245.00260159998382 C 75.30340782526383,245.87243399440436 74.21371301605565,245.9467400847374 73.96040244941537,246.7403606000474 C 74.00961264182963,247.8559917471996 73.99265275696368,248.9074032116893 74.00722068260058,249.9798257352194 C 73.29690212012092,250.72405118749288 72.55987973640582,251.6047509065354 71.6211607453521,251.98905944935652 C 70.90968303844444,252.30843368244166 71.02325895797176,253.49557374206844 70.99447312447704,254.52885360601306 C 71.00036036379862,255.6004893128863 71.0034621935826,256.6655778534236 70.98678953854153,257.7220496967245 C 71.04352967952319,258.8147342026686 70.45059305738341,259.60306873736084 69.67158437580068,260.4467840910259 C 68.8306577387644,261.00747578655796 67.92276151517099,261.13946891896535 68.0230525295954,262.3122555639286 C 67.99371375372529,263.34499400407367 68.0008948898644,264.41787752162253 68.00303064496354,265.48220634767745 C 67.9862478730898,266.5387231000184 68.0531270012416,267.63641474417585 67.59963985353119,268.4845837432624 C 66.78329948669699,269.282310027758 66.02477858127658,269.9959219432638 64.98018282953336,270.01839481857934 C 65.01304491134374,271.11792960974793 64.99068335500165,272.16143459475836 65.02610586759542,273.2472234912074 C 64.86305035833587,274.2302181414409 64.0383935943168,274.9584862639785 63.344667458450985,275.8402705051939 C 62.26693206225351,275.9480736392612 61.95064776080714,276.6743223904301 62.00981905635852,277.8027535370911 C 61.99842508588091,278.8548547805891 61.999830820077804,279.92124895769297 62.00030184889943,280.98587021578135 C 62.004540195939995,282.0525120201141 61.957247692386524,283.0935966211042 61.18262575143483,283.82111280331196 C 60.471222486382835,284.714416017249 59.462681969366635,284.9681259849587 58.920516003332374,285.45872554864695 C 59.01877169247726,286.629340120784 58.99600448145056,287.6691071815378 58.999971209588914,288.73862632305514 C 59.00286306321403,289.8039631081491 58.99131866207088,290.8628830996743 59.01889651020277,291.94110229571686 C 58.33460679481065,292.6945026470123 57.587098886879936,293.5672305031615 56.67276538706192,293.99526965391726 C 55.90878593451637,294.2634297006212 56.027221573534995,295.45348034781773 55.98071932082986,296.47733236777407 C 56.05366018228321,297.58261692307644 55.641746857805636,298.4480375259476 54.81796987384954,299.2330593852889 C 54.07791793951155,299.98386861089864 53.00834613791086,299.99374576531085 53.006442506757594,301.05622972422395 C 52.99651936874885,302.11001953936125 53.000954975236645,303.17957823767364 53.001425060495244,304.243344158736 C 52.99132598391326,305.30317240106007 53.03943316542735,306.3915239193437 52.775763750837235,307.3274834389595 C 51.93840462265479,308.07226912400984 51.23788606593928,308.91599072341296 50.1384742354339,308.9504686385959 C 49.97740726115582,309.84180593258276 50.00290788475877,310.9338802268549 49.99995859084051,311.99521243536105 C 50.000245749142856,313.05983221393734 49.99679829760518,314.12278191999815 50.0194330702219,315.19850739716924 C 49.889014719679516,316.19872553805965 49.0723981540574,316.92392343795575 48.37651316198544,317.811963214105 C 47.31258524969893,317.95132829597026 46.94131322746692,318.6203663143068 47.01565764197481,319.7625304567188 C 46.98659114444632,320.8041285965715 47.03119538220736,321.8924756145634 46.38018768278435,322.65731743136695 C 45.621066407366506,323.52037765723134 44.735867235326495,324.0014974667222 43.91215057711634,324.21162145656314 C 44.02422000801361,325.39712705369675 43.993824491986814,326.42869525555017 44.00067141841235,327.5013086770434 C 44.003363975618015,328.56600468318084 43.985849044019425,329.6221196677637 44.05153204180281,330.7192298837391 C 43.532526905594494,331.5386048381687 42.731946925352126,332.3577275946208 41.93910978290738,333.0062520026048 C 40.947573523305,333.0667685433548 41.018767794793185,334.208145862903 40.99425070873949,335.24612868926664 C 41.00105371927215,336.31846346032717 41.0024315413913,337.38241827697004 40.987815592884694,338.44003264304956 C 41.050111761774204,339.5354364080066 40.676386530027116,340.4198318777263 39.84613239808738,341.19314114370957 C 39.118988889081116,341.9711083485479 38.03512666012187,341.9780986329037 38.000708539869784,343.00554420598417 C 37.99593014009617,344.06594257421375 38.014361866201135,345.1416389870057 37.917589470480245,346.1573864102657 C 37.11525614233917,346.88209461134744 36.41520507053258,347.7751421082522 35.370509093751544,347.95681324438596 C 34.93274946893303,348.55554267528396 35.0149871748855,349.7088168866461 34.99686219883203,350.75379896202554 C 35.000605139120815,351.8223535335686 34.99988480647701,352.8861639947396 35.00004311290571,353.9507597055612 C 35.00004322951265,355.0152731214858 34.99909688556584,356.08083509243556 35.006480529428515,357.1373264689608 C 34.96355526008134,358.2486368788388 35.202304568101,359.05483373711695 36.31297814297164,359.1153431133308 C 36.99324449840188,359.98965467767573 37.700352363999826,360.78231641331723 38.629856846513924,361.415031672419 C 38.984652391402925,362.39855734966403 39.32163220924504,363.0884538230755 40.507262281829476,362.9773297934599 C 41.54100336574234,363.00558759367874 42.61306773279234,362.9986778062035 43.67583599567608,363.0002986437615 C 44.74076531409508,362.99993637591103 45.80521691952819,363.00001248421074 46.86976739699719,362.99999786200146 C 47.9342993160048,363.00000027007405 48.99883415474983,362.99999999883227 50.06336871315997,362.9999999848416 C 51.12790323189933,363.0000000072551 52.192437785766955,362.9999999974328 53.25697232526298,363.0000000007987 C 54.32150686954831,362.9999999997698 55.38604141239273,363.0000000000628 56.4505759556432,362.9999999999835 C 57.51511049878472,363.0000000000041 58.5796450419543,362.9999999999989 59.6441795851169,363.0000000000001 C 60.70871412828122,362.9999999999999 61.7732486714451,363.0 62.8377832146091,362.9999999999999 C 63.902317757773076,363.00000000000006 64.96685230093703,363.00000000000006 66.03138684410101,363.0 C 67.09592138726495,363.00000000000006 68.16045593042901,362.99999999999994 69.22499047359291,362.99999999999994 C 70.28952501675694,362.99999999999994 71.35405955992087,362.99999999999994 72.41859410308489,362.99999999999994 C 73.4831286462488,362.99999999999994 74.54766318941283,363.0 75.61219773257675,362.99999999999994 C 76.67673227574076,362.99999999999994 77.7412668189047,363.0 78.80580136206868,363.0 C 79.87033590523265,362.99999999999994 80.93487044839661,362.99999999999994 81.99940499156067,363.0 C 83.06393953472457,363.0 84.12847407788858,363.0 85.1930086210525,363.0 C 86.25754316421653,363.00000000000006 87.32207770738044,362.99999999999994 88.38661225054447,363.0 C 89.4511467937084,362.99999999999994 90.51568133687239,363.0 91.58021588003633,363.0 C 92.64475042320032,362.99999999999994 93.70928496636428,362.99999999999994 94.77381950952825,362.99999999999994 C 95.83835405269232,363.0 96.9028885958562,362.99999999999994 97.96742313902024,362.9999999999999 C 99.03195768218416,363.0 100.0964922253482,363.0 101.16102676851206,362.99999999999994 C 102.22556131167612,363.0 103.29009585484,362.99999999999994 104.35463039800403,363.00000000000006 C 105.41916494116789,362.99999999999943 106.4836994843322,363.0000000000021 107.54823402749489,362.9999999999917 C 108.6127685706636,363.00000000003104 109.67730311381018,362.9999999998859 110.7418376570351,363.0000000003956 C 111.80637219999973,362.9999999987265 112.87090674374706,363.000000003611 113.93544128557014,362.99999999238344 C 114.99997582964518,363.00000000001194 116.06451038843805,363.000000130879 117.12904479104866,362.9999989539713 C 118.19358019109812,363.0000061290037 119.25811026494434,362.9999687056849 120.32266611009432,363.00014707541743 C 121.38710525066384,362.99934823275294 122.4520468356076,363.00275655033323 123.51491554744933,362.98880790313547 C 124.58600571814112,363.04370069709654 125.57803550465103,362.67111759973506 126.04224256994107,361.709399147552 C 125.98827870157358,360.638443106016 126.00290232865348,359.5755492710755 126.00014226214877,358.5111264848096 C 125.99646013197004,357.44438629803375 126.01420437579552,356.38876176317103 125.94800671039489,355.29130700312834 C 126.45872031306456,354.4683749589298 127.26146947771743,353.65198413334525 128.04952007970442,352.9945543255536 C 129.048851978317,352.9401571631808 128.98190970443397,351.8033694024161 129.00564073327965,350.76453368012966 C 128.99893884255803,349.69232465168284 128.9976421215831,348.62840137932625 129.01195844309058,347.5706377868809 C 128.95047854793432,346.4756403658786 129.31556230974272,345.58725731189014 130.14687620197128,344.816420414737 C 130.87121405259325,344.0323286871954 131.95798169427644,344.0252064696201 132.0008631098708,343.00691836835296 C 132.00199135508558,341.9436169745094 131.99922546796427,340.87594638247265 131.99897424640014,339.8120835154764 C 132.00703758740244,338.75127990844305 131.96621073912615,337.66654116474245 132.1876356095633,336.71040019218935 C 133.02277863214155,335.9741226404439 133.71827167932867,335.11196864186684 134.81289586089972,335.05298882764515 C 135.0331933256759,334.2248955867203 134.9944509980808,333.11852099562367 135.00058619775103,332.06068236635997 C 134.9999848647337,330.9954643401356 135.0016712089304,329.9317344770805 134.98678026921735,328.8598379332102 C 135.0817770407002,327.8422689677251 135.88438517952264,327.1179363782112 136.5847533396711,326.22518965594406 C 137.62918645963848,326.0431280521876 138.0672803080168,325.4447625562879 137.98507036419815,324.2914636146672 C 138.00289581252457,323.2463476647528 138.00016750879374,322.178280585472 137.99801876791622,321.1130840042283 C 138.00378760679666,320.05135341621644 138.0048302862507,318.9873426187329 138.73512157327866,318.24892253484404 C 139.46465126275584,317.3636197582885 140.42365195648134,317.01666160962816 141.08875681895424,316.65102125273665 C 140.97767193148456,315.4665483010246 141.0052026411923,314.4319922192739 140.99958464416824,313.3603683595037 C 140.99724036781015,312.2970312360967 141.01021796325432,311.233723981517 140.96826356880135,310.1642446723825 C 141.52557853829936,309.2413539975733 142.54223603347813,308.96151824432883 143.61245316690616,309.00910752801553 C 144.67565449982519,308.9979424575788 145.7404870889021,309.0004384657103 146.80495899773416,308.99991392974067 C 147.8695055798787,309.000014751098 148.93403813866513,308.99999813277685 149.99857290596776,309.00000000984363 C 151.06310746037147,309.00000010397133 152.1276419851656,308.99999995013195 153.1921765363929,309.00000001765875 C 154.256711076792,308.999999994504 155.32124562080142,309.0000000015848 156.38578016372446,308.99999999956697 C 157.45031470695363,309.0000000001131 158.51484925010075,308.9999999999715 159.5793837932688,309.0000000000067 C 160.64391833643185,308.9999999999983 161.708452879596,309.00000000000034 162.77298742276,308.9999999999999 C 163.837521965924,309.0 164.90205650908797,309.0 165.96659105225194,308.99999999999994 C 167.03112559541586,308.9999999999999 168.0956601385799,308.99999999999994 169.1601946817438,309.0 C 170.22472922490783,309.0 171.28926376807175,308.9999999999999 172.35379831123575,308.99999999999994 C 173.4183328543997,308.9999999999999 174.48286739756367,308.9999999999999 175.54740194072764,308.99999999999994 C 176.61193648389158,308.99999999999983 177.67647102705564,309.0 178.74100557021956,308.99999999999994 C 179.8055401133836,308.99999999999994 180.87007465654744,308.99999999999983 181.93460919971147,308.99999999999994 C 182.99914374287542,308.9999999999999 184.06367828603948,308.99999999999994 185.12821282920333,308.99999999999983 C 186.19274737236736,308.99999999999994 187.25728191553134,308.99999999999994 188.3218164586953,308.99999999999994 C 189.38635100185928,308.9999999999999 190.45088554502323,308.99999999999994 191.51542008818717,308.9999999999999 C 192.5799546313512,308.99999999999994 193.64448917451526,308.99999999999994 194.7090237176791,308.9999999999999 C 195.77355826084312,308.9999999999999 196.83809280400703,308.9999999999999 197.90262734717115,308.9999999999999 C 198.96716189033495,308.9999999999999 200.0316964334991,308.99999999999994 201.09623097666298,308.9999999999999 C 202.16076551982698,309.0 203.22530006299095,308.99999999999994 204.28983460615495,309.0 C 205.35436914931884,308.9999999999999 206.41890369248284,308.99999999999994 207.48343823564682,308.9999999999999 C 208.5479727788108,308.9999999999999 209.61250732197487,308.99999999999994 210.6770418651387,308.99999999999994 C 211.7415764083027,308.9999999999999 212.80611095146662,308.99999999999994 213.8706454946307,308.99999999999994 C 214.93518003779457,308.9999999999999 215.99971458095865,309.0 217.06424912412257,308.9999999999999 C 218.12878366728663,309.0 219.19331821045046,308.9999999999999 220.25785275361454,308.9999999999999 C 221.32238729677843,309.00000000000034 222.3869218399427,308.9999999999982 223.45145638310558,309.00000000000716 C 224.5159909262739,308.99999999997044 225.58052546942062,309.0000000001151 226.6450600126498,308.99999999956833 C 227.70959455557824,309.00000000154205 228.77412909954433,308.9999999948236 229.83866364020415,309.0000000157952 C 230.90319819004628,308.99999995986866 231.9677327217062,309.0000000562111 233.03226724366456,309.0000002337985 C 234.09680215374016,308.99999716106925 235.16133412699642,309.0000186829571 236.2258829770141,308.99989886912437 C 237.29034653909767,309.000493305571 238.35520825375184,308.9977533830827 239.41831437211576,309.00971583504196 C 240.48881441168152,308.9597573324208 241.5000976397843,309.261640557566 242.0352370367099,310.19466891805484 C 241.989199238566,311.26462585080844 242.00280627062438,312.3278937642957 242.00051101653875,313.3911043872777 C 241.99449882654577,314.4631505361561 242.0231009811269,315.4965564562363 241.90988964533756,316.68332126665825 C 242.61192302732567,317.0120662953452 243.5546871387265,317.3888234035954 244.29060593269412,318.27004238081804 C 245.0048009309396,319.01339754977164 244.99419196377775,320.0831934447942 245.00235906064563,321.14375373614035 C 244.9998717418616,322.20903402782807 244.99669067326852,323.277641335132 245.01641889143008,324.3206959033712 C 244.9278270540435,325.48088227478456 245.40436551055944,326.0392590396956 246.43625368293596,326.2469709879546 C 247.14018291925714,327.1407780621646 247.93339626099055,327.8656596612835 248.00987873284606,328.89233624098466 C 247.99911452395884,329.96219502460605 247.99992430332392,331.0262985485754 247.99906724918,332.0919182492633 C 248.00710373002042,333.14767915943764 247.96079575405497,334.2622228491528 248.21580321359934,335.0533902896295 C 249.30541604880162,335.1289172294779 249.99948819478485,335.9994296876012 250.83192858382213,336.7318802156309 C 251.03043302372967,337.6990486945482 250.99389733181695,338.78165947746265 251.0008144678158,339.84300556797467 C 251.00063163337313,340.906977725167 250.9990024652527,341.97337594501613 250.99442834711516,343.0428413852037 C 251.06303465431102,344.0334224586752 252.15616645632576,344.04303412044493 252.87319866073136,344.8436851827732 C 253.70723995422193,345.6075811516344 254.0475708160065,346.50745049980367 253.98874184671322,347.60112906320836 C 254.00214000889403,348.65934752601174 254.00106997204264,349.7231933357881 253.9947293224706,350.794963961437 C 254.01590370601997,351.83657188617326 253.96239707218635,352.95885797626045 254.98249986650669,352.99769052133644 C 255.75742544137333,353.67979632083257 256.56616699897074,354.4882975013331 257.05287015135707,355.3217110253435 C 256.9858740838834,356.41956415464824 257.00343978035346,357.47527266847214 256.9999203028301,358.54194416076547 C 256.99705523258126,359.6063997681244 257.01158242515453,360.6692982272079 256.95936866179954,361.74004734424136 C 257.4463511054365,362.69311266816874 258.44492084513087,363.0429773463345 259.5158781719523,362.98919690526077 C 260.5788107820348,363.0026105078801 261.6437292500702,362.999395757077 262.708175765684,363.0001328456551 C 263.7727294323133,362.99997271751414 264.8372601135654,363.00000505479005 265.9017953527052,362.9999992271171 C 266.96632979574355,363.00000006550783 268.03086434500585,363.0000000144435 269.09539889116365,362.99999998937403 C 270.1599334325563,363.0000000042077 271.2244679763879,362.99999999861745 272.2890025193374,363.00000000041246 C 273.35353706256444,362.99999999988444 274.4180716057111,363.00000000003104 275.48260614887965,362.99999999999204 C 276.5471406920423,363.000000000002 277.6116752352066,362.99999999999955 278.67620977837055,363.0000000000001 C 279.7407443215346,363.00000000000006 280.8052788646985,362.99999999999994 281.86981340786235,363.00000000000017 C 282.93434795102644,363.00000000000006 283.9988824941905,363.0 285.0634170373543,363.0 C 286.1279515805183,363.0000000000001 287.1924861236823,363.0 288.25702066684636,362.99999999999994 C 289.3215552100103,363.00000000000006 290.38608975317436,363.00000000000017 291.45062429633816,363.0 C 292.515158839502,362.99999999999983 293.57969338266616,363.0 294.6442279258302,363.0 C 295.70876246899405,362.99999999999994 296.773297012158,363.0 297.83783155532194,363.0 C 298.902366098486,363.0 299.96690064164983,362.99999999999994 301.0314351848139,363.0000000000002 C 302.095969727978,363.00000000000006 303.1605042711419,362.99999999999994 304.22503881430583,363.00000000000006 C 305.28957335746986,363.0000000000001 306.35410790063384,363.0 307.41864244379775,362.99999999999994 C 308.4831769869617,363.0 309.5477115301257,363.0000000000001 310.61224607328967,362.99999999999994 C 311.67678061645364,362.99999999999994 312.74131515961767,363.0000000000001 313.80584970278153,362.99999999999994 C 314.8703842459455,363.0 315.9349187891094,362.9999999999999 316.99945333227356,363.00000000000017 C 318.0639878754376,363.0 319.1285224186014,362.99999999999994 320.1930569617653,362.9999999999999 C 321.2575915049294,363.00000000000017 322.3221260480935,363.0 323.38666059125757,363.00000000000017 C 324.45119513442006,362.9999999999989 325.51572967759006,363.0000000000043 326.5802642207311,362.99999999998323 C 327.64479876398156,363.00000000006264 328.70933330683306,362.99999999977604 329.7738678510612,363.00000000075244 C 330.8384023909022,362.999999997703 331.9029369429358,363.0000000058423 332.96747147076724,362.9999999917726 C 334.03200598620145,362.999999966326 335.09654101411803,363.000000411162 336.1610721571087,362.999997290973 C 337.2256256408832,363.0000146719365 338.290066179543,362.9999284081464 339.3550341238867,363.00032612130536 C 340.4176760757853,362.9985893737241 341.4901159300045,363.0058437292238 342.5229230525445,362.9767288738206 C 343.7098860554783,363.089076074864 344.0109037912475,362.3628401026358 344.3953451037557,361.3950293960681 C 345.32352259838785,360.7628307135284 346.0245136151783,359.96216332995255 346.71255639639475,359.0995002565187 C 347.82563528591425,359.05388709935755 348.03054471925765,358.21136728298075 347.9950389715685,357.10814199330764 C 348.0005333321248,356.0495926966677 348.0000416410151,354.9845218958305 347.9999321252572,353.9199082323795 C 348.00014845960743,352.8552955649812 347.99927873208554,351.7916372396661 348.00356394713583,350.7224991731725 C 347.98352166842307,349.6795857655565 348.0721459690753,348.51941991053803 347.59594538425785,347.9606770876714 C 346.5637763314188,347.75337581337084 345.8602130730094,346.8592123117788 345.0671707118663,346.1340631240019 C 344.98918533981976,345.10891876327173 345.0022962150916,344.0365477744301 345.0040305419068,342.96969434104295 C 344.94435880531785,341.96933124584626 343.8533923501395,341.9608092278363 343.13388461742164,341.16580787098576 C 342.30065768726575,340.3995519858836 341.95171160088535,339.50368947349864 342.01150997141303,338.40952874582393 C 341.99778312647044,337.35147272145855 341.998930840577,336.287602363253 342.00541032531623,335.2156648309485 C 341.98328909145994,334.17508332204415 342.0417116429158,333.0474912858158 341.02860861842856,333.0035499033663 C 340.2491960340984,332.3299272616976 339.44249871266675,331.5186828273027 338.9473813733954,330.68892849262573 C 339.014117506075,329.59130006075486 338.99673613332277,328.5351029272325 338.9992396530373,327.4705426620109 C 339.0062685578194,326.39776248910016 338.97597902618566,325.366069619777 339.0849236124889,324.18393920709656 C 338.2289041070296,324.0042931399341 337.36018313954116,323.49352523862615 336.5940064265774,322.63696256243867 C 335.9632645879133,321.86445863559874 336.01484173467264,320.77232419659134 335.98260214143016,319.73347535423295 C 336.06418954828234,318.5835981877155 335.6550301756082,317.95428135574514 334.6017789530504,317.7914911583352 C 333.90360709742123,316.9004153495628 333.09436663043095,316.17599032911437 332.98406189144026,315.16593202373974 C 333.00233058569853,314.0923660738619 332.99989308986295,313.02896500679776 333.0003321790455,311.9640315453708 C 332.9956454155991,310.9046067637574 333.0284656085917,309.8046273298221 332.83484745031785,308.9480818884216 C 331.73741822783796,308.900777938948 331.04009680318467,308.04622255649036 330.2035732201652,307.30643189091074 C 329.96364851775246,306.35915243580024 330.0077694752123,305.27277941758314 329.99880027142666,304.2124080742055 C 329.9991343316268,303.148602731751 330.0026942438552,302.0800377186864 329.9974530947303,301.02118356525 C 329.97351419064296,299.982472852806 328.89338037225974,299.9753330243147 328.16242972678975,299.2054681938825 C 327.33470808615033,298.4279057111813 326.94751493023904,297.55123392765825 327.01890606349326,296.4465758837181 C 326.9727434011615,295.42279030295566 327.0900931700515,294.2337638284223 326.2916944250797,293.999012685723 C 325.39398319155606,293.5409380142651 324.6395192091472,292.67391698009374 323.9741080330118,291.9137373908641 C 324.01005546816344,290.83136475978887 323.9969169274725,289.7732142207933 323.9999547872615,288.7078885126787 C 324.004379537701,287.6378505144567 323.9799842984492,286.59984198688386 324.08306577494176,285.42402063143675 C 323.5024942178414,284.9727651370514 322.50865558848693,284.6909018648371 321.79213541303164,283.7991484940767 C 321.0299596966111,283.0690862357376 320.9983232437223,282.0202519612272 320.99910031739876,280.9553126658945 C 321.0001916466339,279.890459416669 321.00197436107476,278.8235689358273 320.98857552594785,277.77364834833224 C 321.05515367579744,276.63722159115616 320.70181074977836,275.9500535664633 319.6329813363667,275.82095707473417 C 318.9381857922441,274.9343558749128 318.1192014100047,274.20800498057315 317.9775376822606,273.21450513653235 C 318.00777449473605,272.13171922295015 317.99031211887075,271.0836011800157 318.0046851867364,270.0038517744243 C 316.94514302631865,269.98964975205905 316.1974516427434,269.2545496076566 315.37616495333026,268.4645917028691 C 314.94729155884585,267.6053655587326 315.01337835878184,266.508071564635 314.9971359684718,265.4512766367138 C 314.99904057484235,264.38707600595467 315.00620448312645,263.3142516488413 314.97791421468855,262.28036941484373 C 315.0710559520401,261.1153009758967 314.13510938812476,261.0081994082801 313.30974293474213,260.4193228812059 C 312.5238198012608,259.58302449597875 311.9532067844814,258.7855145687071 312.013686254548,257.6909777411488 C 311.99652768284534,256.634726788155 311.9995417568912,255.5697482009565 312.00577872387055,254.49774621388912 C 311.97620341868304,253.4653118808207 312.09060787636554,252.27728019822598 311.34319825247144,251.9933537358718 C 310.42100144206034,251.5790069870737 309.6773086537133,250.70316085780192 308.98430305077795,249.95326072170883 C 309.00946861413195,248.87527338044984 308.98846130920475,247.82703666799011 309.04565315874316,246.7030198167064 C 308.75664231886117,245.9472361788714 307.67338975852726,245.85464291516843 306.9796382508539,244.97771838075047 C 306.1506574257446,244.24814846530413 305.97274068667673,243.27103090923987 306.00524109506307,242.190420194298 C 305.9993689743701,241.12858432366062 305.999528586194,240.06447301313838 305.9999759029341,238.9993900122759 C 306.0102436892839,237.92377159508766 305.9163321379615,236.96040870423982 304.81928101893567,236.94611147824645 C 304.10808894844456,236.13145966535518 303.27221247554604,235.373615413664 302.954519446138,234.46316642181387 C 303.01055573927874,233.37087629227406 302.9980663480407,232.31221078764037 302.9989400029792,231.24841620707184 C 303.00484874022703,230.17715714293712 302.9864448973639,229.13254736144185 303.02587523887854,228.0254538506301 C 301.9887748093057,227.99827803460244 301.2249166079521,227.29482888590996 300.4119346221629,226.49259155565414 C 299.94543190682265,225.6515920999325 300.0195833564754,224.54614260383065 299.9736828334823,223.5209358208154 C 300.09037976373065,222.33303664982208 299.4064839589626,221.98565807942248 298.45552083695736,221.62436171921297 C 297.722836373038,220.74099217705248 297.0001097221636,220.00029621481286 297.0047822752757,218.93344771030104 C 296.99783098537574,217.8722945852984 297.00015067190077,216.80705324463955 297.00309351712855,215.7387287394678 C 296.9843519950523,214.69460549037362 297.06966228906543,213.53796054454193 296.61325907767673,212.95866434495898 C 295.5746901467263,212.76451039489137 294.872706064292,211.87112714173028 294.0744371170849,211.14662492507813 C 293.9883886739981,210.12465722871545 294.001289369193,209.05374372993256 294.0000316918083,207.98982959397014 C 294.0007480581591,206.92442571300617 293.99371570222416,205.86756805981028 294.0360541718721,204.757310378128 C 293.7993598976175,203.9466734727855 292.70681888839414,203.88016272006232 292.0122027526537,203.0137688958199 C 291.1789466846436,202.27861137047427 290.96603120221226,201.31986937512087 291.012437967018,200.2279254250261 C 290.9808907229799,199.19279313899318 291.04762336888825,198.05710489446378 290.04510742803325,198.00510524270905 C 289.25898283857623,197.34420597628167 288.45529139938617,196.52895074859646 287.9478695345267,195.70455889018035 C 288.01415084268336,194.6071538958465 287.99668140047226,193.55100837928504 287.99928439996324,192.48637842932905 C 288.0062285041265,191.4136739842484 287.97584198047605,190.3820911844964 288.0865762664327,189.19802786319332 C 287.2469744575876,189.00296332697425 286.37002768919064,188.50716128376393 285.60673865792296,187.64800829383432 C 284.96652087584215,186.87837922458243 285.0114863134828,185.79153269033114 284.99671238480954,184.73416607667258 C 284.9998484638437,183.66889437656937 285.0048361572152,182.5982304185235 284.9785902870566,181.56221815353453 C 285.0867115447131,180.3809599378388 284.4578930680212,179.97874444535606 283.4833397460651,179.6604505851493 C 282.7601808551694,178.77133153433243 282.0152278282066,178.03718370426813 282.00180661719793,176.9792729884769 C 281.99474038830584,175.92048854122828 282.0261196846078,174.82343509928768 281.8484893779706,173.94927924662045 C 280.75015337785203,173.90868384351126 280.0512223403513,173.0595754984638 279.21411642567136,172.31730304279634 C 278.9620425448734,171.3758228105316 279.0082375212261,170.28842052114013 278.99868512257507,169.2283289222419 C 278.9990847178956,168.16454860122028 279.00311315896846,167.0954530869948 278.99539143830316,166.03928181375028 C 278.9830577992517,164.9880521972213 277.9080786753474,164.9798581742484 277.1727023281701,164.21948282216528 C 276.34599953591646,163.43911767423185 275.948503670628,162.5656349708218 276.0127552481949,161.46925707352995 C 275.9973732237143,160.41202639436386 275.99897775656996,159.34797381851135 276.0059929407164,158.27536558353736 C 275.9796019494392,157.23941752383834 276.0612850821981,156.08671842058652 275.0924450147155,156.00772123430013 C 274.2858133009304,155.3844877544405 273.4922581524882,154.55695122663582 272.949035880185,153.74907627986659 C 273.01861010987795,152.64675296169523 272.97672476226296,151.6169735378248 273.0823005954663,150.44130335255656 C 272.52020072958356,149.97048897047347 271.51909830067547,149.7030160565369 270.80512620381904,148.81042791210123 C 270.0364245476681,148.08175800706746 269.99687868647277,147.03684057762106 269.9993989117758,145.97104426258474 C 270.0001828157796,144.90630403747372 270.0017674077103,143.83967187572478 269.98939997397304,142.7886298155916 C 270.0521942014571,141.65628768163128 269.71797918753293,140.9489665526851 268.64454295094026,140.83087534654453 C 267.95022664528096,139.94678978762124 267.1276123794691,139.22015896086768 266.97719201620737,138.22969304239834 C 267.00406622452385,137.15186914001845 266.99960013892394,136.08938298203606 266.99979837990986,135.02501306123918 C 266.9983962498829,133.96197665141457 267.0171325082631,132.87720897330175 266.88590423868897,131.9539082233115 C 265.7862484161175,131.92965293707726 265.0817154716015,131.0976203525125 264.2453159735881,130.34659303222665 C 263.95597578655435,129.42438512736814 264.0160892365332,128.3251684784381 263.97525440868645,127.29787893678392 C 264.074827111736,126.12735212359743 263.1525849466475,126.0079809303768 262.31944085681755,125.43343443855589 C 261.53693953815946,124.59334744369909 260.95479842259584,123.80059664189615 261.01346196809965,122.70695920375132 C 260.996528342428,121.65060692382818 260.99959210905,120.58557025112579 261.00565424237504,119.513750449289 C 260.97645531418743,118.48091341941841 261.09056882814974,117.29319440035283 260.36154171266077,116.99118132680479 C 259.4308211945831,116.59230749775914 258.69058870027254,115.71388738623102 257.98854392057194,114.96699281850701 C 258.0084046632256,113.8917968957543 257.9894485179795,112.8419390124631 258.04254423119573,111.72223056521202 C 257.7720216872326,110.94686542638463 256.68526758803694,110.86391126545212 255.99137474241388,109.99046736172896 C 255.16033065209527,109.25936542365116 254.97095687150383,108.28778934676664 255.0057229103446,107.20605581153363 C 254.99926774681003,106.14449258427243 254.99943534287297,105.08046398491801 255.00056103460736,104.01462690384176 C 255.007590063704,102.94250833259186 254.9280381972787,101.96370500972986 253.83295946380872,101.95230774594536 C 253.11860011741217,101.14535249432335 252.28366910498045,100.38416095088887 251.95331576847173,99.4796371888364 C 252.0109555031842,98.38654997101483 251.99795019491353,97.328137913894 251.99893228888737,96.26431703081387 C 252.00509457855478,95.19275881286066 251.98508982001715,94.14988338768765 252.0326075726922,93.0340611443543 C 251.0047758176475,93.00067402929446 250.23471487662374,92.30914946174406 249.4245715214381,91.50286412395415 C 248.94559169157722,90.66735544283007 249.01954385087595,89.56212579117803 248.9740407111966,88.53638474762452 C 249.08959253349923,87.3497725785591 248.42477000354683,86.98327200752382 247.46550343142428,86.63726624936577 C 246.7360637232279,85.75189433521452 246.00521390914892,85.01363264034963 246.00370584757061,83.94985290531217 C 245.99803449573272,82.88807467055395 246.00016860260192,81.82288218687847 246.00288014449796,80.75483541918192 C 245.9851278813895,79.70964011981981 246.06708790135818,78.55661091560961 245.63044317668042,77.95673429761476 C 244.58555475171104,77.77561996120191 243.88530807318662,76.88293411350621 243.08236693414162,76.15860778142726 C 242.9866517118768,75.1413917250457 243.00170200513537,74.06941644685753 242.99998087292454,73.0057016592825 C 243.00057357088969,71.94049798296646 242.99450939100228,70.88258166286278 243.03296340534675,69.77651839651057 C 242.81397645047335,68.94702867428549 241.71909266251387,68.88874546370268 241.02358431711275,68.02687210139385 C 240.18912058321365,67.28961597490745 239.9642955362126,66.33661885410476 240.01309354102656,65.24337178603669 C 239.97975109814197,64.20981975167062 240.05295988764124,63.06723808768265 239.06181513048534,63.006329394021975 C 238.26867642500503,62.358506602016405 237.46817840162535,61.53920463518779 236.94851420657216,60.72011152806291 C 237.01414838589793,59.62302543055452 236.9966339227469,58.56691066655144 236.99933110328297,57.50221115001479 C 237.00617226373848,56.429602863240916 236.97577679579294,55.398036258092006 237.08792304814156,54.21244263719489 C 236.2651548841724,54.00143582124053 235.37958642216924,53.52095878654856 234.6203047120653,52.65844345011922 C 233.96920585581663,51.892842223865806 234.01214587947658,50.80748307446085 233.99063955188694,49.75097208201004 C 234.02897297777102,48.68016652524123 233.8412308530965,47.644343807777126 232.9700758372378,46.992428473650804 C 231.90395101832203,47.00557327259448 230.84035775619952,46.99779289235186 229.77546844691418,47.00072529532149 C 228.7110478352581,46.99978356759648 227.64647977152532,47.000060639756704 226.58195452382182,46.99998380593892 C 225.51741751935907,47.00000415038348 224.452883602071,46.99999897705762 223.38834890586602,47.000000242055236 C 222.32381439860052,46.99999994532806 221.2592798474131,47.0000000116472 220.19474530593465,46.99999999771468 C 219.130210762447,47.00000000039135 218.06567621933638,46.99999999995058 217.00114167616624,47.0000000000002 C 215.93660713300204,47.00000000000279 214.8720725898386,46.999999999998685 213.8075380466744,47.00000000000048 C 212.7430035035104,46.99999999999985 211.67846896034655,47.00000000000004 210.6139344171825,47.0 C 209.54939987401855,46.99999999999999 208.48486533085463,47.00000000000001 207.4203307876907,47.00000000000001 C 206.3557962445266,47.00000000000002 205.29126170136266,47.0 204.2267271581987,47.00000000000001 C 203.16219261503477,47.000000000000014 202.09765807187065,47.00000000000001 201.03312352870662,46.99999999999999 C 199.96858898554297,47.000000000000014 198.90405444237882,47.000000000000014 197.83951989921476,47.00000000000001 C 196.7749853560508,47.0 195.71045081288702,47.00000000000001 194.64591626972296,47.000000000000014 C 193.58138172655885,46.99999999999999 192.5168471833949,47.00000000000001 191.45231264023113,47.00000000000001 C 190.3877780970671,47.00000000000001 189.323243553903,47.00000000000001 188.2587090107391,47.00000000000001 C 187.19417446757507,47.00000000000001 186.12963992441124,47.00000000000001 185.06510538124712,47.0 C 184.00057083808326,47.00000000000002 182.93603629491923,47.0 181.87150175175532,47.00000000000001 C 180.80696720859126,47.0 179.74243266542737,47.000000000000014 178.67789812226331,47.0 C 177.61336357909934,46.99999999999999 176.54882903593543,47.0 175.4842944927715,47.00000000000002 C 174.41975994960742,47.000000000000014 173.35522540644334,47.00000000000001 172.29069086327954,47.0 C 171.2261563201156,47.00000000000001 170.16162177695153,47.000000000000014 169.09708723378742,47.0 C 168.03255269062373,47.000000000000014 166.9680181474597,47.00000000000001 165.90348360429562,47.00000000000001 C 164.83894906113156,46.999999999999986 163.77441451796784,47.000000000000014 162.70987997480384,47.000000000000014 C 161.6453454316397,46.99999999999999 160.5808108884757,46.99999999999999 159.5162763453118,47.000000000000014 C 158.45174180214786,47.0 157.38720725898384,47.0 156.32267271581992,47.00000000000001 C 155.25813817265592,47.00000000000001 154.19360362949206,47.000000000000014 153.12906908632792,47.0 C 152.06453454316403,46.99999999999999 151.0,47.0 150.00000000000003,47.000000000000014 " fill="none" stroke="black" /></svg>