<?xml version="1.0" encoding="utf-8" ?>
<svg baseProfile="tiny" height="100%" version="1.2" width="100%" xmlns="http://www.w3.org/2000/svg" xmlns:ev="http://www.w3.org/2001/xml-events" xmlns:xlink="http://www.w3.org/1999/xlink"><defs /><path d="M 316.0000000000001,276.00000000000017 C 316.7167707153899,275.0730868792481 317.78369456005595,274.98955345125023 318.88908028267394,275.00186707922785 C 319.98987988133194,274.9997525233209 321.0947950314812,274.9915666049083 322.15522143224746,275.0763557563848 C 322.909025123266,275.9037827529558 323.78277721138267,276.6679779645486 324.0345731467512,277.6497367899025 C 323.99356540682305,278.7703865959207 324.0010997454858,279.8680139571473 323.9997476831636,280.9692881265809 C 323.9979495308377,282.0694132967085 324.02021206010704,283.1809186526697 323.86051352305793,284.20672785507463 C 323.02178509870686,284.964463718344 323.0321442200232,286.0528968300333 323.8649413257534,286.81612906557564 C 324.0345433494336,287.8206323164565 323.97333841576494,288.9778198054819 325.0475777119686,289.01506110851 C 325.79993369332806,289.86082023081974 326.84427931838684,289.9875214603239 327.67545442435505,290.58663752351225 C 328.51348529964076,291.4399691698759 329.0508622599151,292.2868255788785 328.9860223905736,293.42022701754536 C 329.0037322368885,294.51271472537303 328.9980490204784,295.61511667297424 329.0043328865551,296.71819508683024 C 328.98744202646037,297.8113694592046 329.02551030475485,298.9303710100393 328.2667826250271,299.6942760144445 C 327.8946859398454,300.71386761616594 328.60024493141924,301.58517801876985 329.0813671666789,302.43983171266945 C 328.89501497236904,303.7037913925059 329.6714619981271,303.9866952262967 330.57665624839245,304.5682012477232 C 331.4746072922716,305.02211030656144 332.4479521032391,305.292306005255 333.21738733000404,306.20351443999175 C 333.9862615814955,306.96510342700884 333.9956077706487,308.0614164605539 334.0027138990185,309.1589591412876 C 333.99846197460494,310.2613943390131 334.00346587423775,311.3636042729429 333.9853061036907,312.45633351907446 C 334.0605595822879,313.5928895182635 333.56182453725,314.46388979556656 332.88367586473316,315.3429286980859 C 333.30781942865184,316.35337332615705 334.04607407511224,317.11326847963335 333.9413056077165,318.29707513287093 C 334.2794569912378,319.03690648980216 335.3558960243449,319.2546808308579 336.1159714398171,320.03032553202837 C 337.1947803591446,320.07391473847173 337.9389512689338,320.9319439347523 338.8061041091532,321.69938418570194 C 339.0308941641307,322.68970135006737 338.99466575440766,323.80876409176966 339.00076976383116,324.90691405915584 C 339.0000702572561,326.0081779869135 338.9966847637103,327.1076240110622 339.0253319987795,328.22213877159635 C 338.83498610264354,329.2336444292583 338.00105601941283,329.9981850604179 338.05463824798073,331.08586895999866 C 338.8893971845282,331.84287365683076 339.02627329255046,332.86551355825077 338.9931800351722,333.99514599734124 C 340.0829889043871,334.0296611413466 340.8268895435631,334.8869370660255 341.88274152097057,334.98792634885615 C 342.7002714911424,335.62103381308464 343.5450134586967,336.46508495771855 344.0519700496815,337.3250698709629 C 343.98629639783695,338.45888244331536 344.0035515575975,339.55161250090975 343.9981284052343,340.6538818071465 C 344.0040709943303,341.75689013543655 343.98930159969063,342.8510419356098 344.0143848378619,343.9639009485489 C 343.23619740630886,344.72122498251787 342.903616730809,345.7536192195061 343.63181070177677,346.6098977875297 C 344.0794603884929,347.4789729430141 343.89596330023073,348.74224789906475 344.71564160318025,348.9828983547107 C 345.60001313335846,349.6032591612929 346.5157228170846,350.01715941274045 347.4735219194865,350.3218966310186 C 348.2498075736035,351.23057603589075 348.99908117898445,351.9974822838112 348.9932355113774,353.10139627759565 C 349.0031239801814,354.1975768936197 348.9983200398326,355.300169588479 349.0037699948272,356.4025459842993 C 348.9845415088209,357.4947664125598 349.06141902531317,358.63209529148827 348.5292644541012,359.48841228312483 C 347.87865289672527,360.3833468405914 348.3391563764546,361.37988659255376 349.0552798211503,362.1463035341733 C 348.93280295442395,363.3447820912296 349.31944955149135,364.0328117262794 350.3816438610368,364.286691888064 C 351.152777937701,365.03488167316596 352.224816093519,365.09236282803084 352.967278878724,365.96425600023315 C 353.83063825483305,366.7263973086474 354.0266452019484,367.7306264340616 353.99583221018787,368.8469860440793 C 354.00043796484357,369.9458244494635 354.0004195857763,371.04708676897786 353.99535675740543,372.1458021168767 C 354.03045412994544,373.26336079058154 353.80833243406573,374.26008632101247 352.9818723201408,375.032894461153 C 353.0784076412244,376.1179940394911 353.91262782899196,376.87007223910797 354.0175946835541,377.91100151288475 C 354.0156513656078,379.00945416149676 355.1171176096746,379.0466374074965 355.85460389472496,379.9113453975098 C 356.9204897275,379.9898216454097 357.725231791894,380.6555714667055 358.57613204201755,381.4901982068049 C 359.0521896434716,382.363758993386 358.98675461941536,383.4974463852545 359.00333071727556,384.59052618378746 C 358.99823931498946,385.6926513841305 359.0036968479325,386.79554923403066 358.9916173109119,387.89089127551796 C 359.00146905235647,388.99658977972945 358.2079918558371,389.74797171694314 357.91017758826587,390.7946001134032 C 358.6908533929974,391.6225223591212 359.0102437609323,392.5476252074334 359.3172599411045,393.629387555209 C 360.3723647227257,394.00531319331003 361.3737123030846,394.21035779138157 362.0896864529501,395.1195242152994 C 362.8542709343591,395.8882127814245 363.8345626847753,396.66237401073295 363.71684339641337,397.41895171588357 C 362.7623001520973,398.2602776770549 362.004027729643,398.9985734761099 360.9002876397444,398.9936460436145 C 359.8044078893739,399.0028537740763 358.70130737706563,398.99907647771056 357.60096370353483,399.0002567780353 C 356.4997851782832,398.9999357725304 355.3988289823458,399.0000145796951 354.29781921091364,398.99999704256294 C 353.196821118608,399.00000050789123 352.0958207828265,398.9999999387986 350.99482079711305,398.99999999923 C 349.89382078017917,399.0000000035182 348.79282075807,398.9999999984994 347.6918207398511,399.00000000047646 C 346.590820720195,398.99999999986915 345.48982070096736,399.00000000003246 344.38882068162684,398.9999999999927 C 343.28782066231344,399.0000000000016 342.18682064299423,398.9999999999999 341.0858206236758,399.00000000000006 C 339.98482060435754,399.0000000000001 338.883820585039,398.9999999999999 337.7828205657207,399.00000000000006 C 336.6818205464024,399.00000000000006 335.5808205270839,398.99999999999994 334.4798205077657,399.00000000000017 C 333.37882048844733,399.0000000000001 332.2778204691288,399.0 331.17682044981063,399.00000000000017 C 330.07582043049206,399.00000000000006 328.97482041117377,399.0000000000001 327.8738203918555,399.0000000000001 C 326.7728203725369,398.99999999999994 325.67182035321866,399.00000000000006 324.5708203339003,399.00000000000006 C 323.4698203145819,399.0000000000001 322.3688202952635,399.00000000000006 321.26782027594516,399.00000000000006 C 320.1668202566268,399.0000000000001 319.0658202373084,399.0 317.96482021799005,399.0 C 316.8638201986717,399.00000000000006 315.76282017935324,399.0 314.66182016003495,399.00000000000006 C 313.5608201407166,399.0 312.4598201213982,399.00000000000006 311.35882010207973,399.00000000000006 C 310.2578200827615,399.00000000000006 309.156820063443,399.0 308.0558200441248,399.0000000000001 C 306.95482002480634,399.00000000000006 305.85382000548793,399.0 304.75281998616964,399.00000000000006 C 303.6518199668512,399.00000000000006 302.55081994753283,399.0 301.44981992821454,399.00000000000017 C 300.348819908896,399.00000000000006 299.24781988957767,399.00000000000006 298.1468198702593,399.0000000000001 C 297.0458198509409,399.0000000000001 295.94481983162245,399.0000000000002 294.84381981230587,398.99999999999727 C 293.7428197929757,399.0000000000181 292.6418197737198,398.9999999999058 291.5408197541085,399.0000000004331 C 290.4398197360313,398.99999999820096 289.33881971194717,399.0000000067711 288.23781970888183,398.99999997754315 C 287.1368196439917,399.0000000594946 286.0358196968313,398.9999999297336 284.9348199496923,398.99999944027576 C 283.83381635877123,399.0000058630549 282.73284005608826,398.99996321365717 281.63171440866785,399.0001891294661 C 280.5312975917298,398.9991403622282 279.42785168856636,399.0035387716508 278.3361466256172,398.98682374090276 C 277.20390019967033,399.04301385377846 276.3949285397704,398.45781137459096 275.4828463853538,397.57914812733554 C 275.0455597454954,396.82798033905755 275.93847135305685,396.0454210834525 276.7665701326702,395.29662405376547 C 277.4601327514881,394.37980056999396 278.38975943108716,393.9842887244588 279.49309216730484,393.79357410269955 C 280.0091587948404,392.7934834978265 280.14076480042746,391.7762772189455 280.9911717791752,391.0143732454877 C 280.952410247052,389.9272384630983 280.11156510343307,389.17544107761603 279.985527512159,388.1344386847599 C 280.000726026957,387.0261909670679 280.000582224905,385.92537773362795 279.9985023361269,384.8240063649614 C 280.0078169207891,383.7273660472016 279.96072176981517,382.6028726932316 280.2493090412044,381.64305787085215 C 281.1196021809547,380.86137946765126 281.8716277025386,380.04007341809927 282.95932827961747,380.0139147885868 C 283.70111767518796,379.19022725436565 284.8012854943748,379.0416649548003 285.03918969729403,378.1946786026705 C 284.97862402042796,377.0452214924947 285.7572396302813,376.29542034675285 286.1004854802197,375.2579921884854 C 285.3698247385611,374.41160298355345 284.9439667402495,373.50811452540563 285.01255573281895,372.3747190948604 C 284.997275168366,371.2806386441006 285.00115980276183,370.1787796835841 284.998469028604,369.0768703932308 C 284.99799699910466,367.975594610388 285.0460759992518,366.89861515728967 285.8508689983012,366.1444147452768 C 286.6075885877967,365.2324195633706 287.6124122523584,365.0313751274938 288.47307779217584,364.4928806254991 C 289.42306803375334,363.9976494781562 290.1021603116023,363.6167575709961 289.9179295262095,362.35864632815253 C 290.46798156047214,361.5324391990862 291.11926911739977,360.62802242714616 290.66619439957987,359.63840849893893 C 289.9563112101927,358.8563476921545 290.01525606629104,357.7274746698202 289.995392883245,356.63565268318706 C 290.00203591044124,355.5325723413435 289.99603513043553,354.42993657973733 290.0138523771763,353.33754725058606 C 289.95481798488464,352.20703792891305 290.55474463273504,351.38627931049285 291.37712704787384,350.5142019638148 C 292.23963193462674,349.99080764617463 293.25527776050455,349.800163959223 294.03242065589154,348.99250973771984 C 295.0606266803572,348.93144992212245 294.94946668197736,347.72708837378036 295.19082288036805,346.7604723236044 C 296.01111057218657,345.97964477398045 295.9293048932072,344.8957598267697 295.0893074785439,344.1475817145716 C 294.99025840174653,343.0933353883667 294.99968289161865,341.9878751501938 295.0008488247291,340.88653091702037 C 294.99815938320233,339.7850658653249 295.0089375094246,338.68912666452104 294.95726676526556,337.562344142935 C 295.27667934811313,336.6170868143429 296.1463566199816,335.82759017893767 296.9040500886666,335.026905909056 C 297.9930537038281,335.0026755936297 298.7290648509536,334.16202170929193 299.8367711679724,334.0415549857302 C 300.02962022935844,333.14653492365704 299.99273445462575,332.01436486375565 300.78680813114954,331.26741271610507 C 301.0906294260647,330.2188135657576 300.33840228912976,329.386911878524 299.9471581097235,328.46780496673654 C 300.0113657365267,327.33648453484716 299.9976534707141,326.2416767248813 300.00094713951864,325.13997020575016 C 299.9991809508065,324.0384073270524 299.994379878134,322.9349893132068 300.0634910879125,321.8684669639939 C 300.8824138016812,321.11588770953193 301.63427163170445,320.20593629687545 302.6528344320179,320.03474015155257 C 303.4965797823114,319.45751697740513 304.467314188194,319.0036557031147 305.0988035965816,318.57379016001767 C 304.9192986886237,317.3215579482452 305.50029569262995,316.50753455246735 306.12343780392507,315.5873239480646 C 305.6340439400498,314.61278132898434 304.9501659958069,313.8204589168603 305.0159835042425,312.6883382611553 C 304.99538378214595,311.59684154098545 305.0020368631145,310.4938187874642 304.996008497264,309.3911061414426 C 305.0134155992419,308.29853736263664 304.9592138916192,307.1704407151661 305.58715673292954,306.36088670223046 C 306.4017839158887,305.4807398112493 307.2797885207734,304.99391407201955 308.28032448156256,304.7696301426635 C 309.0720916644295,303.9859294013022 310.07292502865545,303.905538642129 309.94284381782546,302.6841344063805 C 310.2185439118092,301.7348523455549 311.0290970246899,300.94380172267506 310.90430770258007,299.8648507071793 C 310.06791681429695,299.1188429580842 309.9947715812223,298.052403699478 309.99876558218915,296.9494943770516 C 310.0010858561868,295.84769971417757 309.99782514806867,294.74612275454416 310.0099996048017,293.65085952922647 C 309.9542280988797,292.52202383534694 310.30482858642245,291.59136275264285 311.17270048072464,290.7934860126568 C 311.937327106535,290.0155827293237 313.02563483185827,289.98895904390963 313.7578632531849,289.1353292941747 C 314.8704862016286,289.0396378509533 315.01994399711356,288.09854623882427 315.0085262133242,286.98421212015006 C 315.81562930970847,286.23883263475506 316.07922474316024,285.1801897524456 315.30753304796355,284.3620537482976 C 314.9509167384855,283.4272464267814 315.0100431393824,282.29824352138763 314.9981913010363,281.20285665751186 C 315.00037266096945,280.10082352315914 315.0,279.0 316.0000000000001,276.00000000000017 " fill="none" stroke="black" /><path d="M 254.0000000000001,78.00000000000001 C 253.29675015296704,78.92608836030989 252.24737057660644,79.0084161154421 251.1573894111658,79.0062608197914 C 250.0697132691552,78.983932075929 249.16928106846083,79.62641526656687 248.97224257871142,80.68231599911383 C 249.00526254699975,81.77180948470574 248.99932482847584,82.85686940412187 248.99977724093074,83.94240155429472 C 248.99935897058535,85.02788400090533 249.0108710946309,86.11932216686621 248.91899365287873,87.15919487158357 C 248.10068281449475,87.89977885905995 247.36179602138458,88.79783403214833 246.35721338140468,88.96602396004145 C 245.51858906868503,89.5196985582258 244.57870498967378,90.00258240855194 243.8967638839794,90.36493438772385 C 244.08236333600917,91.61004705164105 243.57142368083657,92.437173760906 242.8907262378996,93.3065025014216 C 243.27028802958998,94.3087465680208 244.0225482495749,95.06009130821869 243.98865753789585,96.16178227400069 C 244.00404843385462,97.24030359756152 243.99817425176747,98.32797921182308 244.00336477064099,99.41480060476538 C 243.98689839772732,100.49259952014394 244.05189674692505,101.6107297354568 243.60823680278213,102.48339874894663 C 242.76169230737472,103.29448197263726 241.9877798889809,104.00219852225455 240.91986480692142,104.04111842170404 C 240.20267038082926,104.89910063738408 239.09566935439966,104.96272106959815 238.9908052794503,105.93146826046967 C 238.99899897903177,107.02629054869817 239.00074803618736,108.11404571004812 239.00107196133507,109.1990478110633 C 238.99215091696428,110.28055027211933 239.03851996475538,111.38934813025475 238.7663689773647,112.34160235364656 C 237.9070921388813,113.1058401350275 237.17168828203162,113.9389220658025 236.10301417997812,113.97176825157331 C 235.356871027827,114.74413825123649 234.29661741746807,114.96474316600413 233.9342272450545,115.66339446503127 C 234.05713579829066,116.84622450360625 233.35873978668985,117.60390605733737 232.87513137678224,118.57542961484884 C 233.48311678470733,119.47692666030393 234.06053717364244,120.29830926594497 233.98355256882346,121.42036313179919 C 234.0043729077733,122.49646724595435 233.99803482309977,123.58391638766798 234.00390624789043,124.67137357272264 C 233.98748122474814,125.74905385674352 234.0362798167768,126.85911702921042 233.39902731543188,127.64994787482965 C 232.59749061392233,128.52023766746552 231.73495144632574,129.00731935605558 230.73869480888445,129.20701917348305 C 229.97367218112072,130.0062386644466 228.94713202213538,130.0553532508026 229.0437189040632,131.23165947216555 C 228.84488011389112,132.20464021203122 228.0236913414206,132.9602730367346 228.02171673652782,134.03543047303157 C 228.85048243760693,134.7824862124212 229.0242729052091,135.78636370071862 228.99643780097117,136.88515581392497 C 229.00027155266383,137.96908769046652 229.00044463577277,139.05496724052438 228.99626292917216,140.13867904018122 C 229.02330881063835,141.23781992327656 228.85791039883318,142.24157936030247 228.01269453792344,142.98659344720414 C 227.28179600320848,143.8672571990636 226.24208070427844,143.96090622267124 225.45164272734223,144.6220202664267 C 224.4472307189747,144.98261416466605 223.92478587786346,145.499047364359 224.01628742686827,146.68708726713834 C 223.99702514152952,147.75101874489496 223.999836972187,148.8404071904361 224.001369526253,149.92646897952298 C 224.00096064965493,151.0119643818486 223.9653325177,152.07981161307512 223.18416502525787,152.82485975595333 C 222.43151077010234,153.72605971353735 221.4647022015289,153.9767360051198 220.5802479290478,154.42638126236656 C 219.69576160066205,155.01552157237393 218.8958695736087,155.25984068743995 219.0785980596708,156.50757802923806 C 218.65475200734895,157.3719098917593 217.9155381441719,158.20200334666296 218.19090512625164,159.23661961590543 C 218.98794810024498,159.97408605300575 218.99523620059654,161.05629307977074 219.00287146836126,162.13841573761255 C 218.99853968545062,163.225627318675 219.0026490100945,164.31206068202795 218.98892532184084,165.39123244246437 C 219.04761769837341,166.50619528029685 218.68634826408328,167.41652212363948 217.82957863924798,168.20353323414324 C 217.07883471829865,168.97919020603862 216.00289867202554,168.99886749451264 215.27864536088344,169.83042307566302 C 214.18675625642268,169.95818505476572 213.9602083305582,170.80225955887036 214.0273022950547,171.94038510551775 C 213.26854127767427,172.6810755913271 212.88937348235845,173.692394390046 213.57752825991108,174.54800041428487 C 214.0604398323742,175.41064870289253 213.9850541069016,176.531931497907 214.00368260301335,177.60910202956202 C 213.9983074999915,178.69610263890863 214.00329411588189,179.7834289440039 213.99144547959008,180.8633096342303 C 214.0132162756024,181.95985749503302 213.30446438416905,182.72485389570357 212.52585944794447,183.61426222235343 C 211.61697351170528,183.995153385395 210.6689407952517,184.29964617976677 209.85503417281132,185.01955746141536 C 208.9214245809069,185.13670789877494 209.02388805158685,186.3369830941813 208.9936254040418,187.3886478380293 C 209.0007647569412,188.4829897887105 209.00329594537925,189.56863812243898 208.98618702335133,190.64603182547043 C 209.04790185862572,191.76254719013772 208.48433746405172,192.58307007179525 207.66258151054876,193.43116890862058 C 206.83943244120908,194.0124336877268 205.8071528686385,194.13195589130675 205.07129876395427,194.97549048307928 C 203.99447561958408,195.00389335189627 204.02236021261118,196.11380382392585 203.90926183802847,197.1339938065591 C 203.08446292886734,197.87419878137416 202.97037603373212,198.9443160483612 203.77958988888858,199.71292576653627 C 204.0376123122319,200.67766128352437 203.99284639743635,201.78444835212005 204.00126045235223,202.86634709777445 C 203.99964646242836,203.95236279193105 203.99909017766203,205.03767209299653 204.0119500889846,206.12974785847686 C 203.91399968403897,207.16664117756181 203.09273599517397,207.9072183206323 202.35503795125828,208.8044340441928 C 201.3466073942644,208.96508475277426 200.5143986849877,209.52960640496633 199.56368387714755,209.99928213533633 C 198.91265336183255,210.38309339457314 199.0207302226556,211.5896674150868 198.99567033289816,212.64709908685023 C 199.00000141082646,213.73834073133744 199.00262887638212,214.82465075186033 198.99367679935204,215.905941603336 C 199.00159331813504,216.9955582228797 198.26958006453538,217.75318955130234 197.49888272183438,218.6476003760113 C 196.57325406956792,218.98995287441068 195.6421945541519,219.3349664158364 194.81087007358715,220.02101987313344 C 193.90614166812293,220.16678107992524 194.0684980355103,221.40061454169813 193.7346967212954,222.30616338388214 C 192.9508915916345,223.10131469950147 193.11737166619085,224.16024646246143 193.94094468892388,224.89390674991768 C 194.0050512540438,225.94926818828466 194.00092397412763,227.03689789674408 193.99908929014478,228.12319185296968 C 194.00179142525283,229.2092896558089 193.9916617788512,230.2902120523189 194.03951209641644,231.39974560837587 C 193.7595637010144,232.3482886852075 192.9001074662185,233.1143261166026 192.1637698097008,233.9430607174702 C 191.09384459159867,233.97341806330675 190.35020871304548,234.75215389572097 189.28646901741553,234.96374628792796 C 188.93637129014508,235.67555210887355 189.05500903562816,236.85476015138042 188.35064427504196,237.61057530121295 C 187.87586890811494,238.58582464042337 188.491487143429,239.48321840396645 189.06086754510727,240.3080548734218 C 188.98361240729375,241.43023537376516 189.00432764685644,242.50639314229605 188.99805079083356,243.59380740585837 C 189.0038774606744,244.68126691744382 188.98772244872995,245.7590746679401 189.03470791396077,246.86823167135967 C 188.39067758568513,247.65645768107075 187.59130930124655,248.52876110632806 186.72448621792518,249.00637781526643 C 185.73323522151608,249.2152353136292 184.9634054608449,250.00809592424153 183.94726021684792,250.06321297712478 C 184.02017114796755,251.23042917236018 183.99384573106877,252.28653879963298 184.00100857326254,253.38077797029757 C 184.00287727548,254.4660051256343 183.98645671657553,255.54379256298026 184.0520923976215,256.662254287227 C 183.56759847579647,257.5167562913198 182.72820487881572,258.340313415067 181.9395945287233,259.00856557074536 C 180.8805285211562,259.06806031297225 180.15983854899937,259.9278778462068 179.05966598986913,259.97282028043674 C 178.99833744844685,260.99173683952876 178.96458794422853,262.0599136375467 178.1533515381076,262.7936256242867 C 177.92988249751158,263.8470461537923 178.70219591655646,264.64592961991684 179.04939714101673,265.5696926402341 C 178.98929983184513,266.6837305037591 179.00229493792816,267.7635383487445 178.99899512200327,268.84988198490004 C 179.0012983479262,269.93633863709124 179.00182453743733,271.0222975653824 178.96126378364593,272.08768493937464 C 178.17598178048726,272.83194746332026 177.42488908490643,273.73331738548 176.45423526256195,273.97553784443926 C 175.57429401722973,274.4353651132504 174.68447935128432,275.0145293203899 173.89550162921265,275.2695203093644 C 174.07925560768146,276.51768517135065 173.6468154451543,277.3782290393019 172.91267748150713,278.21196525300184 C 173.19835434754577,279.24376500016575 173.9918536698822,279.98213880399516 173.99446424134953,281.0665590908161 C 174.00301711753247,282.1482539086113 173.99849633158675,283.2355286937467 174.00272619590433,284.3219988061111 C 173.98869097539713,285.40101658370395 174.048226850506,286.5164022912787 173.67896335867442,287.4230236440358 C 172.82295457864493,288.2122961048617 172.07035126622262,288.98203106909256 170.9945222166166,289.0022147966386 C 170.27312035654344,289.8383102646389 169.17365155339866,289.9562286901373 168.97386064996445,290.82002960699725 C 169.00275354356327,291.9380254948599 169.00017269344895,293.0208087307909 169.0004796946215,294.1063482249599 C 168.99489011952198,295.1894234906245 169.02896574605924,296.2920768114251 168.82680593269683,297.277960192731 C 167.97403085721555,298.02822622099745 167.2434090605267,298.8952094010204 166.19138406296852,298.96227871956603 C 165.4173019808831,299.66626557146327 164.39482526985694,299.9767209978927 163.9162012820961,300.55144340857555 C 164.07260904880917,301.7643499193871 163.43519228557358,302.542624984076 162.87307026050192,303.47800196792275 C 163.40503593679284,304.4176418171843 164.05377228023735,305.209023265327 163.98380827305968,306.3277677264254 C 164.00461575874328,307.4038321941371 163.9979606020071,308.4915347802654 164.00397589281488,309.57887110134067 C 163.98609914615346,310.65589104668726 164.04715536803184,311.7720747173578 163.4761393622831,312.58949152692134 C 162.65628272859934,313.4398858830759 161.82949167400008,314.0122786908649 160.80033909601784,314.13876971334383 C 160.06227488518175,314.9792418747297 158.98912392603646,315.0079851238191 159.0245588582522,316.12538661192315 C 158.90340529785632,317.14096238487303 158.07820545490762,317.8822690975838 157.97486756130778,318.95341752221515 C 158.78675748471744,319.7195254831621 159.0363629779398,320.6881544931623 158.99319901733082,321.79418452579 C 159.0011609907204,322.87628686875723 158.99971744343992,323.9622796820516 158.99883850601978,325.04745183715755 C 159.01301779167434,326.1401836814227 158.90894298485256,327.17405165429307 158.08483842645066,327.91470356448997 C 157.34811002641868,328.8108911492994 156.33635253379137,328.964360888947 155.50840529456738,329.5386312440635 C 154.55230653033823,329.9977254790576 153.9135329795405,330.3939785805455 154.02035401782157,331.59914864181025 C 153.99579514402333,332.6571410382675 153.99997909408415,333.74820830730914 154.00253627717208,334.8345122340494 C 153.99425941181585,335.91613366537035 153.9985579151129,337.0039396154356 153.26126667201575,337.75999979443156 C 152.49244700836616,338.65544134803696 151.56275239926455,338.98865616295586 150.63615464360282,339.34365054600306 C 149.79990483422756,340.02092751425954 148.90460281290308,340.1751823944624 149.0697224301359,341.41115280616896 C 148.72715811596098,342.31256600986865 147.94701347572334,343.11084664946407 148.12417923417797,344.167844377009 C 148.94599210860645,344.9014285739081 149.00396161733136,345.95968500430376 149.00114915225376,347.0466975855899 C 148.9990279543541,348.133102619768 149.00187793446926,349.21922821667283 148.991376766571,350.2999717445775 C 149.04042328003138,351.41010379483987 148.75272702219257,352.3549671609371 147.89315156069011,353.1228397280717 C 147.15580021444515,353.94708897710876 146.08473691454063,353.975201826477 145.34350431864186,354.7600981517105 C 144.27640150722888,354.9628187687841 143.9385496199718,355.68773405205883 144.05278775302924,356.86325104638615 C 143.34257162855653,357.61726839267766 142.87670656556546,358.59620794826145 143.49985366748788,359.489502716766 C 144.0611275573092,360.3178337954415 143.98368756745379,361.440100403342 144.00427901988468,362.51632040862154 C 143.9980684270203,363.6036986896513 144.003843727098,364.6911578751346 143.98798469722044,365.7691059880579 C 144.03304740147868,366.8773019740088 143.38235640346173,367.662998208649 142.58500937377931,368.53719732391767 C 141.7141788913126,369.0054749152392 140.72688772157008,369.223079992191 139.9532780873928,370.0098998543648 C 138.94407846838695,370.06955648302466 139.0206887131564,371.2409105848592 138.99378911072102,372.2963738095581 C 139.00099033078402,373.3906701153189 139.00292905466029,374.4759351961531 138.98636864693074,375.55364902164786 C 139.05197243721236,376.6720962824254 138.55966661557628,377.52316554581364 137.72181290761645,378.34913926673784 C 136.93013925351607,379.0094228488206 135.873181127665,379.0736784295558 135.15163687321854,379.933146514097 C 134.05261549354768,379.9749845892391 134.00074790907368,381.0037232548067 133.95967788859602,382.0672510912205 C 133.14637982259964,382.80120074609357 132.93332520417476,383.8566838589103 133.70991628318689,384.6523232386843 C 134.04837258023215,385.58007961362705 133.98962825278466,386.6934771746152 134.0021960857539,387.7734820150087 C 133.99905146722875,388.8597879951332 134.00111748311505,389.9461554030837 134.00270968182173,391.0326415211801 C 133.95711088181244,392.0955178317809 133.1678254533197,392.83907001704983 132.4182397278404,393.7405088441907 C 131.4437806595872,393.9743665621178 130.56834115204563,394.4443641464251 129.67318161436222,395.01347124573834 C 128.8952362127079,395.2793100979055 129.07985296814874,396.52775020901845 128.63884870064854,397.3845444340549 C 127.90991544895236,398.2219615243096 128.20585670224204,399.2508715398545 128.99563989423388,399.9902478182703 C 128.99372249377475,401.0768107681928 129.00315565633102,402.15809548044393 128.99845474650948,403.2454293386625 C 129.00280170307136,404.3319364586482 128.98846486226427,405.4108047529823 129.0487935019697,406.52658809891886 C 128.6715619488102,407.42952694721384 127.81630901902945,408.2210518266231 127.0617636749773,408.9847254309176 C 125.98622841498167,409.0057294095414 125.26583210651867,409.8452662782372 124.16477365536569,409.9563908976105 C 123.97576676793233,410.832063180458 124.00230442092413,411.9474228994939 124.00024964479263,413.03080695657945 C 124.00053705537881,414.1162677413391 123.9945954354629,415.19917940408334 124.0300437948927,416.3025183425567 C 123.82059883022634,417.2848758699733 122.96671054305281,418.0363780976505 122.23591567768514,418.9003101015933 C 121.18170586991626,418.96282185884536 120.410972115298,419.6748310939874 119.38405041365046,419.9752568153502 C 118.91793396670398,420.5632595228673 119.07131938740265,421.7733000584147 118.42695392481785,422.5491082778617 C 117.8728745671294,423.48844499215426 118.41336615268007,424.4240448613966 119.0548342563523,425.21842241839636 C 118.98370520516805,426.3377168609634 119.00460666698525,427.4137424572395 118.99796192930391,428.5014251708171 C 119.0039848576906,429.5887821925709 118.98617531084703,430.66582929641896 119.0463058991711,431.78155133316153 C 118.4679438664155,432.595928904036 117.64998160635962,433.448581725481 116.81951269275083,434.01204303156493 C 115.79356976786167,434.1456854187743 115.05316467387948,434.9828329474191 113.98394303129037,435.01227294295103 C 114.02673164265451,436.1369299408771 113.89746552944023,437.14789961075707 113.07202535884916,437.8903916241142 C 112.97946075226595,438.9624599231185 113.7938627035601,439.72615004948017 114.03510064599936,440.6986538349125 C 113.99355164516963,441.80392079884473 114.0010620596236,442.88622594663053 113.99978981409308,443.97219777535247 C 113.99858120911627,445.0572286080106 114.01409572102601,446.15062466436353 113.90380473320684,447.1814252249507 C 113.07697161467532,447.92222777018253 112.34115094698495,448.8172700588303 111.32612511976868,448.96369723699326 C 110.50239909252365,449.54764398085933 109.54094619953443,449.9961464649466 108.91448188645745,450.4049412568149 C 109.01996464813047,451.60861510595123 108.99592176311225,452.66718520095156 108.99995795762365,453.75807636132447 C 109.00243772200936,454.8443706994466 108.99486712797719,455.9263383294051 108.99541879584248,457.01226912681045 C 108.25296180160575,457.766833984254 107.48599629530189,458.6632315890193 106.55224769315019,458.98735517339566 C 105.63012859027754,459.35237481547557 104.78889651347053,460.0207306981049 103.90318599362527,460.18371840420707 C 104.07089643388134,461.4216497193458 103.71957418403781,462.31895700346223 102.94323356249618,463.120426122324 C 103.13105620163103,464.17539447733407 103.95093644917986,464.90899769159 104.00289886372676,465.9700890527877 C 104.00136615301632,467.056501256179 103.99896838357371,468.1430123562796 104.00196391752135,469.22916695992427 C 103.99109514817835,470.30973303551855 104.04131084078175,471.42045016941705 103.74583528922435,472.3616266318144 C 102.88622666991323,473.13138113879364 102.14778037275973,473.9510063561338 101.0756922881827,473.9771223875517 C 100.33675692585797,474.76796875928375 99.2664174954426,474.96196431604477 98.94076036078023,475.6999379286371 C 99.05047100046261,476.8716971145322 98.33452331357807,477.6239860946021 97.87764439027208,478.60657826579654 C 98.50821478314442,479.49578046580183 99.06131875306768,480.32764530229025 98.98377763138677,481.4499584138746 C 99.00422715892445,482.5262490028348 98.9980876151155,483.6135902110654 99.0038053763052,484.70104659739513 C 98.98826691722522,485.77914731037504 99.03130104549734,486.8863292679463 98.37402888315327,487.6695526394079 C 97.57870517663639,488.54560117284296 96.70384841292706,489.0045246610541 95.72057137534412,489.23099954706083 C 94.94306743610737,490.01154433548953 93.94104942118146,490.0760707429576 94.02117070253615,491.2513522143936 C 93.99374053009807,492.3062178485433 94.00097075249474,493.4005604875933 94.00297871049652,494.48586443524795 C 93.98629286664116,495.563511591634 94.05179502891515,496.68190950562223 93.55170618686218,497.5295736905697 C 92.71543277909691,498.3579601934664 91.92063061540519,499.01016841497295 90.86589088866353,499.07942333829124 C 90.14336126455795,499.9382796228484 89.04571736638114,499.97731855327527 89.00314235900775,501.01567109083754 C 88.95466945958586,502.07454931245087 88.13947033886666,502.8088201977313 87.9368691469978,503.8662756491035 C 88.71759053920769,504.65873273764623 89.04731908377404,505.5904802722081 88.98996093488707,506.70322191231804 C 89.002096689268,507.7834255652425 88.999109248243,508.8696949327595 89.00092977597443,509.95596861852016 C 89.00361857893164,511.04299741885507 88.9528658433431,512.1033066667974 88.15968926094662,512.8462243627799 C 87.41156696435988,513.7476352273038 86.43333878114301,513.9732246443258 85.56238858558869,514.4533761839533 C 84.66187098150509,515.0123510477696 83.89507145933732,515.2892076914309 84.0803891877685,516.5377730665788 C 83.63085324086002,517.3908568392163 82.90725208757179,518.2319908879836 83.2134106170351,519.2579401022825 C 83.9993052001085,519.9984139631991 83.99301054579873,521.0870483080951 84.00328719661805,522.1679404011617 C 83.99841487560721,523.25532925564 84.00287570847851,524.3418737169948 83.98824609655304,525.42059652506 C 84.049321690848,526.5367546542076 83.66411710582798,527.4360190949192 82.80968607465643,528.2298210066318 C 82.05311730184388,528.987294504833 80.97800973241019,529.009405877362 80.25848586550798,529.8521208091763 C 79.15601583660005,529.9566716239283 78.97765645979852,530.8440784051803 79.00186516321534,531.956831252818 C 79.000322744233,533.0408011588303 79.00059612540082,534.1261886116623 78.9943002264167,535.2089349381796 C 79.031111820599,536.3129548790454 78.81432606865846,537.2917653810467 77.95942891384546,538.0445708554621 C 77.22837971177336,538.9053130001739 76.17207635783222,538.9634711204166 75.40461161409945,539.6833477102188 C 74.37333153219623,539.9738270982875 73.91971855043016,540.5751220895867 74.06994405806755,541.7822061263131 C 73.41872474904807,542.5556083014276 72.87277861383457,543.4988881841296 73.42170722645736,544.4304323723068 C 74.05581147801252,545.2278617093768 73.9836212942723,546.3476569439217 74.00459326636503,547.4236546252952 C 73.99796485475842,548.5113155232519 74.00399009531105,549.5986915742981 73.98626784064508,550.6757757202253 C 74.0453841236694,551.7909917273997 73.45973142285304,552.6023730206139 72.64368391772047,553.4572582973045 C 71.80949610986218,554.0117293034192 70.78684403554037,554.1527007813282 70.0439669715227,554.9862613261719 C 68.97893105183103,555.016754438658 69.02887761532948,556.1484337364761 68.89144399895144,557.1548062469989 C 68.06592410587325,557.898567123278 67.98415564787341,558.9714419785654 68.80090397242499,559.732800332955 C 69.0338268577237,560.709158578326 68.99390386963627,561.8136573678478 69.0009637630115,562.8961642755885 C 68.99986356990732,563.9821170984958 68.99831863554193,565.0670025822633 69.01518256870628,566.1610701513129 C 68.8985859534101,567.1887625814823 68.06913658415621,567.9297916296566 67.33415997058142,568.823569507363 C 66.31592654936959,568.9630967671429 65.49637886483747,569.5566422136059 64.52960565415877,569.9945488785138 C 63.91549777931915,570.4159788480814 64.01956273241767,571.6180674983997 63.996050018086834,572.6772313866428 C 63.99993807092177,573.7679449555341 64.00233310506405,574.854226087707 63.99550030167899,575.9365557746675 C 63.99217692686987,577.0205474155847 63.24466647744923,577.7736928126335 62.47952984163117,578.6709698342044 C 61.5417413405129,578.9860528721096 60.6241152005789,579.3611368324952 59.777847770289476,580.0204331562795 C 58.90188933944242,580.192386744931 59.07201903320475,581.4321051751097 58.71194673031149,582.3253372979735 C 57.93955153909466,583.1300516672737 58.13800313104292,584.1828987061094 58.95577908314631,584.9166164534705 C 59.00186263540649,585.9804786470811 59.00154635032365,587.0662943872679 58.99917612360445,588.1530547924525 C 59.00042903074918,589.2382900428173 58.99914693235191,590.32369004553 59.00358781294567,591.4113563837251 C 58.98472252829803,592.4881120848123 59.06102503959722,593.6099065493654 58.560623246646536,594.4647990510203 C 57.885848109864924,595.3285297502407 58.28451708988246,596.3331194781102 59.033638796826445,597.0761758868404 C 58.95529069756125,598.222901059606 59.20571175718832,599.0414772931931 60.29296139833728,599.1844564019597 C 61.02035854717225,600.0074344553436 62.095111714045814,600.0274161531534 62.83773162177289,600.8168506183055 C 63.732220205331124,601.5826886225511 63.975819719561926,602.546968015587 64.43719211376813,603.42762981241 C 65.01433064655518,604.3180419835512 65.2717612190546,605.1045932477377 66.52001729475278,604.9205945089318 C 67.37968737741976,605.3550249364671 68.21427163541694,606.0879696627383 69.24541192437941,605.7999137643338 C 69.98400760677572,605.007260239926 71.06893308808678,605.0057014284541 72.15048865830293,604.9970275714467 C 73.23805296260322,605.0010408061659 74.32307621269271,604.9996887530554 75.40892727525896,605.0000845777305 C 76.49454070737967,604.9999786595731 77.58021678984423,605.000005023964 78.66587748757887,604.9999989043948 C 79.7515417049055,605.0000002162392 80.83720518127922,604.9999999636044 81.92286879656216,605.0000000042684 C 83.00853239061763,605.0000000001115 84.09419598645509,604.9999999997175 85.17985958267069,605.0000000001219 C 86.265523178618,604.9999999999596 87.35118677466657,605.0000000000117 88.43685037068367,604.9999999999969 C 89.52251396670967,605.0000000000008 90.60817756273322,604.9999999999999 91.69384115875742,605.0000000000002 C 92.7795047547815,604.9999999999999 93.8651683508056,605.0 94.95083194682962,605.0000000000001 C 96.03649554285373,605.0000000000001 97.12215913887783,604.9999999999999 98.20782273490195,605.0000000000002 C 99.29348633092599,605.0000000000002 100.37914992695005,605.0 101.46481352297415,605.0000000000002 C 102.55047711899819,604.9999999999999 103.63614071502238,604.9999999999999 104.72180431104636,605.0000000000001 C 105.80746790707043,605.0000000000001 106.89313150309457,604.9999999999999 107.97879509911868,605.0 C 109.06445869514278,605.0 110.1501222911668,605.0000000000001 111.23578588719087,605.0 C 112.32144948321503,605.0000000000003 113.40711307923904,605.0 114.4927766752631,605.0 C 115.57844027128722,605.0000000000001 116.66410386731125,605.0 117.74976746333542,605.0 C 118.83543105935945,605.0000000000003 119.92109465538351,605.0000000000001 121.00675825140763,604.9999999999999 C 122.09242184743174,604.9999999999999 123.17808544345587,605.0000000000002 124.26374903947985,605.0000000000001 C 125.34941263550394,605.0 126.43507623152804,605.0000000000002 127.52073982755205,604.9999999999999 C 128.60640342357627,605.0 129.69206701960027,605.0000000000001 130.77773061562436,605.0000000000001 C 131.86339421164845,604.9999999999999 132.94905780767255,605.0 134.03472140369666,605.0 C 135.1203849997207,605.0000000000001 136.2060485957448,604.9999999999999 137.29171219176894,605.0000000000001 C 138.37737578779291,605.0000000000001 139.463039383817,605.0 140.5487029798411,605.0000000000002 C 141.63436657586513,605.0 142.72003017188933,605.0 143.80569376791334,605.0000000000003 C 144.8913573639374,605.0000000000001 145.9770209599615,604.9999999999999 147.06268455598567,605.0000000000001 C 148.14834815200976,605.0000000000001 149.23401174803374,605.0 150.31967534405783,604.9999999999999 C 151.40533894008192,605.0000000000001 152.49100253610598,605.0 153.57666613213016,604.9999999999998 C 154.6623297281542,605.0000000000001 155.74799332417817,605.0 156.83365692020237,605.0000000000001 C 157.91932051622638,605.0000000000003 159.00498411225055,605.0000000000001 160.09064770827456,605.0 C 161.1763113042987,605.0 162.2619749003228,605.0000000000002 163.34763849634683,605.0 C 164.43330209237087,604.9999999999999 165.51896568839496,605.0000000000001 166.60462928441908,605.0000000000001 C 167.6902928804432,605.0 168.7759564764672,605.0000000000001 169.8616200724913,605.0000000000001 C 170.94728366851538,604.9999999999999 172.0329472645395,605.0 173.1186108605636,605.0000000000001 C 174.20427445658768,605.0000000000001 175.28993805261172,604.9999999999999 176.3756016486359,605.0000000000002 C 177.46126524465987,605.0000000000001 178.54692884068405,604.9999999999999 179.6325924367081,605.0000000000001 C 180.71825603273209,604.9999999999999 181.8039196287563,605.0000000000001 182.88958322478032,605.0000000000003 C 183.97524682080453,605.0 185.0609104168286,604.9999999999995 186.14657401285157,605.0000000000042 C 187.23223760888283,604.9999999999737 188.31790120486895,605.0000000001367 189.40356480107303,604.9999999993637 C 190.48922839631038,605.0000000027396 191.57489199553692,604.9999999889993 192.66055557941857,605.000000041096 C 193.74621921773283,604.9999998596538 194.8318826839443,605.0000004166016 195.91754658712318,604.9999990987849 C 197.00321000868726,604.9999998472878 198.0888694273891,605.0000177696742 199.17456984606764,604.9998597857349 C 200.26001197761823,605.0008099570445 201.34680569262378,604.9959612938934 202.4272603564167,605.0183096998413 C 203.53514495361063,604.9229727031816 204.47575218667967,605.4851229036905 205.16992887590345,605.9216538726461 C 205.95231686880408,605.0279231580962 207.03223735150485,605.0031818107365 208.11735942091582,605.006164271903 C 209.19449795181035,604.931618092928 209.96172424125868,604.121500894669 210.00166575746275,603.0401650880926 C 209.99454489731454,601.9531068662832 210.07505512231864,600.8865490948697 210.95794405096112,600.121939722303 C 210.41121344084308,599.4207590307076 209.93058538300352,598.4564140864258 210.0155055044333,597.3510247734706 C 209.99661985764263,596.2695267557431 210.00131762741165,595.1835133269295 209.99812437539453,594.0967094638017 C 210.00096324253423,593.0124125095542 210.02545327850748,591.9390046649573 210.79644009586278,591.1917950650086 C 211.5528983082452,590.2913417289878 212.5105114968067,590.0203443523343 213.40565752757237,589.5947883401378 C 214.27763511520217,588.9824156486598 215.10284130812119,588.7625980580477 214.92319096329484,587.5164909701936 C 215.32660775580558,586.6430532840837 216.0773046384162,585.8214109826761 215.82649066458217,584.7804377239262 C 215.02175372088277,584.0447386691909 215.0028156523283,582.9680426739408 214.99750181023,581.884836189651 C 215.0013510494382,580.7977911731025 214.99753801561897,579.7114422571682 215.01049763974706,578.631894438263 C 214.9539502872613,577.5180067182574 215.29643752294334,576.5989368998097 216.15454826680764,575.8170696413243 C 216.90123114817715,575.0279660251211 217.97696356383267,575.0083856796252 218.70452508754684,574.1866672894313 C 219.79135508710092,574.0414118795856 220.04545809927237,573.2268110330443 219.9654152194405,572.0787710058006 C 220.71298180298825,571.3353165620756 221.11466162477302,570.3317942717554 220.4420225449605,569.4667950521242 C 219.9388875850418,568.6130865644598 220.0153963483737,567.4912696061383 219.99614441249952,566.4143972766072 C 220.0017655177857,565.327295684724 219.99652516211896,564.2399120978197 220.0096100237623,563.1606311435444 C 219.98099819372663,562.0606611335594 220.6757739366952,561.2909359676771 221.45922345208768,560.4049876953127 C 222.35804788308346,560.0018592640877 223.31776574675402,559.720822104298 224.1184730729588,558.9812272916909 C 225.0806082597812,558.884810875873 224.94071375176165,557.6695177941488 225.2170901395201,556.7361688597458 C 226.02124375165388,555.9599304628965 225.92544285070676,554.8908289830489 225.09460111846184,554.154312473659 C 224.98724532419408,553.119312743643 225.0007609593609,552.0272692475177 225.00046439219935,550.9418329073806 C 224.99878288326195,549.8558818502062 225.00640956598562,548.7737673724865 224.96695666501947,547.6684324000242 C 225.19703649981054,546.6960304014688 226.05345284266957,545.9407299042416 226.78515647953833,545.086016329418 C 227.84496051128963,545.0350995937305 228.6068033172905,544.3016027253456 229.64562441036026,544.0286238297901 C 230.07697821133235,543.4036289265015 229.93272237703533,542.2020311501592 230.59591376953406,541.4327636297647 C 231.12714499060053,540.4825037329156 230.5634054793917,539.558219734042 229.9426522407912,538.7552185523494 C 230.01648204212967,537.6346498683146 229.99544097345571,536.5586755619728 230.00202598346115,535.4710581028243 C 229.9960100796659,534.3836525240384 230.01352559330408,533.3064771482371 229.95644199530972,532.1922756434536 C 230.55494344294848,531.3861235353165 231.3675334989488,530.5273302210832 232.208444118048,529.9890140904304 C 233.22503808313095,529.8345569936109 233.97264562886363,529.0080395118259 235.02958831660234,528.9747859844264 C 234.96736730978282,527.8311626718709 235.1194855723542,526.8329583370411 235.9447493768265,526.0867289525111 C 236.00722493345265,525.0127039715809 235.18671059473624,524.2552810116624 234.96846705543163,523.2721094251064 C 235.00547007797556,522.1689876462794 234.99921086879823,521.0861287853344 235.00000155017307,520.0002017232875 C 235.00213671401863,518.915531563217 234.9830606465191,517.8207341439413 235.10969673736312,516.7956186966143 C 235.94371019322304,516.0543874070518 236.69194692938183,515.1947796208707 237.6696559962294,514.9673983981733 C 238.77402685696444,515.0062518188216 239.85620014823866,514.9990027484346 240.94239126226367,515.0000983591028 C 242.02801288033174,515.0000111744072 243.11366610226995,514.9999896283002 244.19933666679086,515.0000041012839 C 245.28499766215154,514.9999986999244 246.370662060931,515.0000003671798 247.45632543411938,514.9999999043687 C 248.54198908737067,515.0000000232249 249.6276526696848,514.9999999947505 250.71331626876037,515.000000001088 C 251.79897986416486,514.9999999998012 252.8846434602985,515.0000000000286 253.97030705630783,514.9999999999982 C 255.05597065233252,514.9999999999993 256.1416342483571,515.0000000000006 257.2272978443809,514.9999999999999 C 258.3129614404051,515.0000000000001 259.39862503642917,515.0 260.4842886324533,515.0 C 261.56995222847735,515.0000000000001 262.6556158245014,515.0000000000001 263.7412794205256,515.0000000000001 C 264.8269430165494,515.0 265.91260661257365,515.0 266.9982702085978,515.0000000000002 C 268.0839338046218,515.0000000000001 269.16959740064596,515.0000000000001 270.25526099667,515.0000000000002 C 271.3409245926941,514.9999999999999 272.4265881887181,514.9999999999999 273.5122517847422,514.9999999999999 C 274.5979153807664,515.0 275.6835789767903,515.0 276.76924257281456,515.0 C 277.85490616883857,515.0000000000001 278.94056976486263,515.0 280.02623336088675,515.0 C 281.11189695691075,515.0000000000001 282.1975605529348,515.0 283.283224148959,515.0 C 284.36888774498294,515.0000000000001 285.4545513410071,515.0 286.5402149370312,515.0 C 287.62587853305524,514.9999999999999 288.71154212907936,515.0000000000001 289.7972057251034,515.0000000000001 C 290.8828693211276,515.0 291.9685329171516,515.0 293.0541965131756,515.0 C 294.1398601091998,515.0 295.22552370522385,515.0000000000002 296.311187301248,515.0000000000001 C 297.3968508972719,515.0 298.48251449329604,514.9999999999999 299.5681780893202,515.0000000000001 C 300.6538416853443,515.0 301.7395052813685,515.0 302.8251688773925,515.0000000000001 C 303.91083247341646,515.0 304.9964960694407,515.0 306.0821596654646,515.0000000000001 C 307.1678232614887,514.9999999999999 308.2534868575129,515.0 309.3391504535369,515.0000000000001 C 310.42481404956106,515.0 311.510477645585,514.9999999999999 312.59614124160925,515.0 C 313.6818048376333,515.0 314.76746843365726,515.0 315.85313202968155,515.0 C 316.9387956257055,515.0 318.02445922172956,515.0000000000001 319.11012281775373,515.0 C 320.1957864137776,515.0000000000001 321.2814500098019,515.0000000000001 322.367113605826,515.0 C 323.45277720185,515.0 324.5384407978741,515.0000000000001 325.62410439389805,514.9999999999999 C 326.7097679899223,514.9999999999999 327.79543158594635,515.0 328.8810951819704,515.0000000000001 C 329.9667587779945,515.0 331.05242237401865,515.0 332.13808597004254,515.0 C 333.2237495660668,515.0000000000001 334.3094131620908,515.0 335.39507675811495,515.0 C 336.48074035413896,514.9999999999999 337.5664039501631,514.9999999999999 338.6520675461872,515.0000000000001 C 339.73773114221126,515.0000000000001 340.8233947382354,515.0 341.90905833425944,515.0 C 342.99472193028345,515.0 344.0803855263077,515.0 345.1660491223317,515.0000000000001 C 346.25171271835575,515.0 347.33737631437975,515.0 348.42303991040376,515.0 C 349.508703506428,515.0 350.59436710245205,514.9999999999999 351.6800306984763,514.9999999999999 C 352.76569429450024,515.0000000000001 353.85135789052424,515.0 354.93702148654853,515.0 C 356.02268508257237,515.0 357.1083486785965,515.0 358.1940122746207,515.0 C 359.2796758706446,515.0 360.3653394666689,515.0000000000001 361.4510030626929,515.0 C 362.5366666587169,515.0000000000001 363.622330254741,515.0000000000001 364.7079938507651,515.0 C 365.7936574467893,515.0 366.8793210428133,515.0 367.9649846388372,515.0 C 369.05064823486157,515.0000000000001 370.13631183088546,515.0000000000001 371.2219754269095,515.0 C 372.30763902293364,515.0000000000001 373.3933026189578,515.0000000000001 374.4789662149818,515.0 C 375.56462981100594,515.0 376.6502934070302,514.9999999999999 377.73595700305407,515.0 C 378.82162059907813,515.0 379.9072841951024,515.0000000000001 380.99294779112637,515.0000000000001 C 382.0786113871503,515.0000000000001 383.164274983175,514.9999999999994 384.2499385791962,515.0000000000051 C 385.33560217523444,514.9999999999756 386.4212657711929,515.0000000001124 387.5069293675004,514.9999999995233 C 388.5925929623867,515.0000000018866 389.6782565626571,514.9999999930673 390.7639201442029,515.0000000231369 C 391.84958378306027,514.9999999341763 392.935247287389,515.00000012462 394.0209108594025,515.0000001744882 C 395.10657632044087,514.9999963010097 396.1922253307904,515.0000265942326 397.2779729639843,514.9998520560754 C 398.36321801771817,515.0007213333278 399.45077767213843,514.9967833789779 400.5284700566862,515.0133389170186 C 401.6453992087249,514.9484029780449 402.51402057580896,515.4165799936712 403.3099209926856,516.2692282119282 C 404.0136636698751,517.0425428923055 403.9914333503174,518.138887600353 404.00327693911214,519.2190005492903 C 403.9983110186611,520.3062294311458 404.003697509009,521.3932714390272 403.9850066499447,522.4704018982782 C 404.06052148573144,523.591748688383 403.57556422167875,524.4534895704787 402.8889416536457,525.310035558058 C 403.27039270890776,526.3205830441743 404.0280618925568,527.0615325145161 403.9596335255184,528.2006684790944 C 404.1889337105275,529.0418008674991 405.2803536453717,529.171274235168 406.00490770914905,530.0019039487839 C 407.080856512029,530.0214996732803 407.83117088489195,530.798545917049 408.68809357678384,531.5850313582702 C 409.0474685825936,532.4962375981339 408.9889818255097,533.6110973481395 409.0026304933634,534.690306132922 C 408.9985502517088,535.7767308511307 409.00283572490895,536.8639267505177 408.99542454477074,537.9461539442385 C 408.98700055149396,539.0278235399933 408.18913907315005,539.7650879065502 407.9162339583117,540.8003639122173 C 408.65663752142274,541.6295956724797 409.078432685189,542.4948352276957 408.89597255206206,543.742448034223 C 409.69844583719197,543.9842522809422 410.5816667815134,544.5757554760926 411.46719522096765,545.022975677546 C 412.4330906879903,545.2756750224335 413.1861069346186,546.1768283371873 413.966276519639,546.9220754657202 C 414.00076346062815,547.9904923146772 414.00151293435636,549.0758208720322 413.99892735407025,550.1623819336204 C 414.0024164224569,551.2487735161521 413.98889971561965,552.3283403457559 414.0506233066206,553.4431479752591 C 413.69257537814286,554.361965956906 412.9257601071845,555.1649485230411 413.16206763148415,556.2156932576333 C 413.9705288527746,556.9492267577557 413.99533309408287,558.0231552433147 414.068602714361,559.0296299839316 C 415.1698929372404,559.0788297748858 415.88970692812023,559.9387164114461 416.9512252930461,559.9926552401173 C 417.7361427563901,560.6706163432157 418.577354859535,561.4911931343088 419.05220841972687,562.3499488425971 C 418.986394028031,563.4684933726493 419.00358051788874,564.5459213338644 418.9980822494145,565.6328866954645 C 419.0043190046285,566.7206390887966 418.98691142306683,567.7982329225988 419.0325364551514,568.9054739143158 C 418.30183366798667,569.6645859663493 417.88403243925035,570.6528141306574 418.53899574607607,571.5378132657637 C 419.0819085404191,572.3519635344386 418.899620880496,573.5922355548194 419.53403328007784,574.0034675514229 C 420.49480305028567,574.4446600084809 421.31670193894195,575.0367218895964 422.33433998707767,575.1767757749228 C 423.0694987730348,576.0705417193543 423.89883201927046,576.8115597165429 424.01513206283886,577.8393981897896 C 423.99833067755543,578.9334346470378 423.9998602516094,580.0183268030736 424.0009681313902,581.1042804462207 C 423.9938881285757,582.1867783406993 424.0338840798877,583.2913116056314 423.80059027168215,584.2674978224717 C 422.983943381217,585.0289586527116 423.0661954258916,586.1017998656174 423.891715184271,586.8455021753621 C 424.02878217086686,587.8520802020951 423.97915174985326,588.9834502103704 425.04438044971874,589.0138885785511 C 425.7871441382272,589.8476152217409 426.809945016779,589.9882550876123 427.643966507563,590.5431291067465 C 428.46009674448385,591.3979168142007 429.04543056310763,592.2094280529502 428.9862459388272,593.3246785979853 C 429.0040707065244,594.4017098439314 428.9976170189258,595.4893077746245 429.00599011115213,596.5760632749062 C 428.97840863277656,597.655498880301 429.0735840136945,598.7633018403246 428.3014711937841,599.6321559110208 C 428.23577936240144,600.3158360222338 429.058793234205,601.1608612722746 428.98620300178885,602.2643607235459 C 428.97546325961895,603.3480286680918 429.18513063680865,604.4029188055448 430.10100415559333,605.0208915455031 C 431.1879716108983,604.9988458417399 432.284546766405,604.9584961909982 433.29735899544005,605.255656635995 C 434.01947326959043,605.998899831583 434.75187112961197,605.2022503889478 435.7808861773026,604.96639970632 C 436.8755591870996,605.0050537005397 437.95995385634376,604.9996094963279 439.04568430357995,604.9998963148078 C 440.13138790792476,605.0000679665299 441.21702977997984,604.9999747620006 442.30270107027144,605.0000077734913 C 443.3883623521272,604.9999978447825 444.4740265793872,605.0000005530367 445.55969001565,604.999999867597 C 446.6453536493981,605.0000000294481 447.7310172371663,604.9999999940269 448.81668083482816,605.0000000010542 C 449.9023444305738,604.9999999998597 450.98800802663163,605.0000000000042 452.07367162265626,605.0000000000058 C 453.15933521867834,604.9999999999973 454.24499881470325,605.000000000001 455.33066241072675,604.9999999999997 C 456.41632600675104,605.0000000000001 457.50198960277544,605.0 458.58765319879933,605.0000000000001 C 459.67331679482345,605.0000000000001 460.75898039084734,605.0000000000001 461.84464398687163,605.0000000000002 C 462.93030758289575,605.0000000000001 464.01597117891976,605.0000000000001 465.1016347749438,605.0000000000003 C 466.18729837096765,605.0 467.27296196699183,605.0000000000001 468.35862556301623,605.0000000000002 C 469.4442891590402,605.0 470.5299527550643,605.0000000000001 471.6156163510881,605.0000000000001 C 472.7012799471124,605.0000000000002 473.78694354313666,605.0000000000002 474.8726071391606,605.0000000000001 C 475.95827073518467,605.0000000000002 477.04393433120856,605.0000000000001 478.1295979272326,605.0000000000001 C 479.2152615232571,605.0000000000001 480.300925119281,605.0 481.38658871530504,605.0 C 482.4722523113291,605.0000000000001 483.55791590735316,605.0000000000001 484.64357950337757,605.0000000000002 C 485.7292430994015,605.0000000000001 486.81490669542535,605.0000000000002 487.9005702914494,605.0000000000001 C 488.9862338874734,605.0000000000001 490.07189748349776,605.0000000000001 491.1575610795219,605.0000000000002 C 492.2432246755459,605.0000000000001 493.3288882715699,605.0000000000001 494.41455186759384,605.0000000000001 C 495.50021546361796,605.0000000000002 496.58587905964225,605.0000000000001 497.6715426556662,605.0 C 498.7572062516904,605.0000000000002 499.8428698477144,605.0000000000002 500.9285334437385,605.0000000000002 C 502.0141970397627,605.0 503.09986063578674,605.0 504.18552423181075,605.0000000000001 C 505.2711878278347,605.0000000000001 506.3568514238588,605.0000000000002 507.4425150198832,605.0000000000001 C 508.5281786159071,605.0 509.6138422119312,605.0000000000001 510.6995058079551,605.0 C 511.78516940397924,605.0 512.8708330000037,605.0000000000002 513.9564965960275,605.0 C 515.0421601920518,605.0000000000005 516.1278237880755,605.0 517.2134873840997,605.0000000000001 C 518.2991509801241,605.0000000000001 519.384814576148,605.0 520.4704781721722,605.0000000000002 C 521.556141768196,605.0000000000002 522.6418053642202,605.0000000000001 523.7274689602444,605.0000000000002 C 524.8131325562683,605.0 525.8987961522924,605.0000000000002 526.9844597483162,605.0000000000001 C 528.0701233443406,605.0000000000002 529.1557869403647,605.0000000000001 530.2414505363888,605.0000000000001 C 531.3271141324128,605.0000000000001 532.4127777284368,605.0000000000002 533.4984413244609,605.0000000000001 C 534.5841049204853,605.0000000000002 535.6697685165092,605.0 536.7554321125333,605.0000000000001 C 537.8410957085573,605.0000000000002 538.9267593045811,605.0 540.0124229006055,605.0000000000001 C 541.0980864966298,605.0000000000001 542.1837500926537,605.0 543.2694136886778,605.0000000000002 C 544.3550772847016,605.0 545.4407408807257,605.0 546.5264044767504,605.0000000000001 C 547.612068072774,605.0 548.6977316687983,605.0 549.7833952648218,605.0000000000008 C 550.8690588608471,604.9999999999983 551.9547224568693,605.0000000000031 553.0403860528892,605.0000000000109 C 554.1260496489855,604.999999999859 555.2117132444989,605.0000000009367 556.2973768433466,604.9999999949745 C 557.3830404256471,605.0000000239523 558.468704082728,604.9999998950334 559.5543674260902,605.0000004285142 C 560.640031997164,604.9999983697536 561.7256921194146,605.000005704424 562.8113667779357,604.999982346607 C 563.8970018110799,605.0000426554624 564.9827004383235,604.9999686890849 566.0685981609016,604.9994743445144 C 567.1517367896812,605.0048056656525 568.2535136141115,604.9707835232283 569.2433591812902,605.1746245932466 C 569.9971681258685,605.9983496234238 571.0719610926533,605.9550833493248 571.8209039858236,605.1305800384313 C 572.8110331017406,604.9637279283293 573.9658058278229,605.0375398088323 574.0029172320717,603.9894262057271 C 574.8218395236598,603.2371917398905 574.9894391263213,602.2251938411289 575.5157758384889,601.3866893693458 C 576.364201248271,600.5466492102348 577.1891811786356,599.9877760547452 578.2134377593724,599.8476919116272 C 578.9558191761116,599.0138381191505 580.0209458459716,598.983367117757 579.9711740419573,597.851863556683 C 580.1083999356166,596.8453740264737 580.9339181745601,596.101646509257 581.0159680972397,595.0287912454363 C 580.1992716815396,594.267369709535 579.9661568026138,593.2911235775199 580.0060538908778,592.1865703041742 C 579.9991581754593,591.104157195864 580.000043535839,590.0180934768002 580.0001689870749,588.9324939089349 C 579.9987042798573,587.8461795410905 580.0078059820266,586.7648069005209 579.9599274513046,585.6564741964374 C 580.2350676199205,584.6996680884454 581.0383888602204,583.9257527432478 580.9026644885545,582.858050384975 C 580.0791658117347,582.119816235622 579.9821568373843,581.090282625751 579.9941841523998,579.9962333744095 C 578.9107283300501,579.967432150239 578.1789387705907,579.1185111858317 577.1406101766689,579.0124866761693 C 576.3246638884807,578.4135142801423 575.4991996706809,577.5700925334098 574.9507390994804,576.7432224024259 C 575.0138790962324,575.6259969013033 574.9967633658841,574.5485951323305 574.9991794269353,573.4630316263552 C 575.0063915696924,572.3686299577428 574.9765663110917,571.3164684424112 575.0747099578548,570.1210261784776 C 574.1232136249114,570.0184921189251 573.3187058138351,569.2826298900818 572.3618871721603,568.9976141165157 C 571.4612843818807,568.5978844232136 570.6786827912496,567.7113433058704 569.9818057584029,566.9423457270456 C 570.0094650815153,565.8428521946915 569.9965493284952,564.7634893562608 570.0017555030433,563.6761128393797 C 569.9961687471584,562.5890258643527 570.015334790398,561.5121122892281 569.9389658437022,560.3903619119424 C 570.4391681401644,559.535360293856 571.114108753646,558.6717376028789 570.715686050964,557.6670608330697 C 569.9664403254556,556.9240355053272 570.0446387116899,555.7774229117028 569.7945802386608,554.9584937365323 C 568.7069586161302,554.8158546695091 567.9799230368333,553.9926152383048 566.9041156835654,553.97311856922 C 566.1568694603319,553.1859256303436 565.2989289801437,552.4033199265434 564.9537100509954,551.4855249985283 C 565.0105838409911,550.3714737025766 564.997510350277,549.2919817855679 565.0013675694179,548.2056207766626 C 564.9974448692145,547.1185499764129 565.0031103296501,546.035507776304 565.0203001485046,544.9579849257201 C 565.8239762416047,544.2220614937102 566.0783816091905,543.1819870255434 565.3293115560288,542.359128546239 C 564.9229101925008,541.4870300557068 565.1030664324709,540.2406304901731 564.2815029877827,540.0173099897485 C 563.407712835479,539.408288081052 562.5141241889143,538.9792241420735 561.555167386572,538.7112120550489 C 560.7992629865411,537.8106250779598 560.0267555388272,537.0637559920816 560.0006886478134,535.991135850011 C 559.998329718454,534.9066035478626 560.0001438676248,533.8204585114601 560.0032472091162,532.7307044038146 C 559.9827610356824,531.6681469583341 560.0780658965774,530.4758537691421 559.530280966549,529.9858926089461 C 558.5359349555295,529.6041713648798 557.7377886553522,528.9610862536888 556.7035994332757,528.8556954230671 C 555.9719702565952,527.970727166955 555.1304902898232,527.2272176246095 554.9789390276175,526.216690015118 C 555.0031526932327,525.1189613521227 554.9997215299736,524.0349101136838 554.999544253963,522.9490223164485 C 555.0042459146811,521.865469943731 554.9730791995805,520.765105729491 555.1627754045859,519.7686484516906 C 555.9891579655016,519.0181639833648 555.9651495994397,517.942983438394 555.1419056350635,517.1910672507497 C 554.9601952304755,516.2089674743355 555.0449707309158,515.0437552328389 554.0064854732734,515.0016676246197 C 553.2482536640211,514.1916004844982 552.2443682748885,514.008869453177 551.3897931036705,513.5030426842145 C 550.5842025288619,512.6367980562313 549.960789083495,511.84057972883454 550.0129504666668,510.72883637517583 C 549.9960482303809,509.6513796675762 550.0019928975506,508.56393365682584 549.9955462017866,507.47641810380713 C 550.0165199296958,506.40039508603354 549.9403512502471,505.2787245238165 550.5337994019359,504.4641890201507 C 551.1260533633754,503.55439764847006 550.6248407993439,502.5905016086733 549.9388519507213,501.8288434005126 C 550.0699920764979,500.63891583042727 549.6826437828419,499.96695341753923 548.629790982587,499.7277366182985 C 547.8782782045951,498.9688310569568 546.8124586958787,498.9302328168786 546.0786901355466,498.0887925599275 C 545.2201074943649,497.3280067624483 544.9634284000176,496.36836741235936 545.0072646265683,495.26083634602037 C 544.9990652215683,494.1789889374603 544.9993502666608,493.0939062377991 545.0002805551494,492.00709699611303 C 545.0126608224988,490.9075865051278 544.8884442967559,489.96031291735164 543.7816216167942,489.8867829825561 C 543.0645014092727,489.03158760830036 541.9939009646081,488.9988040157242 541.2251989134046,488.27664828395905 C 540.3761783859535,487.470398822013 539.9485685851769,486.59049118623193 540.0127799363169,485.4727575665398 C 539.9967593514607,484.39473222927865 540.0017686070977,483.3079866764762 539.996126389024,482.22037039206015 C 540.0102929780717,481.14128344841095 539.9832224440694,480.04281885210906 540.7455995001739,479.29494269030135 C 541.1052567319194,478.28585226557306 540.4121060861738,477.4244204795047 539.9178248420126,476.59038356681873 C 540.1041900286743,475.343579021466 539.3984103509075,475.0055002092904 538.469323694908,474.50144161270214 C 537.6219421461226,473.96776488847973 536.6243567220769,473.7844023882326 535.8832156035925,472.88484906775756 C 535.0712251706454,472.1440317551411 534.9912003337013,471.09826570545016 535.0001873642503,470.0081141675134 C 535.0005593966247,468.9224175331794 534.9984369967951,467.83632202376964 535.0082143976091,466.7550404713163 C 534.9587088576528,465.6460129423703 535.2424213700172,464.6931344813268 536.0425730608946,463.9164808371451 C 535.8961825021115,462.8501329824628 535.0735696373443,462.112748287181 534.9844278363707,461.0785811027458 C 534.988310584673,459.99274082071474 533.9019578032039,459.96321113744875 533.1719820987339,459.1120202863113 C 532.1307964255262,459.01237851819633 531.3183414617139,458.40475373781385 530.4910823774953,457.5636753977151 C 529.950168322461,456.7336062088238 530.0138891709868,455.6160915612863 529.9967971539182,454.53867254380805 C 529.9991530133233,453.45315102034493 530.0063898204539,452.35873320899674 529.9768377725794,451.3062622636643 C 530.0725927192494,450.11349230725415 529.112540711241,450.0177678056571 528.3125582797309,449.27429266630895 C 527.3514426914785,448.9987949467426 526.4549360273984,448.5897144191572 525.6703389077927,447.70468499955336 C 524.9794865985476,446.933605426748 525.0098815870722,445.83274356988545 524.9964798064498,444.7536159382243 C 525.0017843957105,443.66621919943157 524.9960988516253,442.5790901686505 525.0155095330879,441.50229409291853 C 524.9387577663964,440.3803613621541 525.4474586859357,439.5291039633226 526.1156806012086,438.66147882036176 C 525.7078253968516,437.6601699611977 524.9634982654984,436.9158744380883 525.0470106976115,435.7651352637305 C 524.7851855164652,434.958800050672 523.6999118134853,434.8085048762685 522.9713090428028,433.98976147824357 C 521.8957611354618,433.96993122458423 521.150123442065,433.17723778315144 520.2917129855537,432.3967645661328 C 519.9544180520115,431.47526844882765 520.010331734954,430.36169822067086 519.9975910181861,429.2820430655688 C 520.00131904997,428.19571693495567 519.9976125927888,427.1087224316904 520.0022446269735,426.0251972778546 C 520.0245566303939,424.9500968419494 520.8312554325073,424.2147935189804 521.075223302525,423.1721366381221 C 520.3214750387216,422.3527934412138 519.9237437932755,421.4767961775073 520.1023772971593,420.2312980429032 C 519.2702839594649,420.0180806350276 518.4017467053903,419.3993654759862 517.5036324422448,418.9804835470924 C 516.5486047292184,418.70377169774844 515.7910356680949,417.80362353798165 515.0229842494016,417.0557385809147 C 515.0014632069679,415.9808473941754 514.998191073012,414.89676554478626 515.0001317978014,413.81058599848484 C 515.0033812742258,412.7206506205155 514.9823027775943,411.6587578136209 515.0793994394783,410.4644609178769 C 514.5190922406209,409.9875253608033 513.5298197001662,409.59529067283955 512.7277670249495,408.9613006534276 C 511.696426281084,408.8498399891461 510.9643215260518,407.9629407124641 510.1248603125346,407.22006129804834 C 509.9800513262847,406.2062315946931 510.0028679076577,405.1091992853053 509.99980220498367,404.0249841555163 C 509.9994510804616,402.93908890999575 510.00458907814436,401.85572849569576 509.97177037493697,400.75458452870765 C 510.16945000683535,399.7618467673808 510.99439251869126,399.0095215598087 510.9594924253536,397.9345133067865 C 510.1354737477062,397.1843105418687 509.96218262558136,396.19767522889356 510.0408257135694,395.03828322183944 C 508.9968024022216,394.99914471529553 508.2417397663533,394.1840951623388 507.23417501014626,394.0095486422061 C 506.3835012223158,393.49448989769957 505.5759171364765,392.6303064549989 504.95946063635364,391.8313430641121 C 505.0131359202488,390.71884349401773 504.99603219252714,389.6414802352425 505.002004249991,388.5540430589613 C 504.99551162518213,387.46649673939646 505.0165310209406,386.39049985384713 504.9409034820913,385.2690839750962 C 505.542171794562,384.45786956504116 506.126488731956,383.54397495683014 505.61668511430565,382.5838997683291 C 504.937004922843,381.8201730241935 505.0720210844135,380.62684599585316 504.6722674415017,379.9681370162133 C 503.6232473971137,379.7195204149798 502.8689310433314,378.9675673404831 501.80468372283514,378.9257714992038 C 501.0716018533675,378.0804035745558 500.21350263812553,377.3212448262213 499.964421085885,376.35796848593293 C 500.0069725732808,375.2510798170355 499.9991316058576,374.16906187852084 499.99940404161913,373.0839323963005 C 499.999904128302,371.997618841023 500.0144244038346,370.89571219296545 499.8803718708602,369.9593380175141 C 498.7739464480081,369.8805087273716 498.0566619579245,369.02709043354486 496.98492938518785,368.9969227602508 C 496.21868380375696,368.2678287787261 495.3685196948267,367.4639543896914 494.9488701537613,366.58043808371923 C 495.0126061200617,365.4629436564386 494.99682392107877,364.38479792281413 495.0017377804524,363.29809018396605 C 494.9962224441058,362.21050859313016 495.00973265196853,361.13111781675235 494.98625146887116,360.03435135213647 C 495.75340127369464,359.28806158781555 496.1031190057399,358.27566823989605 495.40398248383303,357.41811116662586 C 494.9180198496532,356.5805863404082 495.10452912902434,355.33314775824476 494.38707585907366,355.0068881511075 C 493.4633526180894,354.4924006171157 492.6115913261656,353.968700710676 491.6175469742712,353.77764347777253 C 490.8752037450111,352.87751395532587 490.0665071705416,352.1364656798924 489.9922136047688,351.08785730287667 C 489.99996185032126,349.99832067449324 490.0006247408051,348.91250521351594 489.9983364521162,347.8263800290212 C 490.0085628345063,346.74530271363074 489.9575273329708,345.63555175722655 490.2498238666759,344.68662591516926 C 491.04665628490216,343.90715471177214 490.88962872342194,342.8422648789707 490.06806247763245,342.10564597389464 C 489.9867208996326,341.06684040751367 489.98226782564456,339.98944151505094 488.89326876440964,339.9588394435622 C 488.16497582773593,339.1056410568958 487.1210272544606,339.01217739731754 486.3120118765857,338.3959802766405 C 485.48298717989206,337.55726152504377 484.949663269774,336.7239570936577 485.0138847200607,335.6061934653237 C 484.99683373415365,334.5287487424773 484.99912749641936,333.4432690343899 485.0063811190419,332.3488442994863 C 484.9771408987724,331.2960206684478 485.07033733625263,330.1061129139066 484.1019335723711,330.01690796820253 C 483.3063872646302,329.26601513955285 482.3410125322927,328.9999471949693 481.4485966344811,328.58150404883736 C 480.6619948886872,327.6980449695916 479.97726155099207,326.9248179718379 480.01027591798925,325.8226460640867 C 479.99641544532267,324.7437399634291 480.0018117647876,323.65632596561113 479.9960315331054,322.5691554481367 C 480.01567197158715,321.492470119856 479.9386087641786,320.3703887807312 480.45576458211144,319.5228465512318 C 481.1171520204233,318.6511990053091 480.6999311536372,317.65330851647775 479.960657666542,316.9076680820846 C 480.04936218374866,315.75285456305386 479.77569047336823,314.9592030241927 478.69291556532465,314.8010663121842 C 477.96262321527297,313.9870632650937 476.88746151784136,313.9666250055565 476.1433510931002,313.168569741434 C 475.28454557356537,312.3901945729767 474.9551579437628,311.464995941792 475.0100740321523,310.35192545413395 C 474.9976727558942,309.2721042066606 475.0012687938478,308.1858122314606 474.99778783674606,307.098898516014 C 475.00134705973227,306.0148716551264 475.0289261333941,304.94226153407595 475.83847516594597,304.20748321223425 C 476.071966532083,303.16232573136523 475.3136745904092,302.34645152048824 474.924633775963,301.4665204861098 C 475.1015780371058,300.2220853047419 474.2590911900316,300.0187704160078 473.39577427421005,299.39046788778603 C 472.4931349484269,298.9817574230904 471.54206175590826,298.69627261543656 470.7827933545784,297.796650317483 C 470.01931026090267,297.0476736280485 470.00221042609763,295.9705726730772 469.9980590523804,294.8869241435333 C 470.00011810859417,293.80071435635597 470.0035146189234,292.7105978586591 469.9818537732596,291.6493582728202 C 470.08067825003445,290.4531292807515 469.50786899565475,289.9891596796401 468.52372492914907,289.5863826992057 C 467.717709117819,288.96159403719736 466.68928897537677,288.8438983620507 465.9566355648269,287.95519759298253 C 465.119305413972,287.2128724385882 464.9811616670894,286.1957741883619 465.00258654421856,285.0994353619876 C 464.99988172397144,284.0150593739122 464.9993567194505,282.9291544577336 465.0049348332428,281.84598838933783 C 464.97046480660225,280.7440648435653 465.17619692798826,279.7550754150102 465.99952691221023,279.00081436027756 C 465.95374861537556,277.92610020238243 465.12911582961254,277.17752729791556 464.96420187551485,276.18634306127706 C 465.03652180748094,275.03299227249744 463.98721299052744,274.9964466876427 463.2351886333872,274.1766767676257 C 462.22401195390603,274.0101655448298 461.3772098502781,273.48591111164313 460.5676432442031,272.62382527355817 C 459.9582114555373,271.8220666882902 460.0133031544005,270.7088597269323 459.99602033954716,269.6315788229475 C 460.0020140281261,268.54415256481803 459.9954808044102,267.45657698304746 460.01652514345375,266.38059661580894 C 459.9415322683633,265.25947967826386 460.55054169822364,264.45153919141165 461.12682414067774,263.5335456631858 C 460.6085124514723,262.5773187123347 459.9352486059932,261.8114581879257 460.0740082197575,260.61480999878773 C 459.6618209646432,259.96937494034216 458.6167408078148,259.71124257568044 457.8595278078262,258.96642552880604 C 456.79695527611113,258.9212056504169 456.0644788294823,258.0720487412228 455.2069579922092,257.31446040472616 C 454.9654307617877,256.3475610718648 455.0066791624969,255.24132386219713 454.9991968439093,254.15913585248467 C 454.99946129885546,253.07395486191587 454.99951459956236,251.98815524875124 455.01621666487216,250.88380583120818 C 454.8721646320872,249.95850177582201 453.7663357289115,249.8741202119838 453.0487538462168,249.02274233616342 C 451.97602053716884,248.99490948469065 451.2121500283808,248.25901599956393 450.360898987393,247.45750248312447 C 449.9492171453977,246.57036223893994 450.01242310184955,245.45313428923694 449.99689045013105,244.3748629516732 C 450.00170526346994,243.28819310536318 449.99632494467374,242.20064984619205 450.0091447145302,241.1209390933484 C 449.9893969288689,240.02593900369382 450.76115985604497,239.281147122851 451.1008823886052,238.26551053683684 C 450.39587980396607,237.4118029187256 449.91828104124124,236.57074654507073 450.1047775927845,235.32281168508993 C 449.37574010241866,235.00823382957782 448.4573876030809,234.4833598962065 447.60122038854064,233.96968167984156 C 446.61076457579736,233.77081276275473 445.86716630405306,232.87021431522362 445.0618758594911,232.12885922758267 C 444.9932100827955,231.0774573526474 444.9997435951424,229.98852338202684 445.0006886730493,228.90259396308247 C 444.9982358987199,227.81643762135127 445.00890919850445,226.73556406852032 444.95636654393576,225.62510037124807 C 445.25728084286976,224.6801378439885 446.0506380529689,223.8977759017253 445.88300492014844,222.83444515987887 C 445.0626458984897,222.09850848273427 444.9890350677585,221.05506061891762 444.97605853669603,219.98633172459623 C 443.884660019056,219.9543194608491 443.15791876280883,219.09937588994418 442.1113040530253,219.01188034702042 C 441.3056743920271,218.3871951614051 440.47491510200877,217.55085022353606 439.949222631883,216.7142757134907 C 440.0138660972959,215.5963024341902 439.99687300076044,214.51882378868214 439.99910294570117,213.43338560633882 C 440.00636529337874,212.3389634174725 439.9774763085062,211.28574296587237 440.06794150560034,210.09889057373513 C 439.09139497772435,210.0159088210508 438.30019155451333,209.25779971156086 437.33059809177627,209.00106789096577 C 436.4422654607534,208.57325457767652 435.6536517582418,207.6914225240382 434.97512930740214,206.91598401830115 C 435.01064842285695,205.8125595005869 434.99635615908596,204.73386148271763 435.0018376057942,203.6464331112569 C 434.99596689554716,202.55922175861835 435.0158216945832,201.48264017347574 434.9385203783517,200.36044489812667 C 435.4640842557606,199.516587190089 436.11852305231133,198.6408994303434 435.6920047875311,197.64647573610395 C 434.95791757929305,196.8994165110544 435.05169129368625,195.7405831768982 434.7660977270659,194.95969894522568 C 433.68596891069603,194.79354125742586 432.9538668346348,193.98451768472228 431.8792171432868,193.9632006713197 C 431.1365557589655,193.15992080899082 430.27740265426024,192.38362130639135 429.9559865758684,191.45468022585445 C 430.00960009465393,190.3422564698087 429.998481108526,189.2618170598448 429.9990280726485,188.17695691598144 C 430.0029230006712,187.08670188700268 429.9993781015101,186.0050293391475 429.95014883768056,184.97435320806647 C 428.84830927850334,184.9343399214793 428.1273744034468,184.07458035542095 427.0711104406203,184.00950007446136 C 426.27891037238817,183.35029889221593 425.441397207078,182.5239499575276 424.9479983301496,181.67336451458664 C 425.0138244067769,180.55481052485268 424.9963086858871,179.47755595141663 425.0019604748828,178.39050848039224 C 424.99556235391594,177.3027334737472 425.01394605795826,176.22558568476458 424.96228746459894,175.11549166075307 C 425.6790581467769,174.35115101502754 426.11922878643406,173.3716459376399 425.48047876850165,172.47718669864577 C 424.9189036357067,171.6704287558325 425.09808437137593,170.43396975304705 424.4925383144459,169.9927791332768 C 423.5195217067282,169.57653690054892 422.7073022975146,168.96211656130097 421.6823177874036,168.83780792339846 C 420.94890403837877,167.94750168004995 420.1138145496044,167.2056562391919 419.98227073130647,166.18531748195494 C 420.00230869649477,165.08966952980848 419.9999600043386,164.00513581804125 419.99926128726497,162.91921900942955 C 420.0052827628546,161.8362494309246 419.96916403790004,160.73354740353273 420.183014594208,159.74833352752597 C 421.00455977364845,158.99204178333196 420.94791963450854,157.91774336295504 420.12283334720644,157.17071675598123 C 419.9662520287585,156.1749710462915 420.0320571345428,155.02788475285095 418.97771624531714,154.99357562410881 C 418.2285994563607,154.1693475074996 417.21387957775414,154.01071763502554 416.37092477244767,153.47730445929793 C 415.55936289274734,152.61736292939784 414.9570655620581,151.8127391028687 415.0133267705044,150.69894523800426 C 414.99661090607384,149.62138837263652 414.9993941419967,148.53552325531464 415.0062079957321,147.44149842561413 C 414.9754839810589,146.39036794107727 415.0862421612891,145.18081138124217 414.20330695513024,145.02002112089866 C 413.36322831216665,144.34542723392929 412.4388594423212,143.98835446398542 411.5082291442289,143.6564995435424 C 410.73982874984443,142.76084358031676 410.00183490315624,142.004997401989 410.0056957337157,140.9174111068804 C 409.99722583155125,139.83588142953784 410.0014972064025,138.74875143458056 409.9967507890703,137.66198272689743 C 410.0137146586419,136.58402402250513 409.94215468170165,135.46455682781263 410.3789317470932,134.58133404620042 C 411.0994925379219,133.7462764216731 410.77221886446426,132.71861626755998 409.99123251478136,131.9825479803367 C 410.0267794009601,130.8676062685492 409.860216959106,129.95955990106333 408.76034669398246,129.8668599200976 C 408.0408752194857,129.01849726909953 406.96719382607887,128.9927556301094 406.2056527907713,128.2501839320221 C 405.3532871013708,127.4510571297064 404.94961390929325,126.56026154919714 405.0122298658177,125.44332995355137 C 404.9969591586126,124.364927217478 405.0016709888923,123.27829544461522 404.99643400597006,122.19079420154597 C 405.00852875285574,121.11074708240845 404.9926603654748,120.0175825371831 405.768873673855,119.27419842812796 C 406.0985469215607,118.25538042900659 405.3877995135727,117.40549497261944 404.9186074637178,116.5608642563514 C 405.10493355505025,115.31257316370481 404.3644056693477,115.00953354688858 403.4514278889106,114.47432163418053 C 402.5908298000072,113.97070527227062 401.6040133410695,113.76390932198053 400.8590984539984,112.86295226316817 C 400.0573193309055,112.12121791126067 399.99420784384995,111.06705720898827 399.9995603161784,109.97870899743118 C 400.00017627239737,108.89295963343281 400.00225746050234,107.80451687272631 399.98634913846024,106.73681497590692 C 400.0668212060714,105.56111064856205 399.6110904672709,104.97431625397847 398.58156634628216,104.66829548167722 C 397.81010814757656,103.96221334796422 396.75742154960005,103.89591777423371 396.0268920629168,103.02925999765054 C 395.17401739940476,102.27881825151393 394.97083903268503,101.2934278939012 395.00531467578037,100.19057918189294 C 394.99910215209457,99.10780213588987 395.00018212384964,98.02190065740791 395.00184548043296,96.93703621505952 C 394.98263932152906,95.84231270027658 395.1161446148811,94.8195869432382 395.9478179844028,94.0797029334501 C 396.0038841978183,93.00697603520865 395.1912431721686,92.23992479934279 394.9466723421221,91.29062843680411 C 395.0707128158872,90.08923870253415 394.08022158155757,90.01511087405233 393.29504293650837,89.24912579171182 C 392.3199828105502,89.00225981395913 391.4360687977372,88.5649084292199 390.6452647090456,87.68483167740465 C 389.97310004470444,86.90710469644017 390.0109435627675,85.80247172350889 389.99660446158646,84.72404991104833 C 390.000388529798,83.63620156828104 390.0024758551846,82.55080150897739 389.9887056899908,81.46653145404609 C 390.04392927178816,80.374797970542 389.6268933855466,79.37299092390948 388.6267121930187,78.96058167387892 C 387.5400155360372,78.99209360651693 386.4330995653916,79.07618113442194 385.50191617604787,78.48618584115971 C 384.81021061377976,78.09509821786747 384.02002491406665,78.98877993085145 382.9352988545914,78.99279927079299 C 381.8522141139771,79.0038639280434 380.76533195546847,78.99863564879224 379.68008186224097,79.00040979506589 C 378.594296721072,78.99988830194015 377.5086657445958,79.00002825709832 376.42299400807536,78.99999333005385 C 375.33733230671186,79.000001459153 374.251668303178,78.99999971071918 373.16600478601606,79.0000000490791 C 372.08034117718057,78.99999999411175 370.99467758250717,78.99999999990767 369.9090139865891,79.00000000036222 C 368.8233503904436,78.9999999998408 367.7376867944689,79.00000000005268 366.65202319842916,78.99999999998474 C 365.5663596024093,79.00000000000408 364.480696006384,78.99999999999902 363.39503241036033,79.00000000000021 C 362.3093688143364,78.99999999999999 361.2237052183124,79.00000000000003 360.1380416222881,79.00000000000001 C 359.0523780262639,79.00000000000001 357.96671443023985,79.00000000000001 356.8810508342159,79.00000000000003 C 355.7953872381919,79.0 354.7097236421679,79.00000000000001 353.62406004614337,78.99999999999999 C 352.53839645011936,79.0 351.4527328540955,79.00000000000001 350.3670692580714,78.99999999999999 C 349.28140566204735,79.0 348.19574206602306,79.00000000000001 347.11007846999894,78.99999999999999 C 346.02441487397493,79.0 344.93875127795116,79.00000000000003 343.8530876819269,79.00000000000001 C 342.7674240859024,78.99999999999999 341.6817604898786,79.0 340.59609689385474,79.00000000000001 C 339.51043329783056,79.0 338.42476970180667,79.00000000000001 337.33910610578226,79.00000000000001 C 336.2534425097581,79.0 335.1677789137342,79.0 334.08211531771025,79.00000000000003 C 332.99645172168624,79.00000000000001 331.9107881256617,79.0 330.82512452963766,79.0 C 329.73946093361377,79.00000000000001 328.6537973375897,79.0 327.56813374156576,79.0 C 326.48247014554147,79.00000000000003 325.3968065495173,78.99999999999999 324.3111429534934,78.99999999999999 C 323.2254793574694,79.00000000000003 322.13981576144533,79.00000000000001 321.0541521654209,79.0 C 319.9684885693969,79.00000000000001 318.882824973373,79.0 317.79716137734897,79.00000000000001 C 316.7114977813249,79.0 315.6258341853009,79.00000000000001 314.54017058927644,78.99999999999997 C 313.4545069932525,78.99999999999999 312.3688433972284,79.0 311.2831798012045,78.99999999999999 C 310.1975162051805,79.00000000000001 309.1118526091561,79.0 308.02618901313207,79.00000000000001 C 306.94052541710806,79.0 305.8548618210841,79.00000000000003 304.76919822506005,79.0 C 303.6835346290356,79.00000000000001 302.59787103301153,79.0 301.5122074369877,79.0 C 300.4265438409636,78.99999999999999 299.3408802449396,78.99999999999999 298.2552166489152,79.0 C 297.16955305289116,79.0 296.0838894568672,79.0 294.9982258608434,79.00000000000003 C 293.9125622648192,79.0 292.8268986687947,79.00000000000001 291.74123507277073,79.0 C 290.65557147674673,78.99999999999999 289.5699078807228,79.00000000000001 288.4842442846989,79.0 C 287.3985806886745,79.0 286.3129170926503,79.0 285.2272534966264,79.00000000000001 C 284.14158990060236,79.00000000000003 283.0559263045784,79.0 281.97026270855395,79.0 C 280.88459911252994,79.00000000000001 279.798935516506,79.00000000000001 278.71327192048204,79.00000000000001 C 277.627608324458,78.99999999999999 276.5419447284336,79.00000000000001 275.45628113240946,79.0 C 274.3706175363855,79.0 273.2849539403615,79.00000000000001 272.1992903443375,78.99999999999999 C 271.1136267483134,79.00000000000001 270.0279631522891,79.0 268.9422995562651,79.00000000000001 C 267.85663596024114,79.0 266.77097236421724,79.00000000000004 265.6853087681931,79.00000000000001 C 264.59964517216866,79.00000000000001 263.5139815761447,79.00000000000001 262.4283179801207,79.00000000000001 C 261.34265438409676,79.0 260.25699078807264,78.99999999999999 259.17132719204824,79.0 C 258.0856635960243,79.0 257.0,79.0 254.0000000000001,78.00000000000001 " fill="none" stroke="black" /></svg>