<?xml version="1.0" encoding="utf-8" ?>
<svg baseProfile="tiny" height="100%" version="1.2" width="100%" xmlns="http://www.w3.org/2000/svg" xmlns:ev="http://www.w3.org/2001/xml-events" xmlns:xlink="http://www.w3.org/1999/xlink"><defs /><path d="M 316.0000000000001,276.0000000000001 C 316.73615498841474,275.0658281604012 317.82895298516723,274.9919642321732 318.95561129262046,275.0006918558994 C 320.0786676499832,275.00175489107755 321.202092312741,274.98330700399083 322.3179548075414,275.123363519631 C 323.0041544635249,276.0348064232125 323.0666275576106,277.12629143828985 323.93292275623105,277.8923502516196 C 324.0014642328663,278.98909112774965 324.0163560147654,280.11721053660796 323.8733449947151,281.18461493890425 C 323.0233780403515,281.95460179698927 323.0064200963914,283.0705950815447 322.99436620740465,284.190639746037 C 323.01352352447935,285.3091394838944 322.9378366374394,286.4669874208495 323.4046721853953,287.3721087255092 C 324.0084499424787,288.3038172588086 324.31071973597415,289.0399272266229 325.4133143486437,289.3125118584078 C 326.20691346758724,290.0389305396128 327.28464307311066,290.13441979952813 328.0440751730252,291.04556176267494 C 328.9014261068605,291.81538120092347 329.0106913222678,292.8845123414343 329.00037660843924,294.0128092776553 C 328.9948889140982,295.13455172199724 329.03429955807195,296.2734502701506 328.77122448658633,297.2869468149264 C 327.96889097319865,298.0793952201397 328.0227551816057,299.2175746494514 327.94793300222216,300.35569495007155 C 328.3070664708558,301.33448927344546 329.03034019497426,302.1588781656469 329.1078027369201,303.2388613597703 C 330.0018547551375,304.0018376573478 330.7662622225712,304.88934007295313 331.8435766736747,304.98054877879474 C 332.68562142059295,305.6092576882466 333.5476394221565,306.4644237354472 334.0523267840437,307.35008772033507 C 333.98579970495985,308.50490315328847 334.0075429433893,309.6227482539117 333.98346813017,310.73891602019893 C 334.0400203642945,311.8852654730155 333.26281235970896,312.68476197090627 332.95530383385056,313.68637173793365 C 333.0199219850677,314.820684449809 332.97982584259165,315.95523333504985 333.8192748432766,316.7302010181223 C 333.98604165450126,317.7887040783324 334.5595007936215,318.64500977071333 335.42142854557113,319.5211347000652 C 336.3113943367772,320.0170981332998 337.3491622158924,320.2017930060705 338.1202450621578,321.11671865097344 C 338.94794838356614,321.8874197469158 339.0012911547403,322.98438855390253 339.00288514318225,324.10763193604384 C 338.9910573494188,325.2284693769384 339.0470270250738,326.374059807551 338.6960225140683,327.3508542120212 C 337.9469856982971,328.1664970697273 338.02894780646983,329.3123128421822 337.9363040904135,330.45585060246526 C 338.38870584088653,331.3957577019339 339.0328684768618,332.2539717885047 339.1623078811596,333.3078740426103 C 340.0749878396695,334.078512853073 340.8387440760935,334.9358588015563 341.935416873818,334.98815775850227 C 342.7474839260473,335.6928646906135 343.6230673202921,336.52638242265857 344.05029545516464,337.4464401987946 C 343.9875592391161,338.5992576300106 344.0065866740505,339.7182872100577 343.9874183161804,340.8356835006664 C 344.01314309407525,341.9693645856737 343.1902054176488,342.75013532775245 342.96948489485175,343.7868864992459 C 343.0102198527911,344.91713956005583 343.01900472273974,346.03483690215376 343.8830271163024,346.79911667581 C 343.98602664188,347.882927482023 344.64340091475424,348.7064595872366 345.4822426984096,349.6000912296519 C 346.4104827060906,350.0091877785508 347.41442206352957,350.267641475555 348.1985499791829,351.185280588471 C 348.98587678212516,351.964060325049 348.9941163852955,353.08304896749297 349.00491207360017,354.2027957090159 C 348.98743800361274,355.3223616646581 349.05751402879525,356.47375455587013 348.61682767904125,357.4131259714839 C 347.93442528468574,358.25747080942057 348.032709658349,359.40640876984486 347.92870795811837,360.554657589846 C 348.47243805874245,361.4561157466762 349.0281939075865,362.35200722633255 349.2244563150433,363.37384363257223 C 350.14432225824373,364.1584604508495 350.91560821760703,364.972906485556 352.0224421363686,365.00571996914533 C 352.8107478120902,365.77638553285084 353.69506937661765,366.5890265613641 354.04436317186656,367.5447039302959 C 353.99006899494844,368.6933448465605 354.00500652595406,369.81362213424023 353.9939615664164,370.93354725717495 C 353.97477393522774,372.0486452160914 353.1240341627657,372.8182953686662 352.98423834783415,373.8870676488638 C 352.99795616836224,375.01511126593397 353.069965391709,376.1093587090722 353.9372768642999,376.87211636060476 C 353.9949425035529,377.9727953558228 354.72772448223657,378.7692763134522 355.54369572864715,379.6754078135966 C 356.5106157525893,379.9992862764179 357.4776561047809,380.33910482159246 358.27830891348907,381.25130572744985 C 359.01465171288174,382.0451735145053 358.9892204894443,383.1805463249467 359.0064345625128,384.2982166985968 C 358.9844042062779,385.4164019814077 359.06429655501336,386.57190916436883 358.53525409380563,387.4744986452425 C 357.9298738813226,388.35156372744996 358.0338603133487,389.5006172289883 357.9272368848089,390.64975882202606 C 358.5527200535,391.52607458090483 359.0272353548098,392.4299394880846 359.2487254268617,393.55328451094215 C 360.29906227625037,394.0103696019716 361.33704021351855,394.17913459693267 362.07346735238315,395.0984012371273 C 362.8505960226641,395.88530301675695 363.8459355433459,396.67513313083083 363.68469088039717,397.446206116107 C 362.7189296931289,398.31355584200736 361.93160212359066,399.02030910175984 360.7913440736831,398.9886683114497 C 359.6746098088529,399.00662213679243 358.55662657765055,398.98373436624826 357.4004069481267,399.065351909729 C 356.50803985522975,398.5116597806582 355.6210218625211,397.93000571681927 354.47255456459635,398.0330575432329 C 353.32309348546625,397.9306210003966 352.4561487860716,398.55984820076776 351.54285803829856,399.0625010237582 C 350.38773861942923,398.9862287532865 349.27136126275343,399.0025548430211 348.14693744626805,398.9996488903285 C 347.02388190301167,399.00001328129184 345.900673321456,399.00001189163396 344.77745801862596,398.9999944372926 C 343.6542530733439,399.0000017387823 342.5310441570311,398.9999995490135 341.40783638787514,399.00000010109227 C 340.28462833740616,398.9999999807982 339.1614203464608,399.00000000277277 338.0382123450968,398.9999999998455 C 336.9150043449909,398.9999999999254 335.79179634489867,399.0000000000381 334.6685883447383,398.9999999999876 C 333.54538034460546,399.0000000000031 332.42217234446446,398.99999999999903 331.29896434432555,399.00000000000006 C 330.17575634418614,398.9999999999998 329.05254834404684,398.9999999999999 327.9293403439076,398.9999999999999 C 326.8061323437682,398.9999999999999 325.68292434362905,399.0 324.55971634348975,399.00000000000006 C 323.43650834335045,398.99999999999994 322.31330034321104,399.0 321.1900923430717,398.99999999999994 C 320.06688434293244,398.99999999999994 318.9436763427932,398.99999999999994 317.82046834265384,398.99999999999994 C 316.6972603425146,399.0 315.57405234237524,398.9999999999999 314.45084434223594,398.9999999999999 C 313.3276363420967,398.99999999999994 312.2044283419573,398.9999999999999 311.0812203418181,399.0000000000001 C 309.95801234167857,398.99999999999983 308.8348043415393,398.9999999999999 307.7115963414,399.00000000000006 C 306.5883883412611,398.9999999999993 305.4651803411201,399.0000000000032 304.34197234098735,398.9999999999875 C 303.2187643408264,399.00000000003917 302.0955563407378,398.999999999918 300.9723483406104,398.99999999988995 C 299.84914033934916,399.0000000025714 298.7259323480081,398.99999998154243 297.6027242987831,399.00000009886287 C 296.47951652688056,398.9999995533489 295.3563076098973,399.00000174472024 294.23310272222267,398.99999430554146 C 293.1098869451986,399.00001289326616 291.98668129181664,399.00000728422316 290.86361153917557,398.99967685546136 C 289.73924361542635,399.0024492175442 288.62268574747344,398.9865545722739 287.4679905188635,399.0618129751245 C 286.55063603279024,398.5689180096016 285.68739004618374,397.9310023806848 284.53784180564037,398.03296469224205 C 283.3896594996818,397.9301333009637 282.4987246440324,398.5025336819354 281.61027782257617,399.0656386188389 C 280.4538218683756,398.98348277528765 279.3359804050765,399.0067411239882 278.2193773079641,398.9883286981185 C 277.0777180587295,399.0225533323918 276.2883193403129,398.32258776539925 275.32396698034273,397.4534049155887 C 275.1474842425505,396.68269128414744 276.1404967750309,395.89234446194183 276.9200834158239,395.1068209012378 C 277.65499719928243,394.18573386776495 278.6899694633089,394.00975076766326 279.744024713549,393.5620738313999 C 279.97385333164283,392.44073389431156 280.4380585379174,391.53284463833546 281.07259676423115,390.66032780684407 C 280.96614808562026,389.5110113317496 281.07020238594885,388.36216812715253 280.47385833451415,387.48126687650205 C 279.93524385947717,386.5826657797912 280.01587971894696,385.4268393954408 279.99342874829244,384.3088028256211 C 280.0111940085469,383.191285948425 279.9827300702774,382.05444478776445 280.7128023973193,381.25849195950445 C 281.5154338586107,380.3473237392402 282.4782709309042,379.9981624978703 283.4494250532481,379.6834830741564 C 284.2629541545755,378.7763512692014 285.0034105441219,377.9824364489847 285.0573749137691,376.8804909160775 C 285.92373517961676,376.1173352398044 286.00355787781837,375.02607340756964 286.0141509613605,373.89812007328436 C 285.8828317854052,372.8260499082489 285.03019129372325,372.0571315132429 285.00513764283096,370.94446700438675 C 284.99520793175293,369.82417028670756 285.0096189985857,368.7037617485264 284.956484209131,367.55568544706813 C 285.29720184229706,366.59603645234404 286.18212791180355,365.78558970574875 286.96824878683776,365.0083577305483 C 288.0755744073096,364.97638214242795 288.84819827387264,364.1674743233201 289.76823527309864,363.3809965477705 C 289.9726581236333,362.3630025250448 290.5182330004992,361.46278204538214 291.07182260285634,360.5654937286944 C 290.9670239740727,359.4168109855507 291.06645086052606,358.26776176522327 290.39212328264006,357.41995578014445 C 289.94152530774744,356.4847191033169 290.01293377555857,355.33277200044824 289.99489396635863,354.2133585741013 C 290.0065332911464,353.0939073002191 290.01047060461786,351.97281953280253 290.79266676566283,351.19271115935527 C 291.57848252526844,350.27530325044563 292.5784528090629,350.00814821717796 293.51099160140654,349.60863639329716 C 294.34725513812236,348.713340614242 295.01347139332677,347.89312148134366 295.110460019564,346.80699058235564 C 295.9759000676612,346.0433331111932 295.99101261012146,344.9279153259141 296.0288833882784,343.79801638065453 C 295.817474088469,342.7575384818008 294.99052342311126,341.97839543216475 295.01199114275653,340.846470922518 C 294.9935572878341,339.72886324014866 295.01219443265285,338.6096939186735 294.9501908345557,337.4572455720206 C 295.3687685770992,336.53327958228135 296.2455862027134,335.70214347419073 297.05468280268667,334.98957370652727 C 298.15296688797184,334.9404505272553 298.9171544697412,334.0872306457766 299.8311611806734,333.31532171782675 C 299.9673407038981,332.26471134746487 300.6020855026282,331.40247680137634 301.06476288297426,330.4668788634741 C 300.9705151967427,329.3227654428768 301.0548415278032,328.1763994482407 300.3125864161467,327.35782277783954 C 299.95167370269496,326.3851636232956 300.0093610619597,325.2388721935923 299.9968660723431,324.11816204118907 C 299.9996242202607,322.99538354554875 300.0474229259768,321.8957091528212 300.87117738799054,321.1244597717957 C 301.6434865766078,320.20878049347306 302.67771052156024,320.01638842765766 303.57184235276736,319.53002994968614 C 304.4312578224964,318.65177331099113 305.0143217097855,317.7993244932331 305.1732486420605,316.73766084783347 C 306.0164389426598,315.96431539463623 305.9810275397136,314.83130872994167 306.0431954828133,313.69750617798894 C 305.7454999439354,312.69189040886505 304.9624312372534,311.8948055701193 305.01621034269726,310.74959063921733 C 304.99253297403413,309.6333426765349 305.01405107535857,308.5153772464877 304.947670241777,307.36065276374677 C 305.44386142486053,306.47127437451735 306.3075726913516,305.6184939378273 307.1460424353512,304.98096987010126 C 308.2259001612449,304.89492805037173 308.9898324121679,304.0101395531717 309.8865689457831,303.24668023702765 C 309.9689464768649,302.1692354942544 310.68404614861186,301.34134774573283 311.0535091942927,300.3668385017397 C 310.9764394751459,299.2281150683808 311.0340393909341,298.0888361171103 310.2368616549486,297.2941308150726 C 309.9642250396506,296.28462471798065 310.00553499996073,295.14496679799265 309.9993215643505,294.0232955242956 C 309.9904294086628,292.8956213315229 310.09305426890006,291.8232305666467 310.9476907359063,291.0537699530226 C 311.7076344068361,290.1405072122806 312.78265953381714,290.03922587634946 313.57989750622,289.32159238483865 C 314.67807749371946,289.03856964343004 314.9927579718636,288.3163488106861 315.58586671234957,287.37838266550307 C 316.0632755107472,286.4780853955452 315.98607339862986,285.31949580450004 316.0058183079244,284.2012452900592 C 315.99281860465067,283.08141902455907 315.9816541238062,281.96298377019946 315.13782413139376,281.18928076029937 C 314.9744045964638,280.1338189659601 315.0,279.0 316.0000000000001,276.0000000000001 " fill="none" stroke="black" /><path d="M 250.00000000000006,79.00000000000001 C 249.07276234759982,79.71685751254425 248.98982810891533,80.78344227269866 249.00129538131173,81.88912130952805 C 248.9999867187718,82.9895175134582 249.00054732113014,84.09073108176423 248.9948462005284,85.18883575232303 C 249.0305135632675,86.30742990774843 248.80821695751317,87.30005096070497 247.9405659488972,88.06497256153341 C 247.19466595461293,88.91850398361332 246.12299199067775,88.98175696597971 245.31498660076932,89.6218265204943 C 244.43630782247487,90.44657414248073 243.9950068970508,91.33583170430688 243.7448284975545,92.33799022151739 C 242.95691080265559,93.11268444701913 243.02433259540882,94.23400560008186 242.9508691134,95.34766296292348 C 243.27076438151937,96.32198641429311 244.03716735994036,97.10368230962344 243.98462154901932,98.22615064155829 C 244.00705339108094,99.32031900151551 243.9871679138205,100.41671203363806 244.0501553723143,101.54774748779667 C 243.64413940579263,102.45315380929993 242.78226067830772,103.26658200835922 242.00247269246609,103.9995231453474 C 240.92044843503095,104.04074924948225 240.19109746553673,104.90773038716148 239.07310321034677,104.96745183029896 C 238.9980505130689,105.98463176487498 238.9971376253649,107.08451951287081 239.0010046334519,108.19003187204773 C 239.00171907608765,109.29018387627265 238.98931319367816,110.38533653583306 239.04799709451535,111.51522235840466 C 238.66882812177818,112.43441783099885 237.80178843302974,113.23521984557726 237.0303712819139,113.9920431915964 C 235.94189700392198,114.01718530388986 235.18186702834282,114.79559446585189 234.27860488019212,115.57538988529731 C 234.01852170292526,116.54522126856558 233.5783613841235,117.46774024624344 232.92804142066944,118.30148787289292 C 233.03341634011676,119.43129056368245 232.93167941157992,120.5551025840357 233.43675833991998,121.45235735158295 C 234.06462626119713,122.29145264707026 233.9816639299539,123.42619377396522 234.00785733558274,124.52017096608306 C 233.9850897317735,125.6146371314489 234.04914124027087,126.74621723180792 233.48601049531663,127.58460031204551 C 232.65141496405673,128.43712290802074 231.8128463786145,129.02014907847428 230.7598214314165,129.11535417637802 C 230.01251037730043,129.98750136354326 229.12732294126144,130.73479602494666 229.03287774746244,131.7835635017149 C 228.37573240560084,132.6137601013378 227.93555664516967,133.53647737250543 228.03037826038144,134.6583895417776 C 227.939075116844,135.78440423259227 228.63465043137157,136.60057654499488 229.0576207264509,137.52506237559408 C 228.9866215031686,138.65454697925992 229.00571517572212,139.75150912189994 228.99038377424438,140.84724556094693 C 229.0133926238879,141.9593495493534 228.29201687672688,142.73486434991025 227.50654356987025,143.6384449547446 C 226.56902633120936,143.98933369499247 225.63202741059288,144.3523384380873 224.77069991849706,145.01926282659485 C 223.91031202523587,145.2153306259988 224.02438531244402,146.44387009769935 223.99424104886828,147.51089986722153 C 224.00034016022767,148.6194369417515 224.0032595673382,149.72081403886548 223.9895429533576,150.81515073651704 C 224.0209281138894,151.93159118181515 223.31938078879688,152.71575243540735 222.52373524424834,153.60470980764478 C 221.60850766906526,154.01019191569975 220.6200010967957,154.23976661313003 219.84805669780368,155.13611710144428 C 219.035414514238,155.88848117681465 219.0080034091925,156.97404495304838 218.21098651936163,157.74433578295697 C 217.96233092997318,158.74639830350299 218.01626019765664,159.85688678744177 217.9852622939471,160.96623150328207 C 218.7935806145855,161.7334069150763 219.03325697903733,162.7343966541548 218.99429410937552,163.85080020400298 C 219.00140945956687,164.95028943162234 219.0046074878246,166.05308846933164 218.94182835140796,167.12320035452265 C 218.12727195108607,167.87693498389024 217.370602036382,168.7775172195494 216.36651770776075,168.9869409965212 C 215.46956250049084,169.4160693814034 214.64556784566875,170.29194588092503 213.98737996396258,171.09329390417994 C 213.91108086022817,172.16544244304038 213.0549716999745,172.91053110148013 212.9984876297636,173.98878146043086 C 212.9870552424097,175.09355942052264 213.09808016922776,176.15150588437203 213.94316421601272,176.90149484026597 C 214.00232322926215,177.97774325492398 214.0024458385879,179.07908031432558 213.9941728251129,180.17851477667224 C 214.02975722251404,181.29609216084168 213.81455561565195,182.2913604232173 212.94875622458375,183.0567574199203 C 212.20546623026306,183.91986391932264 211.12858705863704,183.96776247165317 210.3669527975899,184.7350680717043 C 209.28888679451194,184.9621827131192 208.95345039139008,185.69331849332127 209.00711167711347,186.85429984554725 C 208.99948187145745,187.94662404523476 209.00018248987305,189.04819807602593 208.99615936759,190.1472695832828 C 209.02586042230175,191.26283501927787 208.83478250205238,192.27043773170365 207.97166702314044,193.03031070265288 C 207.2270560648642,193.8975077840248 206.16414758078565,193.9797046564043 205.34231667624138,194.58499076625773 C 204.47195719105545,195.4196499137502 203.99103138464838,196.29202603444804 203.77746021290216,197.30929284910187 C 202.96860380390854,198.0749418627362 203.0209894842468,199.19168246634595 202.9567190283669,200.3031240033854 C 203.23763246121038,201.2933928993585 204.02598330266628,202.06607069184037 203.9864585765941,203.18319473942398 C 204.00654186291848,204.27796356039286 203.988154252163,205.3749451231348 204.04782926146248,206.50429740976517 C 203.67609852143363,207.42548190075993 202.81030283896396,208.22902881059167 202.04044727116946,208.9908013942134 C 200.95382914050472,209.02136289996085 200.22439040504187,209.88188295260187 199.10551477260086,209.9611486369168 C 198.99127718824838,210.93478389917954 198.99839360693224,212.04366627071985 199.0008831302941,213.14756889707073 C 199.00141287284978,214.24777803467478 198.99039027108128,215.34359831179808 199.04517025596502,216.47155118117317 C 198.70015518740232,217.40647213049115 197.8303350237836,218.19839574914596 197.06701566766134,218.98020334588688 C 195.97835236280835,219.0056629403328 195.2108984354553,219.75895737405475 194.31037502968238,220.5476028739027 C 194.0135126767966,221.50065518731122 193.61498734826964,222.44075499808602 192.93092219003435,223.26007657578597 C 193.03240267140265,224.3896236010217 192.93424868800832,225.511572808346 193.4005767567975,226.4251101150172 C 194.06190558486443,227.2502988443572 193.9816010577519,228.3840148014725 194.00789979256933,229.47772612064935 C 193.98511683045675,230.57246221457925 194.0512518056178,231.7049636103386 193.52066235720102,232.55715902151158 C 192.67854112267395,233.4003518168274 191.8546552768562,234.0189982643958 190.7913197864963,234.09327275160285 C 190.04519138849884,234.95371044178663 189.15186876288269,235.70434090451482 189.03277892584836,236.74087911335445 C 188.41259405568067,237.58686676884673 187.93175412646576,238.4924960470664 188.03201187034318,239.61666491924944 C 187.9345254510469,240.74363478813223 188.5988850806455,241.57321393735003 189.06115088529424,242.48130513526988 C 188.98525957873164,243.61284199138032 189.00634508605356,244.70916667711063 188.98861256047718,245.8041924175443 C 189.02345843699982,246.92209370901455 188.3276126644176,247.70628727718673 187.5338031401582,248.60419875651004 C 186.61382512099007,248.99478317133162 185.65775029506918,249.31534758866408 184.81808265438372,250.02022305177988 C 183.91420557177946,250.1774145711041 184.02455004649158,251.40178004366598 183.99393674194803,252.46829634190397 C 184.00047502983887,253.57731075901688 184.0033626196818,254.67856853115205 183.98819110734675,255.77221767630232 C 184.02967536851844,256.8936486293188 183.35502437582264,257.68749491800133 182.55096427113435,258.5701934159826 C 181.6526188342888,259.0138620289764 180.64866935526163,259.2108251711344 179.884163216484,260.10590098898217 C 179.05136065286166,260.8542799535145 179.01741975125302,261.9353713521636 178.2442610386077,262.7158890896829 C 177.95579622089988,263.7016463380532 178.02013715899932,264.8144063919437 177.97169631051366,265.92922094020196 C 178.76158388077863,266.70449866639945 179.03912130941498,267.68968489131555 178.99258794796864,268.8091364527573 C 179.00249947519777,269.90821149608513 179.00073490176985,271.0089706385466 178.9602653915052,272.0899774298934 C 178.1618521230579,272.84629272764903 177.39949087652667,273.74816865214075 176.41066303797373,273.99082898585635 C 175.49663353801654,274.38180159335997 174.6829863093043,275.264275642917 173.99121236042717,276.0533749390691 C 173.93415942389555,277.13264033909616 173.07970388375364,277.8783954138833 172.9923093411578,278.9448149705099 C 172.99331792200098,280.04950578957755 173.07288209108708,281.1194831917089 173.91947812309667,281.8691226856844 C 174.00734198588202,282.93342476601447 174.00120641153066,284.0370586557044 173.99558275984094,285.1368038547368 C 174.0250583828257,286.2514875571506 173.84086246720904,287.26175409129047 172.9798558178769,288.02181115707833 C 172.23791038714728,288.89910205923985 171.1690089364164,288.96356309774376 170.39478046746896,289.6997869942918 C 169.33293935935905,289.9670432233784 168.94531125824423,290.64194533110623 169.00932242662716,291.8145061175067 C 168.9990009416401,292.9037837850125 169.00001888620426,294.00591266848176 168.99735580845064,295.10557919731883 C 169.02113958865422,296.21822868779856 168.86009900731736,297.24030446269296 168.00346977756882,297.99637262268243 C 167.25870269397325,298.87483298459426 166.20605020672068,298.97914791547686 165.36945879036978,299.5483825101902 C 164.50814841743144,300.3927368187269 163.98790414928098,301.24866623055146 163.808792156765,302.2800373916132 C 162.98252967165456,303.0381507364208 163.0171468239692,304.14913589148296 162.9629232725194,305.2585347178362 C 163.20555446360163,306.26434160041885 164.0126374634358,307.0293650956325 163.9887922096839,308.1400317345617 C 164.00590273679651,309.23563612996037 163.98929833466536,310.3332911884092 164.04473134886277,311.4602022853121 C 163.7078840852662,312.3993145498408 162.83775185430977,313.18899016257836 162.0762493573855,313.97682290950354 C 160.987873210066,314.00306611926254 160.21826321856744,314.74952639671653 159.3186845709748,315.5405297702389 C 159.01218947105903,316.4892229384594 158.62429341139,317.43380194959957 157.93191887439974,318.2495657391106 C 158.03206379768312,319.37892985644123 157.93506005585857,320.50036018712655 158.39135742306712,321.4180990957996 C 159.06096262969393,322.239852996867 158.9816369129539,323.3731755638827 159.0079012957751,324.4668702623668 C 158.98512827756647,325.56156945657244 159.05174374564476,326.6946694439142 158.52865726374225,327.54788766529725 C 157.68763698670287,328.3966824896195 156.86304034367953,329.01241172990825 155.81364827881032,329.1264733992966 C 155.06566725319232,329.9783208570857 153.98369802190206,330.01370014060495 154.01503226726467,331.1496848981121 C 153.9943671632344,332.2274217163512 154.0010738669931,333.33635186968064 154.00270527777278,334.43671429253175 C 153.98663482034763,335.5300532565731 154.05194699528874,336.6632337545344 153.55503022094285,337.52969973050665 C 152.70576182596722,338.36337730723966 151.8957083195666,339.0162707580975 150.82358973896459,339.0729173753339 C 150.07706810209348,339.9191876953976 149.17795887910756,340.6745088531144 149.03128934360132,341.69762792342874 C 148.4497651206916,342.56010843891204 147.92889398479235,343.44885106253463 148.03316421622483,344.57501656518264 C 147.93154747353353,345.70223132606844 148.56272664708175,346.54600778862755 149.06381953595007,347.43790294587245 C 148.98406613079888,348.5710916678233 149.00686166421363,349.66676167072444 148.98725865797255,350.7614213743848 C 149.0317573631702,351.88376376256286 148.36405038869157,352.6803256817568 147.55796333369673,353.561225379406 C 146.66387295943406,354.01470561122403 145.65609766614446,354.20360772790576 144.89333269002208,355.09805119278474 C 144.0557755595848,355.84566098818965 144.01943382346255,356.92528658956405 143.25296710989636,357.70867300385515 C 142.95417144907637,358.69018007743324 143.02105493603256,359.8035523816186 142.96856743874733,360.919585469215 C 143.7532042372535,361.6971605506469 144.04058890063538,362.6782393466366 143.99214917560198,363.79845388533664 C 144.00276880499248,364.89742688793393 143.99981413980302,365.99769739398573 143.9646303973228,367.08108022318 C 143.17019785397918,367.8369413046172 142.4101064462761,368.7494147307806 141.41440504058062,368.9711131730408 C 140.5442952873931,369.4842666227464 139.60326435223513,370.0044580947465 138.9111612035964,370.36232864188133 C 139.0208720840963,371.5860003084954 138.99581408418507,372.65870369653146 138.99994617408333,373.76497055054745 C 139.0021889124025,374.86642721974346 138.99740554079008,375.9650715411322 138.97705747254057,377.0559384990037 C 138.19685626043457,377.8161889671393 137.42791924370937,378.717676363916 136.45501997705256,378.9951061196114 C 135.52385942069662,379.3483008624431 134.72038452743493,380.2362725999044 133.99715081884327,381.01447074394446 C 133.95503425154246,382.0988907748805 133.10635458198433,382.8470878307741 132.98578296141736,383.90056971332774 C 132.9992510428008,385.0057297716568 133.04955082779438,386.0866575896991 133.89395169343757,386.83752055604685 C 134.0128004163568,387.88891283719994 133.99983321198016,388.9951208831371 133.99698996140972,390.09507087898436 C 134.0202306878929,391.2067080917744 133.86624290017144,392.23253022947165 133.0117380362215,392.9877998428351 C 132.2667208958186,393.8687557754402 131.21689729887197,393.97922358277236 130.3763960391696,394.53904540525923 C 129.5175005210201,395.3858324158879 128.98726587686963,396.23763482451596 128.8165955378159,397.272439675916 C 127.98647448917413,398.02887991861166 128.01608109491008,399.1381895628231 127.96455631387742,400.24710325094645 C 128.19751806078563,401.25681275486755 129.00885272705787,402.0201082836934 128.9894733733112,403.12892910958817 C 129.00572471625995,404.2248089799784 128.98957843549172,405.3225325156474 129.0439923718183,406.4492574251893 C 128.7151037630643,407.39040964322356 127.84610654433995,408.1821789950622 127.0865983623315,408.9765390641408 C 125.99759347624962,409.0009626403225 125.26455773099036,409.8464671644451 124.1498172277411,409.95694779829716 C 123.98185194052904,410.87113431703585 124.0002965867757,411.9927019557855 124.00065134522188,413.09413489548 C 124.00103712690563,414.1945164547756 123.99186144317872,415.29121665646886 124.04082171346091,416.41629085404236 C 123.73827576025008,417.3709873824512 122.86682901731086,418.1525512370473 122.11163498389837,418.96234270983734 C 121.0257173381499,418.9943585889593 120.24670823442355,419.7126319496384 119.35170369498424,420.51310327296994 C 119.00697793165592,421.4446434728678 118.66019786134513,422.4065081023844 117.93687398361105,423.20900141193476 C 118.03043287868296,424.3371519246102 117.93876398863071,425.45643659018464 118.3556803440472,426.3906245492633 C 119.0562624641622,427.19952542681045 118.98201207567645,428.3308279468852 119.00779157711602,429.4244094510893 C 118.98550075839923,430.51963277220096 119.05231730731374,431.65235216923713 118.56357274057457,432.52271052376886 C 117.71282086709992,433.35386088403607 116.90609359959302,434.01529574648885 115.83199662924176,434.06798785644446 C 115.08511801922562,434.91023126055603 114.18488315051547,435.6669546644183 114.03071033132778,436.6864612900355 C 113.45932446550286,437.55326246880776 112.92832793414989,438.43772422196685 113.03338188055073,439.5643487204851 C 112.93102273156225,440.6915226430062 113.55341099583205,441.5390502580797 114.0643503543393,442.42684313303164 C 113.98378752730268,443.56036968195247 114.00698952191613,444.65592003006265 113.9869299945827,445.75037569535857 C 114.03373179628407,446.8740968722511 113.3723338269044,447.6708541689611 112.56779172180502,448.5600848066302 C 111.6698449074453,449.00111799062495 110.69053267742954,449.2701372268049 109.87634492686604,450.01851922239354 C 108.9222146091726,450.1332648123777 109.02408491279958,451.34814822138964 108.99368661107114,452.41492211572796 C 109.00064316028873,453.52436936355394 109.00338265839487,454.6254414883137 108.9870064149306,455.7185330052659 C 109.03840346518989,456.84485989005447 108.39970748636593,457.6523692863653 107.5850033735398,458.5259190138486 C 106.7075831425205,459.01750808326113 105.68538615810063,459.17629160129655 104.92872195130032,460.0669948569958 C 104.07422895860199,460.8125892893442 104.02583486936233,461.8853272961491 103.28754172367097,462.6807884867418 C 102.94808979223629,463.6455022839042 103.02433760331685,464.76133752524413 102.95766559461721,465.881447912291 C 103.71989391764919,466.66879629741896 104.04610782766368,467.633662938665 103.99046649824534,468.7568184278522 C 104.00373517563881,469.85524816115463 103.99653059227059,470.9538856512248 103.98102725676253,472.0470917682142 C 103.20581026683959,472.8085740282876 102.43518605297103,473.7096736977537 101.46640424000124,473.9962443486614 C 100.53087528195113,474.3398467493627 99.72995531606077,475.2290334499318 98.99903896809438,476.00467316956696 C 98.96001141323589,477.09007829513837 98.11347620829194,477.8391872650778 97.98406925615865,478.8891899380394 C 98.0007044580621,479.9945594725488 98.04388769121458,481.0781060389875 98.88712862186571,481.82953528447354 C 99.0142555098131,482.8774790912228 98.99945959651816,483.9843841194753 98.99733817745683,485.0843425778391 C 99.01905979056805,486.1954122331898 98.8721221269856,487.22381537833843 98.01996261324751,487.9790275992833 C 97.27758070070448,488.8705102622058 96.22109606364309,488.9611057091651 95.42884613531491,489.65403199261885 C 94.39012267723616,489.97448360801815 93.93562077302731,490.57800147964423 94.0121215981123,491.76453385269843 C 93.99833600629903,492.84990112506 93.99988564321983,493.95283778332373 93.99875463722144,495.05314634447325 C 94.01523424331091,496.1622010934018 93.8900280728497,497.20164953731404 93.04444694540203,497.95483963771596 C 92.29749227431489,498.84410658053645 91.25960751252063,498.9802709003623 90.40338534899499,499.502857130458 C 89.554233692099,500.35884785264227 88.98551638564393,501.19497638560955 88.84607023123863,502.24238643020317 C 88.00338520625412,502.99336976846496 88.01160827471827,504.0953204705473 87.97103603257258,505.20253220425144 C 88.16696571170037,506.2271001892121 88.99261345759035,506.9846163093466 88.99247579538577,508.0854809911018 C 89.00492955603521,509.18254646733493 88.9908499995314,510.2809027022302 89.04022843044785,511.4048619595276 C 88.74570763355247,512.3637329614954 87.87439557906856,513.1432623550143 87.12056118488074,513.9583029779055 C 86.03559483714629,513.9924823483833 85.25393552960735,514.7031539273346 84.36031325545993,515.5061104682875 C 84.00564740407206,516.4332279345351 83.66928692885035,517.3994621560837 82.93842810415819,518.198719935448 C 83.02993540814866,519.3264237664138 82.93984200671856,520.4451346486433 83.3466190962457,521.3835429324171 C 84.05478620186788,522.1893023680132 83.98216656287313,523.3199417466633 84.00775517780347,524.4135551016223 C 83.98558781966193,525.5087765335854 84.05247249611179,526.6418961490527 83.57143958008787,527.5135184389499 C 82.72172248698296,528.3494576845843 81.91507746462946,529.0105208504522 80.85109045019387,529.0922141953068 C 80.11328144539372,529.9562866780062 79.01185078919458,529.9920744525995 79.00999047689376,531.0909350405892 C 78.99511268080308,532.1751673241295 79.00110365285764,533.2832108013115 79.0023716540353,534.3834374621524 C 78.98738109918763,535.477320361792 79.05170435425902,536.6100045302662 78.59729053446841,537.4952052438397 C 77.74029314013447,538.3167464643884 76.94605611454811,539.0103149766695 75.86532483424661,539.0499338972343 C 75.11607036122436,539.8749227515374 74.21277324744108,540.6378202249082 74.0277857081644,541.6426391569778 C 73.496659866885,542.5265771315587 72.92683167445743,543.3945875642601 73.03392702380611,544.5227543595257 C 72.92984968153843,545.6494041652929 73.51696008582232,546.5119540526331 74.0657561750657,547.3839660184218 C 73.98284835192457,548.5185312770851 74.00737322424287,549.6134804466234 73.98602750495276,550.7078353126265 C 74.04003816845218,551.8347190573528 73.40868203796168,552.6452775460573 72.59197693117527,553.5167638654276 C 71.71871374779073,554.0180905384907 70.69298637855796,554.169509710975 69.93768765913917,555.0589174808413 C 69.07926655328082,555.8042477275794 69.02712054892584,556.8749330943026 68.29654903882658,557.67370272395 C 67.94660684331342,558.6340672798824 68.02510266549506,559.7505456107928 67.95519546179565,560.8715351940073 C 68.71120625172036,561.6615851893673 69.04746119335141,562.6222635838593 68.99003949468275,563.7461377619309 C 69.00397552440694,564.8444477067687 68.99575439591166,565.9426637980479 68.98488232010308,567.0380670380005 C 68.21416666000019,567.7991454442899 67.44566203446368,568.7105288955079 66.47043885700107,568.9772890366492 C 65.57613028380715,569.4358307439886 64.664497887632,570.0114690665076 63.90854977250256,570.3063023106893 C 64.02260681175949,571.5348308411338 63.99516892697104,572.604874554542 64.00006598772269,573.7120407939796 C 64.00272635897197,574.8135701085446 63.993916895809356,575.9102090568963 63.99554224974249,577.0119455571086 C 63.24045507387519,577.7771369393394 62.466435377832056,578.6867083280308 61.50364990495305,578.9812441685813 C 60.59550752198946,579.4074668029815 59.699713838973175,580.0146382949893 58.912540495680986,580.2754529355194 C 59.00384246921807,581.499804664373 59.07465442282723,582.5913435939113 58.4441858105586,583.5326085815091 C 58.132535848021405,584.2274240045252 59.02318478069383,585.048019763612 58.98519630792995,586.157744614845 C 59.00525595770575,587.2540038541136 58.99866859305727,588.3566512986786 58.999367088379046,589.456529244285 C 59.00423132450965,590.5601319930693 58.98369714540317,591.6512163801758 59.0543240999546,592.7857604818339 C 58.39723544813034,593.5880080331117 57.873262186693026,594.5497457727603 58.47262323452654,595.475882492773 C 59.070806661351,596.3012883461233 58.9387992451903,597.4661517439704 59.29769363434866,598.3942744743865 C 60.159456315425125,599.1877170600288 60.9217288278343,599.9761981655848 62.010185486149965,600.0025528825149 C 62.78159010077476,600.7473155883594 63.67329523476148,601.540469876758 64.00202756321042,602.4838175641762 C 64.3022916028195,603.448130827443 65.2039720636153,604.2161533472722 65.96701508264513,604.9854644421747 C 67.06542981691149,604.9867869700324 68.1374972360688,605.1004198809013 68.90606877472683,605.9762531704298 C 69.62471886546969,605.3515810855553 70.62261876118274,604.9412780279572 71.74006797039402,605.0113466159883 C 72.83790631646384,604.9982137042857 73.93929957207854,605.0001629337117 75.04020077672826,605.0000245763788 C 76.14112429448866,604.9999808851628 77.24206429255145,605.0000071136573 78.34299592948405,604.9999978690284 C 79.4439303805658,605.0000005637738 80.54486403175038,604.9999998648567 81.64579788643086,605.000000029296 C 82.74673169413185,604.9999999944193 83.84766551157038,605.0000000008545 84.94859932727408,604.9999999999305 C 86.04953314320846,604.9999999999851 87.15046695913605,605.00000000001 88.2514007750543,604.9999999999966 C 89.35233459097701,605.0000000000014 90.45326840689837,605.0 91.55420222282001,605.0000000000002 C 92.65513603874159,605.0 93.75606985466311,605.0000000000002 94.8570036705847,605.0000000000001 C 95.95793748650625,605.0000000000002 97.0588713024279,605.0000000000001 98.15980511834954,605.0000000000002 C 99.26073893427107,605.0000000000002 100.36167275019267,605.0000000000001 101.46260656611419,605.0000000000003 C 102.56354038203574,605.0000000000002 103.66447419795745,605.0000000000001 104.765408013879,605.0000000000002 C 105.8663418298006,605.0000000000001 106.96727564572211,605.0000000000002 108.06820946164366,605.0 C 109.1691432775654,605.0000000000002 110.27007709348695,605.0000000000001 111.37101090940853,605.0000000000001 C 112.47194472533003,605.0000000000002 113.57287854125161,605.0 114.67381235717316,605.0000000000001 C 115.77474617309483,605.0000000000001 116.87567998901645,605.0000000000002 117.97661380493797,605.0000000000001 C 119.0775476208596,605.0000000000001 120.17848143678111,605.0000000000001 121.27941525270268,605.0000000000001 C 122.38034906862437,605.0000000000001 123.4812828845459,605.0000000000001 124.58221670046753,605.0000000000003 C 125.68315051638906,605.0000000000001 126.78408433231058,605.0000000000001 127.88501814823223,605.0000000000001 C 128.98595196415386,605.0000000000002 130.08688578007548,605.0000000000001 131.18781959599698,605.0000000000002 C 132.28875341191855,605.0000000000001 133.3896872278401,605.0000000000002 134.49062104376165,605.0 C 135.59155485968336,605.0 136.69248867560492,605.0000000000002 137.7934224915265,605.0000000000001 C 138.89435630744805,605.0 139.99529012336964,605.0000000000003 141.09622393929118,605.0 C 142.19715775521286,605.0000000000002 143.29809157113442,605.0000000000001 144.39902538705596,605.0000000000001 C 145.49995920297752,605.0000000000002 146.60089301889911,605.0000000000002 147.7018268348207,605.0000000000001 C 148.80276065074233,605.0000000000001 149.9036944666639,605.0000000000002 151.0046282825855,605.0 C 152.10556209850705,605.0 153.20649591442856,605.0000000000001 154.30742973035015,605.0000000000001 C 155.4083635462719,605.0000000000002 156.50929736219345,605.0000000000002 157.61023117811501,605.0000000000001 C 158.71116499403655,605.0000000000001 159.81209880995814,605.0 160.91303262587965,605.0000000000001 C 162.0139664418013,605.0000000000002 163.1149002577229,605.0 164.21583407364446,605.0000000000001 C 165.316767889566,605.0 166.41770170548762,605.0000000000002 167.5186355214092,605.0000000000002 C 168.6195693373309,605.0000000000002 169.7205031532524,605.0000000000002 170.82143696917396,605.0 C 171.92237078509558,605.0000000000002 173.02330460101703,605.0 174.12423841693868,605.0000000000002 C 175.22517223286033,605.0000000000001 176.32610604878192,605.0 177.4270398647035,605.0000000000002 C 178.52797368062505,605.0000000000001 179.62890749654656,605.0000000000001 180.72984131246812,605.0000000000001 C 181.8307751283898,605.0000000000001 182.93170894431134,605.0000000000001 184.03264276023296,605.0 C 185.13357657615455,605.0000000000002 186.23451039207606,605.0000000000001 187.33544420799765,605.0 C 188.43637802391933,605.0000000000002 189.5373118398408,604.9999999999995 190.63824565576272,605.0000000000023 C 191.7391794716829,604.9999999999925 192.84011328760877,605.000000000022 193.94104710352178,604.9999999999635 C 195.04198091943195,604.9999999998846 196.14291473560954,605.0000000016381 197.24384854968292,604.9999999889749 C 198.34478237578875,605.0000000587563 199.4457161431666,604.9999997261414 200.54665016729174,605.000001152725 C 201.64758317284227,604.9999956001672 202.74851980439487,605.0000148925061 203.84944543699953,604.9999588214789 C 204.95039421946504,605.0000613702992 206.05135991399757,605.0002797984126 207.15175114750681,604.9965620940018 C 208.25646411384133,605.0224563431293 209.32869967321133,604.8546789432738 210.0112312849349,603.9609132893077 C 209.9746477337151,602.8499206522142 210.1328486555359,601.8117292436774 210.96910866096994,601.0581271900816 C 210.9961327184128,599.9687704626127 211.0190624480712,598.8632117257084 210.87579526042205,597.8180391109138 C 210.03566893411033,597.0661608928996 210.00202601557737,595.9792981624809 209.99647450014217,594.8798964360396 C 210.0071706049934,593.7808124612583 209.96592221394394,592.6607574636281 210.21172635972118,591.6788924579812 C 211.08135595619413,590.9097430725212 211.8290803030699,590.0675079893149 212.9060563772204,590.0157370039268 C 213.70479242704604,589.3516283418188 214.58890959616798,588.5340457841796 215.00173711743557,587.6324841227904 C 215.2793238911811,586.6417032431973 216.05018111919668,585.8596524506859 215.97357337686077,584.7357158779491 C 216.05304717770952,583.6204087517071 215.70486668825288,582.6577238509379 214.95606203189726,581.8687735979481 C 215.01640873519614,580.7431116426069 214.99266098310807,579.6492560577368 215.01341246371896,578.5531635871748 C 214.94876923883285,577.42164064619 215.37852418688368,576.5250430519394 216.2392307830341,575.7106297758617 C 217.0251195848196,574.9946306249094 218.10953562804886,574.9621347355493 218.86155205560783,574.1514316408313 C 219.7658260196142,573.3833316696754 219.97495336193177,572.3898752163354 220.47585172846348,571.4930938486787 C 221.07349164707068,570.6368980121733 220.9659817648668,569.5078861281291 221.07017506292397,568.3819562130391 C 220.50995276671387,567.5079962646025 219.93393588019322,566.6473228489308 220.0176944412478,565.5123571602071 C 219.99240554925734,564.4177829476735 220.01445044783338,563.3234743498705 219.9561832024049,562.1945790127427 C 220.56526489262887,561.375131374586 221.38811162534864,560.5096987918408 222.24944542272826,559.9806022907243 C 223.28496053521164,559.8494550762765 224.03680560448043,558.9645787296658 224.90557845252624,558.2194341424312 C 224.969937760535,557.1552617163262 225.67727141126866,556.3465391190266 226.0574520198604,555.3987452704233 C 225.9728723270758,554.2804134426242 226.05119646409202,553.1572536420445 225.31406626566329,552.3590148534369 C 224.94882430308758,551.4104395010838 225.01115388393853,550.2845387655037 224.9953957023222,549.1866900109951 C 225.00626629372513,548.0893901444523 225.0045480378681,546.9877772145936 225.7591302079087,546.2206933082954 C 226.53700088604313,545.3219253819426 227.48942512129673,544.9992904155934 228.441800006789,544.6923408950553 C 229.23306610904328,543.7992768765674 229.9921686309258,543.0325811915983 230.0222201476918,541.9447158912157 C 230.85788904957587,541.1909720593122 231.02266796301083,540.1550160193835 230.99395328938772,539.0485126222387 C 230.97676215895362,537.9555798625606 230.14031480085694,537.2009785333652 229.9799550805701,536.1668937174102 C 230.00205846106837,535.0571607846609 230.00131401367744,533.9571858732605 229.98567237003667,532.8489862360573 C 230.10441047593773,531.8061080090599 230.94730191076604,531.0532647555078 231.69490096287223,530.1622848054668 C 232.72965301861424,530.0192936496325 233.58988707986518,529.50610908336 234.43654738872183,528.6479025778028 C 235.0147189142105,527.8155678200562 235.14682695980846,526.7652212564224 235.99201075298453,526.0153256738114 C 235.9895862958485,524.9154209716468 236.02732930229104,523.8085798770927 235.84044905949688,522.7804038206274 C 235.01180586599946,522.0240859734544 235.00668654058796,520.925396410344 234.99529856602288,519.8280101805346 C 235.00875788459828,518.7293622365469 234.96109821297557,517.6068714644362 235.24510180441428,516.6396369670211 C 236.1205291990407,515.8703927526848 236.8764999299461,515.0572519837958 237.94795372191385,514.9955184078781 C 239.05064079574825,514.9985650867291 240.15014684719026,515.0058581555415 241.26624818310043,514.9658231399022 C 242.26915756226393,515.2116791972858 243.03382768566135,516.0133103245915 244.15353238817434,516.0061370458011 C 245.18637923051642,515.8761622007297 245.94162428945873,515.0314581108815 247.03121118391365,515.0030239458185 C 248.12976995482612,514.9970713309679 249.2323222993374,515.0011278761204 250.33266915254617,514.9996567617004 C 251.43377654217542,515.0000917923738 252.53466486906646,514.9999777824594 253.63560949233042,515.0000048690814 C 254.73654098966628,514.9999990579718 255.8374752407645,515.0000001486623 256.93840899191105,514.9999999863152 C 258.03934281249747,514.9999999980067 259.1402766298427,515.0000000015748 260.2412104449016,514.9999999994126 C 261.34214426112777,515.0000000001761 262.4430780769605,514.9999999999536 263.54401189290525,515.0000000000114 C 264.64494570882135,514.9999999999977 265.7458795247441,515.0000000000008 266.84681334066545,515.0 C 267.94774715658707,515.0000000000001 269.0486809725086,515.0000000000001 270.1496147884303,515.0 C 271.2505486043518,515.0000000000001 272.35148242027344,515.0 273.45241623619495,515.0 C 274.5533500521165,515.0 275.654283868038,515.0 276.7552176839597,515.0000000000001 C 277.8561514998813,515.0 278.95708531580283,515.0 280.05801913172445,515.0000000000002 C 281.15895294764607,515.0 282.25988676356764,515.0 283.36082057948926,515.0 C 284.4617543954108,515.0000000000001 285.5626882113324,515.0 286.6636220272539,514.9999999999999 C 287.76455584317546,515.0000000000001 288.86548965909714,515.0000000000001 289.9664234750189,515.0000000000002 C 291.0673572909404,515.0 292.1682911068619,515.0 293.26922492278334,515.0 C 294.37015873870496,515.0 295.47109255462664,515.0000000000001 296.5720263705483,515.0 C 297.6729601864698,515.0 298.77389400239144,515.0000000000001 299.87482781831295,515.0000000000001 C 300.9757616342346,515.0000000000002 302.0766954501561,515.0 303.17762926607776,515.0 C 304.2785630819994,515.0000000000001 305.3794968979208,514.9999999999999 306.48043071384234,515.0000000000001 C 307.5813645297639,515.0 308.6822983456856,515.0000000000002 309.78323216160726,515.0 C 310.8841659775289,515.0 311.98509979345044,515.0000000000001 313.0860336093719,515.0 C 314.18696742529346,515.0000000000002 315.2879012412152,515.0 316.38883505713665,515.0 C 317.4897688730583,515.0000000000001 318.5907026889799,515.0 319.69163650490157,515.0000000000002 C 320.792570320823,515.0 321.8935041367447,515.0000000000001 322.9944379526662,515.0 C 324.09537176858777,514.9999999999999 325.1963055845094,515.0000000000001 326.297239400431,515.0000000000001 C 327.39817321635246,515.0000000000001 328.4991070322742,515.0 329.6000408481957,515.0 C 330.7009746641174,515.0 331.80190848003883,515.0 332.90284229596045,515.0 C 334.003776111882,515.0000000000001 335.1047099278037,515.0 336.20564374372515,515.0 C 337.30657755964677,515.0 338.40751137556856,515.0000000000002 339.50844519148995,515.0000000000001 C 340.6093790074114,515.0 341.71031282333314,515.0000000000001 342.8112466392547,514.9999999999999 C 343.9121804551763,515.0 345.0131142710978,515.0000000000001 346.1140480870195,515.0000000000001 C 347.214981902941,515.0 348.31591571886264,515.0 349.4168495347844,515.0000000000001 C 350.5177833507058,515.0 351.6187171666273,515.0 352.719650982549,515.0000000000001 C 353.82058479847046,515.0 354.92151861439214,515.0 356.0224524303138,515.0000000000001 C 357.12338624623527,515.0000000000001 358.22432006215695,515.0000000000002 359.3252538780783,514.9999999999999 C 360.426187694,515.0000000000001 361.5271215099217,515.0000000000001 362.6280553258432,515.0 C 363.7289891417647,515.0000000000001 364.8299229576865,515.0000000000001 365.93085677360796,515.0000000000002 C 367.03179058952963,515.0 368.13272440545114,515.0000000000001 369.23365822137276,515.0 C 370.3345920372944,515.0000000000001 371.4355258532159,515.0000000000002 372.5364596691374,514.9999999999999 C 373.63739348505857,515.000000000001 374.7383273009819,514.999999999997 375.8392611168987,515.000000000009 C 376.9401949328299,514.9999999999851 378.0411287487636,514.9999999999542 379.1420625644037,515.0000000006597 C 380.2429963823655,514.9999999955465 381.3439301870272,515.0000000237673 382.4448640566729,514.9999998891176 C 383.5457976419826,515.0000004671044 384.64673235625503,514.9999982155525 385.74766304734834,515.0000060473614 C 386.8486059641994,514.9999832375498 387.949523008724,515.0000252719822 389.05042244531717,515.0001114374649 C 390.15195343475045,514.9986147315489 391.24871467828547,515.0090725191957 392.37229881530675,514.952303642296 C 393.337671738717,515.290798297991 394.1212486571137,516.0371541561808 395.2617646442566,516.015833096219 C 396.2571157507717,515.8069483298761 397.025084886251,514.98887574327 398.1346761750648,515.0111418347723 C 399.2305159085336,514.9940995914807 400.3283848320637,515.0105056114073 401.45408633882306,514.9560518451659 C 402.4001149614075,515.286317693787 403.17799920099657,516.1619802182208 403.9675675722111,516.923165996754 C 403.99929731094846,518.0088761724329 404.0028980383227,519.1089422662421 403.99190387530894,520.2077715644932 C 404.0414353362245,521.3284617279978 403.7482713904114,522.3071166270906 402.96680093476357,523.0860795683272 C 403.0215775500843,524.2027916997087 402.9532321409128,525.3165267674146 403.2580920414807,526.2955355901526 C 404.0205397099632,527.0806447896744 404.05841929838385,528.1593546677234 404.89868019338076,528.9065622444745 C 405.6604573950075,529.8005749517279 406.6704516606663,529.9848235341232 407.56203101742653,530.4440342182245 C 408.3693885273468,531.3238776855213 409.03287289610654,532.1220284610981 408.98708283629963,533.2449899800281 C 409.0069315407312,534.3395971984389 408.98390303518903,535.4351769090374 409.0641377547043,536.5685724027034 C 408.557278188309,537.4580632052814 407.9312289720522,538.3040297431984 408.0332954311543,539.431225387329 C 407.92855413024796,540.5576623605123 408.4553571299933,541.4438975107389 409.03095970449436,542.3089019362034 C 409.18199858033677,543.3299153885143 410.0817840377836,544.0860476716497 410.8285026538611,544.9299816865945 C 411.90178996289495,544.9842849490349 412.7099077023425,545.6421945829464 413.5599703659202,546.4743719718649 C 414.05229111609395,547.3431622150601 413.98545424317024,548.4759008414907 414.0078077940809,549.5710774867936 C 413.98195471282594,550.6646601684157 414.0568418222474,551.7962186128816 413.3594508456101,552.6064423282118 C 412.93833142493565,553.5388787970971 413.03062975992464,554.6583992216304 412.9362639062433,555.786718306929 C 413.6564119467429,556.5905747194851 414.0075320684558,557.5506180828361 414.34814741965283,558.4839908844127 C 415.2437040329516,559.283437905232 416.0216391564068,560.0048212297514 417.1079224772025,560.0360221483917 C 417.8637365953808,560.8435971714757 418.73494045234435,561.6259440789121 419.04160603936646,562.5791236412864 C 418.99038746602065,563.7039756561758 419.00523097261265,564.802135112157 418.9913229276752,565.898731939658 C 418.9987777260768,567.0026253717149 418.17789599149876,567.7620570753658 417.96866974552455,568.7813075630462 C 418.01328872635776,569.889098474498 417.99696720620216,570.993872788729 418.83556259680915,571.7466342212563 C 418.98600710669,572.789623230367 419.5408675523482,573.6313531666353 420.3936067565119,574.484063359136 C 421.2440468719956,575.0202408338096 422.28641933812816,575.1467817799399 423.0324975819109,576.0332909069516 C 423.88148056466065,576.7870581042255 424.01720268927085,577.8217074500687 423.9978645918117,578.9315688795955 C 423.99889016047837,580.031559172505 424.0164500722227,581.1395292890253 423.8767889150816,582.1822456930059 C 423.0357212417302,582.9347085308198 423.0028078494012,584.0219989126654 422.9815003880005,585.1277449917366 C 423.1242670749045,586.1724633798445 423.96711519018214,586.9231430109769 424.00213421149476,588.0097478376296 C 424.74416071446694,588.7817742460212 425.5413252463535,589.6726071416975 426.4833410802018,590.002049914433 C 427.4458926246499,590.3023302257317 428.2192302039658,591.2027057214575 428.98677247310326,591.9661781486918 C 428.9954043653468,593.062740293504 429.0040803731261,594.1608304519553 428.98983400690764,595.2590447711203 C 429.04812283448473,596.3832688082404 428.70688030622523,597.3419456751017 427.9541376435155,598.1332611944981 C 428.0248865586352,599.2549411129552 427.94891637059175,600.3702012329434 428.284646637534,601.3366780716937 C 429.04546457539243,602.1225683161117 428.96276769187,603.2507328142714 429.144385281523,604.3189678804908 C 430.0280933413259,605.0072571041208 431.1311353458418,604.9928120689412 432.23061488197055,605.0027766057148 C 433.3320774205284,604.9991538666928 434.43285469204534,605.0002264886781 435.5338295701278,604.9999451360693 C 436.63475362251586,605.0000120345361 437.7356895350652,604.9999976687152 438.8366229569234,605.0000003687848 C 439.93755683166705,604.9999999657455 441.0384906432925,604.9999999951829 442.1394244579464,605.0000000038664 C 443.2403582746437,604.9999999985532 444.3412920902906,605.0000000004343 445.4422259062923,604.9999999998848 C 446.54315972219325,605.0000000000276 447.64409353811965,604.9999999999939 448.7450273540402,605.0000000000013 C 449.84596116996187,604.9999999999998 450.94689498588355,605.0 452.04782880180477,605.0 C 453.1487626177268,605.0 454.24969643364824,604.9999999999999 455.3506302495699,604.9999999999999 C 456.4515640654914,604.9999999999998 457.552497881413,604.9999999999999 458.65343169733455,604.9999999999999 C 459.7543655132562,604.9999999999998 460.85529932917757,604.9999999999999 461.9562331450993,605.0 C 463.0571669610208,605.0 464.15810077694243,605.0 465.2590345928639,604.9999999999999 C 466.3599684087859,605.0 467.4609022247073,605.0 468.5618360406289,604.9999999999999 C 469.6627698565506,604.9999999999999 470.76370367247193,604.9999999999999 471.8646374883936,604.9999999999999 C 472.9655713043152,604.9999999999999 474.0665051202367,604.9999999999999 475.1674389361582,605.0 C 476.2683727520798,604.9999999999999 477.3693065680014,604.9999999999999 478.47024038392306,605.0 C 479.5711741998447,604.9999999999999 480.67210801576624,604.9999999999999 481.7730418316879,605.0 C 482.8739756476093,605.0 483.9749094635308,604.9999999999999 485.0758432794526,605.0 C 486.1767770953743,605.0000000000001 487.2777109112957,605.0000000000001 488.3786447272174,605.0 C 489.4795785431388,604.9999999999999 490.5805123590605,605.0 491.68144617498194,604.9999999999998 C 492.78237999090373,605.0 493.8833138068254,605.0 494.98424762274686,604.9999999999998 C 496.0851814386684,604.9999999999999 497.18611525459,604.9999999999999 498.2870490705116,605.0 C 499.38798288643324,605.0000000000001 500.48891670235463,604.9999999999998 501.58985051827625,605.0 C 502.6907843341979,605.0 503.7917181501194,604.9999999999999 504.8926519660411,605.0000000000001 C 505.9935857819628,605.0 507.0945195978843,604.9999999999999 508.19545341380586,604.9999999999997 C 509.2963872297276,605.0 510.3973210456489,604.9999999999997 511.4982548615707,605.0 C 512.5991886774921,605.0 513.7001224934136,604.9999999999998 514.8010563093353,605.0 C 515.9019901252568,605.0 517.0029239411784,605.0 518.1038577571002,605.0 C 519.2047915730217,604.9999999999999 520.3057253889432,604.9999999999999 521.4066592048648,605.0 C 522.5075930207865,605.0 523.6085268367082,604.9999999999999 524.7094606526297,605.0000000000001 C 525.8103944685511,604.9999999999999 526.9113282844728,604.9999999999999 528.0122621003941,604.9999999999999 C 529.1131959163158,604.9999999999998 530.2141297322376,605.0 531.3150635481592,605.0 C 532.4159973640807,604.9999999999999 533.5169311800025,605.0 534.6178649959237,604.9999999999999 C 535.7187988118454,604.9999999999999 536.819732627767,604.9999999999999 537.9206664436884,604.9999999999999 C 539.0216002596102,605.0 540.1225340755316,605.0 541.2234678914532,604.9999999999999 C 542.3244017073747,605.0 543.4253355232963,604.9999999999999 544.5262693392184,605.0000000000001 C 545.6272031551398,605.0 546.7281369710615,605.0 547.829070786983,605.0 C 548.9300046029044,604.9999999999998 550.0309384188258,604.9999999999997 551.1318722347468,605.0000000000038 C 552.2328060506753,604.9999999999736 553.333739866557,605.0000000001426 554.4346736826707,604.9999999993269 C 555.5356074977587,605.0000000028631 556.6365413169605,604.999999988948 557.7374751213226,605.000000037991 C 558.8384089717233,604.9999998917086 559.9393427187,605.0000001842147 561.0402764503413,605.0000005417855 C 562.1412122605851,604.9999920806263 563.2421315704993,605.0000536241492 564.3431455725499,604.9997134246307 C 565.4436964133466,605.0013382437189 566.5462755125955,604.9943579267701 567.6407946832007,605.0215728487627 C 568.764066244475,604.9268022157423 569.6418460503522,605.7104238377148 570.3386344961345,605.7441107684571 C 571.201822636927,604.9244275845998 572.3440024099608,605.0558084604735 573.3184632067574,604.779465394776 C 574.0900272750678,603.9200358227583 574.9323767700777,603.1719090682424 574.9842169631277,602.0945340948058 C 575.6475593640713,601.2940621517417 576.4668390583374,600.4174183215548 577.364483017052,599.9867136010504 C 578.3703248636684,599.7794485746155 579.124190715563,598.8776669683515 579.9371386841483,598.1228743001257 C 580.0094730533469,597.0574912242807 580.0199208708542,595.9614697422891 580.8340587380269,595.2151524108335 C 581.0704579462191,594.1536965537699 580.2858967692463,593.343959937613 579.9538926506893,592.3985822343284 C 580.0090533478093,591.2713861490205 579.998601851083,590.1755020394284 579.9999938292815,589.0737349388539 C 579.9997528813392,587.9728444860908 580.0051519441018,586.8731780364293 579.963291312688,585.7625494426574 C 580.2306437326898,584.7257755299728 580.9996267287572,583.9898238397541 580.1994664475283,583.250592267609 C 579.9744786992705,582.1969607606555 579.9921307450369,581.1068754104703 579.9967091143469,579.9975971415105 C 578.8996976809894,579.9630361430592 578.1594970271159,579.1016258322426 577.0995429703753,579.0113429537492 C 576.2879757701368,578.3628765824692 575.440459857769,577.5232115451327 574.9478588619401,576.657010116297 C 575.0133249920098,575.523366284092 574.9973255720179,574.4300885438896 574.9989212762947,573.3297183021092 C 575.0055545431455,572.2208840985202 574.9855308386162,571.142426464411 575.0130711097612,570.0106851075568 C 573.9282561264189,569.9758153851504 573.1817566860038,569.1220226364577 572.1303920094481,569.0123283176061 C 571.308123551893,568.3908030440497 570.4659614613777,567.5435979509643 569.9480741809411,566.6881285019751 C 570.0148343287382,565.5549717331752 569.9921069986377,564.4602153135489 570.0183285842242,563.3665444220508 C 569.9396658175615,562.2334844453179 570.6142681163557,561.4138050592051 571.0644148026417,560.4934917879401 C 570.9681593906569,559.37238594948 571.0674176264447,558.2431586659868 570.3700334665868,557.429540851839 C 569.9886245036004,556.4822302328375 569.6762005048896,555.5362124143754 568.7772476646793,554.7437516693598 C 568.0062672240176,554.0015510341722 566.9181370794338,553.9746880070152 566.1577161100196,553.1832524556692 C 565.2873158504632,552.3948995158421 564.955787223727,551.453316536788 565.0105162799654,550.3267508969959 C 564.9942078810998,549.2290057865938 565.010794927949,548.1332434666068 564.9896595327274,547.0236954380911 C 565.7993705136889,546.2597408224539 566.0360795729202,545.2515423524204 565.9835011256206,544.1424424347346 C 566.0150759831633,543.0324721539849 565.1864232200812,542.2753951010546 565.0124949078454,541.2419143799768 C 564.4861341071676,540.3885139591393 563.6262984577988,539.5426691344121 562.7873179229176,538.9791836597757 C 561.7363990279085,538.8711312675808 560.9914767830103,537.9911222972595 560.1360488780375,537.2355303246798 C 559.9796023698586,536.2112336435334 560.0024623527252,535.0990391055395 560.0000022115264,533.9992855588954 C 560.0010787979543,532.8970621197295 559.990327940842,531.8082697231104 560.0559366684888,530.6339217142458 C 559.660028471145,529.9679004876925 558.6009166222071,529.6941572609978 557.8245659505858,528.9630926652263 C 556.7570741153194,528.8956828887623 556.0152031442578,528.0164004649322 555.1551245886282,527.2570661031223 C 554.975687847483,526.2444895599414 555.0041963591652,525.1302604067189 554.9990000208079,524.0304770925063 C 554.9918279066599,522.9264568353941 555.0844063882935,521.8641180829924 555.9309032720121,521.1143907724208 C 556.0057269312255,520.042621931337 556.0086942139201,518.9378942376826 555.9162401022464,517.8734334057746 C 555.0624177067326,517.1274128073908 555.00800133143,516.0472051714472 554.3111458951279,515.2599083421417 C 553.4991089736129,514.3764955180461 552.5823939873434,513.9914790060618 551.5960195666421,513.7434599109231 C 550.8326902606684,512.841539604188 550.0369947330435,512.0846965031255 549.9998318140393,511.002074036553 C 549.9973381045511,509.9016071427609 550.0076792430262,508.8026057975497 549.9599793018556,507.68268202988884 C 550.2435333090016,506.7000073298749 551.0302340610393,505.9233342340075 550.9792977713752,504.807765762058 C 551.0452004218447,503.69463237660284 550.7504218219701,502.711471784619 549.981329612769,501.929210855695 C 549.9459543684455,500.8490010055426 549.1102234578959,500.101104716023 548.3467927429642,499.2064009419027 C 547.3404905115137,499.0143821900222 546.4447789656754,498.5647199956803 545.6393903603921,497.6830899324097 C 544.9691011522694,496.8876259526 545.0119870786828,495.7655025324255 544.9966284969341,494.6719409925176 C 544.9995037272045,493.57070453147674 545.0061029601288,492.46162529828877 544.9754655277558,491.3951340255406 C 545.0849904109823,490.17168576251754 544.1745616784609,490.0201971917878 543.3381897344113,489.3096220603908 C 542.3791636892201,488.995612589674 541.4619410700565,488.5987560415608 540.6668032720427,487.7018382588289 C 539.9751184428618,486.91617414399747 540.0116296142394,485.79745968030045 539.9935654838382,484.70252398275534 C 540.0149397563887,483.6062983136799 539.9383703992331,482.47447502419845 540.4067622015324,481.5689391585234 C 541.0660423354682,480.7371832214528 540.9677755836287,479.61013019850486 541.0687598732036,478.4856287740133 C 540.5815939766486,477.5826638991655 539.9673683066767,476.7341322910457 539.8441399458118,475.69962362073676 C 538.9497587095273,474.94834326770126 538.203672675633,474.0899644849311 537.1388556003195,474.0186798506436 C 536.3171945755466,473.39456428676635 535.4739415907126,472.5528597323025 534.9485221031061,471.6984433275951 C 535.014855710172,470.56585974851765 534.9921038233879,469.47107112311767 535.0183785263166,468.37738918504317 C 534.9386591306016,467.2439036809874 535.6050653669142,466.4208235554758 536.0652620960802,465.50471682526415 C 535.9678007628988,464.3830833376879 536.068481076884,463.25364221428566 535.379315945085,462.4365039879415 C 534.9872955176121,461.4936625973584 534.6845496676634,460.5432741659485 533.7845939500322,459.75319060322965 C 533.015832872796,459.0040570045513 531.927331152031,458.97815276133207 531.1651504587103,458.19264553113123 C 530.2950092866461,457.4020679925093 529.9553273680176,456.46467668679145 530.0094323817384,455.33705784062016 C 529.9986348398327,454.2411296363737 529.9991408053004,453.14090541519226 530.0013891000203,452.03728317187336 C 530.0098494050579,450.9268956599306 529.8891667467121,449.9604080026366 528.7704986603757,449.87763561285567 C 528.0408230602667,449.0185700383811 526.9536999703788,448.98921909886155 526.1852654306442,448.22315834934903 C 525.3189610336555,447.4211251357458 524.9525973489486,446.49745387756525 525.0116784283746,445.368400511173 C 524.9935494455951,444.2713257639612 525.0132092297561,443.176440731423 524.9759631397172,442.06025402547624 C 525.7674706548214,441.28886944646644 526.0423285196341,440.2961343101676 525.9795799745647,439.1850267209311 C 526.029363470688,438.06910860407265 525.2175370600319,437.3047442630652 525.0095205246048,436.2851952047731 C 524.5224021583251,435.4154309772996 523.6534144081681,434.57923258680563 522.8293317813745,433.9795241603307 C 521.7679182247969,433.8940566967025 521.0233886137213,433.0249376044742 520.161311355651,432.2657886810433 C 519.9745356431081,431.255747570886 520.0045476802139,430.1409847704418 519.9986649305852,429.04123637265207 C 519.9931796814583,427.937845547235 520.0780789349543,426.87231030417274 520.9246907245081,426.1227061878519 C 521.0072927264364,425.05387980108367 521.0070579277826,423.949205304356 520.9228467723598,422.88155627409554 C 520.0680418351193,422.1359471135634 520.0092599729493,421.0573050244524 519.3207386155084,420.26704391503864 C 518.5060703782576,419.3851809622321 517.5937363797518,418.99041957003243 516.6033952372552,418.75115192524356 C 515.8415646141215,417.849305343478 515.0414278562863,417.09330105058905 514.9989271219149,416.0133601258434 C 514.9984223932231,414.9126313976435 515.0001307414886,413.8113015311717 515.0035776754671,412.7058689233681 C 514.9809805736153,411.6304083839322 515.0847463122363,410.41338344946263 514.4502320889101,409.9973749088119 C 513.4836902603757,409.5267253310716 512.6342440216686,408.9665840107968 511.62158385396896,408.7818800576571 C 510.86782028212195,407.8707624163418 510.05531594019294,407.1176500848372 509.99601669004846,406.0461848406143 C 509.998410485131,404.9437047725264 510.00597478380297,403.8442604040481 509.96581097554616,402.7273831379548 C 510.21136060585417,401.72884181429146 511.0170108894478,400.96049042688844 510.983100724579,399.85021045548825 C 511.03871130730164,398.7393803073255 510.78387226779813,397.7398424413265 509.9903506388523,396.9680535030469 C 509.96222202761555,395.8830560980682 509.14624938501095,395.13142062362977 508.3755304878116,394.2351469169985 C 507.3845661546859,394.01080545511894 506.47194495845474,393.5993332737839 505.6751225807104,392.71132770203076 C 504.9775261038229,391.92567852852414 505.01120023457315,390.8085473534248 504.9937224597321,389.7133577843254 C 505.0146090746605,388.61700309224886 504.93916476076083,387.48564413221186 505.39753421863577,386.57593073493314 C 506.06509409044975,385.7477225976615 505.9681291984181,384.6208147254572 506.06790749849785,383.4968602836908 C 505.5910919282131,382.58953681115395 504.96714536416624,381.74515539029375 504.8506451803635,380.70734366991854 C 503.9580251642135,379.9571087254526 503.21185190652886,379.0953958224583 502.1494693551034,379.0191788930124 C 501.3242070998473,378.4040353958651 500.4826265976317,377.55984917424837 499.9491597928189,376.7091668445842 C 500.0137508620321,375.5763359998424 499.99704231462124,374.4833285563993 499.9989931201435,373.3828103649918 C 500.00606606286436,372.27339984946894 499.98152345523084,371.2000199113914 500.0367817203369,370.037276928921 C 498.9780706341015,369.99382996298397 498.2180008957183,369.1589853668025 497.18354210060244,369.01189945528523 C 496.34200648836224,368.4377426196345 495.5093705936482,367.57800036985105 494.95031804017674,366.7401456114599 C 495.0149605541947,365.60791492357424 494.99211916253927,364.51354124627153 495.0183694506502,363.41958261930705 C 494.93570200830703,362.28496018435726 495.56893470590063,361.4480933351095 496.06798326369136,360.5483008150858 C 495.9667102249083,359.4247615825324 496.0716097828738,358.29495302437374 495.41586555316564,357.46352188415693 C 494.9822421263437,356.5382389068584 494.7164847314222,355.5710111441817 493.8135460477226,354.7898676964935 C 493.0524566385421,354.0152341490468 491.963812360178,353.9903297284307 491.1937280771119,353.2294210355729 C 490.3263702274163,352.4300968756262 489.9520347936266,351.5082925201825 490.0119219799079,350.3791780730246 C 489.9934073693385,349.2821629451431 490.01374505143065,348.1874826670821 489.9728086569105,347.06977487522926 C 490.75911399647157,346.29625936308815 491.04388120698843,345.3075609563302 490.97865534490234,344.19590526360656 C 491.03265822222517,343.07865747135224 490.2257326061427,342.3121735582212 490.0086072570667,341.2963685246772 C 489.531617592701,340.4223287273123 488.6603946106628,339.5886490959884 487.8399844775181,338.9798387641639 C 486.77613417099354,338.899674634372 486.03145966466604,338.0337302863682 485.16780683706827,337.2734089513507 C 484.9736729971906,336.2672739213819 485.00396258549637,335.15141830618154 484.9997986628291,334.0524094020092 C 485.000473172109,332.9508858180321 484.993105495003,331.858264477374 485.0457264005724,330.6984471816409 C 484.71541839296845,329.96176301556994 483.6358560783123,329.73851705481235 482.87538193413604,328.96829928176396 C 481.7978081771545,328.92182969380264 481.05430203929393,328.06027560121424 480.1881289544948,327.2942813551544 C 479.9697830357377,326.30052892412186 480.00596708247264,325.1826654835521 479.9974380297305,324.0832678471834 C 479.9981474013748,322.9821425437721 480.05458402673463,321.90476190207465 480.89931465477775,321.15465209591525 C 481.01358165527654,320.0979579386213 481.0009212365189,318.99314073458606 480.9473793183126,317.91377813097984 C 480.09133115160375,317.16865863786967 480.01289471974974,316.0973195455793 479.35815452095926,315.29468454526426 C 478.5331260921996,314.4195190484262 477.63786208169637,313.98658275412424 476.632299361076,313.78037222773827 C 475.87614727530206,312.8800177172164 475.0600963852147,312.1264656715956 474.99498486916144,311.05749192010876 C 474.998704132263,309.9544741400614 475.005536585765,308.8549494870653 474.9673360299379,307.7388512265562 C 475.2032978088786,306.73631111992074 476.01326573279647,305.9698641979121 475.9841515605228,304.8611285977219 C 476.0370045578589,303.7508538351844 475.7922621401357,302.7471952205889 474.99307531773536,301.9778343736542 C 474.966059236875,300.8919378314881 474.1555644890055,300.13909123472354 473.38282841253755,299.24271421381377 C 472.39589705982445,299.00979761319064 471.47898434672567,298.6081068081036 470.68416789009984,297.7185822064176 C 469.9800343645382,296.93532295135276 470.0103014549877,295.81943511472247 469.9967552700797,294.72501735847396 C 469.99967308457315,293.62363016915407 470.0057241287452,292.5151462210418 469.9756549693964,291.4480334191293 C 470.08996290505013,290.2192311515222 469.23405667713445,290.0190675220539 468.3705193795556,289.356061603072 C 467.4354388605518,288.9887813785159 466.49618259066114,288.64180787799313 465.71152323320905,287.7377296380656 C 464.9877053962147,286.9630101812758 465.00941787982987,285.8515426608532 464.99435312377733,284.7557220520682 C 465.0132350845284,283.65869641103905 464.9427729123989,282.52943585475646 465.361816122663,281.60331131391615 C 466.0603813580362,280.78842592490565 465.96981063642284,279.6625485142196 466.0640181004933,278.54087178846993 C 465.62791416441127,277.61644732332326 464.9671969614613,276.78777787966027 464.875032317462,275.7378642343185 C 463.9907893239228,274.99082156516204 463.2432741956796,274.1176431951037 462.1913536239312,274.0201848166854 C 461.35128010270205,273.4407681545965 460.5174598031847,272.58733537906363 459.9511344486877,271.750291627474 C 460.01489839196586,270.61884231352485 459.99215304626415,269.52439635631526 460.0183122859283,268.43038579301015 C 459.9351833117751,267.29558308620636 460.5596242802302,266.4550626093255 461.06852150182414,265.5594162055107 C 460.9665095576796,264.43543499539186 461.0721607469897,263.30564450716844 460.4253089782484,262.47041626459867 C 459.9809984468273,261.54965270730605 459.72449898108164,260.5781745132829 458.8210512718442,259.79922617268835 C 458.06167400379775,259.0184513410301 456.9733338235595,258.99310259306833 456.2010314467841,258.23889790107535 C 455.3343348482115,257.4371875672122 454.95175663935726,256.51955242692907 455.0107882928484,255.38949431862127 C 454.9982504489102,254.29440574023022 454.9989860945003,253.19425594423103 455.00297542970725,252.0885997745292 C 455.001318260858,250.9895459781798 454.9299757662734,249.96823554068916 453.8122850008356,249.9101818427725 C 453.08280813331993,249.0428238675214 452.0013703116249,249.00025955465162 451.2205112656579,248.2703289299775 C 450.35908296402306,247.45589901112356 449.94965272513485,246.5520532882042 450.01292206551466,245.42087290956408 C 449.99290234194603,244.32453741094622 450.0155354279827,243.23041603943307 449.9618326815489,242.1074740566714 C 450.7258851268786,241.32481012540538 451.0496892626765,240.352091850576 450.97536187268156,239.23820775324705 C 451.0441358835579,238.11649146136187 450.2584851028405,237.34081912300664 450.00455922769737,236.3402130784933 C 449.56720833886857,235.44925765090773 448.6877449204431,234.62550159726666 447.88106221688025,233.98205125282018 C 446.80858988574323,233.92049395964617 446.06248109263163,233.06845397893574 445.1946371839168,232.30303248222583 C 444.96869025964304,231.31172512034175 445.0063123653955,230.19339138620057 444.99714667601177,229.09404991004908 C 444.9993325448659,227.9934593988117 445.0488768776685,226.9132134695328 445.89252834919967,226.1627206115634 C 446.01523047278033,225.10929411920304 445.999421543655,224.00435035654573 445.95333755152325,222.9221808661429 C 445.09763446132933,222.17690096581563 445.0135176251699,221.10772699230463 444.3677349277299,220.30172461178452 C 443.5400482224868,219.42843300813465 442.6491207329108,218.9856867602833 441.63982025601547,218.78767423785052 C 440.88490024315604,217.88797542553743 440.0650329693037,217.13481439572163 439.99404948267136,216.06887616767537 C 439.99930434040687,214.96533108209186 440.0001745004135,213.86426313818754 440.002857456167,212.75979400506472 C 439.9833935728488,211.68081680007222 440.0783249415739,210.473670723875 439.51086498700045,209.98872419253132 C 438.51597632439433,209.5749833583508 437.6891896550914,208.9628216113558 436.6585500107895,208.81700872662967 C 435.91058891693945,207.91035077301606 435.0805036729561,207.15830257670336 434.9906822874563,206.10188831911648 C 434.99989528144704,204.99646669398285 435.00385517963554,203.8966490391643 434.9733357068853,202.78361479386476 C 435.1726356024089,201.76577225842118 435.99721318869786,201.00581420445428 435.98854633308775,199.90387952900778 C 436.0302377347888,198.79559236598888 435.82419385041266,197.7762222271942 435.0054114543647,197.01525567281325 C 434.97968354608963,195.92720561878974 434.1921714308181,195.16865004672053 433.4110296597245,194.27295517956284 C 432.4402424908896,194.00562042469744 431.5064145557054,193.64180229398482 430.71978853808815,192.74719619417476 C 429.99066286551306,191.97233406466395 430.00851682418323,190.86258255654343 429.9969534695277,189.76721677059558 C 429.99980223143217,188.66574979036892 430.00533398797256,187.55784834551076 429.9762809917639,186.4896071704391 C 430.0916617892913,185.25960143123618 429.28215332380876,185.0162173071001 428.39599907182026,184.39379902501776 C 427.48030609294716,183.98322346951142 426.5237151054642,183.67508653453035 425.74701932544497,182.7667383074305 C 424.99973827228354,181.9992784598296 425.00719467795005,180.8948259710835 424.99509464785115,179.79801649986953 C 425.0117282790833,178.70036141748835 424.9471019138909,177.57352311948097 425.3266476184985,176.6309147553334 C 426.0539652710656,175.82843211950558 425.9719713622641,174.70439098362954 426.05932589446627,173.58515310733497 C 425.6642529555931,172.6435677993209 424.9688814549446,171.82972403925652 424.89776685436937,170.7690740723038 C 424.0244141546151,170.02370853706228 423.2739917788821,169.14151295050945 422.2338882765771,169.0198264264803 C 421.3783204644159,168.4771963210155 420.5524975207366,167.61486295739113 419.9546014417401,166.7908751204621 C 420.0146231704359,165.66115710102164 419.99231842281483,164.56683875248328 420.01790981783245,163.47243240798866 C 419.9340289844364,162.33739099929014 420.5231857365744,161.48218852784768 421.0699425994309,160.60252706578882 C 420.96603378604397,159.47704299434608 421.07339046160195,158.34771870624158 420.4623614552643,157.49721973862452 C 419.976451785305,156.59407802947592 419.75504897402647,155.60635517423597 418.85067322122785,154.83551550915726 C 418.0969852086603,154.03232796740028 417.0111475095622,154.00251232366236 416.229158942768,153.27593221265803 C 415.36652294073957,152.46490724401775 414.9496749759037,151.56285502897964 415.01173956254104,150.43129323399077 C 414.997947555692,149.33681738332015 414.9989192398448,148.2366584596257 415.0039959294883,147.1297153109987 C 414.99546039007805,146.03837061098966 414.95933941635883,144.9777907864934 413.846983774038,144.9335134285825 C 413.1148897889484,144.06504569089083 412.0405949721626,144.00635566287363 411.24818100123304,143.30801529832013 C 410.3918321769598,142.48340025269195 409.94816236065486,141.59508907323305 410.0137339042293,140.4627056476109 C 409.9925237901726,139.36692894343665 410.01686463547844,138.27315994599758 409.9528778605563,137.1460196670568 C 410.69175882803904,136.3529695487156 411.0550113307106,135.39650928469732 410.9725659698078,134.28031921680642 C 411.05352025285873,133.1552103829115 410.2923632797761,132.3689815532628 409.9999052115473,131.38439399831765 C 409.602148019594,130.47626374660516 408.71535205307526,129.66247826424126 407.921285932964,128.98597147766665 C 406.84186591667344,128.93953627707953 406.0928707160577,128.10380108180414 405.2224678613243,127.33216536840881 C 404.9642675892286,126.35617505864262 405.00769166785085,125.23508139029165 404.9960865484668,124.13617068882859 C 405.00356660193853,123.0374383467336 405.0279137650112,121.94672525687871 405.8650264404462,121.19375098917888 C 406.02174875238376,120.15363246708661 405.99388945981553,119.04786216158816 405.97521565082985,117.95554826652943 C 405.12344829893493,117.2085273027227 405.01484615704214,116.14886279021924 404.4050243837418,115.32904000761337 C 403.56700184265185,114.46358897603163 402.69283692074106,113.98263796712635 401.669374737634,113.81531152322923 C 400.91886367010216,112.91945457009705 400.08561523444513,112.16702558254636 399.98976192741713,111.1132659396711 C 400.00015653194384,110.00720077327578 400.0001688774839,108.9064424570169 400.0022818442415,107.8027234667322 C 399.9854792146981,106.72075419639337 400.0721094866245,105.52289192957225 399.5584789671393,104.98178533270456 C 398.5420299382685,104.61296414599498 397.7322982602823,103.96119543687992 396.6886232192579,103.84334641506507 C 395.9440189483993,102.94264923127922 395.1022788591828,102.1898650035293 394.9861289927741,101.1463910878039 C 395.0011764659523,100.03836836149205 395.00222730868296,98.93840566530206 394.9793253628627,97.82836544602633 C 395.14333601195943,96.79580102440543 395.9788417833555,96.0407700638937 395.9934101347009,94.9469074864935 C 396.0233930696042,93.84025514784587 395.8547381686446,92.80584857970472 395.0204696053259,92.05150645400072 C 394.99109278157755,90.96350659634581 394.22913006258455,90.19767419908837 393.4388696211939,89.30427926225484 C 392.48470166821494,89.00118446158062 391.5340842836255,88.6746578265727 390.7553085983593,87.77618238042416 C 390.0031089029716,87.00844477935124 390.0063206001654,85.90591731426072 389.99715501787483,84.80955652921385 C 390.00046058729424,83.70676759746557 390.0022003906725,82.60608656920817 389.9891386348746,81.50658692290432 C 390.04389277003315,80.3991439219236 389.63346318409316,79.38244862549973 388.62198618765257,78.95596294013612 C 387.5144571560946,79.01118693738937 386.41516748352865,78.99741996248456 385.3138617591282,79.0005340794367 C 384.2130030535773,78.9999051546012 383.1120564230545,79.00001245563932 382.0111241294306,78.99999970892314 C 380.9101903415052,78.99999947450057 379.8092564335818,79.00000024486297 378.7083226564905,78.99999991972574 C 377.6073888282954,79.00000002249453 376.50645501573644,78.99999999433727 375.4055211989841,79.00000000129411 C 374.3045873832489,78.99999999973521 373.2036535672899,79.00000000004613 372.10271975137476,78.99999999999423 C 371.0017859354523,79.00000000000004 369.90085211953055,79.00000000000026 368.7999183036093,78.9999999999999 C 367.6989844876875,79.00000000000004 366.598050671766,78.99999999999996 365.4971168558445,79.00000000000001 C 364.3961830399226,78.99999999999996 363.2952492240014,79.0 362.1943154080798,79.00000000000003 C 361.0933815921579,78.99999999999999 359.99244777623676,79.00000000000001 358.891513960315,79.0 C 357.7905801443932,79.0 356.68964632847184,78.99999999999999 355.5887125125501,79.00000000000001 C 354.48777869662837,78.99999999999999 353.386844880707,78.99999999999997 352.28591106478547,79.0 C 351.1849772488637,78.99999999999997 350.0840434329424,79.0 348.98310961702083,79.00000000000001 C 347.882175801099,78.99999999999996 346.7812419851777,79.00000000000001 345.68030816925597,79.0 C 344.57937435333423,78.99999999999999 343.47844053741284,79.0 342.3775067214911,78.99999999999997 C 341.27657290556976,79.00000000000001 340.1756390896481,79.00000000000001 339.07470527372635,79.0 C 337.97377145780507,79.00000000000001 336.8728376418834,79.00000000000003 335.7719038259617,79.0 C 334.67097001004015,79.0 333.5700361941186,79.0 332.4691023781969,78.99999999999997 C 331.36816856227534,79.00000000000001 330.26723474635384,79.00000000000003 329.166300930432,78.99999999999999 C 328.0653671145108,79.00000000000003 326.9644332985889,78.99999999999999 325.8634994826674,78.99999999999999 C 324.762565666746,79.00000000000001 323.6616318508243,79.0 322.56069803490277,78.99999999999999 C 321.4597642189813,79.00000000000003 320.35883040305947,78.99999999999996 319.25789658713825,79.0 C 318.1569627712164,79.00000000000001 317.05602895529466,79.0 315.95509513937304,79.0 C 314.8541613234517,79.0 313.7532275075299,79.0 312.6522936916085,79.0 C 311.551359875687,79.00000000000001 310.4504260597652,79.0 309.3494922438438,79.0 C 308.2485584279223,79.00000000000001 307.1476246120005,78.99999999999999 306.0466907960793,79.00000000000001 C 304.94575698015734,79.0 303.8448231642357,79.0 302.7438893483144,79.00000000000001 C 301.64295553239265,79.00000000000001 300.5420217164711,79.0 299.44108790054963,79.00000000000001 C 298.3401540846279,79.00000000000001 297.23922026870616,79.00000000000001 296.13828645278494,79.00000000000001 C 295.0373526368631,79.0 293.9364188209416,78.99999999999999 292.83548500502013,79.0 C 291.7345511890983,79.0 290.6336173731767,79.0 289.53268355725527,79.0 C 288.43174974133353,79.0 287.330815925412,79.0 286.2298821094906,79.00000000000001 C 285.12894829356884,78.99999999999997 284.02801447764756,79.0 282.92708066172577,79.0 C 281.8261468458042,79.0 280.72521302988275,79.0 279.62427921396113,79.00000000000001 C 278.52334539803917,79.0 277.4224115821178,79.00000000000001 276.3214777661962,79.00000000000001 C 275.2205439502745,78.99999999999997 274.11961013435314,79.00000000000001 273.0186763184315,79.00000000000001 C 271.9177425025098,78.99999999999999 270.81680868658856,79.00000000000003 269.7158748706667,79.0 C 268.61494105474526,79.0 267.51400723882375,79.00000000000003 266.41307342290185,78.99999999999999 C 265.31213960698045,79.0 264.2112057910588,79.00000000000001 263.11027197513715,79.0 C 262.0093381592158,79.0 260.9084043432941,79.00000000000001 259.8074705273724,79.0 C 258.7065367114509,78.99999999999999 257.6056028955295,79.00000000000001 256.5046690796077,79.0 C 255.40373526368631,78.99999999999999 254.30280144776475,79.00000000000003 253.20186763184284,79.0 C 252.10093381592142,79.0 251.0,79.0 250.00000000000006,79.00000000000001 " fill="none" stroke="black" /></svg>