<?xml version="1.0" encoding="utf-8" ?>
<svg baseProfile="tiny" height="100%" version="1.2" width="100%" xmlns="http://www.w3.org/2000/svg" xmlns:ev="http://www.w3.org/2001/xml-events" xmlns:xlink="http://www.w3.org/1999/xlink"><defs /><path d="M 190.00000000000006,165.00000000000003 C 190.73477550386895,164.11221922014283 191.90061193400962,163.9618776452492 192.73206117919065,164.70195824071124 C 193.63545403206572,165.52544389544863 194.04741085912053,166.4893543814796 193.9907516980048,167.66642065741894 C 194.00098054038256,168.81276589722347 194.00028825236825,169.96345871777723 194.00506038317684,171.10912797580875 C 193.95197965295284,172.3172473465226 194.34888958431395,173.04544185851978 195.45965909551177,173.27247894453933 C 196.2391148305387,174.227466941602 197.0117209800322,175.03439029598772 196.98876660949273,176.1965962272484 C 197.004436815021,177.33967175160925 196.99577423365892,178.49448130670913 197.01334170125324,179.63782060754468 C 196.95980291838933,180.81112755123695 197.59827742970927,181.69551506329603 198.52032172886487,182.4722112837019 C 199.2572589625663,183.29682860607352 200.15019099292022,184.11125845374428 201.0017459360829,184.9274468024161 C 200.2527854797021,185.6992516120954 199.96754529679285,186.76947407397552 200.00122785852943,187.93084689819375 C 199.99361645364485,189.08353262119377 200.09144789043117,190.19253857563402 200.97303491974492,190.97875278990747 C 201.8137309651048,191.7871383528041 202.54585823662208,192.60410037571648 203.58389335627572,193.42674387282312 C 203.8658024318429,194.21353635955344 202.97410881363928,195.05791822968905 203.01565316095662,196.2210826088051 C 203.00416471748127,197.3610730563324 202.95467679726883,198.53742447114732 203.3731065591444,199.51171511882657 C 204.31991501598202,200.27624668946913 205.08684433665613,201.1009076238414 205.88948441288738,201.9129074032849 C 206.91419388387703,202.73732398739284 206.50368080854648,203.50155610353193 205.92986511543901,204.48239111467586 C 206.01073402687558,205.65813320602064 206.0083677243285,206.79863522001602 205.98796023175493,207.95955820573894 C 206.735273844615,208.798985468986 207.63093036985748,209.58723559508127 208.35884665262594,210.40955147104327 C 209.3116707379318,211.22689333286547 209.99106021875983,212.03401791113205 209.12582403192403,212.82288060615934 C 208.99226042440267,213.93667956361995 208.99964939331093,215.0882363124575 208.97785472891636,216.2508182055172 C 209.1806992027295,217.31521832750138 210.104939502416,218.08565776071768 210.91562823571618,218.90272858910447 C 211.6635642895121,219.71687090765704 212.72489930824693,220.5416238957584 212.74826345813338,221.31722591076797 C 211.9349780182037,222.20727282947692 212.0178193791651,223.38263155612324 212.00767655221512,224.52013612840256 C 211.9527231183222,225.6981457426767 212.50038268850616,226.6190453969855 213.43756808478037,227.38914266569975 C 214.1849648486649,228.21446638182735 215.03612252256823,229.027363107042 215.9796949095488,229.8481836417722 C 215.35588300247622,230.61364251309047 214.94906009635204,231.64811040069074 215.00498876557464,232.81510135322338 C 215.00200749567065,233.96356067291345 215.03491965005932,235.1124674006425 215.8562067906533,235.96128045171758 C 217.00194415796813,236.00036395663787 217.90774188900104,236.7468266909097 218.00279161664716,237.88745519267354 C 217.99016392599844,239.0376011317703 217.22221811527237,239.90023953076428 216.06263109699168,240.03147350527246 C 215.25453877784418,239.1857383436735 214.1949106412075,238.97749586699638 213.03379308466182,239.00095978955756 C 211.883114305402,239.00067050953706 210.73273510894643,238.9996995355934 209.5817592432507,239.00008626906623 C 208.43099985715162,238.9999804080924 207.28018380019643,239.00000350037558 206.12937960635458,238.99999959841153 C 204.97857352763998,238.99999998543305 203.82776760225195,239.0000000235634 202.67696170769474,238.9999999915388 C 201.52615579437366,239.00000000221107 200.3753498869178,238.9999999995371 199.2245439780511,239.00000000007347 C 198.07373806945486,238.9999999999942 196.922932160822,238.9999999999988 195.77212625219008,239.00000000000074 C 194.62132034355946,238.99999999999972 193.4705144349283,239.00000000000003 192.31970852629738,238.99999999999994 C 191.16890261766636,238.9999999999999 190.01809670903543,239.0 188.86729080040442,238.99999999999991 C 187.7164848917737,239.0000000000005 186.56567898314137,238.99999999999733 185.41487307451675,239.00000000001185 C 184.26406716586257,238.99999999995902 183.11326125728905,239.00000000008978 181.9624553486823,239.000000000145 C 180.81164943860597,238.99999999685602 179.66084354097296,239.00000002188182 178.51003757415302,238.99999988947405 C 177.35923191048622,239.00000044688468 176.20842520143748,238.999998625552 175.05762073540942,239.00000190816235 C 173.90682036758284,239.00001451613804 172.7559390415173,238.9998429054646 171.6056184178596,239.00094716049017 C 170.45246487279977,238.9956051666767 169.3107541340849,239.01630102095274 168.1340924868165,238.9574668700824 C 167.31156159797436,239.72464635494944 166.27680693514264,240.0795579020702 165.2351288865237,239.46217669626418 C 164.9802246739867,238.38620668371914 164.96780693851593,237.22388703176833 165.54312009224623,236.20670169900967 C 166.66223751432364,236.0129602790406 167.70315021313033,235.55932934203796 168.036688984097,234.45479374076578 C 167.99820845025206,233.2997719856476 167.98718441263105,232.15453029369797 167.99998557511992,230.99997170774276 C 167.0945753243613,230.17153475573204 167.4777537332373,229.37991543110863 168.4997263667641,228.55837024119506 C 169.2283954432573,227.74013532849972 170.08209533184078,226.93611116920388 170.93909579291056,226.1403816836084 C 171.0010934629122,225.01594404380597 170.99701636363324,223.86690985166553 171.0429126920372,222.70154059802337 C 170.69054523799497,221.6511814424196 170.0076602275805,220.88340264177742 170.91399274304734,220.0644394503778 C 171.7831982862653,219.25094089242384 172.52546224421272,218.42583763828367 173.45688954174688,217.65297980074587 C 174.04495319800765,216.74867963317672 173.99148004649305,215.57168097405128 173.9827154492917,214.43431834853862 C 174.0711638061354,213.2571576102215 173.29440179184004,212.35095154451605 173.23383546904967,211.57843470524972 C 174.2966414761847,210.75329541738208 175.05203423260005,209.9398745033204 175.85377036708147,209.12068163073104 C 176.78672774638005,208.35319758729872 177.02739419290424,207.30471935596816 177.00001766463788,206.1389914181699 C 177.00109726444737,204.9902731060133 176.90999439565496,203.86450439981525 176.02292071031735,203.06780440580263 C 176.63617017944756,202.2642043377661 177.6075446877198,201.44583546029452 178.33425419004942,200.62444339578767 C 179.22004857746396,199.83228008624772 179.9982525441945,199.0052871810919 179.9929222816986,197.85121470833798 C 179.99124934579686,196.70913152240317 180.065083543923,195.53535000506707 179.54423739497665,194.53716697985564 C 179.06061778824827,193.77326827900174 180.0646549241,192.94969575732662 180.8815808863135,192.13758228037477 C 181.6416632075128,191.3124540012096 182.58688149625272,190.5466999023848 183.04727095333817,189.5897921935174 C 182.99462774907786,188.41220849955326 182.98292392771728,187.2733570861048 183.04211733579436,186.10507780606923 C 182.16924467860682,185.24685338097322 182.36880241649152,184.463858356623 183.41706138609158,183.64041997989355 C 184.1532150215849,182.82441605763356 184.98382854626024,182.01289653393658 185.88132110323744,181.2330606966557 C 186.01213782005345,180.13715042739202 186.00040832283645,178.98141765694427 185.99807368585982,177.82953343163916 C 186.009417135198,176.68429284011867 185.95217374493228,175.5050628997809 186.3593848840318,174.5495821887154 C 187.2374656256319,173.68727498217783 188.09983010352641,172.9920626506305 189.08105721827286,172.8414972709576 C 188.97574366198688,171.57704895426684 189.00568893355614,170.45855657573733 188.99891196582496,169.30043773456967 C 189.00021699903675,168.15104006930275 189.0,167.0 190.00000000000006,165.00000000000003 " fill="none" stroke="black" /><path d="M 150.00000000000009,47.00000000000002 C 149.0695253436741,47.72900430835477 148.99034308654967,48.81062547589502 149.00216992169925,49.929943841206736 C 149.00384756343848,51.04505827287857 148.94030779339144,52.133158806483834 148.11489293019264,52.90568036564442 C 147.3216524633985,53.691528140453535 146.44087224169766,54.441119699788864 145.9490234854973,55.35180156538575 C 146.01314945143176,56.49280863716173 145.99609527077612,57.60005864751237 146.00417287836967,58.71820783438771 C 145.98958657133744,59.82543147444149 146.01560145353423,60.95277219121433 145.28168470587397,61.73724786478933 C 144.51640261980648,62.660185950862704 143.4856087945783,62.97123894476664 142.92349576704223,63.49236220823903 C 143.01874923280548,64.70655392741214 142.98662642211795,65.79590151236681 143.0215873529509,66.92666010326367 C 142.31716539219755,67.74886002593954 141.48366236806672,68.51829218071137 140.63942862317143,69.28324610031541 C 139.9693095120333,70.11958068396106 140.00951790183322,71.2527814578701 140.01114537049017,72.35588749812257 C 139.9319018131422,73.49490799063453 140.44930404497342,74.45799793671536 140.95761276681242,75.19672007270549 C 140.00877508686258,75.99330755360639 139.18965571877735,76.78017573559067 138.4688878641116,77.57966981496362 C 137.56764487786594,78.32813537149825 136.95980974546615,79.18881348334612 137.0130972880391,80.32562704726706 C 136.99565249046134,81.43264030495742 137.0045482614945,82.55114918370299 136.9857275429007,83.65629195814883 C 137.04528728988407,84.8002958147138 136.42176986032572,85.62562652881013 135.62026249625094,86.52085991630136 C 134.67768047894083,86.99579509846357 133.90889470542368,87.3092574745113 134.02552760013532,88.5466892215632 C 133.98161152371145,89.62510293110851 134.0468017002377,90.77030602339819 133.4578649614933,91.63979464969009 C 132.59531994275972,92.39734554537723 131.7815140387274,93.17476674516477 131.01090626426094,93.96991636635484 C 131.00476589667122,95.08226550700167 131.0048399083676,96.19089007553181 130.95362596098866,97.32180737156384 C 131.29705103926497,98.3385560766753 132.00028522052946,99.08243316816107 131.17190824798374,99.87306615887363 C 130.2937476463603,100.66222127129303 129.58595933995014,101.4600306940858 128.71030618497753,102.21981336455634 C 127.9895935556349,103.03409533566266 128.0089976053846,104.1566700998766 127.99618080398666,105.26565900851027 C 128.0038474398551,106.38356366143837 127.98654137288462,107.48947369137612 128.05321314495407,108.63700520907602 C 127.55937683093153,109.51715436935369 126.7217141376716,110.37273694885228 125.86721818231393,111.00824317693262 C 124.91941917438743,111.15317253712564 125.02679711969704,112.38142544450923 124.98150913100102,113.45681946593076 C 125.05209703563041,114.60565527264377 124.59330390594683,115.5285505317851 123.70877856468222,116.27720030609218 C 122.92126968518772,117.06528069303032 122.08028039965565,117.8313567475017 121.99203185434513,118.9092277949428 C 121.99940188168164,120.02669820544679 122.00163930617454,121.14213191998907 121.99250006000128,122.25208121367933 C 122.03936827354798,123.38976751732427 121.74235784845867,124.35991774001862 120.87248868100589,125.15723268077222 C 120.110510741058,125.97398936642473 119.00028934602253,125.99977091146117 119.01397474428667,127.12845140079614 C 118.98822229301149,128.21968052011786 119.03679628458757,129.35914297051858 118.76945491491742,130.3611564782988 C 117.88002456571886,131.10769734057783 117.10919029547205,131.90274328224464 116.21915263091729,132.64894510887447 C 115.96797342693517,133.6578911173442 116.00113869513316,134.79019917592228 116.00930326638664,135.89804733565842 C 116.00709197572439,137.01349673329503 116.89321755308909,137.8148702144901 116.57672932910508,138.5787770075437 C 115.56640820715339,139.37568947246137 114.85539752524079,140.16584288714125 114.05724816340306,140.9538368032742 C 113.16780499867694,141.70125222319191 112.9749720804859,142.73478665442417 113.00364039504085,143.86126406258546 C 112.99970117808311,144.97400442443745 112.9976365375963,146.0873949854434 113.0211292176637,147.21347692071913 C 112.85209500588704,148.24483162458893 111.98722531899176,149.0143859877145 111.25332756136342,149.90654513892875 C 110.11344671252607,149.95414844159316 109.99145544690424,150.9376168230474 109.99646238619589,152.0582100582481 C 110.01850256146619,153.18403004495474 109.87289034762456,154.23685145909857 109.0078013840666,154.9933425165677 C 108.23029351089366,155.78567026097141 107.33765237862089,156.5307992408042 106.95425206414814,157.48501675389772 C 107.00484256266837,158.6251370287854 107.01698522482852,159.72785484177436 106.9488813260627,160.86224173933138 C 107.7775671492717,161.706820858994 107.72439484338899,162.4588112947121 106.691069180169,163.25787909042265 C 105.96076326569671,164.04536249040459 105.19098004935523,164.84042617748352 104.27695220521959,165.57964979194 C 103.95921456777185,166.56094097857545 104.00840723704636,167.6960451427928 103.99787020759659,168.80595714861724 C 104.00166499264985,169.92215042948462 104.00318439446362,171.03733415195885 103.94143843103652,172.12116843710027 C 103.11410413197461,172.88349735542957 102.37898000984393,173.80972293715863 101.26527909514368,173.94811143058143 C 100.95981545450458,174.73661393688582 101.00656971600787,175.89968024765452 101.00075712161738,177.0086319808831 C 100.95540378400588,178.10398914941595 100.14398766930356,178.88242860746772 99.34592431640567,179.6663548392297 C 98.46858313793877,180.41774745954748 97.95064183172737,181.31655231111915 98.00849604494434,182.4589455899264 C 98.01708914247013,183.55981386012635 97.9258439109777,184.70149004883217 98.63738417811493,185.59720484452362 C 98.84889123861014,186.3400442119511 97.826088945244,187.13955044604108 97.06395170372767,187.92572924876958 C 96.31896146433544,188.7245221001134 95.40103026051572,189.46413474328244 94.95096231433672,190.39024864646686 C 95.01216274897904,191.5303941746999 94.99643282395888,192.63810906146762 95.00387644113685,193.75599615261754 C 94.99129032185908,194.86420107094844 95.00517926257966,195.9855181608395 94.2501093147883,196.76335268007594 C 93.49204099679042,197.689900920778 92.44301560453714,197.9656397566303 91.92918398805755,198.53643191340845 C 92.01670294716483,199.7423660477139 91.98853619922247,200.83496960276858 92.01248458792384,201.9607241053373 C 91.28498784633899,202.77348491290363 90.45836865224798,203.54573284517107 89.60734484933437,204.30790509592896 C 88.9634633112226,205.1549991718062 89.00979075942429,206.29112110803297 89.01252796790905,207.39343801316662 C 88.9286390946569,208.53369037132688 89.48451459350125,209.48425824518077 89.94180384847294,210.22297986252525 C 88.97343929426175,211.02045105215856 88.16634356702977,211.8070010159582 87.44171990710532,212.6066304165326 C 86.53595737763504,213.35293618290237 85.95615056093057,214.22520148797796 86.01334732336339,215.36365874932963 C 85.99569221632247,216.47057796901814 86.00456729859867,217.5890879980562 85.98613280719812,218.69441702523494 C 86.04069276330702,219.83593801404865 85.39003080989089,220.65054242448542 84.59708346774008,221.55345725814522 C 83.63388535133065,221.99071329793492 82.91039141451782,222.34883610969325 83.02438399777475,223.58331097597522 C 82.98228726316155,224.66362315724422 83.04304259267813,225.8065763179802 82.42625821376461,226.6646527894485 C 81.56991245865571,227.42474010694608 80.74933745327552,228.19938748077405 79.99903708418266,229.0028587187556 C 80.00641832357164,230.12115983179277 80.00621464974294,231.22824092334747 79.9479234652466,232.3612919683191 C 80.33080434931297,233.36621713506688 80.99471800668177,234.10812234969862 80.13410547528463,234.90040028534483 C 79.26989762732434,235.68893214110628 78.55978287642664,236.48725697210998 77.67765176964721,237.24428321648307 C 76.98071454830351,238.0682913329882 77.01040135272369,239.19518645770478 76.99595157383965,240.30348167729798 C 77.00408441590135,241.42160715066 76.9860344604582,242.52714603560761 77.05299106732609,243.6748203500138 C 76.52865665666164,244.54165514749604 75.69868036822989,245.40677011761827 74.82511744614835,246.00731193269033 C 73.91426810083988,246.18559188281833 74.0271215867243,247.41953302326067 73.98114520796992,248.49475536753457 C 74.05233935672402,249.6436013567788 73.56325507017236,250.5540735936752 72.68284167586407,251.30431245270506 C 71.8899608902298,252.09030994490848 71.06196812057021,252.86194329448534 70.9961077550904,253.9485710349494 C 71.00106213656932,255.063736213121 70.97435361089298,256.1867441013123 71.18809939943245,257.2413175882836 C 71.99921920924292,257.9959757585669 71.30242590507768,258.77970170347743 70.3765856764948,259.5712701370557 C 69.67367787106109,260.36690761221416 68.82203164962185,261.13640494970775 68.03032194125144,261.9218961450159 C 68.00176522958431,263.02432489084794 67.99751408566289,264.13693799233675 68.00277464391088,265.25373479528866 C 67.98930468902279,266.36154555659823 68.0484896942368,267.5053541657474 67.66077489447983,268.43327940794615 C 66.80140464379673,269.2562176675555 66.00394103649627,269.99941558672185 64.95164441397823,270.0584645898616 C 65.02242443290024,271.24805018039245 64.98424479114625,272.32852891327303 65.04632713117991,273.47413051237584 C 64.69143471415386,274.43988868215666 63.79944224410808,275.1853857105983 63.02462269689687,275.97879093056514 C 62.14958508158925,276.73114286102833 61.97957099701566,277.7739028286513 61.99978384781144,278.89943684101445 C 61.998586119742264,280.0124960318099 62.06824569774206,281.10779567893286 62.95065095114966,281.8866234935543 C 62.46999455990326,282.6588587802621 61.488379506424614,283.4537625166483 60.78393238977031,284.2460881822139 C 59.965015230628666,285.0275304882597 59.10557524612314,285.7862384204925 58.986671041728314,286.8507537717906 C 59.000681283742985,287.9710640349565 59.000984833493256,289.08565211680207 58.994252900275434,290.19677304273876 C 59.03360416363909,291.33072845826257 58.78117356272496,292.32200376467404 57.9098292399777,293.108178076315 C 57.160683171719214,293.95500489876673 56.0331972685881,293.9790389303307 56.007801255189165,295.0658804381923 C 55.99072077018926,296.1651064740937 56.03095816716432,297.30049507541446 55.806253444300935,298.32023941146576 C 54.92200010362288,299.0688957087763 54.15062310618181,299.8637241260947 53.25728792123574,300.60857275464355 C 52.962627416031296,301.59948204196314 53.002245698938324,302.7348462906026 53.0129092598773,303.84060620192315 C 52.98303812871312,304.96389763550184 53.857837510906634,305.7786398833577 53.62839677346575,306.5383756189632 C 52.607250908997365,307.33615679272555 51.89107393131613,308.125304527478 51.102845417319415,308.9160493180328 C 50.20255181969989,309.6596149883592 49.96920890102927,310.6761908619141 50.00525798256544,311.8057715470135 C 49.99906097649609,312.91753905311845 49.99918850159964,314.03198594856104 50.0147499951329,315.15413222457227 C 49.88464070077624,316.20441677651775 49.02850709433613,316.9690094946641 48.29722409824774,317.8769806138678 C 47.16077079757024,317.94850087463703 46.98138452388344,318.87073229442154 46.99970790259764,320.00465072963004 C 47.01218471579579,321.1250263365377 46.90316755920536,322.1932671381752 46.052731028135774,322.9557495654918 C 45.2696330583949,323.74579345640893 44.38047657997741,324.49234830615677 43.95159759368626,325.4278100576821 C 44.00619011545617,326.56946097963464 44.01772069575308,327.67119069405834 43.9376831825512,328.8091796898103 C 44.73262484239619,329.6702610020788 44.76921787946949,330.41875632284484 43.735171676096364,331.2182004781295 C 42.99562999446014,332.00506249337536 42.234586768381156,332.80174467053587 41.317169875051846,333.54025495429914 C 40.955310544993964,334.5031265214181 41.00985905543458,335.64048026251584 40.99732840231772,336.74954554880964 C 41.00259892711692,337.86643117957954 40.99834024755472,338.97875323785496 40.96596434756376,340.0771070024374 C 40.15903170712473,340.8421092172066 39.41813677837239,341.7717208958438 38.322729306157186,341.95216680895663 C 37.948875441654884,342.66869282166346 38.01009267710525,343.8468450391547 37.99593281415136,344.9500469472484 C 37.97763654443682,346.0571123553776 37.19107390139121,346.84569594049265 36.383763991777144,347.6259820292635 C 35.515079584335645,348.38044163118167 34.95190904855498,349.26163022526714 35.01363269404901,350.4016056169997 C 34.9966172230782,351.5089966289 35.000801561379006,352.625077678993 34.99962812649113,353.73926274979823 C 35.000647517033066,354.85339035220306 34.99936444494462,355.9683227712945 34.992726726915286,357.0854831818319 C 35.07613263339934,358.1654639101526 35.91447062949362,358.93269099432536 36.73123635203571,359.7071356208467 C 37.493860807111766,360.5127094049627 38.2995686533133,361.2749361129237 39.07331811553619,362.0933244516982 C 39.84198738687503,362.9282232436786 40.92413186870499,363.00638767811904 42.04085637630638,363.00080489260296 C 43.15587889759239,362.9993444157835 44.26992923971811,363.0002386127775 45.38447567079999,362.9999312538012 C 46.49885972070417,363.0000171913717 47.61328791584517,362.99999620664124 48.727705583482,363.00000072013074 C 49.842125455806524,362.9999998937401 50.956544940193105,363.0000000069577 52.07096447316198,363.00000000250566 C 53.18538400590625,362.99999999859773 54.299803536263596,363.0000000004716 55.414223067643,362.99999999986954 C 56.528642598707066,363.00000000003166 57.64306212985367,362.99999999999324 58.75748166098124,363.00000000000125 C 59.87190119211272,362.99999999999983 60.98632072324351,363.0 62.10074025437435,362.99999999999994 C 63.21515978550522,362.99999999999994 64.32957931663609,363.0 65.44399884776693,363.0 C 66.55841837889788,363.00000000000006 67.67283791002868,362.99999999999994 68.78725744115953,363.00000000000006 C 69.90167697229045,362.9999999999999 71.01609650342131,363.0000000000001 72.13051603455219,362.99999999999994 C 73.24493556568301,362.99999999999994 74.35935509681387,363.0 75.4737746279448,363.0 C 76.58819415907567,363.00000000000006 77.70261369020645,362.9999999999999 78.81703322133737,363.00000000000006 C 79.9314527524682,362.9999999999999 81.0458722835991,363.00000000000006 82.16029181472999,362.99999999999994 C 83.27471134586078,362.99999999999994 84.38913087699167,363.0000000000001 85.50355040812258,363.0 C 86.61796993925346,363.00000000000006 87.7323894703843,363.00000000000006 88.84680900151515,363.0 C 89.96122853264603,363.0 91.07564806377694,362.99999999999994 92.19006759490776,363.00000000000006 C 93.30448712603861,362.9999999999999 94.4189066571695,363.00000000000006 95.53332618830034,363.0 C 96.64774571943124,363.0 97.76216525056212,362.99999999999994 98.87658478169293,363.0 C 99.9910043128238,363.00000000000006 101.10542384395472,363.0 102.21984337508559,363.0000000000001 C 103.3342629062164,362.9999999999999 104.4486824373473,363.00000000000017 105.56310196847808,362.9999999999994 C 106.67752149960927,363.0000000000023 107.79194103073911,362.99999999999307 108.90636056187246,363.00000000001444 C 110.02078009300345,363.0000000000147 111.13519962408378,362.9999999995923 112.24961915562098,363.00000000299434 C 113.36403868443814,362.9999999836207 114.47845822662683,363.0000000762119 115.59287771134696,362.99999968760005 C 116.70729741346341,363.0000011193165 117.82171642025816,362.9999967288827 118.93613699435114,363.00000546193775 C 120.05055820678334,363.0000195400104 121.16494354417826,362.9997332249478 122.27960615783228,363.0017686324818 C 123.3927140722849,362.9907860474991 124.51318096555987,363.04142254043614 125.56015327864708,362.68733403728805 C 126.04322097633231,361.68229964533487 125.9884514543714,360.5613591397357 126.00248466765498,359.4485226293137 C 126.00040071803801,358.3342151355921 125.99700575330885,357.21819352393214 126.00695384356463,356.10792598262265 C 126.00285408214927,354.99180531523217 126.76041260470251,354.1911522884618 127.5778516856505,353.4154699304473 C 128.43791926527044,352.6568536333272 129.0428595810437,351.79382370573893 128.9902256844969,350.6545520795352 C 128.98567035335898,349.5530667620132 129.0745126889928,348.41158214051643 128.46553334543813,347.4788498058953 C 128.08418465116515,346.7394910670674 129.07554630683725,345.9410444695703 129.86673815988584,345.1547913286877 C 130.597142024462,344.35521201968237 131.50905292021284,343.61143824570274 132.04636388197346,342.72257952122123 C 131.99134867427756,341.58132029813976 131.9835794304022,340.48026507214433 132.07551436159116,339.3382804317093 C 131.3986229991427,338.42955678439057 131.1255812483806,337.6882586103458 132.13971826279237,336.8889816292059 C 132.91147280384894,336.10286387985656 133.65090941436696,335.303681794866 134.5680062950874,334.5627638736529 C 135.04802960294197,333.650298184892 134.9925462872279,332.50830299927645 134.98237234803258,331.40719880303266 C 135.07197519788602,330.26620634180483 134.33360860444395,329.38098529018805 134.17340034167032,328.63667641155376 C 135.20144243562657,327.8370777889708 135.95626964022722,327.05077428515125 136.7056571392458,326.2525069483272 C 137.62506023845899,325.5133483706786 138.04689051076667,324.57681395513305 137.9940887119301,323.4355742255197 C 137.98217019376332,322.33379663209195 138.06314420414125,321.1955720503851 137.27146327807725,320.3329851593199 C 137.2269528664352,319.5847847716756 138.26086278387262,318.78531700613894 139.00129349007278,317.99850128595347 C 139.76158064825913,317.2016912633498 140.6791976832832,316.4632160725016 141.04497434100443,315.5019445680451 C 140.99006704368801,314.3645533734104 141.00255747250645,313.25507977900963 140.99774469277372,312.1394733421283 C 141.00169632396185,311.0256036033629 141.02655216472724,309.91422650507604 141.79900744606516,309.07364006812986 C 142.90273476608976,308.99236762913824 144.0180278908075,308.9996745052235 145.1325481581573,309.00051707902384 C 146.2468815551897,308.9997966396879 147.36133265823437,309.00006071220974 148.47574306808332,308.999984420353 C 149.59016488368547,309.00000352803556 150.70458391009325,308.9999993064512 151.8190035372294,309.00000010945405 C 152.9334230541116,308.9999999902766 154.04784258621856,308.9999999984406 155.16226211767201,309.0000000011385 C 156.27668164861814,308.99999999959357 157.39110117981153,309.000000000116 158.50552071092503,308.9999999999711 C 159.6199402420601,309.0000000000064 160.73435977319008,308.99999999999875 161.84877930432114,309.0000000000002 C 162.96319883545192,308.99999999999994 164.07761836658284,309.0 165.19203789771367,309.0 C 166.3064574288445,309.00000000000006 167.42087695997543,309.00000000000006 168.53529649110624,308.9999999999999 C 169.64971602223713,309.0 170.764135553368,309.0 171.87855508449888,309.0000000000001 C 172.99297461562978,308.99999999999994 174.10739414676053,308.9999999999999 175.22181367789145,308.9999999999999 C 176.33623320902237,309.0 177.45065274015326,309.0000000000001 178.56507227128398,308.99999999999994 C 179.67949180241493,309.0 180.79391133354576,308.99999999999994 181.90833086467666,309.0 C 183.0227503958076,309.0 184.1371699269384,308.99999999999994 185.2515894580692,308.99999999999994 C 186.36600898920014,309.0 187.48042852033106,309.00000000000006 188.5948480514618,309.0 C 189.7092675825927,308.9999999999999 190.82368711372357,309.0 191.93810664485457,309.0 C 193.05252617598538,309.0000000000001 194.16694570711616,308.9999999999999 195.28136523824708,308.99999999999994 C 196.39578476937794,308.99999999999994 197.51020430050878,309.0 198.62462383163972,309.0 C 199.73904336277053,308.99999999999994 200.85346289390137,309.0 201.96788242503231,308.99999999999994 C 203.08230195616318,309.00000000000006 204.19672148729393,308.99999999999983 205.31114101842485,308.99999999999994 C 206.42556054955574,309.0 207.5399800806866,309.00000000000006 208.65439961181752,309.0 C 209.76881914294825,308.9999999999999 210.88323867407917,308.99999999999994 211.99765820521006,308.99999999999994 C 213.11207773634098,309.00000000000006 214.2264972674718,309.0 215.34091679860265,308.9999999999999 C 216.4553363297335,308.99999999999994 217.56975586086443,309.00000000000006 218.68417539199532,309.0 C 219.79859492312616,309.00000000000006 220.913014454257,308.9999999999999 222.0274339853879,308.99999999999994 C 223.14185351651844,309.0000000000023 224.25627304765152,308.9999999999842 225.37069257877013,309.0000000000858 C 226.48511210995866,308.9999999996036 227.59953164084934,309.00000000161293 228.7139511728579,308.99999999427274 C 229.82837070133647,309.0000000164566 230.94279023748734,308.9999999744678 232.0572097793145,308.99999988500315 C 233.17162912488052,309.00000143709667 234.28604994494094,308.999990656283 235.40046259755684,309.00004818928056 C 236.5149135984684,308.99978497101506 237.62920617487342,309.00084684059067 238.74407116305116,308.9971209668067 C 239.8572414319247,309.0075699955655 240.97337554463743,308.99322896176506 241.8704675539151,309.69190454018644 C 242.01844016734353,310.78497138834877 241.9977843863722,311.90191265030234 241.99983067696,313.016078345516 C 242.00333361594667,314.12909137878273 241.97601648210033,315.2549247055375 242.16193699949272,316.2913857097847 C 243.04919883133837,317.03958558498084 243.8491246120129,317.8270588410448 244.559362757251,318.61739793858544 C 245.5675067320123,319.41414655253965 245.89900370954146,320.1787894417086 245.011799196195,320.97795951230194 C 245.0085736433303,322.0918681637521 245.0007855995637,323.2001695979736 244.9700568485055,324.33159449177754 C 245.20644041691273,325.345450135834 246.10866393883038,326.08878621686864 246.89561695547323,326.87984205892417 C 247.61247054670645,327.6688515785709 248.63482353215755,328.4667454577422 248.85308404398498,329.2259542450136 C 247.9803252906088,330.0424849888351 248.0133259132422,331.1666487855574 248.0021448355637,332.2722426364912 C 247.9633259436601,333.4075763332354 248.25492315738458,334.3983027159211 249.1669161069643,335.1385110390263 C 249.94156115285145,335.9325027374064 250.66736228962523,336.7203838798419 251.69869661258838,337.5191716606561 C 251.80106814377228,338.2732097335221 250.95667557038746,339.1091153839393 251.01628377186185,340.2409600048349 C 251.0037728980221,341.34447072105104 250.95773473368814,342.4830226845291 251.30642514458853,343.44993365592524 C 252.2240420185186,344.18872855123203 252.9870612239408,344.9850138447761 253.72416472302913,345.7720066838676 C 254.75843926498322,346.57138535666365 254.74393349068623,347.3207053184808 253.94009487731677,348.17764476261584 C 254.01761227196386,349.3148621548588 254.00586518509903,350.4167985681124 253.9521244883421,351.55814757790955 C 254.369845691661,352.49817168415706 255.2598845552549,353.2444645952379 256.04161421757607,354.03496762805725 C 256.8965106150301,354.7952756599521 257.01262588606943,355.8616050433485 256.9995906614597,356.9814275632622 C 256.9996819985818,358.095850286975 256.998915535393,359.2101608403173 257.00761973356794,360.32362492933385 C 256.9624383389013,361.4434155403993 257.26485942052733,362.5040597795099 258.2487928333721,363.03991500510324 C 259.36938739463744,362.9882095073442 260.4820401889108,363.00300295881704 261.59689897005524,362.9993249782878 C 262.7112221911018,363.0001314133548 263.8256598489116,362.99997963288837 264.9400767466096,363.0000016834619 C 266.054496438137,363.0000003404107 267.1689160370115,362.99999977317253 268.28333553155744,363.00000007950973 C 269.3977550748683,362.9999999775232 270.51217460265326,363.00000000553956 271.6265941345894,362.9999999987964 C 272.7410136655498,363.0000000002237 273.8554331967111,362.9999999999685 274.969852727838,363.00000000000153 C 276.0842722589689,363.00000000000097 277.19869179009993,362.99999999999955 278.3131113212308,363.0000000000002 C 279.4275308523617,362.99999999999994 280.54195038349263,363.00000000000006 281.65636991462344,363.0 C 282.7707894457543,363.00000000000006 283.8852089768851,363.0 284.99962850801603,363.0 C 286.1140480391469,363.0 287.22846757027776,362.9999999999999 288.3428871014086,363.00000000000006 C 289.4573066325395,362.99999999999994 290.57172616367035,363.0 291.6861456948013,362.99999999999994 C 292.8005652259321,363.0 293.9149847570629,363.0 295.02940428819363,363.0 C 296.14382381932467,363.0 297.2582433504555,362.9999999999999 298.37266288158645,363.00000000000006 C 299.4870824127173,363.0 300.60150194384823,363.00000000000006 301.71592147497904,363.00000000000006 C 302.83034100610996,363.00000000000006 303.9447605372407,363.00000000000006 305.05918006837163,363.0 C 306.17359959950244,363.0 307.2880191306333,363.0 308.4024386617642,363.0 C 309.51685819289503,363.0 310.631277724026,363.0 311.74569725515676,363.0 C 312.8601167862878,363.0 313.9745363174184,363.0 315.0889558485493,363.00000000000006 C 316.20337537968015,363.0 317.31779491081113,363.0 318.43221444194194,363.0 C 319.54663397307286,362.99999999999994 320.66105350420366,363.0 321.77547303533447,362.99999999999994 C 322.8898925664657,363.00000000000006 324.00431209759637,363.00000000000006 325.1187316287263,362.9999999999979 C 326.2331511598647,363.00000000001626 327.34757069095116,362.9999999999087 328.46199022229877,363.00000000043366 C 329.5764097525036,362.9999999981905 330.69082928711674,363.0000000066248 331.8052488072059,362.999999979881 C 332.9196683626741,363.00000003882747 334.0340879087424,363.00000007500665 335.1485068381045,362.9999986174886 C 336.2629309307732,363.0000096657952 337.37732512940823,362.99994830903444 338.49186376850713,363.00023679537986 C 339.60579053973987,362.9990433025798 340.72199462578004,363.00336559715726 341.8311026003629,362.9905007018568 C 342.95503007476543,363.01352948703567 343.77303131237045,362.2969704943904 344.52866603888964,361.43538837125 C 345.33592255435036,360.68070386885944 346.11017179379456,359.8802763499414 346.8915546309414,359.0901223158611 C 347.7891283769545,358.34800490176156 348.0320556180468,357.333920707494 347.9946164492193,356.20404813725474 C 348.0005961639778,355.0920869127311 348.0000424253595,353.97743787805337 347.9997061928671,352.863094945952 C 348.0018456294282,351.7478387955452 347.99002148988257,350.6382977907272 348.04630984410204,349.50057444514954 C 347.67275879611185,348.54084917693694 346.78031611880715,347.79617681783236 346.0038706858112,347.00331829202565 C 345.1354703424254,346.24816825902775 344.97981575590376,345.19957766902905 345.00435756798544,344.072381933835 C 345.00605837301725,342.95505482164987 344.8983173695694,341.9563555310219 343.7585553910693,341.9137939505258 C 343.02340138090057,341.02659478724576 342.1568725979988,340.25531531960024 341.9771743114337,339.2291231172278 C 342.0027963822989,338.1019842621587 342.0001279483275,336.9888858676854 341.99677798714595,335.87589055690313 C 342.02347051928166,334.75024408168895 341.8410006198671,333.71236933340634 340.9548847279235,332.9637389847148 C 340.15405498959643,332.17653330573404 339.4441940313972,331.3861017242453 338.43717626978747,330.5894373935856 C 338.09812417107725,329.82441858991007 338.9857648610082,329.0263498870411 338.9918395555591,327.91323300221444 C 338.9991141792854,326.8047732140528 339.030536792836,325.6733227825053 338.7905839444835,324.65971219923057 C 337.9018702698212,323.91296733781644 337.13089283720046,323.1179812324969 336.2405569423196,322.37181020631385 C 335.9617575549164,321.3745522994329 336.0123848110632,320.23411680852973 335.98461982890586,319.14469748923693 C 336.0074382936337,318.0062511152293 334.90311199778415,317.9783302971998 334.1371802786676,317.17029613682746 C 333.2681627957995,316.36980681840174 332.95922097134405,315.4052724993694 333.0079438339738,314.2666622547325 C 332.998219112318,313.1570074509017 333.00087770966593,312.04137877830254 333.00628996030025,310.92468977627396 C 332.9292555080677,309.84261098760425 332.09524054275914,309.0739766117093 331.2624533763122,308.29739393169143 C 330.5598205728828,307.50363496880357 329.60049691484596,306.7101348267017 329.02264329357837,305.9327676584956 C 329.88443449886915,305.16563425729584 330.01083136020725,304.08626040982017 330.0002489531671,302.9691787171254 C 330.01299385405764,301.8481541168947 329.89032337972515,300.785545394339 329.0315135329945,300.02654193471 C 328.25064295775843,299.23561979521827 327.36160159148324,298.48891315125945 326.94963293872826,297.54670486697654 C 327.01753339296613,296.39874925870106 326.9745139664971,295.32196702880344 327.0690062306363,294.10725643431397 C 326.06962425250646,294.00678672927705 325.2426268575973,293.3201813539708 324.3941723532415,292.4794349300983 C 323.94795928172715,291.57809781249557 324.01238633791894,290.43168327827385 323.9965906838804,289.325022990434 C 324.00332773291643,288.20755099096726 323.99377416751065,287.0971793239429 323.99405464772855,285.98263857526126 C 323.23931534275016,285.18221194008277 322.37418863256573,284.4180756311378 321.6692064520628,283.6211772758792 C 320.7694124674455,282.8309780593806 319.9962381456536,282.04321197145657 320.7534348492861,281.29528102246746 C 321.0371378926691,280.26093489199735 320.9970795730262,279.1335054714416 320.9985374272874,278.022172234763 C 320.968024480096,276.92040884836206 320.1692632073627,276.1367962712441 319.36540603498514,275.355297893905 C 318.4940786189655,274.6013406224671 317.9493914435022,273.7137033454259 318.01893833416307,272.5661166759637 C 317.9732767248417,271.4898153575353 318.0908410312414,270.2511503383959 317.2552744122089,270.0023296307862 C 316.34431406385096,269.46987227048663 315.52968930778735,268.5876110953322 314.9498047624859,267.74441005967543 C 315.01443330148226,266.5978898782412 314.9955895117776,265.4927513044743 315.0043000987722,264.3743436146506 C 314.9877436802956,263.2669470944041 315.032458826849,262.13373677043484 314.3830539618751,261.29020271485274 C 313.4897882571187,260.53807255870447 312.77432346082,259.73898113262993 311.93550826129,258.95146298835766 C 311.02231553637444,258.1565707537702 311.6046118661417,257.4170541084544 312.06167633003304,256.434869603413 C 311.9910785625813,255.29824464750408 311.9914321227557,254.1935917685239 312.01924645089997,253.06612326501218 C 311.3110296520063,252.24540594973504 310.477468009116,251.47607970040698 309.6334443233585,250.71095126336436 C 308.96698532035674,249.87321644413845 309.01573439215286,248.73605638068435 308.9784168228266,247.65122448461074 C 309.0837730624031,246.42616747039736 308.4479126176107,245.9801771087323 307.4468148429654,245.6129907180172 C 306.6695016988166,244.69774675526523 305.97117293322026,243.90102024389594 306.0123941320475,242.76612460010264 C 305.9955624468755,241.66001120816298 306.00409799638544,240.54163884332314 305.98674138341846,239.43460249908898 C 306.0480739827264,238.29440497322977 305.52237461320317,237.39971983033575 304.60977974873293,236.65687886902268 C 303.87714339103866,235.85729902621466 303.0907349248166,235.07111211987285 302.0932345113225,234.27242651359347 C 302.44981150331824,233.532717441155 303.0751032604447,232.60561528256238 302.98515312346393,231.46388264198322 C 302.9903225777091,230.36258456959672 303.0443911755941,229.22256438544008 302.45221280739355,228.35425563935763 C 301.589114820386,227.59702938657355 300.77515500325364,226.81960371737784 300.0083599124073,226.02291563011252 C 300.00705632443385,224.90840569322893 299.9874429793383,223.80917641920743 300.05863269107607,222.6205424732397 C 299.63476797933623,221.9563492849207 298.5547021404778,221.74315852820385 297.8083975657086,220.81325335105944 C 297.01841434169455,220.0447762499605 297.0045782369979,218.9372299893262 296.9968563400401,217.82662151664016 C 297.0030246149087,216.70931887095512 296.98920766940336,215.6007979469747 297.04683256040875,214.46215254347152 C 296.6531955098041,213.51253418084875 295.7346906061699,212.77398871672352 294.9796380346017,211.97638344379087 C 294.2326108166656,211.1898535355088 293.20058040420224,210.39027514766192 293.30087971469794,209.64403494646797 C 294.06807527205063,208.7707226679431 293.9822162042714,207.63090583242678 293.9929004096108,206.52965438929368 C 294.0494663240404,205.38735650142297 293.588212613992,204.46523000928616 292.7026324090305,203.71721112425465 C 291.9146669572431,202.9291566279351 291.07677134284745,202.16154589408333 290.9921597789009,201.08296347932708 C 290.99786391326376,199.9666531705036 291.02625028421494,198.82250998984597 290.8030696080098,197.9468662811562 C 289.67254890192527,197.85399753268894 288.9411649478427,196.9375423238764 288.09365741088084,196.1749226877687 C 287.9896462670366,195.11187390192035 287.9998180421372,193.9924010450465 288.0013831434942,192.8772658915176 C 287.9935829307747,191.7661858470387 288.03466980064604,190.63448765127998 287.7714348647478,189.6304166607085 C 286.8650483281916,188.88889625643847 286.0836547192299,188.0964215220551 285.3629930349089,187.3079313676763 C 284.3359385487182,186.50961255271156 284.16966245416353,185.75277055029122 285.03124895299686,184.9277424980509 C 284.9851807536016,183.79980059638268 284.99685723592427,182.6953049789271 285.0407924777878,181.55799823016363 C 284.7144290122695,180.580213728695 283.8203067152841,179.83568908529952 283.0474919868258,179.04144592844273 C 282.1687199356057,178.29054910955506 281.9734545843316,177.2585252753655 282.00732177506376,176.12637869674444 C 281.99745360745965,175.02030754285107 281.9400466142551,173.96774821924373 280.80492807284446,173.93912956311388 C 280.0628342948478,173.07378258810758 279.19229295716605,172.29452882698052 278.97079397359397,171.28846867969003 C 279.00449954663117,170.15731676206212 278.99947691422517,169.04536189150434 278.9983075600572,167.93141860825827 C 279.0175209441885,166.80891846677616 278.8730108911038,165.75513816423168 278.0013804128146,165.00109564316654 C 277.1901286224103,164.217121469166 276.48385337143,163.4255981035333 275.49089427857484,162.62993462547843 C 275.06800567559713,161.86068817852365 275.95576815137855,161.07432239571148 275.9969597200517,159.97105331139832 C 275.9998846741129,158.86004008980927 276.02469021838505,157.7319881888655 275.82626194269363,156.70109146675873 C 274.94442367938217,155.95152744155791 274.1718169790227,155.157212992616 273.27966198927373,154.41178391995433 C 272.9567274887462,153.43281243641812 273.0144783517941,152.28910502281298 272.98008173624146,151.20548120267173 C 273.0332220585783,150.03466915728222 271.9564125987723,149.99217645112066 271.17330413835083,149.22027263617974 C 270.30910901992934,148.4070061087574 269.95437291273953,147.46385713762862 270.00959875908535,146.32201600903196 C 269.9976235867704,145.2134680596545 270.001884296025,144.09712286115592 270.00132123178633,142.98295316007997 C 269.9538418019417,141.88846958573492 269.14342310870757,141.1104718666076 268.29958909375625,140.33797841155302 C 267.5971636181119,139.54310623023795 266.6570329274758,138.75073726269784 266.007755332881,137.969551757063 C 266.8431499974743,137.2101725552475 267.0192873865213,136.14486804143755 266.99967718014653,135.0243634638075 C 267.0074801273812,133.90682499473098 266.91911134573064,132.8297478926521 266.07705377392557,132.06387862016658 C 265.28963688074697,131.2756410574966 264.405053802348,130.52710896873225 263.947930743462,129.6034936717931 C 264.0184658772252,128.45467434846566 263.973232898881,127.37925335825291 264.08023482254345,126.15139390760797 C 263.13041830968064,126.00825438496838 262.2769775434521,125.37080406274751 261.4388946043724,124.51576573601655 C 260.94679665141814,123.63485076039531 261.01343345834806,122.48733925794734 260.99613411460075,121.38141547971324 C 261.0039180483424,120.2634885206951 260.990782716452,119.15455975501561 261.0102071500728,118.03208962722434 C 260.2784426878075,117.22074567112486 259.45233101175774,116.44867686497649 258.60142227296,115.68623256299561 C 257.96112881667506,114.83781936896395 258.0169079611852,113.69729864812771 257.9768216244642,112.61502910684652 C 258.0873487047271,111.38435669333818 257.4042738877337,110.98592229585337 256.4232606332021,110.58144006349197 C 255.6376875172575,109.67242079009137 254.96428272877284,108.86651895877803 255.01330246408352,107.72774961639014 C 254.99546520255072,106.62212924362736 255.00423109264796,105.50366044691589 254.9866086573303,104.39673177791106 C 255.04622340593335,103.25725742184814 254.4913773465788,102.37465713894862 253.5821547970451,101.63006571076644 C 252.85392435254164,100.83040787551907 252.05675679016474,100.04406469210299 251.0736554719112,99.24595909369103 C 251.48482844237193,98.5069307398051 252.0735166401554,97.56729886531936 251.98633935256132,96.42621403533713 C 251.99016814438278,95.32444581074155 252.0406749368533,94.18626364711533 251.4204837925325,93.3294511975143 C 250.56371267551881,92.5696333116276 249.7430466891746,91.79495040971571 248.99658791731179,90.98994513862986 C 249.00954919717353,89.8691162191829 248.98518434912523,88.77350350461654 249.06535748143247,87.57537316448494 C 248.59356041280404,86.96106979919257 247.52952540844086,86.7151041388384 246.77724820691552,85.78641021841779 C 246.0051424601386,85.013442178007 246.0069448836829,83.89813010244322 245.99642910825918,82.78890275788562 C 246.0033287233561,81.67126353595268 245.9884250550984,80.5632011239378 246.048284455044,79.4236179586047 C 245.62448376018295,78.48656845097663 244.7059037550271,77.74760464586912 243.95631988537951,76.94929631776269 C 243.20151359706378,76.16299172350915 242.17347797832613,75.36339996764535 242.33352711302817,74.61907916715097 C 243.07194677389128,73.7338996890721 242.98246927518724,72.59288043659296 242.99211211900243,71.4919075705952 C 243.04974743822225,70.34938117807343 242.55806243815513,69.43977847400296 241.6766055702925,68.69007126126405 C 240.88345566625443,67.90413614711665 240.05902991204317,67.13101702403571 239.99606244686794,66.04321169784917 C 239.9955073947269,64.93082656650293 240.03366789343784,63.776650352488 239.76718953810203,62.94692896272623 C 238.644712391116,62.83088593128781 237.91186257563842,61.90840831487766 237.0743560105344,61.14645342786254 C 236.99359663074472,60.07198613715058 236.99897960279733,58.95488722523475 237.00182715963933,57.8391508757854 C 236.99225068171052,56.72877863048074 237.03940864865243,55.59479691743363 236.73861826489323,54.60498409596334 C 235.84596935924486,53.86029541526237 235.07437621058043,53.06547806287887 234.19024762832655,52.31739177278272 C 233.97044313641766,51.29367131385182 234.00664163320192,50.16517104427136 233.9963286429713,49.05336849692207 C 233.9822694579922,47.940584599188085 233.2264127965147,47.0859316555699 232.12500546237462,46.989922044429036 C 231.00934576694178,47.00017705929861 229.89489532792985,47.000432638968036 228.78055134285378,46.999807942777274 C 227.66610131214796,47.00006014612959 226.55169098170944,46.99998406489025 225.4372690738364,47.00000371835542 C 224.3228500841765,46.99999924088946 223.20843044576424,47.00000012800828 222.09401093182845,46.99999998581997 C 220.97959139906737,46.99999999930102 219.86517186773108,47.00000000099989 218.75075233676827,46.99999999961016 C 217.63633280557627,47.00000000011595 216.52191327446297,46.99999999997034 215.4074937433277,47.00000000000671 C 214.29307421219784,46.999999999998685 213.17865468106666,47.00000000000021 212.0642351499359,46.99999999999999 C 210.94981561880493,47.0 209.8353960876742,47.00000000000001 208.72097655654346,46.99999999999999 C 207.60655702541266,47.000000000000014 206.4921374942815,46.99999999999999 205.37771796315067,47.0 C 204.26329843201984,46.99999999999999 203.14887890088897,47.0 202.0344593697581,47.0 C 200.92003983862725,46.99999999999999 199.8056203074963,47.0 198.6912007763656,46.99999999999999 C 197.5767812452347,47.0 196.46236171410382,46.99999999999999 195.347942182973,46.99999999999999 C 194.23352265184198,46.99999999999999 193.11910312071115,47.00000000000001 192.00468358958028,46.999999999999986 C 190.89026405844945,47.000000000000014 189.77584452731864,47.0 188.66142499618786,46.99999999999999 C 187.54700546505686,47.00000000000001 186.43258593392602,47.00000000000001 185.31816640279516,46.999999999999986 C 184.20374687166426,46.99999999999999 183.0893273405334,46.99999999999999 181.97490780940257,47.0 C 180.86048827827156,47.0 179.74606874714064,47.00000000000001 178.63164921600995,47.0 C 177.51722968487914,47.0 176.40281015374825,47.0 175.2883906226173,47.0 C 174.17397109148646,47.0 173.05955156035552,46.999999999999986 171.94513202922468,46.99999999999999 C 170.8307124980939,47.0 169.71629296696295,47.0 168.60187343583212,47.0 C 167.4874539047013,47.0 166.37303437357048,47.00000000000002 165.25861484243958,46.99999999999999 C 164.14419531130872,46.999999999999986 163.02977578017786,47.0 161.91535624904682,46.99999999999999 C 160.800936717916,46.999999999999986 159.6865171867851,47.0 158.57209765565437,47.0 C 157.4576781245236,47.0 156.3432585933926,47.00000000000001 155.22883906226173,47.00000000000001 C 154.1144195311309,47.000000000000014 153.0,47.0 150.00000000000009,47.00000000000002 " fill="none" stroke="black" /></svg>