<?xml version="1.0" encoding="utf-8" ?>
<svg baseProfile="tiny" height="100%" version="1.2" width="100%" xmlns="http://www.w3.org/2000/svg" xmlns:ev="http://www.w3.org/2001/xml-events" xmlns:xlink="http://www.w3.org/1999/xlink"><defs /><path d="M 189.00000000000006,166.00000000000003 C 189.68926856077212,165.08780438299945 190.71934199271843,164.9828841307393 191.79379123560986,165.01243111192346 C 192.8662967875394,164.9719642926999 193.78183170902656,165.55660905931913 194.03569451660212,166.5833386735709 C 193.99195461658863,167.65805957386988 194.0015175949827,168.72622580932796 194.00034548371968,169.79578829960525 C 193.99811760086777,170.86523539821525 194.00400450832154,171.9342850608523 194.00099633102295,173.00380043271846 C 194.677524814822,173.87946221303582 195.73031493067884,173.9835722406389 196.69349257288306,174.42964568956694 C 197.04253586585534,175.45060214227732 196.9894487280117,176.5227677568619 197.0023021830321,177.5914443495517 C 197.00026093940207,178.6609090446526 196.99720581199642,179.7304273853509 197.00938712911338,180.79913954352602 C 196.97356343480874,181.87039171725004 197.55886594078675,182.80323860217473 198.59447222245828,182.9917986532053 C 199.5937633981078,183.32431516293772 200.04273280076976,184.31573149794423 199.98834356593147,185.38796600165458 C 200.00284844923286,186.45655521651602 200.0000470163782,187.5260601339513 199.9970528455902,188.59557524943332 C 200.0115344676233,189.6641656950827 199.9596273193043,190.73626886795444 200.44722557566575,191.71356380960083 C 201.4581864883719,192.0037345630712 202.485188838021,192.22992626296738 203.03327153938173,193.18137187755278 C 202.98944016873506,194.2530477491818 203.00293156193362,195.3216905892913 202.9998125150327,196.39121231215165 C 202.99744534597625,197.4606942520524 203.01119194471045,198.5293235888627 202.95641947299958,199.60157837019796 C 203.34392132841788,200.61224776943547 204.32209678083044,201.01402912055272 205.36908648248703,201.14828911831648 C 206.01138355298144,202.04766977340992 205.99348390952622,203.1179735593151 206.00233855739648,204.1868617364213 C 205.99966391722532,205.2563599450698 205.9981703494467,206.32579566144537 206.00910493334575,207.3945737860855 C 205.9611713677169,208.46646671086842 206.25027078611137,209.50110063883005 207.1868421568046,210.01733142950962 C 208.24677391857392,210.08121388613677 208.97448056653352,210.91484506284206 209.00121893961182,211.98270405791718 C 209.00085647191582,213.0520799261283 208.9997077048093,214.12149739859467 208.99901489229595,215.19089074583465 C 209.00601880650035,216.25987684797403 208.97111447527823,217.3310803768523 209.16759153581395,218.38193257493606 C 210.0530616732651,219.00829059380203 211.1195687333494,219.03051072357974 211.92226855484006,219.78405173173684 C 212.0125542512011,220.84724406034383 211.99830922109493,221.91735447529607 212.0000503076617,222.98661904136523 C 211.99976601080917,224.0559907734407 212.00267893722307,225.12519333576262 211.9834802670315,226.19556585496468 C 212.09720116719643,227.25655373530049 212.9214187192231,227.98181248729782 213.98878844343858,227.99798905683548 C 214.85603397396608,228.65708723648197 215.02510968787578,229.7117194529032 214.9950449190881,230.78266713006423 C 215.00072528781504,231.85172261291194 215.00022676661564,232.92110726461 214.99982789903098,233.99048339696407 C 214.99542870464828,235.0600587697164 215.04104679088252,236.12686990156485 215.7958662184552,236.93710140554634 C 216.848976673891,236.98293007705172 217.8379757693151,237.54500959918283 217.77815270026554,238.5192413736331 C 216.76271364863888,239.0391485748558 215.69848623863945,238.98838100348536 214.62763016742286,239.00322128805306 C 213.55868455417854,238.99915261841164 212.48922074462772,239.0002128499933 211.4198907217866,238.99994891385998 C 210.35052769227806,239.0000116646125 209.2811724345112,238.99999749375144 208.211815441741,239.00000049526352 C 207.14245881089965,238.99999991454908 206.0731021116445,239.00000001096734 205.00374542325272,238.99999999986383 C 203.93438873378233,238.99999999943475 202.8650320441841,239.00000000027313 201.79567535470764,238.99999999990385 C 200.72631866518137,239.00000000002964 199.65696197567152,238.99999999999156 198.58760528615682,239.0000000000023 C 197.51824859664347,238.99999999999937 196.44889190712982,239.00000000000014 195.3795352176162,239.0 C 194.31017852810257,239.00000000000006 193.24082183858894,239.00000000000006 192.17146514907532,239.00000000000006 C 191.10210845956166,239.00000000000009 190.032751770048,239.00000000000006 188.96339508053438,239.00000000000006 C 187.89403839102076,238.99999999999997 186.8246817015071,239.00000000000003 185.75532501199345,238.99999999999966 C 184.68596832247997,239.00000000000145 183.61661163296552,238.99999999999352 182.54725494345536,239.00000000002768 C 181.47789825392752,238.9999999998872 180.40854156446972,239.00000000043963 179.3391848747468,238.99999999836808 C 178.26982818597548,239.00000000571552 177.20047149402018,238.99999998154902 176.13111481160996,239.00000005185578 C 175.06175810635344,238.999999896039 173.9924014218895,238.99999994601856 172.9230449651581,239.00000225000466 C 171.85368632291485,238.9999829226628 170.7843412599118,239.0000979972464 169.71492484522526,238.9995068612066 C 168.64584898575538,239.00228640543915 167.5752525943114,238.99001632812073 166.5110964365306,239.04148912565202 C 165.44217974390568,238.7250265382303 165.03393348342775,237.7941399511003 165.86781138688792,237.03307207216784 C 166.94426139595794,237.00859900516906 167.82788181520402,236.3857859020863 168.02968044732194,235.33488054614295 C 167.9937880120994,234.26373983479147 168.00102779668552,233.19474229485283 168.00029409355358,232.12535127677282 C 167.99908724579174,231.0559300272343 167.9990595066421,229.98657193624547 168.0242467655591,228.9186202952127 C 168.7496572328891,228.0829117355127 169.8093108495059,228.0173829096751 170.74719946399202,227.50439619566595 C 171.03904961585147,226.47033155262073 170.9908180257192,225.39842285920832 171.00185303719653,224.32965004827216 C 171.00033400030605,223.26021298430314 170.997633174638,222.19071339013865 171.0066793224362,221.1218353455751 C 170.98779337578256,220.0514793729207 171.62750385576882,219.1504281372398 172.67402349008123,219.01380656596717 C 173.65325482234138,218.6152875576587 174.0436125086665,217.60543321181217 173.98877051319553,216.53317475187268 C 174.00257149593412,215.4645482925999 174.00018147041712,214.39506514333027 173.99706244314856,213.32554342150868 C 174.01062851533376,212.25690453277383 173.96629885905946,211.18520229612136 174.5115982952232,210.23245473830505 C 175.53791931323556,210.00339085536908 176.5496941154155,209.7162961112982 177.0401365607757,208.7401095239204 C 176.98848878522892,207.6680200748426 177.00295136696923,206.59942862174339 176.999946079316,205.52991291805168 C 176.997161744222,204.46040890528405 177.01165186661402,203.39181890940105 176.95715196654345,202.31957855023097 C 177.40325817546926,201.32718137591417 178.40163736861552,200.9914866751335 179.4378349359609,200.80561169856995 C 180.0258532428801,199.87421400222877 179.99071821505555,198.80299826685481 180.00277968653657,197.73427976748974 C 179.99973430886823,196.66476194257652 179.99771811414985,195.5952985732429 180.01049474924844,194.52661791423384 C 179.95758417005683,193.4544616483628 180.3038010835752,192.43279789291532 181.265816713192,191.9834449214008 C 182.31899487104573,191.88142416232265 182.9979941538725,191.00760010811334 182.9962041756464,189.93814876668674 C 183.0018434909299,188.8690904616168 182.99965264092697,187.79961785101585 182.99851858922617,186.73020115716326 C 183.0079025362076,185.66134098604937 182.96482694142222,184.58970510362968 183.21454460660595,183.54749413215677 C 184.13109640393816,182.98461649031123 185.19449150772286,182.9419233454037 185.95459494797007,182.13979393014975 C 186.00559834965418,181.0735060558233 185.99992982015712,180.003849436099 185.99980755652726,178.93448627743737 C 185.99935021249604,177.86510538918017 186.00462056050856,176.7960275615107 185.97611195698153,175.7251624399663 C 186.1368052830603,174.6694598810056 186.99811547935036,174.00035227353032 188.065640057894,173.98529896498786 C 188.89637592630254,173.2692163200869 189.01784048749172,172.2090140349036 188.9968190419368,171.13854506987013 C 189.00068227323027,170.06939278959106 189.0,169.0 189.00000000000006,166.00000000000003 " fill="none" stroke="black" /><path d="M 150.00000000000003,47.000000000000014 C 149.08643696637822,47.685715214868694 148.98503826010293,48.70901157456653 149.00554452668754,49.78071260983063 C 148.99143870968345,50.843282345527335 149.020019295214,51.909549601954026 148.41114090350496,52.82412482048568 C 147.37545539581663,52.98948341052938 146.38702819083215,53.34306319837583 145.9567521193788,54.3358827154804 C 146.01162707346737,55.40331972793396 145.9971804451991,56.46709015836599 145.9999427927673,57.53177078963455 C 146.00294787614686,58.59646435388106 145.9884450027856,59.66023152453971 146.04087282329377,60.72754010155679 C 145.56359922698041,61.70386184662535 144.56035277099394,62.00535234453876 143.53455914531023,62.214923427103514 C 142.9698876685468,63.15349522062326 143.01126521234622,64.22021911032333 142.99035638019228,65.28364733650818 C 143.0313867840206,66.3503528585244 142.8238355449766,67.39489212160369 141.9376005009857,68.00944484948458 C 140.8759435911527,68.03197355855873 140.07778979630152,68.78390916180098 139.9869889048928,69.842249292688 C 140.00191217750472,70.9075734480962 139.9998905531243,71.9720010241488 140.0001459891839,73.03654908280934 C 139.99789129995878,74.10096432705915 140.01380362371057,75.16634081461393 139.9184062077958,76.22427059200123 C 139.11585504953638,76.97068592926428 138.05399513184116,76.9915904106439 137.17088660214088,77.61282891749178 C 136.97020985549653,78.65827979546549 137.00639840378793,79.72472912780307 136.99888889925037,80.78886633206656 C 136.99968019821992,81.85344274401976 137.0012722870576,82.91806152693947 136.9988353469503,83.98246712802774 C 136.98693615126666,85.04635875133407 136.28762082634017,85.89844867230705 135.2359639663414,85.98272190213518 C 134.28688620596668,86.45335674387867 133.95748669736145,87.47452490139904 134.01337130782508,88.54201638127748 C 133.98584279769346,89.60509435058995 134.04366044881843,90.67268811048528 133.6060982607048,91.66336774115825 C 132.61600872046893,92.00988591706196 131.58129476352107,92.18090476795878 130.9785620944108,93.09895470897315 C 131.00830555398807,94.16506302221285 130.9973907336351,95.22902004622141 131.0003095750487,96.2937090295661 C 131.0020235455134,97.35833426142155 130.99036030647227,98.4222516854995 131.040076715948,99.48941679681583 C 130.73779396075668,100.51649150033519 129.7999342701109,101.01746692475892 128.74543484910498,101.0849402393742 C 128.02433151910319,101.91836776375499 127.9986917343639,102.98147264780792 127.99923423627195,104.04603589554362 C 128.00027718632327,105.11062562272468 128.0008887244468,106.17519252326784 127.99449189250994,107.23938860067074 C 128.02666088928703,108.30562525264159 127.84927648447494,109.35436913615055 126.98131842168752,110.0032710071954 C 125.918751900861,110.01894141959586 125.09845060083508,110.74154101541527 124.98213127406264,111.79751471645505 C 125.00496309959736,112.86325732499914 124.99521660392398,113.92727616678027 125.00202314061686,114.99217085378496 C 124.33724843401109,115.87085131026979 123.2912567437773,115.98441430803969 122.32514584153122,116.40836546827133 C 121.95671130840658,117.41948438618634 122.01101738328884,118.48689234343169 121.99749699919472,119.55071150324076 C 121.9998024251144,120.61536802987185 122.00292836169578,121.68006797092563 121.98938638443357,122.74388598820852 C 122.03413666343756,123.81078833427696 121.49578718724631,124.76169695576928 120.4758445410544,124.99783493047002 C 119.46548377181057,125.27073549792483 118.96104512981907,126.2366320019279 119.01323513523242,127.30392799483369 C 118.98825904973047,128.36714101667732 119.03770480086119,129.43429180706366 118.77315319512891,130.46916274237591 C 117.85481081465332,131.01610300054216 116.79666009396539,131.06175700732763 116.04367906127344,131.86465461346762 C 115.9943815712308,132.9262451025085 116.00016394927414,133.99108559977657 116.00016884537968,135.05562040200073 C 116.00056624592258,136.12017597221038 115.99586783258819,137.1844619154329 116.02163357405173,138.25035976177244 C 115.8783705723744,139.30336879328195 115.03506102813303,139.99276968099272 113.9720713146734,140.00564381270144 C 113.12538154170423,140.6897883187579 112.97768508479142,141.74227997381308 113.00431500282296,142.8082235450024 C 112.99939244790662,143.87249762856513 112.9998135242821,144.93705445149777 112.99997099812902,146.00159732683397 C 113.00501313023413,147.0663986566037 112.95904211409538,148.1282158138525 112.21020878937625,148.93531634687398 C 111.15247516480817,148.98358852671 110.2314981402564,149.52446224514298 109.96181800224267,150.55835873009414 C 110.0118994364701,151.62554315540555 109.98664555942216,152.68874147889105 110.03951313230333,153.7560733228855 C 109.54042379863034,154.72415020011155 108.53155881425462,155.00282478140093 107.5102982002913,155.23346048283932 C 106.96666844032825,156.1819300512898 107.01048007123502,157.24878273211056 106.99708505569397,158.31260852535365 C 107.00020850834456,159.377308334979 107.00246904500607,160.44196248645363 106.98906780161208,161.50578795017194 C 107.04314919222726,162.57318401904317 106.68007565281412,163.5857330231674 105.7161423770493,164.01589914262686 C 104.6691554482071,164.125318570881 103.99984297181162,165.0006036713065 104.00398535349042,166.06535739396136 C 103.9981702128396,167.1295842495035 104.00034628134868,168.1942339316443 104.00141190259473,169.2588248583915 C 103.992461207742,170.32288580716136 104.03363767080874,171.38959905738633 103.8010553010892,172.43000344210066 C 102.89890243452705,173.01330950372395 101.83873462225571,173.0450762980601 101.06136594695275,173.82155331362753 C 100.99005432378078,174.88153858963807 101.00196585375572,175.94670338932556 101.00083557186636,177.0111781276168 C 100.97794689582602,178.07444625340563 100.26119796372517,178.91175897389866 99.2074135934527,178.98250879083108 C 98.26708153410739,179.4773083617165 97.95956149194885,180.50323984657877 98.00977224643326,181.57043111441462 C 97.99793430729568,182.63433929485424 97.99969701840655,183.6989671056487 98.00264821611563,184.7636578010125 C 97.99145297576123,185.82759998758752 98.02268950471124,186.8937873013178 97.42500798464638,187.8146954668592 C 96.39144515738423,187.9906844740537 95.39919301649276,188.33111910212378 94.95713895841997,189.32002997366968 C 95.01165691489301,190.3874491418808 94.9971380335675,191.45121546973667 94.99997134149056,192.51589992737897 C 95.0029262882751,193.58059082111185 94.98837882467315,194.64435563663753 95.04167372489268,195.71171009114826 C 94.57611524707879,196.69237125177057 93.57638937749124,197.00671549487214 92.54799907392294,197.2048813471375 C 91.97211058712927,198.1377404513996 92.01075870013698,199.2043199229141 91.99080820021972,200.26779885586282 C 92.03003755012324,201.33440908147415 91.83294168218359,202.38050081083836 90.9532321817558,203.00746793226767 C 89.89116253270689,203.02709253717666 89.08488391449485,203.7687327266212 88.98551674647271,204.82629901152092 C 89.00227870451617,205.8917204544724 88.99982166362483,206.95612499199868 89.00007928725304,208.0206731664067 C 88.99825371232293,209.08511111572332 89.01233791152261,210.15039087452647 88.92541156467364,211.20906933512703 C 88.13104987066129,211.96568865590504 87.06964479455205,211.98972551418774 86.18006632232053,212.5984779379773 C 85.9688851622316,213.64233731689598 86.0067846426801,214.70887717716369 85.99878908471841,215.77298866362753 C 85.99966777322908,216.83756969948948 86.00147200528808,217.90219970721833 85.99783909243388,218.9665420276342 C 85.99155882874348,220.03074039660424 85.30209577114532,220.89075132552423 84.25187357951442,220.98304739926937 C 83.2978630948255,221.44022372254676 82.95692727840142,222.4586229146155 83.01357447734101,223.5261547441689 C 82.98580028899057,224.5892197142864 83.04401678748859,225.65683457778127 82.61818616107337,226.65134968938597 C 81.63202214048799,227.01106767449917 80.59507678683009,227.1715129897409 79.98141335208918,228.0832331860936 C 80.0077491423085,229.14916119454898 79.99748291803917,230.21315253672776 80.00032246631558,231.27783732455617 C 80.00193000074658,232.34245692472496 79.99066112238012,233.4063952150047 80.03922755455079,234.473499479335 C 79.74829280748669,235.5029741122425 78.81578558311307,236.0172904689149 77.7601420557958,236.07796700786784 C 77.02965766848071,236.90282760998903 76.99750709627368,237.96553757976315 76.99948294591071,239.03017666802967 C 77.00025149679051,240.09475187634806 77.0007929821599,241.15931507029717 76.99488892704336,242.22353722124453 C 77.0252336496899,243.28967734819517 76.8578946417952,244.3397447448078 75.99687069087183,245.00057576193538 C 74.9340917506142,245.0147790200105 74.10608808019676,245.7265295584396 73.9806086840219,246.78156176687676 C 74.00551211754679,247.84741398723838 73.99431593319682,248.9113561238651 74.00590421831991,249.9765038201933 C 73.35144172772851,250.86241902319964 72.30722151663572,250.9851713295174 71.33660902904488,251.39567514538774 C 70.95647681171668,252.4035995915167 71.01118735823613,253.4710289499497 70.99742610374402,254.53483536495258 C 70.99982706925694,255.59949694672386 71.00295088112301,256.66419677535566 70.98912543701134,257.7279997939917 C 71.03576129923589,258.79500190903434 70.50887143882024,259.75107426406976 69.49194829964026,259.99927614298497 C 68.4780793019182,260.25975821642936 67.96277768673772,261.22085128694994 68.01109585208265,262.2879424151184 C 67.99703591905335,263.3517330266018 68.00014702131563,264.41643218274993 68.00264034300497,265.4810986512218 C 67.98866630891123,266.54489380774396 68.04364916383474,267.61233757441414 67.65174997444413,268.6169265741504 C 66.67674269734769,269.0139633106834 65.63439680265382,269.14625062594166 64.99041826037055,270.03923209713923 C 65.00653688056417,271.1046195001414 64.99394543388281,272.1684878113915 65.02091458997101,273.2344493321641 C 64.88606013655897,274.2884722557374 64.05046977738246,274.9891349464309 62.987553052767545,275.0024029130479 C 62.13363307843249,275.6750110867793 61.97622076845437,276.7263301075818 62.00471185333484,277.79237215583925 C 61.99930111482367,278.85662040889184 61.99977874377115,279.9211802241039 62.000251601690366,280.98573978687403 C 62.00373254304098,282.05045851175095 61.964784691152694,283.1127390252775 61.22502976146437,283.92880232215646 C 60.16832577508012,283.9830600176319 59.24132242271065,284.51070489050693 58.961699019971995,285.5424800474617 C 59.00902213484713,286.6095185260501 58.998165917475816,287.67347865082843 58.99966703856141,288.738092620511 C 59.002412755830065,289.80277244360326 58.99285833789505,290.86680144849925 59.01552359836637,291.9325352438416 C 58.39099864577146,292.837717967294 57.35191460070144,292.9878184568958 56.36980895010093,293.3608586974193 C 55.95575308175822,294.3590837460425 56.01420927148175,295.42671129195173 55.98624823947764,296.4897663758975 C 56.043539044533425,297.5573322595946 55.69097696487861,298.57283262297165 54.73214210904957,299.01648993679635 C 53.68345267951734,299.11719097937925 53.00402275407403,299.9849528965777 53.00310289785814,301.0494383148335 C 52.998341886756364,302.11372094591627 53.0003409852151,303.1783612643123 53.00131160179733,304.2429471642232 C 52.99283364850098,305.3070331264423 53.03240306466743,306.37366134545846 52.810552132442524,307.4158350292634 C 51.91461992309385,308.0119090683388 50.85375110516677,308.0395779147718 50.067753720963395,308.80623956164834 C 49.98911549078516,309.86561652750123 50.001392486861015,310.93080066453615 49.99998261448613,311.9952606092846 C 50.00025201122719,313.0598094066254 49.9973452774992,314.12419015024403 50.015971833418,315.18971025180423 C 49.90780287079051,316.24644294636676 49.09351447485831,316.9775510069008 48.031109048921486,316.9947662208149 C 47.158089588188915,317.63402936859524 46.97135388273481,318.68159504165897 47.00872327235297,319.7481068540433 C 46.98979434745969,320.8116398400251 47.02547295780241,321.8780621907978 46.43841240713593,322.80501258468666 C 45.407520205310824,322.9919581710661 44.411443054960166,323.31931804851024 43.95766480621068,324.3041854099417 C 44.01165444781077,325.371576624238 43.99710263541215,326.43534120966245 43.9999998723489,327.5000290498826 C 44.002897797340225,328.56471692650865 43.98834448870296,329.6284814327649 44.04233709529917,330.69587280394364 C 43.58848709938073,331.68072356886637 42.59247197870845,332.0080397689591 41.5612980652293,332.19501048029235 C 40.974734474012976,333.12200689799744 41.0090361055984,334.18835639080424 40.99727586576267,335.2522686824279 C 41.00028679239822,336.3169625381367 41.002155976085156,337.3815959825514 40.98994971759767,338.445484674674 C 41.041174005600425,339.512729570055 40.72216281489214,340.5360894320946 39.7766465591447,341.01743075008926 C 38.724151727429025,341.09557001939464 38.01700011199643,341.94118877361217 38.000351622059064,343.00481518893486 C 37.99745269888053,344.0691963458197 38.01142617265967,345.13447024599066 37.9319834460512,346.1938037683287 C 37.146128115928974,346.9604382885105 36.08533250128434,346.9880969962138 35.189404826856034,347.58421656068396 C 34.967587899224895,348.6263962988702 35.00722323274126,349.693027964254 34.99848768131527,350.75710043889615 C 35.00029172388123,351.82172998044075 34.999944289748484,352.8862474235322 35.00002112759575,353.9507833882202 C 35.00002128853227,355.01531742744606 34.99955509243981,356.07987669961096 35.003192619054,357.14421765888613 C 34.982045552634304,358.2098780055988 35.10213722092561,359.26540934518647 35.92622431762256,359.9829828756456 C 36.98835579234712,359.99797373725596 37.86996720259021,360.6503823173983 37.984350928949745,361.7068913076331 C 38.40548989060595,362.67103082639596 39.415703321317466,363.04357664591805 40.48315239640006,362.9888315560715 C 41.546945801387366,363.0027527198126 42.61166157264593,362.9993486231697 43.67615360490731,363.00014712641007 C 44.7406976495375,362.9999686556861 45.80523019655293,363.000006150328 46.86976512322438,362.9999989467182 C 47.934299603230045,363.00000013305157 48.99883415350807,362.9999999994248 50.06336869703899,362.99999999253214 C 51.12790323961512,363.00000000357426 52.19243778303668,362.99999999873523 53.25697232611238,363.0000000003934 C 54.321506869303406,362.99999999988654 55.386041412459626,363.0000000000309 56.45057595562572,362.99999999999187 C 57.51511049878912,363.00000000000205 58.57964504195325,362.9999999999994 59.644179585117165,363.0 C 60.70871412828116,362.99999999999994 61.7732486714451,363.0 62.83778321460908,362.9999999999999 C 63.902317757773076,363.00000000000006 64.96685230093703,363.00000000000006 66.03138684410101,363.0 C 67.09592138726495,363.00000000000006 68.16045593042901,362.99999999999994 69.22499047359291,362.99999999999994 C 70.28952501675694,362.99999999999994 71.35405955992087,362.99999999999994 72.41859410308489,362.99999999999994 C 73.4831286462488,362.99999999999994 74.54766318941283,363.0 75.61219773257675,362.99999999999994 C 76.67673227574076,362.99999999999994 77.7412668189047,363.0 78.80580136206868,363.0 C 79.87033590523265,362.99999999999994 80.93487044839661,362.99999999999994 81.99940499156067,363.0 C 83.06393953472457,363.0 84.12847407788858,363.0 85.1930086210525,363.0 C 86.25754316421653,363.00000000000006 87.32207770738044,362.99999999999994 88.38661225054447,363.0 C 89.4511467937084,362.99999999999994 90.51568133687239,363.0 91.58021588003633,363.0 C 92.64475042320032,362.99999999999994 93.70928496636428,362.99999999999994 94.77381950952825,362.99999999999994 C 95.83835405269232,363.0 96.9028885958562,362.99999999999994 97.96742313902024,362.9999999999999 C 99.03195768218416,363.0 100.0964922253482,363.0 101.16102676851206,362.99999999999994 C 102.22556131167612,363.0 103.29009585484,362.99999999999994 104.35463039800403,363.00000000000006 C 105.41916494116789,362.99999999999943 106.4836994843322,363.00000000000205 107.54823402749489,362.99999999999176 C 108.6127685706636,363.00000000003104 109.67730311381018,362.99999999988603 110.74183765703509,363.0000000003955 C 111.80637219999971,362.99999999872637 112.87090674374707,363.00000000361104 113.93544128557008,362.9999999923833 C 114.99997582964517,363.0000000000119 116.06451038843876,363.0000001308809 117.12904479104284,362.99999895395655 C 118.19358019113231,363.00000612909054 119.2581102647699,362.9999687052419 120.32266611091407,363.00014707749915 C 121.38710524703107,362.9993482235273 122.45204685097171,363.0027565893516 123.51491548506823,362.9888077447138 C 124.58600596171456,363.04370131567026 125.578034201139,362.671114289365 126.04224479897357,361.7094048083533 C 125.98826921103647,360.63841900405913 126.00294305614722,359.5756527017126 125.99997416525315,358.51069958967304 C 125.99712730742684,357.44608064198144 126.01165950924137,356.3822988766849 125.95729351781581,355.3148915726542 C 126.40316012414362,354.3272755391749 127.39664098632595,353.9910906839852 128.42944317768396,353.81158010523836 C 129.0235429587165,352.888685146368 128.99128983310354,351.82244403910215 129.00267395622458,350.7585118479877 C 128.99970206754423,349.6938200573982 128.99790461797676,348.62919040866694 129.00986491335067,347.5652887022409 C 128.95931085566596,346.4980792697381 129.2705603886045,345.472967538032 130.21253446854402,344.9825097113142 C 131.26607291556064,344.90942247607046 131.97970412407278,344.0694024590025 132.00041574477913,343.00600859864073 C 132.00095036203143,341.9415023428597 131.99970564325918,340.8769019397998 131.99903477193982,339.81233189985016 C 132.0058193325681,338.74815633774097 131.9722332727471,337.68184470688595 132.15763075635974,336.63419690731814 C 133.03092023651834,335.994796928563 134.09330948666758,335.9776080618036 134.90770008122712,335.24663564046745 C 135.0159924008445,334.1899144754684 134.99734017699254,333.1243930157803 135.00025300958868,332.06001259486163 C 134.99998337023922,330.99546378468415 135.00138804294613,329.9310035648136 134.98913389051867,328.8658206364695 C 135.067667847852,327.8064350941209 135.85355763904803,327.0396466814271 136.91441909829422,327.0119284155963 C 137.8104314269277,326.4160169402914 138.0324192027082,325.3738653347554 137.99282883058626,324.3072360069379 C 138.0013128682388,323.24315036661983 138.00034113405985,322.1785644076757 137.99833944115372,321.11392395172027 C 138.0031148393526,320.0496420824653 138.00396823387854,318.9851531298385 138.68329176707056,318.1172948823885 C 139.73188101218105,318.01648009830336 140.69119478680201,317.5730178489737 141.0427692424893,316.5574936832031 C 140.9892686180897,315.49013314711135 141.0023910671351,314.426274159999 141.00023789345286,313.3616969100078 C 140.99709602411235,312.29673767604703 141.01024796419495,311.23378499614904 140.96825744794077,310.1642322240376 C 141.52558383776724,309.2413647754047 142.54223497297022,308.9615160875132 143.61245341789794,309.00910803847205 C 144.67565444312194,308.9979423422582 145.7404871009857,309.0004384902853 146.8049589953622,308.99991392491665 C 147.86950558028522,309.0000147519247 148.93403813861366,308.9999981326723 149.99857290596808,309.00000000984414 C 151.0631074603743,309.0000001039772 152.12764198516425,308.9999999501292 153.1921765363934,309.0000000176597 C 154.25671107679182,308.9999999945037 155.32124562080148,309.0000000015849 156.38578016372446,308.9999999995669 C 157.45031470695363,309.0000000001131 158.51484925010075,308.9999999999715 159.5793837932688,309.0000000000067 C 160.64391833643185,308.9999999999983 161.708452879596,309.00000000000034 162.77298742276,308.9999999999999 C 163.837521965924,309.0 164.90205650908797,309.0 165.96659105225194,308.99999999999994 C 167.03112559541586,308.9999999999999 168.0956601385799,308.99999999999994 169.1601946817438,309.0 C 170.22472922490783,309.0 171.28926376807175,308.9999999999999 172.35379831123575,308.99999999999994 C 173.4183328543997,308.9999999999999 174.48286739756367,308.9999999999999 175.54740194072764,308.99999999999994 C 176.61193648389158,308.99999999999983 177.67647102705564,309.0 178.74100557021956,308.99999999999994 C 179.8055401133836,308.99999999999994 180.87007465654744,308.99999999999983 181.93460919971147,308.99999999999994 C 182.99914374287542,308.9999999999999 184.06367828603948,308.99999999999994 185.12821282920333,308.99999999999983 C 186.19274737236736,308.99999999999994 187.25728191553134,308.99999999999994 188.3218164586953,308.99999999999994 C 189.38635100185928,308.9999999999999 190.45088554502323,308.99999999999994 191.51542008818717,308.9999999999999 C 192.5799546313512,308.99999999999994 193.64448917451526,308.99999999999994 194.7090237176791,308.9999999999999 C 195.77355826084312,308.9999999999999 196.83809280400703,308.9999999999999 197.90262734717115,308.9999999999999 C 198.96716189033495,308.9999999999999 200.0316964334991,308.99999999999994 201.09623097666298,308.9999999999999 C 202.16076551982698,309.0 203.22530006299095,308.99999999999994 204.28983460615495,309.0 C 205.35436914931884,308.9999999999999 206.41890369248284,308.99999999999994 207.48343823564682,308.9999999999999 C 208.5479727788108,308.9999999999999 209.61250732197487,308.99999999999994 210.6770418651387,308.99999999999994 C 211.7415764083027,308.9999999999999 212.80611095146662,308.99999999999994 213.8706454946307,308.99999999999994 C 214.93518003779457,308.9999999999999 215.99971458095865,309.0 217.06424912412257,308.9999999999999 C 218.12878366728663,309.0 219.19331821045046,308.9999999999999 220.25785275361454,308.9999999999999 C 221.32238729677843,309.00000000000034 222.38692183994266,308.9999999999982 223.45145638310558,309.00000000000716 C 224.5159909262739,308.99999999997044 225.58052546942065,309.00000000011505 226.6450600126498,308.99999999956833 C 227.70959455557815,309.00000000154216 228.77412909954447,308.99999999482327 229.83866364020372,309.00000001579605 C 230.90319819004736,308.99999995986644 231.96773272170464,309.0000000562142 233.03226724365814,309.00000023381165 C 234.0968021538184,308.9999971609101 235.1613341264816,309.0000186840042 236.22588297980118,308.99989886345617 C 237.29034652550277,309.00049333321965 238.35520831566572,308.9977532571649 239.41831410435975,309.00971637959265 C 240.4888155207179,308.95975507690986 241.50009203753325,309.261651951185 242.03524436434896,310.1946540154154 C 241.98916495913096,311.2646955668599 242.00296568835148,312.3275695473288 241.999807712334,313.3925347373412 C 241.99746289477102,314.4571223407531 242.011104977342,315.5209534165541 241.9565780180133,316.5883684477122 C 242.3308181172966,317.59792402087106 243.2991088106626,318.01522709152727 244.34445681324618,318.13328187118896 C 245.00394393251383,319.0155742248455 244.99522305682285,320.0805702033935 245.00198102004947,321.14474717198186 C 244.9996519021288,322.20940495252313 244.99849208170147,323.2740008633778 245.00788842031147,324.33803823251566 C 244.9652227652386,325.4048302780646 245.2082053771927,326.44345438772814 246.11612051050506,327.0144451018264 C 247.1757105682501,327.0505519007326 247.94499171333163,327.8362099220259 248.00812042189395,328.89680609120194 C 247.99926370897757,329.9618092560378 247.99991221298066,331.02630948590365 247.99959265046184,332.0908609375894 C 248.00340660221858,333.15519367897133 247.98111108869733,334.2209079104601 248.10700531531617,335.2758414493209 C 248.936482483205,335.98585317373124 249.99931373592995,335.99987274245365 250.85922198282856,336.66256300515295 C 251.0250094832206,337.7128307730868 250.9949509773479,338.7789557558879 251.00077818589122,339.8431819729002 C 251.00024704435205,340.90774461954214 250.9995234855894,341.9723174472616 250.9973160866062,343.03696878714385 C 251.03051455637907,344.0996137228183 251.76246119789357,344.92310898770467 252.81827668167924,344.98275275055556 C 253.7499302200739,345.4991619993418 254.0390871641051,346.52900420923663 253.99070981064466,347.59609846912554 C 254.0019150747745,348.66004012536246 254.0003243525459,349.72465883585033 253.99749822656145,350.78934291389584 C 254.00765796459598,351.8533398891719 253.98187814083246,352.9192384837555 254.5972777707808,353.8299451105996 C 255.63447800557682,353.9887561300989 256.6204130470823,354.35053544434237 257.04342657802914,355.3456937140791 C 256.98840551050233,356.41313539992217 257.00278880050564,357.4769258824114 257.0000812916555,358.5415353171263 C 256.9970169890298,359.60649689059716 257.01159113786974,360.6692761005898 256.9593666648357,361.7400524156864 C 257.4463523587098,362.6931094853837 258.4449206055891,363.0429779546693 259.5158782321652,362.98919675234544 C 260.57881076748475,363.00261054483116 261.6437292534379,362.9993957485239 262.70817576494363,363.0001328475356 C 263.77272943246544,362.99997271712795 264.8372601135373,363.0000050548616 265.90179535270954,362.9999992271061 C 266.96632979574326,363.0000000655088 268.0308643450057,363.00000001444374 269.0953988911637,362.99999998937386 C 270.1599334325563,363.0000000042077 271.2244679763879,362.9999999986174 272.2890025193374,363.00000000041246 C 273.35353706256444,362.99999999988444 274.4180716057111,363.00000000003104 275.48260614887965,362.99999999999204 C 276.5471406920423,363.000000000002 277.6116752352066,362.99999999999955 278.67620977837055,363.0000000000001 C 279.7407443215346,363.00000000000006 280.8052788646985,362.99999999999994 281.86981340786235,363.00000000000017 C 282.93434795102644,363.00000000000006 283.9988824941905,363.0 285.0634170373543,363.0 C 286.1279515805183,363.0000000000001 287.1924861236823,363.0 288.25702066684636,362.99999999999994 C 289.3215552100103,363.00000000000006 290.38608975317436,363.00000000000017 291.45062429633816,363.0 C 292.515158839502,362.99999999999983 293.57969338266616,363.0 294.6442279258302,363.0 C 295.70876246899405,362.99999999999994 296.773297012158,363.0 297.83783155532194,363.0 C 298.902366098486,363.0 299.96690064164983,362.99999999999994 301.0314351848139,363.0000000000002 C 302.095969727978,363.00000000000006 303.1605042711419,362.99999999999994 304.22503881430583,363.00000000000006 C 305.28957335746986,363.0000000000001 306.35410790063384,363.0 307.41864244379775,362.99999999999994 C 308.4831769869617,363.0 309.5477115301257,363.0000000000001 310.61224607328967,362.99999999999994 C 311.67678061645364,362.99999999999994 312.74131515961767,363.0000000000001 313.80584970278153,362.99999999999994 C 314.8703842459455,363.0 315.9349187891094,362.9999999999999 316.99945333227356,363.00000000000017 C 318.0639878754376,363.0 319.1285224186014,362.99999999999994 320.1930569617653,362.9999999999999 C 321.2575915049294,363.00000000000017 322.32212604809354,362.99999999999994 323.3866605912573,363.00000000000006 C 324.4511951344212,362.9999999999995 325.5157296775855,363.0000000000023 326.5802642207489,362.9999999999917 C 327.6447987639148,363.00000000003087 328.7093333070714,362.99999999988967 329.773867850261,363.00000000037073 C 330.83840239334495,362.99999999886836 331.9029369367224,363.0000000028781 332.96747147951737,362.99999999594684 C 334.0320060220139,362.99999998341053 335.096540576845,363.0000002025583 336.16107503817335,362.99999866540185 C 337.22561003720074,363.000007228108 338.29014231786067,362.9999647303785 339.354687292141,363.00016066318165 C 340.4191762843448,362.9993050570387 341.48390109284315,363.0028789046123 342.54767201921175,362.98853551389436 C 343.61515317531376,363.04388319734693 344.6189779605441,362.64853298856684 345.01405707063117,361.67604537006645 C 345.14659527061343,360.62206083846047 346.0424136007917,359.99331190743845 347.10337775024004,359.9743738135377 C 347.9123729483516,359.23612880068856 348.01504781078137,358.1788830857131 347.99755596019656,357.11341733201 C 348.00026273850494,356.04902684244394 348.0000205053885,354.984479392707 347.9999667508273,353.91994293655307 C 348.00007178085764,352.8554065811386 347.9996522995802,351.79089273138123 348.0017177053612,350.72624940087235 C 347.9920580885115,349.6622258135531 348.03477150847635,348.5954312827746 347.79196463365776,347.55677599071555 C 346.8841248599104,346.98557352407886 345.8246175151392,346.9495400397618 345.05532258659036,346.1640318900401 C 344.99141917346833,345.1034795181761 345.0014189247983,344.03841587349206 345.00199484642184,342.97385085747095 C 344.97302323002094,341.91094417330913 344.24742256197266,341.08158590966264 343.19251254367,341.01740224759226 C 342.25715062969965,340.5100466135252 341.96032340246643,339.4818101636232 342.0094969271758,338.41467377713604 C 341.99802111850846,337.35074643584215 341.9996838493331,336.2861239151514 342.0025669186505,335.2214368245607 C 341.99195357558654,334.1574638489465 342.0201019047225,333.0914399363983 341.4121050949806,332.17639371067554 C 340.37639929694575,332.01045581363854 339.3877754901671,331.6576602800568 338.9567696485088,330.66507989106447 C 339.0116303357668,329.5976425884648 338.99717753664027,328.5338727641028 338.99994455511563,327.4691918139324 C 339.0029467697494,326.40449841918837 338.98844002939614,325.3407314489359 339.0409255167336,324.27341982164785 C 338.56436172829183,323.2968306024901 337.5613255620789,322.9945639525562 336.5353714650226,322.7856908416374 C 335.970017324809,321.84746063018554 336.01123574028986,320.78074516019666 335.9903833417036,319.7173139480295 C 336.0313060859788,318.6506141224381 335.82439265952,317.60597826147466 334.93854944715986,316.99066813504567 C 333.8768652598251,316.9683296709416 333.07821456622906,316.2170128789804 332.98690000957686,315.15871812200425 C 333.00193415524996,314.09338810013963 332.99988650959085,313.0289619009111 333.000141806989,311.96441384958734 C 332.99791354057857,310.89999720726786 333.0137143060563,309.83462662242493 332.91883662669653,308.7766498856868 C 332.11677808153667,308.02961000570974 331.05494351238383,308.00852958081686 330.1714385761523,307.38804402648447 C 329.9701284213318,306.3426872244463 330.0064219764005,305.27623233604606 329.9988828659361,304.2120966982758 C 329.99967933623446,303.14752001269994 330.00128481332825,302.08290052138784 329.99877325778175,301.01849886831184 C 329.9872227583355,299.95458799441747 329.28850090278786,299.10201200040706 328.2369284499853,299.01726236874765 C 327.2875479025844,298.54744329607377 326.9574501529539,297.52643974333 327.01338436883515,296.4589456387562 C 326.98583926518245,295.3958685474311 327.0436857562251,294.32827326157326 326.6068349969129,293.3373569918703 C 325.61698021540235,292.99004052055625 324.5821280388827,292.81967034951106 323.978729410986,291.9019991491722 C 324.0082731725462,290.8359014022473 323.99739599688957,289.7719423864027 324.00031042296587,288.7072536366802 C 324.00201793566976,287.64262874651433 323.9903781094725,286.5787100836283 324.0400274000074,285.5115485236737 C 323.73843503079945,284.4843251414711 322.8008962704543,283.9825390265763 321.74632494680446,283.9154891551446 C 321.0246485214984,283.0825756036007 320.99862140092785,282.01949378474825 320.9992488791664,280.9549260407901 C 321.00027575124045,279.8903371643184 321.0008828672308,278.8257704977568 320.99451593078464,277.7615728385397 C 321.0265750278641,276.69534200152304 320.84980419057456,275.6465156186594 319.98226262824414,274.99688485017435 C 318.91968106959456,274.98131845903 318.09890851975183,274.2593712533839 317.98203886725446,273.2034528840355 C 318.0049966260207,272.1377036121793 317.99516050973506,271.0736895123564 318.00226479174484,270.00877907121037 C 317.3381116372083,269.12965423035683 316.2922246832558,269.0155429279914 315.3258372318523,268.59240801264974 C 314.9566940710473,267.58147923697845 315.01102835299514,266.51406978725595 314.9974925913795,265.45025144109405 C 314.9998038099782,264.38559460796375 315.00293026874596,263.3208946392804 314.98936845442665,262.25707767160543 C 315.0342430721581,261.1901687465923 314.4965596424509,260.23894368939017 313.47687725948964,260.0020749772745 C 312.46596685286124,259.72994974453076 311.9615571714404,258.7643036163098 312.01126811798264,257.6971387940451 C 311.99703151904794,256.63335753021397 312.0001219344892,255.5686594686359 312.0026979286737,254.5039886258409 C 311.98855246780596,253.4402025397608 312.04366375349366,252.37275197763054 311.6407335682318,251.37140444941485 C 310.6617240195485,250.9869345979564 309.6212207548901,250.84545051040928 308.98717007129704,249.94603009331425 C 309.00728941179904,248.88043100633217 308.99344632497537,247.8166289211979 309.02233184912643,246.75056600257994 C 308.87854428370866,245.69754852089258 308.0359839756394,245.0074438427827 306.97300646645033,244.99456061531694 C 306.1258666578155,244.31111057769584 305.9775978715998,243.2586873518757 306.0043386396111,242.19273791545118 C 305.9993870598793,241.1284653676343 305.9998112470264,240.0639083801062 305.99998847954276,238.99936445930967 C 306.0049346876668,237.93456820501848 305.9593927065773,236.87272209405737 305.2110927644418,236.065072997897 C 304.15347500181673,236.01644678315884 303.2317434526163,235.47639353524724 302.96262961651365,234.44256103731527 C 303.0087133213602,233.37558813772955 302.9982572217221,232.31160684213495 302.99965958892165,231.2469980976653 C 303.0023040907318,230.18232363003148 302.993472478939,229.11825638040233 303.01247004289087,228.05271664826273 C 302.37788471038766,227.1538224040208 301.3368895899258,227.01315068298499 300.35869075073015,226.6275850595988 C 299.95564946181196,225.6260120606459 300.01418896760714,224.55838010636094 299.98610727882703,223.49533140654225 C 300.0438851688243,222.4277397504666 299.6804044022653,221.41506355342295 298.7171680795919,220.98405867900235 C 297.6699984385337,220.87518155619864 297.00009013585316,220.00034596198682 297.0039330532432,218.93560808443243 C 296.9981804099565,217.8713779220631 297.0003459688224,216.80672879600286 297.0014059852327,215.7421381658158 C 296.99248288232525,214.6780757571157 297.03356720304384,213.61136738227754 296.801621007962,212.57085400548408 C 295.89986818373774,211.98676851038474 294.83957463235413,211.95526783212858 294.0615370488601,211.17938799574705 C 293.9904556757084,210.11940288535368 294.0010714654732,209.05430664518124 294.0000356833373,207.98982690676957 C 294.00032476841966,206.92527706768993 293.99698704654156,205.86091912828644 294.0173709969658,204.79530604040502 C 293.9007849318591,203.73940759993673 293.07913143612416,203.01833739981583 292.0164819873651,203.0029080850182 C 291.14985245234766,202.35229597244697 290.9726860037229,201.30342479787052 291.00827189900724,200.2370073527876 C 290.99035330070467,199.17342090894377 291.02303911903596,198.1071569111864 290.4256063498963,197.18589795482947 C 289.3924662486992,197.00923741783848 288.399909585131,196.66960218193253 287.9571708931383,195.68093104772848 C 288.0116565892417,194.61351358646078 287.99713599006435,193.54974734949894 287.9999729278339,192.48506269979634 C 288.00292505958214,191.42037195501103 287.98837476061647,190.35660728950867 288.0417217039689,189.2892500813195 C 287.57684565402366,188.30833204814073 286.5774142004777,187.9932003077517 285.54856995115614,187.79573494706852 C 284.9724962161657,186.8632018555134 285.0094520534329,185.79671192479063 284.99721475221,184.7328248751848 C 285.000269810089,183.6681286844271 285.00223785654225,182.6034900090384 284.9897056633194,181.53961856260082 C 285.04178487186107,180.4723284321201 284.7119627414042,179.451479650384 283.7617116793167,178.98276373207267 C 282.71050596288075,178.8973689804956 282.0124672549763,178.0441571148029 282.00141232654084,176.9802190116402 C 281.9969120191282,175.9159225863427 282.0128287643207,174.850545864843 281.9255793666765,173.79186763478222 C 281.13191152183515,173.03462559096081 280.07060340322465,173.01037947414142 279.18061372532287,172.40239040985637 C 278.9688090851093,171.35862941956714 279.00680722769357,170.29208433894118 278.9987831648297,169.22797436071355 C 278.99966705800495,168.16339304946501 279.0014838064922,167.09876237947373 278.997780317833,166.03442379332733 C 278.9918313725683,164.9702075458566 278.3029489475518,164.1097236904792 277.252894872589,164.01692546843478 C 276.2981701007846,163.560588102434 275.9576891872346,162.54229948278163 276.010518204643,161.47496967881378 C 275.997684434162,160.41111418927127 275.99974852914823,159.3464704318139 276.00283576592767,158.2817725384234 C 275.9901797504957,157.21790764360043 276.0295346047308,156.1512907773709 275.4638350760499,155.21348352496503 C 274.4372740553292,155.0055525522753 273.4349679910406,154.7022355565634 272.9584921593287,153.7253386894567 C 273.01376794735677,152.65787942326628 272.9874831410984,151.59473564775774 273.0400300447437,150.52742077084287 C 272.74855574043835,149.4978689015726 271.81679330509155,148.98272320836955 270.7610168095383,148.92244966059903 C 270.02998467819094,148.09811415730834 269.9974338244486,147.0354290082677 269.9994985840704,145.97078521564333 C 270.00024974676154,144.9062109273596 270.000787340814,143.84164793930586 269.994912546544,142.77742424012413 C 270.02514874911236,141.71128985512993 269.85839960733847,140.66114543328578 268.9978131908226,139.99959639551955 C 267.9349972116167,139.98546643092968 267.10625738402933,139.27439476667686 266.98125517977365,138.21936673719574 C 267.0033689960372,137.1536621195754 266.9996006470715,136.08932696528285 266.9999169438671,135.02477568639142 C 266.99923250359734,133.96027735796616 267.008253675661,132.89526549135547 266.94438522663773,131.8347250628119 C 266.17427575487693,131.0499871410175 265.11456589622173,131.014341005267 264.2076292511502,130.44207935707541 C 263.96445084012396,129.4033375725628 264.0110266907162,128.33633863282367 263.9873590780481,127.27305637776308 C 264.0362332209149,126.20593583200852 263.50938146949323,125.24959039802204 262.49297929851025,125.00063334494904 C 261.47883913511316,124.74090261218582 260.96286489396806,123.7801068098985 261.0110825167417,122.71302100158515 C 260.9970367634629,121.6492296398304 261.00014853491115,120.58453044827446 261.0026364889999,119.51986426381019 C 260.98867443421653,118.45606847344523 261.0436447467486,117.38862537041152 260.6524572855897,116.38383107610323 C 259.6777121090554,115.98598155301389 258.63525018509847,115.85427911606803 257.9906343884988,114.96171917831552 C 258.00648678189316,113.89634586176382 257.99397795468207,112.83247317899622 258.02082275669414,111.76651823798029 C 257.88653989544633,110.71243244092909 257.0514039223484,110.0110940281539 255.98849338807582,109.99778491447528 C 255.13413998853764,109.32588279766217 254.97613233434777,108.27463728270756 255.00473597725005,107.20858927884017 C 254.99929549155578,106.14434259975464 254.9997767862954,105.07978259058007 255.0002681002217,104.0152220512755 C 255.0036562718537,102.95050823498046 254.9651265397765,101.88820077702647 254.22592772685698,101.0716001814758 C 253.16928534834443,101.01696625591217 252.24194561691306,100.49012489256708 251.96164099552865,99.45848573380779 C 252.00904167538482,98.39144315114237 251.99816006961774,97.32748436970132 251.99966760009374,96.26287006088859 C 252.00241940262487,95.19818991581624 251.99282020963756,94.13416328003379 252.01571451483812,93.06841736559898 C 251.3918427137285,92.16283427067461 250.3528850652272,92.01211644539076 249.37053076959774,91.63988318645124 C 248.95576344434747,90.64187841676878 249.01420961885222,89.57425140077945 248.9862581792267,88.51119580928676 C 249.0435136518406,87.44363179508113 248.691655405507,86.42795279430736 247.73310852049104,85.98347839772988 C 246.68432380223499,85.88329510039247 246.0042834369321,85.01599592997077 246.00304759616515,83.95152732237132 C 245.99835273215362,82.88724119134892 246.00034055828715,81.8226014693883 246.0013055091395,80.7580158692592 C 245.99285652433468,79.69392837427483 246.03232647332877,78.62730541821279 245.81112382203267,77.58502730095572 C 244.91557162302718,76.98818312949378 243.8546681092123,76.96074743859907 243.0681611333736,76.19468700860206 C 242.9890282452054,75.1353507999015 243.00141356255642,74.07016093142893 242.99997902354676,73.00570229182829 C 243.00024743641254,71.9411535465458 242.9973682102639,70.87677134746082 243.01588164547928,69.81125723128294 C 242.90825027557784,68.75447249234004 242.09444180791002,68.02272229426382 241.03205446205436,68.00537606538553 C 240.15862669006046,67.3668511147842 239.97126881805903,66.31937217034881 240.00875199810883,65.25285433714593 C 239.98975963850623,64.18932470758757 240.0256243439615,63.122892510249855 239.43923637491852,62.19558001084478 C 238.40849242151032,62.00796302666229 237.41219147459032,61.68139275888792 236.95770081349488,60.69677539603795 C 237.01165336176066,59.62938614405545 236.9971006688189,58.565621606706465 237.000001689305,57.50093356015782 C 237.00289552696964,56.4362459241938 236.9883446386337,55.372481196642525 237.04236853789772,54.30508851069405 C 236.58925997285004,53.319984828745234 235.5933929030835,52.99188765456335 234.562364036832,52.80555294712693 C 233.97466822642545,51.8789734418833 234.01018209017198,50.812469071873956 233.991256554676,49.749405531920814 C 234.0287894696072,48.68063244652289 233.84130435317195,47.64415719346728 232.97007364483332,46.992434040094636 C 231.90395263211394,47.00556917522925 230.84035711711135,46.997794514975894 229.77546865693003,47.00072476209801 C 228.71104777258816,46.99978372671351 227.64647978908414,47.00006059517548 226.5819545191326,46.99998381784448 C 225.51741752056083,47.00000414733219 224.4528836017748,46.999998977809675 223.3883489059362,47.000000241877274 C 222.32381439858474,46.99999994536825 221.25927984741648,47.00000001163865 220.1947453059339,46.99999999771637 C 219.13021076244718,47.00000000039107 218.06567621933635,46.99999999995062 217.00114167616627,47.0000000000002 C 215.93660713300204,47.000000000002785 214.8720725898386,46.99999999999869 213.8075380466744,47.00000000000048 C 212.7430035035104,46.99999999999985 211.67846896034655,47.00000000000004 210.6139344171825,47.0 C 209.54939987401855,46.99999999999999 208.48486533085463,47.00000000000001 207.4203307876907,47.00000000000001 C 206.3557962445266,47.00000000000002 205.29126170136266,47.0 204.2267271581987,47.00000000000001 C 203.16219261503477,47.000000000000014 202.09765807187065,47.00000000000001 201.03312352870662,46.99999999999999 C 199.96858898554297,47.000000000000014 198.90405444237882,47.000000000000014 197.83951989921476,47.00000000000001 C 196.7749853560508,47.0 195.71045081288702,47.00000000000001 194.64591626972296,47.000000000000014 C 193.58138172655885,46.99999999999999 192.5168471833949,47.00000000000001 191.45231264023113,47.00000000000001 C 190.3877780970671,47.00000000000001 189.323243553903,47.00000000000001 188.2587090107391,47.00000000000001 C 187.19417446757507,47.00000000000001 186.12963992441124,47.00000000000001 185.06510538124712,47.0 C 184.00057083808326,47.00000000000002 182.93603629491923,47.0 181.87150175175532,47.00000000000001 C 180.80696720859126,47.0 179.74243266542737,47.000000000000014 178.67789812226331,47.0 C 177.61336357909934,46.99999999999999 176.54882903593543,47.0 175.4842944927715,47.00000000000002 C 174.41975994960742,47.000000000000014 173.35522540644334,47.00000000000001 172.29069086327954,47.0 C 171.2261563201156,47.00000000000001 170.16162177695153,47.000000000000014 169.09708723378742,47.0 C 168.03255269062373,47.000000000000014 166.9680181474597,47.00000000000001 165.90348360429562,47.00000000000001 C 164.83894906113156,46.999999999999986 163.77441451796784,47.000000000000014 162.70987997480384,47.000000000000014 C 161.6453454316397,46.99999999999999 160.5808108884757,46.99999999999999 159.5162763453118,47.000000000000014 C 158.45174180214786,47.0 157.38720725898384,47.0 156.32267271581992,47.00000000000001 C 155.25813817265592,47.00000000000001 154.19360362949206,47.000000000000014 153.12906908632792,47.0 C 152.06453454316403,46.99999999999999 151.0,47.0 150.00000000000003,47.000000000000014 " fill="none" stroke="black" /></svg>