<?xml version="1.0" encoding="utf-8" ?>
<svg baseProfile="tiny" height="100%" version="1.2" width="100%" xmlns="http://www.w3.org/2000/svg" xmlns:ev="http://www.w3.org/2001/xml-events" xmlns:xlink="http://www.w3.org/1999/xlink"><defs /><path d="M 316.00000000000006,277.00000000000006 C 316.69983892400063,276.0797581319636 317.7430784553919,275.9874860953942 318.8301148356989,276.00276943015245 C 319.9105254563674,275.9983017708082 320.99157847465665,276.000577824965 322.07024939872264,276.02121418721424 C 322.90388466481505,276.75311051613244 323.0151885066159,277.8191274932063 322.99791846094166,278.9023660156031 C 323.0000862486463,279.9832777107438 323.000087339836,281.06444633055884 322.9998628279967,282.14567483442926 C 323.0006077130511,283.2265646987696 322.99693420815527,284.3091941150757 323.0142798561507,285.38345927740716 C 322.938150870073,286.4949486557461 323.3792405670925,287.39951023310846 324.0374188812409,288.19560668984707 C 324.08791980372297,289.30126627466177 324.9652838627998,289.994156878122 326.0401817720087,290.01234705655577 C 326.79328230526215,290.7611008725004 327.6516298203266,291.54762594080466 328.0498689415741,292.4380992491765 C 327.98786405221654,293.55002652852215 328.0027748955781,294.62380275707034 327.9993909735043,295.706649742215 C 328.00018996056644,296.78743508639394 327.9997670866161,297.8687875658629 328.00035949719097,298.94972131235426 C 328.00095002446795,300.030657805649 327.98585769570246,301.1178398803583 328.102181012984,302.1526449740287 C 328.94174603199997,302.8878149796674 328.99423436841323,303.93894223636715 329.609618607549,304.8618804238856 C 330.7140070289085,304.9765209519507 331.55607251622416,305.45285321884074 332.3607579337974,306.31370559610394 C 333.0262628964043,307.09169869119256 332.9893714492986,308.19116922378555 333.00343357687825,309.26536601485907 C 332.9989952435319,310.3487369739026 333.0003426230259,311.4292497289479 332.9995992310346,312.5107494158738 C 333.00133675018276,313.59122107070897 332.99512299694504,314.67486905459714 333.0165221355805,315.74751801804143 C 332.95093275849524,316.85481050448556 333.69531972637947,317.6351865034223 334.0135389786799,318.56157837344955 C 334.3070566441861,319.6231015882327 335.34837304602013,320.0063561756347 336.31660076766826,320.1858511982198 C 337.0626027231118,321.06166596300545 337.89215548762826,321.79963901202086 338.0170404132041,322.81933512326566 C 337.9977484248394,323.91007584503427 338.0000589589744,324.99010141617964 338.0001100207438,326.0712487449355 C 337.9998493670108,327.15253838363 338.00062985825053,328.2333927550617 337.99686491974256,329.3160657880128 C 338.0144985427244,330.390214134508 337.9375548579733,331.5020285491712 338.3851627959368,332.4039583922122 C 339.0377181764516,333.202083895606 339.0909873574924,334.3078379820314 339.9723777915367,334.99545067779115 C 341.0458496976045,335.0143390034706 341.79798279737224,335.7670366897375 342.65681022898684,336.5521232475824 C 343.0495830723895,337.44508345732584 342.98799653146455,338.55680322420966 343.00272872886444,339.63066806598994 C 342.9994052283126,340.71348509903726 343.0001846193734,341.794280005966 342.99977657250236,342.87562609932763 C 343.0003142648726,343.9565817586101 343.00117111772784,345.0374121603365 342.9848979207478,346.1250645197996 C 343.1065722624072,347.1577340866124 343.9452095663516,347.89308880819226 343.9947217241596,348.94610881853913 C 344.61602297124165,349.8655014198314 345.72070150512167,349.9762518441069 346.5605337131256,350.45852907918794 C 347.3665327196149,351.31824571265537 348.02761436462447,352.0978707396408 347.9891362020466,353.1981283191498 C 348.0034670121754,354.2721918492895 347.99899277938266,355.35558057330076 348.0003426718937,356.4360922110093 C 347.9995974480852,357.51759247929766 348.00133879710654,358.59806268636765 347.995144759221,359.6817027905187 C 348.0163071369532,360.75444605242706 347.95231554482086,361.8611022208097 348.7009287795916,362.6396970760352 C 349.01273155035454,363.56872697597134 349.3121334712321,364.6284762331981 350.35554902086113,365.00582903498304 C 351.32137710473734,365.1902306566484 352.0680785264858,366.0668443043365 352.8958110355978,366.8047052794542 C 353.01628888090136,367.82655031052116 352.9979333645315,368.91682652503107 353.0000178792209,369.99696417597715 C 353.00011932815823,371.0780866595504 352.9998427566737,372.1593835696224 353.0006495501381,373.2402272996211 C 352.9967969812619,374.32293525635777 353.01471290135686,375.3969711761942 352.936981067519,376.5090994696998 C 353.39109652586353,377.40840113871957 354.0379741957307,378.2085797449948 354.09409867623333,379.31439272890765 C 354.9794786844271,379.99669442774206 356.0514956101713,380.0163856150748 356.8026932596559,380.77296738322076 C 357.66197058314265,381.55662553332337 358.0492773022018,382.4520775367974 357.98813298731477,383.5635779477235 C 358.002681855764,384.6375337240147 357.999419593581,385.72032040589863 358.00017919897584,386.801124947752 C 357.99978637251957,387.8824645322221 358.00026779210805,388.9634426664806 358.00139583108233,390.04416490590074 C 357.9839333774824,391.13229298716493 358.1109901843945,392.1627993104804 358.9485792790955,392.8983748307122 C 358.9953011328404,393.95328113955327 359.6214137674852,394.86881380305664 360.72991599910654,394.9766689676368 C 361.54959941866304,395.4602018365753 362.41122145946804,396.3329360497683 362.9945429238191,397.09500384798963 C 362.22386060305564,397.91310134426715 361.13183214962197,398.01271535259366 360.0524449335747,397.99877734938264 C 358.9711372106172,397.99984117579896 357.88992747545507,398.00013958127346 356.8087808824905,397.99994475837724 C 355.7276000161441,398.00001765825556 354.64643138954744,397.99999494866756 353.565259037685,398.00000133858566 C 352.4840877178092,397.9999996672526 351.4029161314295,398.00000007768443 350.3217446096999,397.99999998311165 C 349.2405730732732,398.00000000334137 348.1594015399371,397.99999999943134 347.07823000601854,398.00000000006935 C 345.99705847219053,398.0000000000006 344.91588693835433,397.99999999999585 343.83471540451694,398.00000000000205 C 342.75354387068023,397.9999999999993 341.67237233684347,398.0000000000003 340.59120080300664,398.00000000000006 C 339.5100292691698,398.00000000000006 338.428857735333,398.00000000000006 337.34768620149634,398.0000000000001 C 336.2665146676594,398.0 335.1853431338226,398.0 334.10417159998576,398.0 C 333.023000066149,398.0 331.94182853231223,398.0000000000001 330.86065699847535,398.0 C 329.77948546463864,398.0000000000001 328.6983139308019,397.99999999999994 327.617142396965,398.0000000000001 C 326.53597086312806,397.99999999999994 325.45479932929146,398.00000000000017 324.3736277954546,398.0000000000001 C 323.2924562616177,397.99999999999994 322.21128472778094,398.0 321.1301131939442,398.00000000000017 C 320.04894166010735,397.99999999999994 318.9677701262705,398.0 317.8865985924337,398.00000000000006 C 316.8054270585968,398.00000000000006 315.72425552476017,397.9999999999999 314.64308399092334,397.9999999999999 C 313.5619124570866,398.0000000000001 312.4807409232498,398.00000000000006 311.39956938941293,398.0 C 310.31839785557605,398.0 309.2372263217394,398.0000000000001 308.15605478790235,398.00000000000006 C 307.07488325406575,397.99999999999994 305.99371172022876,397.9999999999998 304.91254018639205,398.00000000000006 C 303.8313686525554,398.0000000000001 302.75019711871846,397.9999999999999 301.6690255848817,398.00000000000006 C 300.58785405104487,398.0 299.5066825172081,398.00000000000006 298.42551098337105,397.9999999999998 C 297.3443394495345,398.00000000000017 296.2631679156976,397.99999999999943 295.18199638186115,398.000000000002 C 294.10082484802336,397.99999999999517 293.01965331418774,398.00000000000404 291.9384817803573,398.0000000000534 C 290.8573102464492,397.99999999949716 289.77613871307244,398.00000000309007 288.69496717679095,397.9999999839929 C 287.6137956545896,398.00000007488285 286.5326240695418,397.9999996748532 285.45145274692027,398.00000132473883 C 284.37028039466264,397.99999493173476 283.2891118179935,398.00001803132534 282.2079305518813,397.999942008722 C 281.126786369092,398.00015565843614 280.0455637580268,397.9997566742546 278.96431932994835,397.9991872688601 C 277.88465470516724,398.01095832409544 276.79349988818296,397.9213649168889 276.00799394398484,397.1087229863987 C 276.573266848235,396.34435661519024 277.4396311412013,395.47412740511515 278.2538822064051,394.9761676170511 C 279.3628002466995,394.8774013087181 280.0032018976083,393.9707403435236 280.0433519025473,392.9114000791705 C 280.87798287914717,392.1751052708433 281.01845791202146,391.14995739030667 280.9980394798995,390.06065172706553 C 280.99985064992967,388.98020169000034 281.0001886009638,387.89916611419443 280.99983427091445,386.8178430316839 C 281.00054493559065,385.7370146520301 280.9974353971311,384.65430366736877 281.0115177324165,383.58011648085346 C 280.95155050801924,382.4691999385161 281.32551219026925,381.5676441245508 282.1857588132201,380.78742851439426 C 282.93480618605105,380.02161166923497 284.00315038740655,379.99952043822634 284.8981197555401,379.33032931535456 C 284.9615770851564,378.22452206705333 285.5943667240788,377.4192305938343 286.0643236071867,376.52633084030646 C 285.9847818525708,375.4134817497431 286.0033660787343,374.3397119858671 285.9993026264698,373.2569199901286 C 286.00017324955627,372.1761020597648 285.99985883277634,371.09478791683426 286.00007854814794,370.0137237258261 C 286.0016240997875,368.93331881594486 285.9855337358598,367.8441661575878 286.09541880780887,366.8171491552243 C 286.9184889145415,366.0794175184733 287.66700399460393,365.20107116719015 288.6269416650125,365.0044836390604 C 289.6753356793276,364.6414844899016 289.9892276586079,363.5862125848937 290.28547370950344,362.6507480469985 C 291.04408488402834,361.8763804818503 290.98426990677456,360.77138765045567 291.00479021337117,359.6983886629252 C 290.99865885555806,358.6147735917593 291.0004062504224,357.53430559194715 290.9996577912342,356.4528044526668 C 291.0010110489505,355.3722941813412 290.9964609589259,354.2888679308694 291.01139671604454,353.21510443967225 C 290.9692615445154,352.11303290114637 291.6193762483757,351.32930796236735 292.4285725457734,350.47245265044023 C 293.2630098769514,349.97570007219997 294.36825506939107,349.87418052494417 295.0038857073458,348.9635873542075 C 295.04657935624385,347.90605980111064 295.88250926740534,347.17008528960775 296.01747741015635,346.14272228041887 C 295.9982729101737,345.05390252049494 295.9998012421131,343.97333960008683 296.0001990857977,342.89232795471406 C 295.9998286976232,341.81099802987785 296.00055952621244,340.7301794532406 295.9973869304043,339.6474372197155 C 296.0116634190905,338.5733463358692 295.9511979266194,337.4621826395627 296.33062219242566,336.56312876433805 C 297.1904944775226,335.781511926029 297.94039918532155,335.0194331363045 299.0102673104563,334.99839980946604 C 299.90133698932715,334.32381688166413 299.96173101932726,333.21798163566837 300.6003258060473,332.4148001515585 C 301.063806357854,331.5192824372311 300.98498548935606,330.40672043794615 301.003299832783,329.33284319225237 C 300.99932215412366,328.25008537716826 301.00016672121086,327.16925691927474 300.99986762207277,326.0879497416928 C 301.00003974008183,325.00686209437305 301.00180365164385,323.92656546307285 300.98478995662896,322.836954816137 C 301.0989823136652,321.81204202728924 301.92399854271673,321.07428220564003 302.67175329202604,320.1966081548643 C 303.6341075469213,320.0050439926586 304.68048864940863,319.6361789236538 304.9884281959857,318.5790490231383 C 305.29102314212383,317.64621732522613 306.04559714670904,316.87014032929403 305.98402464470877,315.7644475636904 C 306.0048188993077,314.69155768449514 305.99865935531517,313.60793135892305 306.0004048500653,312.5274626863706 C 305.9996575025135,311.44596180947576 306.0010098525149,310.3654512096648 305.99648881553213,309.2820393294037 C 306.0111855975888,308.2081573127965 305.97051059468174,307.1068100507914 306.625143168881,306.32478308828325 C 307.4330325766765,305.46674160362465 308.2696682944899,304.9759074535267 309.37470580410803,304.8706553732477 C 310.004491079607,303.9564354355642 310.04989829737036,302.9007333700355 310.8870124650779,302.16504155473405 C 311.016499847515,301.13549055712747 310.9985031965593,300.04715182666143 310.9997530796953,298.9664779878768 C 311.0002092548774,297.8854896914414 310.99982319937106,296.80415304857297 311.00057402601607,295.72334421420726 C 310.99733909534456,294.6405710840951 311.0118054084726,293.56657435726424 310.95086420368744,292.4551746947958 C 311.33575304553324,291.5586189139878 312.19521967750137,290.7755892897632 312.9460137034098,290.01730834393754 C 314.0173778383176,289.9972286195133 314.90451103426716,289.31728697678545 314.96192610912465,288.21145928009815 C 315.60627512971035,287.4103649266601 316.0632652200446,286.5122244852242 315.98519486454165,285.39996154544224 C 316.0032283177102,284.3259718081971 315.9993571217703,283.24325857618715 316.00011476648694,282.1623887732608 C 315.99997579658765,281.08116189486293 316.0,280.0 316.00000000000006,277.00000000000006 " fill="none" stroke="black" /><path d="M 252.00000000000003,78.00000000000001 C 251.30086862659354,78.97421844769029 250.25734746025216,78.96659943636821 249.256191167915,79.45464147280912 C 249.0216811974252,80.51677913307624 248.6304174497605,81.41679637701176 247.93884707912332,82.21767218423996 C 248.01751395232967,83.32992290814032 247.9980123298152,84.4032521749013 247.9886204242109,85.47880315796037 C 248.05051021520538,86.59045355655752 247.6305099993551,87.47068300190726 246.7744770443985,88.26275346640024 C 246.0175185145675,88.99499566224459 244.93764984549583,89.01137108330697 244.07651807474392,89.72419705658213 C 244.03587330399014,90.82881372160082 243.35718779994676,91.6171919327983 242.9405315289389,92.53123921123998 C 243.01345360767635,93.64108146158303 242.9971834406411,94.71540225104935 243.00054027809816,95.79754205865383 C 242.99987925719128,96.87807427136238 243.00006631372236,97.95895956851655 243.00024830614512,99.0398513060226 C 242.9969298585871,100.11900648882666 243.0202606400947,101.21137996188922 242.87639556105412,102.22146989763108 C 242.04005111556162,102.96000397989475 241.29692941662782,103.83170629791474 240.3193552105948,103.99167445963198 C 239.28713513785348,104.39858614130159 239.0167385076591,105.46646243766018 238.67328046592752,106.38218572962434 C 237.94622949842326,107.16948018844029 238.01668204268157,108.27827528765354 237.99768447590597,109.35181924075897 C 237.98963202796057,110.42801559520025 238.04848450522385,111.5381704472236 237.66945431814995,112.43700382397373 C 236.80965618927297,113.21824709066277 236.06011717263837,113.98036584467813 234.99077755839673,114.00143237131297 C 234.0993051168994,114.67487194141445 234.03831238682537,115.78035105434515 233.40151649380374,116.58382869055544 C 232.9360028890793,117.47815428202418 233.01510011287215,118.59045577294603 232.9966688195083,119.6639158765305 C 233.00068812687613,120.74631971531329 232.99982948702268,121.82677191532484 233.0001379773729,122.90771281152291 C 232.99993344272917,123.98841391158138 232.9983299113497,125.06841950600395 233.0146171179137,126.1572992353025 C 232.90405239735347,127.18361324509421 232.08098757443935,127.92106914526886 231.3328026554465,128.79911138453159 C 230.37315433912696,128.9955239558819 229.32501356180666,129.35815810272976 229.01067534049696,130.41291509861747 C 228.7154996644987,131.34845422854914 227.95627060076612,132.1221871255294 228.01565809030234,133.22663914362948 C 227.99522014811419,134.29930036935536 228.00134116298725,135.382540743973 227.999593175902,136.46263797879894 C 228.0003420129271,137.5437686106485 227.99898850605828,138.62390825359756 228.00355491217374,139.7069720080832 C 227.9884686049442,140.7802902639612 228.0316091598581,141.88248992908873 227.3850711074847,142.66720472399567 C 226.5751097783735,143.52282076404168 225.74283727978522,144.0244608619703 224.63778329716885,144.12256055320566 C 223.99676245594577,145.02935166846896 223.95680197089445,146.08835761391023 223.1223994088424,146.8243648610909 C 222.9815653424264,147.849040061364 223.0016806430219,148.93780269680235 222.99973277573864,150.01782059734975 C 223.00901256611598,151.10325502516667 222.92965703353485,152.14483488220034 222.12270322880673,152.88311640235258 C 221.36804516378436,153.76461942781538 220.42670848432047,154.0000677995611 219.3646092265288,154.31933483009854 C 219.00490176679392,155.359056242334 218.75619415418254,156.31419126754392 217.9694594444816,157.07615816111766 C 218.01337837311092,158.17444982842258 217.99553821449186,159.24814568627244 218.0013213612584,160.33125127184658 C 217.9995885273774,161.4113552538619 218.00033513549542,162.49248321833713 217.99899703910896,163.57263129533484 C 218.0036851436552,164.6557551313552 217.98723248474354,165.728395731015 218.03947622104084,166.83511077491738 C 217.4281194411408,167.6334928414002 216.60855085398472,168.47953158432816 215.79213857735814,169.02492273994002 C 214.68683192585917,169.09770121768338 214.00333203034194,169.97602444785844 213.97922994322332,171.0475477700745 C 213.15795053457646,171.7873040246663 212.97386914391052,172.79467649448253 213.00386161644502,173.88742202290788 C 212.9997249523288,174.96657540447515 212.9999030028367,176.0474468118906 213.0001200348833,177.12834096062792 C 212.99957264847046,178.2088780152766 213.00215941699108,179.29095939135073 212.98977134736901,180.36561638601694 C 213.04496213585782,181.47379312699235 212.71523108140164,182.3954016932083 211.8534309154287,183.16440854610607 C 211.11049279274238,183.95843758508323 210.05610467679162,183.99308402312252 209.13038930821068,184.6160023680568 C 209.03822607400593,185.7198414390918 208.4562257897961,186.54340176747976 207.93254762521323,187.41420488774367 C 208.01580575621392,188.5280470993497 207.99980199741464,189.6029291080333 207.98733644743493,190.67708292244558 C 208.04504564680073,191.78660957720928 207.47092930520688,192.60005950429084 206.64203784442563,193.43563006171271 C 205.84050128438722,194.02354627639366 204.73680809557405,194.07516265979854 204.01288974140982,194.92316318269866 C 203.99793548627414,196.00537491459548 203.19561045608117,196.75109968183634 202.96627152157367,197.7403693421712 C 203.00583598092032,198.8369269270099 202.999254073685,199.9151063501269 203.00000840871425,200.99620798564698 C 203.0000736127382,202.07703840387154 202.99968491850058,203.15765196737752 203.001757498552,204.23947867158313 C 202.99113146339005,205.31500962734088 203.0408476566118,206.42047083584492 202.75138597883299,207.3609107722837 C 201.89002845291262,208.12087285114538 201.1505274351273,208.9373256926309 200.10990821051897,208.98907839776447 C 199.15842571930247,209.56898169802673 199.03604824931972,210.6692626771831 198.50138836905288,211.51049133466003 C 197.93128750184488,212.3624195100988 198.0168517097985,213.47718770783337 197.99932295843735,214.5514490825802 C 197.9871665338465,215.62570439822895 198.04881808265324,216.7372032838182 197.51312187966252,217.56671700853667 C 196.6757388426686,218.39130853931138 195.88782784713274,219.02001393470593 194.78762237724695,219.0550368402474 C 194.0253495552571,219.8708558987067 194.01272456865846,220.96176198481376 193.23518012940917,221.71568501800328 C 192.95883724554622,222.6861272436179 193.00786793088662,223.78645475877704 192.99874082182927,224.86362044462982 C 193.00013076325092,225.9449758137292 193.00002501268125,227.02573521699316 192.99979467423248,228.10642456539523 C 193.00134846127736,229.18799444567847 192.99259311805912,230.26445322864072 193.03607129927042,231.36682023802155 C 192.78606498065358,232.32590730007556 191.9274035086608,233.07803144902147 191.18954408745,233.91355112463975 C 190.16387601329578,233.9872889907558 189.18867627642692,234.5231447603448 189.0323549864114,235.61787817764366 C 188.54657730642356,236.4776630403311 187.9317002184708,237.3112812034597 188.01833678931587,238.42658519649888 C 187.9953812685926,239.49824358413363 188.00111056146818,240.58132855334836 187.99968815938817,241.6615542986518 C 188.00029151683475,242.7426261763809 187.9992520847767,243.82291718767024 188.00175725418757,244.9049598179024 C 187.99880358221807,245.98429581064755 187.97785221422333,247.0547125795561 187.21722372575908,247.80180407370443 C 186.44466759096636,248.68211735217926 185.54428568212953,249.01105113726447 184.4582250290165,249.23932200660929 C 183.99488534403997,250.23880469053782 183.83995232000126,251.23579088511647 183.01080462246023,251.9787445934776 C 183.0053467819156,253.05736379325913 182.99785996422213,254.13528446958102 182.99522589888295,255.21436842632625 C 183.0304608136451,256.3127903074886 182.81927716279986,257.29035807795975 181.9656337165569,258.03604059433263 C 181.22761179369735,258.8872666557525 180.21792716033008,258.98740512612693 179.22102484865198,259.4785709401241 C 179.02754803877295,260.5658049613504 178.59130226041123,261.4447056046406 177.93443909353968,262.2610905539239 C 178.01846387732527,263.3753543909556 177.99515960146132,264.4468739313828 178.0012083147545,265.53008601756665 C 177.99965380188394,266.61025914516557 178.00031738358123,267.69135660583134 177.9991327195044,268.7715768481373 C 178.00244139379868,269.8540176916351 177.9952061225399,270.93122999142616 177.9955202073553,272.0121868197937 C 177.26038442914535,272.7663400511683 176.47857600710265,273.64264557400145 175.5964404519776,274.01569402317483 C 174.5027275695015,274.2062862593095 173.99244259794227,275.18457347676866 173.8741473014153,276.1992450566514 C 173.03514867170472,276.93716181694913 173.00042758576814,278.00413259793714 172.99788074924138,279.0839192153705 C 173.0009531569234,280.1659444304436 172.99964701299083,281.24622122770234 173.00026844759105,282.3272901708329 C 172.9991758875432,283.40756085515164 173.00341210293612,284.49045997394086 172.98634938974652,285.5627981943455 C 173.0513272358167,286.67582960015807 172.56360005363402,287.52601224749935 171.71727340524203,288.33686325954767 C 170.94407421108517,289.0123276803605 169.85063895779302,289.03386709812025 169.04434485666323,289.80788374785254 C 169.025800054515,290.9066552770407 168.2855499762136,291.67331519031023 167.95060732593114,292.6202797326749 C 168.0093953853021,293.7243746657106 168.00104695938015,294.8022320272146 167.992576408736,295.87861588074213 C 168.0104575580272,296.96831708644476 167.30379597027343,297.73149226786774 166.51220309121246,298.6019449722716 C 165.64799050826667,299.0197120773711 164.54853503221779,299.17522807552484 163.99181117037477,300.13043856537644 C 163.9056726677352,301.16173462290885 163.0627554450496,301.8968840805884 162.99446849090228,302.9504779805379 C 162.99908065020804,304.03311571534726 163.00072757950255,305.1145729887356 162.99969161656915,306.19495835227764 C 163.00023609588843,307.27599315433486 162.99926604776743,308.3563241727143 163.00315961284903,309.43905329948586 C 162.98686029482434,310.5117702222334 163.05147954065444,311.6246237363591 162.60417954400333,312.49264326624694 C 161.751662136966,313.2921419859027 160.98880867508527,314.0028956059405 159.90295926490938,314.01941267836287 C 159.06290367643692,314.75712437896743 159.032840715748,315.86008097543845 158.3284718282512,316.6393274985928 C 157.94412087645983,317.5663883203919 158.01226233223792,318.6743266934778 157.9975362141668,319.7492624229488 C 158.00044278889044,320.8312227309367 157.99991262645503,321.9118081305741 158.00001247009305,322.99265305154705 C 158.00047945948276,324.07368551352147 157.99595985770796,325.15224502170724 158.02400174874828,326.2469552984665 C 157.85710705903992,327.2458838277882 157.0136076129852,327.9861778514993 156.27297204103033,328.8520344039832 C 155.2838831446679,328.9896705572127 154.26322234458334,329.42600638837877 154.02068850823457,330.50144546751073 C 153.64491812987663,331.4041743589679 152.94111734112877,332.2011659055774 153.01728487958732,333.31222822593986 C 152.9978928276508,334.38564420591695 152.98894285013537,335.46139631837934 153.049946631583,336.5726138843159 C 152.64397020594274,337.45917820718387 151.78646343983323,338.24748348098484 151.03224808782204,338.99033512387723 C 149.95579754128576,339.0076530169352 149.08404269910613,339.7071999569227 149.03699015120918,340.81233734885166 C 148.3722898132253,341.6057295561509 147.93884528206917,342.513005917132 148.01404232733077,343.6237541694741 C 147.9970035847029,344.6977688655504 148.00059113742947,345.78000063475224 147.99986204289144,346.8605052458448 C 148.0000922220221,347.9414103737024 148.00013501883979,349.02223342543533 147.9974213322116,350.10168851100707 C 148.01831498010253,351.19285311928314 147.88609987139256,352.20860782106905 147.05397735968984,352.9465555359808 C 146.30928802764345,353.82076630841584 145.33780136493522,353.9928950268435 144.29991140943753,354.38456800135293 C 144.01464296231921,355.44816132249787 143.68793799989027,356.37070958412454 142.9492701096588,357.15311884464086 C 143.01676442398838,358.2607994063894 142.9951014315742,359.33297271412494 143.00133380953548,360.4162575795588 C 142.99960124515167,361.4963605627228 143.00034243731253,362.57748894274084 142.99899801586406,363.6576324705671 C 143.00340234770206,364.7406160367971 142.9895724588124,365.81455744712923 143.0251957173827,366.91302836319124 C 142.35663293720177,367.6895403901006 141.55312764931705,368.55088377513 140.7099457934642,369.02330475976925 C 139.6060900669394,369.1401313619046 138.99401169716373,370.0646258038836 138.94017307649077,371.11450649704835 C 138.10041305696927,371.84930467780987 137.98632047975153,372.8846502929747 138.00072688446573,373.9711588099205 C 137.99914988597249,375.05122841061745 138.01250351540122,376.13871072402986 137.91314318327568,377.17047522113444 C 137.09520913829147,377.9079725164638 136.34491923221276,378.78749722004784 135.39153038784127,378.99701925247206 C 134.33838213414802,379.3446763870949 134.00864952921359,380.39450192515 133.72961215629005,381.33678114096017 C 132.96043284410504,382.1062829852322 133.0149609206535,383.20879974267325 132.99530974540312,384.28177432043407 C 133.00133876153123,385.3649779790667 132.99959051128323,386.4450753387839 133.00034048207752,387.526205886375 C 132.99898843029573,388.6063465443064 133.0036128576101,389.6894389774038 132.98798695414442,390.7624896109175 C 133.03455286926012,391.866388331092 132.39984569917357,392.65562832716336 131.58655774263326,393.50807316893986 C 130.75982142319359,394.02480658002264 129.65447175600733,394.11379240525656 128.9986754170991,395.01104218389486 C 128.96489197921628,396.07453255221475 128.1343632874707,396.8115917792839 127.97883797558895,397.8303749851002 C 128.00262583582577,398.92064951412357 128.00000316701477,400.0004059539545 127.99984307560905,401.08114216338896 C 128.00014908547902,402.16207402375136 127.99949908208538,403.24256134488735 128.00241359856827,404.32480510985454 C 127.9889555910781,405.3989314074965 128.04722012909227,406.50863280621377 127.69071976912218,407.41784579106144 C 126.82974905098582,408.1933365180326 126.08357223474229,408.97079149612546 125.02085791058495,408.9970768017553 C 124.11320378869043,409.6475207816204 124.03866771235889,410.7526180692173 123.42662342443691,411.5651105480694 C 122.93427613296838,412.44861409054147 123.0149427171846,413.5614205562702 123.0000993125198,414.63676715948 C 122.98768122168026,415.7109825775364 123.04152115854076,416.81857837106406 122.44290372257086,417.62205237196457 C 121.61997770772254,418.46454547340204 120.80881534247139,419.02467591719346 119.70384488849457,419.08971599988513 C 119.00627226487478,419.9578647590131 118.98606740866269,421.033263370166 118.17061502504833,421.7748099685371 C 117.97126383187268,422.7760771821777 118.00452726614827,423.8701253762886 117.99956953855407,424.948951717759 C 117.99993712463667,426.0298988680085 118.00010441943712,427.1107720597322 117.99961116967079,428.1913352720651 C 118.00202338028038,429.2733301784946 117.99022269836463,430.34827851759724 118.04363881990881,431.4555749798935 C 117.7277701452606,432.38364194565236 116.86588195380101,433.1494311908543 116.12432325667677,433.9515175126295 C 115.07450574414355,433.9914429950678 114.13974378458371,434.59977619796405 114.03765245471494,435.702606699005 C 113.47179296123208,436.53217555899323 112.93168887780597,437.39627774524627 113.01713604986634,438.5111080825327 C 112.99595435353774,439.58347284706525 113.00090843430296,440.66624911245395 112.9997561846429,441.74658304095277 C 113.00022656489166,442.8275967197607 112.99954229250294,443.908061762893 113.00023329368989,444.98920506290483 C 113.00629331002439,446.0730119431243 112.94293352727153,447.12248389038143 112.14642290177477,447.86211789801405 C 111.38769966979191,448.7444433795307 110.4567148910164,449.00281039236967 109.38762676839428,449.2982128743977 C 109.0019184391573,450.3286294798821 108.77830903700227,451.2946112414983 107.97834537545863,452.05082290521494 C 108.01149353260587,453.14479637337405 107.99741014061094,454.2201720023568 107.99290791611492,455.29820338621334 C 108.03890913466469,456.4019835487123 107.7635904030466,457.34904766343976 106.90271700917727,458.1061076930417 C 106.16398935391666,458.92947170890375 105.1283768689544,458.9882322190192 104.16854519888099,459.5531490303402 C 104.03492137978715,460.65174422498393 103.51695668078314,461.49928576534444 102.93106341922184,462.34474725405084 C 103.01799655091783,463.4601693610796 102.99558104199681,464.5320427849327 103.00103553570058,465.61501834573426 C 102.99971367133996,466.6952842729383 103.00026915415093,467.7763354132397 102.99935281105937,468.85668662954026 C 103.00121325569023,469.938409681833 103.00156005173449,471.01938273566503 102.96481601038974,472.08198617482316 C 102.18900174158574,472.8254851922511 101.42219872732622,473.70733393860394 100.50969701457593,474.00780583316475 C 99.42973629650461,474.2620868410775 98.99728362304472,475.27445942417376 98.81625022667318,476.2593979328961 C 97.9967367086902,477.0068628061038 98.00823310052931,478.09224221709144 97.99640482457949,479.16833240677454 C 98.00120572409693,480.2510464188575 97.99960181574642,481.33120306747145 98.00031060018775,482.4123120460134 C 97.99905871883185,483.49250365860274 98.00367035787743,484.5755892116527 97.98626668426368,485.6477582074523 C 98.04759956353107,486.758981654166 97.49462861670855,487.58122116730163 96.66102880872191,488.4107316430882 C 95.86727946420612,489.02184052647726 94.76532536044168,489.0635269538577 94.0195525539047,489.8936332302567 C 94.00674288848406,490.98099402118413 93.21757123479108,491.73101527109293 92.96230530047919,492.7099377131428 C 93.00619161933307,493.8081146452858 93.0009805679659,494.8871135104529 92.99756509234469,495.9661126220308 C 92.98423079442327,497.04030687847063 92.23203866899844,497.78961230602937 91.45627860847186,498.66873299784794 C 90.56221607948422,499.0126946712313 89.47331244599444,499.2277918608929 88.99386291447956,500.2202257076654 C 88.85197094439312,501.22338988416425 88.01876323900518,501.96435388927887 88.00383146648045,503.0392078534434 C 87.99722181456647,504.1173764191781 88.00107063384036,505.1997110074592 87.99962497404131,506.27993161078155 C 88.0002869898497,507.3610188992314 87.99912397694159,508.4412547263209 88.00354081521674,509.5242435008613 C 87.98619376243848,510.59644064680265 88.05039990516634,511.7090892816064 87.53646932438097,512.5479119029698 C 86.69486437590527,513.3662344208936 85.91398907575636,514.0169581951028 84.81656904736185,514.0447990342576 C 84.03360665247271,514.8416782804204 84.01939821426532,515.9365847069213 83.25819755955847,516.6960500410794 C 82.95481311831512,517.6556475544595 83.00901329103966,518.7580338186175 82.99843963303307,519.8346233662638 C 83.00020573198341,520.9161288285862 82.99999691053246,521.9968457124883 82.999854105998,523.0775766630825 C 83.00111983614798,524.1590040095408 82.99344278262984,525.2359975899217 83.03315792343672,526.3364980466783 C 82.80489208804431,527.305936590814 81.94882387597937,528.0542724023364 81.2110979513206,528.8990510543882 C 80.19430780704396,528.987140061511 79.20663225472467,529.4978796795227 79.02978307314598,530.5886441986249 C 78.57172552439766,531.4590716032711 77.93314432972413,532.2829965101254 78.01769650567412,533.3973775069313 C 77.9985740212241,534.4709637841958 77.98764416366569,535.5457657138508 78.05126628398621,536.6582647328879 C 77.5777404486951,537.5146549213207 76.72896696898556,538.3215342180671 75.95953715929556,539.0094345947817 C 74.86849144154614,539.0286189626976 74.0504057422601,539.7904132606423 74.02855404155392,540.8908406373206 C 73.30019158433974,541.6616555435417 72.94811537814962,542.60169878208 73.01100632695106,543.7075461449837 C 72.99789465883566,544.7831248612925 73.0003466025114,545.8649038880925 72.9999461758885,546.9455422048704 C 72.99995318477832,548.0263437805125 73.00072546730578,549.1075271032577 72.99496671804934,550.1854720738413 C 73.02770691760271,551.2825128087932 72.83698922029063,552.2699487119332 71.9875848066297,553.0128352634249 C 71.24869349270887,553.8714332353652 70.24836225534392,553.9881890981378 69.24013484393399,554.4540634171036 C 69.02447805086912,555.5362110529065 68.61622543658952,556.4260734457614 67.9369996859386,557.2332332229573 C 68.01830721307545,558.3464149069075 67.99508400914019,559.4179667632299 68.00125319766603,560.5012267549907 C 67.99963713562836,561.5813754708934 68.00032781876617,562.6624841614167 67.99908236743347,563.7426749409794 C 68.00275479824741,564.8252960216673 67.99348190486792,565.9014976612935 68.00427992081406,566.9876546806921 C 67.28477187403797,567.7466326544356 66.49755686026351,568.6198738870802 65.62554689958083,569.0180529410762 C 64.52836318326186,569.1885456655423 63.99184766776619,570.1540747752272 63.892207504289885,571.1782290099629 C 63.050264592048464,571.9143043467102 62.99721839602179,572.9739811490575 62.99888178196242,574.0554755947958 C 62.99729937003586,575.1352664705786 63.02174815424541,576.2283056787178 62.86738929390542,577.2332658215478 C 62.027336001569,577.9724897431197 61.285468229599196,578.8415524802238 60.30236790156268,578.9906555873258 C 59.27558171883322,579.4116478499683 59.018625777871364,580.4832416364476 58.659832119100344,581.392783139196 C 57.94351599085138,582.1845469457492 58.01757988566466,583.2948437507181 57.995052471074075,584.3666732148082 C 58.001295256273686,585.4499603326213 57.99968131459034,586.5301186754199 58.0000740624247,587.6110755624467 C 57.99998242947759,588.6918418459456 58.00000895901144,589.7726472695338 57.99998273084346,590.853455835759 C 58.0000328176802,591.9342373035852 58.00003227817814,593.0150384438091 57.999146532924705,594.096192155523 C 58.00628073586841,595.1741519152894 57.96460382487859,596.2715508075015 58.20421662888015,597.2567070187927 C 59.00151384319651,598.0040751612294 59.01560343556723,599.0882770343806 59.7496866396431,599.9287330564458 C 60.846919075587344,599.9786900616427 61.68350381497304,600.5601642871223 62.37410869876788,601.4505518020612 C 63.216179568340934,602.1547311431168 63.977004688587336,602.9248524934204 63.999115039160536,603.9942216536888 C 64.66157010333858,604.8927435723987 65.76640299473176,604.961646261019 66.57452350890962,605.5857323306695 C 67.46325895068246,606.0650689438625 68.57615696746969,605.9844741869125 69.64939445922735,606.0034658547479 C 70.73185918002777,605.9992882188399 71.8123252324186,606.0001291811751 72.89318501646623,605.9999814947723 C 73.97397817939859,606.0000010920522 75.05477936853967,606.0000005357551 76.13558067092966,605.9999996950933 C 77.21638147311167,606.0000001104393 78.29718249818563,605.9999999661101 79.3779834485204,606.000000009449 C 80.45878442085599,605.9999999975449 81.53958538723384,606.0000000005997 82.62038635512184,605.9999999998624 C 83.70118732265006,606.0000000000292 84.78198829025843,605.9999999999943 85.86278925785048,606.0000000000008 C 86.94359022544538,605.9999999999999 88.02439119304,606.0 89.10519216063439,606.0000000000001 C 90.18599312822892,606.0 91.26679409582354,606.0 92.34759506341804,606.0 C 93.42839603101261,605.9999999999999 94.50919699860711,606.0 95.58999796620165,605.9999999999998 C 96.67079893379625,606.0 97.75159990139075,606.0 98.83240086898536,606.0 C 99.91320183657986,605.9999999999999 100.99400280417443,606.0 102.07480377176894,606.0000000000001 C 103.15560473936343,605.9999999999999 104.2364057069581,606.0 105.31720667455258,605.9999999999999 C 106.39800764214715,606.0 107.4788086097416,605.9999999999999 108.5596095773362,605.9999999999999 C 109.64041054493082,606.0000000000001 110.72121151252527,606.0000000000001 111.80201248011988,606.0000000000001 C 112.88281344771445,605.9999999999999 113.9636144153088,605.9999999999999 115.04441538290345,606.0 C 116.125216350498,605.9999999999999 117.20601731809262,606.0 118.28681828568712,606.0 C 119.36761925328166,605.9999999999999 120.4484202208762,606.0000000000002 121.52922118847067,606.0 C 122.61002215606527,605.9999999999999 123.69082312365983,606.0 124.77162409125442,605.9999999999999 C 125.8524250588489,606.0000000000001 126.9332260264434,606.0000000000001 128.01402699403803,606.0000000000001 C 129.09482796163257,606.0 130.17562892922706,606.0 131.25642989682166,606.0 C 132.33723086441609,605.9999999999999 133.41803183201074,606.0000000000001 134.49883279960522,606.0 C 135.57963376719977,605.9999999999998 136.66043473479436,606.0 137.74123570238902,606.0 C 138.82203666998345,606.0 139.90283763757793,606.0 140.98363860517262,606.0000000000001 C 142.06443957276707,606.0 143.14524054036158,605.9999999999999 144.22604150795624,606.0 C 145.30684247555058,605.9999999999998 146.3876434431453,606.0 147.46844441073978,606.0000000000001 C 148.54924537833432,606.0 149.63004634592897,606.0000000000001 150.71084731352343,606.0 C 151.79164828111792,606.0 152.87244924871246,606.0 153.95325021630708,605.9999999999999 C 155.03405118390165,606.0000000000001 156.1148521514961,606.0 157.19565311909068,606.0000000000001 C 158.2764540866852,606.0 159.35725505427968,605.9999999999998 160.43805602187433,606.0000000000001 C 161.5188569894689,605.9999999999999 162.5996579570635,606.0000000000001 163.68045892465784,606.0 C 164.76125989225247,606.0 165.84206085984704,606.0 166.9228618274415,606.0 C 168.0036627950361,605.9999999999998 169.08446376263063,606.0 170.16526473022523,606.0000000000001 C 171.24606569781974,606.0 172.32686666541426,606.0 173.40766763300883,605.9999999999999 C 174.48846860060337,605.9999999999999 175.56926956819805,606.0000000000001 176.6500705357924,606.0 C 177.730871503387,606.0 178.8116724709816,606.0 179.89247343857605,605.9999999999998 C 180.97327440617073,605.9999999999999 182.0540753737652,606.0 183.13487634135976,605.9999999999999 C 184.21567730895427,606.0 185.29647827654875,605.9999999999998 186.37727924414352,606.0000000000002 C 187.45808021173755,605.9999999999992 188.53888117933386,606.0000000000034 189.61968214692175,605.999999999987 C 190.7004831145402,606.0000000000467 191.7812840820552,605.9999999998465 192.8620850498799,606.0000000004262 C 193.94288601700018,605.9999999992323 195.0236869843564,605.9999999986325 196.10448796239763,606.0000000249282 C 197.18528885022081,605.9999998241326 198.26609027444266,606.000000973527 199.34688896668695,605.9999952461529 C 200.4277003009043,606.0000213403881 201.50845719461202,605.9999104002706 202.58943429000948,606.0003537385063 C 203.66957515268518,605.9986921623929 204.7526643431425,606.0044519383654 205.82639978472253,605.9866670243015 C 206.92453450335591,606.030298492362 207.68678887619978,605.2432444367888 208.6407528930157,604.9950024396813 C 209.68728312602966,604.6357947694823 209.98737488808908,603.5702604550696 210.29681531902577,602.642022657277 C 211.0470058485385,601.8640115773853 210.9838137237457,600.7581057970816 211.00484045912276,599.6856586388936 C 210.99866047096782,598.6024007043294 211.00040362674858,597.5223001120537 210.99965739685533,596.441170533699 C 211.00100880374285,595.3610300222809 210.99650636866534,594.277997930351 211.01106802418522,593.2044194566098 C 210.971129538244,592.1038080905728 211.6276207954959,591.3228380710175 212.4347064243965,590.464601972835 C 213.27180965514899,589.975979559252 214.37642477286317,589.8697075986989 215.00461356450003,588.9549126242651 C 215.05043036238092,587.8998903147176 215.8874804273844,587.1645134449965 216.01645081467612,586.1351265884067 C 215.99850232416014,585.0471776040347 215.9997558388508,583.966875779062 216.00020812864403,582.8862564893727 C 215.99982410932574,581.8052912980908 216.00057083741936,580.7248510270412 215.99735216652124,579.6424565234395 C 216.01175914275152,578.5688009303681 215.95098973729282,577.4578570512468 216.3335079273244,576.5605893986509 C 217.19289979564104,575.778499419222 217.94294891695557,575.0184605011757 219.0131155157139,574.9979368620651 C 219.902441042351,574.3215575764175 219.9617837225836,573.2160743345277 220.60174251541557,572.4137450888248 C 221.06370869507904,571.517985752147 220.98501222687014,570.4058438612572 221.00329480081618,569.3323245295517 C 220.99932257191554,568.2499394516444 221.00016693595367,567.1694814830773 220.99986684936334,566.0885444093959 C 221.00004527300595,565.0078304413331 221.00176840571208,563.9278841539085 220.9849758240769,562.8387537496184 C 221.09789643590148,561.8135907186004 221.92202902080322,561.0761213579353 222.66979571063018,560.1984424127884 C 223.63076723935444,560.004784411951 224.6778118173283,559.6389425561936 224.98888792030667,558.5831629091861 C 225.28753217464882,557.6490640476528 226.0445705558178,556.8744027593909 225.98420414567968,555.7695608861972 C 226.00479644727497,554.6969611387935 225.9986588905438,553.6137141602147 226.00040611667384,552.5336166692354 C 225.99965777478033,551.4524861308488 226.0010110561336,550.372346441401 225.9964593110625,549.28928993705 C 226.01142056698228,548.2159096592411 225.96905318183303,547.1140935036666 226.61808343016796,546.3303219259288 C 227.4273307997649,545.4740452046219 228.26079875400646,544.9756369482083 229.3657553281302,544.8755332273776 C 230.00360303325445,543.9667385819835 230.04495859614627,542.908704781017 230.88001701140902,542.1728476244757 C 231.01807032364735,541.1470868932616 230.99811957399805,540.0583405033498 230.9998362598488,538.9782231791869 C 231.0001911061647,537.8975648876979 230.99983325240333,536.8166109069907 231.00054677999398,535.7361544677212 C 230.99743190112045,534.6538114076528 231.01152031809312,533.5799978027381 230.95156377385445,532.4694571245991 C 231.32504933440015,531.5680543211383 232.18507154614713,530.7882855400788 232.93369518655854,530.0220517909305 C 234.0013470076958,529.9997961936338 234.89712209670245,529.3323277735857 234.9615313926342,528.2268912820806 C 235.5918866439962,527.4210711384619 236.0645583032267,526.5296393239155 235.98467718630704,525.4170262259325 C 236.0034032932394,524.3436813710896 235.99929288804836,523.2612488212259 236.00016982976797,522.1807801103719 C 235.9998715395618,521.0999041841205 236.00009293442577,520.0191346750639 236.00125793970705,518.9384728184846 C 235.9882217609654,517.856114353497 236.07914642557853,516.7873349824272 236.89404814598527,516.0338365229378 C 237.97041301060312,515.997866055273 239.0513645466588,515.9991265053052 240.1323315492972,516.0005164303577 C 241.21304825934112,515.9998110872108 242.29387875275518,516.0000582559722 243.37467081465624,515.9999837039605 C 244.45547423606874,516.0000042455468 245.53627457234046,515.9999989605703 246.61707569263535,516.0000002388667 C 247.6978766256097,515.9999999490503 248.77867760046217,516.0000000098092 249.8594785666953,515.9999999984112 C 250.94027953449944,516.0000000001663 252.02108050207562,516.0000000000138 253.10188146966672,515.9999999999844 C 254.1826824372638,516.0000000000061 255.2634834048575,515.999999999998 256.3442843724523,516.0000000000006 C 257.4250853400466,515.9999999999997 258.5058863076413,516.0000000000001 259.5866872752359,516.0 C 260.66748824283053,516.0000000000001 261.74828921042496,516.0 262.82909017801956,516.0 C 263.909891145614,515.9999999999999 264.9906921132086,516.0 266.0714930808032,516.0 C 267.15229404839766,516.0 268.23309501599243,516.0000000000001 269.3138959835868,516.0 C 270.39469695118123,516.0 271.47549791877583,516.0000000000001 272.5562988863704,516.0 C 273.63709985396497,516.0 274.71790082155957,515.9999999999999 275.7987017891541,516.0 C 276.8795027567486,516.0000000000001 277.960303724343,515.9999999999999 279.0411046919376,515.9999999999999 C 280.1219056595323,515.9999999999999 281.2027066271267,515.9999999999999 282.2835075947214,516.0 C 283.3643085623157,516.0 284.4451095299105,516.0000000000002 285.52591049750487,515.9999999999999 C 286.60671146509947,516.0 287.68751243269406,516.0000000000001 288.7683134002885,515.9999999999999 C 289.84911436788303,516.0 290.92991533547763,515.9999999999999 292.0107163030722,516.0000000000001 C 293.0915172706667,516.0000000000001 294.1723182382613,516.0 295.25311920585574,516.0 C 296.3339201734503,515.9999999999999 297.414721141045,516.0000000000001 298.4955221086394,515.9999999999999 C 299.5763230762339,516.0 300.65712404382856,516.0 301.737925011423,515.9999999999999 C 302.81872597901764,515.9999999999999 303.8995269466122,515.9999999999999 304.9803279142068,516.0 C 306.0611288818014,516.0000000000001 307.1419298493957,515.9999999999999 308.22273081699035,516.0 C 309.3035317845849,516.0 310.3843327521794,516.0 311.46513371977403,516.0 C 312.54593468736846,515.9999999999999 313.6267356549631,516.0000000000001 314.70753662255754,516.0 C 315.7883375901521,516.0 316.8691385577466,516.0 317.94993952534116,516.0 C 319.0307404929358,516.0 320.1115414605302,515.9999999999997 321.1923424281249,516.0 C 322.27314339571933,516.0 323.3539443633139,516.0 324.4347453309087,516.0000000000002 C 325.51554629850295,516.0 326.5963472660975,516.0 327.6771482336921,515.9999999999999 C 328.7579492012866,515.9999999999999 329.8387501688813,516.0 330.9195511364758,515.9999999999999 C 332.00035210407043,516.0 333.08115307166463,515.9999999999998 334.16195403925946,516.0000000000002 C 335.24275500685394,516.0 336.3235559744484,516.0 337.40435694204314,516.0000000000001 C 338.4851579096376,516.0 339.565958877232,516.0 340.64675984482653,515.9999999999999 C 341.7275608124212,515.9999999999999 342.80836178001584,516.0000000000001 343.88916274761016,515.9999999999999 C 344.9699637152049,516.0 346.0507646827994,516.0000000000002 347.1315656503939,516.0 C 348.21236661798844,516.0 349.2931675855829,515.9999999999999 350.37396855317763,516.0000000000002 C 351.45476952077206,516.0 352.53557048836655,515.9999999999999 353.6163714559612,516.0 C 354.6971724235558,516.0 355.7779733911502,516.0 356.85877435874477,515.9999999999999 C 357.9395753263393,516.0 359.0203762939339,516.0 360.1011772615283,515.9999999999999 C 361.18197822912305,516.0 362.26277919671753,515.9999999999999 363.343580164312,516.0 C 364.4243811319065,515.9999999999999 365.50518209950104,516.0 366.5859830670958,516.0000000000002 C 367.66678403469007,515.9999999999998 368.7475850022848,516.0 369.8283859698794,515.9999999999999 C 370.9091869374738,516.0 371.98998790506846,516.0 373.0707888726629,515.9999999999999 C 374.1515898402577,516.0000000000001 375.2323908078521,515.9999999999999 376.3131917754467,516.0 C 377.3939927430411,515.9999999999999 378.4747937106356,515.9999999999999 379.55559467823025,516.0000000000001 C 380.63639564582473,516.0 381.71719661341945,515.9999999999999 382.7979975810139,516.0000000000005 C 383.8787985486085,515.9999999999986 384.95959951620273,516.0000000000018 386.0404004837966,516.0000000000077 C 387.1212014514037,515.9999999999033 388.20200241891064,516.0000000006372 389.2828033869893,515.9999999965828 C 390.3636043522213,516.0000000163611 391.4444053304155,515.9999999276301 392.5252062535317,516.0000002999697 C 393.60600739661373,515.9999988309147 394.6868077159719,516.0000042574785 395.7676108870128,515.9999858118218 C 396.8484052743355,516.0000408970903 397.92922107283215,515.9999167435269 399.010018155021,515.9999492693272 C 400.0905841841727,516.001916003698 401.173344901253,515.985510401334 402.23969567566286,516.0924469712533 C 402.9761313101291,516.9219090423996 403.00001364914726,517.9998017399079 403.00129752943803,519.0804490694504 C 402.99939751267806,520.1614794627626 403.0002473412469,521.2421639658885 402.9997097173383,522.3231061956267 C 403.00107466725507,523.4033847550584 402.99546775473607,524.4864129821406 403.0182059134606,525.5581599423114 C 402.93130226688567,526.6735698182808 403.5331451305708,527.512518889363 404.0335867797959,528.3667089626674 C 404.17942375364294,529.463300621053 405.1477543361177,530.0123904938996 406.1779993866915,530.079082833907 C 406.9161607233822,530.9092626312877 407.7758760243152,531.6635851738417 408.037555664331,532.617136109993 C 407.9921490441248,533.7204596693061 408.0014705388055,534.7966376550875 407.9997623756117,535.8782839429872 C 408.0000397124131,536.9589508647115 408.0000926599022,538.0397321318329 407.9988974390791,539.1210097858028 C 408.00725919503793,540.198480303577 407.961024973096,541.2976941261061 408.22318545602695,542.2738200840208 C 409.00871442279634,543.0250696475837 409.0213326724667,544.1135935996152 409.7723747807371,544.9392125955098 C 410.8738095758042,544.9786893669609 411.66569665303695,545.5954091873352 412.5004565143445,546.4233916718218 C 413.04809254593755,547.2478707656613 412.98623286244606,548.3593555171863 413.00365758280213,549.4315140829941 C 412.99906666334897,550.5145893336881 413.0003076808591,551.594786371615 412.99960430530064,552.6758927939146 C 413.0011900256812,553.7560568119153 412.9965050916353,554.8387246050697 413.0076777608941,555.9150758985821 C 412.99956874521587,556.999106289586 413.8213287859818,557.7455373033689 413.9967303502962,558.733044159076 C 414.4356814897617,559.7427705959504 415.51699434189345,559.9915043307064 416.4269408470033,560.2979217566138 C 417.1949286522688,561.1795245042807 417.96765075413344,561.9237103346801 418.0009541331342,562.9880147636848 C 418.0013341914086,564.0686272905708 417.99933008392327,565.150421557129 418.00027422462273,566.2307591643222 C 417.9997081272715,567.3118149266093 418.00105195236097,568.3920720681347 417.99553574695494,569.4750722013791 C 418.0180839155413,570.5468927980385 417.93112505409607,571.6623251500845 418.5231999279984,572.5052638728808 C 419.0344267590722,573.355357189264 419.1727064804132,574.4532096849664 420.13584295842173,575.0120396313841 C 421.1694106670446,575.0737836757859 421.9078980417267,575.8998239079791 422.76825401407507,576.6558510895222 C 423.0386224960519,577.6052915987215 422.9918245909285,578.7093052676208 423.0015609083255,579.7852775098495 C 422.99973821586934,580.8669804918321 423.00005047860185,581.9476307105007 423.00006531655424,583.0284277947984 C 422.99901150315026,584.1096490026039 423.0068098263761,585.187343931283 422.962661538346,586.2857270294837 C 423.2144165362002,587.2660214229335 424.00553219213765,588.0154166571921 424.01852518562947,589.1020632588993 C 424.7611459899959,589.9348204869016 425.86338755646165,589.9778660238536 426.6582569140502,590.5856210919917 C 427.49115904004344,591.4160363438855 428.0472899384466,592.2369535416435 427.98629054661427,593.3480115707441 C 428.00367712675865,594.4201890460524 427.9990541767189,595.5032801968271 428.0003122633523,596.5834688201146 C 427.99960050586265,597.6645787843127 428.0012143935562,598.7447328972238 427.9963477856972,599.827468378664 C 428.0085536463452,600.9034200546628 427.9950874803202,601.9895708353673 428.8131420712689,602.7380746796963 C 428.99779421490837,603.720105271792 429.42511937279045,604.7412752587068 430.50781416733037,604.9785537965467 C 431.40714219884296,605.3594682518014 432.20607294331614,606.0596848536387 433.3177253401253,605.9820275049559 C 434.38942086585433,606.0049471716258 435.47269254492863,605.9987280463608 436.55286604111944,606.0003074793672 C 437.63381684153455,605.9999303292677 438.7145843327621,606.0000145939509 439.7953921840736,605.9999972666757 C 440.8761918993002,606.0000004190606 441.9569930475104,605.9999999644257 443.03779400388316,605.9999999926719 C 444.11859496646025,606.0000000053009 445.19939593696677,605.9999999979713 446.28019690350163,606.0000000006393 C 447.36099787142206,605.9999999998189 448.4417988389254,606.0000000000477 449.52259980654384,605.9999999999883 C 450.6034007741327,606.0000000000027 451.6842017417286,605.9999999999994 452.7650027093227,605.9999999999999 C 453.8458036769172,605.9999999999999 454.9266046445119,605.9999999999999 456.0074056121063,606.0000000000001 C 457.08820657970085,606.0000000000001 458.16900754729517,605.9999999999999 459.24980851488993,605.9999999999999 C 460.3306094824847,606.0 461.4114104500791,606.0 462.49221141767373,606.0000000000002 C 463.57301238526827,606.0 464.6538133528627,606.0 465.73461432045747,606.0 C 466.815415288052,606.0000000000001 467.8962162556463,606.0 468.9770172232407,606.0000000000001 C 470.05781819083523,605.9999999999999 471.1386191584302,606.0 472.21942012602454,606.0 C 473.3002210936191,606.0 474.3810220612135,606.0 475.4618230288083,605.9999999999999 C 476.542623996403,606.0000000000001 477.6234249639974,606.0000000000001 478.7042259315919,606.0000000000001 C 479.78502689918656,606.0000000000001 480.8658278667807,605.9999999999999 481.9466288343755,606.0 C 483.02742980196996,606.0 484.1082307695645,606.0000000000002 485.18903173715904,606.0000000000001 C 486.2698327047536,606.0 487.35063367234835,606.0000000000001 488.4314346399427,606.0000000000001 C 489.51223560753726,606.0 490.5930365751316,605.9999999999999 491.6738375427265,605.9999999999999 C 492.7546385103209,606.0000000000001 493.83543947791543,606.0000000000001 494.9162404455097,606.0 C 495.9970414131045,606.0 497.07784238069934,606.0000000000001 498.15864334829365,606.0000000000001 C 499.2394443158883,606.0000000000002 500.3202452834828,606.0000000000001 501.4010462510772,606.0 C 502.48184721867193,606.0000000000001 503.5626481862665,606.0000000000001 504.6434491538611,606.0 C 505.72425012145527,606.0 506.8050510890496,606.0 507.8858520566446,606.0 C 508.9666530242391,606.0000000000002 510.0474539918336,606.0 511.12825495942803,606.0 C 512.2090559270229,606.0 513.2898568946175,606.0000000000001 514.3706578622118,606.0000000000001 C 515.4514588298064,606.0000000000001 516.5322597974009,606.0 517.6130607649955,606.0 C 518.69386173259,606.0 519.7746627001845,606.0000000000001 520.8554636677788,606.0000000000001 C 521.9362646353734,606.0000000000001 523.0170656029682,605.9999999999999 524.0978665705628,606.0 C 525.1786675381572,606.0000000000001 526.2594685057517,606.0 527.340269473346,606.0 C 528.4210704409409,606.0 529.5018714085355,606.0000000000001 530.58267237613,606.0 C 531.6634733437244,606.0000000000001 532.7442743113187,606.0 533.8250752789137,606.0 C 534.9058762465082,606.0000000000002 535.9866772141025,606.0000000000001 537.0674781816973,606.0 C 538.1482791492917,605.9999999999999 539.2290801168863,605.9999999999999 540.3098810844809,606.0000000000001 C 541.3906820520755,606.0000000000001 542.47148301967,606.0000000000001 543.5522839872642,606.0000000000001 C 544.633084954859,606.0 545.7138859224535,606.0000000000001 546.7946868900481,606.0000000000001 C 547.8754878576426,606.0000000000001 548.9562888252372,606.0 550.0370897928318,605.9999999999999 C 551.1178907604262,606.0000000000001 552.1986917280208,605.9999999999997 553.2794926956163,606.0000000000022 C 554.3602936632062,605.9999999999907 555.4410946308211,606.0000000000416 556.5218955983299,605.9999999998267 C 557.6026965662633,606.0000000006777 558.6834975326026,605.9999999975255 559.764298504481,606.0000000082827 C 560.845099459192,605.999999975932 561.9259004563709,606.0000000502174 563.0067014117633,606.0000000195782 C 564.0875019468515,605.9999989335673 565.1683066129399,606.0000082203779 566.2490855110293,605.9999528044917 C 567.3299990673428,606.0002355114907 568.4102785208433,605.9989260047699 569.4933270755379,606.0045696306046 C 570.565029712449,605.9817239868922 571.680416479169,606.0685679225347 572.516878649005,605.4606416478568 C 573.3737787380072,604.9672790102309 574.4687788431665,604.8148516759987 575.0132510580262,603.8466847426716 C 575.0783808299003,602.8069962669188 575.9095946946884,602.0655354265183 576.7203793785237,601.3471716366864 C 577.4104736612129,600.4400200132834 578.290439926377,599.9787333137446 579.386742325101,599.8617491132683 C 580.0057567438363,598.9409317184197 580.0570408274497,597.8894932057841 580.8961201099762,597.1545603328897 C 581.0145626674081,596.1209718613915 580.9989425500366,595.0339501464503 580.9996662193072,593.9534373836473 C 581.0002106081816,592.8728531932728 580.9999215443031,591.7919372892416 581.0000253795386,590.7111766699469 C 580.9999881168766,589.6303657266697 581.0000239929659,588.5495573417625 580.9999079462314,587.4688008149924 C 581.0003554744445,586.3878220508218 580.9987131019619,585.307675057576 581.0042536619117,584.224667590696 C 580.9879262267344,583.1503689965814 581.0233955862564,582.0554424085816 580.225669136585,581.2982553425817 C 579.9975601910799,580.334230233142 579.616645050316,579.302061875394 578.5487963708731,579.002300426604 C 577.6159300550494,578.748188107687 576.8579263759323,577.8659754272368 576.059388467464,577.1266506359688 C 575.9933243102104,576.0785311257868 575.9999234137579,574.9944475088695 575.9975914150385,573.9145212169822 C 576.0218456727084,572.8241223070181 575.8615988374994,571.8071980548721 575.0324539642111,571.0697675677816 C 575.0005915064961,570.0047982157975 574.3398050158836,569.1108552716456 573.234399123707,569.0248818620374 C 572.4095313483244,568.5030155965331 571.595113847557,567.6516816177603 570.964501957,566.8608576765632 C 571.0121634246938,565.756415538066 570.9963705972099,564.6834476926233 571.0010108631022,563.6003474368916 C 570.9996602406522,562.5202059750081 571.0004101479076,561.439075653921 570.9986630815544,560.3589777406871 C 571.0046551187115,559.2757888359977 570.9852968691079,558.2026975930131 571.0380618321933,557.100882995163 C 570.2656072033355,556.3327795115028 569.9920332554333,555.3882034187707 569.6570015930893,554.3401160394152 C 568.602206357171,553.997543618161 567.650922871544,553.7834936403681 566.8999450497797,552.9035111936552 C 566.0839517060421,552.1659040611655 565.9879146743522,551.1324821747221 566.0010686213845,550.0451565960155 C 566.000194148141,548.9647894904273 565.9998330916258,547.8841654898232 566.000192749836,546.803201407429 C 565.9992451893315,545.7227851001322 566.0035546940491,544.6402656255831 565.9842254628493,543.5671631273834 C 566.0656446859497,542.4539369059817 565.5779172133869,541.5685963567599 564.961360173482,540.7577395071013 C 564.8894068407895,539.6525340942952 563.9846871317,538.9978118987552 562.9207210136325,538.9726231299569 C 562.1739884178796,538.1979032619086 561.3130375782572,537.4214317057956 560.9528106525145,536.5139676394044 C 561.0098402780186,535.4047148724335 561.0024330945972,534.3281946685507 560.9839034587964,533.2544857403949 C 561.0494840609571,532.147624644869 560.307194985834,531.3667248834299 559.9860508568476,530.4419095882623 C 559.6956858852792,529.3798155015671 558.6559003401512,528.9933376159539 557.6865086075795,528.8169747805493 C 556.9412422626493,527.9419891391788 556.1106398131794,527.2041899144618 555.9823474804732,526.1865250396436 C 556.002413402683,525.0957709987997 555.9999024392672,524.0162153838019 555.9998992562344,522.9354150130827 C 556.0001438021097,521.8545032990844 555.9993915198194,520.7740080800902 556.003057078928,519.6917452201766 C 555.9857621688164,518.6178325450409 556.0616996546943,517.5067894134912 555.6225307070431,516.6018231282355 C 554.9626974887841,515.8066794337192 554.9133185384909,514.7014185212761 554.0379908421373,514.0064576506616 C 552.9627522291905,513.9886595129146 552.2093938857911,513.2422863305414 551.3516150254593,512.4551798980583 C 550.9499486216961,511.5666344383478 551.0122304312524,510.454940364978 550.9971892913445,509.3815993335502 C 551.0006209276704,508.2990992613157 550.9998053145029,507.2186925971203 551.0002416638262,506.13770488060084 C 550.9995962981462,505.0571629070859 550.9992794387899,503.97648796353224 551.013084901923,502.8901889536838 C 550.902879882745,501.8533129749722 550.0625587206381,501.11859135584467 550.0063187536391,500.0701984435779 C 549.39886215388,499.1429890026917 548.2952659801638,499.0230702744308 547.4503781431293,498.55525968729194 C 546.6477613893892,497.6931138417163 545.9759770499821,496.91776911881885 546.009781621183,495.820149711337 C 545.9991534289951,494.74491124920394 545.988505647675,493.66792500453647 546.0562755910893,492.5602577189917 C 545.6665628600259,491.6353191699985 544.9665174690122,490.85456084933674 544.9347607971891,489.7512357612873 C 544.090884791876,489.0178956076948 543.0060413891376,489.0015916671441 542.2442874222509,488.2869117620628 C 541.3911318511836,487.4887309177032 540.9485949064539,486.6185873247387 541.0130601666827,485.5058101930475 C 540.9968739040678,484.43303718860267 541.000722649928,483.35033029105267 540.9997679934067,482.2699917141183 C 541.0003022530591,481.18896139993205 540.9993026855161,480.10856142954947 541.0007627136447,479.0271786171355 C 541.0062834834724,477.9441790232369 540.9338136973175,476.89225267832956 540.0908232808897,476.15727983633315 C 540.0081285568999,475.1241156139762 539.4460214022702,474.17172934226176 538.3460302413667,474.0201236361165 C 537.4838327272835,473.5971281528652 536.6912122724108,472.72741276164476 535.9879421691768,471.9631089100778 C 536.0080126178684,470.8723525467881 535.9969846151654,469.797021433876 536.0009560426431,468.71425223341134 C 535.9996646903691,467.63408357098655 536.0003771567672,466.55296607639565 535.9987107943404,465.47283722845395 C 536.004951973086,464.389548652548 535.9820213767873,463.31788023446074 536.0597134141047,462.2061384239093 C 535.359505646604,461.40767143213816 534.9787163981625,460.5069335662434 534.7404680202002,459.43039053458205 C 533.7217113925707,458.9894009892094 532.7308519459464,458.85514815832704 531.9905215156016,457.99034855613047 C 531.1458747059868,457.24975417041003 530.9757330855282,456.2524342327413 531.0032691205781,455.15785272790265 C 531.0014759499404,454.07822634876095 531.0002189180544,452.9978759583385 530.9618215798283,451.93236602989083 C 530.1220601906073,451.1948892097329 530.0077247179162,450.178236823345 529.4919845480006,449.2025460423935 C 528.39749500238,449.01620280544677 527.5174751462167,448.63794505079096 526.7345523370909,447.7622310216463 C 526.0025881998572,447.0071255434202 526.0051695104357,445.9250441866661 525.9974893597719,444.84805254761375 C 526.0008787084723,443.76557172819986 525.9996802093434,442.6853582032978 526.0003498293496,441.6042582207912 C 525.9987817130433,440.52409049572606 526.0048591921131,439.4408669676713 525.9815545051825,438.3693475851362 C 526.065091661545,437.25527794696535 525.4035012957268,436.4408400650193 524.973072149709,435.55967151732204 C 524.7750550575524,434.4734440374086 523.7757513370577,433.9875273974478 522.7679744718256,433.88404220439355 C 522.0298251159757,433.03119443241155 521.1771123168185,432.28609041233034 520.9698257052142,431.3066142896296 C 521.0057133066566,430.20801237618116 520.9991010285747,429.13049071171207 521.0000898395464,428.04920033409826 C 521.0000311025213,426.96842965719446 520.9997172561592,425.88775590643775 521.0018614119133,424.80609963345313 C 520.9898733733454,423.7300734040551 521.0489785648716,422.6257337171425 520.7187067783473,421.67692947732553 C 519.9751210406248,420.91140675742724 519.9574222150684,419.81319235492634 519.1547509191585,419.03551625901275 C 518.0606319640414,419.01313805267176 517.2863079508743,418.34148167413616 516.4405120083936,417.5295228289011 C 515.9490353247647,416.680991222774 516.0125753193315,415.5685388828351 516.0012175097121,414.49393435874214 C 515.9824344046015,413.4201992389978 516.0679039423737,412.30545784391745 515.4482678375574,411.4737629869209 C 514.9681367053457,410.6118297429218 514.8076539620129,409.5178589568199 513.8298023483699,408.98721057056827 C 512.8059543773846,408.9106028280226 512.0681692803857,408.07307204246996 511.20998053500233,407.32177453739644 C 510.96452247479596,406.3605262279476 511.0072314621156,405.2585407562051 510.99869926468216,404.18197129918013 C 511.00019280476687,403.1004312340592 510.9999807880008,402.0197331592506 510.99985397689636,400.93898246051714 C 511.00132119914105,399.85759625143595 510.99189354945923,398.780550266994 511.0420107719939,397.67979003811723 C 510.76007858112325,396.71158851543146 509.98579438070954,395.9565668786057 509.9730072221155,394.8647768289831 C 509.20638083397694,394.0528446856349 508.1067104702231,394.0194440179037 507.3202628331458,393.3861182118144 C 506.4821164154979,392.5627670455474 505.95063399177565,391.7314540472246 506.013822048196,390.61931039900924 C 505.9963909384103,389.5471549747413 506.0009073296466,388.46411675953505 505.9997017659958,387.3839020599991 C 506.000386856548,386.30280417141165 505.9988628116725,385.22261520648294 506.00316947467786,384.14009816704055 C 505.9940922687922,383.06291233035654 505.99150705028654,381.9831409562564 505.1636801424061,381.2395549992557 C 505.00478245298456,380.2444228739643 504.5463050992053,379.24285856229034 503.46114712854353,379.0105483984339 C 502.55889724928767,378.6861203033816 501.7871789804138,377.8055397045457 501.0240869996227,377.0590645202331 C 501.000761691593,375.98982523455965 500.9991267144238,374.9099157644834 500.99465466967376,373.8306609745775 C 501.0343648257588,372.7341405406408 500.7999547822649,371.74686748368555 500.00013137040514,371.00034750256054 C 499.98580279644665,369.91701224736084 499.2572887577445,369.07268142772375 498.1539115542007,369.0232485253428 C 497.353989501815,368.43048038743035 496.5242321482237,367.5961031762092 495.9542313597204,366.7809510750747 C 496.0135694014329,365.67071710687827 495.9963005292671,364.59848127897965 496.0009643050217,363.5153697768243 C 495.999680787333,362.4351940116635 496.0004047074866,361.3540777640937 495.9987499384649,360.27394176855654 C 496.00389149002876,359.19109197730467 495.99009035209355,358.1157875076945 496.01191915040954,357.0262932230805 C 495.20039870670144,356.275208839927 495.00078108225375,355.29863740925373 494.5892347133289,354.27798333970816 C 493.51388679509967,354.0055719386014 492.5931391351178,353.72408132549754 491.83005064822265,352.8417314345197 C 491.04464580604554,352.10019496165216 490.99640107941667,351.0432716612491 490.99920058393053,349.96108203683633 C 491.0005682214601,348.8796032831066 490.9997485396791,347.79920469701096 491.0002678713887,346.7181693878563 C 490.9990194355303,345.63787405245074 491.00426199318736,344.5549828896917 490.982339118812,343.4829132870412 C 491.06888424370084,342.3676456976557 490.5031871134637,341.51395282596076 489.96366905115417,340.67453501063375 C 489.8445786016033,339.5738057774142 488.89567753244353,338.98938550932064 487.8535824001073,338.9396372041869 C 487.11382156573757,338.1253476423504 486.25213918938255,337.3645706550027 485.9590597867479,336.4258685664534 C 486.0077066641182,335.3207738460381 486.00261680504565,334.24305665730196 485.9872490104449,333.16817005933194 C 486.02874427892283,332.0708783061197 485.23921680120327,331.3101136869672 484.99572640934514,330.3527451970713 C 484.6306541376278,329.3148997596194 483.5670514847007,329.0006283174502 482.6278371409437,328.76048021249744 C 481.872408458046,327.878721623858 481.06759817125146,327.14018977891374 480.9914245307753,326.0970215478203 C 481.00026607859604,325.01183498781927 481.0003582881557,323.93098856906005 480.9997959086967,322.8504636257085 C 481.0002236275289,321.76946895508996 480.9991522987047,320.68910249963983 481.00385595125687,319.6064259921053 C 480.98336681566025,318.5337854218745 481.0674660022029,317.4194919137306 480.5483376126946,316.54687456569104 C 479.9616667512222,315.72502584309746 479.8723793131975,314.6209442287799 478.94946008748633,313.99363841824305 C 477.8937186261067,313.96046746953425 477.1503215907949,313.1689548767458 476.28859577446354,312.3989513359378 C 475.95465640437897,311.4792981934908 476.0103619080906,310.3708661408956 475.9977998427511,309.296295448699 C 476.00043899839363,308.21418811942965 475.99987530140805,307.13365895673564 476.00010692832745,306.0527586423466 C 476.0002293509451,304.9719094699581 475.99633717363275,303.89265870517545 476.02534355984056,302.8003058873749 C 475.8458329232847,301.791106408794 475.0229260439176,301.0518400106326 474.9974888616833,299.98153219235803 C 474.3182995936495,299.1001709220383 473.2129237227167,299.02495736741884 472.3949590119042,298.4840331388575 C 471.5762144032888,297.6370206455862 470.96137291449435,296.8400186444918 471.0119704742029,295.73403920689225 C 470.9997121564511,294.6597172837016 470.98571030244455,293.58403695429814 471.064186212304,292.47210473598165 C 470.5933699819055,291.57988873720365 469.9615426285959,290.774621718018 469.8978745533061,289.6691609175589 C 469.00298170707913,289.0004536136356 467.93497642221996,288.9784554021324 467.18616015902717,288.21307180882815 C 466.3262199682854,287.4329829049405 465.95148105723194,286.53215465303947 466.0115540629807,285.4215562068785 C 465.9974207323581,284.34776487997846 466.00055013312146,283.2654146225435 465.9998319731741,282.1849604380223 C 466.00019351558785,281.1040048788963 465.9998248968418,280.0233520991243 465.99817327730983,278.9432088564344 C 466.01784447789515,277.85457379772174 465.88106036583434,276.8283063228752 465.0457083140849,276.09252239313673 C 465.0037514255537,275.03490200888206 464.36723946335263,274.12526899689766 463.26232478093647,274.0243197963115 C 462.4283546207293,273.5272679357557 461.619406770999,272.6707159784153 460.9693346465395,271.88733763106575 C 461.01137322075584,270.7856845731039 460.99646547571433,269.7122777553549 461.0010108273299,268.62922441299435 C 460.99965769793346,267.5490846758769 461.00040580546585,266.46795418845954 460.99865897172515,265.3878565606524 C 461.00480314665174,264.3046069396373 460.9841474993022,263.2320324216433 461.04491852311395,262.1270294110601 C 460.28880623121916,261.3519759733984 459.9887038666337,260.41848170215275 459.67899665106523,259.3622749855582 C 458.6324074421781,258.9950893536419 457.67091059049045,258.8025709419347 456.9232742560456,257.92506600440186 C 456.09860388867025,257.18762558629385 455.9850529714862,256.16280300297313 456.0012997343702,255.07386918271197 C 455.99985249350516,253.9938179525235 456.0105690769382,252.908764194026 455.913854905553,251.86648825567227 C 455.07191278207256,251.13195545146584 455.0072065130814,250.0886356862589 454.4151445166012,249.15259012576337 C 453.3125690257204,249.0221893827888 452.4617982388693,248.56971463325124 451.6626972920933,247.70478638393814 C 450.979747010361,246.93345425174005 451.00953881897834,245.8378758685433 450.9967336220143,244.7634262269644 C 451.0009881197484,243.6805168371536 450.9996592285996,242.60036606680012 451.0003911866173,241.51924101679973 C 450.99867959704227,240.43912990850717 451.0049412383628,239.35583330084478 450.9826512470359,238.28390972294358 C 451.0547657456477,237.17438917115408 450.3310761661499,236.3857037692863 449.9826504872145,235.47198175824153 C 449.7166800127164,234.40286972910667 448.6862340413478,233.99132680452948 447.70682652143245,233.83497113019436 C 446.96414410809,232.96409910570935 446.126588644729,232.2253429233889 445.9791492658964,231.21698851538798 C 446.0032209677929,230.12424753141923 445.9997163883171,229.0451846533486 445.99994181423733,227.96427147710585 C 446.0001155056456,226.88339234451985 445.9994751246867,225.80285175428665 446.00276152107597,224.72074002591617 C 445.98672915280343,223.64632453017265 446.0589322940213,222.53676859561477 445.647364955851,221.6206700146763 C 444.9645256672474,220.83377554620418 444.9257014599653,219.72936287229004 444.0678330193753,219.0125603584435 C 442.98696979632206,218.99633324247995 442.2291393220427,218.26738023849086 441.37358874054013,217.4741596455242 C 440.94934697622733,216.5958407252075 441.0114737005674,215.48406998599154 441.00194280359295,214.40860138126334 C 440.9824550250228,213.3352049475386 441.06169663005045,212.22292416868495 440.3745702098592,211.41901397177338 C 439.9767062064614,210.5250632760476 439.75253797729215,209.4449719138644 438.7402120206856,208.98860336020675 C 437.7434638713567,208.8652998138458 437.0040956025082,208.00421033334683 436.1564540695153,207.2622475099143 C 435.9734773941143,206.2710833061835 436.004712262682,205.17478924694754 435.999355029883,204.09664514785752 C 436.0000271818186,203.01551131608477 436.00006461389074,201.93469549688152 435.9996226914213,200.8540741275696 C 436.0022209127899,199.77223676882267 435.9885838824432,198.69686728944703 436.05320900530324,197.5903292928968 C 435.6907677780022,196.65445341398953 434.96992448106903,195.88100741598964 434.9456996807205,194.77967162002878 C 434.1204524860751,194.02553309149073 433.03099076233775,194.00747577077843 432.2637672424541,193.31207799686064 C 431.41366807858316,192.5076024681591 430.9486941305595,191.64744299875863 431.01223078743004,190.53498372667315 C 431.00152206298776,189.46007829654397 430.9822749850337,188.38654865985947 431.06620436248903,187.272413251123 C 430.4188334681774,186.45210027655216 429.9712693659201,185.5776109320953 429.7864540541329,184.48850228856946 C 428.7942633550135,183.98722845520703 427.7808826761968,183.8934078319288 427.0430599649499,183.0454276555418 C 426.1881762957983,182.29838566977747 425.9679688333154,181.32509709241424 426.00623559309037,180.22531506462218 C 425.9989650605106,179.14811986554508 426.0001241846486,178.06674525497093 426.0000137471905,176.98599898160344 C 425.9997652120183,175.90529842898655 426.00167487957157,174.82373569128882 425.99055958280036,173.74736186792663 C 426.0466559434028,172.64422044714112 425.7330372320031,171.68872997068303 424.9783863277327,170.92702144674598 C 424.9630673274425,169.83077911860173 424.1725066804338,169.04116281050727 423.0762815032803,169.01559816986105 C 422.29794581232795,168.356797279034 421.4547716068203,167.54087190166322 420.94922624502107,166.698432663969 C 421.0137728996431,165.5856151311308 420.99649704797866,164.5133826557082 421.0008600468106,163.43042061039975 C 420.9997187223235,162.35017403788035 421.00036854794683,161.26909229393243 420.9989645731486,160.18885488746946 C 421.0025771771452,159.10661442606505 420.9972176725365,158.0279479774275 420.97612756752824,156.9555469977964 C 420.14077977723525,156.2156690020297 420.0066723474268,155.20875967489215 419.51729414480855,154.2207847571119 C 418.4267499632958,154.01368414531632 417.53655054931636,153.66040038889867 416.75883503686566,152.7821093013304 C 416.0120099489742,152.03132840625682 416.0031771402944,150.95489989536694 415.99898284410904,149.87630032528784 C 415.99340267067964,148.7974317073478 416.0392539823265,147.6984750344273 415.7739994500637,146.72355401896232 C 414.9902699459279,145.97172189287517 414.9777110309736,144.8825950299484 414.2239026769108,144.05935911392137 C 413.1227522541584,144.02101303222815 412.33183891094995,143.40134742992322 411.4964724323802,142.57417479422816 C 410.9516613539437,141.74850620094963 411.0137818058582,140.6368921034685 410.9963498544668,139.56473711939736 C 411.0009289961224,138.48166772346366 410.9996939061191,137.40146772829422 411.00039429029346,136.32036271262476 C 410.9988186373088,135.2401946183252 411.0034403745896,134.15755201212932 410.9926221327907,133.08105956344724 C 410.99890834383996,131.99775510307492 410.1760081484336,131.2518523445291 410.0035520149517,130.26299570105311 C 409.5611698850378,129.2546803551718 408.4791585271466,129.00885856994722 407.5705595975955,128.6992935167875 C 406.8019407451763,127.81783744104014 406.0308727385988,127.07327428603745 405.99936023881514,126.00808419628743 C 405.9986033889812,124.92765856157922 406.00068157723234,123.84582757356841 405.99972317855014,122.76549694413798 C 406.0002947618428,121.68443879813232 405.9989395144413,120.6041862244195 406.0044874742271,119.5211734477028 C 405.981873305161,118.44937913325678 406.0688270949032,117.33394880198736 405.4735073406214,116.49233500193553 C 404.9658439460529,115.6408897791268 404.8250836857812,114.54344309297743 403.86021345453645,113.98783399695972 C 402.8277523502089,113.92447194607315 402.0893894247663,113.09704078956543 401.22906037092775,112.34165370071453 C 400.962095444166,111.39064315349704 401.00679768042835,110.28750874578168 401.00256415682856,109.20933173112053 C 400.98915891905943,108.13369667592322 401.0180584631312,107.0414124408786 400.2135142942228,106.28721927360971 C 399.9991413789969,105.31718847990714 399.60359964432797,104.2904256870573 398.53204818806694,104.00386030307479 C 397.60497029272256,103.73672862859354 396.8446147912733,102.85430709026734 396.0522386441733,102.11401669370727 C 395.99475477031746,101.06165001632466 395.9995436495915,99.9784736371504 396.00050155412964,98.8971980121761 C 395.99976354394835,97.81675935478715 396.0002531374019,96.73573716170195 395.9990635690996,95.65541821585298 C 396.00413086967495,94.57259685383733 395.9826501043031,93.50035118938838 396.06859401225563,92.38532302990075 C 395.5186580513007,91.52521701445708 394.962792352618,90.69192173108134 394.85435415788163,89.58982118283639 C 393.914119524388,88.99057305429515 392.8672095008937,88.94707958941198 392.1264129079217,88.14020932147709 C 391.2644121895975,87.37641807392464 390.9575903495792,86.44415937819508 391.0081701989984,85.3381032043914 C 391.0026128923932,84.26063793296488 390.98639303708427,83.18605548377865 391.03373229233785,82.08648741080646 C 390.25298410924455,81.32149915457585 389.9936401495751,80.37228793323628 389.64551161323305,79.32198365723308 C 388.5832119395376,79.01117478625905 387.65021035856967,78.71325377471761 386.8753271371356,77.95567534565258 C 385.7706585826407,78.01575354977 384.6980181915697,77.99521218611508 383.6147882391687,78.00132629583226 C 382.53465036153506,77.99965720150028 381.4536801189282,78.00008329144323 380.3729197816322,77.99998101904414 C 379.29210968208446,78.00000400550414 378.21131060723616,77.99999924118575 377.13050929088126,78.00000011906631 C 376.04970837500633,77.99999998888046 374.968907403644,77.99999999836513 373.88810643486045,78.00000000135755 C 372.807305468017,77.99999999946726 371.72650450014334,78.00000000016979 370.64570353263554,77.99999999995151 C 369.56490256501667,78.00000000001286 368.48410159742843,77.99999999999685 367.40330062983224,78.00000000000077 C 366.32249966223816,77.99999999999984 365.24169869464345,78.00000000000006 364.16089772704896,77.99999999999997 C 363.08009675945425,78.00000000000001 361.9992957918597,77.99999999999997 360.9184948242653,78.00000000000003 C 359.83769385667074,77.99999999999997 358.7568928890763,78.0 357.67609192148166,78.00000000000001 C 356.5952909538871,78.0 355.5144899862927,78.0 354.4336890186981,78.0 C 353.3528880511036,78.0 352.27208708350884,78.00000000000001 351.1912861159143,78.0 C 350.11048514831975,78.0 349.0296841807252,78.0 347.9488832131306,77.99999999999997 C 346.86808224553636,78.00000000000003 345.78728127794176,78.0 344.70648031034716,78.0 C 343.6256793427527,78.0 342.54487837515813,78.0 341.4640774075634,78.00000000000001 C 340.383276439969,78.0 339.30247547237445,78.0 338.22167450477997,78.0 C 337.14087353718537,78.0 336.0600725695906,78.00000000000003 334.9792716019963,77.99999999999999 C 333.8984706344018,78.00000000000003 332.8176696668072,77.99999999999999 331.7368686992127,78.00000000000001 C 330.65606773161795,78.0 329.5752667640235,78.00000000000001 328.4944657964289,78.00000000000001 C 327.4136648288345,77.99999999999999 326.33286386123984,78.00000000000001 325.25206289364525,78.0 C 324.1712619260507,78.00000000000001 323.0904609584561,78.00000000000001 322.00965999086185,78.0 C 320.92885902326725,78.00000000000003 319.8480580556726,78.00000000000001 318.7672570880781,78.00000000000001 C 317.6864561204836,78.00000000000001 316.60565515288914,78.00000000000001 315.5248541852945,78.00000000000003 C 314.4440532176998,78.0 313.36325225010535,78.00000000000003 312.2824512825107,77.99999999999999 C 311.2016503149162,77.99999999999999 310.12084934732184,78.00000000000003 309.04004837972724,77.99999999999999 C 307.9592474121327,78.00000000000001 306.8784464445381,77.99999999999997 305.79764547694356,78.0 C 304.71684450934885,78.00000000000001 303.6360435417545,78.0 302.5552425741599,78.00000000000001 C 301.47444160656545,78.00000000000001 300.3936406389709,78.0 299.3128396713762,78.00000000000003 C 298.2320387037816,77.99999999999999 297.15123773618734,78.0 296.07043676859274,77.99999999999999 C 294.98963580099826,78.00000000000001 293.90883483340355,78.00000000000003 292.82803386580906,78.0 C 291.7472328982145,78.00000000000001 290.6664319306199,78.0 289.5856309630254,78.0 C 288.5048299954307,78.00000000000001 287.4240290278361,78.0 286.34322806024164,78.00000000000001 C 285.26242709264716,77.99999999999999 284.1816261250526,78.00000000000001 283.1008251574582,78.0 C 282.02002418986365,78.00000000000001 280.93922322226916,78.00000000000003 279.85842225467457,77.99999999999999 C 278.77762128707997,78.0 277.69682031948537,78.00000000000001 276.6160193518908,78.0 C 275.53521838429623,78.00000000000001 274.45441741670174,77.99999999999997 273.3736164491071,78.00000000000001 C 272.29281548151266,77.99999999999999 271.21201451391823,78.00000000000001 270.13121354632364,77.99999999999999 C 269.0504125787292,78.0 267.96961161113444,78.00000000000003 266.8888106435399,77.99999999999999 C 265.8080096759454,78.00000000000001 264.727208708351,78.00000000000001 263.6464077407564,78.0 C 262.56560677316173,78.00000000000001 261.48480580556713,78.0 260.40400483797265,78.00000000000001 C 259.32320387037834,78.00000000000001 258.2424029027839,78.0 257.16160193518914,78.0 C 256.08080096759454,78.00000000000001 255.0,78.0 252.00000000000003,78.00000000000001 " fill="none" stroke="black" /></svg>